  0
SECTION
  2
HEADER
  9
$ANGBASE
  50
0.0
  9
$ANGDIR
  70
1
  9
$MEASUREMENT
  70
0
  0
ENDSEC
  0
SECTION
  2
TABLES
  0
TABLE
  2
LTYPE
  70
4
  0
LTYPE
  5
40F
  2
CONTINUOUS
  70
0
  3
Solid line
  72
65
  73
0
  40
0.0
  0
LTYPE
  5
410
  2
DASHDOT
 70
0
  3
Dash Dot ____ _ ____ _
 72
65
 73
4
 40
2.0
 49
1.25
 49
-0.25
 49
0.25
 49
-0.25
  0
LTYPE
  5
411
  2
DASHED
 70
0
  3
Dashed __ __ __ __ __
 72
65
 73
2
 40
0.75
 49
0.5
 49
-0.25
  0
LTYPE
  5
43B
  2
DOTTED
 70
0
  3
Dotted .  .  .  .
 72
65
 73
2
 40
0.2
 49
0.0
 49
-0.2
  0
ENDTAB
  0
TABLE
  2
STYLE
  70
4
  0
STYLE
  2
KICAD
  70
0
  40
0
  41
1
  42
1
  50
0
  71
0
  3
isocp.shx
  0
STYLE
  2
KICADB
  70
0
  40
0
  41
1
  42
1
  50
0
  71
0
  3
isocp.shx
  0
STYLE
  2
KICADI
  70
0
  40
0
  41
1
  42
1
  50
15
  71
0
  3
isocp.shx
  0
STYLE
  2
KICADBI
  70
0
  40
0
  41
1
  42
1
  50
15
  71
0
  3
isocp.shx
  0
ENDTAB
  0
TABLE
  2
LAYER
  70
1
  0
LAYER
  2
BLACK
  70
0
  62
7
  6
CONTINUOUS
  0
ENDTAB
  0
ENDSEC
  0
SECTION
  2
ENTITIES
0
LINE
8
BLACK
6
CONTINUOUS
10
0.214063
20
0.32481
11
0.227949
21
0.322451
0
LINE
8
BLACK
6
CONTINUOUS
10
0.227949
20
0.322451
11
0.241483
21
0.318552
0
LINE
8
BLACK
6
CONTINUOUS
10
0.241483
20
0.318552
11
0.254496
21
0.313162
0
LINE
8
BLACK
6
CONTINUOUS
10
0.254496
20
0.313162
11
0.266823
21
0.306349
0
LINE
8
BLACK
6
CONTINUOUS
10
0.266823
20
0.306349
11
0.27831
21
0.298198
0
LINE
8
BLACK
6
CONTINUOUS
10
0.27831
20
0.298198
11
0.288813
21
0.288813
0
LINE
8
BLACK
6
CONTINUOUS
10
0.288813
20
0.288813
11
0.298198
21
0.27831
0
LINE
8
BLACK
6
CONTINUOUS
10
0.298198
20
0.27831
11
0.306349
21
0.266823
0
LINE
8
BLACK
6
CONTINUOUS
10
0.306349
20
0.266823
11
0.313162
21
0.254496
0
LINE
8
BLACK
6
CONTINUOUS
10
0.313162
20
0.254496
11
0.318552
21
0.241483
0
LINE
8
BLACK
6
CONTINUOUS
10
0.318552
20
0.241483
11
0.322451
21
0.227949
0
LINE
8
BLACK
6
CONTINUOUS
10
0.322451
20
0.227949
11
0.32481
21
0.214063
0
LINE
8
BLACK
6
CONTINUOUS
10
0.32481
20
0.214063
11
0.3256
21
0.2
0
LINE
8
BLACK
6
CONTINUOUS
10
0.3256
20
0.2
11
0.32481
21
0.185937
0
LINE
8
BLACK
6
CONTINUOUS
10
0.32481
20
0.185937
11
0.322451
21
0.172051
0
LINE
8
BLACK
6
CONTINUOUS
10
0.322451
20
0.172051
11
0.318552
21
0.158517
0
LINE
8
BLACK
6
CONTINUOUS
10
0.318552
20
0.158517
11
0.313162
21
0.145504
0
LINE
8
BLACK
6
CONTINUOUS
10
0.313162
20
0.145504
11
0.306349
21
0.133177
0
LINE
8
BLACK
6
CONTINUOUS
10
0.306349
20
0.133177
11
0.298198
21
0.12169
0
LINE
8
BLACK
6
CONTINUOUS
10
0.298198
20
0.12169
11
0.288813
21
0.111187
0
LINE
8
BLACK
6
CONTINUOUS
10
0.288813
20
0.111187
11
0.27831
21
0.101802
0
LINE
8
BLACK
6
CONTINUOUS
10
0.27831
20
0.101802
11
0.266823
21
0.0936515
0
LINE
8
BLACK
6
CONTINUOUS
10
0.266823
20
0.0936515
11
0.254496
21
0.0868383
0
LINE
8
BLACK
6
CONTINUOUS
10
0.254496
20
0.0868383
11
0.241483
21
0.0814483
0
LINE
8
BLACK
6
CONTINUOUS
10
0.241483
20
0.0814483
11
0.227949
21
0.0775491
0
LINE
8
BLACK
6
CONTINUOUS
10
0.227949
20
0.0775491
11
0.214063
21
0.0751898
0
LINE
8
BLACK
6
CONTINUOUS
10
0.214063
20
0.0751898
11
0.2
21
0.0744
0
LINE
8
BLACK
6
CONTINUOUS
10
0.2
20
0.0744
11
0.185937
21
0.0751898
0
LINE
8
BLACK
6
CONTINUOUS
10
0.185937
20
0.0751898
11
0.172051
21
0.0775491
0
LINE
8
BLACK
6
CONTINUOUS
10
0.172051
20
0.0775491
11
0.158517
21
0.0814483
0
LINE
8
BLACK
6
CONTINUOUS
10
0.158517
20
0.0814483
11
0.145504
21
0.0868383
0
LINE
8
BLACK
6
CONTINUOUS
10
0.145504
20
0.0868383
11
0.133177
21
0.0936515
0
LINE
8
BLACK
6
CONTINUOUS
10
0.133177
20
0.0936515
11
0.12169
21
0.101802
0
LINE
8
BLACK
6
CONTINUOUS
10
0.12169
20
0.101802
11
0.111187
21
0.111187
0
LINE
8
BLACK
6
CONTINUOUS
10
0.111187
20
0.111187
11
0.101802
21
0.12169
0
LINE
8
BLACK
6
CONTINUOUS
10
0.101802
20
0.12169
11
0.0936515
21
0.133177
0
LINE
8
BLACK
6
CONTINUOUS
10
0.0936515
20
0.133177
11
0.0868383
21
0.145504
0
LINE
8
BLACK
6
CONTINUOUS
10
0.0868383
20
0.145504
11
0.0814483
21
0.158517
0
LINE
8
BLACK
6
CONTINUOUS
10
0.0814483
20
0.158517
11
0.0775491
21
0.172051
0
LINE
8
BLACK
6
CONTINUOUS
10
0.0775491
20
0.172051
11
0.0751898
21
0.185937
0
LINE
8
BLACK
6
CONTINUOUS
10
0.0751898
20
0.185937
11
0.0744
21
0.2
0
LINE
8
BLACK
6
CONTINUOUS
10
0.0744
20
0.2
11
0.0751898
21
0.214063
0
LINE
8
BLACK
6
CONTINUOUS
10
0.0751898
20
0.214063
11
0.0775491
21
0.227949
0
LINE
8
BLACK
6
CONTINUOUS
10
0.0775491
20
0.227949
11
0.0814483
21
0.241483
0
LINE
8
BLACK
6
CONTINUOUS
10
0.0814483
20
0.241483
11
0.0868383
21
0.254496
0
LINE
8
BLACK
6
CONTINUOUS
10
0.0868383
20
0.254496
11
0.0936515
21
0.266823
0
LINE
8
BLACK
6
CONTINUOUS
10
0.0936515
20
0.266823
11
0.101802
21
0.27831
0
LINE
8
BLACK
6
CONTINUOUS
10
0.101802
20
0.27831
11
0.111187
21
0.288813
0
LINE
8
BLACK
6
CONTINUOUS
10
0.111187
20
0.288813
11
0.12169
21
0.298198
0
LINE
8
BLACK
6
CONTINUOUS
10
0.12169
20
0.298198
11
0.133177
21
0.306349
0
LINE
8
BLACK
6
CONTINUOUS
10
0.133177
20
0.306349
11
0.145504
21
0.313162
0
LINE
8
BLACK
6
CONTINUOUS
10
0.145504
20
0.313162
11
0.158517
21
0.318552
0
LINE
8
BLACK
6
CONTINUOUS
10
0.158517
20
0.318552
11
0.172051
21
0.322451
0
LINE
8
BLACK
6
CONTINUOUS
10
0.172051
20
0.322451
11
0.185937
21
0.32481
0
LINE
8
BLACK
6
CONTINUOUS
10
0.185937
20
0.32481
11
0.2
21
0.3256
0
LINE
8
BLACK
6
CONTINUOUS
10
0.2
20
0.3256
11
0.214063
21
0.32481
0
LINE
8
BLACK
6
CONTINUOUS
10
0.0899617
20
0.187138
11
0.0921989
21
0.174451
0
LINE
8
BLACK
6
CONTINUOUS
10
0.0921989
20
0.174451
11
0.0958939
21
0.162108
0
LINE
8
BLACK
6
CONTINUOUS
10
0.0958939
20
0.162108
11
0.100997
21
0.150279
0
LINE
8
BLACK
6
CONTINUOUS
10
0.100997
20
0.150279
11
0.107438
21
0.139121
0
LINE
8
BLACK
6
CONTINUOUS
10
0.107438
20
0.139121
11
0.115132
21
0.128787
0
LINE
8
BLACK
6
CONTINUOUS
10
0.115132
20
0.128787
11
0.123973
21
0.119416
0
LINE
8
BLACK
6
CONTINUOUS
10
0.123973
20
0.119416
11
0.133842
21
0.111135
0
LINE
8
BLACK
6
CONTINUOUS
10
0.133842
20
0.111135
11
0.144606
21
0.104055
0
LINE
8
BLACK
6
CONTINUOUS
10
0.144606
20
0.104055
11
0.156119
21
0.0982732
0
LINE
8
BLACK
6
CONTINUOUS
10
0.156119
20
0.0982732
11
0.168226
21
0.0938668
0
LINE
8
BLACK
6
CONTINUOUS
10
0.168226
20
0.0938668
11
0.180762
21
0.0908957
0
LINE
8
BLACK
6
CONTINUOUS
10
0.180762
20
0.0908957
11
0.193558
21
0.0894
0
LINE
8
BLACK
6
CONTINUOUS
10
0.193558
20
0.0894
11
0.206442
21
0.0894
0
LINE
8
BLACK
6
CONTINUOUS
10
0.206442
20
0.0894
11
0.219238
21
0.0908957
0
LINE
8
BLACK
6
CONTINUOUS
10
0.219238
20
0.0908957
11
0.231774
21
0.0938668
0
LINE
8
BLACK
6
CONTINUOUS
10
0.231774
20
0.0938668
11
0.243881
21
0.0982732
0
LINE
8
BLACK
6
CONTINUOUS
10
0.243881
20
0.0982732
11
0.255394
21
0.104055
0
LINE
8
BLACK
6
CONTINUOUS
10
0.255394
20
0.104055
11
0.266158
21
0.111135
0
LINE
8
BLACK
6
CONTINUOUS
10
0.266158
20
0.111135
11
0.276027
21
0.119416
0
LINE
8
BLACK
6
CONTINUOUS
10
0.276027
20
0.119416
11
0.284868
21
0.128787
0
LINE
8
BLACK
6
CONTINUOUS
10
0.284868
20
0.128787
11
0.292562
21
0.139121
0
LINE
8
BLACK
6
CONTINUOUS
10
0.292562
20
0.139121
11
0.299003
21
0.150279
0
LINE
8
BLACK
6
CONTINUOUS
10
0.299003
20
0.150279
11
0.304106
21
0.162108
0
LINE
8
BLACK
6
CONTINUOUS
10
0.304106
20
0.162108
11
0.307801
21
0.174451
0
LINE
8
BLACK
6
CONTINUOUS
10
0.307801
20
0.174451
11
0.310038
21
0.187138
0
LINE
8
BLACK
6
CONTINUOUS
10
0.310038
20
0.187138
11
0.310787
21
0.2
0
LINE
8
BLACK
6
CONTINUOUS
10
0.310787
20
0.2
11
0.310038
21
0.212862
0
LINE
8
BLACK
6
CONTINUOUS
10
0.310038
20
0.212862
11
0.307801
21
0.225549
0
LINE
8
BLACK
6
CONTINUOUS
10
0.307801
20
0.225549
11
0.304106
21
0.237892
0
LINE
8
BLACK
6
CONTINUOUS
10
0.304106
20
0.237892
11
0.299003
21
0.249721
0
LINE
8
BLACK
6
CONTINUOUS
10
0.299003
20
0.249721
11
0.292562
21
0.260879
0
LINE
8
BLACK
6
CONTINUOUS
10
0.292562
20
0.260879
11
0.284868
21
0.271213
0
LINE
8
BLACK
6
CONTINUOUS
10
0.284868
20
0.271213
11
0.276027
21
0.280584
0
LINE
8
BLACK
6
CONTINUOUS
10
0.276027
20
0.280584
11
0.266158
21
0.288865
0
LINE
8
BLACK
6
CONTINUOUS
10
0.266158
20
0.288865
11
0.255394
21
0.295945
0
LINE
8
BLACK
6
CONTINUOUS
10
0.255394
20
0.295945
11
0.243881
21
0.301727
0
LINE
8
BLACK
6
CONTINUOUS
10
0.243881
20
0.301727
11
0.231774
21
0.306133
0
LINE
8
BLACK
6
CONTINUOUS
10
0.231774
20
0.306133
11
0.219238
21
0.309104
0
LINE
8
BLACK
6
CONTINUOUS
10
0.219238
20
0.309104
11
0.206442
21
0.3106
0
LINE
8
BLACK
6
CONTINUOUS
10
0.206442
20
0.3106
11
0.193558
21
0.3106
0
LINE
8
BLACK
6
CONTINUOUS
10
0.193558
20
0.3106
11
0.180762
21
0.309104
0
LINE
8
BLACK
6
CONTINUOUS
10
0.180762
20
0.309104
11
0.168226
21
0.306133
0
LINE
8
BLACK
6
CONTINUOUS
10
0.168226
20
0.306133
11
0.156119
21
0.301727
0
LINE
8
BLACK
6
CONTINUOUS
10
0.156119
20
0.301727
11
0.144606
21
0.295945
0
LINE
8
BLACK
6
CONTINUOUS
10
0.144606
20
0.295945
11
0.133842
21
0.288865
0
LINE
8
BLACK
6
CONTINUOUS
10
0.133842
20
0.288865
11
0.123973
21
0.280584
0
LINE
8
BLACK
6
CONTINUOUS
10
0.123973
20
0.280584
11
0.115132
21
0.271213
0
LINE
8
BLACK
6
CONTINUOUS
10
0.115132
20
0.271213
11
0.107438
21
0.260879
0
LINE
8
BLACK
6
CONTINUOUS
10
0.107438
20
0.260879
11
0.100997
21
0.249721
0
LINE
8
BLACK
6
CONTINUOUS
10
0.100997
20
0.249721
11
0.0958939
21
0.237892
0
LINE
8
BLACK
6
CONTINUOUS
10
0.0958939
20
0.237892
11
0.0921989
21
0.225549
0
LINE
8
BLACK
6
CONTINUOUS
10
0.0921989
20
0.225549
11
0.0899617
21
0.212862
0
LINE
8
BLACK
6
CONTINUOUS
10
0.0899617
20
0.212862
11
0.0892126
21
0.2
0
LINE
8
BLACK
6
CONTINUOUS
10
0.0892126
20
0.2
11
0.0899617
21
0.187138
0
LINE
8
BLACK
6
CONTINUOUS
10
1.41406
20
0.32481
11
1.42795
21
0.322451
0
LINE
8
BLACK
6
CONTINUOUS
10
1.42795
20
0.322451
11
1.44148
21
0.318552
0
LINE
8
BLACK
6
CONTINUOUS
10
1.44148
20
0.318552
11
1.4545
21
0.313162
0
LINE
8
BLACK
6
CONTINUOUS
10
1.4545
20
0.313162
11
1.46682
21
0.306349
0
LINE
8
BLACK
6
CONTINUOUS
10
1.46682
20
0.306349
11
1.47831
21
0.298198
0
LINE
8
BLACK
6
CONTINUOUS
10
1.47831
20
0.298198
11
1.48881
21
0.288813
0
LINE
8
BLACK
6
CONTINUOUS
10
1.48881
20
0.288813
11
1.4982
21
0.27831
0
LINE
8
BLACK
6
CONTINUOUS
10
1.4982
20
0.27831
11
1.50635
21
0.266823
0
LINE
8
BLACK
6
CONTINUOUS
10
1.50635
20
0.266823
11
1.51316
21
0.254496
0
LINE
8
BLACK
6
CONTINUOUS
10
1.51316
20
0.254496
11
1.51855
21
0.241483
0
LINE
8
BLACK
6
CONTINUOUS
10
1.51855
20
0.241483
11
1.52245
21
0.227949
0
LINE
8
BLACK
6
CONTINUOUS
10
1.52245
20
0.227949
11
1.52481
21
0.214063
0
LINE
8
BLACK
6
CONTINUOUS
10
1.52481
20
0.214063
11
1.5256
21
0.2
0
LINE
8
BLACK
6
CONTINUOUS
10
1.5256
20
0.2
11
1.52481
21
0.185937
0
LINE
8
BLACK
6
CONTINUOUS
10
1.52481
20
0.185937
11
1.52245
21
0.172051
0
LINE
8
BLACK
6
CONTINUOUS
10
1.52245
20
0.172051
11
1.51855
21
0.158517
0
LINE
8
BLACK
6
CONTINUOUS
10
1.51855
20
0.158517
11
1.51316
21
0.145504
0
LINE
8
BLACK
6
CONTINUOUS
10
1.51316
20
0.145504
11
1.50635
21
0.133177
0
LINE
8
BLACK
6
CONTINUOUS
10
1.50635
20
0.133177
11
1.4982
21
0.12169
0
LINE
8
BLACK
6
CONTINUOUS
10
1.4982
20
0.12169
11
1.48881
21
0.111187
0
LINE
8
BLACK
6
CONTINUOUS
10
1.48881
20
0.111187
11
1.47831
21
0.101802
0
LINE
8
BLACK
6
CONTINUOUS
10
1.47831
20
0.101802
11
1.46682
21
0.0936515
0
LINE
8
BLACK
6
CONTINUOUS
10
1.46682
20
0.0936515
11
1.4545
21
0.0868383
0
LINE
8
BLACK
6
CONTINUOUS
10
1.4545
20
0.0868383
11
1.44148
21
0.0814483
0
LINE
8
BLACK
6
CONTINUOUS
10
1.44148
20
0.0814483
11
1.42795
21
0.0775491
0
LINE
8
BLACK
6
CONTINUOUS
10
1.42795
20
0.0775491
11
1.41406
21
0.0751898
0
LINE
8
BLACK
6
CONTINUOUS
10
1.41406
20
0.0751898
11
1.4
21
0.0744
0
LINE
8
BLACK
6
CONTINUOUS
10
1.4
20
0.0744
11
1.38594
21
0.0751898
0
LINE
8
BLACK
6
CONTINUOUS
10
1.38594
20
0.0751898
11
1.37205
21
0.0775491
0
LINE
8
BLACK
6
CONTINUOUS
10
1.37205
20
0.0775491
11
1.35852
21
0.0814483
0
LINE
8
BLACK
6
CONTINUOUS
10
1.35852
20
0.0814483
11
1.3455
21
0.0868383
0
LINE
8
BLACK
6
CONTINUOUS
10
1.3455
20
0.0868383
11
1.33318
21
0.0936515
0
LINE
8
BLACK
6
CONTINUOUS
10
1.33318
20
0.0936515
11
1.32169
21
0.101802
0
LINE
8
BLACK
6
CONTINUOUS
10
1.32169
20
0.101802
11
1.31119
21
0.111187
0
LINE
8
BLACK
6
CONTINUOUS
10
1.31119
20
0.111187
11
1.3018
21
0.12169
0
LINE
8
BLACK
6
CONTINUOUS
10
1.3018
20
0.12169
11
1.29365
21
0.133177
0
LINE
8
BLACK
6
CONTINUOUS
10
1.29365
20
0.133177
11
1.28684
21
0.145504
0
LINE
8
BLACK
6
CONTINUOUS
10
1.28684
20
0.145504
11
1.28145
21
0.158517
0
LINE
8
BLACK
6
CONTINUOUS
10
1.28145
20
0.158517
11
1.27755
21
0.172051
0
LINE
8
BLACK
6
CONTINUOUS
10
1.27755
20
0.172051
11
1.27519
21
0.185937
0
LINE
8
BLACK
6
CONTINUOUS
10
1.27519
20
0.185937
11
1.2744
21
0.2
0
LINE
8
BLACK
6
CONTINUOUS
10
1.2744
20
0.2
11
1.27519
21
0.214063
0
LINE
8
BLACK
6
CONTINUOUS
10
1.27519
20
0.214063
11
1.27755
21
0.227949
0
LINE
8
BLACK
6
CONTINUOUS
10
1.27755
20
0.227949
11
1.28145
21
0.241483
0
LINE
8
BLACK
6
CONTINUOUS
10
1.28145
20
0.241483
11
1.28684
21
0.254496
0
LINE
8
BLACK
6
CONTINUOUS
10
1.28684
20
0.254496
11
1.29365
21
0.266823
0
LINE
8
BLACK
6
CONTINUOUS
10
1.29365
20
0.266823
11
1.3018
21
0.27831
0
LINE
8
BLACK
6
CONTINUOUS
10
1.3018
20
0.27831
11
1.31119
21
0.288813
0
LINE
8
BLACK
6
CONTINUOUS
10
1.31119
20
0.288813
11
1.32169
21
0.298198
0
LINE
8
BLACK
6
CONTINUOUS
10
1.32169
20
0.298198
11
1.33318
21
0.306349
0
LINE
8
BLACK
6
CONTINUOUS
10
1.33318
20
0.306349
11
1.3455
21
0.313162
0
LINE
8
BLACK
6
CONTINUOUS
10
1.3455
20
0.313162
11
1.35852
21
0.318552
0
LINE
8
BLACK
6
CONTINUOUS
10
1.35852
20
0.318552
11
1.37205
21
0.322451
0
LINE
8
BLACK
6
CONTINUOUS
10
1.37205
20
0.322451
11
1.38594
21
0.32481
0
LINE
8
BLACK
6
CONTINUOUS
10
1.38594
20
0.32481
11
1.4
21
0.3256
0
LINE
8
BLACK
6
CONTINUOUS
10
1.4
20
0.3256
11
1.41406
21
0.32481
0
LINE
8
BLACK
6
CONTINUOUS
10
1.28996
20
0.187138
11
1.2922
21
0.174451
0
LINE
8
BLACK
6
CONTINUOUS
10
1.2922
20
0.174451
11
1.29589
21
0.162108
0
LINE
8
BLACK
6
CONTINUOUS
10
1.29589
20
0.162108
11
1.301
21
0.150279
0
LINE
8
BLACK
6
CONTINUOUS
10
1.301
20
0.150279
11
1.30744
21
0.139121
0
LINE
8
BLACK
6
CONTINUOUS
10
1.30744
20
0.139121
11
1.31513
21
0.128787
0
LINE
8
BLACK
6
CONTINUOUS
10
1.31513
20
0.128787
11
1.32397
21
0.119416
0
LINE
8
BLACK
6
CONTINUOUS
10
1.32397
20
0.119416
11
1.33384
21
0.111135
0
LINE
8
BLACK
6
CONTINUOUS
10
1.33384
20
0.111135
11
1.34461
21
0.104055
0
LINE
8
BLACK
6
CONTINUOUS
10
1.34461
20
0.104055
11
1.35612
21
0.0982732
0
LINE
8
BLACK
6
CONTINUOUS
10
1.35612
20
0.0982732
11
1.36823
21
0.0938668
0
LINE
8
BLACK
6
CONTINUOUS
10
1.36823
20
0.0938668
11
1.38076
21
0.0908957
0
LINE
8
BLACK
6
CONTINUOUS
10
1.38076
20
0.0908957
11
1.39356
21
0.0894
0
LINE
8
BLACK
6
CONTINUOUS
10
1.39356
20
0.0894
11
1.40644
21
0.0894
0
LINE
8
BLACK
6
CONTINUOUS
10
1.40644
20
0.0894
11
1.41924
21
0.0908957
0
LINE
8
BLACK
6
CONTINUOUS
10
1.41924
20
0.0908957
11
1.43177
21
0.0938668
0
LINE
8
BLACK
6
CONTINUOUS
10
1.43177
20
0.0938668
11
1.44388
21
0.0982732
0
LINE
8
BLACK
6
CONTINUOUS
10
1.44388
20
0.0982732
11
1.45539
21
0.104055
0
LINE
8
BLACK
6
CONTINUOUS
10
1.45539
20
0.104055
11
1.46616
21
0.111135
0
LINE
8
BLACK
6
CONTINUOUS
10
1.46616
20
0.111135
11
1.47603
21
0.119416
0
LINE
8
BLACK
6
CONTINUOUS
10
1.47603
20
0.119416
11
1.48487
21
0.128787
0
LINE
8
BLACK
6
CONTINUOUS
10
1.48487
20
0.128787
11
1.49256
21
0.139121
0
LINE
8
BLACK
6
CONTINUOUS
10
1.49256
20
0.139121
11
1.499
21
0.150279
0
LINE
8
BLACK
6
CONTINUOUS
10
1.499
20
0.150279
11
1.50411
21
0.162108
0
LINE
8
BLACK
6
CONTINUOUS
10
1.50411
20
0.162108
11
1.5078
21
0.174451
0
LINE
8
BLACK
6
CONTINUOUS
10
1.5078
20
0.174451
11
1.51004
21
0.187138
0
LINE
8
BLACK
6
CONTINUOUS
10
1.51004
20
0.187138
11
1.51079
21
0.2
0
LINE
8
BLACK
6
CONTINUOUS
10
1.51079
20
0.2
11
1.51004
21
0.212862
0
LINE
8
BLACK
6
CONTINUOUS
10
1.51004
20
0.212862
11
1.5078
21
0.225549
0
LINE
8
BLACK
6
CONTINUOUS
10
1.5078
20
0.225549
11
1.50411
21
0.237892
0
LINE
8
BLACK
6
CONTINUOUS
10
1.50411
20
0.237892
11
1.499
21
0.249721
0
LINE
8
BLACK
6
CONTINUOUS
10
1.499
20
0.249721
11
1.49256
21
0.260879
0
LINE
8
BLACK
6
CONTINUOUS
10
1.49256
20
0.260879
11
1.48487
21
0.271213
0
LINE
8
BLACK
6
CONTINUOUS
10
1.48487
20
0.271213
11
1.47603
21
0.280584
0
LINE
8
BLACK
6
CONTINUOUS
10
1.47603
20
0.280584
11
1.46616
21
0.288865
0
LINE
8
BLACK
6
CONTINUOUS
10
1.46616
20
0.288865
11
1.45539
21
0.295945
0
LINE
8
BLACK
6
CONTINUOUS
10
1.45539
20
0.295945
11
1.44388
21
0.301727
0
LINE
8
BLACK
6
CONTINUOUS
10
1.44388
20
0.301727
11
1.43177
21
0.306133
0
LINE
8
BLACK
6
CONTINUOUS
10
1.43177
20
0.306133
11
1.41924
21
0.309104
0
LINE
8
BLACK
6
CONTINUOUS
10
1.41924
20
0.309104
11
1.40644
21
0.3106
0
LINE
8
BLACK
6
CONTINUOUS
10
1.40644
20
0.3106
11
1.39356
21
0.3106
0
LINE
8
BLACK
6
CONTINUOUS
10
1.39356
20
0.3106
11
1.38076
21
0.309104
0
LINE
8
BLACK
6
CONTINUOUS
10
1.38076
20
0.309104
11
1.36823
21
0.306133
0
LINE
8
BLACK
6
CONTINUOUS
10
1.36823
20
0.306133
11
1.35612
21
0.301727
0
LINE
8
BLACK
6
CONTINUOUS
10
1.35612
20
0.301727
11
1.34461
21
0.295945
0
LINE
8
BLACK
6
CONTINUOUS
10
1.34461
20
0.295945
11
1.33384
21
0.288865
0
LINE
8
BLACK
6
CONTINUOUS
10
1.33384
20
0.288865
11
1.32397
21
0.280584
0
LINE
8
BLACK
6
CONTINUOUS
10
1.32397
20
0.280584
11
1.31513
21
0.271213
0
LINE
8
BLACK
6
CONTINUOUS
10
1.31513
20
0.271213
11
1.30744
21
0.260879
0
LINE
8
BLACK
6
CONTINUOUS
10
1.30744
20
0.260879
11
1.301
21
0.249721
0
LINE
8
BLACK
6
CONTINUOUS
10
1.301
20
0.249721
11
1.29589
21
0.237892
0
LINE
8
BLACK
6
CONTINUOUS
10
1.29589
20
0.237892
11
1.2922
21
0.225549
0
LINE
8
BLACK
6
CONTINUOUS
10
1.2922
20
0.225549
11
1.28996
21
0.212862
0
LINE
8
BLACK
6
CONTINUOUS
10
1.28996
20
0.212862
11
1.28921
21
0.2
0
LINE
8
BLACK
6
CONTINUOUS
10
1.28921
20
0.2
11
1.28996
21
0.187138
0
LINE
8
BLACK
6
CONTINUOUS
10
0.214063
20
1.52481
11
0.227949
21
1.52245
0
LINE
8
BLACK
6
CONTINUOUS
10
0.227949
20
1.52245
11
0.241483
21
1.51855
0
LINE
8
BLACK
6
CONTINUOUS
10
0.241483
20
1.51855
11
0.254496
21
1.51316
0
LINE
8
BLACK
6
CONTINUOUS
10
0.254496
20
1.51316
11
0.266823
21
1.50635
0
LINE
8
BLACK
6
CONTINUOUS
10
0.266823
20
1.50635
11
0.27831
21
1.4982
0
LINE
8
BLACK
6
CONTINUOUS
10
0.27831
20
1.4982
11
0.288813
21
1.48881
0
LINE
8
BLACK
6
CONTINUOUS
10
0.288813
20
1.48881
11
0.298198
21
1.47831
0
LINE
8
BLACK
6
CONTINUOUS
10
0.298198
20
1.47831
11
0.306349
21
1.46682
0
LINE
8
BLACK
6
CONTINUOUS
10
0.306349
20
1.46682
11
0.313162
21
1.4545
0
LINE
8
BLACK
6
CONTINUOUS
10
0.313162
20
1.4545
11
0.318552
21
1.44148
0
LINE
8
BLACK
6
CONTINUOUS
10
0.318552
20
1.44148
11
0.322451
21
1.42795
0
LINE
8
BLACK
6
CONTINUOUS
10
0.322451
20
1.42795
11
0.32481
21
1.41406
0
LINE
8
BLACK
6
CONTINUOUS
10
0.32481
20
1.41406
11
0.3256
21
1.4
0
LINE
8
BLACK
6
CONTINUOUS
10
0.3256
20
1.4
11
0.32481
21
1.38594
0
LINE
8
BLACK
6
CONTINUOUS
10
0.32481
20
1.38594
11
0.322451
21
1.37205
0
LINE
8
BLACK
6
CONTINUOUS
10
0.322451
20
1.37205
11
0.318552
21
1.35852
0
LINE
8
BLACK
6
CONTINUOUS
10
0.318552
20
1.35852
11
0.313162
21
1.3455
0
LINE
8
BLACK
6
CONTINUOUS
10
0.313162
20
1.3455
11
0.306349
21
1.33318
0
LINE
8
BLACK
6
CONTINUOUS
10
0.306349
20
1.33318
11
0.298198
21
1.32169
0
LINE
8
BLACK
6
CONTINUOUS
10
0.298198
20
1.32169
11
0.288813
21
1.31119
0
LINE
8
BLACK
6
CONTINUOUS
10
0.288813
20
1.31119
11
0.27831
21
1.3018
0
LINE
8
BLACK
6
CONTINUOUS
10
0.27831
20
1.3018
11
0.266823
21
1.29365
0
LINE
8
BLACK
6
CONTINUOUS
10
0.266823
20
1.29365
11
0.254496
21
1.28684
0
LINE
8
BLACK
6
CONTINUOUS
10
0.254496
20
1.28684
11
0.241483
21
1.28145
0
LINE
8
BLACK
6
CONTINUOUS
10
0.241483
20
1.28145
11
0.227949
21
1.27755
0
LINE
8
BLACK
6
CONTINUOUS
10
0.227949
20
1.27755
11
0.214063
21
1.27519
0
LINE
8
BLACK
6
CONTINUOUS
10
0.214063
20
1.27519
11
0.2
21
1.2744
0
LINE
8
BLACK
6
CONTINUOUS
10
0.2
20
1.2744
11
0.185937
21
1.27519
0
LINE
8
BLACK
6
CONTINUOUS
10
0.185937
20
1.27519
11
0.172051
21
1.27755
0
LINE
8
BLACK
6
CONTINUOUS
10
0.172051
20
1.27755
11
0.158517
21
1.28145
0
LINE
8
BLACK
6
CONTINUOUS
10
0.158517
20
1.28145
11
0.145504
21
1.28684
0
LINE
8
BLACK
6
CONTINUOUS
10
0.145504
20
1.28684
11
0.133177
21
1.29365
0
LINE
8
BLACK
6
CONTINUOUS
10
0.133177
20
1.29365
11
0.12169
21
1.3018
0
LINE
8
BLACK
6
CONTINUOUS
10
0.12169
20
1.3018
11
0.111187
21
1.31119
0
LINE
8
BLACK
6
CONTINUOUS
10
0.111187
20
1.31119
11
0.101802
21
1.32169
0
LINE
8
BLACK
6
CONTINUOUS
10
0.101802
20
1.32169
11
0.0936515
21
1.33318
0
LINE
8
BLACK
6
CONTINUOUS
10
0.0936515
20
1.33318
11
0.0868383
21
1.3455
0
LINE
8
BLACK
6
CONTINUOUS
10
0.0868383
20
1.3455
11
0.0814483
21
1.35852
0
LINE
8
BLACK
6
CONTINUOUS
10
0.0814483
20
1.35852
11
0.0775491
21
1.37205
0
LINE
8
BLACK
6
CONTINUOUS
10
0.0775491
20
1.37205
11
0.0751898
21
1.38594
0
LINE
8
BLACK
6
CONTINUOUS
10
0.0751898
20
1.38594
11
0.0744
21
1.4
0
LINE
8
BLACK
6
CONTINUOUS
10
0.0744
20
1.4
11
0.0751898
21
1.41406
0
LINE
8
BLACK
6
CONTINUOUS
10
0.0751898
20
1.41406
11
0.0775491
21
1.42795
0
LINE
8
BLACK
6
CONTINUOUS
10
0.0775491
20
1.42795
11
0.0814483
21
1.44148
0
LINE
8
BLACK
6
CONTINUOUS
10
0.0814483
20
1.44148
11
0.0868383
21
1.4545
0
LINE
8
BLACK
6
CONTINUOUS
10
0.0868383
20
1.4545
11
0.0936515
21
1.46682
0
LINE
8
BLACK
6
CONTINUOUS
10
0.0936515
20
1.46682
11
0.101802
21
1.47831
0
LINE
8
BLACK
6
CONTINUOUS
10
0.101802
20
1.47831
11
0.111187
21
1.48881
0
LINE
8
BLACK
6
CONTINUOUS
10
0.111187
20
1.48881
11
0.12169
21
1.4982
0
LINE
8
BLACK
6
CONTINUOUS
10
0.12169
20
1.4982
11
0.133177
21
1.50635
0
LINE
8
BLACK
6
CONTINUOUS
10
0.133177
20
1.50635
11
0.145504
21
1.51316
0
LINE
8
BLACK
6
CONTINUOUS
10
0.145504
20
1.51316
11
0.158517
21
1.51855
0
LINE
8
BLACK
6
CONTINUOUS
10
0.158517
20
1.51855
11
0.172051
21
1.52245
0
LINE
8
BLACK
6
CONTINUOUS
10
0.172051
20
1.52245
11
0.185937
21
1.52481
0
LINE
8
BLACK
6
CONTINUOUS
10
0.185937
20
1.52481
11
0.2
21
1.5256
0
LINE
8
BLACK
6
CONTINUOUS
10
0.2
20
1.5256
11
0.214063
21
1.52481
0
LINE
8
BLACK
6
CONTINUOUS
10
0.0899617
20
1.38714
11
0.0921989
21
1.37445
0
LINE
8
BLACK
6
CONTINUOUS
10
0.0921989
20
1.37445
11
0.0958939
21
1.36211
0
LINE
8
BLACK
6
CONTINUOUS
10
0.0958939
20
1.36211
11
0.100997
21
1.35028
0
LINE
8
BLACK
6
CONTINUOUS
10
0.100997
20
1.35028
11
0.107438
21
1.33912
0
LINE
8
BLACK
6
CONTINUOUS
10
0.107438
20
1.33912
11
0.115132
21
1.32879
0
LINE
8
BLACK
6
CONTINUOUS
10
0.115132
20
1.32879
11
0.123973
21
1.31942
0
LINE
8
BLACK
6
CONTINUOUS
10
0.123973
20
1.31942
11
0.133842
21
1.31113
0
LINE
8
BLACK
6
CONTINUOUS
10
0.133842
20
1.31113
11
0.144606
21
1.30406
0
LINE
8
BLACK
6
CONTINUOUS
10
0.144606
20
1.30406
11
0.156119
21
1.29827
0
LINE
8
BLACK
6
CONTINUOUS
10
0.156119
20
1.29827
11
0.168226
21
1.29387
0
LINE
8
BLACK
6
CONTINUOUS
10
0.168226
20
1.29387
11
0.180762
21
1.2909
0
LINE
8
BLACK
6
CONTINUOUS
10
0.180762
20
1.2909
11
0.193558
21
1.2894
0
LINE
8
BLACK
6
CONTINUOUS
10
0.193558
20
1.2894
11
0.206442
21
1.2894
0
LINE
8
BLACK
6
CONTINUOUS
10
0.206442
20
1.2894
11
0.219238
21
1.2909
0
LINE
8
BLACK
6
CONTINUOUS
10
0.219238
20
1.2909
11
0.231774
21
1.29387
0
LINE
8
BLACK
6
CONTINUOUS
10
0.231774
20
1.29387
11
0.243881
21
1.29827
0
LINE
8
BLACK
6
CONTINUOUS
10
0.243881
20
1.29827
11
0.255394
21
1.30406
0
LINE
8
BLACK
6
CONTINUOUS
10
0.255394
20
1.30406
11
0.266158
21
1.31113
0
LINE
8
BLACK
6
CONTINUOUS
10
0.266158
20
1.31113
11
0.276027
21
1.31942
0
LINE
8
BLACK
6
CONTINUOUS
10
0.276027
20
1.31942
11
0.284868
21
1.32879
0
LINE
8
BLACK
6
CONTINUOUS
10
0.284868
20
1.32879
11
0.292562
21
1.33912
0
LINE
8
BLACK
6
CONTINUOUS
10
0.292562
20
1.33912
11
0.299003
21
1.35028
0
LINE
8
BLACK
6
CONTINUOUS
10
0.299003
20
1.35028
11
0.304106
21
1.36211
0
LINE
8
BLACK
6
CONTINUOUS
10
0.304106
20
1.36211
11
0.307801
21
1.37445
0
LINE
8
BLACK
6
CONTINUOUS
10
0.307801
20
1.37445
11
0.310038
21
1.38714
0
LINE
8
BLACK
6
CONTINUOUS
10
0.310038
20
1.38714
11
0.310787
21
1.4
0
LINE
8
BLACK
6
CONTINUOUS
10
0.310787
20
1.4
11
0.310038
21
1.41286
0
LINE
8
BLACK
6
CONTINUOUS
10
0.310038
20
1.41286
11
0.307801
21
1.42555
0
LINE
8
BLACK
6
CONTINUOUS
10
0.307801
20
1.42555
11
0.304106
21
1.43789
0
LINE
8
BLACK
6
CONTINUOUS
10
0.304106
20
1.43789
11
0.299003
21
1.44972
0
LINE
8
BLACK
6
CONTINUOUS
10
0.299003
20
1.44972
11
0.292562
21
1.46088
0
LINE
8
BLACK
6
CONTINUOUS
10
0.292562
20
1.46088
11
0.284868
21
1.47121
0
LINE
8
BLACK
6
CONTINUOUS
10
0.284868
20
1.47121
11
0.276027
21
1.48058
0
LINE
8
BLACK
6
CONTINUOUS
10
0.276027
20
1.48058
11
0.266158
21
1.48887
0
LINE
8
BLACK
6
CONTINUOUS
10
0.266158
20
1.48887
11
0.255394
21
1.49594
0
LINE
8
BLACK
6
CONTINUOUS
10
0.255394
20
1.49594
11
0.243881
21
1.50173
0
LINE
8
BLACK
6
CONTINUOUS
10
0.243881
20
1.50173
11
0.231774
21
1.50613
0
LINE
8
BLACK
6
CONTINUOUS
10
0.231774
20
1.50613
11
0.219238
21
1.5091
0
LINE
8
BLACK
6
CONTINUOUS
10
0.219238
20
1.5091
11
0.206442
21
1.5106
0
LINE
8
BLACK
6
CONTINUOUS
10
0.206442
20
1.5106
11
0.193558
21
1.5106
0
LINE
8
BLACK
6
CONTINUOUS
10
0.193558
20
1.5106
11
0.180762
21
1.5091
0
LINE
8
BLACK
6
CONTINUOUS
10
0.180762
20
1.5091
11
0.168226
21
1.50613
0
LINE
8
BLACK
6
CONTINUOUS
10
0.168226
20
1.50613
11
0.156119
21
1.50173
0
LINE
8
BLACK
6
CONTINUOUS
10
0.156119
20
1.50173
11
0.144606
21
1.49594
0
LINE
8
BLACK
6
CONTINUOUS
10
0.144606
20
1.49594
11
0.133842
21
1.48887
0
LINE
8
BLACK
6
CONTINUOUS
10
0.133842
20
1.48887
11
0.123973
21
1.48058
0
LINE
8
BLACK
6
CONTINUOUS
10
0.123973
20
1.48058
11
0.115132
21
1.47121
0
LINE
8
BLACK
6
CONTINUOUS
10
0.115132
20
1.47121
11
0.107438
21
1.46088
0
LINE
8
BLACK
6
CONTINUOUS
10
0.107438
20
1.46088
11
0.100997
21
1.44972
0
LINE
8
BLACK
6
CONTINUOUS
10
0.100997
20
1.44972
11
0.0958939
21
1.43789
0
LINE
8
BLACK
6
CONTINUOUS
10
0.0958939
20
1.43789
11
0.0921989
21
1.42555
0
LINE
8
BLACK
6
CONTINUOUS
10
0.0921989
20
1.42555
11
0.0899617
21
1.41286
0
LINE
8
BLACK
6
CONTINUOUS
10
0.0899617
20
1.41286
11
0.0892126
21
1.4
0
LINE
8
BLACK
6
CONTINUOUS
10
0.0892126
20
1.4
11
0.0899617
21
1.38714
0
LINE
8
BLACK
6
CONTINUOUS
10
1.41406
20
1.52481
11
1.42795
21
1.52245
0
LINE
8
BLACK
6
CONTINUOUS
10
1.42795
20
1.52245
11
1.44148
21
1.51855
0
LINE
8
BLACK
6
CONTINUOUS
10
1.44148
20
1.51855
11
1.4545
21
1.51316
0
LINE
8
BLACK
6
CONTINUOUS
10
1.4545
20
1.51316
11
1.46682
21
1.50635
0
LINE
8
BLACK
6
CONTINUOUS
10
1.46682
20
1.50635
11
1.47831
21
1.4982
0
LINE
8
BLACK
6
CONTINUOUS
10
1.47831
20
1.4982
11
1.48881
21
1.48881
0
LINE
8
BLACK
6
CONTINUOUS
10
1.48881
20
1.48881
11
1.4982
21
1.47831
0
LINE
8
BLACK
6
CONTINUOUS
10
1.4982
20
1.47831
11
1.50635
21
1.46682
0
LINE
8
BLACK
6
CONTINUOUS
10
1.50635
20
1.46682
11
1.51316
21
1.4545
0
LINE
8
BLACK
6
CONTINUOUS
10
1.51316
20
1.4545
11
1.51855
21
1.44148
0
LINE
8
BLACK
6
CONTINUOUS
10
1.51855
20
1.44148
11
1.52245
21
1.42795
0
LINE
8
BLACK
6
CONTINUOUS
10
1.52245
20
1.42795
11
1.52481
21
1.41406
0
LINE
8
BLACK
6
CONTINUOUS
10
1.52481
20
1.41406
11
1.5256
21
1.4
0
LINE
8
BLACK
6
CONTINUOUS
10
1.5256
20
1.4
11
1.52481
21
1.38594
0
LINE
8
BLACK
6
CONTINUOUS
10
1.52481
20
1.38594
11
1.52245
21
1.37205
0
LINE
8
BLACK
6
CONTINUOUS
10
1.52245
20
1.37205
11
1.51855
21
1.35852
0
LINE
8
BLACK
6
CONTINUOUS
10
1.51855
20
1.35852
11
1.51316
21
1.3455
0
LINE
8
BLACK
6
CONTINUOUS
10
1.51316
20
1.3455
11
1.50635
21
1.33318
0
LINE
8
BLACK
6
CONTINUOUS
10
1.50635
20
1.33318
11
1.4982
21
1.32169
0
LINE
8
BLACK
6
CONTINUOUS
10
1.4982
20
1.32169
11
1.48881
21
1.31119
0
LINE
8
BLACK
6
CONTINUOUS
10
1.48881
20
1.31119
11
1.47831
21
1.3018
0
LINE
8
BLACK
6
CONTINUOUS
10
1.47831
20
1.3018
11
1.46682
21
1.29365
0
LINE
8
BLACK
6
CONTINUOUS
10
1.46682
20
1.29365
11
1.4545
21
1.28684
0
LINE
8
BLACK
6
CONTINUOUS
10
1.4545
20
1.28684
11
1.44148
21
1.28145
0
LINE
8
BLACK
6
CONTINUOUS
10
1.44148
20
1.28145
11
1.42795
21
1.27755
0
LINE
8
BLACK
6
CONTINUOUS
10
1.42795
20
1.27755
11
1.41406
21
1.27519
0
LINE
8
BLACK
6
CONTINUOUS
10
1.41406
20
1.27519
11
1.4
21
1.2744
0
LINE
8
BLACK
6
CONTINUOUS
10
1.4
20
1.2744
11
1.38594
21
1.27519
0
LINE
8
BLACK
6
CONTINUOUS
10
1.38594
20
1.27519
11
1.37205
21
1.27755
0
LINE
8
BLACK
6
CONTINUOUS
10
1.37205
20
1.27755
11
1.35852
21
1.28145
0
LINE
8
BLACK
6
CONTINUOUS
10
1.35852
20
1.28145
11
1.3455
21
1.28684
0
LINE
8
BLACK
6
CONTINUOUS
10
1.3455
20
1.28684
11
1.33318
21
1.29365
0
LINE
8
BLACK
6
CONTINUOUS
10
1.33318
20
1.29365
11
1.32169
21
1.3018
0
LINE
8
BLACK
6
CONTINUOUS
10
1.32169
20
1.3018
11
1.31119
21
1.31119
0
LINE
8
BLACK
6
CONTINUOUS
10
1.31119
20
1.31119
11
1.3018
21
1.32169
0
LINE
8
BLACK
6
CONTINUOUS
10
1.3018
20
1.32169
11
1.29365
21
1.33318
0
LINE
8
BLACK
6
CONTINUOUS
10
1.29365
20
1.33318
11
1.28684
21
1.3455
0
LINE
8
BLACK
6
CONTINUOUS
10
1.28684
20
1.3455
11
1.28145
21
1.35852
0
LINE
8
BLACK
6
CONTINUOUS
10
1.28145
20
1.35852
11
1.27755
21
1.37205
0
LINE
8
BLACK
6
CONTINUOUS
10
1.27755
20
1.37205
11
1.27519
21
1.38594
0
LINE
8
BLACK
6
CONTINUOUS
10
1.27519
20
1.38594
11
1.2744
21
1.4
0
LINE
8
BLACK
6
CONTINUOUS
10
1.2744
20
1.4
11
1.27519
21
1.41406
0
LINE
8
BLACK
6
CONTINUOUS
10
1.27519
20
1.41406
11
1.27755
21
1.42795
0
LINE
8
BLACK
6
CONTINUOUS
10
1.27755
20
1.42795
11
1.28145
21
1.44148
0
LINE
8
BLACK
6
CONTINUOUS
10
1.28145
20
1.44148
11
1.28684
21
1.4545
0
LINE
8
BLACK
6
CONTINUOUS
10
1.28684
20
1.4545
11
1.29365
21
1.46682
0
LINE
8
BLACK
6
CONTINUOUS
10
1.29365
20
1.46682
11
1.3018
21
1.47831
0
LINE
8
BLACK
6
CONTINUOUS
10
1.3018
20
1.47831
11
1.31119
21
1.48881
0
LINE
8
BLACK
6
CONTINUOUS
10
1.31119
20
1.48881
11
1.32169
21
1.4982
0
LINE
8
BLACK
6
CONTINUOUS
10
1.32169
20
1.4982
11
1.33318
21
1.50635
0
LINE
8
BLACK
6
CONTINUOUS
10
1.33318
20
1.50635
11
1.3455
21
1.51316
0
LINE
8
BLACK
6
CONTINUOUS
10
1.3455
20
1.51316
11
1.35852
21
1.51855
0
LINE
8
BLACK
6
CONTINUOUS
10
1.35852
20
1.51855
11
1.37205
21
1.52245
0
LINE
8
BLACK
6
CONTINUOUS
10
1.37205
20
1.52245
11
1.38594
21
1.52481
0
LINE
8
BLACK
6
CONTINUOUS
10
1.38594
20
1.52481
11
1.4
21
1.5256
0
LINE
8
BLACK
6
CONTINUOUS
10
1.4
20
1.5256
11
1.41406
21
1.52481
0
LINE
8
BLACK
6
CONTINUOUS
10
1.28996
20
1.38714
11
1.2922
21
1.37445
0
LINE
8
BLACK
6
CONTINUOUS
10
1.2922
20
1.37445
11
1.29589
21
1.36211
0
LINE
8
BLACK
6
CONTINUOUS
10
1.29589
20
1.36211
11
1.301
21
1.35028
0
LINE
8
BLACK
6
CONTINUOUS
10
1.301
20
1.35028
11
1.30744
21
1.33912
0
LINE
8
BLACK
6
CONTINUOUS
10
1.30744
20
1.33912
11
1.31513
21
1.32879
0
LINE
8
BLACK
6
CONTINUOUS
10
1.31513
20
1.32879
11
1.32397
21
1.31942
0
LINE
8
BLACK
6
CONTINUOUS
10
1.32397
20
1.31942
11
1.33384
21
1.31113
0
LINE
8
BLACK
6
CONTINUOUS
10
1.33384
20
1.31113
11
1.34461
21
1.30406
0
LINE
8
BLACK
6
CONTINUOUS
10
1.34461
20
1.30406
11
1.35612
21
1.29827
0
LINE
8
BLACK
6
CONTINUOUS
10
1.35612
20
1.29827
11
1.36823
21
1.29387
0
LINE
8
BLACK
6
CONTINUOUS
10
1.36823
20
1.29387
11
1.38076
21
1.2909
0
LINE
8
BLACK
6
CONTINUOUS
10
1.38076
20
1.2909
11
1.39356
21
1.2894
0
LINE
8
BLACK
6
CONTINUOUS
10
1.39356
20
1.2894
11
1.40644
21
1.2894
0
LINE
8
BLACK
6
CONTINUOUS
10
1.40644
20
1.2894
11
1.41924
21
1.2909
0
LINE
8
BLACK
6
CONTINUOUS
10
1.41924
20
1.2909
11
1.43177
21
1.29387
0
LINE
8
BLACK
6
CONTINUOUS
10
1.43177
20
1.29387
11
1.44388
21
1.29827
0
LINE
8
BLACK
6
CONTINUOUS
10
1.44388
20
1.29827
11
1.45539
21
1.30406
0
LINE
8
BLACK
6
CONTINUOUS
10
1.45539
20
1.30406
11
1.46616
21
1.31113
0
LINE
8
BLACK
6
CONTINUOUS
10
1.46616
20
1.31113
11
1.47603
21
1.31942
0
LINE
8
BLACK
6
CONTINUOUS
10
1.47603
20
1.31942
11
1.48487
21
1.32879
0
LINE
8
BLACK
6
CONTINUOUS
10
1.48487
20
1.32879
11
1.49256
21
1.33912
0
LINE
8
BLACK
6
CONTINUOUS
10
1.49256
20
1.33912
11
1.499
21
1.35028
0
LINE
8
BLACK
6
CONTINUOUS
10
1.499
20
1.35028
11
1.50411
21
1.36211
0
LINE
8
BLACK
6
CONTINUOUS
10
1.50411
20
1.36211
11
1.5078
21
1.37445
0
LINE
8
BLACK
6
CONTINUOUS
10
1.5078
20
1.37445
11
1.51004
21
1.38714
0
LINE
8
BLACK
6
CONTINUOUS
10
1.51004
20
1.38714
11
1.51079
21
1.4
0
LINE
8
BLACK
6
CONTINUOUS
10
1.51079
20
1.4
11
1.51004
21
1.41286
0
LINE
8
BLACK
6
CONTINUOUS
10
1.51004
20
1.41286
11
1.5078
21
1.42555
0
LINE
8
BLACK
6
CONTINUOUS
10
1.5078
20
1.42555
11
1.50411
21
1.43789
0
LINE
8
BLACK
6
CONTINUOUS
10
1.50411
20
1.43789
11
1.499
21
1.44972
0
LINE
8
BLACK
6
CONTINUOUS
10
1.499
20
1.44972
11
1.49256
21
1.46088
0
LINE
8
BLACK
6
CONTINUOUS
10
1.49256
20
1.46088
11
1.48487
21
1.47121
0
LINE
8
BLACK
6
CONTINUOUS
10
1.48487
20
1.47121
11
1.47603
21
1.48058
0
LINE
8
BLACK
6
CONTINUOUS
10
1.47603
20
1.48058
11
1.46616
21
1.48887
0
LINE
8
BLACK
6
CONTINUOUS
10
1.46616
20
1.48887
11
1.45539
21
1.49594
0
LINE
8
BLACK
6
CONTINUOUS
10
1.45539
20
1.49594
11
1.44388
21
1.50173
0
LINE
8
BLACK
6
CONTINUOUS
10
1.44388
20
1.50173
11
1.43177
21
1.50613
0
LINE
8
BLACK
6
CONTINUOUS
10
1.43177
20
1.50613
11
1.41924
21
1.5091
0
LINE
8
BLACK
6
CONTINUOUS
10
1.41924
20
1.5091
11
1.40644
21
1.5106
0
LINE
8
BLACK
6
CONTINUOUS
10
1.40644
20
1.5106
11
1.39356
21
1.5106
0
LINE
8
BLACK
6
CONTINUOUS
10
1.39356
20
1.5106
11
1.38076
21
1.5091
0
LINE
8
BLACK
6
CONTINUOUS
10
1.38076
20
1.5091
11
1.36823
21
1.50613
0
LINE
8
BLACK
6
CONTINUOUS
10
1.36823
20
1.50613
11
1.35612
21
1.50173
0
LINE
8
BLACK
6
CONTINUOUS
10
1.35612
20
1.50173
11
1.34461
21
1.49594
0
LINE
8
BLACK
6
CONTINUOUS
10
1.34461
20
1.49594
11
1.33384
21
1.48887
0
LINE
8
BLACK
6
CONTINUOUS
10
1.33384
20
1.48887
11
1.32397
21
1.48058
0
LINE
8
BLACK
6
CONTINUOUS
10
1.32397
20
1.48058
11
1.31513
21
1.47121
0
LINE
8
BLACK
6
CONTINUOUS
10
1.31513
20
1.47121
11
1.30744
21
1.46088
0
LINE
8
BLACK
6
CONTINUOUS
10
1.30744
20
1.46088
11
1.301
21
1.44972
0
LINE
8
BLACK
6
CONTINUOUS
10
1.301
20
1.44972
11
1.29589
21
1.43789
0
LINE
8
BLACK
6
CONTINUOUS
10
1.29589
20
1.43789
11
1.2922
21
1.42555
0
LINE
8
BLACK
6
CONTINUOUS
10
1.2922
20
1.42555
11
1.28996
21
1.41286
0
LINE
8
BLACK
6
CONTINUOUS
10
1.28996
20
1.41286
11
1.28921
21
1.4
0
LINE
8
BLACK
6
CONTINUOUS
10
1.28921
20
1.4
11
1.28996
21
1.38714
  0
ENDSEC
  0
EOF
