  0
SECTION
  2
HEADER
  9
$ANGBASE
  50
0.0
  9
$ANGDIR
  70
1
  9
$MEASUREMENT
  70
0
  0
ENDSEC
  0
SECTION
  2
TABLES
  0
TABLE
  2
LTYPE
  70
4
  0
LTYPE
  5
40F
  2
CONTINUOUS
  70
0
  3
Solid line
  72
65
  73
0
  40
0.0
  0
LTYPE
  5
410
  2
DASHDOT
 70
0
  3
Dash Dot ____ _ ____ _
 72
65
 73
4
 40
2.0
 49
1.25
 49
-0.25
 49
0.25
 49
-0.25
  0
LTYPE
  5
411
  2
DASHED
 70
0
  3
Dashed __ __ __ __ __
 72
65
 73
2
 40
0.75
 49
0.5
 49
-0.25
  0
LTYPE
  5
43B
  2
DOTTED
 70
0
  3
Dotted .  .  .  .
 72
65
 73
2
 40
0.2
 49
0.0
 49
-0.2
  0
ENDTAB
  0
TABLE
  2
STYLE
  70
4
  0
STYLE
  2
KICAD
  70
0
  40
0
  41
1
  42
1
  50
0
  71
0
  3
isocp.shx
  0
STYLE
  2
KICADB
  70
0
  40
0
  41
1
  42
1
  50
0
  71
0
  3
isocp.shx
  0
STYLE
  2
KICADI
  70
0
  40
0
  41
1
  42
1
  50
15
  71
0
  3
isocp.shx
  0
STYLE
  2
KICADBI
  70
0
  40
0
  41
1
  42
1
  50
15
  71
0
  3
isocp.shx
  0
ENDTAB
  0
TABLE
  2
LAYER
  70
1
  0
LAYER
  2
BLACK
  70
0
  62
7
  6
CONTINUOUS
  0
ENDTAB
  0
ENDSEC
  0
SECTION
  2
ENTITIES
0
LINE
8
BLACK
6
CONTINUOUS
10
0.97
20
0.34
11
0.91
21
0.34
0
LINE
8
BLACK
6
CONTINUOUS
10
0.91
20
0.34
11
0.91
21
0.4
0
LINE
8
BLACK
6
CONTINUOUS
10
0.91
20
0.4
11
0.97
21
0.4
0
LINE
8
BLACK
6
CONTINUOUS
10
0.97
20
0.4
11
0.97
21
0.34
0
LINE
8
BLACK
6
CONTINUOUS
10
1.07
20
0.34
11
1.01
21
0.34
0
LINE
8
BLACK
6
CONTINUOUS
10
1.01
20
0.34
11
1.01
21
0.4
0
LINE
8
BLACK
6
CONTINUOUS
10
1.01
20
0.4
11
1.07
21
0.4
0
LINE
8
BLACK
6
CONTINUOUS
10
1.07
20
0.4
11
1.07
21
0.34
0
LINE
8
BLACK
6
CONTINUOUS
10
0.97
20
0.44
11
0.91
21
0.44
0
LINE
8
BLACK
6
CONTINUOUS
10
0.91
20
0.44
11
0.91
21
0.5
0
LINE
8
BLACK
6
CONTINUOUS
10
0.91
20
0.5
11
0.97
21
0.5
0
LINE
8
BLACK
6
CONTINUOUS
10
0.97
20
0.5
11
0.97
21
0.44
0
LINE
8
BLACK
6
CONTINUOUS
10
1.07
20
0.44
11
1.01
21
0.44
0
LINE
8
BLACK
6
CONTINUOUS
10
1.01
20
0.44
11
1.01
21
0.5
0
LINE
8
BLACK
6
CONTINUOUS
10
1.01
20
0.5
11
1.07
21
0.5
0
LINE
8
BLACK
6
CONTINUOUS
10
1.07
20
0.5
11
1.07
21
0.44
0
LINE
8
BLACK
6
CONTINUOUS
10
1.42
20
0.4
11
1.36
21
0.4
0
LINE
8
BLACK
6
CONTINUOUS
10
1.36
20
0.4
11
1.36
21
0.46
0
LINE
8
BLACK
6
CONTINUOUS
10
1.36
20
0.46
11
1.42
21
0.46
0
LINE
8
BLACK
6
CONTINUOUS
10
1.42
20
0.46
11
1.42
21
0.4
0
LINE
8
BLACK
6
CONTINUOUS
10
1.52
20
0.4
11
1.46
21
0.4
0
LINE
8
BLACK
6
CONTINUOUS
10
1.46
20
0.4
11
1.46
21
0.46
0
LINE
8
BLACK
6
CONTINUOUS
10
1.46
20
0.46
11
1.52
21
0.46
0
LINE
8
BLACK
6
CONTINUOUS
10
1.52
20
0.46
11
1.52
21
0.4
0
LINE
8
BLACK
6
CONTINUOUS
10
1.42
20
0.5
11
1.36
21
0.5
0
LINE
8
BLACK
6
CONTINUOUS
10
1.36
20
0.5
11
1.36
21
0.56
0
LINE
8
BLACK
6
CONTINUOUS
10
1.36
20
0.56
11
1.42
21
0.56
0
LINE
8
BLACK
6
CONTINUOUS
10
1.42
20
0.56
11
1.42
21
0.5
0
LINE
8
BLACK
6
CONTINUOUS
10
1.52
20
0.5
11
1.46
21
0.5
0
LINE
8
BLACK
6
CONTINUOUS
10
1.46
20
0.5
11
1.46
21
0.56
0
LINE
8
BLACK
6
CONTINUOUS
10
1.46
20
0.56
11
1.52
21
0.56
0
LINE
8
BLACK
6
CONTINUOUS
10
1.52
20
0.56
11
1.52
21
0.5
0
LINE
8
BLACK
6
CONTINUOUS
10
1.42
20
0.6
11
1.36
21
0.6
0
LINE
8
BLACK
6
CONTINUOUS
10
1.36
20
0.6
11
1.36
21
0.66
0
LINE
8
BLACK
6
CONTINUOUS
10
1.36
20
0.66
11
1.42
21
0.66
0
LINE
8
BLACK
6
CONTINUOUS
10
1.42
20
0.66
11
1.42
21
0.6
0
LINE
8
BLACK
6
CONTINUOUS
10
1.52
20
0.6
11
1.46
21
0.6
0
LINE
8
BLACK
6
CONTINUOUS
10
1.46
20
0.6
11
1.46
21
0.66
0
LINE
8
BLACK
6
CONTINUOUS
10
1.46
20
0.66
11
1.52
21
0.66
0
LINE
8
BLACK
6
CONTINUOUS
10
1.52
20
0.66
11
1.52
21
0.6
0
LINE
8
BLACK
6
CONTINUOUS
10
1.42
20
0.7
11
1.36
21
0.7
0
LINE
8
BLACK
6
CONTINUOUS
10
1.36
20
0.7
11
1.36
21
0.76
0
LINE
8
BLACK
6
CONTINUOUS
10
1.36
20
0.76
11
1.42
21
0.76
0
LINE
8
BLACK
6
CONTINUOUS
10
1.42
20
0.76
11
1.42
21
0.7
0
LINE
8
BLACK
6
CONTINUOUS
10
1.52
20
0.7
11
1.46
21
0.7
0
LINE
8
BLACK
6
CONTINUOUS
10
1.46
20
0.7
11
1.46
21
0.76
0
LINE
8
BLACK
6
CONTINUOUS
10
1.46
20
0.76
11
1.52
21
0.76
0
LINE
8
BLACK
6
CONTINUOUS
10
1.52
20
0.76
11
1.52
21
0.7
0
LINE
8
BLACK
6
CONTINUOUS
10
0.18
20
0.5
11
0.12
21
0.5
0
LINE
8
BLACK
6
CONTINUOUS
10
0.12
20
0.5
11
0.12
21
0.56
0
LINE
8
BLACK
6
CONTINUOUS
10
0.12
20
0.56
11
0.18
21
0.56
0
LINE
8
BLACK
6
CONTINUOUS
10
0.18
20
0.56
11
0.18
21
0.5
0
LINE
8
BLACK
6
CONTINUOUS
10
0.28
20
0.5
11
0.22
21
0.5
0
LINE
8
BLACK
6
CONTINUOUS
10
0.22
20
0.5
11
0.22
21
0.56
0
LINE
8
BLACK
6
CONTINUOUS
10
0.22
20
0.56
11
0.28
21
0.56
0
LINE
8
BLACK
6
CONTINUOUS
10
0.28
20
0.56
11
0.28
21
0.5
0
LINE
8
BLACK
6
CONTINUOUS
10
0.18
20
0.6
11
0.12
21
0.6
0
LINE
8
BLACK
6
CONTINUOUS
10
0.12
20
0.6
11
0.12
21
0.66
0
LINE
8
BLACK
6
CONTINUOUS
10
0.12
20
0.66
11
0.18
21
0.66
0
LINE
8
BLACK
6
CONTINUOUS
10
0.18
20
0.66
11
0.18
21
0.6
0
LINE
8
BLACK
6
CONTINUOUS
10
0.28
20
0.6
11
0.22
21
0.6
0
LINE
8
BLACK
6
CONTINUOUS
10
0.22
20
0.6
11
0.22
21
0.66
0
LINE
8
BLACK
6
CONTINUOUS
10
0.22
20
0.66
11
0.28
21
0.66
0
LINE
8
BLACK
6
CONTINUOUS
10
0.28
20
0.66
11
0.28
21
0.6
0
LINE
8
BLACK
6
CONTINUOUS
10
1.42
20
0.84
11
1.36
21
0.84
0
LINE
8
BLACK
6
CONTINUOUS
10
1.36
20
0.84
11
1.36
21
0.9
0
LINE
8
BLACK
6
CONTINUOUS
10
1.36
20
0.9
11
1.42
21
0.9
0
LINE
8
BLACK
6
CONTINUOUS
10
1.42
20
0.9
11
1.42
21
0.84
0
LINE
8
BLACK
6
CONTINUOUS
10
1.52
20
0.84
11
1.46
21
0.84
0
LINE
8
BLACK
6
CONTINUOUS
10
1.46
20
0.84
11
1.46
21
0.9
0
LINE
8
BLACK
6
CONTINUOUS
10
1.46
20
0.9
11
1.52
21
0.9
0
LINE
8
BLACK
6
CONTINUOUS
10
1.52
20
0.9
11
1.52
21
0.84
0
LINE
8
BLACK
6
CONTINUOUS
10
1.42
20
0.94
11
1.36
21
0.94
0
LINE
8
BLACK
6
CONTINUOUS
10
1.36
20
0.94
11
1.36
21
1
0
LINE
8
BLACK
6
CONTINUOUS
10
1.36
20
1
11
1.42
21
1
0
LINE
8
BLACK
6
CONTINUOUS
10
1.42
20
1
11
1.42
21
0.94
0
LINE
8
BLACK
6
CONTINUOUS
10
1.52
20
0.94
11
1.46
21
0.94
0
LINE
8
BLACK
6
CONTINUOUS
10
1.46
20
0.94
11
1.46
21
1
0
LINE
8
BLACK
6
CONTINUOUS
10
1.46
20
1
11
1.52
21
1
0
LINE
8
BLACK
6
CONTINUOUS
10
1.52
20
1
11
1.52
21
0.94
0
LINE
8
BLACK
6
CONTINUOUS
10
1.42
20
1.04
11
1.36
21
1.04
0
LINE
8
BLACK
6
CONTINUOUS
10
1.36
20
1.04
11
1.36
21
1.1
0
LINE
8
BLACK
6
CONTINUOUS
10
1.36
20
1.1
11
1.42
21
1.1
0
LINE
8
BLACK
6
CONTINUOUS
10
1.42
20
1.1
11
1.42
21
1.04
0
LINE
8
BLACK
6
CONTINUOUS
10
1.52
20
1.04
11
1.46
21
1.04
0
LINE
8
BLACK
6
CONTINUOUS
10
1.46
20
1.04
11
1.46
21
1.1
0
LINE
8
BLACK
6
CONTINUOUS
10
1.46
20
1.1
11
1.52
21
1.1
0
LINE
8
BLACK
6
CONTINUOUS
10
1.52
20
1.1
11
1.52
21
1.04
0
LINE
8
BLACK
6
CONTINUOUS
10
1.42
20
1.14
11
1.36
21
1.14
0
LINE
8
BLACK
6
CONTINUOUS
10
1.36
20
1.14
11
1.36
21
1.2
0
LINE
8
BLACK
6
CONTINUOUS
10
1.36
20
1.2
11
1.42
21
1.2
0
LINE
8
BLACK
6
CONTINUOUS
10
1.42
20
1.2
11
1.42
21
1.14
0
LINE
8
BLACK
6
CONTINUOUS
10
1.52
20
1.14
11
1.46
21
1.14
0
LINE
8
BLACK
6
CONTINUOUS
10
1.46
20
1.14
11
1.46
21
1.2
0
LINE
8
BLACK
6
CONTINUOUS
10
1.46
20
1.2
11
1.52
21
1.2
0
LINE
8
BLACK
6
CONTINUOUS
10
1.52
20
1.2
11
1.52
21
1.14
0
LINE
8
BLACK
6
CONTINUOUS
10
0.18
20
0.94
11
0.12
21
0.94
0
LINE
8
BLACK
6
CONTINUOUS
10
0.12
20
0.94
11
0.12
21
1
0
LINE
8
BLACK
6
CONTINUOUS
10
0.12
20
1
11
0.18
21
1
0
LINE
8
BLACK
6
CONTINUOUS
10
0.18
20
1
11
0.18
21
0.94
0
LINE
8
BLACK
6
CONTINUOUS
10
0.28
20
0.94
11
0.22
21
0.94
0
LINE
8
BLACK
6
CONTINUOUS
10
0.22
20
0.94
11
0.22
21
1
0
LINE
8
BLACK
6
CONTINUOUS
10
0.22
20
1
11
0.28
21
1
0
LINE
8
BLACK
6
CONTINUOUS
10
0.28
20
1
11
0.28
21
0.94
0
LINE
8
BLACK
6
CONTINUOUS
10
0.18
20
1.04
11
0.12
21
1.04
0
LINE
8
BLACK
6
CONTINUOUS
10
0.12
20
1.04
11
0.12
21
1.1
0
LINE
8
BLACK
6
CONTINUOUS
10
0.12
20
1.1
11
0.18
21
1.1
0
LINE
8
BLACK
6
CONTINUOUS
10
0.18
20
1.1
11
0.18
21
1.04
0
LINE
8
BLACK
6
CONTINUOUS
10
0.28
20
1.04
11
0.22
21
1.04
0
LINE
8
BLACK
6
CONTINUOUS
10
0.22
20
1.04
11
0.22
21
1.1
0
LINE
8
BLACK
6
CONTINUOUS
10
0.22
20
1.1
11
0.28
21
1.1
0
LINE
8
BLACK
6
CONTINUOUS
10
0.28
20
1.1
11
0.28
21
1.04
0
LINE
8
BLACK
6
CONTINUOUS
10
0.97
20
1.12
11
0.91
21
1.12
0
LINE
8
BLACK
6
CONTINUOUS
10
0.91
20
1.12
11
0.91
21
1.18
0
LINE
8
BLACK
6
CONTINUOUS
10
0.91
20
1.18
11
0.97
21
1.18
0
LINE
8
BLACK
6
CONTINUOUS
10
0.97
20
1.18
11
0.97
21
1.12
0
LINE
8
BLACK
6
CONTINUOUS
10
1.07
20
1.12
11
1.01
21
1.12
0
LINE
8
BLACK
6
CONTINUOUS
10
1.01
20
1.12
11
1.01
21
1.18
0
LINE
8
BLACK
6
CONTINUOUS
10
1.01
20
1.18
11
1.07
21
1.18
0
LINE
8
BLACK
6
CONTINUOUS
10
1.07
20
1.18
11
1.07
21
1.12
0
LINE
8
BLACK
6
CONTINUOUS
10
0.97
20
1.22
11
0.91
21
1.22
0
LINE
8
BLACK
6
CONTINUOUS
10
0.91
20
1.22
11
0.91
21
1.28
0
LINE
8
BLACK
6
CONTINUOUS
10
0.91
20
1.28
11
0.97
21
1.28
0
LINE
8
BLACK
6
CONTINUOUS
10
0.97
20
1.28
11
0.97
21
1.22
0
LINE
8
BLACK
6
CONTINUOUS
10
1.07
20
1.22
11
1.01
21
1.22
0
LINE
8
BLACK
6
CONTINUOUS
10
1.01
20
1.22
11
1.01
21
1.28
0
LINE
8
BLACK
6
CONTINUOUS
10
1.01
20
1.28
11
1.07
21
1.28
0
LINE
8
BLACK
6
CONTINUOUS
10
1.07
20
1.28
11
1.07
21
1.22
0
LINE
8
BLACK
6
CONTINUOUS
10
1.58475
20
1.58624
11
1.58658
21
1.58413
0
LINE
8
BLACK
6
CONTINUOUS
10
1.58658
20
1.58413
11
1.58703
21
1.58207
0
LINE
8
BLACK
6
CONTINUOUS
10
1.58703
20
1.58207
11
1.58703
21
0.0179331
0
LINE
8
BLACK
6
CONTINUOUS
10
1.58703
20
0.0179331
11
1.58624
21
0.0152511
0
LINE
8
BLACK
6
CONTINUOUS
10
1.58624
20
0.0152511
11
1.58413
21
0.0134207
0
LINE
8
BLACK
6
CONTINUOUS
10
1.58413
20
0.0134207
11
1.58207
21
0.0129724
0
LINE
8
BLACK
6
CONTINUOUS
10
1.58207
20
0.0129724
11
0.0179331
21
0.0129724
0
LINE
8
BLACK
6
CONTINUOUS
10
0.0179331
20
0.0129724
11
0.0152511
21
0.0137599
0
LINE
8
BLACK
6
CONTINUOUS
10
0.0152511
20
0.0137599
11
0.0134207
21
0.0158724
0
LINE
8
BLACK
6
CONTINUOUS
10
0.0134207
20
0.0158724
11
0.0129724
21
0.0179331
0
LINE
8
BLACK
6
CONTINUOUS
10
0.0129724
20
0.0179331
11
0.0129724
21
0.338085
0
LINE
8
BLACK
6
CONTINUOUS
10
0.0129724
20
0.338085
11
0.0129724
21
0.498085
0
LINE
8
BLACK
6
CONTINUOUS
10
0.0129724
20
0.498085
11
0.0129724
21
0.838085
0
LINE
8
BLACK
6
CONTINUOUS
10
0.0129724
20
0.838085
11
0.0129724
21
0.938085
0
LINE
8
BLACK
6
CONTINUOUS
10
0.0129724
20
0.938085
11
0.0129724
21
1.58207
0
LINE
8
BLACK
6
CONTINUOUS
10
0.0129724
20
1.58207
11
0.0137599
21
1.58475
0
LINE
8
BLACK
6
CONTINUOUS
10
0.0137599
20
1.58475
11
0.0158724
21
1.58658
0
LINE
8
BLACK
6
CONTINUOUS
10
0.0158724
20
1.58658
11
0.0179331
21
1.58703
0
LINE
8
BLACK
6
CONTINUOUS
10
0.0179331
20
1.58703
11
1.58207
21
1.58703
0
LINE
8
BLACK
6
CONTINUOUS
10
1.58207
20
1.58703
11
1.58475
21
1.58624
0
LINE
8
BLACK
6
CONTINUOUS
10
0.890237
20
0.335701
11
0.890237
21
0.335701
0
LINE
8
BLACK
6
CONTINUOUS
10
0.890237
20
0.335701
11
0.892248
21
0.330307
0
LINE
8
BLACK
6
CONTINUOUS
10
0.892248
20
0.330307
11
0.892249
21
0.330307
0
LINE
8
BLACK
6
CONTINUOUS
10
0.892249
20
0.330307
11
0.895698
21
0.325698
0
LINE
8
BLACK
6
CONTINUOUS
10
0.895698
20
0.325698
11
0.900307
21
0.322249
0
LINE
8
BLACK
6
CONTINUOUS
10
0.900307
20
0.322249
11
0.900307
21
0.322248
0
LINE
8
BLACK
6
CONTINUOUS
10
0.900307
20
0.322248
11
0.905701
21
0.320237
0
LINE
8
BLACK
6
CONTINUOUS
10
0.905701
20
0.320237
11
0.905701
21
0.320237
0
LINE
8
BLACK
6
CONTINUOUS
10
0.905701
20
0.320237
11
0.908085
21
0.31998
0
LINE
8
BLACK
6
CONTINUOUS
10
0.908085
20
0.31998
11
0.908085
21
0.31998
0
LINE
8
BLACK
6
CONTINUOUS
10
0.908085
20
0.31998
11
0.971915
21
0.31998
0
LINE
8
BLACK
6
CONTINUOUS
10
0.971915
20
0.31998
11
0.974299
21
0.320237
0
LINE
8
BLACK
6
CONTINUOUS
10
0.974299
20
0.320237
11
0.974299
21
0.320237
0
LINE
8
BLACK
6
CONTINUOUS
10
0.974299
20
0.320237
11
0.979693
21
0.322248
0
LINE
8
BLACK
6
CONTINUOUS
10
0.979693
20
0.322248
11
0.979693
21
0.322249
0
LINE
8
BLACK
6
CONTINUOUS
10
0.979693
20
0.322249
11
0.984302
21
0.325698
0
LINE
8
BLACK
6
CONTINUOUS
10
0.984302
20
0.325698
11
0.986029
21
0.328006
0
LINE
8
BLACK
6
CONTINUOUS
10
0.986029
20
0.328006
11
0.988266
21
0.329681
0
LINE
8
BLACK
6
CONTINUOUS
10
0.988266
20
0.329681
11
0.991054
21
0.32988
0
LINE
8
BLACK
6
CONTINUOUS
10
0.991054
20
0.32988
11
0.993508
21
0.32854
0
LINE
8
BLACK
6
CONTINUOUS
10
0.993508
20
0.32854
11
0.993971
21
0.328006
0
LINE
8
BLACK
6
CONTINUOUS
10
0.993971
20
0.328006
11
0.995698
21
0.325698
0
LINE
8
BLACK
6
CONTINUOUS
10
0.995698
20
0.325698
11
1.00031
21
0.322249
0
LINE
8
BLACK
6
CONTINUOUS
10
1.00031
20
0.322249
11
1.00031
21
0.322248
0
LINE
8
BLACK
6
CONTINUOUS
10
1.00031
20
0.322248
11
1.0057
21
0.320237
0
LINE
8
BLACK
6
CONTINUOUS
10
1.0057
20
0.320237
11
1.0057
21
0.320237
0
LINE
8
BLACK
6
CONTINUOUS
10
1.0057
20
0.320237
11
1.00808
21
0.31998
0
LINE
8
BLACK
6
CONTINUOUS
10
1.00808
20
0.31998
11
1.00809
21
0.31998
0
LINE
8
BLACK
6
CONTINUOUS
10
1.00809
20
0.31998
11
1.07192
21
0.31998
0
LINE
8
BLACK
6
CONTINUOUS
10
1.07192
20
0.31998
11
1.0743
21
0.320237
0
LINE
8
BLACK
6
CONTINUOUS
10
1.0743
20
0.320237
11
1.0743
21
0.320237
0
LINE
8
BLACK
6
CONTINUOUS
10
1.0743
20
0.320237
11
1.07969
21
0.322248
0
LINE
8
BLACK
6
CONTINUOUS
10
1.07969
20
0.322248
11
1.07969
21
0.322249
0
LINE
8
BLACK
6
CONTINUOUS
10
1.07969
20
0.322249
11
1.0843
21
0.325698
0
LINE
8
BLACK
6
CONTINUOUS
10
1.0843
20
0.325698
11
1.08775
21
0.330307
0
LINE
8
BLACK
6
CONTINUOUS
10
1.08775
20
0.330307
11
1.08775
21
0.330307
0
LINE
8
BLACK
6
CONTINUOUS
10
1.08775
20
0.330307
11
1.08976
21
0.335701
0
LINE
8
BLACK
6
CONTINUOUS
10
1.08976
20
0.335701
11
1.08976
21
0.335701
0
LINE
8
BLACK
6
CONTINUOUS
10
1.08976
20
0.335701
11
1.09002
21
0.338085
0
LINE
8
BLACK
6
CONTINUOUS
10
1.09002
20
0.338085
11
1.09002
21
0.338085
0
LINE
8
BLACK
6
CONTINUOUS
10
1.09002
20
0.338085
11
1.09002
21
0.398085
0
LINE
8
BLACK
6
CONTINUOUS
10
1.09002
20
0.398085
11
1.09002
21
0.401915
0
LINE
8
BLACK
6
CONTINUOUS
10
1.09002
20
0.401915
11
1.09002
21
0.401915
0
LINE
8
BLACK
6
CONTINUOUS
10
1.09002
20
0.401915
11
1.08976
21
0.404299
0
LINE
8
BLACK
6
CONTINUOUS
10
1.08976
20
0.404299
11
1.08976
21
0.404299
0
LINE
8
BLACK
6
CONTINUOUS
10
1.08976
20
0.404299
11
1.08949
21
0.405041
0
LINE
8
BLACK
6
CONTINUOUS
10
1.08949
20
0.405041
11
1.08775
21
0.409693
0
LINE
8
BLACK
6
CONTINUOUS
10
1.08775
20
0.409693
11
1.0843
21
0.414302
0
LINE
8
BLACK
6
CONTINUOUS
10
1.0843
20
0.414302
11
1.08199
21
0.416029
0
LINE
8
BLACK
6
CONTINUOUS
10
1.08199
20
0.416029
11
1.08032
21
0.418266
0
LINE
8
BLACK
6
CONTINUOUS
10
1.08032
20
0.418266
11
1.08012
21
0.421054
0
LINE
8
BLACK
6
CONTINUOUS
10
1.08012
20
0.421054
11
1.08146
21
0.423508
0
LINE
8
BLACK
6
CONTINUOUS
10
1.08146
20
0.423508
11
1.08199
21
0.423971
0
LINE
8
BLACK
6
CONTINUOUS
10
1.08199
20
0.423971
11
1.0843
21
0.425698
0
LINE
8
BLACK
6
CONTINUOUS
10
1.0843
20
0.425698
11
1.08775
21
0.430307
0
LINE
8
BLACK
6
CONTINUOUS
10
1.08775
20
0.430307
11
1.08775
21
0.430307
0
LINE
8
BLACK
6
CONTINUOUS
10
1.08775
20
0.430307
11
1.08976
21
0.435701
0
LINE
8
BLACK
6
CONTINUOUS
10
1.08976
20
0.435701
11
1.08976
21
0.435701
0
LINE
8
BLACK
6
CONTINUOUS
10
1.08976
20
0.435701
11
1.09002
21
0.438085
0
LINE
8
BLACK
6
CONTINUOUS
10
1.09002
20
0.438085
11
1.09002
21
0.438085
0
LINE
8
BLACK
6
CONTINUOUS
10
1.09002
20
0.438085
11
1.09002
21
0.501915
0
LINE
8
BLACK
6
CONTINUOUS
10
1.09002
20
0.501915
11
1.09002
21
0.501915
0
LINE
8
BLACK
6
CONTINUOUS
10
1.09002
20
0.501915
11
1.08976
21
0.504299
0
LINE
8
BLACK
6
CONTINUOUS
10
1.08976
20
0.504299
11
1.08976
21
0.504299
0
LINE
8
BLACK
6
CONTINUOUS
10
1.08976
20
0.504299
11
1.08949
21
0.505041
0
LINE
8
BLACK
6
CONTINUOUS
10
1.08949
20
0.505041
11
1.08775
21
0.509693
0
LINE
8
BLACK
6
CONTINUOUS
10
1.08775
20
0.509693
11
1.0843
21
0.514302
0
LINE
8
BLACK
6
CONTINUOUS
10
1.0843
20
0.514302
11
1.07969
21
0.517752
0
LINE
8
BLACK
6
CONTINUOUS
10
1.07969
20
0.517752
11
1.0743
21
0.519763
0
LINE
8
BLACK
6
CONTINUOUS
10
1.0743
20
0.519763
11
1.0743
21
0.519763
0
LINE
8
BLACK
6
CONTINUOUS
10
1.0743
20
0.519763
11
1.0743
21
0.519763
0
LINE
8
BLACK
6
CONTINUOUS
10
1.0743
20
0.519763
11
1.07192
21
0.52002
0
LINE
8
BLACK
6
CONTINUOUS
10
1.07192
20
0.52002
11
1.07192
21
0.52002
0
LINE
8
BLACK
6
CONTINUOUS
10
1.07192
20
0.52002
11
1.07191
21
0.52002
0
LINE
8
BLACK
6
CONTINUOUS
10
1.07191
20
0.52002
11
1.00809
21
0.52002
0
LINE
8
BLACK
6
CONTINUOUS
10
1.00809
20
0.52002
11
1.00808
21
0.52002
0
LINE
8
BLACK
6
CONTINUOUS
10
1.00808
20
0.52002
11
1.00808
21
0.52002
0
LINE
8
BLACK
6
CONTINUOUS
10
1.00808
20
0.52002
11
1.0057
21
0.519763
0
LINE
8
BLACK
6
CONTINUOUS
10
1.0057
20
0.519763
11
1.0057
21
0.519763
0
LINE
8
BLACK
6
CONTINUOUS
10
1.0057
20
0.519763
11
1.00263
21
0.518619
0
LINE
8
BLACK
6
CONTINUOUS
10
1.00263
20
0.518619
11
1.00031
21
0.517752
0
LINE
8
BLACK
6
CONTINUOUS
10
1.00031
20
0.517752
11
1.00031
21
0.517751
0
LINE
8
BLACK
6
CONTINUOUS
10
1.00031
20
0.517751
11
1.00031
21
0.517751
0
LINE
8
BLACK
6
CONTINUOUS
10
1.00031
20
0.517751
11
0.995698
21
0.514302
0
LINE
8
BLACK
6
CONTINUOUS
10
0.995698
20
0.514302
11
0.993971
21
0.511994
0
LINE
8
BLACK
6
CONTINUOUS
10
0.993971
20
0.511994
11
0.991734
21
0.510319
0
LINE
8
BLACK
6
CONTINUOUS
10
0.991734
20
0.510319
11
0.988946
21
0.51012
0
LINE
8
BLACK
6
CONTINUOUS
10
0.988946
20
0.51012
11
0.986492
21
0.511459
0
LINE
8
BLACK
6
CONTINUOUS
10
0.986492
20
0.511459
11
0.986029
21
0.511994
0
LINE
8
BLACK
6
CONTINUOUS
10
0.986029
20
0.511994
11
0.984302
21
0.514302
0
LINE
8
BLACK
6
CONTINUOUS
10
0.984302
20
0.514302
11
0.979693
21
0.517751
0
LINE
8
BLACK
6
CONTINUOUS
10
0.979693
20
0.517751
11
0.979693
21
0.517751
0
LINE
8
BLACK
6
CONTINUOUS
10
0.979693
20
0.517751
11
0.979693
21
0.517752
0
LINE
8
BLACK
6
CONTINUOUS
10
0.979693
20
0.517752
11
0.974299
21
0.519763
0
LINE
8
BLACK
6
CONTINUOUS
10
0.974299
20
0.519763
11
0.974299
21
0.519763
0
LINE
8
BLACK
6
CONTINUOUS
10
0.974299
20
0.519763
11
0.974299
21
0.519763
0
LINE
8
BLACK
6
CONTINUOUS
10
0.974299
20
0.519763
11
0.971915
21
0.52002
0
LINE
8
BLACK
6
CONTINUOUS
10
0.971915
20
0.52002
11
0.971915
21
0.52002
0
LINE
8
BLACK
6
CONTINUOUS
10
0.971915
20
0.52002
11
0.971915
21
0.52002
0
LINE
8
BLACK
6
CONTINUOUS
10
0.971915
20
0.52002
11
0.908085
21
0.52002
0
LINE
8
BLACK
6
CONTINUOUS
10
0.908085
20
0.52002
11
0.908085
21
0.52002
0
LINE
8
BLACK
6
CONTINUOUS
10
0.908085
20
0.52002
11
0.908085
21
0.52002
0
LINE
8
BLACK
6
CONTINUOUS
10
0.908085
20
0.52002
11
0.905701
21
0.519763
0
LINE
8
BLACK
6
CONTINUOUS
10
0.905701
20
0.519763
11
0.905701
21
0.519763
0
LINE
8
BLACK
6
CONTINUOUS
10
0.905701
20
0.519763
11
0.902633
21
0.518619
0
LINE
8
BLACK
6
CONTINUOUS
10
0.902633
20
0.518619
11
0.900307
21
0.517752
0
LINE
8
BLACK
6
CONTINUOUS
10
0.900307
20
0.517752
11
0.900307
21
0.517751
0
LINE
8
BLACK
6
CONTINUOUS
10
0.900307
20
0.517751
11
0.900307
21
0.517751
0
LINE
8
BLACK
6
CONTINUOUS
10
0.900307
20
0.517751
11
0.895698
21
0.514302
0
LINE
8
BLACK
6
CONTINUOUS
10
0.895698
20
0.514302
11
0.892249
21
0.509693
0
LINE
8
BLACK
6
CONTINUOUS
10
0.892249
20
0.509693
11
0.892248
21
0.509693
0
LINE
8
BLACK
6
CONTINUOUS
10
0.892248
20
0.509693
11
0.890237
21
0.504299
0
LINE
8
BLACK
6
CONTINUOUS
10
0.890237
20
0.504299
11
0.890237
21
0.504299
0
LINE
8
BLACK
6
CONTINUOUS
10
0.890237
20
0.504299
11
0.88998
21
0.501915
0
LINE
8
BLACK
6
CONTINUOUS
10
0.88998
20
0.501915
11
0.88998
21
0.438085
0
LINE
8
BLACK
6
CONTINUOUS
10
0.88998
20
0.438085
11
0.890237
21
0.435701
0
LINE
8
BLACK
6
CONTINUOUS
10
0.890237
20
0.435701
11
0.890237
21
0.435701
0
LINE
8
BLACK
6
CONTINUOUS
10
0.890237
20
0.435701
11
0.892248
21
0.430307
0
LINE
8
BLACK
6
CONTINUOUS
10
0.892248
20
0.430307
11
0.892249
21
0.430307
0
LINE
8
BLACK
6
CONTINUOUS
10
0.892249
20
0.430307
11
0.895698
21
0.425698
0
LINE
8
BLACK
6
CONTINUOUS
10
0.895698
20
0.425698
11
0.898006
21
0.423971
0
LINE
8
BLACK
6
CONTINUOUS
10
0.898006
20
0.423971
11
0.899681
21
0.421734
0
LINE
8
BLACK
6
CONTINUOUS
10
0.899681
20
0.421734
11
0.89988
21
0.418946
0
LINE
8
BLACK
6
CONTINUOUS
10
0.89988
20
0.418946
11
0.898541
21
0.416492
0
LINE
8
BLACK
6
CONTINUOUS
10
0.898541
20
0.416492
11
0.898006
21
0.416029
0
LINE
8
BLACK
6
CONTINUOUS
10
0.898006
20
0.416029
11
0.895698
21
0.414302
0
LINE
8
BLACK
6
CONTINUOUS
10
0.895698
20
0.414302
11
0.892249
21
0.409693
0
LINE
8
BLACK
6
CONTINUOUS
10
0.892249
20
0.409693
11
0.892248
21
0.409693
0
LINE
8
BLACK
6
CONTINUOUS
10
0.892248
20
0.409693
11
0.890237
21
0.404299
0
LINE
8
BLACK
6
CONTINUOUS
10
0.890237
20
0.404299
11
0.890237
21
0.404299
0
LINE
8
BLACK
6
CONTINUOUS
10
0.890237
20
0.404299
11
0.88998
21
0.401915
0
LINE
8
BLACK
6
CONTINUOUS
10
0.88998
20
0.401915
11
0.88998
21
0.338085
0
LINE
8
BLACK
6
CONTINUOUS
10
0.88998
20
0.338085
11
0.890237
21
0.335701
0
LINE
8
BLACK
6
CONTINUOUS
10
1.34024
20
0.395701
11
1.34024
21
0.395701
0
LINE
8
BLACK
6
CONTINUOUS
10
1.34024
20
0.395701
11
1.34225
21
0.390307
0
LINE
8
BLACK
6
CONTINUOUS
10
1.34225
20
0.390307
11
1.34225
21
0.390307
0
LINE
8
BLACK
6
CONTINUOUS
10
1.34225
20
0.390307
11
1.3457
21
0.385698
0
LINE
8
BLACK
6
CONTINUOUS
10
1.3457
20
0.385698
11
1.35031
21
0.382249
0
LINE
8
BLACK
6
CONTINUOUS
10
1.35031
20
0.382249
11
1.35031
21
0.382248
0
LINE
8
BLACK
6
CONTINUOUS
10
1.35031
20
0.382248
11
1.3557
21
0.380237
0
LINE
8
BLACK
6
CONTINUOUS
10
1.3557
20
0.380237
11
1.3557
21
0.380237
0
LINE
8
BLACK
6
CONTINUOUS
10
1.3557
20
0.380237
11
1.35808
21
0.37998
0
LINE
8
BLACK
6
CONTINUOUS
10
1.35808
20
0.37998
11
1.35809
21
0.37998
0
LINE
8
BLACK
6
CONTINUOUS
10
1.35809
20
0.37998
11
1.42192
21
0.37998
0
LINE
8
BLACK
6
CONTINUOUS
10
1.42192
20
0.37998
11
1.4243
21
0.380237
0
LINE
8
BLACK
6
CONTINUOUS
10
1.4243
20
0.380237
11
1.4243
21
0.380237
0
LINE
8
BLACK
6
CONTINUOUS
10
1.4243
20
0.380237
11
1.42969
21
0.382248
0
LINE
8
BLACK
6
CONTINUOUS
10
1.42969
20
0.382248
11
1.42969
21
0.382249
0
LINE
8
BLACK
6
CONTINUOUS
10
1.42969
20
0.382249
11
1.4343
21
0.385698
0
LINE
8
BLACK
6
CONTINUOUS
10
1.4343
20
0.385698
11
1.43603
21
0.388006
0
LINE
8
BLACK
6
CONTINUOUS
10
1.43603
20
0.388006
11
1.43827
21
0.389681
0
LINE
8
BLACK
6
CONTINUOUS
10
1.43827
20
0.389681
11
1.44105
21
0.38988
0
LINE
8
BLACK
6
CONTINUOUS
10
1.44105
20
0.38988
11
1.44351
21
0.38854
0
LINE
8
BLACK
6
CONTINUOUS
10
1.44351
20
0.38854
11
1.44397
21
0.388006
0
LINE
8
BLACK
6
CONTINUOUS
10
1.44397
20
0.388006
11
1.4457
21
0.385698
0
LINE
8
BLACK
6
CONTINUOUS
10
1.4457
20
0.385698
11
1.45031
21
0.382249
0
LINE
8
BLACK
6
CONTINUOUS
10
1.45031
20
0.382249
11
1.45031
21
0.382248
0
LINE
8
BLACK
6
CONTINUOUS
10
1.45031
20
0.382248
11
1.4557
21
0.380237
0
LINE
8
BLACK
6
CONTINUOUS
10
1.4557
20
0.380237
11
1.4557
21
0.380237
0
LINE
8
BLACK
6
CONTINUOUS
10
1.4557
20
0.380237
11
1.45808
21
0.37998
0
LINE
8
BLACK
6
CONTINUOUS
10
1.45808
20
0.37998
11
1.45809
21
0.37998
0
LINE
8
BLACK
6
CONTINUOUS
10
1.45809
20
0.37998
11
1.52192
21
0.37998
0
LINE
8
BLACK
6
CONTINUOUS
10
1.52192
20
0.37998
11
1.5243
21
0.380237
0
LINE
8
BLACK
6
CONTINUOUS
10
1.5243
20
0.380237
11
1.5243
21
0.380237
0
LINE
8
BLACK
6
CONTINUOUS
10
1.5243
20
0.380237
11
1.52969
21
0.382248
0
LINE
8
BLACK
6
CONTINUOUS
10
1.52969
20
0.382248
11
1.52969
21
0.382249
0
LINE
8
BLACK
6
CONTINUOUS
10
1.52969
20
0.382249
11
1.5343
21
0.385698
0
LINE
8
BLACK
6
CONTINUOUS
10
1.5343
20
0.385698
11
1.53775
21
0.390307
0
LINE
8
BLACK
6
CONTINUOUS
10
1.53775
20
0.390307
11
1.53775
21
0.390307
0
LINE
8
BLACK
6
CONTINUOUS
10
1.53775
20
0.390307
11
1.53976
21
0.395701
0
LINE
8
BLACK
6
CONTINUOUS
10
1.53976
20
0.395701
11
1.53976
21
0.395701
0
LINE
8
BLACK
6
CONTINUOUS
10
1.53976
20
0.395701
11
1.54002
21
0.398085
0
LINE
8
BLACK
6
CONTINUOUS
10
1.54002
20
0.398085
11
1.54002
21
0.398085
0
LINE
8
BLACK
6
CONTINUOUS
10
1.54002
20
0.398085
11
1.54002
21
0.461915
0
LINE
8
BLACK
6
CONTINUOUS
10
1.54002
20
0.461915
11
1.54002
21
0.461915
0
LINE
8
BLACK
6
CONTINUOUS
10
1.54002
20
0.461915
11
1.53976
21
0.464299
0
LINE
8
BLACK
6
CONTINUOUS
10
1.53976
20
0.464299
11
1.53976
21
0.464299
0
LINE
8
BLACK
6
CONTINUOUS
10
1.53976
20
0.464299
11
1.53949
21
0.465041
0
LINE
8
BLACK
6
CONTINUOUS
10
1.53949
20
0.465041
11
1.53775
21
0.469693
0
LINE
8
BLACK
6
CONTINUOUS
10
1.53775
20
0.469693
11
1.5343
21
0.474302
0
LINE
8
BLACK
6
CONTINUOUS
10
1.5343
20
0.474302
11
1.53199
21
0.476029
0
LINE
8
BLACK
6
CONTINUOUS
10
1.53199
20
0.476029
11
1.53032
21
0.478266
0
LINE
8
BLACK
6
CONTINUOUS
10
1.53032
20
0.478266
11
1.53012
21
0.481054
0
LINE
8
BLACK
6
CONTINUOUS
10
1.53012
20
0.481054
11
1.53146
21
0.483508
0
LINE
8
BLACK
6
CONTINUOUS
10
1.53146
20
0.483508
11
1.53199
21
0.483971
0
LINE
8
BLACK
6
CONTINUOUS
10
1.53199
20
0.483971
11
1.5343
21
0.485698
0
LINE
8
BLACK
6
CONTINUOUS
10
1.5343
20
0.485698
11
1.53775
21
0.490307
0
LINE
8
BLACK
6
CONTINUOUS
10
1.53775
20
0.490307
11
1.53775
21
0.490307
0
LINE
8
BLACK
6
CONTINUOUS
10
1.53775
20
0.490307
11
1.53976
21
0.495701
0
LINE
8
BLACK
6
CONTINUOUS
10
1.53976
20
0.495701
11
1.53976
21
0.495701
0
LINE
8
BLACK
6
CONTINUOUS
10
1.53976
20
0.495701
11
1.54002
21
0.498085
0
LINE
8
BLACK
6
CONTINUOUS
10
1.54002
20
0.498085
11
1.54002
21
0.498085
0
LINE
8
BLACK
6
CONTINUOUS
10
1.54002
20
0.498085
11
1.54002
21
0.561915
0
LINE
8
BLACK
6
CONTINUOUS
10
1.54002
20
0.561915
11
1.54002
21
0.561915
0
LINE
8
BLACK
6
CONTINUOUS
10
1.54002
20
0.561915
11
1.53976
21
0.564299
0
LINE
8
BLACK
6
CONTINUOUS
10
1.53976
20
0.564299
11
1.53976
21
0.564299
0
LINE
8
BLACK
6
CONTINUOUS
10
1.53976
20
0.564299
11
1.53949
21
0.565041
0
LINE
8
BLACK
6
CONTINUOUS
10
1.53949
20
0.565041
11
1.53775
21
0.569693
0
LINE
8
BLACK
6
CONTINUOUS
10
1.53775
20
0.569693
11
1.5343
21
0.574302
0
LINE
8
BLACK
6
CONTINUOUS
10
1.5343
20
0.574302
11
1.53199
21
0.576029
0
LINE
8
BLACK
6
CONTINUOUS
10
1.53199
20
0.576029
11
1.53032
21
0.578266
0
LINE
8
BLACK
6
CONTINUOUS
10
1.53032
20
0.578266
11
1.53012
21
0.581054
0
LINE
8
BLACK
6
CONTINUOUS
10
1.53012
20
0.581054
11
1.53146
21
0.583508
0
LINE
8
BLACK
6
CONTINUOUS
10
1.53146
20
0.583508
11
1.53199
21
0.583971
0
LINE
8
BLACK
6
CONTINUOUS
10
1.53199
20
0.583971
11
1.5343
21
0.585698
0
LINE
8
BLACK
6
CONTINUOUS
10
1.5343
20
0.585698
11
1.53775
21
0.590307
0
LINE
8
BLACK
6
CONTINUOUS
10
1.53775
20
0.590307
11
1.53775
21
0.590307
0
LINE
8
BLACK
6
CONTINUOUS
10
1.53775
20
0.590307
11
1.53976
21
0.595701
0
LINE
8
BLACK
6
CONTINUOUS
10
1.53976
20
0.595701
11
1.53976
21
0.595701
0
LINE
8
BLACK
6
CONTINUOUS
10
1.53976
20
0.595701
11
1.54002
21
0.598085
0
LINE
8
BLACK
6
CONTINUOUS
10
1.54002
20
0.598085
11
1.54002
21
0.598085
0
LINE
8
BLACK
6
CONTINUOUS
10
1.54002
20
0.598085
11
1.54002
21
0.661915
0
LINE
8
BLACK
6
CONTINUOUS
10
1.54002
20
0.661915
11
1.54002
21
0.661915
0
LINE
8
BLACK
6
CONTINUOUS
10
1.54002
20
0.661915
11
1.53976
21
0.664299
0
LINE
8
BLACK
6
CONTINUOUS
10
1.53976
20
0.664299
11
1.53976
21
0.664299
0
LINE
8
BLACK
6
CONTINUOUS
10
1.53976
20
0.664299
11
1.53949
21
0.665041
0
LINE
8
BLACK
6
CONTINUOUS
10
1.53949
20
0.665041
11
1.53775
21
0.669693
0
LINE
8
BLACK
6
CONTINUOUS
10
1.53775
20
0.669693
11
1.5343
21
0.674302
0
LINE
8
BLACK
6
CONTINUOUS
10
1.5343
20
0.674302
11
1.53199
21
0.676029
0
LINE
8
BLACK
6
CONTINUOUS
10
1.53199
20
0.676029
11
1.53032
21
0.678266
0
LINE
8
BLACK
6
CONTINUOUS
10
1.53032
20
0.678266
11
1.53012
21
0.681054
0
LINE
8
BLACK
6
CONTINUOUS
10
1.53012
20
0.681054
11
1.53146
21
0.683508
0
LINE
8
BLACK
6
CONTINUOUS
10
1.53146
20
0.683508
11
1.53199
21
0.683971
0
LINE
8
BLACK
6
CONTINUOUS
10
1.53199
20
0.683971
11
1.5343
21
0.685698
0
LINE
8
BLACK
6
CONTINUOUS
10
1.5343
20
0.685698
11
1.53775
21
0.690307
0
LINE
8
BLACK
6
CONTINUOUS
10
1.53775
20
0.690307
11
1.53775
21
0.690307
0
LINE
8
BLACK
6
CONTINUOUS
10
1.53775
20
0.690307
11
1.53976
21
0.695701
0
LINE
8
BLACK
6
CONTINUOUS
10
1.53976
20
0.695701
11
1.53976
21
0.695701
0
LINE
8
BLACK
6
CONTINUOUS
10
1.53976
20
0.695701
11
1.54002
21
0.698085
0
LINE
8
BLACK
6
CONTINUOUS
10
1.54002
20
0.698085
11
1.54002
21
0.698085
0
LINE
8
BLACK
6
CONTINUOUS
10
1.54002
20
0.698085
11
1.54002
21
0.761915
0
LINE
8
BLACK
6
CONTINUOUS
10
1.54002
20
0.761915
11
1.54002
21
0.761915
0
LINE
8
BLACK
6
CONTINUOUS
10
1.54002
20
0.761915
11
1.53976
21
0.764299
0
LINE
8
BLACK
6
CONTINUOUS
10
1.53976
20
0.764299
11
1.53976
21
0.764299
0
LINE
8
BLACK
6
CONTINUOUS
10
1.53976
20
0.764299
11
1.53949
21
0.765041
0
LINE
8
BLACK
6
CONTINUOUS
10
1.53949
20
0.765041
11
1.53775
21
0.769693
0
LINE
8
BLACK
6
CONTINUOUS
10
1.53775
20
0.769693
11
1.5343
21
0.774302
0
LINE
8
BLACK
6
CONTINUOUS
10
1.5343
20
0.774302
11
1.52969
21
0.777752
0
LINE
8
BLACK
6
CONTINUOUS
10
1.52969
20
0.777752
11
1.5243
21
0.779763
0
LINE
8
BLACK
6
CONTINUOUS
10
1.5243
20
0.779763
11
1.5243
21
0.779763
0
LINE
8
BLACK
6
CONTINUOUS
10
1.5243
20
0.779763
11
1.5243
21
0.779763
0
LINE
8
BLACK
6
CONTINUOUS
10
1.5243
20
0.779763
11
1.52192
21
0.78002
0
LINE
8
BLACK
6
CONTINUOUS
10
1.52192
20
0.78002
11
1.52192
21
0.78002
0
LINE
8
BLACK
6
CONTINUOUS
10
1.52192
20
0.78002
11
1.52191
21
0.78002
0
LINE
8
BLACK
6
CONTINUOUS
10
1.52191
20
0.78002
11
1.45809
21
0.78002
0
LINE
8
BLACK
6
CONTINUOUS
10
1.45809
20
0.78002
11
1.45808
21
0.78002
0
LINE
8
BLACK
6
CONTINUOUS
10
1.45808
20
0.78002
11
1.45808
21
0.78002
0
LINE
8
BLACK
6
CONTINUOUS
10
1.45808
20
0.78002
11
1.4557
21
0.779763
0
LINE
8
BLACK
6
CONTINUOUS
10
1.4557
20
0.779763
11
1.4557
21
0.779763
0
LINE
8
BLACK
6
CONTINUOUS
10
1.4557
20
0.779763
11
1.45263
21
0.778619
0
LINE
8
BLACK
6
CONTINUOUS
10
1.45263
20
0.778619
11
1.45031
21
0.777752
0
LINE
8
BLACK
6
CONTINUOUS
10
1.45031
20
0.777752
11
1.45031
21
0.777751
0
LINE
8
BLACK
6
CONTINUOUS
10
1.45031
20
0.777751
11
1.45031
21
0.777751
0
LINE
8
BLACK
6
CONTINUOUS
10
1.45031
20
0.777751
11
1.4457
21
0.774302
0
LINE
8
BLACK
6
CONTINUOUS
10
1.4457
20
0.774302
11
1.44397
21
0.771994
0
LINE
8
BLACK
6
CONTINUOUS
10
1.44397
20
0.771994
11
1.44173
21
0.770319
0
LINE
8
BLACK
6
CONTINUOUS
10
1.44173
20
0.770319
11
1.43895
21
0.77012
0
LINE
8
BLACK
6
CONTINUOUS
10
1.43895
20
0.77012
11
1.43649
21
0.771459
0
LINE
8
BLACK
6
CONTINUOUS
10
1.43649
20
0.771459
11
1.43603
21
0.771994
0
LINE
8
BLACK
6
CONTINUOUS
10
1.43603
20
0.771994
11
1.4343
21
0.774302
0
LINE
8
BLACK
6
CONTINUOUS
10
1.4343
20
0.774302
11
1.42969
21
0.777751
0
LINE
8
BLACK
6
CONTINUOUS
10
1.42969
20
0.777751
11
1.42969
21
0.777751
0
LINE
8
BLACK
6
CONTINUOUS
10
1.42969
20
0.777751
11
1.42969
21
0.777752
0
LINE
8
BLACK
6
CONTINUOUS
10
1.42969
20
0.777752
11
1.4243
21
0.779763
0
LINE
8
BLACK
6
CONTINUOUS
10
1.4243
20
0.779763
11
1.4243
21
0.779763
0
LINE
8
BLACK
6
CONTINUOUS
10
1.4243
20
0.779763
11
1.4243
21
0.779763
0
LINE
8
BLACK
6
CONTINUOUS
10
1.4243
20
0.779763
11
1.42192
21
0.78002
0
LINE
8
BLACK
6
CONTINUOUS
10
1.42192
20
0.78002
11
1.42192
21
0.78002
0
LINE
8
BLACK
6
CONTINUOUS
10
1.42192
20
0.78002
11
1.42191
21
0.78002
0
LINE
8
BLACK
6
CONTINUOUS
10
1.42191
20
0.78002
11
1.35809
21
0.78002
0
LINE
8
BLACK
6
CONTINUOUS
10
1.35809
20
0.78002
11
1.35808
21
0.78002
0
LINE
8
BLACK
6
CONTINUOUS
10
1.35808
20
0.78002
11
1.35808
21
0.78002
0
LINE
8
BLACK
6
CONTINUOUS
10
1.35808
20
0.78002
11
1.3557
21
0.779763
0
LINE
8
BLACK
6
CONTINUOUS
10
1.3557
20
0.779763
11
1.3557
21
0.779763
0
LINE
8
BLACK
6
CONTINUOUS
10
1.3557
20
0.779763
11
1.35263
21
0.778619
0
LINE
8
BLACK
6
CONTINUOUS
10
1.35263
20
0.778619
11
1.35031
21
0.777752
0
LINE
8
BLACK
6
CONTINUOUS
10
1.35031
20
0.777752
11
1.35031
21
0.777751
0
LINE
8
BLACK
6
CONTINUOUS
10
1.35031
20
0.777751
11
1.35031
21
0.777751
0
LINE
8
BLACK
6
CONTINUOUS
10
1.35031
20
0.777751
11
1.3457
21
0.774302
0
LINE
8
BLACK
6
CONTINUOUS
10
1.3457
20
0.774302
11
1.34225
21
0.769693
0
LINE
8
BLACK
6
CONTINUOUS
10
1.34225
20
0.769693
11
1.34225
21
0.769693
0
LINE
8
BLACK
6
CONTINUOUS
10
1.34225
20
0.769693
11
1.34024
21
0.764299
0
LINE
8
BLACK
6
CONTINUOUS
10
1.34024
20
0.764299
11
1.34024
21
0.764299
0
LINE
8
BLACK
6
CONTINUOUS
10
1.34024
20
0.764299
11
1.33998
21
0.761915
0
LINE
8
BLACK
6
CONTINUOUS
10
1.33998
20
0.761915
11
1.33998
21
0.698085
0
LINE
8
BLACK
6
CONTINUOUS
10
1.33998
20
0.698085
11
1.34024
21
0.695701
0
LINE
8
BLACK
6
CONTINUOUS
10
1.34024
20
0.695701
11
1.34024
21
0.695701
0
LINE
8
BLACK
6
CONTINUOUS
10
1.34024
20
0.695701
11
1.34225
21
0.690307
0
LINE
8
BLACK
6
CONTINUOUS
10
1.34225
20
0.690307
11
1.34225
21
0.690307
0
LINE
8
BLACK
6
CONTINUOUS
10
1.34225
20
0.690307
11
1.3457
21
0.685698
0
LINE
8
BLACK
6
CONTINUOUS
10
1.3457
20
0.685698
11
1.34801
21
0.683971
0
LINE
8
BLACK
6
CONTINUOUS
10
1.34801
20
0.683971
11
1.34968
21
0.681734
0
LINE
8
BLACK
6
CONTINUOUS
10
1.34968
20
0.681734
11
1.34988
21
0.678946
0
LINE
8
BLACK
6
CONTINUOUS
10
1.34988
20
0.678946
11
1.34854
21
0.676492
0
LINE
8
BLACK
6
CONTINUOUS
10
1.34854
20
0.676492
11
1.34801
21
0.676029
0
LINE
8
BLACK
6
CONTINUOUS
10
1.34801
20
0.676029
11
1.3457
21
0.674302
0
LINE
8
BLACK
6
CONTINUOUS
10
1.3457
20
0.674302
11
1.34225
21
0.669693
0
LINE
8
BLACK
6
CONTINUOUS
10
1.34225
20
0.669693
11
1.34225
21
0.669693
0
LINE
8
BLACK
6
CONTINUOUS
10
1.34225
20
0.669693
11
1.34024
21
0.664299
0
LINE
8
BLACK
6
CONTINUOUS
10
1.34024
20
0.664299
11
1.34024
21
0.664299
0
LINE
8
BLACK
6
CONTINUOUS
10
1.34024
20
0.664299
11
1.33998
21
0.661915
0
LINE
8
BLACK
6
CONTINUOUS
10
1.33998
20
0.661915
11
1.33998
21
0.598085
0
LINE
8
BLACK
6
CONTINUOUS
10
1.33998
20
0.598085
11
1.34024
21
0.595701
0
LINE
8
BLACK
6
CONTINUOUS
10
1.34024
20
0.595701
11
1.34024
21
0.595701
0
LINE
8
BLACK
6
CONTINUOUS
10
1.34024
20
0.595701
11
1.34225
21
0.590307
0
LINE
8
BLACK
6
CONTINUOUS
10
1.34225
20
0.590307
11
1.34225
21
0.590307
0
LINE
8
BLACK
6
CONTINUOUS
10
1.34225
20
0.590307
11
1.3457
21
0.585698
0
LINE
8
BLACK
6
CONTINUOUS
10
1.3457
20
0.585698
11
1.34801
21
0.583971
0
LINE
8
BLACK
6
CONTINUOUS
10
1.34801
20
0.583971
11
1.34968
21
0.581734
0
LINE
8
BLACK
6
CONTINUOUS
10
1.34968
20
0.581734
11
1.34988
21
0.578946
0
LINE
8
BLACK
6
CONTINUOUS
10
1.34988
20
0.578946
11
1.34854
21
0.576492
0
LINE
8
BLACK
6
CONTINUOUS
10
1.34854
20
0.576492
11
1.34801
21
0.576029
0
LINE
8
BLACK
6
CONTINUOUS
10
1.34801
20
0.576029
11
1.3457
21
0.574302
0
LINE
8
BLACK
6
CONTINUOUS
10
1.3457
20
0.574302
11
1.34225
21
0.569693
0
LINE
8
BLACK
6
CONTINUOUS
10
1.34225
20
0.569693
11
1.34225
21
0.569693
0
LINE
8
BLACK
6
CONTINUOUS
10
1.34225
20
0.569693
11
1.34024
21
0.564299
0
LINE
8
BLACK
6
CONTINUOUS
10
1.34024
20
0.564299
11
1.34024
21
0.564299
0
LINE
8
BLACK
6
CONTINUOUS
10
1.34024
20
0.564299
11
1.33998
21
0.561915
0
LINE
8
BLACK
6
CONTINUOUS
10
1.33998
20
0.561915
11
1.33998
21
0.498085
0
LINE
8
BLACK
6
CONTINUOUS
10
1.33998
20
0.498085
11
1.34024
21
0.495701
0
LINE
8
BLACK
6
CONTINUOUS
10
1.34024
20
0.495701
11
1.34024
21
0.495701
0
LINE
8
BLACK
6
CONTINUOUS
10
1.34024
20
0.495701
11
1.34225
21
0.490307
0
LINE
8
BLACK
6
CONTINUOUS
10
1.34225
20
0.490307
11
1.34225
21
0.490307
0
LINE
8
BLACK
6
CONTINUOUS
10
1.34225
20
0.490307
11
1.3457
21
0.485698
0
LINE
8
BLACK
6
CONTINUOUS
10
1.3457
20
0.485698
11
1.34801
21
0.483971
0
LINE
8
BLACK
6
CONTINUOUS
10
1.34801
20
0.483971
11
1.34968
21
0.481734
0
LINE
8
BLACK
6
CONTINUOUS
10
1.34968
20
0.481734
11
1.34988
21
0.478946
0
LINE
8
BLACK
6
CONTINUOUS
10
1.34988
20
0.478946
11
1.34854
21
0.476492
0
LINE
8
BLACK
6
CONTINUOUS
10
1.34854
20
0.476492
11
1.34801
21
0.476029
0
LINE
8
BLACK
6
CONTINUOUS
10
1.34801
20
0.476029
11
1.3457
21
0.474302
0
LINE
8
BLACK
6
CONTINUOUS
10
1.3457
20
0.474302
11
1.34225
21
0.469693
0
LINE
8
BLACK
6
CONTINUOUS
10
1.34225
20
0.469693
11
1.34225
21
0.469693
0
LINE
8
BLACK
6
CONTINUOUS
10
1.34225
20
0.469693
11
1.34024
21
0.464299
0
LINE
8
BLACK
6
CONTINUOUS
10
1.34024
20
0.464299
11
1.34024
21
0.464299
0
LINE
8
BLACK
6
CONTINUOUS
10
1.34024
20
0.464299
11
1.33998
21
0.461915
0
LINE
8
BLACK
6
CONTINUOUS
10
1.33998
20
0.461915
11
1.33998
21
0.398085
0
LINE
8
BLACK
6
CONTINUOUS
10
1.33998
20
0.398085
11
1.34024
21
0.395701
0
LINE
8
BLACK
6
CONTINUOUS
10
0.100237
20
0.495701
11
0.100237
21
0.495701
0
LINE
8
BLACK
6
CONTINUOUS
10
0.100237
20
0.495701
11
0.102248
21
0.490307
0
LINE
8
BLACK
6
CONTINUOUS
10
0.102248
20
0.490307
11
0.102249
21
0.490307
0
LINE
8
BLACK
6
CONTINUOUS
10
0.102249
20
0.490307
11
0.105698
21
0.485698
0
LINE
8
BLACK
6
CONTINUOUS
10
0.105698
20
0.485698
11
0.110307
21
0.482249
0
LINE
8
BLACK
6
CONTINUOUS
10
0.110307
20
0.482249
11
0.110307
21
0.482248
0
LINE
8
BLACK
6
CONTINUOUS
10
0.110307
20
0.482248
11
0.115701
21
0.480237
0
LINE
8
BLACK
6
CONTINUOUS
10
0.115701
20
0.480237
11
0.115701
21
0.480237
0
LINE
8
BLACK
6
CONTINUOUS
10
0.115701
20
0.480237
11
0.118085
21
0.47998
0
LINE
8
BLACK
6
CONTINUOUS
10
0.118085
20
0.47998
11
0.118085
21
0.47998
0
LINE
8
BLACK
6
CONTINUOUS
10
0.118085
20
0.47998
11
0.181915
21
0.47998
0
LINE
8
BLACK
6
CONTINUOUS
10
0.181915
20
0.47998
11
0.184299
21
0.480237
0
LINE
8
BLACK
6
CONTINUOUS
10
0.184299
20
0.480237
11
0.184299
21
0.480237
0
LINE
8
BLACK
6
CONTINUOUS
10
0.184299
20
0.480237
11
0.189693
21
0.482248
0
LINE
8
BLACK
6
CONTINUOUS
10
0.189693
20
0.482248
11
0.189693
21
0.482249
0
LINE
8
BLACK
6
CONTINUOUS
10
0.189693
20
0.482249
11
0.194302
21
0.485698
0
LINE
8
BLACK
6
CONTINUOUS
10
0.194302
20
0.485698
11
0.196029
21
0.488006
0
LINE
8
BLACK
6
CONTINUOUS
10
0.196029
20
0.488006
11
0.198266
21
0.489681
0
LINE
8
BLACK
6
CONTINUOUS
10
0.198266
20
0.489681
11
0.201054
21
0.48988
0
LINE
8
BLACK
6
CONTINUOUS
10
0.201054
20
0.48988
11
0.203508
21
0.48854
0
LINE
8
BLACK
6
CONTINUOUS
10
0.203508
20
0.48854
11
0.203971
21
0.488006
0
LINE
8
BLACK
6
CONTINUOUS
10
0.203971
20
0.488006
11
0.205698
21
0.485698
0
LINE
8
BLACK
6
CONTINUOUS
10
0.205698
20
0.485698
11
0.210307
21
0.482249
0
LINE
8
BLACK
6
CONTINUOUS
10
0.210307
20
0.482249
11
0.210307
21
0.482248
0
LINE
8
BLACK
6
CONTINUOUS
10
0.210307
20
0.482248
11
0.215701
21
0.480237
0
LINE
8
BLACK
6
CONTINUOUS
10
0.215701
20
0.480237
11
0.215701
21
0.480237
0
LINE
8
BLACK
6
CONTINUOUS
10
0.215701
20
0.480237
11
0.218085
21
0.47998
0
LINE
8
BLACK
6
CONTINUOUS
10
0.218085
20
0.47998
11
0.218085
21
0.47998
0
LINE
8
BLACK
6
CONTINUOUS
10
0.218085
20
0.47998
11
0.281915
21
0.47998
0
LINE
8
BLACK
6
CONTINUOUS
10
0.281915
20
0.47998
11
0.284299
21
0.480237
0
LINE
8
BLACK
6
CONTINUOUS
10
0.284299
20
0.480237
11
0.284299
21
0.480237
0
LINE
8
BLACK
6
CONTINUOUS
10
0.284299
20
0.480237
11
0.289693
21
0.482248
0
LINE
8
BLACK
6
CONTINUOUS
10
0.289693
20
0.482248
11
0.289693
21
0.482249
0
LINE
8
BLACK
6
CONTINUOUS
10
0.289693
20
0.482249
11
0.294302
21
0.485698
0
LINE
8
BLACK
6
CONTINUOUS
10
0.294302
20
0.485698
11
0.297751
21
0.490307
0
LINE
8
BLACK
6
CONTINUOUS
10
0.297751
20
0.490307
11
0.297752
21
0.490307
0
LINE
8
BLACK
6
CONTINUOUS
10
0.297752
20
0.490307
11
0.299763
21
0.495701
0
LINE
8
BLACK
6
CONTINUOUS
10
0.299763
20
0.495701
11
0.299763
21
0.495701
0
LINE
8
BLACK
6
CONTINUOUS
10
0.299763
20
0.495701
11
0.30002
21
0.498085
0
LINE
8
BLACK
6
CONTINUOUS
10
0.30002
20
0.498085
11
0.30002
21
0.498085
0
LINE
8
BLACK
6
CONTINUOUS
10
0.30002
20
0.498085
11
0.30002
21
0.561915
0
LINE
8
BLACK
6
CONTINUOUS
10
0.30002
20
0.561915
11
0.30002
21
0.561915
0
LINE
8
BLACK
6
CONTINUOUS
10
0.30002
20
0.561915
11
0.299763
21
0.564299
0
LINE
8
BLACK
6
CONTINUOUS
10
0.299763
20
0.564299
11
0.299763
21
0.564299
0
LINE
8
BLACK
6
CONTINUOUS
10
0.299763
20
0.564299
11
0.299487
21
0.565041
0
LINE
8
BLACK
6
CONTINUOUS
10
0.299487
20
0.565041
11
0.297752
21
0.569693
0
LINE
8
BLACK
6
CONTINUOUS
10
0.297752
20
0.569693
11
0.294302
21
0.574302
0
LINE
8
BLACK
6
CONTINUOUS
10
0.294302
20
0.574302
11
0.291994
21
0.576029
0
LINE
8
BLACK
6
CONTINUOUS
10
0.291994
20
0.576029
11
0.290319
21
0.578266
0
LINE
8
BLACK
6
CONTINUOUS
10
0.290319
20
0.578266
11
0.29012
21
0.581054
0
LINE
8
BLACK
6
CONTINUOUS
10
0.29012
20
0.581054
11
0.291459
21
0.583508
0
LINE
8
BLACK
6
CONTINUOUS
10
0.291459
20
0.583508
11
0.291994
21
0.583971
0
LINE
8
BLACK
6
CONTINUOUS
10
0.291994
20
0.583971
11
0.294302
21
0.585698
0
LINE
8
BLACK
6
CONTINUOUS
10
0.294302
20
0.585698
11
0.297751
21
0.590307
0
LINE
8
BLACK
6
CONTINUOUS
10
0.297751
20
0.590307
11
0.297752
21
0.590307
0
LINE
8
BLACK
6
CONTINUOUS
10
0.297752
20
0.590307
11
0.299763
21
0.595701
0
LINE
8
BLACK
6
CONTINUOUS
10
0.299763
20
0.595701
11
0.299763
21
0.595701
0
LINE
8
BLACK
6
CONTINUOUS
10
0.299763
20
0.595701
11
0.30002
21
0.598085
0
LINE
8
BLACK
6
CONTINUOUS
10
0.30002
20
0.598085
11
0.30002
21
0.598085
0
LINE
8
BLACK
6
CONTINUOUS
10
0.30002
20
0.598085
11
0.30002
21
0.661915
0
LINE
8
BLACK
6
CONTINUOUS
10
0.30002
20
0.661915
11
0.30002
21
0.661915
0
LINE
8
BLACK
6
CONTINUOUS
10
0.30002
20
0.661915
11
0.299763
21
0.664299
0
LINE
8
BLACK
6
CONTINUOUS
10
0.299763
20
0.664299
11
0.299763
21
0.664299
0
LINE
8
BLACK
6
CONTINUOUS
10
0.299763
20
0.664299
11
0.299487
21
0.665041
0
LINE
8
BLACK
6
CONTINUOUS
10
0.299487
20
0.665041
11
0.297752
21
0.669693
0
LINE
8
BLACK
6
CONTINUOUS
10
0.297752
20
0.669693
11
0.294302
21
0.674302
0
LINE
8
BLACK
6
CONTINUOUS
10
0.294302
20
0.674302
11
0.289693
21
0.677751
0
LINE
8
BLACK
6
CONTINUOUS
10
0.289693
20
0.677751
11
0.289693
21
0.677751
0
LINE
8
BLACK
6
CONTINUOUS
10
0.289693
20
0.677751
11
0.289693
21
0.677752
0
LINE
8
BLACK
6
CONTINUOUS
10
0.289693
20
0.677752
11
0.284299
21
0.679763
0
LINE
8
BLACK
6
CONTINUOUS
10
0.284299
20
0.679763
11
0.284299
21
0.679763
0
LINE
8
BLACK
6
CONTINUOUS
10
0.284299
20
0.679763
11
0.284299
21
0.679763
0
LINE
8
BLACK
6
CONTINUOUS
10
0.284299
20
0.679763
11
0.281915
21
0.68002
0
LINE
8
BLACK
6
CONTINUOUS
10
0.281915
20
0.68002
11
0.281915
21
0.68002
0
LINE
8
BLACK
6
CONTINUOUS
10
0.281915
20
0.68002
11
0.281915
21
0.68002
0
LINE
8
BLACK
6
CONTINUOUS
10
0.281915
20
0.68002
11
0.218085
21
0.68002
0
LINE
8
BLACK
6
CONTINUOUS
10
0.218085
20
0.68002
11
0.218085
21
0.68002
0
LINE
8
BLACK
6
CONTINUOUS
10
0.218085
20
0.68002
11
0.218085
21
0.68002
0
LINE
8
BLACK
6
CONTINUOUS
10
0.218085
20
0.68002
11
0.215701
21
0.679763
0
LINE
8
BLACK
6
CONTINUOUS
10
0.215701
20
0.679763
11
0.215701
21
0.679763
0
LINE
8
BLACK
6
CONTINUOUS
10
0.215701
20
0.679763
11
0.213508
21
0.678946
0
LINE
8
BLACK
6
CONTINUOUS
10
0.213508
20
0.678946
11
0.210307
21
0.677752
0
LINE
8
BLACK
6
CONTINUOUS
10
0.210307
20
0.677752
11
0.210307
21
0.677751
0
LINE
8
BLACK
6
CONTINUOUS
10
0.210307
20
0.677751
11
0.210307
21
0.677751
0
LINE
8
BLACK
6
CONTINUOUS
10
0.210307
20
0.677751
11
0.205698
21
0.674302
0
LINE
8
BLACK
6
CONTINUOUS
10
0.205698
20
0.674302
11
0.203971
21
0.671994
0
LINE
8
BLACK
6
CONTINUOUS
10
0.203971
20
0.671994
11
0.201734
21
0.670319
0
LINE
8
BLACK
6
CONTINUOUS
10
0.201734
20
0.670319
11
0.198946
21
0.67012
0
LINE
8
BLACK
6
CONTINUOUS
10
0.198946
20
0.67012
11
0.196492
21
0.671459
0
LINE
8
BLACK
6
CONTINUOUS
10
0.196492
20
0.671459
11
0.196029
21
0.671994
0
LINE
8
BLACK
6
CONTINUOUS
10
0.196029
20
0.671994
11
0.194302
21
0.674302
0
LINE
8
BLACK
6
CONTINUOUS
10
0.194302
20
0.674302
11
0.189693
21
0.677751
0
LINE
8
BLACK
6
CONTINUOUS
10
0.189693
20
0.677751
11
0.189693
21
0.677751
0
LINE
8
BLACK
6
CONTINUOUS
10
0.189693
20
0.677751
11
0.189693
21
0.677752
0
LINE
8
BLACK
6
CONTINUOUS
10
0.189693
20
0.677752
11
0.184299
21
0.679763
0
LINE
8
BLACK
6
CONTINUOUS
10
0.184299
20
0.679763
11
0.184299
21
0.679763
0
LINE
8
BLACK
6
CONTINUOUS
10
0.184299
20
0.679763
11
0.184299
21
0.679763
0
LINE
8
BLACK
6
CONTINUOUS
10
0.184299
20
0.679763
11
0.181915
21
0.68002
0
LINE
8
BLACK
6
CONTINUOUS
10
0.181915
20
0.68002
11
0.181915
21
0.68002
0
LINE
8
BLACK
6
CONTINUOUS
10
0.181915
20
0.68002
11
0.181915
21
0.68002
0
LINE
8
BLACK
6
CONTINUOUS
10
0.181915
20
0.68002
11
0.118085
21
0.68002
0
LINE
8
BLACK
6
CONTINUOUS
10
0.118085
20
0.68002
11
0.118085
21
0.68002
0
LINE
8
BLACK
6
CONTINUOUS
10
0.118085
20
0.68002
11
0.118085
21
0.68002
0
LINE
8
BLACK
6
CONTINUOUS
10
0.118085
20
0.68002
11
0.115701
21
0.679763
0
LINE
8
BLACK
6
CONTINUOUS
10
0.115701
20
0.679763
11
0.115701
21
0.679763
0
LINE
8
BLACK
6
CONTINUOUS
10
0.115701
20
0.679763
11
0.113508
21
0.678946
0
LINE
8
BLACK
6
CONTINUOUS
10
0.113508
20
0.678946
11
0.110307
21
0.677752
0
LINE
8
BLACK
6
CONTINUOUS
10
0.110307
20
0.677752
11
0.110307
21
0.677751
0
LINE
8
BLACK
6
CONTINUOUS
10
0.110307
20
0.677751
11
0.110307
21
0.677751
0
LINE
8
BLACK
6
CONTINUOUS
10
0.110307
20
0.677751
11
0.105698
21
0.674302
0
LINE
8
BLACK
6
CONTINUOUS
10
0.105698
20
0.674302
11
0.102249
21
0.669693
0
LINE
8
BLACK
6
CONTINUOUS
10
0.102249
20
0.669693
11
0.102248
21
0.669693
0
LINE
8
BLACK
6
CONTINUOUS
10
0.102248
20
0.669693
11
0.100237
21
0.664299
0
LINE
8
BLACK
6
CONTINUOUS
10
0.100237
20
0.664299
11
0.100237
21
0.664299
0
LINE
8
BLACK
6
CONTINUOUS
10
0.100237
20
0.664299
11
0.0999803
21
0.661915
0
LINE
8
BLACK
6
CONTINUOUS
10
0.0999803
20
0.661915
11
0.0999803
21
0.598085
0
LINE
8
BLACK
6
CONTINUOUS
10
0.0999803
20
0.598085
11
0.100237
21
0.595701
0
LINE
8
BLACK
6
CONTINUOUS
10
0.100237
20
0.595701
11
0.100237
21
0.595701
0
LINE
8
BLACK
6
CONTINUOUS
10
0.100237
20
0.595701
11
0.102248
21
0.590307
0
LINE
8
BLACK
6
CONTINUOUS
10
0.102248
20
0.590307
11
0.102249
21
0.590307
0
LINE
8
BLACK
6
CONTINUOUS
10
0.102249
20
0.590307
11
0.105698
21
0.585698
0
LINE
8
BLACK
6
CONTINUOUS
10
0.105698
20
0.585698
11
0.108006
21
0.583971
0
LINE
8
BLACK
6
CONTINUOUS
10
0.108006
20
0.583971
11
0.109681
21
0.581734
0
LINE
8
BLACK
6
CONTINUOUS
10
0.109681
20
0.581734
11
0.10988
21
0.578946
0
LINE
8
BLACK
6
CONTINUOUS
10
0.10988
20
0.578946
11
0.10854
21
0.576492
0
LINE
8
BLACK
6
CONTINUOUS
10
0.10854
20
0.576492
11
0.108006
21
0.576029
0
LINE
8
BLACK
6
CONTINUOUS
10
0.108006
20
0.576029
11
0.105698
21
0.574302
0
LINE
8
BLACK
6
CONTINUOUS
10
0.105698
20
0.574302
11
0.102249
21
0.569693
0
LINE
8
BLACK
6
CONTINUOUS
10
0.102249
20
0.569693
11
0.102248
21
0.569693
0
LINE
8
BLACK
6
CONTINUOUS
10
0.102248
20
0.569693
11
0.100237
21
0.564299
0
LINE
8
BLACK
6
CONTINUOUS
10
0.100237
20
0.564299
11
0.100237
21
0.564299
0
LINE
8
BLACK
6
CONTINUOUS
10
0.100237
20
0.564299
11
0.0999803
21
0.561915
0
LINE
8
BLACK
6
CONTINUOUS
10
0.0999803
20
0.561915
11
0.0999803
21
0.498085
0
LINE
8
BLACK
6
CONTINUOUS
10
0.0999803
20
0.498085
11
0.100237
21
0.495701
0
LINE
8
BLACK
6
CONTINUOUS
10
1.34024
20
0.835701
11
1.34024
21
0.835701
0
LINE
8
BLACK
6
CONTINUOUS
10
1.34024
20
0.835701
11
1.34225
21
0.830307
0
LINE
8
BLACK
6
CONTINUOUS
10
1.34225
20
0.830307
11
1.34225
21
0.830307
0
LINE
8
BLACK
6
CONTINUOUS
10
1.34225
20
0.830307
11
1.3457
21
0.825698
0
LINE
8
BLACK
6
CONTINUOUS
10
1.3457
20
0.825698
11
1.35031
21
0.822249
0
LINE
8
BLACK
6
CONTINUOUS
10
1.35031
20
0.822249
11
1.35031
21
0.822248
0
LINE
8
BLACK
6
CONTINUOUS
10
1.35031
20
0.822248
11
1.3557
21
0.820237
0
LINE
8
BLACK
6
CONTINUOUS
10
1.3557
20
0.820237
11
1.3557
21
0.820237
0
LINE
8
BLACK
6
CONTINUOUS
10
1.3557
20
0.820237
11
1.35808
21
0.81998
0
LINE
8
BLACK
6
CONTINUOUS
10
1.35808
20
0.81998
11
1.35809
21
0.81998
0
LINE
8
BLACK
6
CONTINUOUS
10
1.35809
20
0.81998
11
1.42192
21
0.81998
0
LINE
8
BLACK
6
CONTINUOUS
10
1.42192
20
0.81998
11
1.4243
21
0.820237
0
LINE
8
BLACK
6
CONTINUOUS
10
1.4243
20
0.820237
11
1.4243
21
0.820237
0
LINE
8
BLACK
6
CONTINUOUS
10
1.4243
20
0.820237
11
1.42969
21
0.822248
0
LINE
8
BLACK
6
CONTINUOUS
10
1.42969
20
0.822248
11
1.42969
21
0.822249
0
LINE
8
BLACK
6
CONTINUOUS
10
1.42969
20
0.822249
11
1.4343
21
0.825698
0
LINE
8
BLACK
6
CONTINUOUS
10
1.4343
20
0.825698
11
1.43603
21
0.828006
0
LINE
8
BLACK
6
CONTINUOUS
10
1.43603
20
0.828006
11
1.43827
21
0.829681
0
LINE
8
BLACK
6
CONTINUOUS
10
1.43827
20
0.829681
11
1.44105
21
0.82988
0
LINE
8
BLACK
6
CONTINUOUS
10
1.44105
20
0.82988
11
1.44351
21
0.82854
0
LINE
8
BLACK
6
CONTINUOUS
10
1.44351
20
0.82854
11
1.44397
21
0.828006
0
LINE
8
BLACK
6
CONTINUOUS
10
1.44397
20
0.828006
11
1.4457
21
0.825698
0
LINE
8
BLACK
6
CONTINUOUS
10
1.4457
20
0.825698
11
1.45031
21
0.822249
0
LINE
8
BLACK
6
CONTINUOUS
10
1.45031
20
0.822249
11
1.45031
21
0.822248
0
LINE
8
BLACK
6
CONTINUOUS
10
1.45031
20
0.822248
11
1.4557
21
0.820237
0
LINE
8
BLACK
6
CONTINUOUS
10
1.4557
20
0.820237
11
1.4557
21
0.820237
0
LINE
8
BLACK
6
CONTINUOUS
10
1.4557
20
0.820237
11
1.45808
21
0.81998
0
LINE
8
BLACK
6
CONTINUOUS
10
1.45808
20
0.81998
11
1.45809
21
0.81998
0
LINE
8
BLACK
6
CONTINUOUS
10
1.45809
20
0.81998
11
1.52192
21
0.81998
0
LINE
8
BLACK
6
CONTINUOUS
10
1.52192
20
0.81998
11
1.5243
21
0.820237
0
LINE
8
BLACK
6
CONTINUOUS
10
1.5243
20
0.820237
11
1.5243
21
0.820237
0
LINE
8
BLACK
6
CONTINUOUS
10
1.5243
20
0.820237
11
1.52969
21
0.822248
0
LINE
8
BLACK
6
CONTINUOUS
10
1.52969
20
0.822248
11
1.52969
21
0.822249
0
LINE
8
BLACK
6
CONTINUOUS
10
1.52969
20
0.822249
11
1.5343
21
0.825698
0
LINE
8
BLACK
6
CONTINUOUS
10
1.5343
20
0.825698
11
1.53775
21
0.830307
0
LINE
8
BLACK
6
CONTINUOUS
10
1.53775
20
0.830307
11
1.53775
21
0.830307
0
LINE
8
BLACK
6
CONTINUOUS
10
1.53775
20
0.830307
11
1.53976
21
0.835701
0
LINE
8
BLACK
6
CONTINUOUS
10
1.53976
20
0.835701
11
1.53976
21
0.835701
0
LINE
8
BLACK
6
CONTINUOUS
10
1.53976
20
0.835701
11
1.54002
21
0.838085
0
LINE
8
BLACK
6
CONTINUOUS
10
1.54002
20
0.838085
11
1.54002
21
0.838085
0
LINE
8
BLACK
6
CONTINUOUS
10
1.54002
20
0.838085
11
1.54002
21
0.901915
0
LINE
8
BLACK
6
CONTINUOUS
10
1.54002
20
0.901915
11
1.54002
21
0.901915
0
LINE
8
BLACK
6
CONTINUOUS
10
1.54002
20
0.901915
11
1.53976
21
0.904299
0
LINE
8
BLACK
6
CONTINUOUS
10
1.53976
20
0.904299
11
1.53976
21
0.904299
0
LINE
8
BLACK
6
CONTINUOUS
10
1.53976
20
0.904299
11
1.53949
21
0.905041
0
LINE
8
BLACK
6
CONTINUOUS
10
1.53949
20
0.905041
11
1.53775
21
0.909693
0
LINE
8
BLACK
6
CONTINUOUS
10
1.53775
20
0.909693
11
1.5343
21
0.914302
0
LINE
8
BLACK
6
CONTINUOUS
10
1.5343
20
0.914302
11
1.53199
21
0.916029
0
LINE
8
BLACK
6
CONTINUOUS
10
1.53199
20
0.916029
11
1.53032
21
0.918266
0
LINE
8
BLACK
6
CONTINUOUS
10
1.53032
20
0.918266
11
1.53012
21
0.921054
0
LINE
8
BLACK
6
CONTINUOUS
10
1.53012
20
0.921054
11
1.53146
21
0.923508
0
LINE
8
BLACK
6
CONTINUOUS
10
1.53146
20
0.923508
11
1.53199
21
0.923971
0
LINE
8
BLACK
6
CONTINUOUS
10
1.53199
20
0.923971
11
1.5343
21
0.925698
0
LINE
8
BLACK
6
CONTINUOUS
10
1.5343
20
0.925698
11
1.53775
21
0.930307
0
LINE
8
BLACK
6
CONTINUOUS
10
1.53775
20
0.930307
11
1.53775
21
0.930307
0
LINE
8
BLACK
6
CONTINUOUS
10
1.53775
20
0.930307
11
1.53976
21
0.935701
0
LINE
8
BLACK
6
CONTINUOUS
10
1.53976
20
0.935701
11
1.53976
21
0.935701
0
LINE
8
BLACK
6
CONTINUOUS
10
1.53976
20
0.935701
11
1.54002
21
0.938085
0
LINE
8
BLACK
6
CONTINUOUS
10
1.54002
20
0.938085
11
1.54002
21
0.938085
0
LINE
8
BLACK
6
CONTINUOUS
10
1.54002
20
0.938085
11
1.54002
21
1.00191
0
LINE
8
BLACK
6
CONTINUOUS
10
1.54002
20
1.00191
11
1.54002
21
1.00192
0
LINE
8
BLACK
6
CONTINUOUS
10
1.54002
20
1.00192
11
1.53976
21
1.0043
0
LINE
8
BLACK
6
CONTINUOUS
10
1.53976
20
1.0043
11
1.53976
21
1.0043
0
LINE
8
BLACK
6
CONTINUOUS
10
1.53976
20
1.0043
11
1.53949
21
1.00504
0
LINE
8
BLACK
6
CONTINUOUS
10
1.53949
20
1.00504
11
1.53775
21
1.00969
0
LINE
8
BLACK
6
CONTINUOUS
10
1.53775
20
1.00969
11
1.5343
21
1.0143
0
LINE
8
BLACK
6
CONTINUOUS
10
1.5343
20
1.0143
11
1.53199
21
1.01603
0
LINE
8
BLACK
6
CONTINUOUS
10
1.53199
20
1.01603
11
1.53032
21
1.01827
0
LINE
8
BLACK
6
CONTINUOUS
10
1.53032
20
1.01827
11
1.53012
21
1.02105
0
LINE
8
BLACK
6
CONTINUOUS
10
1.53012
20
1.02105
11
1.53146
21
1.02351
0
LINE
8
BLACK
6
CONTINUOUS
10
1.53146
20
1.02351
11
1.53199
21
1.02397
0
LINE
8
BLACK
6
CONTINUOUS
10
1.53199
20
1.02397
11
1.5343
21
1.0257
0
LINE
8
BLACK
6
CONTINUOUS
10
1.5343
20
1.0257
11
1.53775
21
1.03031
0
LINE
8
BLACK
6
CONTINUOUS
10
1.53775
20
1.03031
11
1.53775
21
1.03031
0
LINE
8
BLACK
6
CONTINUOUS
10
1.53775
20
1.03031
11
1.53976
21
1.0357
0
LINE
8
BLACK
6
CONTINUOUS
10
1.53976
20
1.0357
11
1.53976
21
1.0357
0
LINE
8
BLACK
6
CONTINUOUS
10
1.53976
20
1.0357
11
1.54002
21
1.03808
0
LINE
8
BLACK
6
CONTINUOUS
10
1.54002
20
1.03808
11
1.54002
21
1.03809
0
LINE
8
BLACK
6
CONTINUOUS
10
1.54002
20
1.03809
11
1.54002
21
1.10191
0
LINE
8
BLACK
6
CONTINUOUS
10
1.54002
20
1.10191
11
1.54002
21
1.10192
0
LINE
8
BLACK
6
CONTINUOUS
10
1.54002
20
1.10192
11
1.53976
21
1.1043
0
LINE
8
BLACK
6
CONTINUOUS
10
1.53976
20
1.1043
11
1.53976
21
1.1043
0
LINE
8
BLACK
6
CONTINUOUS
10
1.53976
20
1.1043
11
1.53776
21
1.10968
0
LINE
8
BLACK
6
CONTINUOUS
10
1.53776
20
1.10968
11
1.53775
21
1.10969
0
LINE
8
BLACK
6
CONTINUOUS
10
1.53775
20
1.10969
11
1.5343
21
1.1143
0
LINE
8
BLACK
6
CONTINUOUS
10
1.5343
20
1.1143
11
1.5343
21
1.1143
0
LINE
8
BLACK
6
CONTINUOUS
10
1.5343
20
1.1143
11
1.53199
21
1.11603
0
LINE
8
BLACK
6
CONTINUOUS
10
1.53199
20
1.11603
11
1.53032
21
1.11827
0
LINE
8
BLACK
6
CONTINUOUS
10
1.53032
20
1.11827
11
1.53012
21
1.12105
0
LINE
8
BLACK
6
CONTINUOUS
10
1.53012
20
1.12105
11
1.53146
21
1.12351
0
LINE
8
BLACK
6
CONTINUOUS
10
1.53146
20
1.12351
11
1.53199
21
1.12397
0
LINE
8
BLACK
6
CONTINUOUS
10
1.53199
20
1.12397
11
1.5343
21
1.1257
0
LINE
8
BLACK
6
CONTINUOUS
10
1.5343
20
1.1257
11
1.53775
21
1.13031
0
LINE
8
BLACK
6
CONTINUOUS
10
1.53775
20
1.13031
11
1.53775
21
1.13031
0
LINE
8
BLACK
6
CONTINUOUS
10
1.53775
20
1.13031
11
1.53976
21
1.1357
0
LINE
8
BLACK
6
CONTINUOUS
10
1.53976
20
1.1357
11
1.53976
21
1.1357
0
LINE
8
BLACK
6
CONTINUOUS
10
1.53976
20
1.1357
11
1.54002
21
1.13808
0
LINE
8
BLACK
6
CONTINUOUS
10
1.54002
20
1.13808
11
1.54002
21
1.13809
0
LINE
8
BLACK
6
CONTINUOUS
10
1.54002
20
1.13809
11
1.54002
21
1.20191
0
LINE
8
BLACK
6
CONTINUOUS
10
1.54002
20
1.20191
11
1.54002
21
1.20192
0
LINE
8
BLACK
6
CONTINUOUS
10
1.54002
20
1.20192
11
1.53976
21
1.2043
0
LINE
8
BLACK
6
CONTINUOUS
10
1.53976
20
1.2043
11
1.53976
21
1.2043
0
LINE
8
BLACK
6
CONTINUOUS
10
1.53976
20
1.2043
11
1.53776
21
1.20968
0
LINE
8
BLACK
6
CONTINUOUS
10
1.53776
20
1.20968
11
1.53775
21
1.20969
0
LINE
8
BLACK
6
CONTINUOUS
10
1.53775
20
1.20969
11
1.5343
21
1.2143
0
LINE
8
BLACK
6
CONTINUOUS
10
1.5343
20
1.2143
11
1.52969
21
1.21775
0
LINE
8
BLACK
6
CONTINUOUS
10
1.52969
20
1.21775
11
1.5243
21
1.21976
0
LINE
8
BLACK
6
CONTINUOUS
10
1.5243
20
1.21976
11
1.5243
21
1.21976
0
LINE
8
BLACK
6
CONTINUOUS
10
1.5243
20
1.21976
11
1.5243
21
1.21976
0
LINE
8
BLACK
6
CONTINUOUS
10
1.5243
20
1.21976
11
1.52192
21
1.22002
0
LINE
8
BLACK
6
CONTINUOUS
10
1.52192
20
1.22002
11
1.52192
21
1.22002
0
LINE
8
BLACK
6
CONTINUOUS
10
1.52192
20
1.22002
11
1.52191
21
1.22002
0
LINE
8
BLACK
6
CONTINUOUS
10
1.52191
20
1.22002
11
1.45809
21
1.22002
0
LINE
8
BLACK
6
CONTINUOUS
10
1.45809
20
1.22002
11
1.45808
21
1.22002
0
LINE
8
BLACK
6
CONTINUOUS
10
1.45808
20
1.22002
11
1.45808
21
1.22002
0
LINE
8
BLACK
6
CONTINUOUS
10
1.45808
20
1.22002
11
1.4557
21
1.21976
0
LINE
8
BLACK
6
CONTINUOUS
10
1.4557
20
1.21976
11
1.4557
21
1.21976
0
LINE
8
BLACK
6
CONTINUOUS
10
1.4557
20
1.21976
11
1.45263
21
1.21862
0
LINE
8
BLACK
6
CONTINUOUS
10
1.45263
20
1.21862
11
1.45031
21
1.21775
0
LINE
8
BLACK
6
CONTINUOUS
10
1.45031
20
1.21775
11
1.45031
21
1.21775
0
LINE
8
BLACK
6
CONTINUOUS
10
1.45031
20
1.21775
11
1.45031
21
1.21775
0
LINE
8
BLACK
6
CONTINUOUS
10
1.45031
20
1.21775
11
1.4457
21
1.2143
0
LINE
8
BLACK
6
CONTINUOUS
10
1.4457
20
1.2143
11
1.44397
21
1.21199
0
LINE
8
BLACK
6
CONTINUOUS
10
1.44397
20
1.21199
11
1.44173
21
1.21032
0
LINE
8
BLACK
6
CONTINUOUS
10
1.44173
20
1.21032
11
1.43895
21
1.21012
0
LINE
8
BLACK
6
CONTINUOUS
10
1.43895
20
1.21012
11
1.43649
21
1.21146
0
LINE
8
BLACK
6
CONTINUOUS
10
1.43649
20
1.21146
11
1.43603
21
1.21199
0
LINE
8
BLACK
6
CONTINUOUS
10
1.43603
20
1.21199
11
1.4343
21
1.2143
0
LINE
8
BLACK
6
CONTINUOUS
10
1.4343
20
1.2143
11
1.42969
21
1.21775
0
LINE
8
BLACK
6
CONTINUOUS
10
1.42969
20
1.21775
11
1.42969
21
1.21775
0
LINE
8
BLACK
6
CONTINUOUS
10
1.42969
20
1.21775
11
1.42969
21
1.21775
0
LINE
8
BLACK
6
CONTINUOUS
10
1.42969
20
1.21775
11
1.4243
21
1.21976
0
LINE
8
BLACK
6
CONTINUOUS
10
1.4243
20
1.21976
11
1.4243
21
1.21976
0
LINE
8
BLACK
6
CONTINUOUS
10
1.4243
20
1.21976
11
1.4243
21
1.21976
0
LINE
8
BLACK
6
CONTINUOUS
10
1.4243
20
1.21976
11
1.42192
21
1.22002
0
LINE
8
BLACK
6
CONTINUOUS
10
1.42192
20
1.22002
11
1.42192
21
1.22002
0
LINE
8
BLACK
6
CONTINUOUS
10
1.42192
20
1.22002
11
1.42191
21
1.22002
0
LINE
8
BLACK
6
CONTINUOUS
10
1.42191
20
1.22002
11
1.35809
21
1.22002
0
LINE
8
BLACK
6
CONTINUOUS
10
1.35809
20
1.22002
11
1.35808
21
1.22002
0
LINE
8
BLACK
6
CONTINUOUS
10
1.35808
20
1.22002
11
1.35808
21
1.22002
0
LINE
8
BLACK
6
CONTINUOUS
10
1.35808
20
1.22002
11
1.3557
21
1.21976
0
LINE
8
BLACK
6
CONTINUOUS
10
1.3557
20
1.21976
11
1.3557
21
1.21976
0
LINE
8
BLACK
6
CONTINUOUS
10
1.3557
20
1.21976
11
1.35263
21
1.21862
0
LINE
8
BLACK
6
CONTINUOUS
10
1.35263
20
1.21862
11
1.35031
21
1.21775
0
LINE
8
BLACK
6
CONTINUOUS
10
1.35031
20
1.21775
11
1.35031
21
1.21775
0
LINE
8
BLACK
6
CONTINUOUS
10
1.35031
20
1.21775
11
1.35031
21
1.21775
0
LINE
8
BLACK
6
CONTINUOUS
10
1.35031
20
1.21775
11
1.3457
21
1.2143
0
LINE
8
BLACK
6
CONTINUOUS
10
1.3457
20
1.2143
11
1.34225
21
1.20969
0
LINE
8
BLACK
6
CONTINUOUS
10
1.34225
20
1.20969
11
1.34225
21
1.20969
0
LINE
8
BLACK
6
CONTINUOUS
10
1.34225
20
1.20969
11
1.34024
21
1.2043
0
LINE
8
BLACK
6
CONTINUOUS
10
1.34024
20
1.2043
11
1.34024
21
1.2043
0
LINE
8
BLACK
6
CONTINUOUS
10
1.34024
20
1.2043
11
1.33998
21
1.20192
0
LINE
8
BLACK
6
CONTINUOUS
10
1.33998
20
1.20192
11
1.33998
21
1.13808
0
LINE
8
BLACK
6
CONTINUOUS
10
1.33998
20
1.13808
11
1.34024
21
1.1357
0
LINE
8
BLACK
6
CONTINUOUS
10
1.34024
20
1.1357
11
1.34024
21
1.1357
0
LINE
8
BLACK
6
CONTINUOUS
10
1.34024
20
1.1357
11
1.34225
21
1.13031
0
LINE
8
BLACK
6
CONTINUOUS
10
1.34225
20
1.13031
11
1.34225
21
1.13031
0
LINE
8
BLACK
6
CONTINUOUS
10
1.34225
20
1.13031
11
1.3457
21
1.1257
0
LINE
8
BLACK
6
CONTINUOUS
10
1.3457
20
1.1257
11
1.34801
21
1.12397
0
LINE
8
BLACK
6
CONTINUOUS
10
1.34801
20
1.12397
11
1.34968
21
1.12173
0
LINE
8
BLACK
6
CONTINUOUS
10
1.34968
20
1.12173
11
1.34988
21
1.11895
0
LINE
8
BLACK
6
CONTINUOUS
10
1.34988
20
1.11895
11
1.34854
21
1.11649
0
LINE
8
BLACK
6
CONTINUOUS
10
1.34854
20
1.11649
11
1.34801
21
1.11603
0
LINE
8
BLACK
6
CONTINUOUS
10
1.34801
20
1.11603
11
1.3457
21
1.1143
0
LINE
8
BLACK
6
CONTINUOUS
10
1.3457
20
1.1143
11
1.34225
21
1.10969
0
LINE
8
BLACK
6
CONTINUOUS
10
1.34225
20
1.10969
11
1.34225
21
1.10969
0
LINE
8
BLACK
6
CONTINUOUS
10
1.34225
20
1.10969
11
1.34024
21
1.1043
0
LINE
8
BLACK
6
CONTINUOUS
10
1.34024
20
1.1043
11
1.34024
21
1.1043
0
LINE
8
BLACK
6
CONTINUOUS
10
1.34024
20
1.1043
11
1.33998
21
1.10192
0
LINE
8
BLACK
6
CONTINUOUS
10
1.33998
20
1.10192
11
1.33998
21
1.03808
0
LINE
8
BLACK
6
CONTINUOUS
10
1.33998
20
1.03808
11
1.34024
21
1.0357
0
LINE
8
BLACK
6
CONTINUOUS
10
1.34024
20
1.0357
11
1.34024
21
1.0357
0
LINE
8
BLACK
6
CONTINUOUS
10
1.34024
20
1.0357
11
1.34225
21
1.03031
0
LINE
8
BLACK
6
CONTINUOUS
10
1.34225
20
1.03031
11
1.34225
21
1.03031
0
LINE
8
BLACK
6
CONTINUOUS
10
1.34225
20
1.03031
11
1.3457
21
1.0257
0
LINE
8
BLACK
6
CONTINUOUS
10
1.3457
20
1.0257
11
1.34801
21
1.02397
0
LINE
8
BLACK
6
CONTINUOUS
10
1.34801
20
1.02397
11
1.34968
21
1.02173
0
LINE
8
BLACK
6
CONTINUOUS
10
1.34968
20
1.02173
11
1.34988
21
1.01895
0
LINE
8
BLACK
6
CONTINUOUS
10
1.34988
20
1.01895
11
1.34854
21
1.01649
0
LINE
8
BLACK
6
CONTINUOUS
10
1.34854
20
1.01649
11
1.34801
21
1.01603
0
LINE
8
BLACK
6
CONTINUOUS
10
1.34801
20
1.01603
11
1.3457
21
1.0143
0
LINE
8
BLACK
6
CONTINUOUS
10
1.3457
20
1.0143
11
1.34225
21
1.00969
0
LINE
8
BLACK
6
CONTINUOUS
10
1.34225
20
1.00969
11
1.34225
21
1.00969
0
LINE
8
BLACK
6
CONTINUOUS
10
1.34225
20
1.00969
11
1.34024
21
1.0043
0
LINE
8
BLACK
6
CONTINUOUS
10
1.34024
20
1.0043
11
1.34024
21
1.0043
0
LINE
8
BLACK
6
CONTINUOUS
10
1.34024
20
1.0043
11
1.33998
21
1.00192
0
LINE
8
BLACK
6
CONTINUOUS
10
1.33998
20
1.00192
11
1.33998
21
0.938085
0
LINE
8
BLACK
6
CONTINUOUS
10
1.33998
20
0.938085
11
1.34024
21
0.935701
0
LINE
8
BLACK
6
CONTINUOUS
10
1.34024
20
0.935701
11
1.34024
21
0.935701
0
LINE
8
BLACK
6
CONTINUOUS
10
1.34024
20
0.935701
11
1.34225
21
0.930307
0
LINE
8
BLACK
6
CONTINUOUS
10
1.34225
20
0.930307
11
1.34225
21
0.930307
0
LINE
8
BLACK
6
CONTINUOUS
10
1.34225
20
0.930307
11
1.3457
21
0.925698
0
LINE
8
BLACK
6
CONTINUOUS
10
1.3457
20
0.925698
11
1.34801
21
0.923971
0
LINE
8
BLACK
6
CONTINUOUS
10
1.34801
20
0.923971
11
1.34968
21
0.921734
0
LINE
8
BLACK
6
CONTINUOUS
10
1.34968
20
0.921734
11
1.34988
21
0.918946
0
LINE
8
BLACK
6
CONTINUOUS
10
1.34988
20
0.918946
11
1.34854
21
0.916492
0
LINE
8
BLACK
6
CONTINUOUS
10
1.34854
20
0.916492
11
1.34801
21
0.916029
0
LINE
8
BLACK
6
CONTINUOUS
10
1.34801
20
0.916029
11
1.3457
21
0.914302
0
LINE
8
BLACK
6
CONTINUOUS
10
1.3457
20
0.914302
11
1.34225
21
0.909693
0
LINE
8
BLACK
6
CONTINUOUS
10
1.34225
20
0.909693
11
1.34225
21
0.909693
0
LINE
8
BLACK
6
CONTINUOUS
10
1.34225
20
0.909693
11
1.34024
21
0.904299
0
LINE
8
BLACK
6
CONTINUOUS
10
1.34024
20
0.904299
11
1.34024
21
0.904299
0
LINE
8
BLACK
6
CONTINUOUS
10
1.34024
20
0.904299
11
1.33998
21
0.901915
0
LINE
8
BLACK
6
CONTINUOUS
10
1.33998
20
0.901915
11
1.33998
21
0.838085
0
LINE
8
BLACK
6
CONTINUOUS
10
1.33998
20
0.838085
11
1.34024
21
0.835701
0
LINE
8
BLACK
6
CONTINUOUS
10
0.100237
20
0.935701
11
0.100237
21
0.935701
0
LINE
8
BLACK
6
CONTINUOUS
10
0.100237
20
0.935701
11
0.102248
21
0.930307
0
LINE
8
BLACK
6
CONTINUOUS
10
0.102248
20
0.930307
11
0.102249
21
0.930307
0
LINE
8
BLACK
6
CONTINUOUS
10
0.102249
20
0.930307
11
0.105698
21
0.925698
0
LINE
8
BLACK
6
CONTINUOUS
10
0.105698
20
0.925698
11
0.110307
21
0.922249
0
LINE
8
BLACK
6
CONTINUOUS
10
0.110307
20
0.922249
11
0.110307
21
0.922248
0
LINE
8
BLACK
6
CONTINUOUS
10
0.110307
20
0.922248
11
0.115701
21
0.920237
0
LINE
8
BLACK
6
CONTINUOUS
10
0.115701
20
0.920237
11
0.115701
21
0.920237
0
LINE
8
BLACK
6
CONTINUOUS
10
0.115701
20
0.920237
11
0.118085
21
0.91998
0
LINE
8
BLACK
6
CONTINUOUS
10
0.118085
20
0.91998
11
0.118085
21
0.91998
0
LINE
8
BLACK
6
CONTINUOUS
10
0.118085
20
0.91998
11
0.181915
21
0.91998
0
LINE
8
BLACK
6
CONTINUOUS
10
0.181915
20
0.91998
11
0.184299
21
0.920237
0
LINE
8
BLACK
6
CONTINUOUS
10
0.184299
20
0.920237
11
0.184299
21
0.920237
0
LINE
8
BLACK
6
CONTINUOUS
10
0.184299
20
0.920237
11
0.189693
21
0.922248
0
LINE
8
BLACK
6
CONTINUOUS
10
0.189693
20
0.922248
11
0.189693
21
0.922249
0
LINE
8
BLACK
6
CONTINUOUS
10
0.189693
20
0.922249
11
0.194302
21
0.925698
0
LINE
8
BLACK
6
CONTINUOUS
10
0.194302
20
0.925698
11
0.196029
21
0.928006
0
LINE
8
BLACK
6
CONTINUOUS
10
0.196029
20
0.928006
11
0.198266
21
0.929681
0
LINE
8
BLACK
6
CONTINUOUS
10
0.198266
20
0.929681
11
0.201054
21
0.92988
0
LINE
8
BLACK
6
CONTINUOUS
10
0.201054
20
0.92988
11
0.203508
21
0.92854
0
LINE
8
BLACK
6
CONTINUOUS
10
0.203508
20
0.92854
11
0.203971
21
0.928006
0
LINE
8
BLACK
6
CONTINUOUS
10
0.203971
20
0.928006
11
0.205698
21
0.925698
0
LINE
8
BLACK
6
CONTINUOUS
10
0.205698
20
0.925698
11
0.210307
21
0.922249
0
LINE
8
BLACK
6
CONTINUOUS
10
0.210307
20
0.922249
11
0.210307
21
0.922248
0
LINE
8
BLACK
6
CONTINUOUS
10
0.210307
20
0.922248
11
0.215701
21
0.920237
0
LINE
8
BLACK
6
CONTINUOUS
10
0.215701
20
0.920237
11
0.215701
21
0.920237
0
LINE
8
BLACK
6
CONTINUOUS
10
0.215701
20
0.920237
11
0.218085
21
0.91998
0
LINE
8
BLACK
6
CONTINUOUS
10
0.218085
20
0.91998
11
0.218085
21
0.91998
0
LINE
8
BLACK
6
CONTINUOUS
10
0.218085
20
0.91998
11
0.281915
21
0.91998
0
LINE
8
BLACK
6
CONTINUOUS
10
0.281915
20
0.91998
11
0.284299
21
0.920237
0
LINE
8
BLACK
6
CONTINUOUS
10
0.284299
20
0.920237
11
0.284299
21
0.920237
0
LINE
8
BLACK
6
CONTINUOUS
10
0.284299
20
0.920237
11
0.289693
21
0.922248
0
LINE
8
BLACK
6
CONTINUOUS
10
0.289693
20
0.922248
11
0.289693
21
0.922249
0
LINE
8
BLACK
6
CONTINUOUS
10
0.289693
20
0.922249
11
0.294302
21
0.925698
0
LINE
8
BLACK
6
CONTINUOUS
10
0.294302
20
0.925698
11
0.297751
21
0.930307
0
LINE
8
BLACK
6
CONTINUOUS
10
0.297751
20
0.930307
11
0.297752
21
0.930307
0
LINE
8
BLACK
6
CONTINUOUS
10
0.297752
20
0.930307
11
0.299763
21
0.935701
0
LINE
8
BLACK
6
CONTINUOUS
10
0.299763
20
0.935701
11
0.299763
21
0.935701
0
LINE
8
BLACK
6
CONTINUOUS
10
0.299763
20
0.935701
11
0.30002
21
0.938085
0
LINE
8
BLACK
6
CONTINUOUS
10
0.30002
20
0.938085
11
0.30002
21
0.938085
0
LINE
8
BLACK
6
CONTINUOUS
10
0.30002
20
0.938085
11
0.30002
21
1.00191
0
LINE
8
BLACK
6
CONTINUOUS
10
0.30002
20
1.00191
11
0.30002
21
1.00192
0
LINE
8
BLACK
6
CONTINUOUS
10
0.30002
20
1.00192
11
0.299763
21
1.0043
0
LINE
8
BLACK
6
CONTINUOUS
10
0.299763
20
1.0043
11
0.299763
21
1.0043
0
LINE
8
BLACK
6
CONTINUOUS
10
0.299763
20
1.0043
11
0.299487
21
1.00504
0
LINE
8
BLACK
6
CONTINUOUS
10
0.299487
20
1.00504
11
0.297752
21
1.00969
0
LINE
8
BLACK
6
CONTINUOUS
10
0.297752
20
1.00969
11
0.294302
21
1.0143
0
LINE
8
BLACK
6
CONTINUOUS
10
0.294302
20
1.0143
11
0.291994
21
1.01603
0
LINE
8
BLACK
6
CONTINUOUS
10
0.291994
20
1.01603
11
0.290319
21
1.01827
0
LINE
8
BLACK
6
CONTINUOUS
10
0.290319
20
1.01827
11
0.29012
21
1.02105
0
LINE
8
BLACK
6
CONTINUOUS
10
0.29012
20
1.02105
11
0.291459
21
1.02351
0
LINE
8
BLACK
6
CONTINUOUS
10
0.291459
20
1.02351
11
0.291994
21
1.02397
0
LINE
8
BLACK
6
CONTINUOUS
10
0.291994
20
1.02397
11
0.294302
21
1.0257
0
LINE
8
BLACK
6
CONTINUOUS
10
0.294302
20
1.0257
11
0.297751
21
1.03031
0
LINE
8
BLACK
6
CONTINUOUS
10
0.297751
20
1.03031
11
0.297752
21
1.03031
0
LINE
8
BLACK
6
CONTINUOUS
10
0.297752
20
1.03031
11
0.299763
21
1.0357
0
LINE
8
BLACK
6
CONTINUOUS
10
0.299763
20
1.0357
11
0.299763
21
1.0357
0
LINE
8
BLACK
6
CONTINUOUS
10
0.299763
20
1.0357
11
0.30002
21
1.03808
0
LINE
8
BLACK
6
CONTINUOUS
10
0.30002
20
1.03808
11
0.30002
21
1.03809
0
LINE
8
BLACK
6
CONTINUOUS
10
0.30002
20
1.03809
11
0.30002
21
1.10191
0
LINE
8
BLACK
6
CONTINUOUS
10
0.30002
20
1.10191
11
0.30002
21
1.10192
0
LINE
8
BLACK
6
CONTINUOUS
10
0.30002
20
1.10192
11
0.299763
21
1.1043
0
LINE
8
BLACK
6
CONTINUOUS
10
0.299763
20
1.1043
11
0.299763
21
1.1043
0
LINE
8
BLACK
6
CONTINUOUS
10
0.299763
20
1.1043
11
0.297756
21
1.10968
0
LINE
8
BLACK
6
CONTINUOUS
10
0.297756
20
1.10968
11
0.297752
21
1.10969
0
LINE
8
BLACK
6
CONTINUOUS
10
0.297752
20
1.10969
11
0.294302
21
1.1143
0
LINE
8
BLACK
6
CONTINUOUS
10
0.294302
20
1.1143
11
0.292432
21
1.1157
0
LINE
8
BLACK
6
CONTINUOUS
10
0.292432
20
1.1157
11
0.289693
21
1.11775
0
LINE
8
BLACK
6
CONTINUOUS
10
0.289693
20
1.11775
11
0.289693
21
1.11775
0
LINE
8
BLACK
6
CONTINUOUS
10
0.289693
20
1.11775
11
0.289693
21
1.11775
0
LINE
8
BLACK
6
CONTINUOUS
10
0.289693
20
1.11775
11
0.2888
21
1.11808
0
LINE
8
BLACK
6
CONTINUOUS
10
0.2888
20
1.11808
11
0.284299
21
1.11976
0
LINE
8
BLACK
6
CONTINUOUS
10
0.284299
20
1.11976
11
0.284299
21
1.11976
0
LINE
8
BLACK
6
CONTINUOUS
10
0.284299
20
1.11976
11
0.284299
21
1.11976
0
LINE
8
BLACK
6
CONTINUOUS
10
0.284299
20
1.11976
11
0.281915
21
1.12002
0
LINE
8
BLACK
6
CONTINUOUS
10
0.281915
20
1.12002
11
0.281915
21
1.12002
0
LINE
8
BLACK
6
CONTINUOUS
10
0.281915
20
1.12002
11
0.281915
21
1.12002
0
LINE
8
BLACK
6
CONTINUOUS
10
0.281915
20
1.12002
11
0.218085
21
1.12002
0
LINE
8
BLACK
6
CONTINUOUS
10
0.218085
20
1.12002
11
0.218085
21
1.12002
0
LINE
8
BLACK
6
CONTINUOUS
10
0.218085
20
1.12002
11
0.218085
21
1.12002
0
LINE
8
BLACK
6
CONTINUOUS
10
0.218085
20
1.12002
11
0.215701
21
1.11976
0
LINE
8
BLACK
6
CONTINUOUS
10
0.215701
20
1.11976
11
0.215701
21
1.11976
0
LINE
8
BLACK
6
CONTINUOUS
10
0.215701
20
1.11976
11
0.213508
21
1.11895
0
LINE
8
BLACK
6
CONTINUOUS
10
0.213508
20
1.11895
11
0.210307
21
1.11775
0
LINE
8
BLACK
6
CONTINUOUS
10
0.210307
20
1.11775
11
0.210307
21
1.11775
0
LINE
8
BLACK
6
CONTINUOUS
10
0.210307
20
1.11775
11
0.210307
21
1.11775
0
LINE
8
BLACK
6
CONTINUOUS
10
0.210307
20
1.11775
11
0.205698
21
1.1143
0
LINE
8
BLACK
6
CONTINUOUS
10
0.205698
20
1.1143
11
0.203971
21
1.11199
0
LINE
8
BLACK
6
CONTINUOUS
10
0.203971
20
1.11199
11
0.201734
21
1.11032
0
LINE
8
BLACK
6
CONTINUOUS
10
0.201734
20
1.11032
11
0.198946
21
1.11012
0
LINE
8
BLACK
6
CONTINUOUS
10
0.198946
20
1.11012
11
0.196492
21
1.11146
0
LINE
8
BLACK
6
CONTINUOUS
10
0.196492
20
1.11146
11
0.196029
21
1.11199
0
LINE
8
BLACK
6
CONTINUOUS
10
0.196029
20
1.11199
11
0.194302
21
1.1143
0
LINE
8
BLACK
6
CONTINUOUS
10
0.194302
20
1.1143
11
0.189693
21
1.11775
0
LINE
8
BLACK
6
CONTINUOUS
10
0.189693
20
1.11775
11
0.189693
21
1.11775
0
LINE
8
BLACK
6
CONTINUOUS
10
0.189693
20
1.11775
11
0.189693
21
1.11775
0
LINE
8
BLACK
6
CONTINUOUS
10
0.189693
20
1.11775
11
0.184299
21
1.11976
0
LINE
8
BLACK
6
CONTINUOUS
10
0.184299
20
1.11976
11
0.184299
21
1.11976
0
LINE
8
BLACK
6
CONTINUOUS
10
0.184299
20
1.11976
11
0.184299
21
1.11976
0
LINE
8
BLACK
6
CONTINUOUS
10
0.184299
20
1.11976
11
0.181915
21
1.12002
0
LINE
8
BLACK
6
CONTINUOUS
10
0.181915
20
1.12002
11
0.181915
21
1.12002
0
LINE
8
BLACK
6
CONTINUOUS
10
0.181915
20
1.12002
11
0.181915
21
1.12002
0
LINE
8
BLACK
6
CONTINUOUS
10
0.181915
20
1.12002
11
0.118085
21
1.12002
0
LINE
8
BLACK
6
CONTINUOUS
10
0.118085
20
1.12002
11
0.118085
21
1.12002
0
LINE
8
BLACK
6
CONTINUOUS
10
0.118085
20
1.12002
11
0.118085
21
1.12002
0
LINE
8
BLACK
6
CONTINUOUS
10
0.118085
20
1.12002
11
0.115701
21
1.11976
0
LINE
8
BLACK
6
CONTINUOUS
10
0.115701
20
1.11976
11
0.115701
21
1.11976
0
LINE
8
BLACK
6
CONTINUOUS
10
0.115701
20
1.11976
11
0.113508
21
1.11895
0
LINE
8
BLACK
6
CONTINUOUS
10
0.113508
20
1.11895
11
0.110307
21
1.11775
0
LINE
8
BLACK
6
CONTINUOUS
10
0.110307
20
1.11775
11
0.110307
21
1.11775
0
LINE
8
BLACK
6
CONTINUOUS
10
0.110307
20
1.11775
11
0.110307
21
1.11775
0
LINE
8
BLACK
6
CONTINUOUS
10
0.110307
20
1.11775
11
0.105698
21
1.1143
0
LINE
8
BLACK
6
CONTINUOUS
10
0.105698
20
1.1143
11
0.102249
21
1.10969
0
LINE
8
BLACK
6
CONTINUOUS
10
0.102249
20
1.10969
11
0.102248
21
1.10969
0
LINE
8
BLACK
6
CONTINUOUS
10
0.102248
20
1.10969
11
0.100237
21
1.1043
0
LINE
8
BLACK
6
CONTINUOUS
10
0.100237
20
1.1043
11
0.100237
21
1.1043
0
LINE
8
BLACK
6
CONTINUOUS
10
0.100237
20
1.1043
11
0.0999803
21
1.10192
0
LINE
8
BLACK
6
CONTINUOUS
10
0.0999803
20
1.10192
11
0.0999803
21
1.03808
0
LINE
8
BLACK
6
CONTINUOUS
10
0.0999803
20
1.03808
11
0.100237
21
1.0357
0
LINE
8
BLACK
6
CONTINUOUS
10
0.100237
20
1.0357
11
0.100237
21
1.0357
0
LINE
8
BLACK
6
CONTINUOUS
10
0.100237
20
1.0357
11
0.102248
21
1.03031
0
LINE
8
BLACK
6
CONTINUOUS
10
0.102248
20
1.03031
11
0.102249
21
1.03031
0
LINE
8
BLACK
6
CONTINUOUS
10
0.102249
20
1.03031
11
0.105698
21
1.0257
0
LINE
8
BLACK
6
CONTINUOUS
10
0.105698
20
1.0257
11
0.108006
21
1.02397
0
LINE
8
BLACK
6
CONTINUOUS
10
0.108006
20
1.02397
11
0.109681
21
1.02173
0
LINE
8
BLACK
6
CONTINUOUS
10
0.109681
20
1.02173
11
0.10988
21
1.01895
0
LINE
8
BLACK
6
CONTINUOUS
10
0.10988
20
1.01895
11
0.108541
21
1.01649
0
LINE
8
BLACK
6
CONTINUOUS
10
0.108541
20
1.01649
11
0.108006
21
1.01603
0
LINE
8
BLACK
6
CONTINUOUS
10
0.108006
20
1.01603
11
0.105698
21
1.0143
0
LINE
8
BLACK
6
CONTINUOUS
10
0.105698
20
1.0143
11
0.102249
21
1.00969
0
LINE
8
BLACK
6
CONTINUOUS
10
0.102249
20
1.00969
11
0.102248
21
1.00969
0
LINE
8
BLACK
6
CONTINUOUS
10
0.102248
20
1.00969
11
0.100237
21
1.0043
0
LINE
8
BLACK
6
CONTINUOUS
10
0.100237
20
1.0043
11
0.100237
21
1.0043
0
LINE
8
BLACK
6
CONTINUOUS
10
0.100237
20
1.0043
11
0.0999803
21
1.00192
0
LINE
8
BLACK
6
CONTINUOUS
10
0.0999803
20
1.00192
11
0.0999803
21
0.938085
0
LINE
8
BLACK
6
CONTINUOUS
10
0.0999803
20
0.938085
11
0.100237
21
0.935701
0
LINE
8
BLACK
6
CONTINUOUS
10
0.890237
20
1.1157
11
0.890237
21
1.1157
0
LINE
8
BLACK
6
CONTINUOUS
10
0.890237
20
1.1157
11
0.892248
21
1.11031
0
LINE
8
BLACK
6
CONTINUOUS
10
0.892248
20
1.11031
11
0.892249
21
1.11031
0
LINE
8
BLACK
6
CONTINUOUS
10
0.892249
20
1.11031
11
0.895698
21
1.1057
0
LINE
8
BLACK
6
CONTINUOUS
10
0.895698
20
1.1057
11
0.900307
21
1.10225
0
LINE
8
BLACK
6
CONTINUOUS
10
0.900307
20
1.10225
11
0.900307
21
1.10225
0
LINE
8
BLACK
6
CONTINUOUS
10
0.900307
20
1.10225
11
0.905701
21
1.10024
0
LINE
8
BLACK
6
CONTINUOUS
10
0.905701
20
1.10024
11
0.905701
21
1.10024
0
LINE
8
BLACK
6
CONTINUOUS
10
0.905701
20
1.10024
11
0.908085
21
1.09998
0
LINE
8
BLACK
6
CONTINUOUS
10
0.908085
20
1.09998
11
0.908085
21
1.09998
0
LINE
8
BLACK
6
CONTINUOUS
10
0.908085
20
1.09998
11
0.971915
21
1.09998
0
LINE
8
BLACK
6
CONTINUOUS
10
0.971915
20
1.09998
11
0.974299
21
1.10024
0
LINE
8
BLACK
6
CONTINUOUS
10
0.974299
20
1.10024
11
0.974299
21
1.10024
0
LINE
8
BLACK
6
CONTINUOUS
10
0.974299
20
1.10024
11
0.979693
21
1.10225
0
LINE
8
BLACK
6
CONTINUOUS
10
0.979693
20
1.10225
11
0.979693
21
1.10225
0
LINE
8
BLACK
6
CONTINUOUS
10
0.979693
20
1.10225
11
0.984302
21
1.1057
0
LINE
8
BLACK
6
CONTINUOUS
10
0.984302
20
1.1057
11
0.986029
21
1.10801
0
LINE
8
BLACK
6
CONTINUOUS
10
0.986029
20
1.10801
11
0.988266
21
1.10968
0
LINE
8
BLACK
6
CONTINUOUS
10
0.988266
20
1.10968
11
0.991054
21
1.10988
0
LINE
8
BLACK
6
CONTINUOUS
10
0.991054
20
1.10988
11
0.993508
21
1.10854
0
LINE
8
BLACK
6
CONTINUOUS
10
0.993508
20
1.10854
11
0.993971
21
1.10801
0
LINE
8
BLACK
6
CONTINUOUS
10
0.993971
20
1.10801
11
0.995698
21
1.1057
0
LINE
8
BLACK
6
CONTINUOUS
10
0.995698
20
1.1057
11
1.00031
21
1.10225
0
LINE
8
BLACK
6
CONTINUOUS
10
1.00031
20
1.10225
11
1.00031
21
1.10225
0
LINE
8
BLACK
6
CONTINUOUS
10
1.00031
20
1.10225
11
1.0057
21
1.10024
0
LINE
8
BLACK
6
CONTINUOUS
10
1.0057
20
1.10024
11
1.0057
21
1.10024
0
LINE
8
BLACK
6
CONTINUOUS
10
1.0057
20
1.10024
11
1.00808
21
1.09998
0
LINE
8
BLACK
6
CONTINUOUS
10
1.00808
20
1.09998
11
1.00809
21
1.09998
0
LINE
8
BLACK
6
CONTINUOUS
10
1.00809
20
1.09998
11
1.07192
21
1.09998
0
LINE
8
BLACK
6
CONTINUOUS
10
1.07192
20
1.09998
11
1.0743
21
1.10024
0
LINE
8
BLACK
6
CONTINUOUS
10
1.0743
20
1.10024
11
1.0743
21
1.10024
0
LINE
8
BLACK
6
CONTINUOUS
10
1.0743
20
1.10024
11
1.07969
21
1.10225
0
LINE
8
BLACK
6
CONTINUOUS
10
1.07969
20
1.10225
11
1.07969
21
1.10225
0
LINE
8
BLACK
6
CONTINUOUS
10
1.07969
20
1.10225
11
1.0843
21
1.1057
0
LINE
8
BLACK
6
CONTINUOUS
10
1.0843
20
1.1057
11
1.08775
21
1.11031
0
LINE
8
BLACK
6
CONTINUOUS
10
1.08775
20
1.11031
11
1.08775
21
1.11031
0
LINE
8
BLACK
6
CONTINUOUS
10
1.08775
20
1.11031
11
1.08976
21
1.1157
0
LINE
8
BLACK
6
CONTINUOUS
10
1.08976
20
1.1157
11
1.08976
21
1.1157
0
LINE
8
BLACK
6
CONTINUOUS
10
1.08976
20
1.1157
11
1.09002
21
1.11808
0
LINE
8
BLACK
6
CONTINUOUS
10
1.09002
20
1.11808
11
1.09002
21
1.11809
0
LINE
8
BLACK
6
CONTINUOUS
10
1.09002
20
1.11809
11
1.09002
21
1.18191
0
LINE
8
BLACK
6
CONTINUOUS
10
1.09002
20
1.18191
11
1.09002
21
1.18192
0
LINE
8
BLACK
6
CONTINUOUS
10
1.09002
20
1.18192
11
1.08976
21
1.1843
0
LINE
8
BLACK
6
CONTINUOUS
10
1.08976
20
1.1843
11
1.08976
21
1.1843
0
LINE
8
BLACK
6
CONTINUOUS
10
1.08976
20
1.1843
11
1.08949
21
1.18504
0
LINE
8
BLACK
6
CONTINUOUS
10
1.08949
20
1.18504
11
1.08775
21
1.18969
0
LINE
8
BLACK
6
CONTINUOUS
10
1.08775
20
1.18969
11
1.0843
21
1.1943
0
LINE
8
BLACK
6
CONTINUOUS
10
1.0843
20
1.1943
11
1.08199
21
1.19603
0
LINE
8
BLACK
6
CONTINUOUS
10
1.08199
20
1.19603
11
1.08032
21
1.19827
0
LINE
8
BLACK
6
CONTINUOUS
10
1.08032
20
1.19827
11
1.08012
21
1.20105
0
LINE
8
BLACK
6
CONTINUOUS
10
1.08012
20
1.20105
11
1.08146
21
1.20351
0
LINE
8
BLACK
6
CONTINUOUS
10
1.08146
20
1.20351
11
1.08199
21
1.20397
0
LINE
8
BLACK
6
CONTINUOUS
10
1.08199
20
1.20397
11
1.0843
21
1.2057
0
LINE
8
BLACK
6
CONTINUOUS
10
1.0843
20
1.2057
11
1.08775
21
1.21031
0
LINE
8
BLACK
6
CONTINUOUS
10
1.08775
20
1.21031
11
1.08775
21
1.21031
0
LINE
8
BLACK
6
CONTINUOUS
10
1.08775
20
1.21031
11
1.08976
21
1.2157
0
LINE
8
BLACK
6
CONTINUOUS
10
1.08976
20
1.2157
11
1.08976
21
1.2157
0
LINE
8
BLACK
6
CONTINUOUS
10
1.08976
20
1.2157
11
1.09002
21
1.21808
0
LINE
8
BLACK
6
CONTINUOUS
10
1.09002
20
1.21808
11
1.09002
21
1.21809
0
LINE
8
BLACK
6
CONTINUOUS
10
1.09002
20
1.21809
11
1.09002
21
1.28191
0
LINE
8
BLACK
6
CONTINUOUS
10
1.09002
20
1.28191
11
1.09002
21
1.28192
0
LINE
8
BLACK
6
CONTINUOUS
10
1.09002
20
1.28192
11
1.08976
21
1.2843
0
LINE
8
BLACK
6
CONTINUOUS
10
1.08976
20
1.2843
11
1.08976
21
1.2843
0
LINE
8
BLACK
6
CONTINUOUS
10
1.08976
20
1.2843
11
1.08949
21
1.28504
0
LINE
8
BLACK
6
CONTINUOUS
10
1.08949
20
1.28504
11
1.08775
21
1.28969
0
LINE
8
BLACK
6
CONTINUOUS
10
1.08775
20
1.28969
11
1.0843
21
1.2943
0
LINE
8
BLACK
6
CONTINUOUS
10
1.0843
20
1.2943
11
1.07969
21
1.29775
0
LINE
8
BLACK
6
CONTINUOUS
10
1.07969
20
1.29775
11
1.0743
21
1.29976
0
LINE
8
BLACK
6
CONTINUOUS
10
1.0743
20
1.29976
11
1.0743
21
1.29976
0
LINE
8
BLACK
6
CONTINUOUS
10
1.0743
20
1.29976
11
1.0743
21
1.29976
0
LINE
8
BLACK
6
CONTINUOUS
10
1.0743
20
1.29976
11
1.07192
21
1.30002
0
LINE
8
BLACK
6
CONTINUOUS
10
1.07192
20
1.30002
11
1.07192
21
1.30002
0
LINE
8
BLACK
6
CONTINUOUS
10
1.07192
20
1.30002
11
1.07191
21
1.30002
0
LINE
8
BLACK
6
CONTINUOUS
10
1.07191
20
1.30002
11
1.00809
21
1.30002
0
LINE
8
BLACK
6
CONTINUOUS
10
1.00809
20
1.30002
11
1.00808
21
1.30002
0
LINE
8
BLACK
6
CONTINUOUS
10
1.00808
20
1.30002
11
1.00808
21
1.30002
0
LINE
8
BLACK
6
CONTINUOUS
10
1.00808
20
1.30002
11
1.0057
21
1.29976
0
LINE
8
BLACK
6
CONTINUOUS
10
1.0057
20
1.29976
11
1.0057
21
1.29976
0
LINE
8
BLACK
6
CONTINUOUS
10
1.0057
20
1.29976
11
1.00263
21
1.29862
0
LINE
8
BLACK
6
CONTINUOUS
10
1.00263
20
1.29862
11
1.00031
21
1.29775
0
LINE
8
BLACK
6
CONTINUOUS
10
1.00031
20
1.29775
11
1.00031
21
1.29775
0
LINE
8
BLACK
6
CONTINUOUS
10
1.00031
20
1.29775
11
1.00031
21
1.29775
0
LINE
8
BLACK
6
CONTINUOUS
10
1.00031
20
1.29775
11
0.995698
21
1.2943
0
LINE
8
BLACK
6
CONTINUOUS
10
0.995698
20
1.2943
11
0.993971
21
1.29199
0
LINE
8
BLACK
6
CONTINUOUS
10
0.993971
20
1.29199
11
0.991734
21
1.29032
0
LINE
8
BLACK
6
CONTINUOUS
10
0.991734
20
1.29032
11
0.988946
21
1.29012
0
LINE
8
BLACK
6
CONTINUOUS
10
0.988946
20
1.29012
11
0.986492
21
1.29146
0
LINE
8
BLACK
6
CONTINUOUS
10
0.986492
20
1.29146
11
0.986029
21
1.29199
0
LINE
8
BLACK
6
CONTINUOUS
10
0.986029
20
1.29199
11
0.984302
21
1.2943
0
LINE
8
BLACK
6
CONTINUOUS
10
0.984302
20
1.2943
11
0.979693
21
1.29775
0
LINE
8
BLACK
6
CONTINUOUS
10
0.979693
20
1.29775
11
0.979693
21
1.29775
0
LINE
8
BLACK
6
CONTINUOUS
10
0.979693
20
1.29775
11
0.979693
21
1.29775
0
LINE
8
BLACK
6
CONTINUOUS
10
0.979693
20
1.29775
11
0.974299
21
1.29976
0
LINE
8
BLACK
6
CONTINUOUS
10
0.974299
20
1.29976
11
0.974299
21
1.29976
0
LINE
8
BLACK
6
CONTINUOUS
10
0.974299
20
1.29976
11
0.974299
21
1.29976
0
LINE
8
BLACK
6
CONTINUOUS
10
0.974299
20
1.29976
11
0.971915
21
1.30002
0
LINE
8
BLACK
6
CONTINUOUS
10
0.971915
20
1.30002
11
0.971915
21
1.30002
0
LINE
8
BLACK
6
CONTINUOUS
10
0.971915
20
1.30002
11
0.971915
21
1.30002
0
LINE
8
BLACK
6
CONTINUOUS
10
0.971915
20
1.30002
11
0.908085
21
1.30002
0
LINE
8
BLACK
6
CONTINUOUS
10
0.908085
20
1.30002
11
0.908085
21
1.30002
0
LINE
8
BLACK
6
CONTINUOUS
10
0.908085
20
1.30002
11
0.908085
21
1.30002
0
LINE
8
BLACK
6
CONTINUOUS
10
0.908085
20
1.30002
11
0.905701
21
1.29976
0
LINE
8
BLACK
6
CONTINUOUS
10
0.905701
20
1.29976
11
0.905701
21
1.29976
0
LINE
8
BLACK
6
CONTINUOUS
10
0.905701
20
1.29976
11
0.902633
21
1.29862
0
LINE
8
BLACK
6
CONTINUOUS
10
0.902633
20
1.29862
11
0.900307
21
1.29775
0
LINE
8
BLACK
6
CONTINUOUS
10
0.900307
20
1.29775
11
0.900307
21
1.29775
0
LINE
8
BLACK
6
CONTINUOUS
10
0.900307
20
1.29775
11
0.900307
21
1.29775
0
LINE
8
BLACK
6
CONTINUOUS
10
0.900307
20
1.29775
11
0.895698
21
1.2943
0
LINE
8
BLACK
6
CONTINUOUS
10
0.895698
20
1.2943
11
0.892249
21
1.28969
0
LINE
8
BLACK
6
CONTINUOUS
10
0.892249
20
1.28969
11
0.892248
21
1.28969
0
LINE
8
BLACK
6
CONTINUOUS
10
0.892248
20
1.28969
11
0.890237
21
1.2843
0
LINE
8
BLACK
6
CONTINUOUS
10
0.890237
20
1.2843
11
0.890237
21
1.2843
0
LINE
8
BLACK
6
CONTINUOUS
10
0.890237
20
1.2843
11
0.88998
21
1.28192
0
LINE
8
BLACK
6
CONTINUOUS
10
0.88998
20
1.28192
11
0.88998
21
1.21808
0
LINE
8
BLACK
6
CONTINUOUS
10
0.88998
20
1.21808
11
0.890237
21
1.2157
0
LINE
8
BLACK
6
CONTINUOUS
10
0.890237
20
1.2157
11
0.890237
21
1.2157
0
LINE
8
BLACK
6
CONTINUOUS
10
0.890237
20
1.2157
11
0.892248
21
1.21031
0
LINE
8
BLACK
6
CONTINUOUS
10
0.892248
20
1.21031
11
0.892249
21
1.21031
0
LINE
8
BLACK
6
CONTINUOUS
10
0.892249
20
1.21031
11
0.895698
21
1.2057
0
LINE
8
BLACK
6
CONTINUOUS
10
0.895698
20
1.2057
11
0.898006
21
1.20397
0
LINE
8
BLACK
6
CONTINUOUS
10
0.898006
20
1.20397
11
0.899681
21
1.20173
0
LINE
8
BLACK
6
CONTINUOUS
10
0.899681
20
1.20173
11
0.89988
21
1.19895
0
LINE
8
BLACK
6
CONTINUOUS
10
0.89988
20
1.19895
11
0.89854
21
1.19649
0
LINE
8
BLACK
6
CONTINUOUS
10
0.89854
20
1.19649
11
0.898006
21
1.19603
0
LINE
8
BLACK
6
CONTINUOUS
10
0.898006
20
1.19603
11
0.895698
21
1.1943
0
LINE
8
BLACK
6
CONTINUOUS
10
0.895698
20
1.1943
11
0.892249
21
1.18969
0
LINE
8
BLACK
6
CONTINUOUS
10
0.892249
20
1.18969
11
0.892248
21
1.18969
0
LINE
8
BLACK
6
CONTINUOUS
10
0.892248
20
1.18969
11
0.890237
21
1.1843
0
LINE
8
BLACK
6
CONTINUOUS
10
0.890237
20
1.1843
11
0.890237
21
1.1843
0
LINE
8
BLACK
6
CONTINUOUS
10
0.890237
20
1.1843
11
0.88998
21
1.18192
0
LINE
8
BLACK
6
CONTINUOUS
10
0.88998
20
1.18192
11
0.88998
21
1.11808
0
LINE
8
BLACK
6
CONTINUOUS
10
0.88998
20
1.11808
11
0.890237
21
1.1157
0
CIRCLE
8
BLACK
10
0.15
20
0.73
40
0.00688976
0
CIRCLE
8
BLACK
10
0.25
20
0.73
40
0.00688976
0
CIRCLE
8
BLACK
10
0.15
20
0.63
40
0.00688976
0
CIRCLE
8
BLACK
10
0.25
20
0.63
40
0.00688976
0
CIRCLE
8
BLACK
10
0.15
20
0.53
40
0.00688976
0
CIRCLE
8
BLACK
10
0.25
20
0.53
40
0.00688976
0
CIRCLE
8
BLACK
10
0.15
20
0.43
40
0.00688976
0
CIRCLE
8
BLACK
10
0.25
20
0.43
40
0.00688976
0
CIRCLE
8
BLACK
10
0.15
20
1.17
40
0.00688976
0
CIRCLE
8
BLACK
10
0.25
20
1.17
40
0.00688976
0
CIRCLE
8
BLACK
10
0.15
20
1.07
40
0.00688976
0
CIRCLE
8
BLACK
10
0.25
20
1.07
40
0.00688976
0
CIRCLE
8
BLACK
10
0.15
20
0.97
40
0.00688976
0
CIRCLE
8
BLACK
10
0.25
20
0.97
40
0.00688976
0
CIRCLE
8
BLACK
10
0.15
20
0.87
40
0.00688976
0
CIRCLE
8
BLACK
10
0.25
20
0.87
40
0.00688976
0
CIRCLE
8
BLACK
10
0.94
20
0.47
40
0.00688976
0
CIRCLE
8
BLACK
10
0.94
20
0.37
40
0.00688976
0
CIRCLE
8
BLACK
10
0.94
20
1.15
40
0.00688976
0
CIRCLE
8
BLACK
10
0.94
20
1.25
40
0.00688976
0
CIRCLE
8
BLACK
10
1.04
20
0.47
40
0.00688976
0
CIRCLE
8
BLACK
10
1.04
20
0.37
40
0.00688976
0
CIRCLE
8
BLACK
10
1.04
20
1.15
40
0.00688976
0
CIRCLE
8
BLACK
10
1.04
20
1.25
40
0.00688976
0
CIRCLE
8
BLACK
10
1.39
20
0.73
40
0.00688976
0
CIRCLE
8
BLACK
10
1.49
20
0.73
40
0.00688976
0
CIRCLE
8
BLACK
10
1.39
20
0.63
40
0.00688976
0
CIRCLE
8
BLACK
10
1.49
20
0.63
40
0.00688976
0
CIRCLE
8
BLACK
10
1.39
20
0.53
40
0.00688976
0
CIRCLE
8
BLACK
10
1.49
20
0.53
40
0.00688976
0
CIRCLE
8
BLACK
10
1.39
20
0.43
40
0.00688976
0
CIRCLE
8
BLACK
10
1.49
20
0.43
40
0.00688976
0
CIRCLE
8
BLACK
10
1.39
20
1.17
40
0.00688976
0
CIRCLE
8
BLACK
10
1.49
20
1.17
40
0.00688976
0
CIRCLE
8
BLACK
10
1.39
20
1.07
40
0.00688976
0
CIRCLE
8
BLACK
10
1.49
20
1.07
40
0.00688976
0
CIRCLE
8
BLACK
10
1.39
20
0.97
40
0.00688976
0
CIRCLE
8
BLACK
10
1.49
20
0.97
40
0.00688976
0
CIRCLE
8
BLACK
10
1.39
20
0.87
40
0.00688976
0
CIRCLE
8
BLACK
10
1.49
20
0.87
40
0.00688976
0
CIRCLE
8
BLACK
10
0.2
20
1.4
40
0.00688976
0
CIRCLE
8
BLACK
10
1.4
20
1.4
40
0.00688976
0
CIRCLE
8
BLACK
10
1.4
20
0.2
40
0.00688976
0
CIRCLE
8
BLACK
10
0.2
20
0.2
40
0.00688976
  0
ENDSEC
  0
EOF
