  0
SECTION
  2
HEADER
  9
$ANGBASE
  50
0.0
  9
$ANGDIR
  70
1
  9
$MEASUREMENT
  70
0
  0
ENDSEC
  0
SECTION
  2
TABLES
  0
TABLE
  2
LTYPE
  70
4
  0
LTYPE
  5
40F
  2
CONTINUOUS
  70
0
  3
Solid line
  72
65
  73
0
  40
0.0
  0
LTYPE
  5
410
  2
DASHDOT
 70
0
  3
Dash Dot ____ _ ____ _
 72
65
 73
4
 40
2.0
 49
1.25
 49
-0.25
 49
0.25
 49
-0.25
  0
LTYPE
  5
411
  2
DASHED
 70
0
  3
Dashed __ __ __ __ __
 72
65
 73
2
 40
0.75
 49
0.5
 49
-0.25
  0
LTYPE
  5
43B
  2
DOTTED
 70
0
  3
Dotted .  .  .  .
 72
65
 73
2
 40
0.2
 49
0.0
 49
-0.2
  0
ENDTAB
  0
TABLE
  2
STYLE
  70
4
  0
STYLE
  2
KICAD
  70
0
  40
0
  41
1
  42
1
  50
0
  71
0
  3
isocp.shx
  0
STYLE
  2
KICADB
  70
0
  40
0
  41
1
  42
1
  50
0
  71
0
  3
isocp.shx
  0
STYLE
  2
KICADI
  70
0
  40
0
  41
1
  42
1
  50
15
  71
0
  3
isocp.shx
  0
STYLE
  2
KICADBI
  70
0
  40
0
  41
1
  42
1
  50
15
  71
0
  3
isocp.shx
  0
ENDTAB
  0
TABLE
  2
LAYER
  70
1
  0
LAYER
  2
BLACK
  70
0
  62
7
  6
CONTINUOUS
  0
ENDTAB
  0
ENDSEC
  0
SECTION
  2
ENTITIES
0
LINE
8
BLACK
6
CONTINUOUS
10
0.9675
20
0.065
11
0.9125
21
0.065
0
LINE
8
BLACK
6
CONTINUOUS
10
0.9125
20
0.065
11
0.9125
21
0.1
0
LINE
8
BLACK
6
CONTINUOUS
10
0.9125
20
0.1
11
0.9675
21
0.1
0
LINE
8
BLACK
6
CONTINUOUS
10
0.9675
20
0.1
11
0.9675
21
0.065
0
LINE
8
BLACK
6
CONTINUOUS
10
1.0675
20
0.065
11
1.0125
21
0.065
0
LINE
8
BLACK
6
CONTINUOUS
10
1.0125
20
0.065
11
1.0125
21
0.1
0
LINE
8
BLACK
6
CONTINUOUS
10
1.0125
20
0.1
11
1.0675
21
0.1
0
LINE
8
BLACK
6
CONTINUOUS
10
1.0675
20
0.1
11
1.0675
21
0.065
0
LINE
8
BLACK
6
CONTINUOUS
10
0.9675
20
0.14
11
0.9125
21
0.14
0
LINE
8
BLACK
6
CONTINUOUS
10
0.9125
20
0.14
11
0.9125
21
0.175
0
LINE
8
BLACK
6
CONTINUOUS
10
0.9125
20
0.175
11
0.9675
21
0.175
0
LINE
8
BLACK
6
CONTINUOUS
10
0.9675
20
0.175
11
0.9675
21
0.14
0
LINE
8
BLACK
6
CONTINUOUS
10
1.0675
20
0.14
11
1.0125
21
0.14
0
LINE
8
BLACK
6
CONTINUOUS
10
1.0125
20
0.14
11
1.0125
21
0.175
0
LINE
8
BLACK
6
CONTINUOUS
10
1.0125
20
0.175
11
1.0675
21
0.175
0
LINE
8
BLACK
6
CONTINUOUS
10
1.0675
20
0.175
11
1.0675
21
0.14
0
LINE
8
BLACK
6
CONTINUOUS
10
0.88
20
0.2125
11
0.845
21
0.2125
0
LINE
8
BLACK
6
CONTINUOUS
10
0.845
20
0.2125
11
0.845
21
0.2675
0
LINE
8
BLACK
6
CONTINUOUS
10
0.845
20
0.2675
11
0.88
21
0.2675
0
LINE
8
BLACK
6
CONTINUOUS
10
0.88
20
0.2675
11
0.88
21
0.2125
0
LINE
8
BLACK
6
CONTINUOUS
10
0.955
20
0.2125
11
0.92
21
0.2125
0
LINE
8
BLACK
6
CONTINUOUS
10
0.92
20
0.2125
11
0.92
21
0.2675
0
LINE
8
BLACK
6
CONTINUOUS
10
0.92
20
0.2675
11
0.955
21
0.2675
0
LINE
8
BLACK
6
CONTINUOUS
10
0.955
20
0.2675
11
0.955
21
0.2125
0
LINE
8
BLACK
6
CONTINUOUS
10
1.06
20
0.2125
11
1.025
21
0.2125
0
LINE
8
BLACK
6
CONTINUOUS
10
1.025
20
0.2125
11
1.025
21
0.2675
0
LINE
8
BLACK
6
CONTINUOUS
10
1.025
20
0.2675
11
1.06
21
0.2675
0
LINE
8
BLACK
6
CONTINUOUS
10
1.06
20
0.2675
11
1.06
21
0.2125
0
LINE
8
BLACK
6
CONTINUOUS
10
1.135
20
0.2125
11
1.1
21
0.2125
0
LINE
8
BLACK
6
CONTINUOUS
10
1.1
20
0.2125
11
1.1
21
0.2675
0
LINE
8
BLACK
6
CONTINUOUS
10
1.1
20
0.2675
11
1.135
21
0.2675
0
LINE
8
BLACK
6
CONTINUOUS
10
1.135
20
0.2675
11
1.135
21
0.2125
0
LINE
8
BLACK
6
CONTINUOUS
10
0.6855
20
0.5025
11
0.6505
21
0.5025
0
LINE
8
BLACK
6
CONTINUOUS
10
0.6505
20
0.5025
11
0.6505
21
0.5575
0
LINE
8
BLACK
6
CONTINUOUS
10
0.6505
20
0.5575
11
0.6855
21
0.5575
0
LINE
8
BLACK
6
CONTINUOUS
10
0.6855
20
0.5575
11
0.6855
21
0.5025
0
LINE
8
BLACK
6
CONTINUOUS
10
0.7605
20
0.5025
11
0.7255
21
0.5025
0
LINE
8
BLACK
6
CONTINUOUS
10
0.7255
20
0.5025
11
0.7255
21
0.5575
0
LINE
8
BLACK
6
CONTINUOUS
10
0.7255
20
0.5575
11
0.7605
21
0.5575
0
LINE
8
BLACK
6
CONTINUOUS
10
0.7605
20
0.5575
11
0.7605
21
0.5025
0
LINE
8
BLACK
6
CONTINUOUS
10
0.392
20
0.5045
11
0.357
21
0.5045
0
LINE
8
BLACK
6
CONTINUOUS
10
0.357
20
0.5045
11
0.357
21
0.5595
0
LINE
8
BLACK
6
CONTINUOUS
10
0.357
20
0.5595
11
0.392
21
0.5595
0
LINE
8
BLACK
6
CONTINUOUS
10
0.392
20
0.5595
11
0.392
21
0.5045
0
LINE
8
BLACK
6
CONTINUOUS
10
0.467
20
0.5045
11
0.432
21
0.5045
0
LINE
8
BLACK
6
CONTINUOUS
10
0.432
20
0.5045
11
0.432
21
0.5595
0
LINE
8
BLACK
6
CONTINUOUS
10
0.432
20
0.5595
11
0.467
21
0.5595
0
LINE
8
BLACK
6
CONTINUOUS
10
0.467
20
0.5595
11
0.467
21
0.5045
0
LINE
8
BLACK
6
CONTINUOUS
10
0.5915
20
0.525
11
0.5365
21
0.525
0
LINE
8
BLACK
6
CONTINUOUS
10
0.5365
20
0.525
11
0.5365
21
0.56
0
LINE
8
BLACK
6
CONTINUOUS
10
0.5365
20
0.56
11
0.5915
21
0.56
0
LINE
8
BLACK
6
CONTINUOUS
10
0.5915
20
0.56
11
0.5915
21
0.525
0
LINE
8
BLACK
6
CONTINUOUS
10
0.5915
20
0.6
11
0.5365
21
0.6
0
LINE
8
BLACK
6
CONTINUOUS
10
0.5365
20
0.6
11
0.5365
21
0.635
0
LINE
8
BLACK
6
CONTINUOUS
10
0.5365
20
0.635
11
0.5915
21
0.635
0
LINE
8
BLACK
6
CONTINUOUS
10
0.5915
20
0.635
11
0.5915
21
0.6
0
LINE
8
BLACK
6
CONTINUOUS
10
0.392
20
0.6005
11
0.357
21
0.6005
0
LINE
8
BLACK
6
CONTINUOUS
10
0.357
20
0.6005
11
0.357
21
0.6555
0
LINE
8
BLACK
6
CONTINUOUS
10
0.357
20
0.6555
11
0.392
21
0.6555
0
LINE
8
BLACK
6
CONTINUOUS
10
0.392
20
0.6555
11
0.392
21
0.6005
0
LINE
8
BLACK
6
CONTINUOUS
10
0.467
20
0.6005
11
0.432
21
0.6005
0
LINE
8
BLACK
6
CONTINUOUS
10
0.432
20
0.6005
11
0.432
21
0.6555
0
LINE
8
BLACK
6
CONTINUOUS
10
0.432
20
0.6555
11
0.467
21
0.6555
0
LINE
8
BLACK
6
CONTINUOUS
10
0.467
20
0.6555
11
0.467
21
0.6005
0
LINE
8
BLACK
6
CONTINUOUS
10
0.6855
20
0.6025
11
0.6505
21
0.6025
0
LINE
8
BLACK
6
CONTINUOUS
10
0.6505
20
0.6025
11
0.6505
21
0.6575
0
LINE
8
BLACK
6
CONTINUOUS
10
0.6505
20
0.6575
11
0.6855
21
0.6575
0
LINE
8
BLACK
6
CONTINUOUS
10
0.6855
20
0.6575
11
0.6855
21
0.6025
0
LINE
8
BLACK
6
CONTINUOUS
10
0.7605
20
0.6025
11
0.7255
21
0.6025
0
LINE
8
BLACK
6
CONTINUOUS
10
0.7255
20
0.6025
11
0.7255
21
0.6575
0
LINE
8
BLACK
6
CONTINUOUS
10
0.7255
20
0.6575
11
0.7605
21
0.6575
0
LINE
8
BLACK
6
CONTINUOUS
10
0.7605
20
0.6575
11
0.7605
21
0.6025
0
LINE
8
BLACK
6
CONTINUOUS
10
0.974173
20
0.609449
11
0.859213
21
0.609449
0
LINE
8
BLACK
6
CONTINUOUS
10
0.859213
20
0.609449
11
0.859213
21
0.63937
0
LINE
8
BLACK
6
CONTINUOUS
10
0.859213
20
0.63937
11
0.974173
21
0.63937
0
LINE
8
BLACK
6
CONTINUOUS
10
0.974173
20
0.63937
11
0.974173
21
0.609449
0
LINE
8
BLACK
6
CONTINUOUS
10
1.26079
20
0.609449
11
1.14583
21
0.609449
0
LINE
8
BLACK
6
CONTINUOUS
10
1.14583
20
0.609449
11
1.14583
21
0.63937
0
LINE
8
BLACK
6
CONTINUOUS
10
1.14583
20
0.63937
11
1.26079
21
0.63937
0
LINE
8
BLACK
6
CONTINUOUS
10
1.26079
20
0.63937
11
1.26079
21
0.609449
0
LINE
8
BLACK
6
CONTINUOUS
10
0.974173
20
0.659449
11
0.859213
21
0.659449
0
LINE
8
BLACK
6
CONTINUOUS
10
0.859213
20
0.659449
11
0.859213
21
0.68937
0
LINE
8
BLACK
6
CONTINUOUS
10
0.859213
20
0.68937
11
0.974173
21
0.68937
0
LINE
8
BLACK
6
CONTINUOUS
10
0.974173
20
0.68937
11
0.974173
21
0.659449
0
LINE
8
BLACK
6
CONTINUOUS
10
1.26079
20
0.659449
11
1.14583
21
0.659449
0
LINE
8
BLACK
6
CONTINUOUS
10
1.14583
20
0.659449
11
1.14583
21
0.68937
0
LINE
8
BLACK
6
CONTINUOUS
10
1.14583
20
0.68937
11
1.26079
21
0.68937
0
LINE
8
BLACK
6
CONTINUOUS
10
1.26079
20
0.68937
11
1.26079
21
0.659449
0
LINE
8
BLACK
6
CONTINUOUS
10
0.974173
20
0.709449
11
0.859213
21
0.709449
0
LINE
8
BLACK
6
CONTINUOUS
10
0.859213
20
0.709449
11
0.859213
21
0.73937
0
LINE
8
BLACK
6
CONTINUOUS
10
0.859213
20
0.73937
11
0.974173
21
0.73937
0
LINE
8
BLACK
6
CONTINUOUS
10
0.974173
20
0.73937
11
0.974173
21
0.709449
0
LINE
8
BLACK
6
CONTINUOUS
10
1.26079
20
0.709449
11
1.14583
21
0.709449
0
LINE
8
BLACK
6
CONTINUOUS
10
1.14583
20
0.709449
11
1.14583
21
0.73937
0
LINE
8
BLACK
6
CONTINUOUS
10
1.14583
20
0.73937
11
1.26079
21
0.73937
0
LINE
8
BLACK
6
CONTINUOUS
10
1.26079
20
0.73937
11
1.26079
21
0.709449
0
LINE
8
BLACK
6
CONTINUOUS
10
0.974173
20
0.760039
11
0.859213
21
0.760039
0
LINE
8
BLACK
6
CONTINUOUS
10
0.859213
20
0.760039
11
0.859213
21
0.789961
0
LINE
8
BLACK
6
CONTINUOUS
10
0.859213
20
0.789961
11
0.974173
21
0.789961
0
LINE
8
BLACK
6
CONTINUOUS
10
0.974173
20
0.789961
11
0.974173
21
0.760039
0
LINE
8
BLACK
6
CONTINUOUS
10
1.26079
20
0.760039
11
1.14583
21
0.760039
0
LINE
8
BLACK
6
CONTINUOUS
10
1.14583
20
0.760039
11
1.14583
21
0.789961
0
LINE
8
BLACK
6
CONTINUOUS
10
1.14583
20
0.789961
11
1.26079
21
0.789961
0
LINE
8
BLACK
6
CONTINUOUS
10
1.26079
20
0.789961
11
1.26079
21
0.760039
0
LINE
8
BLACK
6
CONTINUOUS
10
0.974173
20
0.810039
11
0.859213
21
0.810039
0
LINE
8
BLACK
6
CONTINUOUS
10
0.859213
20
0.810039
11
0.859213
21
0.839961
0
LINE
8
BLACK
6
CONTINUOUS
10
0.859213
20
0.839961
11
0.974173
21
0.839961
0
LINE
8
BLACK
6
CONTINUOUS
10
0.974173
20
0.839961
11
0.974173
21
0.810039
0
LINE
8
BLACK
6
CONTINUOUS
10
1.26079
20
0.810039
11
1.14583
21
0.810039
0
LINE
8
BLACK
6
CONTINUOUS
10
1.14583
20
0.810039
11
1.14583
21
0.839961
0
LINE
8
BLACK
6
CONTINUOUS
10
1.14583
20
0.839961
11
1.26079
21
0.839961
0
LINE
8
BLACK
6
CONTINUOUS
10
1.26079
20
0.839961
11
1.26079
21
0.810039
0
LINE
8
BLACK
6
CONTINUOUS
10
0.974173
20
0.86063
11
0.859213
21
0.86063
0
LINE
8
BLACK
6
CONTINUOUS
10
0.859213
20
0.86063
11
0.859213
21
0.890551
0
LINE
8
BLACK
6
CONTINUOUS
10
0.859213
20
0.890551
11
0.974173
21
0.890551
0
LINE
8
BLACK
6
CONTINUOUS
10
0.974173
20
0.890551
11
0.974173
21
0.86063
0
LINE
8
BLACK
6
CONTINUOUS
10
1.26079
20
0.86063
11
1.14583
21
0.86063
0
LINE
8
BLACK
6
CONTINUOUS
10
1.14583
20
0.86063
11
1.14583
21
0.890551
0
LINE
8
BLACK
6
CONTINUOUS
10
1.14583
20
0.890551
11
1.26079
21
0.890551
0
LINE
8
BLACK
6
CONTINUOUS
10
1.26079
20
0.890551
11
1.26079
21
0.86063
0
LINE
8
BLACK
6
CONTINUOUS
10
0.974173
20
0.91063
11
0.859213
21
0.91063
0
LINE
8
BLACK
6
CONTINUOUS
10
0.859213
20
0.91063
11
0.859213
21
0.940551
0
LINE
8
BLACK
6
CONTINUOUS
10
0.859213
20
0.940551
11
0.974173
21
0.940551
0
LINE
8
BLACK
6
CONTINUOUS
10
0.974173
20
0.940551
11
0.974173
21
0.91063
0
LINE
8
BLACK
6
CONTINUOUS
10
1.26079
20
0.91063
11
1.14583
21
0.91063
0
LINE
8
BLACK
6
CONTINUOUS
10
1.14583
20
0.91063
11
1.14583
21
0.940551
0
LINE
8
BLACK
6
CONTINUOUS
10
1.14583
20
0.940551
11
1.26079
21
0.940551
0
LINE
8
BLACK
6
CONTINUOUS
10
1.26079
20
0.940551
11
1.26079
21
0.91063
0
LINE
8
BLACK
6
CONTINUOUS
10
0.394
20
0.9445
11
0.359
21
0.9445
0
LINE
8
BLACK
6
CONTINUOUS
10
0.359
20
0.9445
11
0.359
21
0.9995
0
LINE
8
BLACK
6
CONTINUOUS
10
0.359
20
0.9995
11
0.394
21
0.9995
0
LINE
8
BLACK
6
CONTINUOUS
10
0.394
20
0.9995
11
0.394
21
0.9445
0
LINE
8
BLACK
6
CONTINUOUS
10
0.469
20
0.9445
11
0.434
21
0.9445
0
LINE
8
BLACK
6
CONTINUOUS
10
0.434
20
0.9445
11
0.434
21
0.9995
0
LINE
8
BLACK
6
CONTINUOUS
10
0.434
20
0.9995
11
0.469
21
0.9995
0
LINE
8
BLACK
6
CONTINUOUS
10
0.469
20
0.9995
11
0.469
21
0.9445
0
LINE
8
BLACK
6
CONTINUOUS
10
0.6875
20
0.9445
11
0.6525
21
0.9445
0
LINE
8
BLACK
6
CONTINUOUS
10
0.6525
20
0.9445
11
0.6525
21
0.9995
0
LINE
8
BLACK
6
CONTINUOUS
10
0.6525
20
0.9995
11
0.6875
21
0.9995
0
LINE
8
BLACK
6
CONTINUOUS
10
0.6875
20
0.9995
11
0.6875
21
0.9445
0
LINE
8
BLACK
6
CONTINUOUS
10
0.7625
20
0.9445
11
0.7275
21
0.9445
0
LINE
8
BLACK
6
CONTINUOUS
10
0.7275
20
0.9445
11
0.7275
21
0.9995
0
LINE
8
BLACK
6
CONTINUOUS
10
0.7275
20
0.9995
11
0.7625
21
0.9995
0
LINE
8
BLACK
6
CONTINUOUS
10
0.7625
20
0.9995
11
0.7625
21
0.9445
0
LINE
8
BLACK
6
CONTINUOUS
10
0.974173
20
0.96063
11
0.859213
21
0.96063
0
LINE
8
BLACK
6
CONTINUOUS
10
0.859213
20
0.96063
11
0.859213
21
0.990551
0
LINE
8
BLACK
6
CONTINUOUS
10
0.859213
20
0.990551
11
0.974173
21
0.990551
0
LINE
8
BLACK
6
CONTINUOUS
10
0.974173
20
0.990551
11
0.974173
21
0.96063
0
LINE
8
BLACK
6
CONTINUOUS
10
1.26079
20
0.96063
11
1.14583
21
0.96063
0
LINE
8
BLACK
6
CONTINUOUS
10
1.14583
20
0.96063
11
1.14583
21
0.990551
0
LINE
8
BLACK
6
CONTINUOUS
10
1.14583
20
0.990551
11
1.26079
21
0.990551
0
LINE
8
BLACK
6
CONTINUOUS
10
1.26079
20
0.990551
11
1.26079
21
0.96063
0
LINE
8
BLACK
6
CONTINUOUS
10
0.5935
20
0.965
11
0.5385
21
0.965
0
LINE
8
BLACK
6
CONTINUOUS
10
0.5385
20
0.965
11
0.5385
21
1
0
LINE
8
BLACK
6
CONTINUOUS
10
0.5385
20
1
11
0.5935
21
1
0
LINE
8
BLACK
6
CONTINUOUS
10
0.5935
20
1
11
0.5935
21
0.965
0
LINE
8
BLACK
6
CONTINUOUS
10
0.5935
20
1.04
11
0.5385
21
1.04
0
LINE
8
BLACK
6
CONTINUOUS
10
0.5385
20
1.04
11
0.5385
21
1.075
0
LINE
8
BLACK
6
CONTINUOUS
10
0.5385
20
1.075
11
0.5935
21
1.075
0
LINE
8
BLACK
6
CONTINUOUS
10
0.5935
20
1.075
11
0.5935
21
1.04
0
LINE
8
BLACK
6
CONTINUOUS
10
0.394
20
1.0405
11
0.359
21
1.0405
0
LINE
8
BLACK
6
CONTINUOUS
10
0.359
20
1.0405
11
0.359
21
1.0955
0
LINE
8
BLACK
6
CONTINUOUS
10
0.359
20
1.0955
11
0.394
21
1.0955
0
LINE
8
BLACK
6
CONTINUOUS
10
0.394
20
1.0955
11
0.394
21
1.0405
0
LINE
8
BLACK
6
CONTINUOUS
10
0.469
20
1.0405
11
0.434
21
1.0405
0
LINE
8
BLACK
6
CONTINUOUS
10
0.434
20
1.0405
11
0.434
21
1.0955
0
LINE
8
BLACK
6
CONTINUOUS
10
0.434
20
1.0955
11
0.469
21
1.0955
0
LINE
8
BLACK
6
CONTINUOUS
10
0.469
20
1.0955
11
0.469
21
1.0405
0
LINE
8
BLACK
6
CONTINUOUS
10
0.6875
20
1.0405
11
0.6525
21
1.0405
0
LINE
8
BLACK
6
CONTINUOUS
10
0.6525
20
1.0405
11
0.6525
21
1.0955
0
LINE
8
BLACK
6
CONTINUOUS
10
0.6525
20
1.0955
11
0.6875
21
1.0955
0
LINE
8
BLACK
6
CONTINUOUS
10
0.6875
20
1.0955
11
0.6875
21
1.0405
0
LINE
8
BLACK
6
CONTINUOUS
10
0.7625
20
1.0405
11
0.7275
21
1.0405
0
LINE
8
BLACK
6
CONTINUOUS
10
0.7275
20
1.0405
11
0.7275
21
1.0955
0
LINE
8
BLACK
6
CONTINUOUS
10
0.7275
20
1.0955
11
0.7625
21
1.0955
0
LINE
8
BLACK
6
CONTINUOUS
10
0.7625
20
1.0955
11
0.7625
21
1.0405
0
LINE
8
BLACK
6
CONTINUOUS
10
0.88
20
1.3325
11
0.845
21
1.3325
0
LINE
8
BLACK
6
CONTINUOUS
10
0.845
20
1.3325
11
0.845
21
1.3875
0
LINE
8
BLACK
6
CONTINUOUS
10
0.845
20
1.3875
11
0.88
21
1.3875
0
LINE
8
BLACK
6
CONTINUOUS
10
0.88
20
1.3875
11
0.88
21
1.3325
0
LINE
8
BLACK
6
CONTINUOUS
10
0.955
20
1.3325
11
0.92
21
1.3325
0
LINE
8
BLACK
6
CONTINUOUS
10
0.92
20
1.3325
11
0.92
21
1.3875
0
LINE
8
BLACK
6
CONTINUOUS
10
0.92
20
1.3875
11
0.955
21
1.3875
0
LINE
8
BLACK
6
CONTINUOUS
10
0.955
20
1.3875
11
0.955
21
1.3325
0
LINE
8
BLACK
6
CONTINUOUS
10
1.06
20
1.3325
11
1.025
21
1.3325
0
LINE
8
BLACK
6
CONTINUOUS
10
1.025
20
1.3325
11
1.025
21
1.3875
0
LINE
8
BLACK
6
CONTINUOUS
10
1.025
20
1.3875
11
1.06
21
1.3875
0
LINE
8
BLACK
6
CONTINUOUS
10
1.06
20
1.3875
11
1.06
21
1.3325
0
LINE
8
BLACK
6
CONTINUOUS
10
1.135
20
1.3325
11
1.1
21
1.3325
0
LINE
8
BLACK
6
CONTINUOUS
10
1.1
20
1.3325
11
1.1
21
1.3875
0
LINE
8
BLACK
6
CONTINUOUS
10
1.1
20
1.3875
11
1.135
21
1.3875
0
LINE
8
BLACK
6
CONTINUOUS
10
1.135
20
1.3875
11
1.135
21
1.3325
0
LINE
8
BLACK
6
CONTINUOUS
10
0.9675
20
1.425
11
0.9125
21
1.425
0
LINE
8
BLACK
6
CONTINUOUS
10
0.9125
20
1.425
11
0.9125
21
1.46
0
LINE
8
BLACK
6
CONTINUOUS
10
0.9125
20
1.46
11
0.9675
21
1.46
0
LINE
8
BLACK
6
CONTINUOUS
10
0.9675
20
1.46
11
0.9675
21
1.425
0
LINE
8
BLACK
6
CONTINUOUS
10
1.0675
20
1.425
11
1.0125
21
1.425
0
LINE
8
BLACK
6
CONTINUOUS
10
1.0125
20
1.425
11
1.0125
21
1.46
0
LINE
8
BLACK
6
CONTINUOUS
10
1.0125
20
1.46
11
1.0675
21
1.46
0
LINE
8
BLACK
6
CONTINUOUS
10
1.0675
20
1.46
11
1.0675
21
1.425
0
LINE
8
BLACK
6
CONTINUOUS
10
0.9675
20
1.5
11
0.9125
21
1.5
0
LINE
8
BLACK
6
CONTINUOUS
10
0.9125
20
1.5
11
0.9125
21
1.535
0
LINE
8
BLACK
6
CONTINUOUS
10
0.9125
20
1.535
11
0.9675
21
1.535
0
LINE
8
BLACK
6
CONTINUOUS
10
0.9675
20
1.535
11
0.9675
21
1.5
0
LINE
8
BLACK
6
CONTINUOUS
10
1.0675
20
1.5
11
1.0125
21
1.5
0
LINE
8
BLACK
6
CONTINUOUS
10
1.0125
20
1.5
11
1.0125
21
1.535
0
LINE
8
BLACK
6
CONTINUOUS
10
1.0125
20
1.535
11
1.0675
21
1.535
0
LINE
8
BLACK
6
CONTINUOUS
10
1.0675
20
1.535
11
1.0675
21
1.5
  0
ENDSEC
  0
EOF
