  0
SECTION
  2
HEADER
  9
$ANGBASE
  50
0.0
  9
$ANGDIR
  70
1
  9
$MEASUREMENT
  70
0
  0
ENDSEC
  0
SECTION
  2
TABLES
  0
TABLE
  2
LTYPE
  70
4
  0
LTYPE
  5
40F
  2
CONTINUOUS
  70
0
  3
Solid line
  72
65
  73
0
  40
0.0
  0
LTYPE
  5
410
  2
DASHDOT
 70
0
  3
Dash Dot ____ _ ____ _
 72
65
 73
4
 40
2.0
 49
1.25
 49
-0.25
 49
0.25
 49
-0.25
  0
LTYPE
  5
411
  2
DASHED
 70
0
  3
Dashed __ __ __ __ __
 72
65
 73
2
 40
0.75
 49
0.5
 49
-0.25
  0
LTYPE
  5
43B
  2
DOTTED
 70
0
  3
Dotted .  .  .  .
 72
65
 73
2
 40
0.2
 49
0.0
 49
-0.2
  0
ENDTAB
  0
TABLE
  2
STYLE
  70
4
  0
STYLE
  2
KICAD
  70
0
  40
0
  41
1
  42
1
  50
0
  71
0
  3
isocp.shx
  0
STYLE
  2
KICADB
  70
0
  40
0
  41
1
  42
1
  50
0
  71
0
  3
isocp.shx
  0
STYLE
  2
KICADI
  70
0
  40
0
  41
1
  42
1
  50
15
  71
0
  3
isocp.shx
  0
STYLE
  2
KICADBI
  70
0
  40
0
  41
1
  42
1
  50
15
  71
0
  3
isocp.shx
  0
ENDTAB
  0
TABLE
  2
LAYER
  70
1
  0
LAYER
  2
BLACK
  70
0
  62
7
  6
CONTINUOUS
  0
ENDTAB
  0
ENDSEC
  0
SECTION
  2
ENTITIES
0
LINE
8
BLACK
6
CONTINUOUS
10
1.59038
20
1.59289
11
1.59051
21
1.59291
0
LINE
8
BLACK
6
CONTINUOUS
10
1.59051
20
1.59291
11
1.59063
21
1.59284
0
LINE
8
BLACK
6
CONTINUOUS
10
1.59063
20
1.59284
11
1.59101
21
1.59277
0
LINE
8
BLACK
6
CONTINUOUS
10
1.59101
20
1.59277
11
1.5916
21
1.59228
0
LINE
8
BLACK
6
CONTINUOUS
10
1.5916
20
1.59228
11
1.59226
21
1.5919
0
LINE
8
BLACK
6
CONTINUOUS
10
1.59226
20
1.5919
11
1.59235
21
1.59165
0
LINE
8
BLACK
6
CONTINUOUS
10
1.59235
20
1.59165
11
1.59256
21
1.59148
0
LINE
8
BLACK
6
CONTINUOUS
10
1.59256
20
1.59148
11
1.59269
21
1.59072
0
LINE
8
BLACK
6
CONTINUOUS
10
1.59269
20
1.59072
11
1.59295
21
1.59
0
LINE
8
BLACK
6
CONTINUOUS
10
1.59295
20
1.59
11
1.59295
21
0.01
0
LINE
8
BLACK
6
CONTINUOUS
10
1.59295
20
0.01
11
1.59289
21
0.00961646
0
LINE
8
BLACK
6
CONTINUOUS
10
1.59289
20
0.00961646
11
1.59291
21
0.00948724
0
LINE
8
BLACK
6
CONTINUOUS
10
1.59291
20
0.00948724
11
1.59284
21
0.00937362
0
LINE
8
BLACK
6
CONTINUOUS
10
1.59284
20
0.00937362
11
1.59277
21
0.00899008
0
LINE
8
BLACK
6
CONTINUOUS
10
1.59277
20
0.00899008
11
1.59228
21
0.00840236
0
LINE
8
BLACK
6
CONTINUOUS
10
1.59228
20
0.00840236
11
1.5919
21
0.00773807
0
LINE
8
BLACK
6
CONTINUOUS
10
1.5919
20
0.00773807
11
1.59165
21
0.00764693
0
LINE
8
BLACK
6
CONTINUOUS
10
1.59165
20
0.00764693
11
1.59148
21
0.00744283
0
LINE
8
BLACK
6
CONTINUOUS
10
1.59148
20
0.00744283
11
1.59072
21
0.00730957
0
LINE
8
BLACK
6
CONTINUOUS
10
1.59072
20
0.00730957
11
1.59
21
0.00704724
0
LINE
8
BLACK
6
CONTINUOUS
10
1.59
20
0.00704724
11
0.01
21
0.00704724
0
LINE
8
BLACK
6
CONTINUOUS
10
0.01
20
0.00704724
11
0.00961646
21
0.00711484
0
LINE
8
BLACK
6
CONTINUOUS
10
0.00961646
20
0.00711484
11
0.00948724
21
0.00709209
0
LINE
8
BLACK
6
CONTINUOUS
10
0.00948724
20
0.00709209
11
0.00937362
21
0.00715768
0
LINE
8
BLACK
6
CONTINUOUS
10
0.00937362
20
0.00715768
11
0.00899008
21
0.00722531
0
LINE
8
BLACK
6
CONTINUOUS
10
0.00899008
20
0.00722531
11
0.00840236
21
0.00771843
0
LINE
8
BLACK
6
CONTINUOUS
10
0.00840236
20
0.00771843
11
0.00773807
21
0.00810201
0
LINE
8
BLACK
6
CONTINUOUS
10
0.00773807
20
0.00810201
11
0.00764693
21
0.00835232
0
LINE
8
BLACK
6
CONTINUOUS
10
0.00764693
20
0.00835232
11
0.00744283
21
0.00852362
0
LINE
8
BLACK
6
CONTINUOUS
10
0.00744283
20
0.00852362
11
0.00730957
21
0.00927917
0
LINE
8
BLACK
6
CONTINUOUS
10
0.00730957
20
0.00927917
11
0.00704724
21
0.01
0
LINE
8
BLACK
6
CONTINUOUS
10
0.00704724
20
0.01
11
0.00704724
21
1.59
0
LINE
8
BLACK
6
CONTINUOUS
10
0.00704724
20
1.59
11
0.00711484
21
1.59038
0
LINE
8
BLACK
6
CONTINUOUS
10
0.00711484
20
1.59038
11
0.00709209
21
1.59051
0
LINE
8
BLACK
6
CONTINUOUS
10
0.00709209
20
1.59051
11
0.00715768
21
1.59063
0
LINE
8
BLACK
6
CONTINUOUS
10
0.00715768
20
1.59063
11
0.00722531
21
1.59101
0
LINE
8
BLACK
6
CONTINUOUS
10
0.00722531
20
1.59101
11
0.00771843
21
1.5916
0
LINE
8
BLACK
6
CONTINUOUS
10
0.00771843
20
1.5916
11
0.00810201
21
1.59226
0
LINE
8
BLACK
6
CONTINUOUS
10
0.00810201
20
1.59226
11
0.00835232
21
1.59235
0
LINE
8
BLACK
6
CONTINUOUS
10
0.00835232
20
1.59235
11
0.00852362
21
1.59256
0
LINE
8
BLACK
6
CONTINUOUS
10
0.00852362
20
1.59256
11
0.00927917
21
1.59269
0
LINE
8
BLACK
6
CONTINUOUS
10
0.00927917
20
1.59269
11
0.01
21
1.59295
0
LINE
8
BLACK
6
CONTINUOUS
10
0.01
20
1.59295
11
1.59
21
1.59295
0
LINE
8
BLACK
6
CONTINUOUS
10
1.59
20
1.59295
11
1.59038
21
1.59289
0
LINE
8
BLACK
6
CONTINUOUS
10
0.0129528
20
1.58705
11
0.0129528
21
0.0129528
0
LINE
8
BLACK
6
CONTINUOUS
10
0.0129528
20
0.0129528
11
1.58705
21
0.0129528
0
LINE
8
BLACK
6
CONTINUOUS
10
1.58705
20
0.0129528
11
1.58705
21
1.58705
0
LINE
8
BLACK
6
CONTINUOUS
10
1.58705
20
1.58705
11
0.0129528
21
1.58705
  0
ENDSEC
  0
EOF
