  0
SECTION
  2
HEADER
  9
$ANGBASE
  50
0.0
  9
$ANGDIR
  70
1
  9
$MEASUREMENT
  70
0
  0
ENDSEC
  0
SECTION
  2
TABLES
  0
TABLE
  2
LTYPE
  70
4
  0
LTYPE
  5
40F
  2
CONTINUOUS
  70
0
  3
Solid line
  72
65
  73
0
  40
0.0
  0
LTYPE
  5
410
  2
DASHDOT
 70
0
  3
Dash Dot ____ _ ____ _
 72
65
 73
4
 40
2.0
 49
1.25
 49
-0.25
 49
0.25
 49
-0.25
  0
LTYPE
  5
411
  2
DASHED
 70
0
  3
Dashed __ __ __ __ __
 72
65
 73
2
 40
0.75
 49
0.5
 49
-0.25
  0
LTYPE
  5
43B
  2
DOTTED
 70
0
  3
Dotted .  .  .  .
 72
65
 73
2
 40
0.2
 49
0.0
 49
-0.2
  0
ENDTAB
  0
TABLE
  2
STYLE
  70
4
  0
STYLE
  2
KICAD
  70
0
  40
0
  41
1
  42
1
  50
0
  71
0
  3
isocp.shx
  0
STYLE
  2
KICADB
  70
0
  40
0
  41
1
  42
1
  50
0
  71
0
  3
isocp.shx
  0
STYLE
  2
KICADI
  70
0
  40
0
  41
1
  42
1
  50
15
  71
0
  3
isocp.shx
  0
STYLE
  2
KICADBI
  70
0
  40
0
  41
1
  42
1
  50
15
  71
0
  3
isocp.shx
  0
ENDTAB
  0
TABLE
  2
LAYER
  70
1
  0
LAYER
  2
BLACK
  70
0
  62
7
  6
CONTINUOUS
  0
ENDTAB
  0
ENDSEC
  0
SECTION
  2
ENTITIES
0
LINE
8
BLACK
6
CONTINUOUS
10
0.214106
20
0.325192
11
0.228034
21
0.322826
0
LINE
8
BLACK
6
CONTINUOUS
10
0.228034
20
0.322826
11
0.24161
21
0.318914
0
LINE
8
BLACK
6
CONTINUOUS
10
0.24161
20
0.318914
11
0.254663
21
0.313508
0
LINE
8
BLACK
6
CONTINUOUS
10
0.254663
20
0.313508
11
0.267028
21
0.306674
0
LINE
8
BLACK
6
CONTINUOUS
10
0.267028
20
0.306674
11
0.27855
21
0.298498
0
LINE
8
BLACK
6
CONTINUOUS
10
0.27855
20
0.298498
11
0.289084
21
0.289084
0
LINE
8
BLACK
6
CONTINUOUS
10
0.289084
20
0.289084
11
0.298498
21
0.27855
0
LINE
8
BLACK
6
CONTINUOUS
10
0.298498
20
0.27855
11
0.306674
21
0.267028
0
LINE
8
BLACK
6
CONTINUOUS
10
0.306674
20
0.267028
11
0.313508
21
0.254663
0
LINE
8
BLACK
6
CONTINUOUS
10
0.313508
20
0.254663
11
0.318914
21
0.24161
0
LINE
8
BLACK
6
CONTINUOUS
10
0.318914
20
0.24161
11
0.322826
21
0.228034
0
LINE
8
BLACK
6
CONTINUOUS
10
0.322826
20
0.228034
11
0.325192
21
0.214106
0
LINE
8
BLACK
6
CONTINUOUS
10
0.325192
20
0.214106
11
0.325984
21
0.2
0
LINE
8
BLACK
6
CONTINUOUS
10
0.325984
20
0.2
11
0.325192
21
0.185894
0
LINE
8
BLACK
6
CONTINUOUS
10
0.325192
20
0.185894
11
0.322826
21
0.171966
0
LINE
8
BLACK
6
CONTINUOUS
10
0.322826
20
0.171966
11
0.318914
21
0.15839
0
LINE
8
BLACK
6
CONTINUOUS
10
0.318914
20
0.15839
11
0.313508
21
0.145337
0
LINE
8
BLACK
6
CONTINUOUS
10
0.313508
20
0.145337
11
0.306674
21
0.132972
0
LINE
8
BLACK
6
CONTINUOUS
10
0.306674
20
0.132972
11
0.298498
21
0.12145
0
LINE
8
BLACK
6
CONTINUOUS
10
0.298498
20
0.12145
11
0.289084
21
0.110916
0
LINE
8
BLACK
6
CONTINUOUS
10
0.289084
20
0.110916
11
0.27855
21
0.101502
0
LINE
8
BLACK
6
CONTINUOUS
10
0.27855
20
0.101502
11
0.267028
21
0.0933261
0
LINE
8
BLACK
6
CONTINUOUS
10
0.267028
20
0.0933261
11
0.254663
21
0.0864921
0
LINE
8
BLACK
6
CONTINUOUS
10
0.254663
20
0.0864921
11
0.24161
21
0.0810856
0
LINE
8
BLACK
6
CONTINUOUS
10
0.24161
20
0.0810856
11
0.228034
21
0.0771744
0
LINE
8
BLACK
6
CONTINUOUS
10
0.228034
20
0.0771744
11
0.214106
21
0.0748079
0
LINE
8
BLACK
6
CONTINUOUS
10
0.214106
20
0.0748079
11
0.2
21
0.0740157
0
LINE
8
BLACK
6
CONTINUOUS
10
0.2
20
0.0740157
11
0.185894
21
0.0748079
0
LINE
8
BLACK
6
CONTINUOUS
10
0.185894
20
0.0748079
11
0.171966
21
0.0771744
0
LINE
8
BLACK
6
CONTINUOUS
10
0.171966
20
0.0771744
11
0.15839
21
0.0810856
0
LINE
8
BLACK
6
CONTINUOUS
10
0.15839
20
0.0810856
11
0.145337
21
0.0864921
0
LINE
8
BLACK
6
CONTINUOUS
10
0.145337
20
0.0864921
11
0.132972
21
0.0933261
0
LINE
8
BLACK
6
CONTINUOUS
10
0.132972
20
0.0933261
11
0.12145
21
0.101502
0
LINE
8
BLACK
6
CONTINUOUS
10
0.12145
20
0.101502
11
0.110916
21
0.110916
0
LINE
8
BLACK
6
CONTINUOUS
10
0.110916
20
0.110916
11
0.101502
21
0.12145
0
LINE
8
BLACK
6
CONTINUOUS
10
0.101502
20
0.12145
11
0.0933261
21
0.132972
0
LINE
8
BLACK
6
CONTINUOUS
10
0.0933261
20
0.132972
11
0.0864921
21
0.145337
0
LINE
8
BLACK
6
CONTINUOUS
10
0.0864921
20
0.145337
11
0.0810856
21
0.15839
0
LINE
8
BLACK
6
CONTINUOUS
10
0.0810856
20
0.15839
11
0.0771744
21
0.171966
0
LINE
8
BLACK
6
CONTINUOUS
10
0.0771744
20
0.171966
11
0.0748079
21
0.185894
0
LINE
8
BLACK
6
CONTINUOUS
10
0.0748079
20
0.185894
11
0.0740157
21
0.2
0
LINE
8
BLACK
6
CONTINUOUS
10
0.0740157
20
0.2
11
0.0748079
21
0.214106
0
LINE
8
BLACK
6
CONTINUOUS
10
0.0748079
20
0.214106
11
0.0771744
21
0.228034
0
LINE
8
BLACK
6
CONTINUOUS
10
0.0771744
20
0.228034
11
0.0810856
21
0.24161
0
LINE
8
BLACK
6
CONTINUOUS
10
0.0810856
20
0.24161
11
0.0864921
21
0.254663
0
LINE
8
BLACK
6
CONTINUOUS
10
0.0864921
20
0.254663
11
0.0933261
21
0.267028
0
LINE
8
BLACK
6
CONTINUOUS
10
0.0933261
20
0.267028
11
0.101502
21
0.27855
0
LINE
8
BLACK
6
CONTINUOUS
10
0.101502
20
0.27855
11
0.110916
21
0.289084
0
LINE
8
BLACK
6
CONTINUOUS
10
0.110916
20
0.289084
11
0.12145
21
0.298498
0
LINE
8
BLACK
6
CONTINUOUS
10
0.12145
20
0.298498
11
0.132972
21
0.306674
0
LINE
8
BLACK
6
CONTINUOUS
10
0.132972
20
0.306674
11
0.145337
21
0.313508
0
LINE
8
BLACK
6
CONTINUOUS
10
0.145337
20
0.313508
11
0.15839
21
0.318914
0
LINE
8
BLACK
6
CONTINUOUS
10
0.15839
20
0.318914
11
0.171966
21
0.322826
0
LINE
8
BLACK
6
CONTINUOUS
10
0.171966
20
0.322826
11
0.185894
21
0.325192
0
LINE
8
BLACK
6
CONTINUOUS
10
0.185894
20
0.325192
11
0.2
21
0.325984
0
LINE
8
BLACK
6
CONTINUOUS
10
0.2
20
0.325984
11
0.214106
21
0.325192
0
LINE
8
BLACK
6
CONTINUOUS
10
1.41411
20
0.325192
11
1.42803
21
0.322826
0
LINE
8
BLACK
6
CONTINUOUS
10
1.42803
20
0.322826
11
1.44161
21
0.318914
0
LINE
8
BLACK
6
CONTINUOUS
10
1.44161
20
0.318914
11
1.45466
21
0.313508
0
LINE
8
BLACK
6
CONTINUOUS
10
1.45466
20
0.313508
11
1.46703
21
0.306674
0
LINE
8
BLACK
6
CONTINUOUS
10
1.46703
20
0.306674
11
1.47855
21
0.298498
0
LINE
8
BLACK
6
CONTINUOUS
10
1.47855
20
0.298498
11
1.48908
21
0.289084
0
LINE
8
BLACK
6
CONTINUOUS
10
1.48908
20
0.289084
11
1.4985
21
0.27855
0
LINE
8
BLACK
6
CONTINUOUS
10
1.4985
20
0.27855
11
1.50667
21
0.267028
0
LINE
8
BLACK
6
CONTINUOUS
10
1.50667
20
0.267028
11
1.51351
21
0.254663
0
LINE
8
BLACK
6
CONTINUOUS
10
1.51351
20
0.254663
11
1.51891
21
0.24161
0
LINE
8
BLACK
6
CONTINUOUS
10
1.51891
20
0.24161
11
1.52283
21
0.228034
0
LINE
8
BLACK
6
CONTINUOUS
10
1.52283
20
0.228034
11
1.52519
21
0.214106
0
LINE
8
BLACK
6
CONTINUOUS
10
1.52519
20
0.214106
11
1.52598
21
0.2
0
LINE
8
BLACK
6
CONTINUOUS
10
1.52598
20
0.2
11
1.52519
21
0.185894
0
LINE
8
BLACK
6
CONTINUOUS
10
1.52519
20
0.185894
11
1.52283
21
0.171966
0
LINE
8
BLACK
6
CONTINUOUS
10
1.52283
20
0.171966
11
1.51891
21
0.15839
0
LINE
8
BLACK
6
CONTINUOUS
10
1.51891
20
0.15839
11
1.51351
21
0.145337
0
LINE
8
BLACK
6
CONTINUOUS
10
1.51351
20
0.145337
11
1.50667
21
0.132972
0
LINE
8
BLACK
6
CONTINUOUS
10
1.50667
20
0.132972
11
1.4985
21
0.12145
0
LINE
8
BLACK
6
CONTINUOUS
10
1.4985
20
0.12145
11
1.48908
21
0.110916
0
LINE
8
BLACK
6
CONTINUOUS
10
1.48908
20
0.110916
11
1.47855
21
0.101502
0
LINE
8
BLACK
6
CONTINUOUS
10
1.47855
20
0.101502
11
1.46703
21
0.0933261
0
LINE
8
BLACK
6
CONTINUOUS
10
1.46703
20
0.0933261
11
1.45466
21
0.0864921
0
LINE
8
BLACK
6
CONTINUOUS
10
1.45466
20
0.0864921
11
1.44161
21
0.0810856
0
LINE
8
BLACK
6
CONTINUOUS
10
1.44161
20
0.0810856
11
1.42803
21
0.0771744
0
LINE
8
BLACK
6
CONTINUOUS
10
1.42803
20
0.0771744
11
1.41411
21
0.0748079
0
LINE
8
BLACK
6
CONTINUOUS
10
1.41411
20
0.0748079
11
1.4
21
0.0740157
0
LINE
8
BLACK
6
CONTINUOUS
10
1.4
20
0.0740157
11
1.38589
21
0.0748079
0
LINE
8
BLACK
6
CONTINUOUS
10
1.38589
20
0.0748079
11
1.37197
21
0.0771744
0
LINE
8
BLACK
6
CONTINUOUS
10
1.37197
20
0.0771744
11
1.35839
21
0.0810856
0
LINE
8
BLACK
6
CONTINUOUS
10
1.35839
20
0.0810856
11
1.34534
21
0.0864921
0
LINE
8
BLACK
6
CONTINUOUS
10
1.34534
20
0.0864921
11
1.33297
21
0.0933261
0
LINE
8
BLACK
6
CONTINUOUS
10
1.33297
20
0.0933261
11
1.32145
21
0.101502
0
LINE
8
BLACK
6
CONTINUOUS
10
1.32145
20
0.101502
11
1.31092
21
0.110916
0
LINE
8
BLACK
6
CONTINUOUS
10
1.31092
20
0.110916
11
1.3015
21
0.12145
0
LINE
8
BLACK
6
CONTINUOUS
10
1.3015
20
0.12145
11
1.29333
21
0.132972
0
LINE
8
BLACK
6
CONTINUOUS
10
1.29333
20
0.132972
11
1.28649
21
0.145337
0
LINE
8
BLACK
6
CONTINUOUS
10
1.28649
20
0.145337
11
1.28109
21
0.15839
0
LINE
8
BLACK
6
CONTINUOUS
10
1.28109
20
0.15839
11
1.27717
21
0.171966
0
LINE
8
BLACK
6
CONTINUOUS
10
1.27717
20
0.171966
11
1.27481
21
0.185894
0
LINE
8
BLACK
6
CONTINUOUS
10
1.27481
20
0.185894
11
1.27402
21
0.2
0
LINE
8
BLACK
6
CONTINUOUS
10
1.27402
20
0.2
11
1.27481
21
0.214106
0
LINE
8
BLACK
6
CONTINUOUS
10
1.27481
20
0.214106
11
1.27717
21
0.228034
0
LINE
8
BLACK
6
CONTINUOUS
10
1.27717
20
0.228034
11
1.28109
21
0.24161
0
LINE
8
BLACK
6
CONTINUOUS
10
1.28109
20
0.24161
11
1.28649
21
0.254663
0
LINE
8
BLACK
6
CONTINUOUS
10
1.28649
20
0.254663
11
1.29333
21
0.267028
0
LINE
8
BLACK
6
CONTINUOUS
10
1.29333
20
0.267028
11
1.3015
21
0.27855
0
LINE
8
BLACK
6
CONTINUOUS
10
1.3015
20
0.27855
11
1.31092
21
0.289084
0
LINE
8
BLACK
6
CONTINUOUS
10
1.31092
20
0.289084
11
1.32145
21
0.298498
0
LINE
8
BLACK
6
CONTINUOUS
10
1.32145
20
0.298498
11
1.33297
21
0.306674
0
LINE
8
BLACK
6
CONTINUOUS
10
1.33297
20
0.306674
11
1.34534
21
0.313508
0
LINE
8
BLACK
6
CONTINUOUS
10
1.34534
20
0.313508
11
1.35839
21
0.318914
0
LINE
8
BLACK
6
CONTINUOUS
10
1.35839
20
0.318914
11
1.37197
21
0.322826
0
LINE
8
BLACK
6
CONTINUOUS
10
1.37197
20
0.322826
11
1.38589
21
0.325192
0
LINE
8
BLACK
6
CONTINUOUS
10
1.38589
20
0.325192
11
1.4
21
0.325984
0
LINE
8
BLACK
6
CONTINUOUS
10
1.4
20
0.325984
11
1.41411
21
0.325192
0
LINE
8
BLACK
6
CONTINUOUS
10
0.973013
20
0.407275
11
0.975568
21
0.405568
0
LINE
8
BLACK
6
CONTINUOUS
10
0.975568
20
0.405568
11
0.977275
21
0.403013
0
LINE
8
BLACK
6
CONTINUOUS
10
0.977275
20
0.403013
11
0.977874
21
0.4
0
LINE
8
BLACK
6
CONTINUOUS
10
0.977874
20
0.4
11
0.977874
21
0.34
0
LINE
8
BLACK
6
CONTINUOUS
10
0.977874
20
0.34
11
0.977275
21
0.336987
0
LINE
8
BLACK
6
CONTINUOUS
10
0.977275
20
0.336987
11
0.975568
21
0.334432
0
LINE
8
BLACK
6
CONTINUOUS
10
0.975568
20
0.334432
11
0.973013
21
0.332725
0
LINE
8
BLACK
6
CONTINUOUS
10
0.973013
20
0.332725
11
0.97
21
0.332126
0
LINE
8
BLACK
6
CONTINUOUS
10
0.97
20
0.332126
11
0.91
21
0.332126
0
LINE
8
BLACK
6
CONTINUOUS
10
0.91
20
0.332126
11
0.906987
21
0.332725
0
LINE
8
BLACK
6
CONTINUOUS
10
0.906987
20
0.332725
11
0.904432
21
0.334432
0
LINE
8
BLACK
6
CONTINUOUS
10
0.904432
20
0.334432
11
0.902725
21
0.336987
0
LINE
8
BLACK
6
CONTINUOUS
10
0.902725
20
0.336987
11
0.902126
21
0.34
0
LINE
8
BLACK
6
CONTINUOUS
10
0.902126
20
0.34
11
0.902126
21
0.4
0
LINE
8
BLACK
6
CONTINUOUS
10
0.902126
20
0.4
11
0.902725
21
0.403013
0
LINE
8
BLACK
6
CONTINUOUS
10
0.902725
20
0.403013
11
0.904432
21
0.405568
0
LINE
8
BLACK
6
CONTINUOUS
10
0.904432
20
0.405568
11
0.906987
21
0.407275
0
LINE
8
BLACK
6
CONTINUOUS
10
0.906987
20
0.407275
11
0.91
21
0.407874
0
LINE
8
BLACK
6
CONTINUOUS
10
0.91
20
0.407874
11
0.97
21
0.407874
0
LINE
8
BLACK
6
CONTINUOUS
10
0.97
20
0.407874
11
0.973013
21
0.407275
0
LINE
8
BLACK
6
CONTINUOUS
10
1.07301
20
0.407275
11
1.07557
21
0.405568
0
LINE
8
BLACK
6
CONTINUOUS
10
1.07557
20
0.405568
11
1.07727
21
0.403013
0
LINE
8
BLACK
6
CONTINUOUS
10
1.07727
20
0.403013
11
1.07787
21
0.4
0
LINE
8
BLACK
6
CONTINUOUS
10
1.07787
20
0.4
11
1.07787
21
0.34
0
LINE
8
BLACK
6
CONTINUOUS
10
1.07787
20
0.34
11
1.07727
21
0.336987
0
LINE
8
BLACK
6
CONTINUOUS
10
1.07727
20
0.336987
11
1.07557
21
0.334432
0
LINE
8
BLACK
6
CONTINUOUS
10
1.07557
20
0.334432
11
1.07301
21
0.332725
0
LINE
8
BLACK
6
CONTINUOUS
10
1.07301
20
0.332725
11
1.07
21
0.332126
0
LINE
8
BLACK
6
CONTINUOUS
10
1.07
20
0.332126
11
1.01
21
0.332126
0
LINE
8
BLACK
6
CONTINUOUS
10
1.01
20
0.332126
11
1.00699
21
0.332725
0
LINE
8
BLACK
6
CONTINUOUS
10
1.00699
20
0.332725
11
1.00443
21
0.334432
0
LINE
8
BLACK
6
CONTINUOUS
10
1.00443
20
0.334432
11
1.00273
21
0.336987
0
LINE
8
BLACK
6
CONTINUOUS
10
1.00273
20
0.336987
11
1.00213
21
0.34
0
LINE
8
BLACK
6
CONTINUOUS
10
1.00213
20
0.34
11
1.00213
21
0.4
0
LINE
8
BLACK
6
CONTINUOUS
10
1.00213
20
0.4
11
1.00273
21
0.403013
0
LINE
8
BLACK
6
CONTINUOUS
10
1.00273
20
0.403013
11
1.00443
21
0.405568
0
LINE
8
BLACK
6
CONTINUOUS
10
1.00443
20
0.405568
11
1.00699
21
0.407275
0
LINE
8
BLACK
6
CONTINUOUS
10
1.00699
20
0.407275
11
1.01
21
0.407874
0
LINE
8
BLACK
6
CONTINUOUS
10
1.01
20
0.407874
11
1.07
21
0.407874
0
LINE
8
BLACK
6
CONTINUOUS
10
1.07
20
0.407874
11
1.07301
21
0.407275
0
LINE
8
BLACK
6
CONTINUOUS
10
0.183013
20
0.467275
11
0.185568
21
0.465568
0
LINE
8
BLACK
6
CONTINUOUS
10
0.185568
20
0.465568
11
0.187275
21
0.463013
0
LINE
8
BLACK
6
CONTINUOUS
10
0.187275
20
0.463013
11
0.187874
21
0.46
0
LINE
8
BLACK
6
CONTINUOUS
10
0.187874
20
0.46
11
0.187874
21
0.4
0
LINE
8
BLACK
6
CONTINUOUS
10
0.187874
20
0.4
11
0.187275
21
0.396987
0
LINE
8
BLACK
6
CONTINUOUS
10
0.187275
20
0.396987
11
0.185568
21
0.394432
0
LINE
8
BLACK
6
CONTINUOUS
10
0.185568
20
0.394432
11
0.183013
21
0.392725
0
LINE
8
BLACK
6
CONTINUOUS
10
0.183013
20
0.392725
11
0.18
21
0.392126
0
LINE
8
BLACK
6
CONTINUOUS
10
0.18
20
0.392126
11
0.12
21
0.392126
0
LINE
8
BLACK
6
CONTINUOUS
10
0.12
20
0.392126
11
0.116987
21
0.392725
0
LINE
8
BLACK
6
CONTINUOUS
10
0.116987
20
0.392725
11
0.114432
21
0.394432
0
LINE
8
BLACK
6
CONTINUOUS
10
0.114432
20
0.394432
11
0.112725
21
0.396987
0
LINE
8
BLACK
6
CONTINUOUS
10
0.112725
20
0.396987
11
0.112126
21
0.4
0
LINE
8
BLACK
6
CONTINUOUS
10
0.112126
20
0.4
11
0.112126
21
0.46
0
LINE
8
BLACK
6
CONTINUOUS
10
0.112126
20
0.46
11
0.112725
21
0.463013
0
LINE
8
BLACK
6
CONTINUOUS
10
0.112725
20
0.463013
11
0.114432
21
0.465568
0
LINE
8
BLACK
6
CONTINUOUS
10
0.114432
20
0.465568
11
0.116987
21
0.467275
0
LINE
8
BLACK
6
CONTINUOUS
10
0.116987
20
0.467275
11
0.12
21
0.467874
0
LINE
8
BLACK
6
CONTINUOUS
10
0.12
20
0.467874
11
0.18
21
0.467874
0
LINE
8
BLACK
6
CONTINUOUS
10
0.18
20
0.467874
11
0.183013
21
0.467275
0
LINE
8
BLACK
6
CONTINUOUS
10
0.283013
20
0.467275
11
0.285568
21
0.465568
0
LINE
8
BLACK
6
CONTINUOUS
10
0.285568
20
0.465568
11
0.287275
21
0.463013
0
LINE
8
BLACK
6
CONTINUOUS
10
0.287275
20
0.463013
11
0.287874
21
0.46
0
LINE
8
BLACK
6
CONTINUOUS
10
0.287874
20
0.46
11
0.287874
21
0.4
0
LINE
8
BLACK
6
CONTINUOUS
10
0.287874
20
0.4
11
0.287275
21
0.396987
0
LINE
8
BLACK
6
CONTINUOUS
10
0.287275
20
0.396987
11
0.285568
21
0.394432
0
LINE
8
BLACK
6
CONTINUOUS
10
0.285568
20
0.394432
11
0.283013
21
0.392725
0
LINE
8
BLACK
6
CONTINUOUS
10
0.283013
20
0.392725
11
0.28
21
0.392126
0
LINE
8
BLACK
6
CONTINUOUS
10
0.28
20
0.392126
11
0.22
21
0.392126
0
LINE
8
BLACK
6
CONTINUOUS
10
0.22
20
0.392126
11
0.216987
21
0.392725
0
LINE
8
BLACK
6
CONTINUOUS
10
0.216987
20
0.392725
11
0.214432
21
0.394432
0
LINE
8
BLACK
6
CONTINUOUS
10
0.214432
20
0.394432
11
0.212725
21
0.396987
0
LINE
8
BLACK
6
CONTINUOUS
10
0.212725
20
0.396987
11
0.212126
21
0.4
0
LINE
8
BLACK
6
CONTINUOUS
10
0.212126
20
0.4
11
0.212126
21
0.46
0
LINE
8
BLACK
6
CONTINUOUS
10
0.212126
20
0.46
11
0.212725
21
0.463013
0
LINE
8
BLACK
6
CONTINUOUS
10
0.212725
20
0.463013
11
0.214432
21
0.465568
0
LINE
8
BLACK
6
CONTINUOUS
10
0.214432
20
0.465568
11
0.216987
21
0.467275
0
LINE
8
BLACK
6
CONTINUOUS
10
0.216987
20
0.467275
11
0.22
21
0.467874
0
LINE
8
BLACK
6
CONTINUOUS
10
0.22
20
0.467874
11
0.28
21
0.467874
0
LINE
8
BLACK
6
CONTINUOUS
10
0.28
20
0.467874
11
0.283013
21
0.467275
0
LINE
8
BLACK
6
CONTINUOUS
10
1.42301
20
0.467275
11
1.42557
21
0.465568
0
LINE
8
BLACK
6
CONTINUOUS
10
1.42557
20
0.465568
11
1.42727
21
0.463013
0
LINE
8
BLACK
6
CONTINUOUS
10
1.42727
20
0.463013
11
1.42787
21
0.46
0
LINE
8
BLACK
6
CONTINUOUS
10
1.42787
20
0.46
11
1.42787
21
0.4
0
LINE
8
BLACK
6
CONTINUOUS
10
1.42787
20
0.4
11
1.42727
21
0.396987
0
LINE
8
BLACK
6
CONTINUOUS
10
1.42727
20
0.396987
11
1.42557
21
0.394432
0
LINE
8
BLACK
6
CONTINUOUS
10
1.42557
20
0.394432
11
1.42301
21
0.392725
0
LINE
8
BLACK
6
CONTINUOUS
10
1.42301
20
0.392725
11
1.42
21
0.392126
0
LINE
8
BLACK
6
CONTINUOUS
10
1.42
20
0.392126
11
1.36
21
0.392126
0
LINE
8
BLACK
6
CONTINUOUS
10
1.36
20
0.392126
11
1.35699
21
0.392725
0
LINE
8
BLACK
6
CONTINUOUS
10
1.35699
20
0.392725
11
1.35443
21
0.394432
0
LINE
8
BLACK
6
CONTINUOUS
10
1.35443
20
0.394432
11
1.35273
21
0.396987
0
LINE
8
BLACK
6
CONTINUOUS
10
1.35273
20
0.396987
11
1.35213
21
0.4
0
LINE
8
BLACK
6
CONTINUOUS
10
1.35213
20
0.4
11
1.35213
21
0.46
0
LINE
8
BLACK
6
CONTINUOUS
10
1.35213
20
0.46
11
1.35273
21
0.463013
0
LINE
8
BLACK
6
CONTINUOUS
10
1.35273
20
0.463013
11
1.35443
21
0.465568
0
LINE
8
BLACK
6
CONTINUOUS
10
1.35443
20
0.465568
11
1.35699
21
0.467275
0
LINE
8
BLACK
6
CONTINUOUS
10
1.35699
20
0.467275
11
1.36
21
0.467874
0
LINE
8
BLACK
6
CONTINUOUS
10
1.36
20
0.467874
11
1.42
21
0.467874
0
LINE
8
BLACK
6
CONTINUOUS
10
1.42
20
0.467874
11
1.42301
21
0.467275
0
LINE
8
BLACK
6
CONTINUOUS
10
1.52301
20
0.467275
11
1.52557
21
0.465568
0
LINE
8
BLACK
6
CONTINUOUS
10
1.52557
20
0.465568
11
1.52727
21
0.463013
0
LINE
8
BLACK
6
CONTINUOUS
10
1.52727
20
0.463013
11
1.52787
21
0.46
0
LINE
8
BLACK
6
CONTINUOUS
10
1.52787
20
0.46
11
1.52787
21
0.4
0
LINE
8
BLACK
6
CONTINUOUS
10
1.52787
20
0.4
11
1.52727
21
0.396987
0
LINE
8
BLACK
6
CONTINUOUS
10
1.52727
20
0.396987
11
1.52557
21
0.394432
0
LINE
8
BLACK
6
CONTINUOUS
10
1.52557
20
0.394432
11
1.52301
21
0.392725
0
LINE
8
BLACK
6
CONTINUOUS
10
1.52301
20
0.392725
11
1.52
21
0.392126
0
LINE
8
BLACK
6
CONTINUOUS
10
1.52
20
0.392126
11
1.46
21
0.392126
0
LINE
8
BLACK
6
CONTINUOUS
10
1.46
20
0.392126
11
1.45699
21
0.392725
0
LINE
8
BLACK
6
CONTINUOUS
10
1.45699
20
0.392725
11
1.45443
21
0.394432
0
LINE
8
BLACK
6
CONTINUOUS
10
1.45443
20
0.394432
11
1.45273
21
0.396987
0
LINE
8
BLACK
6
CONTINUOUS
10
1.45273
20
0.396987
11
1.45213
21
0.4
0
LINE
8
BLACK
6
CONTINUOUS
10
1.45213
20
0.4
11
1.45213
21
0.46
0
LINE
8
BLACK
6
CONTINUOUS
10
1.45213
20
0.46
11
1.45273
21
0.463013
0
LINE
8
BLACK
6
CONTINUOUS
10
1.45273
20
0.463013
11
1.45443
21
0.465568
0
LINE
8
BLACK
6
CONTINUOUS
10
1.45443
20
0.465568
11
1.45699
21
0.467275
0
LINE
8
BLACK
6
CONTINUOUS
10
1.45699
20
0.467275
11
1.46
21
0.467874
0
LINE
8
BLACK
6
CONTINUOUS
10
1.46
20
0.467874
11
1.52
21
0.467874
0
LINE
8
BLACK
6
CONTINUOUS
10
1.52
20
0.467874
11
1.52301
21
0.467275
0
LINE
8
BLACK
6
CONTINUOUS
10
0.973013
20
0.507275
11
0.975568
21
0.505568
0
LINE
8
BLACK
6
CONTINUOUS
10
0.975568
20
0.505568
11
0.977275
21
0.503013
0
LINE
8
BLACK
6
CONTINUOUS
10
0.977275
20
0.503013
11
0.977874
21
0.5
0
LINE
8
BLACK
6
CONTINUOUS
10
0.977874
20
0.5
11
0.977874
21
0.44
0
LINE
8
BLACK
6
CONTINUOUS
10
0.977874
20
0.44
11
0.977275
21
0.436987
0
LINE
8
BLACK
6
CONTINUOUS
10
0.977275
20
0.436987
11
0.975568
21
0.434432
0
LINE
8
BLACK
6
CONTINUOUS
10
0.975568
20
0.434432
11
0.973013
21
0.432725
0
LINE
8
BLACK
6
CONTINUOUS
10
0.973013
20
0.432725
11
0.97
21
0.432126
0
LINE
8
BLACK
6
CONTINUOUS
10
0.97
20
0.432126
11
0.91
21
0.432126
0
LINE
8
BLACK
6
CONTINUOUS
10
0.91
20
0.432126
11
0.906987
21
0.432725
0
LINE
8
BLACK
6
CONTINUOUS
10
0.906987
20
0.432725
11
0.904432
21
0.434432
0
LINE
8
BLACK
6
CONTINUOUS
10
0.904432
20
0.434432
11
0.902725
21
0.436987
0
LINE
8
BLACK
6
CONTINUOUS
10
0.902725
20
0.436987
11
0.902126
21
0.44
0
LINE
8
BLACK
6
CONTINUOUS
10
0.902126
20
0.44
11
0.902126
21
0.5
0
LINE
8
BLACK
6
CONTINUOUS
10
0.902126
20
0.5
11
0.902725
21
0.503013
0
LINE
8
BLACK
6
CONTINUOUS
10
0.902725
20
0.503013
11
0.904432
21
0.505568
0
LINE
8
BLACK
6
CONTINUOUS
10
0.904432
20
0.505568
11
0.906987
21
0.507275
0
LINE
8
BLACK
6
CONTINUOUS
10
0.906987
20
0.507275
11
0.91
21
0.507874
0
LINE
8
BLACK
6
CONTINUOUS
10
0.91
20
0.507874
11
0.97
21
0.507874
0
LINE
8
BLACK
6
CONTINUOUS
10
0.97
20
0.507874
11
0.973013
21
0.507275
0
LINE
8
BLACK
6
CONTINUOUS
10
1.07301
20
0.507275
11
1.07557
21
0.505568
0
LINE
8
BLACK
6
CONTINUOUS
10
1.07557
20
0.505568
11
1.07727
21
0.503013
0
LINE
8
BLACK
6
CONTINUOUS
10
1.07727
20
0.503013
11
1.07787
21
0.5
0
LINE
8
BLACK
6
CONTINUOUS
10
1.07787
20
0.5
11
1.07787
21
0.44
0
LINE
8
BLACK
6
CONTINUOUS
10
1.07787
20
0.44
11
1.07727
21
0.436987
0
LINE
8
BLACK
6
CONTINUOUS
10
1.07727
20
0.436987
11
1.07557
21
0.434432
0
LINE
8
BLACK
6
CONTINUOUS
10
1.07557
20
0.434432
11
1.07301
21
0.432725
0
LINE
8
BLACK
6
CONTINUOUS
10
1.07301
20
0.432725
11
1.07
21
0.432126
0
LINE
8
BLACK
6
CONTINUOUS
10
1.07
20
0.432126
11
1.01
21
0.432126
0
LINE
8
BLACK
6
CONTINUOUS
10
1.01
20
0.432126
11
1.00699
21
0.432725
0
LINE
8
BLACK
6
CONTINUOUS
10
1.00699
20
0.432725
11
1.00443
21
0.434432
0
LINE
8
BLACK
6
CONTINUOUS
10
1.00443
20
0.434432
11
1.00273
21
0.436987
0
LINE
8
BLACK
6
CONTINUOUS
10
1.00273
20
0.436987
11
1.00213
21
0.44
0
LINE
8
BLACK
6
CONTINUOUS
10
1.00213
20
0.44
11
1.00213
21
0.5
0
LINE
8
BLACK
6
CONTINUOUS
10
1.00213
20
0.5
11
1.00273
21
0.503013
0
LINE
8
BLACK
6
CONTINUOUS
10
1.00273
20
0.503013
11
1.00443
21
0.505568
0
LINE
8
BLACK
6
CONTINUOUS
10
1.00443
20
0.505568
11
1.00699
21
0.507275
0
LINE
8
BLACK
6
CONTINUOUS
10
1.00699
20
0.507275
11
1.01
21
0.507874
0
LINE
8
BLACK
6
CONTINUOUS
10
1.01
20
0.507874
11
1.07
21
0.507874
0
LINE
8
BLACK
6
CONTINUOUS
10
1.07
20
0.507874
11
1.07301
21
0.507275
0
LINE
8
BLACK
6
CONTINUOUS
10
0.183013
20
0.567275
11
0.185568
21
0.565568
0
LINE
8
BLACK
6
CONTINUOUS
10
0.185568
20
0.565568
11
0.187275
21
0.563013
0
LINE
8
BLACK
6
CONTINUOUS
10
0.187275
20
0.563013
11
0.187874
21
0.56
0
LINE
8
BLACK
6
CONTINUOUS
10
0.187874
20
0.56
11
0.187874
21
0.5
0
LINE
8
BLACK
6
CONTINUOUS
10
0.187874
20
0.5
11
0.187275
21
0.496987
0
LINE
8
BLACK
6
CONTINUOUS
10
0.187275
20
0.496987
11
0.185568
21
0.494432
0
LINE
8
BLACK
6
CONTINUOUS
10
0.185568
20
0.494432
11
0.183013
21
0.492725
0
LINE
8
BLACK
6
CONTINUOUS
10
0.183013
20
0.492725
11
0.18
21
0.492126
0
LINE
8
BLACK
6
CONTINUOUS
10
0.18
20
0.492126
11
0.12
21
0.492126
0
LINE
8
BLACK
6
CONTINUOUS
10
0.12
20
0.492126
11
0.116987
21
0.492725
0
LINE
8
BLACK
6
CONTINUOUS
10
0.116987
20
0.492725
11
0.114432
21
0.494432
0
LINE
8
BLACK
6
CONTINUOUS
10
0.114432
20
0.494432
11
0.112725
21
0.496987
0
LINE
8
BLACK
6
CONTINUOUS
10
0.112725
20
0.496987
11
0.112126
21
0.5
0
LINE
8
BLACK
6
CONTINUOUS
10
0.112126
20
0.5
11
0.112126
21
0.56
0
LINE
8
BLACK
6
CONTINUOUS
10
0.112126
20
0.56
11
0.112725
21
0.563013
0
LINE
8
BLACK
6
CONTINUOUS
10
0.112725
20
0.563013
11
0.114432
21
0.565568
0
LINE
8
BLACK
6
CONTINUOUS
10
0.114432
20
0.565568
11
0.116987
21
0.567275
0
LINE
8
BLACK
6
CONTINUOUS
10
0.116987
20
0.567275
11
0.12
21
0.567874
0
LINE
8
BLACK
6
CONTINUOUS
10
0.12
20
0.567874
11
0.18
21
0.567874
0
LINE
8
BLACK
6
CONTINUOUS
10
0.18
20
0.567874
11
0.183013
21
0.567275
0
LINE
8
BLACK
6
CONTINUOUS
10
0.283013
20
0.567275
11
0.285568
21
0.565568
0
LINE
8
BLACK
6
CONTINUOUS
10
0.285568
20
0.565568
11
0.287275
21
0.563013
0
LINE
8
BLACK
6
CONTINUOUS
10
0.287275
20
0.563013
11
0.287874
21
0.56
0
LINE
8
BLACK
6
CONTINUOUS
10
0.287874
20
0.56
11
0.287874
21
0.5
0
LINE
8
BLACK
6
CONTINUOUS
10
0.287874
20
0.5
11
0.287275
21
0.496987
0
LINE
8
BLACK
6
CONTINUOUS
10
0.287275
20
0.496987
11
0.285568
21
0.494432
0
LINE
8
BLACK
6
CONTINUOUS
10
0.285568
20
0.494432
11
0.283013
21
0.492725
0
LINE
8
BLACK
6
CONTINUOUS
10
0.283013
20
0.492725
11
0.28
21
0.492126
0
LINE
8
BLACK
6
CONTINUOUS
10
0.28
20
0.492126
11
0.22
21
0.492126
0
LINE
8
BLACK
6
CONTINUOUS
10
0.22
20
0.492126
11
0.216987
21
0.492725
0
LINE
8
BLACK
6
CONTINUOUS
10
0.216987
20
0.492725
11
0.214432
21
0.494432
0
LINE
8
BLACK
6
CONTINUOUS
10
0.214432
20
0.494432
11
0.212725
21
0.496987
0
LINE
8
BLACK
6
CONTINUOUS
10
0.212725
20
0.496987
11
0.212126
21
0.5
0
LINE
8
BLACK
6
CONTINUOUS
10
0.212126
20
0.5
11
0.212126
21
0.56
0
LINE
8
BLACK
6
CONTINUOUS
10
0.212126
20
0.56
11
0.212725
21
0.563013
0
LINE
8
BLACK
6
CONTINUOUS
10
0.212725
20
0.563013
11
0.214432
21
0.565568
0
LINE
8
BLACK
6
CONTINUOUS
10
0.214432
20
0.565568
11
0.216987
21
0.567275
0
LINE
8
BLACK
6
CONTINUOUS
10
0.216987
20
0.567275
11
0.22
21
0.567874
0
LINE
8
BLACK
6
CONTINUOUS
10
0.22
20
0.567874
11
0.28
21
0.567874
0
LINE
8
BLACK
6
CONTINUOUS
10
0.28
20
0.567874
11
0.283013
21
0.567275
0
LINE
8
BLACK
6
CONTINUOUS
10
1.42301
20
0.567275
11
1.42557
21
0.565568
0
LINE
8
BLACK
6
CONTINUOUS
10
1.42557
20
0.565568
11
1.42727
21
0.563013
0
LINE
8
BLACK
6
CONTINUOUS
10
1.42727
20
0.563013
11
1.42787
21
0.56
0
LINE
8
BLACK
6
CONTINUOUS
10
1.42787
20
0.56
11
1.42787
21
0.5
0
LINE
8
BLACK
6
CONTINUOUS
10
1.42787
20
0.5
11
1.42727
21
0.496987
0
LINE
8
BLACK
6
CONTINUOUS
10
1.42727
20
0.496987
11
1.42557
21
0.494432
0
LINE
8
BLACK
6
CONTINUOUS
10
1.42557
20
0.494432
11
1.42301
21
0.492725
0
LINE
8
BLACK
6
CONTINUOUS
10
1.42301
20
0.492725
11
1.42
21
0.492126
0
LINE
8
BLACK
6
CONTINUOUS
10
1.42
20
0.492126
11
1.36
21
0.492126
0
LINE
8
BLACK
6
CONTINUOUS
10
1.36
20
0.492126
11
1.35699
21
0.492725
0
LINE
8
BLACK
6
CONTINUOUS
10
1.35699
20
0.492725
11
1.35443
21
0.494432
0
LINE
8
BLACK
6
CONTINUOUS
10
1.35443
20
0.494432
11
1.35273
21
0.496987
0
LINE
8
BLACK
6
CONTINUOUS
10
1.35273
20
0.496987
11
1.35213
21
0.5
0
LINE
8
BLACK
6
CONTINUOUS
10
1.35213
20
0.5
11
1.35213
21
0.56
0
LINE
8
BLACK
6
CONTINUOUS
10
1.35213
20
0.56
11
1.35273
21
0.563013
0
LINE
8
BLACK
6
CONTINUOUS
10
1.35273
20
0.563013
11
1.35443
21
0.565568
0
LINE
8
BLACK
6
CONTINUOUS
10
1.35443
20
0.565568
11
1.35699
21
0.567275
0
LINE
8
BLACK
6
CONTINUOUS
10
1.35699
20
0.567275
11
1.36
21
0.567874
0
LINE
8
BLACK
6
CONTINUOUS
10
1.36
20
0.567874
11
1.42
21
0.567874
0
LINE
8
BLACK
6
CONTINUOUS
10
1.42
20
0.567874
11
1.42301
21
0.567275
0
LINE
8
BLACK
6
CONTINUOUS
10
1.52301
20
0.567275
11
1.52557
21
0.565568
0
LINE
8
BLACK
6
CONTINUOUS
10
1.52557
20
0.565568
11
1.52727
21
0.563013
0
LINE
8
BLACK
6
CONTINUOUS
10
1.52727
20
0.563013
11
1.52787
21
0.56
0
LINE
8
BLACK
6
CONTINUOUS
10
1.52787
20
0.56
11
1.52787
21
0.5
0
LINE
8
BLACK
6
CONTINUOUS
10
1.52787
20
0.5
11
1.52727
21
0.496987
0
LINE
8
BLACK
6
CONTINUOUS
10
1.52727
20
0.496987
11
1.52557
21
0.494432
0
LINE
8
BLACK
6
CONTINUOUS
10
1.52557
20
0.494432
11
1.52301
21
0.492725
0
LINE
8
BLACK
6
CONTINUOUS
10
1.52301
20
0.492725
11
1.52
21
0.492126
0
LINE
8
BLACK
6
CONTINUOUS
10
1.52
20
0.492126
11
1.46
21
0.492126
0
LINE
8
BLACK
6
CONTINUOUS
10
1.46
20
0.492126
11
1.45699
21
0.492725
0
LINE
8
BLACK
6
CONTINUOUS
10
1.45699
20
0.492725
11
1.45443
21
0.494432
0
LINE
8
BLACK
6
CONTINUOUS
10
1.45443
20
0.494432
11
1.45273
21
0.496987
0
LINE
8
BLACK
6
CONTINUOUS
10
1.45273
20
0.496987
11
1.45213
21
0.5
0
LINE
8
BLACK
6
CONTINUOUS
10
1.45213
20
0.5
11
1.45213
21
0.56
0
LINE
8
BLACK
6
CONTINUOUS
10
1.45213
20
0.56
11
1.45273
21
0.563013
0
LINE
8
BLACK
6
CONTINUOUS
10
1.45273
20
0.563013
11
1.45443
21
0.565568
0
LINE
8
BLACK
6
CONTINUOUS
10
1.45443
20
0.565568
11
1.45699
21
0.567275
0
LINE
8
BLACK
6
CONTINUOUS
10
1.45699
20
0.567275
11
1.46
21
0.567874
0
LINE
8
BLACK
6
CONTINUOUS
10
1.46
20
0.567874
11
1.52
21
0.567874
0
LINE
8
BLACK
6
CONTINUOUS
10
1.52
20
0.567874
11
1.52301
21
0.567275
0
LINE
8
BLACK
6
CONTINUOUS
10
0.183013
20
0.667275
11
0.185568
21
0.665568
0
LINE
8
BLACK
6
CONTINUOUS
10
0.185568
20
0.665568
11
0.187275
21
0.663013
0
LINE
8
BLACK
6
CONTINUOUS
10
0.187275
20
0.663013
11
0.187874
21
0.66
0
LINE
8
BLACK
6
CONTINUOUS
10
0.187874
20
0.66
11
0.187874
21
0.6
0
LINE
8
BLACK
6
CONTINUOUS
10
0.187874
20
0.6
11
0.187275
21
0.596987
0
LINE
8
BLACK
6
CONTINUOUS
10
0.187275
20
0.596987
11
0.185568
21
0.594432
0
LINE
8
BLACK
6
CONTINUOUS
10
0.185568
20
0.594432
11
0.183013
21
0.592725
0
LINE
8
BLACK
6
CONTINUOUS
10
0.183013
20
0.592725
11
0.18
21
0.592126
0
LINE
8
BLACK
6
CONTINUOUS
10
0.18
20
0.592126
11
0.12
21
0.592126
0
LINE
8
BLACK
6
CONTINUOUS
10
0.12
20
0.592126
11
0.116987
21
0.592725
0
LINE
8
BLACK
6
CONTINUOUS
10
0.116987
20
0.592725
11
0.114432
21
0.594432
0
LINE
8
BLACK
6
CONTINUOUS
10
0.114432
20
0.594432
11
0.112725
21
0.596987
0
LINE
8
BLACK
6
CONTINUOUS
10
0.112725
20
0.596987
11
0.112126
21
0.6
0
LINE
8
BLACK
6
CONTINUOUS
10
0.112126
20
0.6
11
0.112126
21
0.66
0
LINE
8
BLACK
6
CONTINUOUS
10
0.112126
20
0.66
11
0.112725
21
0.663013
0
LINE
8
BLACK
6
CONTINUOUS
10
0.112725
20
0.663013
11
0.114432
21
0.665568
0
LINE
8
BLACK
6
CONTINUOUS
10
0.114432
20
0.665568
11
0.116987
21
0.667275
0
LINE
8
BLACK
6
CONTINUOUS
10
0.116987
20
0.667275
11
0.12
21
0.667874
0
LINE
8
BLACK
6
CONTINUOUS
10
0.12
20
0.667874
11
0.18
21
0.667874
0
LINE
8
BLACK
6
CONTINUOUS
10
0.18
20
0.667874
11
0.183013
21
0.667275
0
LINE
8
BLACK
6
CONTINUOUS
10
0.283013
20
0.667275
11
0.285568
21
0.665568
0
LINE
8
BLACK
6
CONTINUOUS
10
0.285568
20
0.665568
11
0.287275
21
0.663013
0
LINE
8
BLACK
6
CONTINUOUS
10
0.287275
20
0.663013
11
0.287874
21
0.66
0
LINE
8
BLACK
6
CONTINUOUS
10
0.287874
20
0.66
11
0.287874
21
0.6
0
LINE
8
BLACK
6
CONTINUOUS
10
0.287874
20
0.6
11
0.287275
21
0.596987
0
LINE
8
BLACK
6
CONTINUOUS
10
0.287275
20
0.596987
11
0.285568
21
0.594432
0
LINE
8
BLACK
6
CONTINUOUS
10
0.285568
20
0.594432
11
0.283013
21
0.592725
0
LINE
8
BLACK
6
CONTINUOUS
10
0.283013
20
0.592725
11
0.28
21
0.592126
0
LINE
8
BLACK
6
CONTINUOUS
10
0.28
20
0.592126
11
0.22
21
0.592126
0
LINE
8
BLACK
6
CONTINUOUS
10
0.22
20
0.592126
11
0.216987
21
0.592725
0
LINE
8
BLACK
6
CONTINUOUS
10
0.216987
20
0.592725
11
0.214432
21
0.594432
0
LINE
8
BLACK
6
CONTINUOUS
10
0.214432
20
0.594432
11
0.212725
21
0.596987
0
LINE
8
BLACK
6
CONTINUOUS
10
0.212725
20
0.596987
11
0.212126
21
0.6
0
LINE
8
BLACK
6
CONTINUOUS
10
0.212126
20
0.6
11
0.212126
21
0.66
0
LINE
8
BLACK
6
CONTINUOUS
10
0.212126
20
0.66
11
0.212725
21
0.663013
0
LINE
8
BLACK
6
CONTINUOUS
10
0.212725
20
0.663013
11
0.214432
21
0.665568
0
LINE
8
BLACK
6
CONTINUOUS
10
0.214432
20
0.665568
11
0.216987
21
0.667275
0
LINE
8
BLACK
6
CONTINUOUS
10
0.216987
20
0.667275
11
0.22
21
0.667874
0
LINE
8
BLACK
6
CONTINUOUS
10
0.22
20
0.667874
11
0.28
21
0.667874
0
LINE
8
BLACK
6
CONTINUOUS
10
0.28
20
0.667874
11
0.283013
21
0.667275
0
LINE
8
BLACK
6
CONTINUOUS
10
1.42301
20
0.667275
11
1.42557
21
0.665568
0
LINE
8
BLACK
6
CONTINUOUS
10
1.42557
20
0.665568
11
1.42727
21
0.663013
0
LINE
8
BLACK
6
CONTINUOUS
10
1.42727
20
0.663013
11
1.42787
21
0.66
0
LINE
8
BLACK
6
CONTINUOUS
10
1.42787
20
0.66
11
1.42787
21
0.6
0
LINE
8
BLACK
6
CONTINUOUS
10
1.42787
20
0.6
11
1.42727
21
0.596987
0
LINE
8
BLACK
6
CONTINUOUS
10
1.42727
20
0.596987
11
1.42557
21
0.594432
0
LINE
8
BLACK
6
CONTINUOUS
10
1.42557
20
0.594432
11
1.42301
21
0.592725
0
LINE
8
BLACK
6
CONTINUOUS
10
1.42301
20
0.592725
11
1.42
21
0.592126
0
LINE
8
BLACK
6
CONTINUOUS
10
1.42
20
0.592126
11
1.36
21
0.592126
0
LINE
8
BLACK
6
CONTINUOUS
10
1.36
20
0.592126
11
1.35699
21
0.592725
0
LINE
8
BLACK
6
CONTINUOUS
10
1.35699
20
0.592725
11
1.35443
21
0.594432
0
LINE
8
BLACK
6
CONTINUOUS
10
1.35443
20
0.594432
11
1.35273
21
0.596987
0
LINE
8
BLACK
6
CONTINUOUS
10
1.35273
20
0.596987
11
1.35213
21
0.6
0
LINE
8
BLACK
6
CONTINUOUS
10
1.35213
20
0.6
11
1.35213
21
0.66
0
LINE
8
BLACK
6
CONTINUOUS
10
1.35213
20
0.66
11
1.35273
21
0.663013
0
LINE
8
BLACK
6
CONTINUOUS
10
1.35273
20
0.663013
11
1.35443
21
0.665568
0
LINE
8
BLACK
6
CONTINUOUS
10
1.35443
20
0.665568
11
1.35699
21
0.667275
0
LINE
8
BLACK
6
CONTINUOUS
10
1.35699
20
0.667275
11
1.36
21
0.667874
0
LINE
8
BLACK
6
CONTINUOUS
10
1.36
20
0.667874
11
1.42
21
0.667874
0
LINE
8
BLACK
6
CONTINUOUS
10
1.42
20
0.667874
11
1.42301
21
0.667275
0
LINE
8
BLACK
6
CONTINUOUS
10
1.52301
20
0.667275
11
1.52557
21
0.665568
0
LINE
8
BLACK
6
CONTINUOUS
10
1.52557
20
0.665568
11
1.52727
21
0.663013
0
LINE
8
BLACK
6
CONTINUOUS
10
1.52727
20
0.663013
11
1.52787
21
0.66
0
LINE
8
BLACK
6
CONTINUOUS
10
1.52787
20
0.66
11
1.52787
21
0.6
0
LINE
8
BLACK
6
CONTINUOUS
10
1.52787
20
0.6
11
1.52727
21
0.596987
0
LINE
8
BLACK
6
CONTINUOUS
10
1.52727
20
0.596987
11
1.52557
21
0.594432
0
LINE
8
BLACK
6
CONTINUOUS
10
1.52557
20
0.594432
11
1.52301
21
0.592725
0
LINE
8
BLACK
6
CONTINUOUS
10
1.52301
20
0.592725
11
1.52
21
0.592126
0
LINE
8
BLACK
6
CONTINUOUS
10
1.52
20
0.592126
11
1.46
21
0.592126
0
LINE
8
BLACK
6
CONTINUOUS
10
1.46
20
0.592126
11
1.45699
21
0.592725
0
LINE
8
BLACK
6
CONTINUOUS
10
1.45699
20
0.592725
11
1.45443
21
0.594432
0
LINE
8
BLACK
6
CONTINUOUS
10
1.45443
20
0.594432
11
1.45273
21
0.596987
0
LINE
8
BLACK
6
CONTINUOUS
10
1.45273
20
0.596987
11
1.45213
21
0.6
0
LINE
8
BLACK
6
CONTINUOUS
10
1.45213
20
0.6
11
1.45213
21
0.66
0
LINE
8
BLACK
6
CONTINUOUS
10
1.45213
20
0.66
11
1.45273
21
0.663013
0
LINE
8
BLACK
6
CONTINUOUS
10
1.45273
20
0.663013
11
1.45443
21
0.665568
0
LINE
8
BLACK
6
CONTINUOUS
10
1.45443
20
0.665568
11
1.45699
21
0.667275
0
LINE
8
BLACK
6
CONTINUOUS
10
1.45699
20
0.667275
11
1.46
21
0.667874
0
LINE
8
BLACK
6
CONTINUOUS
10
1.46
20
0.667874
11
1.52
21
0.667874
0
LINE
8
BLACK
6
CONTINUOUS
10
1.52
20
0.667874
11
1.52301
21
0.667275
0
LINE
8
BLACK
6
CONTINUOUS
10
0.183013
20
0.767275
11
0.185568
21
0.765568
0
LINE
8
BLACK
6
CONTINUOUS
10
0.185568
20
0.765568
11
0.187275
21
0.763013
0
LINE
8
BLACK
6
CONTINUOUS
10
0.187275
20
0.763013
11
0.187874
21
0.76
0
LINE
8
BLACK
6
CONTINUOUS
10
0.187874
20
0.76
11
0.187874
21
0.7
0
LINE
8
BLACK
6
CONTINUOUS
10
0.187874
20
0.7
11
0.187275
21
0.696987
0
LINE
8
BLACK
6
CONTINUOUS
10
0.187275
20
0.696987
11
0.185568
21
0.694432
0
LINE
8
BLACK
6
CONTINUOUS
10
0.185568
20
0.694432
11
0.183013
21
0.692725
0
LINE
8
BLACK
6
CONTINUOUS
10
0.183013
20
0.692725
11
0.18
21
0.692126
0
LINE
8
BLACK
6
CONTINUOUS
10
0.18
20
0.692126
11
0.12
21
0.692126
0
LINE
8
BLACK
6
CONTINUOUS
10
0.12
20
0.692126
11
0.116987
21
0.692725
0
LINE
8
BLACK
6
CONTINUOUS
10
0.116987
20
0.692725
11
0.114432
21
0.694432
0
LINE
8
BLACK
6
CONTINUOUS
10
0.114432
20
0.694432
11
0.112725
21
0.696987
0
LINE
8
BLACK
6
CONTINUOUS
10
0.112725
20
0.696987
11
0.112126
21
0.7
0
LINE
8
BLACK
6
CONTINUOUS
10
0.112126
20
0.7
11
0.112126
21
0.76
0
LINE
8
BLACK
6
CONTINUOUS
10
0.112126
20
0.76
11
0.112725
21
0.763013
0
LINE
8
BLACK
6
CONTINUOUS
10
0.112725
20
0.763013
11
0.114432
21
0.765568
0
LINE
8
BLACK
6
CONTINUOUS
10
0.114432
20
0.765568
11
0.116987
21
0.767275
0
LINE
8
BLACK
6
CONTINUOUS
10
0.116987
20
0.767275
11
0.12
21
0.767874
0
LINE
8
BLACK
6
CONTINUOUS
10
0.12
20
0.767874
11
0.18
21
0.767874
0
LINE
8
BLACK
6
CONTINUOUS
10
0.18
20
0.767874
11
0.183013
21
0.767275
0
LINE
8
BLACK
6
CONTINUOUS
10
0.283013
20
0.767275
11
0.285568
21
0.765568
0
LINE
8
BLACK
6
CONTINUOUS
10
0.285568
20
0.765568
11
0.287275
21
0.763013
0
LINE
8
BLACK
6
CONTINUOUS
10
0.287275
20
0.763013
11
0.287874
21
0.76
0
LINE
8
BLACK
6
CONTINUOUS
10
0.287874
20
0.76
11
0.287874
21
0.7
0
LINE
8
BLACK
6
CONTINUOUS
10
0.287874
20
0.7
11
0.287275
21
0.696987
0
LINE
8
BLACK
6
CONTINUOUS
10
0.287275
20
0.696987
11
0.285568
21
0.694432
0
LINE
8
BLACK
6
CONTINUOUS
10
0.285568
20
0.694432
11
0.283013
21
0.692725
0
LINE
8
BLACK
6
CONTINUOUS
10
0.283013
20
0.692725
11
0.28
21
0.692126
0
LINE
8
BLACK
6
CONTINUOUS
10
0.28
20
0.692126
11
0.22
21
0.692126
0
LINE
8
BLACK
6
CONTINUOUS
10
0.22
20
0.692126
11
0.216987
21
0.692725
0
LINE
8
BLACK
6
CONTINUOUS
10
0.216987
20
0.692725
11
0.214432
21
0.694432
0
LINE
8
BLACK
6
CONTINUOUS
10
0.214432
20
0.694432
11
0.212725
21
0.696987
0
LINE
8
BLACK
6
CONTINUOUS
10
0.212725
20
0.696987
11
0.212126
21
0.7
0
LINE
8
BLACK
6
CONTINUOUS
10
0.212126
20
0.7
11
0.212126
21
0.76
0
LINE
8
BLACK
6
CONTINUOUS
10
0.212126
20
0.76
11
0.212725
21
0.763013
0
LINE
8
BLACK
6
CONTINUOUS
10
0.212725
20
0.763013
11
0.214432
21
0.765568
0
LINE
8
BLACK
6
CONTINUOUS
10
0.214432
20
0.765568
11
0.216987
21
0.767275
0
LINE
8
BLACK
6
CONTINUOUS
10
0.216987
20
0.767275
11
0.22
21
0.767874
0
LINE
8
BLACK
6
CONTINUOUS
10
0.22
20
0.767874
11
0.28
21
0.767874
0
LINE
8
BLACK
6
CONTINUOUS
10
0.28
20
0.767874
11
0.283013
21
0.767275
0
LINE
8
BLACK
6
CONTINUOUS
10
1.42301
20
0.767275
11
1.42557
21
0.765568
0
LINE
8
BLACK
6
CONTINUOUS
10
1.42557
20
0.765568
11
1.42727
21
0.763013
0
LINE
8
BLACK
6
CONTINUOUS
10
1.42727
20
0.763013
11
1.42787
21
0.76
0
LINE
8
BLACK
6
CONTINUOUS
10
1.42787
20
0.76
11
1.42787
21
0.7
0
LINE
8
BLACK
6
CONTINUOUS
10
1.42787
20
0.7
11
1.42727
21
0.696987
0
LINE
8
BLACK
6
CONTINUOUS
10
1.42727
20
0.696987
11
1.42557
21
0.694432
0
LINE
8
BLACK
6
CONTINUOUS
10
1.42557
20
0.694432
11
1.42301
21
0.692725
0
LINE
8
BLACK
6
CONTINUOUS
10
1.42301
20
0.692725
11
1.42
21
0.692126
0
LINE
8
BLACK
6
CONTINUOUS
10
1.42
20
0.692126
11
1.36
21
0.692126
0
LINE
8
BLACK
6
CONTINUOUS
10
1.36
20
0.692126
11
1.35699
21
0.692725
0
LINE
8
BLACK
6
CONTINUOUS
10
1.35699
20
0.692725
11
1.35443
21
0.694432
0
LINE
8
BLACK
6
CONTINUOUS
10
1.35443
20
0.694432
11
1.35273
21
0.696987
0
LINE
8
BLACK
6
CONTINUOUS
10
1.35273
20
0.696987
11
1.35213
21
0.7
0
LINE
8
BLACK
6
CONTINUOUS
10
1.35213
20
0.7
11
1.35213
21
0.76
0
LINE
8
BLACK
6
CONTINUOUS
10
1.35213
20
0.76
11
1.35273
21
0.763013
0
LINE
8
BLACK
6
CONTINUOUS
10
1.35273
20
0.763013
11
1.35443
21
0.765568
0
LINE
8
BLACK
6
CONTINUOUS
10
1.35443
20
0.765568
11
1.35699
21
0.767275
0
LINE
8
BLACK
6
CONTINUOUS
10
1.35699
20
0.767275
11
1.36
21
0.767874
0
LINE
8
BLACK
6
CONTINUOUS
10
1.36
20
0.767874
11
1.42
21
0.767874
0
LINE
8
BLACK
6
CONTINUOUS
10
1.42
20
0.767874
11
1.42301
21
0.767275
0
LINE
8
BLACK
6
CONTINUOUS
10
1.52301
20
0.767275
11
1.52557
21
0.765568
0
LINE
8
BLACK
6
CONTINUOUS
10
1.52557
20
0.765568
11
1.52727
21
0.763013
0
LINE
8
BLACK
6
CONTINUOUS
10
1.52727
20
0.763013
11
1.52787
21
0.76
0
LINE
8
BLACK
6
CONTINUOUS
10
1.52787
20
0.76
11
1.52787
21
0.7
0
LINE
8
BLACK
6
CONTINUOUS
10
1.52787
20
0.7
11
1.52727
21
0.696987
0
LINE
8
BLACK
6
CONTINUOUS
10
1.52727
20
0.696987
11
1.52557
21
0.694432
0
LINE
8
BLACK
6
CONTINUOUS
10
1.52557
20
0.694432
11
1.52301
21
0.692725
0
LINE
8
BLACK
6
CONTINUOUS
10
1.52301
20
0.692725
11
1.52
21
0.692126
0
LINE
8
BLACK
6
CONTINUOUS
10
1.52
20
0.692126
11
1.46
21
0.692126
0
LINE
8
BLACK
6
CONTINUOUS
10
1.46
20
0.692126
11
1.45699
21
0.692725
0
LINE
8
BLACK
6
CONTINUOUS
10
1.45699
20
0.692725
11
1.45443
21
0.694432
0
LINE
8
BLACK
6
CONTINUOUS
10
1.45443
20
0.694432
11
1.45273
21
0.696987
0
LINE
8
BLACK
6
CONTINUOUS
10
1.45273
20
0.696987
11
1.45213
21
0.7
0
LINE
8
BLACK
6
CONTINUOUS
10
1.45213
20
0.7
11
1.45213
21
0.76
0
LINE
8
BLACK
6
CONTINUOUS
10
1.45213
20
0.76
11
1.45273
21
0.763013
0
LINE
8
BLACK
6
CONTINUOUS
10
1.45273
20
0.763013
11
1.45443
21
0.765568
0
LINE
8
BLACK
6
CONTINUOUS
10
1.45443
20
0.765568
11
1.45699
21
0.767275
0
LINE
8
BLACK
6
CONTINUOUS
10
1.45699
20
0.767275
11
1.46
21
0.767874
0
LINE
8
BLACK
6
CONTINUOUS
10
1.46
20
0.767874
11
1.52
21
0.767874
0
LINE
8
BLACK
6
CONTINUOUS
10
1.52
20
0.767874
11
1.52301
21
0.767275
0
LINE
8
BLACK
6
CONTINUOUS
10
0.183013
20
0.907275
11
0.185568
21
0.905568
0
LINE
8
BLACK
6
CONTINUOUS
10
0.185568
20
0.905568
11
0.187275
21
0.903013
0
LINE
8
BLACK
6
CONTINUOUS
10
0.187275
20
0.903013
11
0.187874
21
0.9
0
LINE
8
BLACK
6
CONTINUOUS
10
0.187874
20
0.9
11
0.187874
21
0.84
0
LINE
8
BLACK
6
CONTINUOUS
10
0.187874
20
0.84
11
0.187275
21
0.836987
0
LINE
8
BLACK
6
CONTINUOUS
10
0.187275
20
0.836987
11
0.185568
21
0.834432
0
LINE
8
BLACK
6
CONTINUOUS
10
0.185568
20
0.834432
11
0.183013
21
0.832725
0
LINE
8
BLACK
6
CONTINUOUS
10
0.183013
20
0.832725
11
0.18
21
0.832126
0
LINE
8
BLACK
6
CONTINUOUS
10
0.18
20
0.832126
11
0.12
21
0.832126
0
LINE
8
BLACK
6
CONTINUOUS
10
0.12
20
0.832126
11
0.116987
21
0.832725
0
LINE
8
BLACK
6
CONTINUOUS
10
0.116987
20
0.832725
11
0.114432
21
0.834432
0
LINE
8
BLACK
6
CONTINUOUS
10
0.114432
20
0.834432
11
0.112725
21
0.836987
0
LINE
8
BLACK
6
CONTINUOUS
10
0.112725
20
0.836987
11
0.112126
21
0.84
0
LINE
8
BLACK
6
CONTINUOUS
10
0.112126
20
0.84
11
0.112126
21
0.9
0
LINE
8
BLACK
6
CONTINUOUS
10
0.112126
20
0.9
11
0.112725
21
0.903013
0
LINE
8
BLACK
6
CONTINUOUS
10
0.112725
20
0.903013
11
0.114432
21
0.905568
0
LINE
8
BLACK
6
CONTINUOUS
10
0.114432
20
0.905568
11
0.116987
21
0.907275
0
LINE
8
BLACK
6
CONTINUOUS
10
0.116987
20
0.907275
11
0.12
21
0.907874
0
LINE
8
BLACK
6
CONTINUOUS
10
0.12
20
0.907874
11
0.18
21
0.907874
0
LINE
8
BLACK
6
CONTINUOUS
10
0.18
20
0.907874
11
0.183013
21
0.907275
0
LINE
8
BLACK
6
CONTINUOUS
10
0.283013
20
0.907275
11
0.285568
21
0.905568
0
LINE
8
BLACK
6
CONTINUOUS
10
0.285568
20
0.905568
11
0.287275
21
0.903013
0
LINE
8
BLACK
6
CONTINUOUS
10
0.287275
20
0.903013
11
0.287874
21
0.9
0
LINE
8
BLACK
6
CONTINUOUS
10
0.287874
20
0.9
11
0.287874
21
0.84
0
LINE
8
BLACK
6
CONTINUOUS
10
0.287874
20
0.84
11
0.287275
21
0.836987
0
LINE
8
BLACK
6
CONTINUOUS
10
0.287275
20
0.836987
11
0.285568
21
0.834432
0
LINE
8
BLACK
6
CONTINUOUS
10
0.285568
20
0.834432
11
0.283013
21
0.832725
0
LINE
8
BLACK
6
CONTINUOUS
10
0.283013
20
0.832725
11
0.28
21
0.832126
0
LINE
8
BLACK
6
CONTINUOUS
10
0.28
20
0.832126
11
0.22
21
0.832126
0
LINE
8
BLACK
6
CONTINUOUS
10
0.22
20
0.832126
11
0.216987
21
0.832725
0
LINE
8
BLACK
6
CONTINUOUS
10
0.216987
20
0.832725
11
0.214432
21
0.834432
0
LINE
8
BLACK
6
CONTINUOUS
10
0.214432
20
0.834432
11
0.212725
21
0.836987
0
LINE
8
BLACK
6
CONTINUOUS
10
0.212725
20
0.836987
11
0.212126
21
0.84
0
LINE
8
BLACK
6
CONTINUOUS
10
0.212126
20
0.84
11
0.212126
21
0.9
0
LINE
8
BLACK
6
CONTINUOUS
10
0.212126
20
0.9
11
0.212725
21
0.903013
0
LINE
8
BLACK
6
CONTINUOUS
10
0.212725
20
0.903013
11
0.214432
21
0.905568
0
LINE
8
BLACK
6
CONTINUOUS
10
0.214432
20
0.905568
11
0.216987
21
0.907275
0
LINE
8
BLACK
6
CONTINUOUS
10
0.216987
20
0.907275
11
0.22
21
0.907874
0
LINE
8
BLACK
6
CONTINUOUS
10
0.22
20
0.907874
11
0.28
21
0.907874
0
LINE
8
BLACK
6
CONTINUOUS
10
0.28
20
0.907874
11
0.283013
21
0.907275
0
LINE
8
BLACK
6
CONTINUOUS
10
1.42301
20
0.907275
11
1.42557
21
0.905568
0
LINE
8
BLACK
6
CONTINUOUS
10
1.42557
20
0.905568
11
1.42727
21
0.903013
0
LINE
8
BLACK
6
CONTINUOUS
10
1.42727
20
0.903013
11
1.42787
21
0.9
0
LINE
8
BLACK
6
CONTINUOUS
10
1.42787
20
0.9
11
1.42787
21
0.84
0
LINE
8
BLACK
6
CONTINUOUS
10
1.42787
20
0.84
11
1.42727
21
0.836987
0
LINE
8
BLACK
6
CONTINUOUS
10
1.42727
20
0.836987
11
1.42557
21
0.834432
0
LINE
8
BLACK
6
CONTINUOUS
10
1.42557
20
0.834432
11
1.42301
21
0.832725
0
LINE
8
BLACK
6
CONTINUOUS
10
1.42301
20
0.832725
11
1.42
21
0.832126
0
LINE
8
BLACK
6
CONTINUOUS
10
1.42
20
0.832126
11
1.36
21
0.832126
0
LINE
8
BLACK
6
CONTINUOUS
10
1.36
20
0.832126
11
1.35699
21
0.832725
0
LINE
8
BLACK
6
CONTINUOUS
10
1.35699
20
0.832725
11
1.35443
21
0.834432
0
LINE
8
BLACK
6
CONTINUOUS
10
1.35443
20
0.834432
11
1.35273
21
0.836987
0
LINE
8
BLACK
6
CONTINUOUS
10
1.35273
20
0.836987
11
1.35213
21
0.84
0
LINE
8
BLACK
6
CONTINUOUS
10
1.35213
20
0.84
11
1.35213
21
0.9
0
LINE
8
BLACK
6
CONTINUOUS
10
1.35213
20
0.9
11
1.35273
21
0.903013
0
LINE
8
BLACK
6
CONTINUOUS
10
1.35273
20
0.903013
11
1.35443
21
0.905568
0
LINE
8
BLACK
6
CONTINUOUS
10
1.35443
20
0.905568
11
1.35699
21
0.907275
0
LINE
8
BLACK
6
CONTINUOUS
10
1.35699
20
0.907275
11
1.36
21
0.907874
0
LINE
8
BLACK
6
CONTINUOUS
10
1.36
20
0.907874
11
1.42
21
0.907874
0
LINE
8
BLACK
6
CONTINUOUS
10
1.42
20
0.907874
11
1.42301
21
0.907275
0
LINE
8
BLACK
6
CONTINUOUS
10
1.52301
20
0.907275
11
1.52557
21
0.905568
0
LINE
8
BLACK
6
CONTINUOUS
10
1.52557
20
0.905568
11
1.52727
21
0.903013
0
LINE
8
BLACK
6
CONTINUOUS
10
1.52727
20
0.903013
11
1.52787
21
0.9
0
LINE
8
BLACK
6
CONTINUOUS
10
1.52787
20
0.9
11
1.52787
21
0.84
0
LINE
8
BLACK
6
CONTINUOUS
10
1.52787
20
0.84
11
1.52727
21
0.836987
0
LINE
8
BLACK
6
CONTINUOUS
10
1.52727
20
0.836987
11
1.52557
21
0.834432
0
LINE
8
BLACK
6
CONTINUOUS
10
1.52557
20
0.834432
11
1.52301
21
0.832725
0
LINE
8
BLACK
6
CONTINUOUS
10
1.52301
20
0.832725
11
1.52
21
0.832126
0
LINE
8
BLACK
6
CONTINUOUS
10
1.52
20
0.832126
11
1.46
21
0.832126
0
LINE
8
BLACK
6
CONTINUOUS
10
1.46
20
0.832126
11
1.45699
21
0.832725
0
LINE
8
BLACK
6
CONTINUOUS
10
1.45699
20
0.832725
11
1.45443
21
0.834432
0
LINE
8
BLACK
6
CONTINUOUS
10
1.45443
20
0.834432
11
1.45273
21
0.836987
0
LINE
8
BLACK
6
CONTINUOUS
10
1.45273
20
0.836987
11
1.45213
21
0.84
0
LINE
8
BLACK
6
CONTINUOUS
10
1.45213
20
0.84
11
1.45213
21
0.9
0
LINE
8
BLACK
6
CONTINUOUS
10
1.45213
20
0.9
11
1.45273
21
0.903013
0
LINE
8
BLACK
6
CONTINUOUS
10
1.45273
20
0.903013
11
1.45443
21
0.905568
0
LINE
8
BLACK
6
CONTINUOUS
10
1.45443
20
0.905568
11
1.45699
21
0.907275
0
LINE
8
BLACK
6
CONTINUOUS
10
1.45699
20
0.907275
11
1.46
21
0.907874
0
LINE
8
BLACK
6
CONTINUOUS
10
1.46
20
0.907874
11
1.52
21
0.907874
0
LINE
8
BLACK
6
CONTINUOUS
10
1.52
20
0.907874
11
1.52301
21
0.907275
0
LINE
8
BLACK
6
CONTINUOUS
10
0.183013
20
1.00727
11
0.185568
21
1.00557
0
LINE
8
BLACK
6
CONTINUOUS
10
0.185568
20
1.00557
11
0.187275
21
1.00301
0
LINE
8
BLACK
6
CONTINUOUS
10
0.187275
20
1.00301
11
0.187874
21
1
0
LINE
8
BLACK
6
CONTINUOUS
10
0.187874
20
1
11
0.187874
21
0.94
0
LINE
8
BLACK
6
CONTINUOUS
10
0.187874
20
0.94
11
0.187275
21
0.936987
0
LINE
8
BLACK
6
CONTINUOUS
10
0.187275
20
0.936987
11
0.185568
21
0.934432
0
LINE
8
BLACK
6
CONTINUOUS
10
0.185568
20
0.934432
11
0.183013
21
0.932725
0
LINE
8
BLACK
6
CONTINUOUS
10
0.183013
20
0.932725
11
0.18
21
0.932126
0
LINE
8
BLACK
6
CONTINUOUS
10
0.18
20
0.932126
11
0.12
21
0.932126
0
LINE
8
BLACK
6
CONTINUOUS
10
0.12
20
0.932126
11
0.116987
21
0.932725
0
LINE
8
BLACK
6
CONTINUOUS
10
0.116987
20
0.932725
11
0.114432
21
0.934432
0
LINE
8
BLACK
6
CONTINUOUS
10
0.114432
20
0.934432
11
0.112725
21
0.936987
0
LINE
8
BLACK
6
CONTINUOUS
10
0.112725
20
0.936987
11
0.112126
21
0.94
0
LINE
8
BLACK
6
CONTINUOUS
10
0.112126
20
0.94
11
0.112126
21
1
0
LINE
8
BLACK
6
CONTINUOUS
10
0.112126
20
1
11
0.112725
21
1.00301
0
LINE
8
BLACK
6
CONTINUOUS
10
0.112725
20
1.00301
11
0.114432
21
1.00557
0
LINE
8
BLACK
6
CONTINUOUS
10
0.114432
20
1.00557
11
0.116987
21
1.00727
0
LINE
8
BLACK
6
CONTINUOUS
10
0.116987
20
1.00727
11
0.12
21
1.00787
0
LINE
8
BLACK
6
CONTINUOUS
10
0.12
20
1.00787
11
0.18
21
1.00787
0
LINE
8
BLACK
6
CONTINUOUS
10
0.18
20
1.00787
11
0.183013
21
1.00727
0
LINE
8
BLACK
6
CONTINUOUS
10
0.283013
20
1.00727
11
0.285568
21
1.00557
0
LINE
8
BLACK
6
CONTINUOUS
10
0.285568
20
1.00557
11
0.287275
21
1.00301
0
LINE
8
BLACK
6
CONTINUOUS
10
0.287275
20
1.00301
11
0.287874
21
1
0
LINE
8
BLACK
6
CONTINUOUS
10
0.287874
20
1
11
0.287874
21
0.94
0
LINE
8
BLACK
6
CONTINUOUS
10
0.287874
20
0.94
11
0.287275
21
0.936987
0
LINE
8
BLACK
6
CONTINUOUS
10
0.287275
20
0.936987
11
0.285568
21
0.934432
0
LINE
8
BLACK
6
CONTINUOUS
10
0.285568
20
0.934432
11
0.283013
21
0.932725
0
LINE
8
BLACK
6
CONTINUOUS
10
0.283013
20
0.932725
11
0.28
21
0.932126
0
LINE
8
BLACK
6
CONTINUOUS
10
0.28
20
0.932126
11
0.22
21
0.932126
0
LINE
8
BLACK
6
CONTINUOUS
10
0.22
20
0.932126
11
0.216987
21
0.932725
0
LINE
8
BLACK
6
CONTINUOUS
10
0.216987
20
0.932725
11
0.214432
21
0.934432
0
LINE
8
BLACK
6
CONTINUOUS
10
0.214432
20
0.934432
11
0.212725
21
0.936987
0
LINE
8
BLACK
6
CONTINUOUS
10
0.212725
20
0.936987
11
0.212126
21
0.94
0
LINE
8
BLACK
6
CONTINUOUS
10
0.212126
20
0.94
11
0.212126
21
1
0
LINE
8
BLACK
6
CONTINUOUS
10
0.212126
20
1
11
0.212725
21
1.00301
0
LINE
8
BLACK
6
CONTINUOUS
10
0.212725
20
1.00301
11
0.214432
21
1.00557
0
LINE
8
BLACK
6
CONTINUOUS
10
0.214432
20
1.00557
11
0.216987
21
1.00727
0
LINE
8
BLACK
6
CONTINUOUS
10
0.216987
20
1.00727
11
0.22
21
1.00787
0
LINE
8
BLACK
6
CONTINUOUS
10
0.22
20
1.00787
11
0.28
21
1.00787
0
LINE
8
BLACK
6
CONTINUOUS
10
0.28
20
1.00787
11
0.283013
21
1.00727
0
LINE
8
BLACK
6
CONTINUOUS
10
1.42301
20
1.00727
11
1.42557
21
1.00557
0
LINE
8
BLACK
6
CONTINUOUS
10
1.42557
20
1.00557
11
1.42727
21
1.00301
0
LINE
8
BLACK
6
CONTINUOUS
10
1.42727
20
1.00301
11
1.42787
21
1
0
LINE
8
BLACK
6
CONTINUOUS
10
1.42787
20
1
11
1.42787
21
0.94
0
LINE
8
BLACK
6
CONTINUOUS
10
1.42787
20
0.94
11
1.42727
21
0.936987
0
LINE
8
BLACK
6
CONTINUOUS
10
1.42727
20
0.936987
11
1.42557
21
0.934432
0
LINE
8
BLACK
6
CONTINUOUS
10
1.42557
20
0.934432
11
1.42301
21
0.932725
0
LINE
8
BLACK
6
CONTINUOUS
10
1.42301
20
0.932725
11
1.42
21
0.932126
0
LINE
8
BLACK
6
CONTINUOUS
10
1.42
20
0.932126
11
1.36
21
0.932126
0
LINE
8
BLACK
6
CONTINUOUS
10
1.36
20
0.932126
11
1.35699
21
0.932725
0
LINE
8
BLACK
6
CONTINUOUS
10
1.35699
20
0.932725
11
1.35443
21
0.934432
0
LINE
8
BLACK
6
CONTINUOUS
10
1.35443
20
0.934432
11
1.35273
21
0.936987
0
LINE
8
BLACK
6
CONTINUOUS
10
1.35273
20
0.936987
11
1.35213
21
0.94
0
LINE
8
BLACK
6
CONTINUOUS
10
1.35213
20
0.94
11
1.35213
21
1
0
LINE
8
BLACK
6
CONTINUOUS
10
1.35213
20
1
11
1.35273
21
1.00301
0
LINE
8
BLACK
6
CONTINUOUS
10
1.35273
20
1.00301
11
1.35443
21
1.00557
0
LINE
8
BLACK
6
CONTINUOUS
10
1.35443
20
1.00557
11
1.35699
21
1.00727
0
LINE
8
BLACK
6
CONTINUOUS
10
1.35699
20
1.00727
11
1.36
21
1.00787
0
LINE
8
BLACK
6
CONTINUOUS
10
1.36
20
1.00787
11
1.42
21
1.00787
0
LINE
8
BLACK
6
CONTINUOUS
10
1.42
20
1.00787
11
1.42301
21
1.00727
0
LINE
8
BLACK
6
CONTINUOUS
10
1.52301
20
1.00727
11
1.52557
21
1.00557
0
LINE
8
BLACK
6
CONTINUOUS
10
1.52557
20
1.00557
11
1.52727
21
1.00301
0
LINE
8
BLACK
6
CONTINUOUS
10
1.52727
20
1.00301
11
1.52787
21
1
0
LINE
8
BLACK
6
CONTINUOUS
10
1.52787
20
1
11
1.52787
21
0.94
0
LINE
8
BLACK
6
CONTINUOUS
10
1.52787
20
0.94
11
1.52727
21
0.936987
0
LINE
8
BLACK
6
CONTINUOUS
10
1.52727
20
0.936987
11
1.52557
21
0.934432
0
LINE
8
BLACK
6
CONTINUOUS
10
1.52557
20
0.934432
11
1.52301
21
0.932725
0
LINE
8
BLACK
6
CONTINUOUS
10
1.52301
20
0.932725
11
1.52
21
0.932126
0
LINE
8
BLACK
6
CONTINUOUS
10
1.52
20
0.932126
11
1.46
21
0.932126
0
LINE
8
BLACK
6
CONTINUOUS
10
1.46
20
0.932126
11
1.45699
21
0.932725
0
LINE
8
BLACK
6
CONTINUOUS
10
1.45699
20
0.932725
11
1.45443
21
0.934432
0
LINE
8
BLACK
6
CONTINUOUS
10
1.45443
20
0.934432
11
1.45273
21
0.936987
0
LINE
8
BLACK
6
CONTINUOUS
10
1.45273
20
0.936987
11
1.45213
21
0.94
0
LINE
8
BLACK
6
CONTINUOUS
10
1.45213
20
0.94
11
1.45213
21
1
0
LINE
8
BLACK
6
CONTINUOUS
10
1.45213
20
1
11
1.45273
21
1.00301
0
LINE
8
BLACK
6
CONTINUOUS
10
1.45273
20
1.00301
11
1.45443
21
1.00557
0
LINE
8
BLACK
6
CONTINUOUS
10
1.45443
20
1.00557
11
1.45699
21
1.00727
0
LINE
8
BLACK
6
CONTINUOUS
10
1.45699
20
1.00727
11
1.46
21
1.00787
0
LINE
8
BLACK
6
CONTINUOUS
10
1.46
20
1.00787
11
1.52
21
1.00787
0
LINE
8
BLACK
6
CONTINUOUS
10
1.52
20
1.00787
11
1.52301
21
1.00727
0
LINE
8
BLACK
6
CONTINUOUS
10
0.183013
20
1.10727
11
0.185568
21
1.10557
0
LINE
8
BLACK
6
CONTINUOUS
10
0.185568
20
1.10557
11
0.187275
21
1.10301
0
LINE
8
BLACK
6
CONTINUOUS
10
0.187275
20
1.10301
11
0.187874
21
1.1
0
LINE
8
BLACK
6
CONTINUOUS
10
0.187874
20
1.1
11
0.187874
21
1.04
0
LINE
8
BLACK
6
CONTINUOUS
10
0.187874
20
1.04
11
0.187275
21
1.03699
0
LINE
8
BLACK
6
CONTINUOUS
10
0.187275
20
1.03699
11
0.185568
21
1.03443
0
LINE
8
BLACK
6
CONTINUOUS
10
0.185568
20
1.03443
11
0.183013
21
1.03273
0
LINE
8
BLACK
6
CONTINUOUS
10
0.183013
20
1.03273
11
0.18
21
1.03213
0
LINE
8
BLACK
6
CONTINUOUS
10
0.18
20
1.03213
11
0.12
21
1.03213
0
LINE
8
BLACK
6
CONTINUOUS
10
0.12
20
1.03213
11
0.116987
21
1.03273
0
LINE
8
BLACK
6
CONTINUOUS
10
0.116987
20
1.03273
11
0.114432
21
1.03443
0
LINE
8
BLACK
6
CONTINUOUS
10
0.114432
20
1.03443
11
0.112725
21
1.03699
0
LINE
8
BLACK
6
CONTINUOUS
10
0.112725
20
1.03699
11
0.112126
21
1.04
0
LINE
8
BLACK
6
CONTINUOUS
10
0.112126
20
1.04
11
0.112126
21
1.1
0
LINE
8
BLACK
6
CONTINUOUS
10
0.112126
20
1.1
11
0.112725
21
1.10301
0
LINE
8
BLACK
6
CONTINUOUS
10
0.112725
20
1.10301
11
0.114432
21
1.10557
0
LINE
8
BLACK
6
CONTINUOUS
10
0.114432
20
1.10557
11
0.116987
21
1.10727
0
LINE
8
BLACK
6
CONTINUOUS
10
0.116987
20
1.10727
11
0.12
21
1.10787
0
LINE
8
BLACK
6
CONTINUOUS
10
0.12
20
1.10787
11
0.18
21
1.10787
0
LINE
8
BLACK
6
CONTINUOUS
10
0.18
20
1.10787
11
0.183013
21
1.10727
0
LINE
8
BLACK
6
CONTINUOUS
10
0.283013
20
1.10727
11
0.285568
21
1.10557
0
LINE
8
BLACK
6
CONTINUOUS
10
0.285568
20
1.10557
11
0.287275
21
1.10301
0
LINE
8
BLACK
6
CONTINUOUS
10
0.287275
20
1.10301
11
0.287874
21
1.1
0
LINE
8
BLACK
6
CONTINUOUS
10
0.287874
20
1.1
11
0.287874
21
1.04
0
LINE
8
BLACK
6
CONTINUOUS
10
0.287874
20
1.04
11
0.287275
21
1.03699
0
LINE
8
BLACK
6
CONTINUOUS
10
0.287275
20
1.03699
11
0.285568
21
1.03443
0
LINE
8
BLACK
6
CONTINUOUS
10
0.285568
20
1.03443
11
0.283013
21
1.03273
0
LINE
8
BLACK
6
CONTINUOUS
10
0.283013
20
1.03273
11
0.28
21
1.03213
0
LINE
8
BLACK
6
CONTINUOUS
10
0.28
20
1.03213
11
0.22
21
1.03213
0
LINE
8
BLACK
6
CONTINUOUS
10
0.22
20
1.03213
11
0.216987
21
1.03273
0
LINE
8
BLACK
6
CONTINUOUS
10
0.216987
20
1.03273
11
0.214432
21
1.03443
0
LINE
8
BLACK
6
CONTINUOUS
10
0.214432
20
1.03443
11
0.212725
21
1.03699
0
LINE
8
BLACK
6
CONTINUOUS
10
0.212725
20
1.03699
11
0.212126
21
1.04
0
LINE
8
BLACK
6
CONTINUOUS
10
0.212126
20
1.04
11
0.212126
21
1.1
0
LINE
8
BLACK
6
CONTINUOUS
10
0.212126
20
1.1
11
0.212725
21
1.10301
0
LINE
8
BLACK
6
CONTINUOUS
10
0.212725
20
1.10301
11
0.214432
21
1.10557
0
LINE
8
BLACK
6
CONTINUOUS
10
0.214432
20
1.10557
11
0.216987
21
1.10727
0
LINE
8
BLACK
6
CONTINUOUS
10
0.216987
20
1.10727
11
0.22
21
1.10787
0
LINE
8
BLACK
6
CONTINUOUS
10
0.22
20
1.10787
11
0.28
21
1.10787
0
LINE
8
BLACK
6
CONTINUOUS
10
0.28
20
1.10787
11
0.283013
21
1.10727
0
LINE
8
BLACK
6
CONTINUOUS
10
1.42301
20
1.10727
11
1.42557
21
1.10557
0
LINE
8
BLACK
6
CONTINUOUS
10
1.42557
20
1.10557
11
1.42727
21
1.10301
0
LINE
8
BLACK
6
CONTINUOUS
10
1.42727
20
1.10301
11
1.42787
21
1.1
0
LINE
8
BLACK
6
CONTINUOUS
10
1.42787
20
1.1
11
1.42787
21
1.04
0
LINE
8
BLACK
6
CONTINUOUS
10
1.42787
20
1.04
11
1.42727
21
1.03699
0
LINE
8
BLACK
6
CONTINUOUS
10
1.42727
20
1.03699
11
1.42557
21
1.03443
0
LINE
8
BLACK
6
CONTINUOUS
10
1.42557
20
1.03443
11
1.42301
21
1.03273
0
LINE
8
BLACK
6
CONTINUOUS
10
1.42301
20
1.03273
11
1.42
21
1.03213
0
LINE
8
BLACK
6
CONTINUOUS
10
1.42
20
1.03213
11
1.36
21
1.03213
0
LINE
8
BLACK
6
CONTINUOUS
10
1.36
20
1.03213
11
1.35699
21
1.03273
0
LINE
8
BLACK
6
CONTINUOUS
10
1.35699
20
1.03273
11
1.35443
21
1.03443
0
LINE
8
BLACK
6
CONTINUOUS
10
1.35443
20
1.03443
11
1.35273
21
1.03699
0
LINE
8
BLACK
6
CONTINUOUS
10
1.35273
20
1.03699
11
1.35213
21
1.04
0
LINE
8
BLACK
6
CONTINUOUS
10
1.35213
20
1.04
11
1.35213
21
1.1
0
LINE
8
BLACK
6
CONTINUOUS
10
1.35213
20
1.1
11
1.35273
21
1.10301
0
LINE
8
BLACK
6
CONTINUOUS
10
1.35273
20
1.10301
11
1.35443
21
1.10557
0
LINE
8
BLACK
6
CONTINUOUS
10
1.35443
20
1.10557
11
1.35699
21
1.10727
0
LINE
8
BLACK
6
CONTINUOUS
10
1.35699
20
1.10727
11
1.36
21
1.10787
0
LINE
8
BLACK
6
CONTINUOUS
10
1.36
20
1.10787
11
1.42
21
1.10787
0
LINE
8
BLACK
6
CONTINUOUS
10
1.42
20
1.10787
11
1.42301
21
1.10727
0
LINE
8
BLACK
6
CONTINUOUS
10
1.52301
20
1.10727
11
1.52557
21
1.10557
0
LINE
8
BLACK
6
CONTINUOUS
10
1.52557
20
1.10557
11
1.52727
21
1.10301
0
LINE
8
BLACK
6
CONTINUOUS
10
1.52727
20
1.10301
11
1.52787
21
1.1
0
LINE
8
BLACK
6
CONTINUOUS
10
1.52787
20
1.1
11
1.52787
21
1.04
0
LINE
8
BLACK
6
CONTINUOUS
10
1.52787
20
1.04
11
1.52727
21
1.03699
0
LINE
8
BLACK
6
CONTINUOUS
10
1.52727
20
1.03699
11
1.52557
21
1.03443
0
LINE
8
BLACK
6
CONTINUOUS
10
1.52557
20
1.03443
11
1.52301
21
1.03273
0
LINE
8
BLACK
6
CONTINUOUS
10
1.52301
20
1.03273
11
1.52
21
1.03213
0
LINE
8
BLACK
6
CONTINUOUS
10
1.52
20
1.03213
11
1.46
21
1.03213
0
LINE
8
BLACK
6
CONTINUOUS
10
1.46
20
1.03213
11
1.45699
21
1.03273
0
LINE
8
BLACK
6
CONTINUOUS
10
1.45699
20
1.03273
11
1.45443
21
1.03443
0
LINE
8
BLACK
6
CONTINUOUS
10
1.45443
20
1.03443
11
1.45273
21
1.03699
0
LINE
8
BLACK
6
CONTINUOUS
10
1.45273
20
1.03699
11
1.45213
21
1.04
0
LINE
8
BLACK
6
CONTINUOUS
10
1.45213
20
1.04
11
1.45213
21
1.1
0
LINE
8
BLACK
6
CONTINUOUS
10
1.45213
20
1.1
11
1.45273
21
1.10301
0
LINE
8
BLACK
6
CONTINUOUS
10
1.45273
20
1.10301
11
1.45443
21
1.10557
0
LINE
8
BLACK
6
CONTINUOUS
10
1.45443
20
1.10557
11
1.45699
21
1.10727
0
LINE
8
BLACK
6
CONTINUOUS
10
1.45699
20
1.10727
11
1.46
21
1.10787
0
LINE
8
BLACK
6
CONTINUOUS
10
1.46
20
1.10787
11
1.52
21
1.10787
0
LINE
8
BLACK
6
CONTINUOUS
10
1.52
20
1.10787
11
1.52301
21
1.10727
0
LINE
8
BLACK
6
CONTINUOUS
10
0.973013
20
1.18727
11
0.975568
21
1.18557
0
LINE
8
BLACK
6
CONTINUOUS
10
0.975568
20
1.18557
11
0.977275
21
1.18301
0
LINE
8
BLACK
6
CONTINUOUS
10
0.977275
20
1.18301
11
0.977874
21
1.18
0
LINE
8
BLACK
6
CONTINUOUS
10
0.977874
20
1.18
11
0.977874
21
1.12
0
LINE
8
BLACK
6
CONTINUOUS
10
0.977874
20
1.12
11
0.977275
21
1.11699
0
LINE
8
BLACK
6
CONTINUOUS
10
0.977275
20
1.11699
11
0.975568
21
1.11443
0
LINE
8
BLACK
6
CONTINUOUS
10
0.975568
20
1.11443
11
0.973013
21
1.11273
0
LINE
8
BLACK
6
CONTINUOUS
10
0.973013
20
1.11273
11
0.97
21
1.11213
0
LINE
8
BLACK
6
CONTINUOUS
10
0.97
20
1.11213
11
0.91
21
1.11213
0
LINE
8
BLACK
6
CONTINUOUS
10
0.91
20
1.11213
11
0.906987
21
1.11273
0
LINE
8
BLACK
6
CONTINUOUS
10
0.906987
20
1.11273
11
0.904432
21
1.11443
0
LINE
8
BLACK
6
CONTINUOUS
10
0.904432
20
1.11443
11
0.902725
21
1.11699
0
LINE
8
BLACK
6
CONTINUOUS
10
0.902725
20
1.11699
11
0.902126
21
1.12
0
LINE
8
BLACK
6
CONTINUOUS
10
0.902126
20
1.12
11
0.902126
21
1.18
0
LINE
8
BLACK
6
CONTINUOUS
10
0.902126
20
1.18
11
0.902725
21
1.18301
0
LINE
8
BLACK
6
CONTINUOUS
10
0.902725
20
1.18301
11
0.904432
21
1.18557
0
LINE
8
BLACK
6
CONTINUOUS
10
0.904432
20
1.18557
11
0.906987
21
1.18727
0
LINE
8
BLACK
6
CONTINUOUS
10
0.906987
20
1.18727
11
0.91
21
1.18787
0
LINE
8
BLACK
6
CONTINUOUS
10
0.91
20
1.18787
11
0.97
21
1.18787
0
LINE
8
BLACK
6
CONTINUOUS
10
0.97
20
1.18787
11
0.973013
21
1.18727
0
LINE
8
BLACK
6
CONTINUOUS
10
1.07301
20
1.18727
11
1.07557
21
1.18557
0
LINE
8
BLACK
6
CONTINUOUS
10
1.07557
20
1.18557
11
1.07727
21
1.18301
0
LINE
8
BLACK
6
CONTINUOUS
10
1.07727
20
1.18301
11
1.07787
21
1.18
0
LINE
8
BLACK
6
CONTINUOUS
10
1.07787
20
1.18
11
1.07787
21
1.12
0
LINE
8
BLACK
6
CONTINUOUS
10
1.07787
20
1.12
11
1.07727
21
1.11699
0
LINE
8
BLACK
6
CONTINUOUS
10
1.07727
20
1.11699
11
1.07557
21
1.11443
0
LINE
8
BLACK
6
CONTINUOUS
10
1.07557
20
1.11443
11
1.07301
21
1.11273
0
LINE
8
BLACK
6
CONTINUOUS
10
1.07301
20
1.11273
11
1.07
21
1.11213
0
LINE
8
BLACK
6
CONTINUOUS
10
1.07
20
1.11213
11
1.01
21
1.11213
0
LINE
8
BLACK
6
CONTINUOUS
10
1.01
20
1.11213
11
1.00699
21
1.11273
0
LINE
8
BLACK
6
CONTINUOUS
10
1.00699
20
1.11273
11
1.00443
21
1.11443
0
LINE
8
BLACK
6
CONTINUOUS
10
1.00443
20
1.11443
11
1.00273
21
1.11699
0
LINE
8
BLACK
6
CONTINUOUS
10
1.00273
20
1.11699
11
1.00213
21
1.12
0
LINE
8
BLACK
6
CONTINUOUS
10
1.00213
20
1.12
11
1.00213
21
1.18
0
LINE
8
BLACK
6
CONTINUOUS
10
1.00213
20
1.18
11
1.00273
21
1.18301
0
LINE
8
BLACK
6
CONTINUOUS
10
1.00273
20
1.18301
11
1.00443
21
1.18557
0
LINE
8
BLACK
6
CONTINUOUS
10
1.00443
20
1.18557
11
1.00699
21
1.18727
0
LINE
8
BLACK
6
CONTINUOUS
10
1.00699
20
1.18727
11
1.01
21
1.18787
0
LINE
8
BLACK
6
CONTINUOUS
10
1.01
20
1.18787
11
1.07
21
1.18787
0
LINE
8
BLACK
6
CONTINUOUS
10
1.07
20
1.18787
11
1.07301
21
1.18727
0
LINE
8
BLACK
6
CONTINUOUS
10
0.183013
20
1.20727
11
0.185568
21
1.20557
0
LINE
8
BLACK
6
CONTINUOUS
10
0.185568
20
1.20557
11
0.187275
21
1.20301
0
LINE
8
BLACK
6
CONTINUOUS
10
0.187275
20
1.20301
11
0.187874
21
1.2
0
LINE
8
BLACK
6
CONTINUOUS
10
0.187874
20
1.2
11
0.187874
21
1.14
0
LINE
8
BLACK
6
CONTINUOUS
10
0.187874
20
1.14
11
0.187275
21
1.13699
0
LINE
8
BLACK
6
CONTINUOUS
10
0.187275
20
1.13699
11
0.185568
21
1.13443
0
LINE
8
BLACK
6
CONTINUOUS
10
0.185568
20
1.13443
11
0.183013
21
1.13273
0
LINE
8
BLACK
6
CONTINUOUS
10
0.183013
20
1.13273
11
0.18
21
1.13213
0
LINE
8
BLACK
6
CONTINUOUS
10
0.18
20
1.13213
11
0.12
21
1.13213
0
LINE
8
BLACK
6
CONTINUOUS
10
0.12
20
1.13213
11
0.116987
21
1.13273
0
LINE
8
BLACK
6
CONTINUOUS
10
0.116987
20
1.13273
11
0.114432
21
1.13443
0
LINE
8
BLACK
6
CONTINUOUS
10
0.114432
20
1.13443
11
0.112725
21
1.13699
0
LINE
8
BLACK
6
CONTINUOUS
10
0.112725
20
1.13699
11
0.112126
21
1.14
0
LINE
8
BLACK
6
CONTINUOUS
10
0.112126
20
1.14
11
0.112126
21
1.2
0
LINE
8
BLACK
6
CONTINUOUS
10
0.112126
20
1.2
11
0.112725
21
1.20301
0
LINE
8
BLACK
6
CONTINUOUS
10
0.112725
20
1.20301
11
0.114432
21
1.20557
0
LINE
8
BLACK
6
CONTINUOUS
10
0.114432
20
1.20557
11
0.116987
21
1.20727
0
LINE
8
BLACK
6
CONTINUOUS
10
0.116987
20
1.20727
11
0.12
21
1.20787
0
LINE
8
BLACK
6
CONTINUOUS
10
0.12
20
1.20787
11
0.18
21
1.20787
0
LINE
8
BLACK
6
CONTINUOUS
10
0.18
20
1.20787
11
0.183013
21
1.20727
0
LINE
8
BLACK
6
CONTINUOUS
10
0.283013
20
1.20727
11
0.285568
21
1.20557
0
LINE
8
BLACK
6
CONTINUOUS
10
0.285568
20
1.20557
11
0.287275
21
1.20301
0
LINE
8
BLACK
6
CONTINUOUS
10
0.287275
20
1.20301
11
0.287874
21
1.2
0
LINE
8
BLACK
6
CONTINUOUS
10
0.287874
20
1.2
11
0.287874
21
1.14
0
LINE
8
BLACK
6
CONTINUOUS
10
0.287874
20
1.14
11
0.287275
21
1.13699
0
LINE
8
BLACK
6
CONTINUOUS
10
0.287275
20
1.13699
11
0.285568
21
1.13443
0
LINE
8
BLACK
6
CONTINUOUS
10
0.285568
20
1.13443
11
0.283013
21
1.13273
0
LINE
8
BLACK
6
CONTINUOUS
10
0.283013
20
1.13273
11
0.28
21
1.13213
0
LINE
8
BLACK
6
CONTINUOUS
10
0.28
20
1.13213
11
0.22
21
1.13213
0
LINE
8
BLACK
6
CONTINUOUS
10
0.22
20
1.13213
11
0.216987
21
1.13273
0
LINE
8
BLACK
6
CONTINUOUS
10
0.216987
20
1.13273
11
0.214432
21
1.13443
0
LINE
8
BLACK
6
CONTINUOUS
10
0.214432
20
1.13443
11
0.212725
21
1.13699
0
LINE
8
BLACK
6
CONTINUOUS
10
0.212725
20
1.13699
11
0.212126
21
1.14
0
LINE
8
BLACK
6
CONTINUOUS
10
0.212126
20
1.14
11
0.212126
21
1.2
0
LINE
8
BLACK
6
CONTINUOUS
10
0.212126
20
1.2
11
0.212725
21
1.20301
0
LINE
8
BLACK
6
CONTINUOUS
10
0.212725
20
1.20301
11
0.214432
21
1.20557
0
LINE
8
BLACK
6
CONTINUOUS
10
0.214432
20
1.20557
11
0.216987
21
1.20727
0
LINE
8
BLACK
6
CONTINUOUS
10
0.216987
20
1.20727
11
0.22
21
1.20787
0
LINE
8
BLACK
6
CONTINUOUS
10
0.22
20
1.20787
11
0.28
21
1.20787
0
LINE
8
BLACK
6
CONTINUOUS
10
0.28
20
1.20787
11
0.283013
21
1.20727
0
LINE
8
BLACK
6
CONTINUOUS
10
1.42301
20
1.20727
11
1.42557
21
1.20557
0
LINE
8
BLACK
6
CONTINUOUS
10
1.42557
20
1.20557
11
1.42727
21
1.20301
0
LINE
8
BLACK
6
CONTINUOUS
10
1.42727
20
1.20301
11
1.42787
21
1.2
0
LINE
8
BLACK
6
CONTINUOUS
10
1.42787
20
1.2
11
1.42787
21
1.14
0
LINE
8
BLACK
6
CONTINUOUS
10
1.42787
20
1.14
11
1.42727
21
1.13699
0
LINE
8
BLACK
6
CONTINUOUS
10
1.42727
20
1.13699
11
1.42557
21
1.13443
0
LINE
8
BLACK
6
CONTINUOUS
10
1.42557
20
1.13443
11
1.42301
21
1.13273
0
LINE
8
BLACK
6
CONTINUOUS
10
1.42301
20
1.13273
11
1.42
21
1.13213
0
LINE
8
BLACK
6
CONTINUOUS
10
1.42
20
1.13213
11
1.36
21
1.13213
0
LINE
8
BLACK
6
CONTINUOUS
10
1.36
20
1.13213
11
1.35699
21
1.13273
0
LINE
8
BLACK
6
CONTINUOUS
10
1.35699
20
1.13273
11
1.35443
21
1.13443
0
LINE
8
BLACK
6
CONTINUOUS
10
1.35443
20
1.13443
11
1.35273
21
1.13699
0
LINE
8
BLACK
6
CONTINUOUS
10
1.35273
20
1.13699
11
1.35213
21
1.14
0
LINE
8
BLACK
6
CONTINUOUS
10
1.35213
20
1.14
11
1.35213
21
1.2
0
LINE
8
BLACK
6
CONTINUOUS
10
1.35213
20
1.2
11
1.35273
21
1.20301
0
LINE
8
BLACK
6
CONTINUOUS
10
1.35273
20
1.20301
11
1.35443
21
1.20557
0
LINE
8
BLACK
6
CONTINUOUS
10
1.35443
20
1.20557
11
1.35699
21
1.20727
0
LINE
8
BLACK
6
CONTINUOUS
10
1.35699
20
1.20727
11
1.36
21
1.20787
0
LINE
8
BLACK
6
CONTINUOUS
10
1.36
20
1.20787
11
1.42
21
1.20787
0
LINE
8
BLACK
6
CONTINUOUS
10
1.42
20
1.20787
11
1.42301
21
1.20727
0
LINE
8
BLACK
6
CONTINUOUS
10
1.52301
20
1.20727
11
1.52557
21
1.20557
0
LINE
8
BLACK
6
CONTINUOUS
10
1.52557
20
1.20557
11
1.52727
21
1.20301
0
LINE
8
BLACK
6
CONTINUOUS
10
1.52727
20
1.20301
11
1.52787
21
1.2
0
LINE
8
BLACK
6
CONTINUOUS
10
1.52787
20
1.2
11
1.52787
21
1.14
0
LINE
8
BLACK
6
CONTINUOUS
10
1.52787
20
1.14
11
1.52727
21
1.13699
0
LINE
8
BLACK
6
CONTINUOUS
10
1.52727
20
1.13699
11
1.52557
21
1.13443
0
LINE
8
BLACK
6
CONTINUOUS
10
1.52557
20
1.13443
11
1.52301
21
1.13273
0
LINE
8
BLACK
6
CONTINUOUS
10
1.52301
20
1.13273
11
1.52
21
1.13213
0
LINE
8
BLACK
6
CONTINUOUS
10
1.52
20
1.13213
11
1.46
21
1.13213
0
LINE
8
BLACK
6
CONTINUOUS
10
1.46
20
1.13213
11
1.45699
21
1.13273
0
LINE
8
BLACK
6
CONTINUOUS
10
1.45699
20
1.13273
11
1.45443
21
1.13443
0
LINE
8
BLACK
6
CONTINUOUS
10
1.45443
20
1.13443
11
1.45273
21
1.13699
0
LINE
8
BLACK
6
CONTINUOUS
10
1.45273
20
1.13699
11
1.45213
21
1.14
0
LINE
8
BLACK
6
CONTINUOUS
10
1.45213
20
1.14
11
1.45213
21
1.2
0
LINE
8
BLACK
6
CONTINUOUS
10
1.45213
20
1.2
11
1.45273
21
1.20301
0
LINE
8
BLACK
6
CONTINUOUS
10
1.45273
20
1.20301
11
1.45443
21
1.20557
0
LINE
8
BLACK
6
CONTINUOUS
10
1.45443
20
1.20557
11
1.45699
21
1.20727
0
LINE
8
BLACK
6
CONTINUOUS
10
1.45699
20
1.20727
11
1.46
21
1.20787
0
LINE
8
BLACK
6
CONTINUOUS
10
1.46
20
1.20787
11
1.52
21
1.20787
0
LINE
8
BLACK
6
CONTINUOUS
10
1.52
20
1.20787
11
1.52301
21
1.20727
0
LINE
8
BLACK
6
CONTINUOUS
10
0.973013
20
1.28727
11
0.975568
21
1.28557
0
LINE
8
BLACK
6
CONTINUOUS
10
0.975568
20
1.28557
11
0.977275
21
1.28301
0
LINE
8
BLACK
6
CONTINUOUS
10
0.977275
20
1.28301
11
0.977874
21
1.28
0
LINE
8
BLACK
6
CONTINUOUS
10
0.977874
20
1.28
11
0.977874
21
1.22
0
LINE
8
BLACK
6
CONTINUOUS
10
0.977874
20
1.22
11
0.977275
21
1.21699
0
LINE
8
BLACK
6
CONTINUOUS
10
0.977275
20
1.21699
11
0.975568
21
1.21443
0
LINE
8
BLACK
6
CONTINUOUS
10
0.975568
20
1.21443
11
0.973013
21
1.21273
0
LINE
8
BLACK
6
CONTINUOUS
10
0.973013
20
1.21273
11
0.97
21
1.21213
0
LINE
8
BLACK
6
CONTINUOUS
10
0.97
20
1.21213
11
0.91
21
1.21213
0
LINE
8
BLACK
6
CONTINUOUS
10
0.91
20
1.21213
11
0.906987
21
1.21273
0
LINE
8
BLACK
6
CONTINUOUS
10
0.906987
20
1.21273
11
0.904432
21
1.21443
0
LINE
8
BLACK
6
CONTINUOUS
10
0.904432
20
1.21443
11
0.902725
21
1.21699
0
LINE
8
BLACK
6
CONTINUOUS
10
0.902725
20
1.21699
11
0.902126
21
1.22
0
LINE
8
BLACK
6
CONTINUOUS
10
0.902126
20
1.22
11
0.902126
21
1.28
0
LINE
8
BLACK
6
CONTINUOUS
10
0.902126
20
1.28
11
0.902725
21
1.28301
0
LINE
8
BLACK
6
CONTINUOUS
10
0.902725
20
1.28301
11
0.904432
21
1.28557
0
LINE
8
BLACK
6
CONTINUOUS
10
0.904432
20
1.28557
11
0.906987
21
1.28727
0
LINE
8
BLACK
6
CONTINUOUS
10
0.906987
20
1.28727
11
0.91
21
1.28787
0
LINE
8
BLACK
6
CONTINUOUS
10
0.91
20
1.28787
11
0.97
21
1.28787
0
LINE
8
BLACK
6
CONTINUOUS
10
0.97
20
1.28787
11
0.973013
21
1.28727
0
LINE
8
BLACK
6
CONTINUOUS
10
1.07301
20
1.28727
11
1.07557
21
1.28557
0
LINE
8
BLACK
6
CONTINUOUS
10
1.07557
20
1.28557
11
1.07727
21
1.28301
0
LINE
8
BLACK
6
CONTINUOUS
10
1.07727
20
1.28301
11
1.07787
21
1.28
0
LINE
8
BLACK
6
CONTINUOUS
10
1.07787
20
1.28
11
1.07787
21
1.22
0
LINE
8
BLACK
6
CONTINUOUS
10
1.07787
20
1.22
11
1.07727
21
1.21699
0
LINE
8
BLACK
6
CONTINUOUS
10
1.07727
20
1.21699
11
1.07557
21
1.21443
0
LINE
8
BLACK
6
CONTINUOUS
10
1.07557
20
1.21443
11
1.07301
21
1.21273
0
LINE
8
BLACK
6
CONTINUOUS
10
1.07301
20
1.21273
11
1.07
21
1.21213
0
LINE
8
BLACK
6
CONTINUOUS
10
1.07
20
1.21213
11
1.01
21
1.21213
0
LINE
8
BLACK
6
CONTINUOUS
10
1.01
20
1.21213
11
1.00699
21
1.21273
0
LINE
8
BLACK
6
CONTINUOUS
10
1.00699
20
1.21273
11
1.00443
21
1.21443
0
LINE
8
BLACK
6
CONTINUOUS
10
1.00443
20
1.21443
11
1.00273
21
1.21699
0
LINE
8
BLACK
6
CONTINUOUS
10
1.00273
20
1.21699
11
1.00213
21
1.22
0
LINE
8
BLACK
6
CONTINUOUS
10
1.00213
20
1.22
11
1.00213
21
1.28
0
LINE
8
BLACK
6
CONTINUOUS
10
1.00213
20
1.28
11
1.00273
21
1.28301
0
LINE
8
BLACK
6
CONTINUOUS
10
1.00273
20
1.28301
11
1.00443
21
1.28557
0
LINE
8
BLACK
6
CONTINUOUS
10
1.00443
20
1.28557
11
1.00699
21
1.28727
0
LINE
8
BLACK
6
CONTINUOUS
10
1.00699
20
1.28727
11
1.01
21
1.28787
0
LINE
8
BLACK
6
CONTINUOUS
10
1.01
20
1.28787
11
1.07
21
1.28787
0
LINE
8
BLACK
6
CONTINUOUS
10
1.07
20
1.28787
11
1.07301
21
1.28727
0
LINE
8
BLACK
6
CONTINUOUS
10
0.214106
20
1.52519
11
0.228034
21
1.52283
0
LINE
8
BLACK
6
CONTINUOUS
10
0.228034
20
1.52283
11
0.24161
21
1.51891
0
LINE
8
BLACK
6
CONTINUOUS
10
0.24161
20
1.51891
11
0.254663
21
1.51351
0
LINE
8
BLACK
6
CONTINUOUS
10
0.254663
20
1.51351
11
0.267028
21
1.50667
0
LINE
8
BLACK
6
CONTINUOUS
10
0.267028
20
1.50667
11
0.27855
21
1.4985
0
LINE
8
BLACK
6
CONTINUOUS
10
0.27855
20
1.4985
11
0.289084
21
1.48908
0
LINE
8
BLACK
6
CONTINUOUS
10
0.289084
20
1.48908
11
0.298498
21
1.47855
0
LINE
8
BLACK
6
CONTINUOUS
10
0.298498
20
1.47855
11
0.306674
21
1.46703
0
LINE
8
BLACK
6
CONTINUOUS
10
0.306674
20
1.46703
11
0.313508
21
1.45466
0
LINE
8
BLACK
6
CONTINUOUS
10
0.313508
20
1.45466
11
0.318914
21
1.44161
0
LINE
8
BLACK
6
CONTINUOUS
10
0.318914
20
1.44161
11
0.322826
21
1.42803
0
LINE
8
BLACK
6
CONTINUOUS
10
0.322826
20
1.42803
11
0.325192
21
1.41411
0
LINE
8
BLACK
6
CONTINUOUS
10
0.325192
20
1.41411
11
0.325984
21
1.4
0
LINE
8
BLACK
6
CONTINUOUS
10
0.325984
20
1.4
11
0.325192
21
1.38589
0
LINE
8
BLACK
6
CONTINUOUS
10
0.325192
20
1.38589
11
0.322826
21
1.37197
0
LINE
8
BLACK
6
CONTINUOUS
10
0.322826
20
1.37197
11
0.318914
21
1.35839
0
LINE
8
BLACK
6
CONTINUOUS
10
0.318914
20
1.35839
11
0.313508
21
1.34534
0
LINE
8
BLACK
6
CONTINUOUS
10
0.313508
20
1.34534
11
0.306674
21
1.33297
0
LINE
8
BLACK
6
CONTINUOUS
10
0.306674
20
1.33297
11
0.298498
21
1.32145
0
LINE
8
BLACK
6
CONTINUOUS
10
0.298498
20
1.32145
11
0.289084
21
1.31092
0
LINE
8
BLACK
6
CONTINUOUS
10
0.289084
20
1.31092
11
0.27855
21
1.3015
0
LINE
8
BLACK
6
CONTINUOUS
10
0.27855
20
1.3015
11
0.267028
21
1.29333
0
LINE
8
BLACK
6
CONTINUOUS
10
0.267028
20
1.29333
11
0.254663
21
1.28649
0
LINE
8
BLACK
6
CONTINUOUS
10
0.254663
20
1.28649
11
0.24161
21
1.28109
0
LINE
8
BLACK
6
CONTINUOUS
10
0.24161
20
1.28109
11
0.228034
21
1.27717
0
LINE
8
BLACK
6
CONTINUOUS
10
0.228034
20
1.27717
11
0.214106
21
1.27481
0
LINE
8
BLACK
6
CONTINUOUS
10
0.214106
20
1.27481
11
0.2
21
1.27402
0
LINE
8
BLACK
6
CONTINUOUS
10
0.2
20
1.27402
11
0.185894
21
1.27481
0
LINE
8
BLACK
6
CONTINUOUS
10
0.185894
20
1.27481
11
0.171966
21
1.27717
0
LINE
8
BLACK
6
CONTINUOUS
10
0.171966
20
1.27717
11
0.15839
21
1.28109
0
LINE
8
BLACK
6
CONTINUOUS
10
0.15839
20
1.28109
11
0.145337
21
1.28649
0
LINE
8
BLACK
6
CONTINUOUS
10
0.145337
20
1.28649
11
0.132972
21
1.29333
0
LINE
8
BLACK
6
CONTINUOUS
10
0.132972
20
1.29333
11
0.12145
21
1.3015
0
LINE
8
BLACK
6
CONTINUOUS
10
0.12145
20
1.3015
11
0.110916
21
1.31092
0
LINE
8
BLACK
6
CONTINUOUS
10
0.110916
20
1.31092
11
0.101502
21
1.32145
0
LINE
8
BLACK
6
CONTINUOUS
10
0.101502
20
1.32145
11
0.0933261
21
1.33297
0
LINE
8
BLACK
6
CONTINUOUS
10
0.0933261
20
1.33297
11
0.0864921
21
1.34534
0
LINE
8
BLACK
6
CONTINUOUS
10
0.0864921
20
1.34534
11
0.0810856
21
1.35839
0
LINE
8
BLACK
6
CONTINUOUS
10
0.0810856
20
1.35839
11
0.0771744
21
1.37197
0
LINE
8
BLACK
6
CONTINUOUS
10
0.0771744
20
1.37197
11
0.0748079
21
1.38589
0
LINE
8
BLACK
6
CONTINUOUS
10
0.0748079
20
1.38589
11
0.0740157
21
1.4
0
LINE
8
BLACK
6
CONTINUOUS
10
0.0740157
20
1.4
11
0.0748079
21
1.41411
0
LINE
8
BLACK
6
CONTINUOUS
10
0.0748079
20
1.41411
11
0.0771744
21
1.42803
0
LINE
8
BLACK
6
CONTINUOUS
10
0.0771744
20
1.42803
11
0.0810856
21
1.44161
0
LINE
8
BLACK
6
CONTINUOUS
10
0.0810856
20
1.44161
11
0.0864921
21
1.45466
0
LINE
8
BLACK
6
CONTINUOUS
10
0.0864921
20
1.45466
11
0.0933261
21
1.46703
0
LINE
8
BLACK
6
CONTINUOUS
10
0.0933261
20
1.46703
11
0.101502
21
1.47855
0
LINE
8
BLACK
6
CONTINUOUS
10
0.101502
20
1.47855
11
0.110916
21
1.48908
0
LINE
8
BLACK
6
CONTINUOUS
10
0.110916
20
1.48908
11
0.12145
21
1.4985
0
LINE
8
BLACK
6
CONTINUOUS
10
0.12145
20
1.4985
11
0.132972
21
1.50667
0
LINE
8
BLACK
6
CONTINUOUS
10
0.132972
20
1.50667
11
0.145337
21
1.51351
0
LINE
8
BLACK
6
CONTINUOUS
10
0.145337
20
1.51351
11
0.15839
21
1.51891
0
LINE
8
BLACK
6
CONTINUOUS
10
0.15839
20
1.51891
11
0.171966
21
1.52283
0
LINE
8
BLACK
6
CONTINUOUS
10
0.171966
20
1.52283
11
0.185894
21
1.52519
0
LINE
8
BLACK
6
CONTINUOUS
10
0.185894
20
1.52519
11
0.2
21
1.52598
0
LINE
8
BLACK
6
CONTINUOUS
10
0.2
20
1.52598
11
0.214106
21
1.52519
0
LINE
8
BLACK
6
CONTINUOUS
10
1.41411
20
1.52519
11
1.42803
21
1.52283
0
LINE
8
BLACK
6
CONTINUOUS
10
1.42803
20
1.52283
11
1.44161
21
1.51891
0
LINE
8
BLACK
6
CONTINUOUS
10
1.44161
20
1.51891
11
1.45466
21
1.51351
0
LINE
8
BLACK
6
CONTINUOUS
10
1.45466
20
1.51351
11
1.46703
21
1.50667
0
LINE
8
BLACK
6
CONTINUOUS
10
1.46703
20
1.50667
11
1.47855
21
1.4985
0
LINE
8
BLACK
6
CONTINUOUS
10
1.47855
20
1.4985
11
1.48908
21
1.48908
0
LINE
8
BLACK
6
CONTINUOUS
10
1.48908
20
1.48908
11
1.4985
21
1.47855
0
LINE
8
BLACK
6
CONTINUOUS
10
1.4985
20
1.47855
11
1.50667
21
1.46703
0
LINE
8
BLACK
6
CONTINUOUS
10
1.50667
20
1.46703
11
1.51351
21
1.45466
0
LINE
8
BLACK
6
CONTINUOUS
10
1.51351
20
1.45466
11
1.51891
21
1.44161
0
LINE
8
BLACK
6
CONTINUOUS
10
1.51891
20
1.44161
11
1.52283
21
1.42803
0
LINE
8
BLACK
6
CONTINUOUS
10
1.52283
20
1.42803
11
1.52519
21
1.41411
0
LINE
8
BLACK
6
CONTINUOUS
10
1.52519
20
1.41411
11
1.52598
21
1.4
0
LINE
8
BLACK
6
CONTINUOUS
10
1.52598
20
1.4
11
1.52519
21
1.38589
0
LINE
8
BLACK
6
CONTINUOUS
10
1.52519
20
1.38589
11
1.52283
21
1.37197
0
LINE
8
BLACK
6
CONTINUOUS
10
1.52283
20
1.37197
11
1.51891
21
1.35839
0
LINE
8
BLACK
6
CONTINUOUS
10
1.51891
20
1.35839
11
1.51351
21
1.34534
0
LINE
8
BLACK
6
CONTINUOUS
10
1.51351
20
1.34534
11
1.50667
21
1.33297
0
LINE
8
BLACK
6
CONTINUOUS
10
1.50667
20
1.33297
11
1.4985
21
1.32145
0
LINE
8
BLACK
6
CONTINUOUS
10
1.4985
20
1.32145
11
1.48908
21
1.31092
0
LINE
8
BLACK
6
CONTINUOUS
10
1.48908
20
1.31092
11
1.47855
21
1.3015
0
LINE
8
BLACK
6
CONTINUOUS
10
1.47855
20
1.3015
11
1.46703
21
1.29333
0
LINE
8
BLACK
6
CONTINUOUS
10
1.46703
20
1.29333
11
1.45466
21
1.28649
0
LINE
8
BLACK
6
CONTINUOUS
10
1.45466
20
1.28649
11
1.44161
21
1.28109
0
LINE
8
BLACK
6
CONTINUOUS
10
1.44161
20
1.28109
11
1.42803
21
1.27717
0
LINE
8
BLACK
6
CONTINUOUS
10
1.42803
20
1.27717
11
1.41411
21
1.27481
0
LINE
8
BLACK
6
CONTINUOUS
10
1.41411
20
1.27481
11
1.4
21
1.27402
0
LINE
8
BLACK
6
CONTINUOUS
10
1.4
20
1.27402
11
1.38589
21
1.27481
0
LINE
8
BLACK
6
CONTINUOUS
10
1.38589
20
1.27481
11
1.37197
21
1.27717
0
LINE
8
BLACK
6
CONTINUOUS
10
1.37197
20
1.27717
11
1.35839
21
1.28109
0
LINE
8
BLACK
6
CONTINUOUS
10
1.35839
20
1.28109
11
1.34534
21
1.28649
0
LINE
8
BLACK
6
CONTINUOUS
10
1.34534
20
1.28649
11
1.33297
21
1.29333
0
LINE
8
BLACK
6
CONTINUOUS
10
1.33297
20
1.29333
11
1.32145
21
1.3015
0
LINE
8
BLACK
6
CONTINUOUS
10
1.32145
20
1.3015
11
1.31092
21
1.31092
0
LINE
8
BLACK
6
CONTINUOUS
10
1.31092
20
1.31092
11
1.3015
21
1.32145
0
LINE
8
BLACK
6
CONTINUOUS
10
1.3015
20
1.32145
11
1.29333
21
1.33297
0
LINE
8
BLACK
6
CONTINUOUS
10
1.29333
20
1.33297
11
1.28649
21
1.34534
0
LINE
8
BLACK
6
CONTINUOUS
10
1.28649
20
1.34534
11
1.28109
21
1.35839
0
LINE
8
BLACK
6
CONTINUOUS
10
1.28109
20
1.35839
11
1.27717
21
1.37197
0
LINE
8
BLACK
6
CONTINUOUS
10
1.27717
20
1.37197
11
1.27481
21
1.38589
0
LINE
8
BLACK
6
CONTINUOUS
10
1.27481
20
1.38589
11
1.27402
21
1.4
0
LINE
8
BLACK
6
CONTINUOUS
10
1.27402
20
1.4
11
1.27481
21
1.41411
0
LINE
8
BLACK
6
CONTINUOUS
10
1.27481
20
1.41411
11
1.27717
21
1.42803
0
LINE
8
BLACK
6
CONTINUOUS
10
1.27717
20
1.42803
11
1.28109
21
1.44161
0
LINE
8
BLACK
6
CONTINUOUS
10
1.28109
20
1.44161
11
1.28649
21
1.45466
0
LINE
8
BLACK
6
CONTINUOUS
10
1.28649
20
1.45466
11
1.29333
21
1.46703
0
LINE
8
BLACK
6
CONTINUOUS
10
1.29333
20
1.46703
11
1.3015
21
1.47855
0
LINE
8
BLACK
6
CONTINUOUS
10
1.3015
20
1.47855
11
1.31092
21
1.48908
0
LINE
8
BLACK
6
CONTINUOUS
10
1.31092
20
1.48908
11
1.32145
21
1.4985
0
LINE
8
BLACK
6
CONTINUOUS
10
1.32145
20
1.4985
11
1.33297
21
1.50667
0
LINE
8
BLACK
6
CONTINUOUS
10
1.33297
20
1.50667
11
1.34534
21
1.51351
0
LINE
8
BLACK
6
CONTINUOUS
10
1.34534
20
1.51351
11
1.35839
21
1.51891
0
LINE
8
BLACK
6
CONTINUOUS
10
1.35839
20
1.51891
11
1.37197
21
1.52283
0
LINE
8
BLACK
6
CONTINUOUS
10
1.37197
20
1.52283
11
1.38589
21
1.52519
0
LINE
8
BLACK
6
CONTINUOUS
10
1.38589
20
1.52519
11
1.4
21
1.52598
0
LINE
8
BLACK
6
CONTINUOUS
10
1.4
20
1.52598
11
1.41411
21
1.52519
  0
ENDSEC
  0
EOF
