  0
SECTION
  2
HEADER
  9
$ANGBASE
  50
0.0
  9
$ANGDIR
  70
1
  9
$MEASUREMENT
  70
0
  0
ENDSEC
  0
SECTION
  2
TABLES
  0
TABLE
  2
LTYPE
  70
4
  0
LTYPE
  5
40F
  2
CONTINUOUS
  70
0
  3
Solid line
  72
65
  73
0
  40
0.0
  0
LTYPE
  5
410
  2
DASHDOT
 70
0
  3
Dash Dot ____ _ ____ _
 72
65
 73
4
 40
2.0
 49
1.25
 49
-0.25
 49
0.25
 49
-0.25
  0
LTYPE
  5
411
  2
DASHED
 70
0
  3
Dashed __ __ __ __ __
 72
65
 73
2
 40
0.75
 49
0.5
 49
-0.25
  0
LTYPE
  5
43B
  2
DOTTED
 70
0
  3
Dotted .  .  .  .
 72
65
 73
2
 40
0.2
 49
0.0
 49
-0.2
  0
ENDTAB
  0
TABLE
  2
STYLE
  70
4
  0
STYLE
  2
KICAD
  70
0
  40
0
  41
1
  42
1
  50
0
  71
0
  3
isocp.shx
  0
STYLE
  2
KICADB
  70
0
  40
0
  41
1
  42
1
  50
0
  71
0
  3
isocp.shx
  0
STYLE
  2
KICADI
  70
0
  40
0
  41
1
  42
1
  50
15
  71
0
  3
isocp.shx
  0
STYLE
  2
KICADBI
  70
0
  40
0
  41
1
  42
1
  50
15
  71
0
  3
isocp.shx
  0
ENDTAB
  0
TABLE
  2
LAYER
  70
1
  0
LAYER
  2
BLACK
  70
0
  62
7
  6
CONTINUOUS
  0
ENDTAB
  0
ENDSEC
  0
SECTION
  2
ENTITIES
0
LINE
8
BLACK
6
CONTINUOUS
10
0.22051
20
0.316316
11
0.233874
21
0.313148
0
LINE
8
BLACK
6
CONTINUOUS
10
0.233874
20
0.313148
11
0.246781
21
0.308451
0
LINE
8
BLACK
6
CONTINUOUS
10
0.246781
20
0.308451
11
0.259055
21
0.302286
0
LINE
8
BLACK
6
CONTINUOUS
10
0.259055
20
0.302286
11
0.270531
21
0.294739
0
LINE
8
BLACK
6
CONTINUOUS
10
0.270531
20
0.294739
11
0.281052
21
0.28591
0
LINE
8
BLACK
6
CONTINUOUS
10
0.281052
20
0.28591
11
0.290478
21
0.27592
0
LINE
8
BLACK
6
CONTINUOUS
10
0.290478
20
0.27592
11
0.29868
21
0.264903
0
LINE
8
BLACK
6
CONTINUOUS
10
0.29868
20
0.264903
11
0.305547
21
0.253008
0
LINE
8
BLACK
6
CONTINUOUS
10
0.305547
20
0.253008
11
0.310987
21
0.240396
0
LINE
8
BLACK
6
CONTINUOUS
10
0.310987
20
0.240396
11
0.314927
21
0.227238
0
LINE
8
BLACK
6
CONTINUOUS
10
0.314927
20
0.227238
11
0.317312
21
0.213712
0
LINE
8
BLACK
6
CONTINUOUS
10
0.317312
20
0.213712
11
0.31811
21
0.2
0
LINE
8
BLACK
6
CONTINUOUS
10
0.31811
20
0.2
11
0.317312
21
0.186288
0
LINE
8
BLACK
6
CONTINUOUS
10
0.317312
20
0.186288
11
0.314927
21
0.172762
0
LINE
8
BLACK
6
CONTINUOUS
10
0.314927
20
0.172762
11
0.310987
21
0.159604
0
LINE
8
BLACK
6
CONTINUOUS
10
0.310987
20
0.159604
11
0.305547
21
0.146992
0
LINE
8
BLACK
6
CONTINUOUS
10
0.305547
20
0.146992
11
0.29868
21
0.135097
0
LINE
8
BLACK
6
CONTINUOUS
10
0.29868
20
0.135097
11
0.290478
21
0.12408
0
LINE
8
BLACK
6
CONTINUOUS
10
0.290478
20
0.12408
11
0.281052
21
0.11409
0
LINE
8
BLACK
6
CONTINUOUS
10
0.281052
20
0.11409
11
0.270531
21
0.105261
0
LINE
8
BLACK
6
CONTINUOUS
10
0.270531
20
0.105261
11
0.259055
21
0.0977135
0
LINE
8
BLACK
6
CONTINUOUS
10
0.259055
20
0.0977135
11
0.246781
21
0.0915493
0
LINE
8
BLACK
6
CONTINUOUS
10
0.246781
20
0.0915493
11
0.233874
21
0.0868516
0
LINE
8
BLACK
6
CONTINUOUS
10
0.233874
20
0.0868516
11
0.22051
21
0.0836841
0
LINE
8
BLACK
6
CONTINUOUS
10
0.22051
20
0.0836841
11
0.206867
21
0.0820896
0
LINE
8
BLACK
6
CONTINUOUS
10
0.206867
20
0.0820896
11
0.193133
21
0.0820896
0
LINE
8
BLACK
6
CONTINUOUS
10
0.193133
20
0.0820896
11
0.17949
21
0.0836841
0
LINE
8
BLACK
6
CONTINUOUS
10
0.17949
20
0.0836841
11
0.166126
21
0.0868516
0
LINE
8
BLACK
6
CONTINUOUS
10
0.166126
20
0.0868516
11
0.153219
21
0.0915493
0
LINE
8
BLACK
6
CONTINUOUS
10
0.153219
20
0.0915493
11
0.140945
21
0.0977135
0
LINE
8
BLACK
6
CONTINUOUS
10
0.140945
20
0.0977135
11
0.129469
21
0.105261
0
LINE
8
BLACK
6
CONTINUOUS
10
0.129469
20
0.105261
11
0.118948
21
0.11409
0
LINE
8
BLACK
6
CONTINUOUS
10
0.118948
20
0.11409
11
0.109522
21
0.12408
0
LINE
8
BLACK
6
CONTINUOUS
10
0.109522
20
0.12408
11
0.10132
21
0.135097
0
LINE
8
BLACK
6
CONTINUOUS
10
0.10132
20
0.135097
11
0.0944528
21
0.146992
0
LINE
8
BLACK
6
CONTINUOUS
10
0.0944528
20
0.146992
11
0.0890127
21
0.159604
0
LINE
8
BLACK
6
CONTINUOUS
10
0.0890127
20
0.159604
11
0.0850734
21
0.172762
0
LINE
8
BLACK
6
CONTINUOUS
10
0.0850734
20
0.172762
11
0.0826884
21
0.186288
0
LINE
8
BLACK
6
CONTINUOUS
10
0.0826884
20
0.186288
11
0.0818898
21
0.2
0
LINE
8
BLACK
6
CONTINUOUS
10
0.0818898
20
0.2
11
0.0826884
21
0.213712
0
LINE
8
BLACK
6
CONTINUOUS
10
0.0826884
20
0.213712
11
0.0850734
21
0.227238
0
LINE
8
BLACK
6
CONTINUOUS
10
0.0850734
20
0.227238
11
0.0890127
21
0.240396
0
LINE
8
BLACK
6
CONTINUOUS
10
0.0890127
20
0.240396
11
0.0944528
21
0.253008
0
LINE
8
BLACK
6
CONTINUOUS
10
0.0944528
20
0.253008
11
0.10132
21
0.264903
0
LINE
8
BLACK
6
CONTINUOUS
10
0.10132
20
0.264903
11
0.109522
21
0.27592
0
LINE
8
BLACK
6
CONTINUOUS
10
0.109522
20
0.27592
11
0.118948
21
0.28591
0
LINE
8
BLACK
6
CONTINUOUS
10
0.118948
20
0.28591
11
0.129469
21
0.294739
0
LINE
8
BLACK
6
CONTINUOUS
10
0.129469
20
0.294739
11
0.140945
21
0.302286
0
LINE
8
BLACK
6
CONTINUOUS
10
0.140945
20
0.302286
11
0.153219
21
0.308451
0
LINE
8
BLACK
6
CONTINUOUS
10
0.153219
20
0.308451
11
0.166126
21
0.313148
0
LINE
8
BLACK
6
CONTINUOUS
10
0.166126
20
0.313148
11
0.17949
21
0.316316
0
LINE
8
BLACK
6
CONTINUOUS
10
0.17949
20
0.316316
11
0.193133
21
0.31791
0
LINE
8
BLACK
6
CONTINUOUS
10
0.193133
20
0.31791
11
0.206867
21
0.31791
0
LINE
8
BLACK
6
CONTINUOUS
10
0.206867
20
0.31791
11
0.22051
21
0.316316
0
LINE
8
BLACK
6
CONTINUOUS
10
1.42051
20
0.316316
11
1.43387
21
0.313148
0
LINE
8
BLACK
6
CONTINUOUS
10
1.43387
20
0.313148
11
1.44678
21
0.308451
0
LINE
8
BLACK
6
CONTINUOUS
10
1.44678
20
0.308451
11
1.45906
21
0.302286
0
LINE
8
BLACK
6
CONTINUOUS
10
1.45906
20
0.302286
11
1.47053
21
0.294739
0
LINE
8
BLACK
6
CONTINUOUS
10
1.47053
20
0.294739
11
1.48105
21
0.28591
0
LINE
8
BLACK
6
CONTINUOUS
10
1.48105
20
0.28591
11
1.49048
21
0.27592
0
LINE
8
BLACK
6
CONTINUOUS
10
1.49048
20
0.27592
11
1.49868
21
0.264903
0
LINE
8
BLACK
6
CONTINUOUS
10
1.49868
20
0.264903
11
1.50555
21
0.253008
0
LINE
8
BLACK
6
CONTINUOUS
10
1.50555
20
0.253008
11
1.51099
21
0.240396
0
LINE
8
BLACK
6
CONTINUOUS
10
1.51099
20
0.240396
11
1.51493
21
0.227238
0
LINE
8
BLACK
6
CONTINUOUS
10
1.51493
20
0.227238
11
1.51731
21
0.213712
0
LINE
8
BLACK
6
CONTINUOUS
10
1.51731
20
0.213712
11
1.51811
21
0.2
0
LINE
8
BLACK
6
CONTINUOUS
10
1.51811
20
0.2
11
1.51731
21
0.186288
0
LINE
8
BLACK
6
CONTINUOUS
10
1.51731
20
0.186288
11
1.51493
21
0.172762
0
LINE
8
BLACK
6
CONTINUOUS
10
1.51493
20
0.172762
11
1.51099
21
0.159604
0
LINE
8
BLACK
6
CONTINUOUS
10
1.51099
20
0.159604
11
1.50555
21
0.146992
0
LINE
8
BLACK
6
CONTINUOUS
10
1.50555
20
0.146992
11
1.49868
21
0.135097
0
LINE
8
BLACK
6
CONTINUOUS
10
1.49868
20
0.135097
11
1.49048
21
0.12408
0
LINE
8
BLACK
6
CONTINUOUS
10
1.49048
20
0.12408
11
1.48105
21
0.11409
0
LINE
8
BLACK
6
CONTINUOUS
10
1.48105
20
0.11409
11
1.47053
21
0.105261
0
LINE
8
BLACK
6
CONTINUOUS
10
1.47053
20
0.105261
11
1.45906
21
0.0977135
0
LINE
8
BLACK
6
CONTINUOUS
10
1.45906
20
0.0977135
11
1.44678
21
0.0915493
0
LINE
8
BLACK
6
CONTINUOUS
10
1.44678
20
0.0915493
11
1.43387
21
0.0868516
0
LINE
8
BLACK
6
CONTINUOUS
10
1.43387
20
0.0868516
11
1.42051
21
0.0836841
0
LINE
8
BLACK
6
CONTINUOUS
10
1.42051
20
0.0836841
11
1.40687
21
0.0820896
0
LINE
8
BLACK
6
CONTINUOUS
10
1.40687
20
0.0820896
11
1.39313
21
0.0820896
0
LINE
8
BLACK
6
CONTINUOUS
10
1.39313
20
0.0820896
11
1.37949
21
0.0836841
0
LINE
8
BLACK
6
CONTINUOUS
10
1.37949
20
0.0836841
11
1.36613
21
0.0868516
0
LINE
8
BLACK
6
CONTINUOUS
10
1.36613
20
0.0868516
11
1.35322
21
0.0915493
0
LINE
8
BLACK
6
CONTINUOUS
10
1.35322
20
0.0915493
11
1.34094
21
0.0977135
0
LINE
8
BLACK
6
CONTINUOUS
10
1.34094
20
0.0977135
11
1.32947
21
0.105261
0
LINE
8
BLACK
6
CONTINUOUS
10
1.32947
20
0.105261
11
1.31895
21
0.11409
0
LINE
8
BLACK
6
CONTINUOUS
10
1.31895
20
0.11409
11
1.30952
21
0.12408
0
LINE
8
BLACK
6
CONTINUOUS
10
1.30952
20
0.12408
11
1.30132
21
0.135097
0
LINE
8
BLACK
6
CONTINUOUS
10
1.30132
20
0.135097
11
1.29445
21
0.146992
0
LINE
8
BLACK
6
CONTINUOUS
10
1.29445
20
0.146992
11
1.28901
21
0.159604
0
LINE
8
BLACK
6
CONTINUOUS
10
1.28901
20
0.159604
11
1.28507
21
0.172762
0
LINE
8
BLACK
6
CONTINUOUS
10
1.28507
20
0.172762
11
1.28269
21
0.186288
0
LINE
8
BLACK
6
CONTINUOUS
10
1.28269
20
0.186288
11
1.28189
21
0.2
0
LINE
8
BLACK
6
CONTINUOUS
10
1.28189
20
0.2
11
1.28269
21
0.213712
0
LINE
8
BLACK
6
CONTINUOUS
10
1.28269
20
0.213712
11
1.28507
21
0.227238
0
LINE
8
BLACK
6
CONTINUOUS
10
1.28507
20
0.227238
11
1.28901
21
0.240396
0
LINE
8
BLACK
6
CONTINUOUS
10
1.28901
20
0.240396
11
1.29445
21
0.253008
0
LINE
8
BLACK
6
CONTINUOUS
10
1.29445
20
0.253008
11
1.30132
21
0.264903
0
LINE
8
BLACK
6
CONTINUOUS
10
1.30132
20
0.264903
11
1.30952
21
0.27592
0
LINE
8
BLACK
6
CONTINUOUS
10
1.30952
20
0.27592
11
1.31895
21
0.28591
0
LINE
8
BLACK
6
CONTINUOUS
10
1.31895
20
0.28591
11
1.32947
21
0.294739
0
LINE
8
BLACK
6
CONTINUOUS
10
1.32947
20
0.294739
11
1.34094
21
0.302286
0
LINE
8
BLACK
6
CONTINUOUS
10
1.34094
20
0.302286
11
1.35322
21
0.308451
0
LINE
8
BLACK
6
CONTINUOUS
10
1.35322
20
0.308451
11
1.36613
21
0.313148
0
LINE
8
BLACK
6
CONTINUOUS
10
1.36613
20
0.313148
11
1.37949
21
0.316316
0
LINE
8
BLACK
6
CONTINUOUS
10
1.37949
20
0.316316
11
1.39313
21
0.31791
0
LINE
8
BLACK
6
CONTINUOUS
10
1.39313
20
0.31791
11
1.40687
21
0.31791
0
LINE
8
BLACK
6
CONTINUOUS
10
1.40687
20
0.31791
11
1.42051
21
0.316316
0
LINE
8
BLACK
6
CONTINUOUS
10
0.22051
20
1.51632
11
0.233874
21
1.51315
0
LINE
8
BLACK
6
CONTINUOUS
10
0.233874
20
1.51315
11
0.246781
21
1.50845
0
LINE
8
BLACK
6
CONTINUOUS
10
0.246781
20
1.50845
11
0.259055
21
1.50229
0
LINE
8
BLACK
6
CONTINUOUS
10
0.259055
20
1.50229
11
0.270531
21
1.49474
0
LINE
8
BLACK
6
CONTINUOUS
10
0.270531
20
1.49474
11
0.281052
21
1.48591
0
LINE
8
BLACK
6
CONTINUOUS
10
0.281052
20
1.48591
11
0.290478
21
1.47592
0
LINE
8
BLACK
6
CONTINUOUS
10
0.290478
20
1.47592
11
0.29868
21
1.4649
0
LINE
8
BLACK
6
CONTINUOUS
10
0.29868
20
1.4649
11
0.305547
21
1.45301
0
LINE
8
BLACK
6
CONTINUOUS
10
0.305547
20
1.45301
11
0.310987
21
1.4404
0
LINE
8
BLACK
6
CONTINUOUS
10
0.310987
20
1.4404
11
0.314927
21
1.42724
0
LINE
8
BLACK
6
CONTINUOUS
10
0.314927
20
1.42724
11
0.317312
21
1.41371
0
LINE
8
BLACK
6
CONTINUOUS
10
0.317312
20
1.41371
11
0.31811
21
1.4
0
LINE
8
BLACK
6
CONTINUOUS
10
0.31811
20
1.4
11
0.317312
21
1.38629
0
LINE
8
BLACK
6
CONTINUOUS
10
0.317312
20
1.38629
11
0.314927
21
1.37276
0
LINE
8
BLACK
6
CONTINUOUS
10
0.314927
20
1.37276
11
0.310987
21
1.3596
0
LINE
8
BLACK
6
CONTINUOUS
10
0.310987
20
1.3596
11
0.305547
21
1.34699
0
LINE
8
BLACK
6
CONTINUOUS
10
0.305547
20
1.34699
11
0.29868
21
1.3351
0
LINE
8
BLACK
6
CONTINUOUS
10
0.29868
20
1.3351
11
0.290478
21
1.32408
0
LINE
8
BLACK
6
CONTINUOUS
10
0.290478
20
1.32408
11
0.281052
21
1.31409
0
LINE
8
BLACK
6
CONTINUOUS
10
0.281052
20
1.31409
11
0.270531
21
1.30526
0
LINE
8
BLACK
6
CONTINUOUS
10
0.270531
20
1.30526
11
0.259055
21
1.29771
0
LINE
8
BLACK
6
CONTINUOUS
10
0.259055
20
1.29771
11
0.246781
21
1.29155
0
LINE
8
BLACK
6
CONTINUOUS
10
0.246781
20
1.29155
11
0.233874
21
1.28685
0
LINE
8
BLACK
6
CONTINUOUS
10
0.233874
20
1.28685
11
0.22051
21
1.28368
0
LINE
8
BLACK
6
CONTINUOUS
10
0.22051
20
1.28368
11
0.206867
21
1.28209
0
LINE
8
BLACK
6
CONTINUOUS
10
0.206867
20
1.28209
11
0.193133
21
1.28209
0
LINE
8
BLACK
6
CONTINUOUS
10
0.193133
20
1.28209
11
0.17949
21
1.28368
0
LINE
8
BLACK
6
CONTINUOUS
10
0.17949
20
1.28368
11
0.166126
21
1.28685
0
LINE
8
BLACK
6
CONTINUOUS
10
0.166126
20
1.28685
11
0.153219
21
1.29155
0
LINE
8
BLACK
6
CONTINUOUS
10
0.153219
20
1.29155
11
0.140945
21
1.29771
0
LINE
8
BLACK
6
CONTINUOUS
10
0.140945
20
1.29771
11
0.129469
21
1.30526
0
LINE
8
BLACK
6
CONTINUOUS
10
0.129469
20
1.30526
11
0.118948
21
1.31409
0
LINE
8
BLACK
6
CONTINUOUS
10
0.118948
20
1.31409
11
0.109522
21
1.32408
0
LINE
8
BLACK
6
CONTINUOUS
10
0.109522
20
1.32408
11
0.10132
21
1.3351
0
LINE
8
BLACK
6
CONTINUOUS
10
0.10132
20
1.3351
11
0.0944528
21
1.34699
0
LINE
8
BLACK
6
CONTINUOUS
10
0.0944528
20
1.34699
11
0.0890127
21
1.3596
0
LINE
8
BLACK
6
CONTINUOUS
10
0.0890127
20
1.3596
11
0.0850734
21
1.37276
0
LINE
8
BLACK
6
CONTINUOUS
10
0.0850734
20
1.37276
11
0.0826884
21
1.38629
0
LINE
8
BLACK
6
CONTINUOUS
10
0.0826884
20
1.38629
11
0.0818898
21
1.4
0
LINE
8
BLACK
6
CONTINUOUS
10
0.0818898
20
1.4
11
0.0826884
21
1.41371
0
LINE
8
BLACK
6
CONTINUOUS
10
0.0826884
20
1.41371
11
0.0850734
21
1.42724
0
LINE
8
BLACK
6
CONTINUOUS
10
0.0850734
20
1.42724
11
0.0890127
21
1.4404
0
LINE
8
BLACK
6
CONTINUOUS
10
0.0890127
20
1.4404
11
0.0944528
21
1.45301
0
LINE
8
BLACK
6
CONTINUOUS
10
0.0944528
20
1.45301
11
0.10132
21
1.4649
0
LINE
8
BLACK
6
CONTINUOUS
10
0.10132
20
1.4649
11
0.109522
21
1.47592
0
LINE
8
BLACK
6
CONTINUOUS
10
0.109522
20
1.47592
11
0.118948
21
1.48591
0
LINE
8
BLACK
6
CONTINUOUS
10
0.118948
20
1.48591
11
0.129469
21
1.49474
0
LINE
8
BLACK
6
CONTINUOUS
10
0.129469
20
1.49474
11
0.140945
21
1.50229
0
LINE
8
BLACK
6
CONTINUOUS
10
0.140945
20
1.50229
11
0.153219
21
1.50845
0
LINE
8
BLACK
6
CONTINUOUS
10
0.153219
20
1.50845
11
0.166126
21
1.51315
0
LINE
8
BLACK
6
CONTINUOUS
10
0.166126
20
1.51315
11
0.17949
21
1.51632
0
LINE
8
BLACK
6
CONTINUOUS
10
0.17949
20
1.51632
11
0.193133
21
1.51791
0
LINE
8
BLACK
6
CONTINUOUS
10
0.193133
20
1.51791
11
0.206867
21
1.51791
0
LINE
8
BLACK
6
CONTINUOUS
10
0.206867
20
1.51791
11
0.22051
21
1.51632
0
LINE
8
BLACK
6
CONTINUOUS
10
1.42051
20
1.51632
11
1.43387
21
1.51315
0
LINE
8
BLACK
6
CONTINUOUS
10
1.43387
20
1.51315
11
1.44678
21
1.50845
0
LINE
8
BLACK
6
CONTINUOUS
10
1.44678
20
1.50845
11
1.45906
21
1.50229
0
LINE
8
BLACK
6
CONTINUOUS
10
1.45906
20
1.50229
11
1.47053
21
1.49474
0
LINE
8
BLACK
6
CONTINUOUS
10
1.47053
20
1.49474
11
1.48105
21
1.48591
0
LINE
8
BLACK
6
CONTINUOUS
10
1.48105
20
1.48591
11
1.49048
21
1.47592
0
LINE
8
BLACK
6
CONTINUOUS
10
1.49048
20
1.47592
11
1.49868
21
1.4649
0
LINE
8
BLACK
6
CONTINUOUS
10
1.49868
20
1.4649
11
1.50555
21
1.45301
0
LINE
8
BLACK
6
CONTINUOUS
10
1.50555
20
1.45301
11
1.51099
21
1.4404
0
LINE
8
BLACK
6
CONTINUOUS
10
1.51099
20
1.4404
11
1.51493
21
1.42724
0
LINE
8
BLACK
6
CONTINUOUS
10
1.51493
20
1.42724
11
1.51731
21
1.41371
0
LINE
8
BLACK
6
CONTINUOUS
10
1.51731
20
1.41371
11
1.51811
21
1.4
0
LINE
8
BLACK
6
CONTINUOUS
10
1.51811
20
1.4
11
1.51731
21
1.38629
0
LINE
8
BLACK
6
CONTINUOUS
10
1.51731
20
1.38629
11
1.51493
21
1.37276
0
LINE
8
BLACK
6
CONTINUOUS
10
1.51493
20
1.37276
11
1.51099
21
1.3596
0
LINE
8
BLACK
6
CONTINUOUS
10
1.51099
20
1.3596
11
1.50555
21
1.34699
0
LINE
8
BLACK
6
CONTINUOUS
10
1.50555
20
1.34699
11
1.49868
21
1.3351
0
LINE
8
BLACK
6
CONTINUOUS
10
1.49868
20
1.3351
11
1.49048
21
1.32408
0
LINE
8
BLACK
6
CONTINUOUS
10
1.49048
20
1.32408
11
1.48105
21
1.31409
0
LINE
8
BLACK
6
CONTINUOUS
10
1.48105
20
1.31409
11
1.47053
21
1.30526
0
LINE
8
BLACK
6
CONTINUOUS
10
1.47053
20
1.30526
11
1.45906
21
1.29771
0
LINE
8
BLACK
6
CONTINUOUS
10
1.45906
20
1.29771
11
1.44678
21
1.29155
0
LINE
8
BLACK
6
CONTINUOUS
10
1.44678
20
1.29155
11
1.43387
21
1.28685
0
LINE
8
BLACK
6
CONTINUOUS
10
1.43387
20
1.28685
11
1.42051
21
1.28368
0
LINE
8
BLACK
6
CONTINUOUS
10
1.42051
20
1.28368
11
1.40687
21
1.28209
0
LINE
8
BLACK
6
CONTINUOUS
10
1.40687
20
1.28209
11
1.39313
21
1.28209
0
LINE
8
BLACK
6
CONTINUOUS
10
1.39313
20
1.28209
11
1.37949
21
1.28368
0
LINE
8
BLACK
6
CONTINUOUS
10
1.37949
20
1.28368
11
1.36613
21
1.28685
0
LINE
8
BLACK
6
CONTINUOUS
10
1.36613
20
1.28685
11
1.35322
21
1.29155
0
LINE
8
BLACK
6
CONTINUOUS
10
1.35322
20
1.29155
11
1.34094
21
1.29771
0
LINE
8
BLACK
6
CONTINUOUS
10
1.34094
20
1.29771
11
1.32947
21
1.30526
0
LINE
8
BLACK
6
CONTINUOUS
10
1.32947
20
1.30526
11
1.31895
21
1.31409
0
LINE
8
BLACK
6
CONTINUOUS
10
1.31895
20
1.31409
11
1.30952
21
1.32408
0
LINE
8
BLACK
6
CONTINUOUS
10
1.30952
20
1.32408
11
1.30132
21
1.3351
0
LINE
8
BLACK
6
CONTINUOUS
10
1.30132
20
1.3351
11
1.29445
21
1.34699
0
LINE
8
BLACK
6
CONTINUOUS
10
1.29445
20
1.34699
11
1.28901
21
1.3596
0
LINE
8
BLACK
6
CONTINUOUS
10
1.28901
20
1.3596
11
1.28507
21
1.37276
0
LINE
8
BLACK
6
CONTINUOUS
10
1.28507
20
1.37276
11
1.28269
21
1.38629
0
LINE
8
BLACK
6
CONTINUOUS
10
1.28269
20
1.38629
11
1.28189
21
1.4
0
LINE
8
BLACK
6
CONTINUOUS
10
1.28189
20
1.4
11
1.28269
21
1.41371
0
LINE
8
BLACK
6
CONTINUOUS
10
1.28269
20
1.41371
11
1.28507
21
1.42724
0
LINE
8
BLACK
6
CONTINUOUS
10
1.28507
20
1.42724
11
1.28901
21
1.4404
0
LINE
8
BLACK
6
CONTINUOUS
10
1.28901
20
1.4404
11
1.29445
21
1.45301
0
LINE
8
BLACK
6
CONTINUOUS
10
1.29445
20
1.45301
11
1.30132
21
1.4649
0
LINE
8
BLACK
6
CONTINUOUS
10
1.30132
20
1.4649
11
1.30952
21
1.47592
0
LINE
8
BLACK
6
CONTINUOUS
10
1.30952
20
1.47592
11
1.31895
21
1.48591
0
LINE
8
BLACK
6
CONTINUOUS
10
1.31895
20
1.48591
11
1.32947
21
1.49474
0
LINE
8
BLACK
6
CONTINUOUS
10
1.32947
20
1.49474
11
1.34094
21
1.50229
0
LINE
8
BLACK
6
CONTINUOUS
10
1.34094
20
1.50229
11
1.35322
21
1.50845
0
LINE
8
BLACK
6
CONTINUOUS
10
1.35322
20
1.50845
11
1.36613
21
1.51315
0
LINE
8
BLACK
6
CONTINUOUS
10
1.36613
20
1.51315
11
1.37949
21
1.51632
0
LINE
8
BLACK
6
CONTINUOUS
10
1.37949
20
1.51632
11
1.39313
21
1.51791
0
LINE
8
BLACK
6
CONTINUOUS
10
1.39313
20
1.51791
11
1.40687
21
1.51791
0
LINE
8
BLACK
6
CONTINUOUS
10
1.40687
20
1.51791
11
1.42051
21
1.51632
  0
ENDSEC
  0
EOF
