  0
SECTION
  2
HEADER
  9
$ANGBASE
  50
0.0
  9
$ANGDIR
  70
1
  9
$MEASUREMENT
  70
0
  0
ENDSEC
  0
SECTION
  2
TABLES
  0
TABLE
  2
LTYPE
  70
4
  0
LTYPE
  5
40F
  2
CONTINUOUS
  70
0
  3
Solid line
  72
65
  73
0
  40
0.0
  0
LTYPE
  5
410
  2
DASHDOT
 70
0
  3
Dash Dot ____ _ ____ _
 72
65
 73
4
 40
2.0
 49
1.25
 49
-0.25
 49
0.25
 49
-0.25
  0
LTYPE
  5
411
  2
DASHED
 70
0
  3
Dashed __ __ __ __ __
 72
65
 73
2
 40
0.75
 49
0.5
 49
-0.25
  0
LTYPE
  5
43B
  2
DOTTED
 70
0
  3
Dotted .  .  .  .
 72
65
 73
2
 40
0.2
 49
0.0
 49
-0.2
  0
ENDTAB
  0
TABLE
  2
STYLE
  70
4
  0
STYLE
  2
KICAD
  70
0
  40
0
  41
1
  42
1
  50
0
  71
0
  3
isocp.shx
  0
STYLE
  2
KICADB
  70
0
  40
0
  41
1
  42
1
  50
0
  71
0
  3
isocp.shx
  0
STYLE
  2
KICADI
  70
0
  40
0
  41
1
  42
1
  50
15
  71
0
  3
isocp.shx
  0
STYLE
  2
KICADBI
  70
0
  40
0
  41
1
  42
1
  50
15
  71
0
  3
isocp.shx
  0
ENDTAB
  0
TABLE
  2
LAYER
  70
1
  0
LAYER
  2
BLACK
  70
0
  62
7
  6
CONTINUOUS
  0
ENDTAB
  0
ENDSEC
  0
SECTION
  2
ENTITIES
0
LINE
8
BLACK
6
CONTINUOUS
10
1.09797
20
0.693211
11
1.0981
21
0.693234
0
LINE
8
BLACK
6
CONTINUOUS
10
1.0981
20
0.693234
11
1.09822
21
0.693168
0
LINE
8
BLACK
6
CONTINUOUS
10
1.09822
20
0.693168
11
1.0986
21
0.693101
0
LINE
8
BLACK
6
CONTINUOUS
10
1.0986
20
0.693101
11
1.09919
21
0.692608
0
LINE
8
BLACK
6
CONTINUOUS
10
1.09919
20
0.692608
11
1.09985
21
0.692224
0
LINE
8
BLACK
6
CONTINUOUS
10
1.09985
20
0.692224
11
1.09994
21
0.691974
0
LINE
8
BLACK
6
CONTINUOUS
10
1.09994
20
0.691974
11
1.10015
21
0.691803
0
LINE
8
BLACK
6
CONTINUOUS
10
1.10015
20
0.691803
11
1.10028
21
0.691047
0
LINE
8
BLACK
6
CONTINUOUS
10
1.10028
20
0.691047
11
1.10054
21
0.690326
0
LINE
8
BLACK
6
CONTINUOUS
10
1.10054
20
0.690326
11
1.10054
21
0.671579
0
LINE
8
BLACK
6
CONTINUOUS
10
1.10054
20
0.671579
11
1.10037
21
0.670569
0
LINE
8
BLACK
6
CONTINUOUS
10
1.10037
20
0.670569
11
1.09907
21
0.669021
0
LINE
8
BLACK
6
CONTINUOUS
10
1.09907
20
0.669021
11
1.09708
21
0.668671
0
LINE
8
BLACK
6
CONTINUOUS
10
1.09708
20
0.668671
11
1.09533
21
0.669681
0
LINE
8
BLACK
6
CONTINUOUS
10
1.09533
20
0.669681
11
1.09464
21
0.671579
0
LINE
8
BLACK
6
CONTINUOUS
10
1.09464
20
0.671579
11
1.09464
21
0.687373
0
LINE
8
BLACK
6
CONTINUOUS
10
1.09464
20
0.687373
11
1.05822
21
0.687373
0
LINE
8
BLACK
6
CONTINUOUS
10
1.05822
20
0.687373
11
1.05721
21
0.687551
0
LINE
8
BLACK
6
CONTINUOUS
10
1.05721
20
0.687551
11
1.05566
21
0.68885
0
LINE
8
BLACK
6
CONTINUOUS
10
1.05566
20
0.68885
11
1.05531
21
0.690839
0
LINE
8
BLACK
6
CONTINUOUS
10
1.05531
20
0.690839
11
1.05632
21
0.692588
0
LINE
8
BLACK
6
CONTINUOUS
10
1.05632
20
0.692588
11
1.05822
21
0.693279
0
LINE
8
BLACK
6
CONTINUOUS
10
1.05822
20
0.693279
11
1.09759
21
0.693279
0
LINE
8
BLACK
6
CONTINUOUS
10
1.09759
20
0.693279
11
1.09797
21
0.693211
0
LINE
8
BLACK
6
CONTINUOUS
10
1.0986
20
0.734346
11
1.10015
21
0.733047
0
LINE
8
BLACK
6
CONTINUOUS
10
1.10015
20
0.733047
11
1.1005
21
0.731058
0
LINE
8
BLACK
6
CONTINUOUS
10
1.1005
20
0.731058
11
1.09949
21
0.729309
0
LINE
8
BLACK
6
CONTINUOUS
10
1.09949
20
0.729309
11
1.09759
21
0.728618
0
LINE
8
BLACK
6
CONTINUOUS
10
1.09759
20
0.728618
11
1.06934
21
0.728618
0
LINE
8
BLACK
6
CONTINUOUS
10
1.06934
20
0.728618
11
1.09906
21
0.711638
0
LINE
8
BLACK
6
CONTINUOUS
10
1.09906
20
0.711638
11
1.09984
21
0.710982
0
LINE
8
BLACK
6
CONTINUOUS
10
1.09984
20
0.710982
11
1.09994
21
0.710726
0
LINE
8
BLACK
6
CONTINUOUS
10
1.09994
20
0.710726
11
1.10015
21
0.71055
0
LINE
8
BLACK
6
CONTINUOUS
10
1.10015
20
0.71055
11
1.10028
21
0.709801
0
LINE
8
BLACK
6
CONTINUOUS
10
1.10028
20
0.709801
11
1.10054
21
0.709087
0
LINE
8
BLACK
6
CONTINUOUS
10
1.10054
20
0.709087
11
1.10045
21
0.70883
0
LINE
8
BLACK
6
CONTINUOUS
10
1.10045
20
0.70883
11
1.1005
21
0.708561
0
LINE
8
BLACK
6
CONTINUOUS
10
1.1005
20
0.708561
11
1.10012
21
0.707902
0
LINE
8
BLACK
6
CONTINUOUS
10
1.10012
20
0.707902
11
1.09986
21
0.707186
0
LINE
8
BLACK
6
CONTINUOUS
10
1.09986
20
0.707186
11
1.09963
21
0.707048
0
LINE
8
BLACK
6
CONTINUOUS
10
1.09963
20
0.707048
11
1.09949
21
0.706812
0
LINE
8
BLACK
6
CONTINUOUS
10
1.09949
20
0.706812
11
1.09877
21
0.706552
0
LINE
8
BLACK
6
CONTINUOUS
10
1.09877
20
0.706552
11
1.09812
21
0.706168
0
LINE
8
BLACK
6
CONTINUOUS
10
1.09812
20
0.706168
11
1.09785
21
0.706214
0
LINE
8
BLACK
6
CONTINUOUS
10
1.09785
20
0.706214
11
1.09759
21
0.706121
0
LINE
8
BLACK
6
CONTINUOUS
10
1.09759
20
0.706121
11
1.05822
21
0.706121
0
LINE
8
BLACK
6
CONTINUOUS
10
1.05822
20
0.706121
11
1.05721
21
0.706299
0
LINE
8
BLACK
6
CONTINUOUS
10
1.05721
20
0.706299
11
1.05566
21
0.707597
0
LINE
8
BLACK
6
CONTINUOUS
10
1.05566
20
0.707597
11
1.05531
21
0.709587
0
LINE
8
BLACK
6
CONTINUOUS
10
1.05531
20
0.709587
11
1.05632
21
0.711336
0
LINE
8
BLACK
6
CONTINUOUS
10
1.05632
20
0.711336
11
1.05822
21
0.712027
0
LINE
8
BLACK
6
CONTINUOUS
10
1.05822
20
0.712027
11
1.08647
21
0.712027
0
LINE
8
BLACK
6
CONTINUOUS
10
1.08647
20
0.712027
11
1.05676
21
0.729007
0
LINE
8
BLACK
6
CONTINUOUS
10
1.05676
20
0.729007
11
1.05597
21
0.729663
0
LINE
8
BLACK
6
CONTINUOUS
10
1.05597
20
0.729663
11
1.05587
21
0.729919
0
LINE
8
BLACK
6
CONTINUOUS
10
1.05587
20
0.729919
11
1.05566
21
0.730095
0
LINE
8
BLACK
6
CONTINUOUS
10
1.05566
20
0.730095
11
1.05553
21
0.730844
0
LINE
8
BLACK
6
CONTINUOUS
10
1.05553
20
0.730844
11
1.05527
21
0.731558
0
LINE
8
BLACK
6
CONTINUOUS
10
1.05527
20
0.731558
11
1.05536
21
0.731815
0
LINE
8
BLACK
6
CONTINUOUS
10
1.05536
20
0.731815
11
1.05531
21
0.732084
0
LINE
8
BLACK
6
CONTINUOUS
10
1.05531
20
0.732084
11
1.05569
21
0.732743
0
LINE
8
BLACK
6
CONTINUOUS
10
1.05569
20
0.732743
11
1.05595
21
0.733459
0
LINE
8
BLACK
6
CONTINUOUS
10
1.05595
20
0.733459
11
1.05619
21
0.733596
0
LINE
8
BLACK
6
CONTINUOUS
10
1.05619
20
0.733596
11
1.05632
21
0.733833
0
LINE
8
BLACK
6
CONTINUOUS
10
1.05632
20
0.733833
11
1.05704
21
0.734093
0
LINE
8
BLACK
6
CONTINUOUS
10
1.05704
20
0.734093
11
1.0577
21
0.734477
0
LINE
8
BLACK
6
CONTINUOUS
10
1.0577
20
0.734477
11
1.05796
21
0.73443
0
LINE
8
BLACK
6
CONTINUOUS
10
1.05796
20
0.73443
11
1.05822
21
0.734524
0
LINE
8
BLACK
6
CONTINUOUS
10
1.05822
20
0.734524
11
1.09759
21
0.734524
0
LINE
8
BLACK
6
CONTINUOUS
10
1.09759
20
0.734524
11
1.0986
21
0.734346
0
LINE
8
BLACK
6
CONTINUOUS
10
1.09822
20
0.775656
11
1.09836
21
0.775668
0
LINE
8
BLACK
6
CONTINUOUS
10
1.09836
20
0.775668
11
1.09908
21
0.775158
0
LINE
8
BLACK
6
CONTINUOUS
10
1.09908
20
0.775158
11
1.09985
21
0.774714
0
LINE
8
BLACK
6
CONTINUOUS
10
1.09985
20
0.774714
11
1.0999
21
0.774587
0
LINE
8
BLACK
6
CONTINUOUS
10
1.0999
20
0.774587
11
1.10001
21
0.774509
0
LINE
8
BLACK
6
CONTINUOUS
10
1.10001
20
0.774509
11
1.10024
21
0.773651
0
LINE
8
BLACK
6
CONTINUOUS
10
1.10024
20
0.773651
11
1.10054
21
0.772816
0
LINE
8
BLACK
6
CONTINUOUS
10
1.10054
20
0.772816
11
1.10054
21
0.748444
0
LINE
8
BLACK
6
CONTINUOUS
10
1.10054
20
0.748444
11
1.10037
21
0.747434
0
LINE
8
BLACK
6
CONTINUOUS
10
1.10037
20
0.747434
11
1.09907
21
0.745887
0
LINE
8
BLACK
6
CONTINUOUS
10
1.09907
20
0.745887
11
1.09708
21
0.745536
0
LINE
8
BLACK
6
CONTINUOUS
10
1.09708
20
0.745536
11
1.09533
21
0.746546
0
LINE
8
BLACK
6
CONTINUOUS
10
1.09533
20
0.746546
11
1.09464
21
0.748444
0
LINE
8
BLACK
6
CONTINUOUS
10
1.09464
20
0.748444
11
1.09464
21
0.765687
0
LINE
8
BLACK
6
CONTINUOUS
10
1.09464
20
0.765687
11
1.07718
21
0.748231
0
LINE
8
BLACK
6
CONTINUOUS
10
1.07718
20
0.748231
11
1.07634
21
0.747643
0
LINE
8
BLACK
6
CONTINUOUS
10
1.07634
20
0.747643
11
1.07617
21
0.747627
0
LINE
8
BLACK
6
CONTINUOUS
10
1.07617
20
0.747627
11
1.07603
21
0.747517
0
LINE
8
BLACK
6
CONTINUOUS
10
1.07603
20
0.747517
11
1.0704
21
0.745643
0
LINE
8
BLACK
6
CONTINUOUS
10
1.0704
20
0.745643
11
1.06953
21
0.745513
0
LINE
8
BLACK
6
CONTINUOUS
10
1.06953
20
0.745513
11
1.06947
21
0.745491
0
LINE
8
BLACK
6
CONTINUOUS
10
1.06947
20
0.745491
11
1.06572
21
0.745491
0
LINE
8
BLACK
6
CONTINUOUS
10
1.06572
20
0.745491
11
1.06471
21
0.745669
0
LINE
8
BLACK
6
CONTINUOUS
10
1.06471
20
0.745669
11
1.06458
21
0.745783
0
LINE
8
BLACK
6
CONTINUOUS
10
1.06458
20
0.745783
11
1.0644
21
0.745803
0
LINE
8
BLACK
6
CONTINUOUS
10
1.0644
20
0.745803
11
1.06065
21
0.747678
0
LINE
8
BLACK
6
CONTINUOUS
10
1.06065
20
0.747678
11
1.05994
21
0.748204
0
LINE
8
BLACK
6
CONTINUOUS
10
1.05994
20
0.748204
11
1.05988
21
0.748231
0
LINE
8
BLACK
6
CONTINUOUS
10
1.05988
20
0.748231
11
1.05801
21
0.750106
0
LINE
8
BLACK
6
CONTINUOUS
10
1.05801
20
0.750106
11
1.0575
21
0.750829
0
LINE
8
BLACK
6
CONTINUOUS
10
1.0575
20
0.750829
11
1.05745
21
0.750873
0
LINE
8
BLACK
6
CONTINUOUS
10
1.05745
20
0.750873
11
1.05558
21
0.754622
0
LINE
8
BLACK
6
CONTINUOUS
10
1.05558
20
0.754622
11
1.05529
21
0.755605
0
LINE
8
BLACK
6
CONTINUOUS
10
1.05529
20
0.755605
11
1.05533
21
0.755777
0
LINE
8
BLACK
6
CONTINUOUS
10
1.05533
20
0.755777
11
1.05527
21
0.755943
0
LINE
8
BLACK
6
CONTINUOUS
10
1.05527
20
0.755943
11
1.05527
21
0.765317
0
LINE
8
BLACK
6
CONTINUOUS
10
1.05527
20
0.765317
11
1.05545
21
0.766327
0
LINE
8
BLACK
6
CONTINUOUS
10
1.05545
20
0.766327
11
1.05556
21
0.766462
0
LINE
8
BLACK
6
CONTINUOUS
10
1.05556
20
0.766462
11
1.05558
21
0.766637
0
LINE
8
BLACK
6
CONTINUOUS
10
1.05558
20
0.766637
11
1.05745
21
0.770387
0
LINE
8
BLACK
6
CONTINUOUS
10
1.05745
20
0.770387
11
1.05798
21
0.771096
0
LINE
8
BLACK
6
CONTINUOUS
10
1.05798
20
0.771096
11
1.05801
21
0.771154
0
LINE
8
BLACK
6
CONTINUOUS
10
1.05801
20
0.771154
11
1.05988
21
0.773029
0
LINE
8
BLACK
6
CONTINUOUS
10
1.05988
20
0.773029
11
1.06072
21
0.773617
0
LINE
8
BLACK
6
CONTINUOUS
10
1.06072
20
0.773617
11
1.06273
21
0.773793
0
LINE
8
BLACK
6
CONTINUOUS
10
1.06273
20
0.773793
11
1.06439
21
0.772635
0
LINE
8
BLACK
6
CONTINUOUS
10
1.06439
20
0.772635
11
1.06491
21
0.770684
0
LINE
8
BLACK
6
CONTINUOUS
10
1.06491
20
0.770684
11
1.06406
21
0.768853
0
LINE
8
BLACK
6
CONTINUOUS
10
1.06406
20
0.768853
11
1.06252
21
0.767317
0
LINE
8
BLACK
6
CONTINUOUS
10
1.06252
20
0.767317
11
1.06117
21
0.76462
0
LINE
8
BLACK
6
CONTINUOUS
10
1.06117
20
0.76462
11
1.06117
21
0.75664
0
LINE
8
BLACK
6
CONTINUOUS
10
1.06117
20
0.75664
11
1.06252
21
0.753943
0
LINE
8
BLACK
6
CONTINUOUS
10
1.06252
20
0.753943
11
1.06372
21
0.752745
0
LINE
8
BLACK
6
CONTINUOUS
10
1.06372
20
0.752745
11
1.06642
21
0.751397
0
LINE
8
BLACK
6
CONTINUOUS
10
1.06642
20
0.751397
11
1.06899
21
0.751397
0
LINE
8
BLACK
6
CONTINUOUS
10
1.06899
20
0.751397
11
1.0735
21
0.752899
0
LINE
8
BLACK
6
CONTINUOUS
10
1.0735
20
0.752899
11
1.0955
21
0.774904
0
LINE
8
BLACK
6
CONTINUOUS
10
1.0955
20
0.774904
11
1.09603
21
0.775274
0
LINE
8
BLACK
6
CONTINUOUS
10
1.09603
20
0.775274
11
1.09611
21
0.775373
0
LINE
8
BLACK
6
CONTINUOUS
10
1.09611
20
0.775373
11
1.09619
21
0.775387
0
LINE
8
BLACK
6
CONTINUOUS
10
1.09619
20
0.775387
11
1.09634
21
0.775492
0
LINE
8
BLACK
6
CONTINUOUS
10
1.09634
20
0.775492
11
1.09723
21
0.775569
0
LINE
8
BLACK
6
CONTINUOUS
10
1.09723
20
0.775569
11
1.0981
21
0.775724
0
LINE
8
BLACK
6
CONTINUOUS
10
1.0981
20
0.775724
11
1.09822
21
0.775656
0
LINE
8
BLACK
6
CONTINUOUS
10
1.08317
20
0.811287
11
1.08331
21
0.811301
0
LINE
8
BLACK
6
CONTINUOUS
10
1.08331
20
0.811301
11
1.09081
21
0.809426
0
LINE
8
BLACK
6
CONTINUOUS
10
1.09081
20
0.809426
11
1.09127
21
0.809219
0
LINE
8
BLACK
6
CONTINUOUS
10
1.09127
20
0.809219
11
1.09141
21
0.809203
0
LINE
8
BLACK
6
CONTINUOUS
10
1.09141
20
0.809203
11
1.09516
21
0.807328
0
LINE
8
BLACK
6
CONTINUOUS
10
1.09516
20
0.807328
11
1.09587
21
0.806802
0
LINE
8
BLACK
6
CONTINUOUS
10
1.09587
20
0.806802
11
1.09593
21
0.806775
0
LINE
8
BLACK
6
CONTINUOUS
10
1.09593
20
0.806775
11
1.0978
21
0.8049
0
LINE
8
BLACK
6
CONTINUOUS
10
1.0978
20
0.8049
11
1.09831
21
0.804177
0
LINE
8
BLACK
6
CONTINUOUS
10
1.09831
20
0.804177
11
1.09836
21
0.804133
0
LINE
8
BLACK
6
CONTINUOUS
10
1.09836
20
0.804133
11
1.10023
21
0.800383
0
LINE
8
BLACK
6
CONTINUOUS
10
1.10023
20
0.800383
11
1.10052
21
0.7994
0
LINE
8
BLACK
6
CONTINUOUS
10
1.10052
20
0.7994
11
1.10048
21
0.799228
0
LINE
8
BLACK
6
CONTINUOUS
10
1.10048
20
0.799228
11
1.10054
21
0.799063
0
LINE
8
BLACK
6
CONTINUOUS
10
1.10054
20
0.799063
11
1.10054
21
0.795313
0
LINE
8
BLACK
6
CONTINUOUS
10
1.10054
20
0.795313
11
1.10037
21
0.794303
0
LINE
8
BLACK
6
CONTINUOUS
10
1.10037
20
0.794303
11
1.10025
21
0.794168
0
LINE
8
BLACK
6
CONTINUOUS
10
1.10025
20
0.794168
11
1.10023
21
0.793993
0
LINE
8
BLACK
6
CONTINUOUS
10
1.10023
20
0.793993
11
1.09836
21
0.790243
0
LINE
8
BLACK
6
CONTINUOUS
10
1.09836
20
0.790243
11
1.09783
21
0.789534
0
LINE
8
BLACK
6
CONTINUOUS
10
1.09783
20
0.789534
11
1.0978
21
0.789476
0
LINE
8
BLACK
6
CONTINUOUS
10
1.0978
20
0.789476
11
1.09593
21
0.787601
0
LINE
8
BLACK
6
CONTINUOUS
10
1.09593
20
0.787601
11
1.09521
21
0.787095
0
LINE
8
BLACK
6
CONTINUOUS
10
1.09521
20
0.787095
11
1.09516
21
0.787048
0
LINE
8
BLACK
6
CONTINUOUS
10
1.09516
20
0.787048
11
1.09141
21
0.785173
0
LINE
8
BLACK
6
CONTINUOUS
10
1.09141
20
0.785173
11
1.09092
21
0.785028
0
LINE
8
BLACK
6
CONTINUOUS
10
1.09092
20
0.785028
11
1.09081
21
0.784949
0
LINE
8
BLACK
6
CONTINUOUS
10
1.09081
20
0.784949
11
1.08331
21
0.783075
0
LINE
8
BLACK
6
CONTINUOUS
10
1.08331
20
0.783075
11
1.08272
21
0.783033
0
LINE
8
BLACK
6
CONTINUOUS
10
1.08272
20
0.783033
11
1.08259
21
0.782986
0
LINE
8
BLACK
6
CONTINUOUS
10
1.08259
20
0.782986
11
1.07322
21
0.782986
0
LINE
8
BLACK
6
CONTINUOUS
10
1.07322
20
0.782986
11
1.07264
21
0.783089
0
LINE
8
BLACK
6
CONTINUOUS
10
1.07264
20
0.783089
11
1.0725
21
0.783075
0
LINE
8
BLACK
6
CONTINUOUS
10
1.0725
20
0.783075
11
1.065
21
0.784949
0
LINE
8
BLACK
6
CONTINUOUS
10
1.065
20
0.784949
11
1.06454
21
0.785157
0
LINE
8
BLACK
6
CONTINUOUS
10
1.06454
20
0.785157
11
1.0644
21
0.785173
0
LINE
8
BLACK
6
CONTINUOUS
10
1.0644
20
0.785173
11
1.06065
21
0.787048
0
LINE
8
BLACK
6
CONTINUOUS
10
1.06065
20
0.787048
11
1.05994
21
0.787574
0
LINE
8
BLACK
6
CONTINUOUS
10
1.05994
20
0.787574
11
1.05988
21
0.787601
0
LINE
8
BLACK
6
CONTINUOUS
10
1.05988
20
0.787601
11
1.05801
21
0.789476
0
LINE
8
BLACK
6
CONTINUOUS
10
1.05801
20
0.789476
11
1.0575
21
0.790199
0
LINE
8
BLACK
6
CONTINUOUS
10
1.0575
20
0.790199
11
1.05745
21
0.790243
0
LINE
8
BLACK
6
CONTINUOUS
10
1.05745
20
0.790243
11
1.05558
21
0.793993
0
LINE
8
BLACK
6
CONTINUOUS
10
1.05558
20
0.793993
11
1.05529
21
0.794976
0
LINE
8
BLACK
6
CONTINUOUS
10
1.05529
20
0.794976
11
1.05533
21
0.795147
0
LINE
8
BLACK
6
CONTINUOUS
10
1.05533
20
0.795147
11
1.05527
21
0.795313
0
LINE
8
BLACK
6
CONTINUOUS
10
1.05527
20
0.795313
11
1.05527
21
0.799063
0
LINE
8
BLACK
6
CONTINUOUS
10
1.05527
20
0.799063
11
1.05545
21
0.800073
0
LINE
8
BLACK
6
CONTINUOUS
10
1.05545
20
0.800073
11
1.05556
21
0.800208
0
LINE
8
BLACK
6
CONTINUOUS
10
1.05556
20
0.800208
11
1.05558
21
0.800383
0
LINE
8
BLACK
6
CONTINUOUS
10
1.05558
20
0.800383
11
1.05745
21
0.804133
0
LINE
8
BLACK
6
CONTINUOUS
10
1.05745
20
0.804133
11
1.05798
21
0.804842
0
LINE
8
BLACK
6
CONTINUOUS
10
1.05798
20
0.804842
11
1.05801
21
0.8049
0
LINE
8
BLACK
6
CONTINUOUS
10
1.05801
20
0.8049
11
1.05988
21
0.806775
0
LINE
8
BLACK
6
CONTINUOUS
10
1.05988
20
0.806775
11
1.06061
21
0.807281
0
LINE
8
BLACK
6
CONTINUOUS
10
1.06061
20
0.807281
11
1.06065
21
0.807328
0
LINE
8
BLACK
6
CONTINUOUS
10
1.06065
20
0.807328
11
1.0644
21
0.809203
0
LINE
8
BLACK
6
CONTINUOUS
10
1.0644
20
0.809203
11
1.06489
21
0.809348
0
LINE
8
BLACK
6
CONTINUOUS
10
1.06489
20
0.809348
11
1.065
21
0.809426
0
LINE
8
BLACK
6
CONTINUOUS
10
1.065
20
0.809426
11
1.0725
21
0.811301
0
LINE
8
BLACK
6
CONTINUOUS
10
1.0725
20
0.811301
11
1.07309
21
0.811342
0
LINE
8
BLACK
6
CONTINUOUS
10
1.07309
20
0.811342
11
1.07322
21
0.811389
0
LINE
8
BLACK
6
CONTINUOUS
10
1.07322
20
0.811389
11
1.08259
21
0.811389
0
LINE
8
BLACK
6
CONTINUOUS
10
1.08259
20
0.811389
11
1.08317
21
0.811287
0
LINE
8
BLACK
6
CONTINUOUS
10
1.06675
20
0.803776
11
1.06372
21
0.80226
0
LINE
8
BLACK
6
CONTINUOUS
10
1.06372
20
0.80226
11
1.06252
21
0.801063
0
LINE
8
BLACK
6
CONTINUOUS
10
1.06252
20
0.801063
11
1.06117
21
0.798366
0
LINE
8
BLACK
6
CONTINUOUS
10
1.06117
20
0.798366
11
1.06117
21
0.79601
0
LINE
8
BLACK
6
CONTINUOUS
10
1.06117
20
0.79601
11
1.06252
21
0.793313
0
LINE
8
BLACK
6
CONTINUOUS
10
1.06252
20
0.793313
11
1.06372
21
0.792115
0
LINE
8
BLACK
6
CONTINUOUS
10
1.06372
20
0.792115
11
1.06675
21
0.7906
0
LINE
8
BLACK
6
CONTINUOUS
10
1.06675
20
0.7906
11
1.07358
21
0.788892
0
LINE
8
BLACK
6
CONTINUOUS
10
1.07358
20
0.788892
11
1.08223
21
0.788892
0
LINE
8
BLACK
6
CONTINUOUS
10
1.08223
20
0.788892
11
1.08906
21
0.7906
0
LINE
8
BLACK
6
CONTINUOUS
10
1.08906
20
0.7906
11
1.09209
21
0.792116
0
LINE
8
BLACK
6
CONTINUOUS
10
1.09209
20
0.792116
11
1.09329
21
0.793313
0
LINE
8
BLACK
6
CONTINUOUS
10
1.09329
20
0.793313
11
1.09464
21
0.79601
0
LINE
8
BLACK
6
CONTINUOUS
10
1.09464
20
0.79601
11
1.09464
21
0.798366
0
LINE
8
BLACK
6
CONTINUOUS
10
1.09464
20
0.798366
11
1.09329
21
0.801063
0
LINE
8
BLACK
6
CONTINUOUS
10
1.09329
20
0.801063
11
1.09209
21
0.80226
0
LINE
8
BLACK
6
CONTINUOUS
10
1.09209
20
0.80226
11
1.08906
21
0.803776
0
LINE
8
BLACK
6
CONTINUOUS
10
1.08906
20
0.803776
11
1.08223
21
0.805484
0
LINE
8
BLACK
6
CONTINUOUS
10
1.08223
20
0.805484
11
1.07358
21
0.805484
0
LINE
8
BLACK
6
CONTINUOUS
10
1.07358
20
0.805484
11
1.06675
21
0.803776
0
LINE
8
BLACK
6
CONTINUOUS
10
1.07123
20
0.848303
11
1.07234
21
0.846618
0
LINE
8
BLACK
6
CONTINUOUS
10
1.07234
20
0.846618
11
1.07211
21
0.844611
0
LINE
8
BLACK
6
CONTINUOUS
10
1.07211
20
0.844611
11
1.07024
21
0.840862
0
LINE
8
BLACK
6
CONTINUOUS
10
1.07024
20
0.840862
11
1.06971
21
0.840153
0
LINE
8
BLACK
6
CONTINUOUS
10
1.06971
20
0.840153
11
1.06968
21
0.840094
0
LINE
8
BLACK
6
CONTINUOUS
10
1.06968
20
0.840094
11
1.06722
21
0.837636
0
LINE
8
BLACK
6
CONTINUOUS
10
1.06722
20
0.837636
11
1.09464
21
0.837636
0
LINE
8
BLACK
6
CONTINUOUS
10
1.09464
20
0.837636
11
1.09464
21
0.845932
0
LINE
8
BLACK
6
CONTINUOUS
10
1.09464
20
0.845932
11
1.09482
21
0.846942
0
LINE
8
BLACK
6
CONTINUOUS
10
1.09482
20
0.846942
11
1.09611
21
0.848489
0
LINE
8
BLACK
6
CONTINUOUS
10
1.09611
20
0.848489
11
1.0981
21
0.84884
0
LINE
8
BLACK
6
CONTINUOUS
10
1.0981
20
0.84884
11
1.09985
21
0.84783
0
LINE
8
BLACK
6
CONTINUOUS
10
1.09985
20
0.84783
11
1.10054
21
0.845932
0
LINE
8
BLACK
6
CONTINUOUS
10
1.10054
20
0.845932
11
1.10054
21
0.823435
0
LINE
8
BLACK
6
CONTINUOUS
10
1.10054
20
0.823435
11
1.10037
21
0.822425
0
LINE
8
BLACK
6
CONTINUOUS
10
1.10037
20
0.822425
11
1.09907
21
0.820877
0
LINE
8
BLACK
6
CONTINUOUS
10
1.09907
20
0.820877
11
1.09708
21
0.820527
0
LINE
8
BLACK
6
CONTINUOUS
10
1.09708
20
0.820527
11
1.09533
21
0.821537
0
LINE
8
BLACK
6
CONTINUOUS
10
1.09533
20
0.821537
11
1.09464
21
0.823435
0
LINE
8
BLACK
6
CONTINUOUS
10
1.09464
20
0.823435
11
1.09464
21
0.83173
0
LINE
8
BLACK
6
CONTINUOUS
10
1.09464
20
0.83173
11
1.05822
21
0.83173
0
LINE
8
BLACK
6
CONTINUOUS
10
1.05822
20
0.83173
11
1.05721
21
0.831908
0
LINE
8
BLACK
6
CONTINUOUS
10
1.05721
20
0.831908
11
1.05708
21
0.832018
0
LINE
8
BLACK
6
CONTINUOUS
10
1.05708
20
0.832018
11
1.05691
21
0.832036
0
LINE
8
BLACK
6
CONTINUOUS
10
1.05691
20
0.832036
11
1.05632
21
0.832656
0
LINE
8
BLACK
6
CONTINUOUS
10
1.05632
20
0.832656
11
1.05566
21
0.833207
0
LINE
8
BLACK
6
CONTINUOUS
10
1.05566
20
0.833207
11
1.05563
21
0.833374
0
LINE
8
BLACK
6
CONTINUOUS
10
1.05563
20
0.833374
11
1.05552
21
0.833497
0
LINE
8
BLACK
6
CONTINUOUS
10
1.05552
20
0.833497
11
1.05546
21
0.834352
0
LINE
8
BLACK
6
CONTINUOUS
10
1.05546
20
0.834352
11
1.05531
21
0.835196
0
LINE
8
BLACK
6
CONTINUOUS
10
1.05531
20
0.835196
11
1.0554
21
0.835343
0
LINE
8
BLACK
6
CONTINUOUS
10
1.0554
20
0.835343
11
1.05539
21
0.835512
0
LINE
8
BLACK
6
CONTINUOUS
10
1.05539
20
0.835512
11
1.05589
21
0.836203
0
LINE
8
BLACK
6
CONTINUOUS
10
1.05589
20
0.836203
11
1.05632
21
0.836945
0
LINE
8
BLACK
6
CONTINUOUS
10
1.05632
20
0.836945
11
1.05648
21
0.837003
0
LINE
8
BLACK
6
CONTINUOUS
10
1.05648
20
0.837003
11
1.05658
21
0.83714
0
LINE
8
BLACK
6
CONTINUOUS
10
1.05658
20
0.83714
11
1.06196
21
0.840727
0
LINE
8
BLACK
6
CONTINUOUS
10
1.06196
20
0.840727
11
1.06517
21
0.843931
0
LINE
8
BLACK
6
CONTINUOUS
10
1.06517
20
0.843931
11
1.06683
21
0.847252
0
LINE
8
BLACK
6
CONTINUOUS
10
1.06683
20
0.847252
11
1.06744
21
0.848076
0
LINE
8
BLACK
6
CONTINUOUS
10
1.06744
20
0.848076
11
1.06929
21
0.848879
0
LINE
8
BLACK
6
CONTINUOUS
10
1.06929
20
0.848879
11
1.07123
21
0.848303
0
LINE
8
BLACK
6
CONTINUOUS
10
1.07123
20
0.885799
11
1.07234
21
0.884113
0
LINE
8
BLACK
6
CONTINUOUS
10
1.07234
20
0.884113
11
1.07211
21
0.882107
0
LINE
8
BLACK
6
CONTINUOUS
10
1.07211
20
0.882107
11
1.07024
21
0.878357
0
LINE
8
BLACK
6
CONTINUOUS
10
1.07024
20
0.878357
11
1.06971
21
0.877648
0
LINE
8
BLACK
6
CONTINUOUS
10
1.06971
20
0.877648
11
1.06968
21
0.87759
0
LINE
8
BLACK
6
CONTINUOUS
10
1.06968
20
0.87759
11
1.06722
21
0.875131
0
LINE
8
BLACK
6
CONTINUOUS
10
1.06722
20
0.875131
11
1.09464
21
0.875131
0
LINE
8
BLACK
6
CONTINUOUS
10
1.09464
20
0.875131
11
1.09464
21
0.883427
0
LINE
8
BLACK
6
CONTINUOUS
10
1.09464
20
0.883427
11
1.09482
21
0.884437
0
LINE
8
BLACK
6
CONTINUOUS
10
1.09482
20
0.884437
11
1.09611
21
0.885984
0
LINE
8
BLACK
6
CONTINUOUS
10
1.09611
20
0.885984
11
1.0981
21
0.886335
0
LINE
8
BLACK
6
CONTINUOUS
10
1.0981
20
0.886335
11
1.09985
21
0.885325
0
LINE
8
BLACK
6
CONTINUOUS
10
1.09985
20
0.885325
11
1.10054
21
0.883427
0
LINE
8
BLACK
6
CONTINUOUS
10
1.10054
20
0.883427
11
1.10054
21
0.86093
0
LINE
8
BLACK
6
CONTINUOUS
10
1.10054
20
0.86093
11
1.10037
21
0.85992
0
LINE
8
BLACK
6
CONTINUOUS
10
1.10037
20
0.85992
11
1.09907
21
0.858373
0
LINE
8
BLACK
6
CONTINUOUS
10
1.09907
20
0.858373
11
1.09708
21
0.858022
0
LINE
8
BLACK
6
CONTINUOUS
10
1.09708
20
0.858022
11
1.09533
21
0.859032
0
LINE
8
BLACK
6
CONTINUOUS
10
1.09533
20
0.859032
11
1.09464
21
0.86093
0
LINE
8
BLACK
6
CONTINUOUS
10
1.09464
20
0.86093
11
1.09464
21
0.869226
0
LINE
8
BLACK
6
CONTINUOUS
10
1.09464
20
0.869226
11
1.05822
21
0.869226
0
LINE
8
BLACK
6
CONTINUOUS
10
1.05822
20
0.869226
11
1.05721
21
0.869404
0
LINE
8
BLACK
6
CONTINUOUS
10
1.05721
20
0.869404
11
1.05708
21
0.869513
0
LINE
8
BLACK
6
CONTINUOUS
10
1.05708
20
0.869513
11
1.05691
21
0.869532
0
LINE
8
BLACK
6
CONTINUOUS
10
1.05691
20
0.869532
11
1.05632
21
0.870151
0
LINE
8
BLACK
6
CONTINUOUS
10
1.05632
20
0.870151
11
1.05566
21
0.870702
0
LINE
8
BLACK
6
CONTINUOUS
10
1.05566
20
0.870702
11
1.05563
21
0.870869
0
LINE
8
BLACK
6
CONTINUOUS
10
1.05563
20
0.870869
11
1.05552
21
0.870992
0
LINE
8
BLACK
6
CONTINUOUS
10
1.05552
20
0.870992
11
1.05546
21
0.871847
0
LINE
8
BLACK
6
CONTINUOUS
10
1.05546
20
0.871847
11
1.05531
21
0.872691
0
LINE
8
BLACK
6
CONTINUOUS
10
1.05531
20
0.872691
11
1.0554
21
0.872838
0
LINE
8
BLACK
6
CONTINUOUS
10
1.0554
20
0.872838
11
1.05539
21
0.873008
0
LINE
8
BLACK
6
CONTINUOUS
10
1.05539
20
0.873008
11
1.05589
21
0.873698
0
LINE
8
BLACK
6
CONTINUOUS
10
1.05589
20
0.873698
11
1.05632
21
0.87444
0
LINE
8
BLACK
6
CONTINUOUS
10
1.05632
20
0.87444
11
1.05648
21
0.874498
0
LINE
8
BLACK
6
CONTINUOUS
10
1.05648
20
0.874498
11
1.05658
21
0.874635
0
LINE
8
BLACK
6
CONTINUOUS
10
1.05658
20
0.874635
11
1.06196
21
0.878223
0
LINE
8
BLACK
6
CONTINUOUS
10
1.06196
20
0.878223
11
1.06517
21
0.881427
0
LINE
8
BLACK
6
CONTINUOUS
10
1.06517
20
0.881427
11
1.06683
21
0.884748
0
LINE
8
BLACK
6
CONTINUOUS
10
1.06683
20
0.884748
11
1.06744
21
0.885571
0
LINE
8
BLACK
6
CONTINUOUS
10
1.06744
20
0.885571
11
1.06929
21
0.886374
0
LINE
8
BLACK
6
CONTINUOUS
10
1.06929
20
0.886374
11
1.07123
21
0.885799
0
LINE
8
BLACK
6
CONTINUOUS
10
1.0986
20
0.925572
11
1.10015
21
0.924274
0
LINE
8
BLACK
6
CONTINUOUS
10
1.10015
20
0.924274
11
1.1005
21
0.922284
0
LINE
8
BLACK
6
CONTINUOUS
10
1.1005
20
0.922284
11
1.09949
21
0.920535
0
LINE
8
BLACK
6
CONTINUOUS
10
1.09949
20
0.920535
11
1.09759
21
0.919844
0
LINE
8
BLACK
6
CONTINUOUS
10
1.09759
20
0.919844
11
1.07992
21
0.919844
0
LINE
8
BLACK
6
CONTINUOUS
10
1.07992
20
0.919844
11
1.07992
21
0.903253
0
LINE
8
BLACK
6
CONTINUOUS
10
1.07992
20
0.903253
11
1.09759
21
0.903253
0
LINE
8
BLACK
6
CONTINUOUS
10
1.09759
20
0.903253
11
1.0986
21
0.903075
0
LINE
8
BLACK
6
CONTINUOUS
10
1.0986
20
0.903075
11
1.10015
21
0.901776
0
LINE
8
BLACK
6
CONTINUOUS
10
1.10015
20
0.901776
11
1.1005
21
0.899787
0
LINE
8
BLACK
6
CONTINUOUS
10
1.1005
20
0.899787
11
1.09949
21
0.898038
0
LINE
8
BLACK
6
CONTINUOUS
10
1.09949
20
0.898038
11
1.09759
21
0.897347
0
LINE
8
BLACK
6
CONTINUOUS
10
1.09759
20
0.897347
11
1.05822
21
0.897347
0
LINE
8
BLACK
6
CONTINUOUS
10
1.05822
20
0.897347
11
1.05721
21
0.897525
0
LINE
8
BLACK
6
CONTINUOUS
10
1.05721
20
0.897525
11
1.05566
21
0.898824
0
LINE
8
BLACK
6
CONTINUOUS
10
1.05566
20
0.898824
11
1.05531
21
0.900813
0
LINE
8
BLACK
6
CONTINUOUS
10
1.05531
20
0.900813
11
1.05632
21
0.902562
0
LINE
8
BLACK
6
CONTINUOUS
10
1.05632
20
0.902562
11
1.05822
21
0.903253
0
LINE
8
BLACK
6
CONTINUOUS
10
1.05822
20
0.903253
11
1.07402
21
0.903253
0
LINE
8
BLACK
6
CONTINUOUS
10
1.07402
20
0.903253
11
1.07402
21
0.919844
0
LINE
8
BLACK
6
CONTINUOUS
10
1.07402
20
0.919844
11
1.05822
21
0.919844
0
LINE
8
BLACK
6
CONTINUOUS
10
1.05822
20
0.919844
11
1.05721
21
0.920022
0
LINE
8
BLACK
6
CONTINUOUS
10
1.05721
20
0.920022
11
1.05566
21
0.921321
0
LINE
8
BLACK
6
CONTINUOUS
10
1.05566
20
0.921321
11
1.05531
21
0.92331
0
LINE
8
BLACK
6
CONTINUOUS
10
1.05531
20
0.92331
11
1.05632
21
0.925059
0
LINE
8
BLACK
6
CONTINUOUS
10
1.05632
20
0.925059
11
1.05822
21
0.92575
0
LINE
8
BLACK
6
CONTINUOUS
10
1.05822
20
0.92575
11
1.09759
21
0.92575
0
LINE
8
BLACK
6
CONTINUOUS
10
1.09759
20
0.92575
11
1.0986
21
0.925572
  0
ENDSEC
  0
EOF
