  0
SECTION
  2
HEADER
  9
$ANGBASE
  50
0.0
  9
$ANGDIR
  70
1
  9
$MEASUREMENT
  70
0
  0
ENDSEC
  0
SECTION
  2
TABLES
  0
TABLE
  2
LTYPE
  70
4
  0
LTYPE
  5
40F
  2
CONTINUOUS
  70
0
  3
Solid line
  72
65
  73
0
  40
0.0
  0
LTYPE
  5
410
  2
DASHDOT
 70
0
  3
Dash Dot ____ _ ____ _
 72
65
 73
4
 40
2.0
 49
1.25
 49
-0.25
 49
0.25
 49
-0.25
  0
LTYPE
  5
411
  2
DASHED
 70
0
  3
Dashed __ __ __ __ __
 72
65
 73
2
 40
0.75
 49
0.5
 49
-0.25
  0
LTYPE
  5
43B
  2
DOTTED
 70
0
  3
Dotted .  .  .  .
 72
65
 73
2
 40
0.2
 49
0.0
 49
-0.2
  0
ENDTAB
  0
TABLE
  2
STYLE
  70
4
  0
STYLE
  2
KICAD
  70
0
  40
0
  41
1
  42
1
  50
0
  71
0
  3
isocp.shx
  0
STYLE
  2
KICADB
  70
0
  40
0
  41
1
  42
1
  50
0
  71
0
  3
isocp.shx
  0
STYLE
  2
KICADI
  70
0
  40
0
  41
1
  42
1
  50
15
  71
0
  3
isocp.shx
  0
STYLE
  2
KICADBI
  70
0
  40
0
  41
1
  42
1
  50
15
  71
0
  3
isocp.shx
  0
ENDTAB
  0
TABLE
  2
LAYER
  70
1
  0
LAYER
  2
BLACK
  70
0
  62
7
  6
CONTINUOUS
  0
ENDTAB
  0
ENDSEC
  0
SECTION
  2
ENTITIES
0
LINE
8
BLACK
6
CONTINUOUS
10
0.970513
20
0.107275
11
0.973068
21
0.105568
0
LINE
8
BLACK
6
CONTINUOUS
10
0.973068
20
0.105568
11
0.974775
21
0.103013
0
LINE
8
BLACK
6
CONTINUOUS
10
0.974775
20
0.103013
11
0.975374
21
0.1
0
LINE
8
BLACK
6
CONTINUOUS
10
0.975374
20
0.1
11
0.975374
21
0.065
0
LINE
8
BLACK
6
CONTINUOUS
10
0.975374
20
0.065
11
0.974775
21
0.0619867
0
LINE
8
BLACK
6
CONTINUOUS
10
0.974775
20
0.0619867
11
0.973068
21
0.0594322
0
LINE
8
BLACK
6
CONTINUOUS
10
0.973068
20
0.0594322
11
0.970513
21
0.0577254
0
LINE
8
BLACK
6
CONTINUOUS
10
0.970513
20
0.0577254
11
0.9675
21
0.057126
0
LINE
8
BLACK
6
CONTINUOUS
10
0.9675
20
0.057126
11
0.9125
21
0.057126
0
LINE
8
BLACK
6
CONTINUOUS
10
0.9125
20
0.057126
11
0.909487
21
0.0577254
0
LINE
8
BLACK
6
CONTINUOUS
10
0.909487
20
0.0577254
11
0.906932
21
0.0594322
0
LINE
8
BLACK
6
CONTINUOUS
10
0.906932
20
0.0594322
11
0.905225
21
0.0619867
0
LINE
8
BLACK
6
CONTINUOUS
10
0.905225
20
0.0619867
11
0.904626
21
0.065
0
LINE
8
BLACK
6
CONTINUOUS
10
0.904626
20
0.065
11
0.904626
21
0.1
0
LINE
8
BLACK
6
CONTINUOUS
10
0.904626
20
0.1
11
0.905225
21
0.103013
0
LINE
8
BLACK
6
CONTINUOUS
10
0.905225
20
0.103013
11
0.906932
21
0.105568
0
LINE
8
BLACK
6
CONTINUOUS
10
0.906932
20
0.105568
11
0.909487
21
0.107275
0
LINE
8
BLACK
6
CONTINUOUS
10
0.909487
20
0.107275
11
0.9125
21
0.107874
0
LINE
8
BLACK
6
CONTINUOUS
10
0.9125
20
0.107874
11
0.9675
21
0.107874
0
LINE
8
BLACK
6
CONTINUOUS
10
0.9675
20
0.107874
11
0.970513
21
0.107275
0
LINE
8
BLACK
6
CONTINUOUS
10
1.07051
20
0.107275
11
1.07307
21
0.105568
0
LINE
8
BLACK
6
CONTINUOUS
10
1.07307
20
0.105568
11
1.07477
21
0.103013
0
LINE
8
BLACK
6
CONTINUOUS
10
1.07477
20
0.103013
11
1.07537
21
0.1
0
LINE
8
BLACK
6
CONTINUOUS
10
1.07537
20
0.1
11
1.07537
21
0.065
0
LINE
8
BLACK
6
CONTINUOUS
10
1.07537
20
0.065
11
1.07477
21
0.0619867
0
LINE
8
BLACK
6
CONTINUOUS
10
1.07477
20
0.0619867
11
1.07307
21
0.0594322
0
LINE
8
BLACK
6
CONTINUOUS
10
1.07307
20
0.0594322
11
1.07051
21
0.0577254
0
LINE
8
BLACK
6
CONTINUOUS
10
1.07051
20
0.0577254
11
1.0675
21
0.057126
0
LINE
8
BLACK
6
CONTINUOUS
10
1.0675
20
0.057126
11
1.0125
21
0.057126
0
LINE
8
BLACK
6
CONTINUOUS
10
1.0125
20
0.057126
11
1.00949
21
0.0577254
0
LINE
8
BLACK
6
CONTINUOUS
10
1.00949
20
0.0577254
11
1.00693
21
0.0594322
0
LINE
8
BLACK
6
CONTINUOUS
10
1.00693
20
0.0594322
11
1.00523
21
0.0619867
0
LINE
8
BLACK
6
CONTINUOUS
10
1.00523
20
0.0619867
11
1.00463
21
0.065
0
LINE
8
BLACK
6
CONTINUOUS
10
1.00463
20
0.065
11
1.00463
21
0.1
0
LINE
8
BLACK
6
CONTINUOUS
10
1.00463
20
0.1
11
1.00523
21
0.103013
0
LINE
8
BLACK
6
CONTINUOUS
10
1.00523
20
0.103013
11
1.00693
21
0.105568
0
LINE
8
BLACK
6
CONTINUOUS
10
1.00693
20
0.105568
11
1.00949
21
0.107275
0
LINE
8
BLACK
6
CONTINUOUS
10
1.00949
20
0.107275
11
1.0125
21
0.107874
0
LINE
8
BLACK
6
CONTINUOUS
10
1.0125
20
0.107874
11
1.0675
21
0.107874
0
LINE
8
BLACK
6
CONTINUOUS
10
1.0675
20
0.107874
11
1.07051
21
0.107275
0
LINE
8
BLACK
6
CONTINUOUS
10
0.214106
20
0.325192
11
0.228034
21
0.322826
0
LINE
8
BLACK
6
CONTINUOUS
10
0.228034
20
0.322826
11
0.24161
21
0.318914
0
LINE
8
BLACK
6
CONTINUOUS
10
0.24161
20
0.318914
11
0.254663
21
0.313508
0
LINE
8
BLACK
6
CONTINUOUS
10
0.254663
20
0.313508
11
0.267028
21
0.306674
0
LINE
8
BLACK
6
CONTINUOUS
10
0.267028
20
0.306674
11
0.27855
21
0.298498
0
LINE
8
BLACK
6
CONTINUOUS
10
0.27855
20
0.298498
11
0.289084
21
0.289084
0
LINE
8
BLACK
6
CONTINUOUS
10
0.289084
20
0.289084
11
0.298498
21
0.27855
0
LINE
8
BLACK
6
CONTINUOUS
10
0.298498
20
0.27855
11
0.306674
21
0.267028
0
LINE
8
BLACK
6
CONTINUOUS
10
0.306674
20
0.267028
11
0.313508
21
0.254663
0
LINE
8
BLACK
6
CONTINUOUS
10
0.313508
20
0.254663
11
0.318914
21
0.24161
0
LINE
8
BLACK
6
CONTINUOUS
10
0.318914
20
0.24161
11
0.322826
21
0.228034
0
LINE
8
BLACK
6
CONTINUOUS
10
0.322826
20
0.228034
11
0.325192
21
0.214106
0
LINE
8
BLACK
6
CONTINUOUS
10
0.325192
20
0.214106
11
0.325984
21
0.2
0
LINE
8
BLACK
6
CONTINUOUS
10
0.325984
20
0.2
11
0.325192
21
0.185894
0
LINE
8
BLACK
6
CONTINUOUS
10
0.325192
20
0.185894
11
0.322826
21
0.171966
0
LINE
8
BLACK
6
CONTINUOUS
10
0.322826
20
0.171966
11
0.318914
21
0.15839
0
LINE
8
BLACK
6
CONTINUOUS
10
0.318914
20
0.15839
11
0.313508
21
0.145337
0
LINE
8
BLACK
6
CONTINUOUS
10
0.313508
20
0.145337
11
0.306674
21
0.132972
0
LINE
8
BLACK
6
CONTINUOUS
10
0.306674
20
0.132972
11
0.298498
21
0.12145
0
LINE
8
BLACK
6
CONTINUOUS
10
0.298498
20
0.12145
11
0.289084
21
0.110916
0
LINE
8
BLACK
6
CONTINUOUS
10
0.289084
20
0.110916
11
0.27855
21
0.101502
0
LINE
8
BLACK
6
CONTINUOUS
10
0.27855
20
0.101502
11
0.267028
21
0.0933261
0
LINE
8
BLACK
6
CONTINUOUS
10
0.267028
20
0.0933261
11
0.254663
21
0.0864921
0
LINE
8
BLACK
6
CONTINUOUS
10
0.254663
20
0.0864921
11
0.24161
21
0.0810856
0
LINE
8
BLACK
6
CONTINUOUS
10
0.24161
20
0.0810856
11
0.228034
21
0.0771744
0
LINE
8
BLACK
6
CONTINUOUS
10
0.228034
20
0.0771744
11
0.214106
21
0.0748079
0
LINE
8
BLACK
6
CONTINUOUS
10
0.214106
20
0.0748079
11
0.2
21
0.0740157
0
LINE
8
BLACK
6
CONTINUOUS
10
0.2
20
0.0740157
11
0.185894
21
0.0748079
0
LINE
8
BLACK
6
CONTINUOUS
10
0.185894
20
0.0748079
11
0.171966
21
0.0771744
0
LINE
8
BLACK
6
CONTINUOUS
10
0.171966
20
0.0771744
11
0.15839
21
0.0810856
0
LINE
8
BLACK
6
CONTINUOUS
10
0.15839
20
0.0810856
11
0.145337
21
0.0864921
0
LINE
8
BLACK
6
CONTINUOUS
10
0.145337
20
0.0864921
11
0.132972
21
0.0933261
0
LINE
8
BLACK
6
CONTINUOUS
10
0.132972
20
0.0933261
11
0.12145
21
0.101502
0
LINE
8
BLACK
6
CONTINUOUS
10
0.12145
20
0.101502
11
0.110916
21
0.110916
0
LINE
8
BLACK
6
CONTINUOUS
10
0.110916
20
0.110916
11
0.101502
21
0.12145
0
LINE
8
BLACK
6
CONTINUOUS
10
0.101502
20
0.12145
11
0.0933261
21
0.132972
0
LINE
8
BLACK
6
CONTINUOUS
10
0.0933261
20
0.132972
11
0.0864921
21
0.145337
0
LINE
8
BLACK
6
CONTINUOUS
10
0.0864921
20
0.145337
11
0.0810856
21
0.15839
0
LINE
8
BLACK
6
CONTINUOUS
10
0.0810856
20
0.15839
11
0.0771744
21
0.171966
0
LINE
8
BLACK
6
CONTINUOUS
10
0.0771744
20
0.171966
11
0.0748079
21
0.185894
0
LINE
8
BLACK
6
CONTINUOUS
10
0.0748079
20
0.185894
11
0.0740157
21
0.2
0
LINE
8
BLACK
6
CONTINUOUS
10
0.0740157
20
0.2
11
0.0748079
21
0.214106
0
LINE
8
BLACK
6
CONTINUOUS
10
0.0748079
20
0.214106
11
0.0771744
21
0.228034
0
LINE
8
BLACK
6
CONTINUOUS
10
0.0771744
20
0.228034
11
0.0810856
21
0.24161
0
LINE
8
BLACK
6
CONTINUOUS
10
0.0810856
20
0.24161
11
0.0864921
21
0.254663
0
LINE
8
BLACK
6
CONTINUOUS
10
0.0864921
20
0.254663
11
0.0933261
21
0.267028
0
LINE
8
BLACK
6
CONTINUOUS
10
0.0933261
20
0.267028
11
0.101502
21
0.27855
0
LINE
8
BLACK
6
CONTINUOUS
10
0.101502
20
0.27855
11
0.110916
21
0.289084
0
LINE
8
BLACK
6
CONTINUOUS
10
0.110916
20
0.289084
11
0.12145
21
0.298498
0
LINE
8
BLACK
6
CONTINUOUS
10
0.12145
20
0.298498
11
0.132972
21
0.306674
0
LINE
8
BLACK
6
CONTINUOUS
10
0.132972
20
0.306674
11
0.145337
21
0.313508
0
LINE
8
BLACK
6
CONTINUOUS
10
0.145337
20
0.313508
11
0.15839
21
0.318914
0
LINE
8
BLACK
6
CONTINUOUS
10
0.15839
20
0.318914
11
0.171966
21
0.322826
0
LINE
8
BLACK
6
CONTINUOUS
10
0.171966
20
0.322826
11
0.185894
21
0.325192
0
LINE
8
BLACK
6
CONTINUOUS
10
0.185894
20
0.325192
11
0.2
21
0.325984
0
LINE
8
BLACK
6
CONTINUOUS
10
0.2
20
0.325984
11
0.214106
21
0.325192
0
LINE
8
BLACK
6
CONTINUOUS
10
1.41411
20
0.325192
11
1.42803
21
0.322826
0
LINE
8
BLACK
6
CONTINUOUS
10
1.42803
20
0.322826
11
1.44161
21
0.318914
0
LINE
8
BLACK
6
CONTINUOUS
10
1.44161
20
0.318914
11
1.45466
21
0.313508
0
LINE
8
BLACK
6
CONTINUOUS
10
1.45466
20
0.313508
11
1.46703
21
0.306674
0
LINE
8
BLACK
6
CONTINUOUS
10
1.46703
20
0.306674
11
1.47855
21
0.298498
0
LINE
8
BLACK
6
CONTINUOUS
10
1.47855
20
0.298498
11
1.48908
21
0.289084
0
LINE
8
BLACK
6
CONTINUOUS
10
1.48908
20
0.289084
11
1.4985
21
0.27855
0
LINE
8
BLACK
6
CONTINUOUS
10
1.4985
20
0.27855
11
1.50667
21
0.267028
0
LINE
8
BLACK
6
CONTINUOUS
10
1.50667
20
0.267028
11
1.51351
21
0.254663
0
LINE
8
BLACK
6
CONTINUOUS
10
1.51351
20
0.254663
11
1.51891
21
0.24161
0
LINE
8
BLACK
6
CONTINUOUS
10
1.51891
20
0.24161
11
1.52283
21
0.228034
0
LINE
8
BLACK
6
CONTINUOUS
10
1.52283
20
0.228034
11
1.52519
21
0.214106
0
LINE
8
BLACK
6
CONTINUOUS
10
1.52519
20
0.214106
11
1.52598
21
0.2
0
LINE
8
BLACK
6
CONTINUOUS
10
1.52598
20
0.2
11
1.52519
21
0.185894
0
LINE
8
BLACK
6
CONTINUOUS
10
1.52519
20
0.185894
11
1.52283
21
0.171966
0
LINE
8
BLACK
6
CONTINUOUS
10
1.52283
20
0.171966
11
1.51891
21
0.15839
0
LINE
8
BLACK
6
CONTINUOUS
10
1.51891
20
0.15839
11
1.51351
21
0.145337
0
LINE
8
BLACK
6
CONTINUOUS
10
1.51351
20
0.145337
11
1.50667
21
0.132972
0
LINE
8
BLACK
6
CONTINUOUS
10
1.50667
20
0.132972
11
1.4985
21
0.12145
0
LINE
8
BLACK
6
CONTINUOUS
10
1.4985
20
0.12145
11
1.48908
21
0.110916
0
LINE
8
BLACK
6
CONTINUOUS
10
1.48908
20
0.110916
11
1.47855
21
0.101502
0
LINE
8
BLACK
6
CONTINUOUS
10
1.47855
20
0.101502
11
1.46703
21
0.0933261
0
LINE
8
BLACK
6
CONTINUOUS
10
1.46703
20
0.0933261
11
1.45466
21
0.0864921
0
LINE
8
BLACK
6
CONTINUOUS
10
1.45466
20
0.0864921
11
1.44161
21
0.0810856
0
LINE
8
BLACK
6
CONTINUOUS
10
1.44161
20
0.0810856
11
1.42803
21
0.0771744
0
LINE
8
BLACK
6
CONTINUOUS
10
1.42803
20
0.0771744
11
1.41411
21
0.0748079
0
LINE
8
BLACK
6
CONTINUOUS
10
1.41411
20
0.0748079
11
1.4
21
0.0740157
0
LINE
8
BLACK
6
CONTINUOUS
10
1.4
20
0.0740157
11
1.38589
21
0.0748079
0
LINE
8
BLACK
6
CONTINUOUS
10
1.38589
20
0.0748079
11
1.37197
21
0.0771744
0
LINE
8
BLACK
6
CONTINUOUS
10
1.37197
20
0.0771744
11
1.35839
21
0.0810856
0
LINE
8
BLACK
6
CONTINUOUS
10
1.35839
20
0.0810856
11
1.34534
21
0.0864921
0
LINE
8
BLACK
6
CONTINUOUS
10
1.34534
20
0.0864921
11
1.33297
21
0.0933261
0
LINE
8
BLACK
6
CONTINUOUS
10
1.33297
20
0.0933261
11
1.32145
21
0.101502
0
LINE
8
BLACK
6
CONTINUOUS
10
1.32145
20
0.101502
11
1.31092
21
0.110916
0
LINE
8
BLACK
6
CONTINUOUS
10
1.31092
20
0.110916
11
1.3015
21
0.12145
0
LINE
8
BLACK
6
CONTINUOUS
10
1.3015
20
0.12145
11
1.29333
21
0.132972
0
LINE
8
BLACK
6
CONTINUOUS
10
1.29333
20
0.132972
11
1.28649
21
0.145337
0
LINE
8
BLACK
6
CONTINUOUS
10
1.28649
20
0.145337
11
1.28109
21
0.15839
0
LINE
8
BLACK
6
CONTINUOUS
10
1.28109
20
0.15839
11
1.27717
21
0.171966
0
LINE
8
BLACK
6
CONTINUOUS
10
1.27717
20
0.171966
11
1.27481
21
0.185894
0
LINE
8
BLACK
6
CONTINUOUS
10
1.27481
20
0.185894
11
1.27402
21
0.2
0
LINE
8
BLACK
6
CONTINUOUS
10
1.27402
20
0.2
11
1.27481
21
0.214106
0
LINE
8
BLACK
6
CONTINUOUS
10
1.27481
20
0.214106
11
1.27717
21
0.228034
0
LINE
8
BLACK
6
CONTINUOUS
10
1.27717
20
0.228034
11
1.28109
21
0.24161
0
LINE
8
BLACK
6
CONTINUOUS
10
1.28109
20
0.24161
11
1.28649
21
0.254663
0
LINE
8
BLACK
6
CONTINUOUS
10
1.28649
20
0.254663
11
1.29333
21
0.267028
0
LINE
8
BLACK
6
CONTINUOUS
10
1.29333
20
0.267028
11
1.3015
21
0.27855
0
LINE
8
BLACK
6
CONTINUOUS
10
1.3015
20
0.27855
11
1.31092
21
0.289084
0
LINE
8
BLACK
6
CONTINUOUS
10
1.31092
20
0.289084
11
1.32145
21
0.298498
0
LINE
8
BLACK
6
CONTINUOUS
10
1.32145
20
0.298498
11
1.33297
21
0.306674
0
LINE
8
BLACK
6
CONTINUOUS
10
1.33297
20
0.306674
11
1.34534
21
0.313508
0
LINE
8
BLACK
6
CONTINUOUS
10
1.34534
20
0.313508
11
1.35839
21
0.318914
0
LINE
8
BLACK
6
CONTINUOUS
10
1.35839
20
0.318914
11
1.37197
21
0.322826
0
LINE
8
BLACK
6
CONTINUOUS
10
1.37197
20
0.322826
11
1.38589
21
0.325192
0
LINE
8
BLACK
6
CONTINUOUS
10
1.38589
20
0.325192
11
1.4
21
0.325984
0
LINE
8
BLACK
6
CONTINUOUS
10
1.4
20
0.325984
11
1.41411
21
0.325192
0
LINE
8
BLACK
6
CONTINUOUS
10
0.970513
20
0.182275
11
0.973068
21
0.180568
0
LINE
8
BLACK
6
CONTINUOUS
10
0.973068
20
0.180568
11
0.974775
21
0.178013
0
LINE
8
BLACK
6
CONTINUOUS
10
0.974775
20
0.178013
11
0.975374
21
0.175
0
LINE
8
BLACK
6
CONTINUOUS
10
0.975374
20
0.175
11
0.975374
21
0.14
0
LINE
8
BLACK
6
CONTINUOUS
10
0.975374
20
0.14
11
0.974775
21
0.136987
0
LINE
8
BLACK
6
CONTINUOUS
10
0.974775
20
0.136987
11
0.973068
21
0.134432
0
LINE
8
BLACK
6
CONTINUOUS
10
0.973068
20
0.134432
11
0.970513
21
0.132725
0
LINE
8
BLACK
6
CONTINUOUS
10
0.970513
20
0.132725
11
0.9675
21
0.132126
0
LINE
8
BLACK
6
CONTINUOUS
10
0.9675
20
0.132126
11
0.9125
21
0.132126
0
LINE
8
BLACK
6
CONTINUOUS
10
0.9125
20
0.132126
11
0.909487
21
0.132725
0
LINE
8
BLACK
6
CONTINUOUS
10
0.909487
20
0.132725
11
0.906932
21
0.134432
0
LINE
8
BLACK
6
CONTINUOUS
10
0.906932
20
0.134432
11
0.905225
21
0.136987
0
LINE
8
BLACK
6
CONTINUOUS
10
0.905225
20
0.136987
11
0.904626
21
0.14
0
LINE
8
BLACK
6
CONTINUOUS
10
0.904626
20
0.14
11
0.904626
21
0.175
0
LINE
8
BLACK
6
CONTINUOUS
10
0.904626
20
0.175
11
0.905225
21
0.178013
0
LINE
8
BLACK
6
CONTINUOUS
10
0.905225
20
0.178013
11
0.906932
21
0.180568
0
LINE
8
BLACK
6
CONTINUOUS
10
0.906932
20
0.180568
11
0.909487
21
0.182275
0
LINE
8
BLACK
6
CONTINUOUS
10
0.909487
20
0.182275
11
0.9125
21
0.182874
0
LINE
8
BLACK
6
CONTINUOUS
10
0.9125
20
0.182874
11
0.9675
21
0.182874
0
LINE
8
BLACK
6
CONTINUOUS
10
0.9675
20
0.182874
11
0.970513
21
0.182275
0
LINE
8
BLACK
6
CONTINUOUS
10
1.07051
20
0.182275
11
1.07307
21
0.180568
0
LINE
8
BLACK
6
CONTINUOUS
10
1.07307
20
0.180568
11
1.07477
21
0.178013
0
LINE
8
BLACK
6
CONTINUOUS
10
1.07477
20
0.178013
11
1.07537
21
0.175
0
LINE
8
BLACK
6
CONTINUOUS
10
1.07537
20
0.175
11
1.07537
21
0.14
0
LINE
8
BLACK
6
CONTINUOUS
10
1.07537
20
0.14
11
1.07477
21
0.136987
0
LINE
8
BLACK
6
CONTINUOUS
10
1.07477
20
0.136987
11
1.07307
21
0.134432
0
LINE
8
BLACK
6
CONTINUOUS
10
1.07307
20
0.134432
11
1.07051
21
0.132725
0
LINE
8
BLACK
6
CONTINUOUS
10
1.07051
20
0.132725
11
1.0675
21
0.132126
0
LINE
8
BLACK
6
CONTINUOUS
10
1.0675
20
0.132126
11
1.0125
21
0.132126
0
LINE
8
BLACK
6
CONTINUOUS
10
1.0125
20
0.132126
11
1.00949
21
0.132725
0
LINE
8
BLACK
6
CONTINUOUS
10
1.00949
20
0.132725
11
1.00693
21
0.134432
0
LINE
8
BLACK
6
CONTINUOUS
10
1.00693
20
0.134432
11
1.00523
21
0.136987
0
LINE
8
BLACK
6
CONTINUOUS
10
1.00523
20
0.136987
11
1.00463
21
0.14
0
LINE
8
BLACK
6
CONTINUOUS
10
1.00463
20
0.14
11
1.00463
21
0.175
0
LINE
8
BLACK
6
CONTINUOUS
10
1.00463
20
0.175
11
1.00523
21
0.178013
0
LINE
8
BLACK
6
CONTINUOUS
10
1.00523
20
0.178013
11
1.00693
21
0.180568
0
LINE
8
BLACK
6
CONTINUOUS
10
1.00693
20
0.180568
11
1.00949
21
0.182275
0
LINE
8
BLACK
6
CONTINUOUS
10
1.00949
20
0.182275
11
1.0125
21
0.182874
0
LINE
8
BLACK
6
CONTINUOUS
10
1.0125
20
0.182874
11
1.0675
21
0.182874
0
LINE
8
BLACK
6
CONTINUOUS
10
1.0675
20
0.182874
11
1.07051
21
0.182275
0
LINE
8
BLACK
6
CONTINUOUS
10
0.883013
20
0.274775
11
0.885568
21
0.273068
0
LINE
8
BLACK
6
CONTINUOUS
10
0.885568
20
0.273068
11
0.887275
21
0.270513
0
LINE
8
BLACK
6
CONTINUOUS
10
0.887275
20
0.270513
11
0.887874
21
0.2675
0
LINE
8
BLACK
6
CONTINUOUS
10
0.887874
20
0.2675
11
0.887874
21
0.2125
0
LINE
8
BLACK
6
CONTINUOUS
10
0.887874
20
0.2125
11
0.887275
21
0.209487
0
LINE
8
BLACK
6
CONTINUOUS
10
0.887275
20
0.209487
11
0.885568
21
0.206932
0
LINE
8
BLACK
6
CONTINUOUS
10
0.885568
20
0.206932
11
0.883013
21
0.205225
0
LINE
8
BLACK
6
CONTINUOUS
10
0.883013
20
0.205225
11
0.88
21
0.204626
0
LINE
8
BLACK
6
CONTINUOUS
10
0.88
20
0.204626
11
0.845
21
0.204626
0
LINE
8
BLACK
6
CONTINUOUS
10
0.845
20
0.204626
11
0.841987
21
0.205225
0
LINE
8
BLACK
6
CONTINUOUS
10
0.841987
20
0.205225
11
0.839432
21
0.206932
0
LINE
8
BLACK
6
CONTINUOUS
10
0.839432
20
0.206932
11
0.837725
21
0.209487
0
LINE
8
BLACK
6
CONTINUOUS
10
0.837725
20
0.209487
11
0.837126
21
0.2125
0
LINE
8
BLACK
6
CONTINUOUS
10
0.837126
20
0.2125
11
0.837126
21
0.2675
0
LINE
8
BLACK
6
CONTINUOUS
10
0.837126
20
0.2675
11
0.837725
21
0.270513
0
LINE
8
BLACK
6
CONTINUOUS
10
0.837725
20
0.270513
11
0.839432
21
0.273068
0
LINE
8
BLACK
6
CONTINUOUS
10
0.839432
20
0.273068
11
0.841987
21
0.274775
0
LINE
8
BLACK
6
CONTINUOUS
10
0.841987
20
0.274775
11
0.845
21
0.275374
0
LINE
8
BLACK
6
CONTINUOUS
10
0.845
20
0.275374
11
0.88
21
0.275374
0
LINE
8
BLACK
6
CONTINUOUS
10
0.88
20
0.275374
11
0.883013
21
0.274775
0
LINE
8
BLACK
6
CONTINUOUS
10
0.958013
20
0.274775
11
0.960568
21
0.273068
0
LINE
8
BLACK
6
CONTINUOUS
10
0.960568
20
0.273068
11
0.962275
21
0.270513
0
LINE
8
BLACK
6
CONTINUOUS
10
0.962275
20
0.270513
11
0.962874
21
0.2675
0
LINE
8
BLACK
6
CONTINUOUS
10
0.962874
20
0.2675
11
0.962874
21
0.2125
0
LINE
8
BLACK
6
CONTINUOUS
10
0.962874
20
0.2125
11
0.962275
21
0.209487
0
LINE
8
BLACK
6
CONTINUOUS
10
0.962275
20
0.209487
11
0.960568
21
0.206932
0
LINE
8
BLACK
6
CONTINUOUS
10
0.960568
20
0.206932
11
0.958013
21
0.205225
0
LINE
8
BLACK
6
CONTINUOUS
10
0.958013
20
0.205225
11
0.955
21
0.204626
0
LINE
8
BLACK
6
CONTINUOUS
10
0.955
20
0.204626
11
0.92
21
0.204626
0
LINE
8
BLACK
6
CONTINUOUS
10
0.92
20
0.204626
11
0.916987
21
0.205225
0
LINE
8
BLACK
6
CONTINUOUS
10
0.916987
20
0.205225
11
0.914432
21
0.206932
0
LINE
8
BLACK
6
CONTINUOUS
10
0.914432
20
0.206932
11
0.912725
21
0.209487
0
LINE
8
BLACK
6
CONTINUOUS
10
0.912725
20
0.209487
11
0.912126
21
0.2125
0
LINE
8
BLACK
6
CONTINUOUS
10
0.912126
20
0.2125
11
0.912126
21
0.2675
0
LINE
8
BLACK
6
CONTINUOUS
10
0.912126
20
0.2675
11
0.912725
21
0.270513
0
LINE
8
BLACK
6
CONTINUOUS
10
0.912725
20
0.270513
11
0.914432
21
0.273068
0
LINE
8
BLACK
6
CONTINUOUS
10
0.914432
20
0.273068
11
0.916987
21
0.274775
0
LINE
8
BLACK
6
CONTINUOUS
10
0.916987
20
0.274775
11
0.92
21
0.275374
0
LINE
8
BLACK
6
CONTINUOUS
10
0.92
20
0.275374
11
0.955
21
0.275374
0
LINE
8
BLACK
6
CONTINUOUS
10
0.955
20
0.275374
11
0.958013
21
0.274775
0
LINE
8
BLACK
6
CONTINUOUS
10
1.06301
20
0.274775
11
1.06557
21
0.273068
0
LINE
8
BLACK
6
CONTINUOUS
10
1.06557
20
0.273068
11
1.06727
21
0.270513
0
LINE
8
BLACK
6
CONTINUOUS
10
1.06727
20
0.270513
11
1.06787
21
0.2675
0
LINE
8
BLACK
6
CONTINUOUS
10
1.06787
20
0.2675
11
1.06787
21
0.2125
0
LINE
8
BLACK
6
CONTINUOUS
10
1.06787
20
0.2125
11
1.06727
21
0.209487
0
LINE
8
BLACK
6
CONTINUOUS
10
1.06727
20
0.209487
11
1.06557
21
0.206932
0
LINE
8
BLACK
6
CONTINUOUS
10
1.06557
20
0.206932
11
1.06301
21
0.205225
0
LINE
8
BLACK
6
CONTINUOUS
10
1.06301
20
0.205225
11
1.06
21
0.204626
0
LINE
8
BLACK
6
CONTINUOUS
10
1.06
20
0.204626
11
1.025
21
0.204626
0
LINE
8
BLACK
6
CONTINUOUS
10
1.025
20
0.204626
11
1.02199
21
0.205225
0
LINE
8
BLACK
6
CONTINUOUS
10
1.02199
20
0.205225
11
1.01943
21
0.206932
0
LINE
8
BLACK
6
CONTINUOUS
10
1.01943
20
0.206932
11
1.01773
21
0.209487
0
LINE
8
BLACK
6
CONTINUOUS
10
1.01773
20
0.209487
11
1.01713
21
0.2125
0
LINE
8
BLACK
6
CONTINUOUS
10
1.01713
20
0.2125
11
1.01713
21
0.2675
0
LINE
8
BLACK
6
CONTINUOUS
10
1.01713
20
0.2675
11
1.01773
21
0.270513
0
LINE
8
BLACK
6
CONTINUOUS
10
1.01773
20
0.270513
11
1.01943
21
0.273068
0
LINE
8
BLACK
6
CONTINUOUS
10
1.01943
20
0.273068
11
1.02199
21
0.274775
0
LINE
8
BLACK
6
CONTINUOUS
10
1.02199
20
0.274775
11
1.025
21
0.275374
0
LINE
8
BLACK
6
CONTINUOUS
10
1.025
20
0.275374
11
1.06
21
0.275374
0
LINE
8
BLACK
6
CONTINUOUS
10
1.06
20
0.275374
11
1.06301
21
0.274775
0
LINE
8
BLACK
6
CONTINUOUS
10
1.13801
20
0.274775
11
1.14057
21
0.273068
0
LINE
8
BLACK
6
CONTINUOUS
10
1.14057
20
0.273068
11
1.14227
21
0.270513
0
LINE
8
BLACK
6
CONTINUOUS
10
1.14227
20
0.270513
11
1.14287
21
0.2675
0
LINE
8
BLACK
6
CONTINUOUS
10
1.14287
20
0.2675
11
1.14287
21
0.2125
0
LINE
8
BLACK
6
CONTINUOUS
10
1.14287
20
0.2125
11
1.14227
21
0.209487
0
LINE
8
BLACK
6
CONTINUOUS
10
1.14227
20
0.209487
11
1.14057
21
0.206932
0
LINE
8
BLACK
6
CONTINUOUS
10
1.14057
20
0.206932
11
1.13801
21
0.205225
0
LINE
8
BLACK
6
CONTINUOUS
10
1.13801
20
0.205225
11
1.135
21
0.204626
0
LINE
8
BLACK
6
CONTINUOUS
10
1.135
20
0.204626
11
1.1
21
0.204626
0
LINE
8
BLACK
6
CONTINUOUS
10
1.1
20
0.204626
11
1.09699
21
0.205225
0
LINE
8
BLACK
6
CONTINUOUS
10
1.09699
20
0.205225
11
1.09443
21
0.206932
0
LINE
8
BLACK
6
CONTINUOUS
10
1.09443
20
0.206932
11
1.09273
21
0.209487
0
LINE
8
BLACK
6
CONTINUOUS
10
1.09273
20
0.209487
11
1.09213
21
0.2125
0
LINE
8
BLACK
6
CONTINUOUS
10
1.09213
20
0.2125
11
1.09213
21
0.2675
0
LINE
8
BLACK
6
CONTINUOUS
10
1.09213
20
0.2675
11
1.09273
21
0.270513
0
LINE
8
BLACK
6
CONTINUOUS
10
1.09273
20
0.270513
11
1.09443
21
0.273068
0
LINE
8
BLACK
6
CONTINUOUS
10
1.09443
20
0.273068
11
1.09699
21
0.274775
0
LINE
8
BLACK
6
CONTINUOUS
10
1.09699
20
0.274775
11
1.1
21
0.275374
0
LINE
8
BLACK
6
CONTINUOUS
10
1.1
20
0.275374
11
1.135
21
0.275374
0
LINE
8
BLACK
6
CONTINUOUS
10
1.135
20
0.275374
11
1.13801
21
0.274775
0
LINE
8
BLACK
6
CONTINUOUS
10
0.973013
20
0.407275
11
0.975568
21
0.405568
0
LINE
8
BLACK
6
CONTINUOUS
10
0.975568
20
0.405568
11
0.977275
21
0.403013
0
LINE
8
BLACK
6
CONTINUOUS
10
0.977275
20
0.403013
11
0.977874
21
0.4
0
LINE
8
BLACK
6
CONTINUOUS
10
0.977874
20
0.4
11
0.977874
21
0.34
0
LINE
8
BLACK
6
CONTINUOUS
10
0.977874
20
0.34
11
0.977275
21
0.336987
0
LINE
8
BLACK
6
CONTINUOUS
10
0.977275
20
0.336987
11
0.975568
21
0.334432
0
LINE
8
BLACK
6
CONTINUOUS
10
0.975568
20
0.334432
11
0.973013
21
0.332725
0
LINE
8
BLACK
6
CONTINUOUS
10
0.973013
20
0.332725
11
0.97
21
0.332126
0
LINE
8
BLACK
6
CONTINUOUS
10
0.97
20
0.332126
11
0.91
21
0.332126
0
LINE
8
BLACK
6
CONTINUOUS
10
0.91
20
0.332126
11
0.906987
21
0.332725
0
LINE
8
BLACK
6
CONTINUOUS
10
0.906987
20
0.332725
11
0.904432
21
0.334432
0
LINE
8
BLACK
6
CONTINUOUS
10
0.904432
20
0.334432
11
0.902725
21
0.336987
0
LINE
8
BLACK
6
CONTINUOUS
10
0.902725
20
0.336987
11
0.902126
21
0.34
0
LINE
8
BLACK
6
CONTINUOUS
10
0.902126
20
0.34
11
0.902126
21
0.4
0
LINE
8
BLACK
6
CONTINUOUS
10
0.902126
20
0.4
11
0.902725
21
0.403013
0
LINE
8
BLACK
6
CONTINUOUS
10
0.902725
20
0.403013
11
0.904432
21
0.405568
0
LINE
8
BLACK
6
CONTINUOUS
10
0.904432
20
0.405568
11
0.906987
21
0.407275
0
LINE
8
BLACK
6
CONTINUOUS
10
0.906987
20
0.407275
11
0.91
21
0.407874
0
LINE
8
BLACK
6
CONTINUOUS
10
0.91
20
0.407874
11
0.97
21
0.407874
0
LINE
8
BLACK
6
CONTINUOUS
10
0.97
20
0.407874
11
0.973013
21
0.407275
0
LINE
8
BLACK
6
CONTINUOUS
10
1.07301
20
0.407275
11
1.07557
21
0.405568
0
LINE
8
BLACK
6
CONTINUOUS
10
1.07557
20
0.405568
11
1.07727
21
0.403013
0
LINE
8
BLACK
6
CONTINUOUS
10
1.07727
20
0.403013
11
1.07787
21
0.4
0
LINE
8
BLACK
6
CONTINUOUS
10
1.07787
20
0.4
11
1.07787
21
0.34
0
LINE
8
BLACK
6
CONTINUOUS
10
1.07787
20
0.34
11
1.07727
21
0.336987
0
LINE
8
BLACK
6
CONTINUOUS
10
1.07727
20
0.336987
11
1.07557
21
0.334432
0
LINE
8
BLACK
6
CONTINUOUS
10
1.07557
20
0.334432
11
1.07301
21
0.332725
0
LINE
8
BLACK
6
CONTINUOUS
10
1.07301
20
0.332725
11
1.07
21
0.332126
0
LINE
8
BLACK
6
CONTINUOUS
10
1.07
20
0.332126
11
1.01
21
0.332126
0
LINE
8
BLACK
6
CONTINUOUS
10
1.01
20
0.332126
11
1.00699
21
0.332725
0
LINE
8
BLACK
6
CONTINUOUS
10
1.00699
20
0.332725
11
1.00443
21
0.334432
0
LINE
8
BLACK
6
CONTINUOUS
10
1.00443
20
0.334432
11
1.00273
21
0.336987
0
LINE
8
BLACK
6
CONTINUOUS
10
1.00273
20
0.336987
11
1.00213
21
0.34
0
LINE
8
BLACK
6
CONTINUOUS
10
1.00213
20
0.34
11
1.00213
21
0.4
0
LINE
8
BLACK
6
CONTINUOUS
10
1.00213
20
0.4
11
1.00273
21
0.403013
0
LINE
8
BLACK
6
CONTINUOUS
10
1.00273
20
0.403013
11
1.00443
21
0.405568
0
LINE
8
BLACK
6
CONTINUOUS
10
1.00443
20
0.405568
11
1.00699
21
0.407275
0
LINE
8
BLACK
6
CONTINUOUS
10
1.00699
20
0.407275
11
1.01
21
0.407874
0
LINE
8
BLACK
6
CONTINUOUS
10
1.01
20
0.407874
11
1.07
21
0.407874
0
LINE
8
BLACK
6
CONTINUOUS
10
1.07
20
0.407874
11
1.07301
21
0.407275
0
LINE
8
BLACK
6
CONTINUOUS
10
0.183013
20
0.467275
11
0.185568
21
0.465568
0
LINE
8
BLACK
6
CONTINUOUS
10
0.185568
20
0.465568
11
0.187275
21
0.463013
0
LINE
8
BLACK
6
CONTINUOUS
10
0.187275
20
0.463013
11
0.187874
21
0.46
0
LINE
8
BLACK
6
CONTINUOUS
10
0.187874
20
0.46
11
0.187874
21
0.4
0
LINE
8
BLACK
6
CONTINUOUS
10
0.187874
20
0.4
11
0.187275
21
0.396987
0
LINE
8
BLACK
6
CONTINUOUS
10
0.187275
20
0.396987
11
0.185568
21
0.394432
0
LINE
8
BLACK
6
CONTINUOUS
10
0.185568
20
0.394432
11
0.183013
21
0.392725
0
LINE
8
BLACK
6
CONTINUOUS
10
0.183013
20
0.392725
11
0.18
21
0.392126
0
LINE
8
BLACK
6
CONTINUOUS
10
0.18
20
0.392126
11
0.12
21
0.392126
0
LINE
8
BLACK
6
CONTINUOUS
10
0.12
20
0.392126
11
0.116987
21
0.392725
0
LINE
8
BLACK
6
CONTINUOUS
10
0.116987
20
0.392725
11
0.114432
21
0.394432
0
LINE
8
BLACK
6
CONTINUOUS
10
0.114432
20
0.394432
11
0.112725
21
0.396987
0
LINE
8
BLACK
6
CONTINUOUS
10
0.112725
20
0.396987
11
0.112126
21
0.4
0
LINE
8
BLACK
6
CONTINUOUS
10
0.112126
20
0.4
11
0.112126
21
0.46
0
LINE
8
BLACK
6
CONTINUOUS
10
0.112126
20
0.46
11
0.112725
21
0.463013
0
LINE
8
BLACK
6
CONTINUOUS
10
0.112725
20
0.463013
11
0.114432
21
0.465568
0
LINE
8
BLACK
6
CONTINUOUS
10
0.114432
20
0.465568
11
0.116987
21
0.467275
0
LINE
8
BLACK
6
CONTINUOUS
10
0.116987
20
0.467275
11
0.12
21
0.467874
0
LINE
8
BLACK
6
CONTINUOUS
10
0.12
20
0.467874
11
0.18
21
0.467874
0
LINE
8
BLACK
6
CONTINUOUS
10
0.18
20
0.467874
11
0.183013
21
0.467275
0
LINE
8
BLACK
6
CONTINUOUS
10
0.283013
20
0.467275
11
0.285568
21
0.465568
0
LINE
8
BLACK
6
CONTINUOUS
10
0.285568
20
0.465568
11
0.287275
21
0.463013
0
LINE
8
BLACK
6
CONTINUOUS
10
0.287275
20
0.463013
11
0.287874
21
0.46
0
LINE
8
BLACK
6
CONTINUOUS
10
0.287874
20
0.46
11
0.287874
21
0.4
0
LINE
8
BLACK
6
CONTINUOUS
10
0.287874
20
0.4
11
0.287275
21
0.396987
0
LINE
8
BLACK
6
CONTINUOUS
10
0.287275
20
0.396987
11
0.285568
21
0.394432
0
LINE
8
BLACK
6
CONTINUOUS
10
0.285568
20
0.394432
11
0.283013
21
0.392725
0
LINE
8
BLACK
6
CONTINUOUS
10
0.283013
20
0.392725
11
0.28
21
0.392126
0
LINE
8
BLACK
6
CONTINUOUS
10
0.28
20
0.392126
11
0.22
21
0.392126
0
LINE
8
BLACK
6
CONTINUOUS
10
0.22
20
0.392126
11
0.216987
21
0.392725
0
LINE
8
BLACK
6
CONTINUOUS
10
0.216987
20
0.392725
11
0.214432
21
0.394432
0
LINE
8
BLACK
6
CONTINUOUS
10
0.214432
20
0.394432
11
0.212725
21
0.396987
0
LINE
8
BLACK
6
CONTINUOUS
10
0.212725
20
0.396987
11
0.212126
21
0.4
0
LINE
8
BLACK
6
CONTINUOUS
10
0.212126
20
0.4
11
0.212126
21
0.46
0
LINE
8
BLACK
6
CONTINUOUS
10
0.212126
20
0.46
11
0.212725
21
0.463013
0
LINE
8
BLACK
6
CONTINUOUS
10
0.212725
20
0.463013
11
0.214432
21
0.465568
0
LINE
8
BLACK
6
CONTINUOUS
10
0.214432
20
0.465568
11
0.216987
21
0.467275
0
LINE
8
BLACK
6
CONTINUOUS
10
0.216987
20
0.467275
11
0.22
21
0.467874
0
LINE
8
BLACK
6
CONTINUOUS
10
0.22
20
0.467874
11
0.28
21
0.467874
0
LINE
8
BLACK
6
CONTINUOUS
10
0.28
20
0.467874
11
0.283013
21
0.467275
0
LINE
8
BLACK
6
CONTINUOUS
10
1.42301
20
0.467275
11
1.42557
21
0.465568
0
LINE
8
BLACK
6
CONTINUOUS
10
1.42557
20
0.465568
11
1.42727
21
0.463013
0
LINE
8
BLACK
6
CONTINUOUS
10
1.42727
20
0.463013
11
1.42787
21
0.46
0
LINE
8
BLACK
6
CONTINUOUS
10
1.42787
20
0.46
11
1.42787
21
0.4
0
LINE
8
BLACK
6
CONTINUOUS
10
1.42787
20
0.4
11
1.42727
21
0.396987
0
LINE
8
BLACK
6
CONTINUOUS
10
1.42727
20
0.396987
11
1.42557
21
0.394432
0
LINE
8
BLACK
6
CONTINUOUS
10
1.42557
20
0.394432
11
1.42301
21
0.392725
0
LINE
8
BLACK
6
CONTINUOUS
10
1.42301
20
0.392725
11
1.42
21
0.392126
0
LINE
8
BLACK
6
CONTINUOUS
10
1.42
20
0.392126
11
1.36
21
0.392126
0
LINE
8
BLACK
6
CONTINUOUS
10
1.36
20
0.392126
11
1.35699
21
0.392725
0
LINE
8
BLACK
6
CONTINUOUS
10
1.35699
20
0.392725
11
1.35443
21
0.394432
0
LINE
8
BLACK
6
CONTINUOUS
10
1.35443
20
0.394432
11
1.35273
21
0.396987
0
LINE
8
BLACK
6
CONTINUOUS
10
1.35273
20
0.396987
11
1.35213
21
0.4
0
LINE
8
BLACK
6
CONTINUOUS
10
1.35213
20
0.4
11
1.35213
21
0.46
0
LINE
8
BLACK
6
CONTINUOUS
10
1.35213
20
0.46
11
1.35273
21
0.463013
0
LINE
8
BLACK
6
CONTINUOUS
10
1.35273
20
0.463013
11
1.35443
21
0.465568
0
LINE
8
BLACK
6
CONTINUOUS
10
1.35443
20
0.465568
11
1.35699
21
0.467275
0
LINE
8
BLACK
6
CONTINUOUS
10
1.35699
20
0.467275
11
1.36
21
0.467874
0
LINE
8
BLACK
6
CONTINUOUS
10
1.36
20
0.467874
11
1.42
21
0.467874
0
LINE
8
BLACK
6
CONTINUOUS
10
1.42
20
0.467874
11
1.42301
21
0.467275
0
LINE
8
BLACK
6
CONTINUOUS
10
1.52301
20
0.467275
11
1.52557
21
0.465568
0
LINE
8
BLACK
6
CONTINUOUS
10
1.52557
20
0.465568
11
1.52727
21
0.463013
0
LINE
8
BLACK
6
CONTINUOUS
10
1.52727
20
0.463013
11
1.52787
21
0.46
0
LINE
8
BLACK
6
CONTINUOUS
10
1.52787
20
0.46
11
1.52787
21
0.4
0
LINE
8
BLACK
6
CONTINUOUS
10
1.52787
20
0.4
11
1.52727
21
0.396987
0
LINE
8
BLACK
6
CONTINUOUS
10
1.52727
20
0.396987
11
1.52557
21
0.394432
0
LINE
8
BLACK
6
CONTINUOUS
10
1.52557
20
0.394432
11
1.52301
21
0.392725
0
LINE
8
BLACK
6
CONTINUOUS
10
1.52301
20
0.392725
11
1.52
21
0.392126
0
LINE
8
BLACK
6
CONTINUOUS
10
1.52
20
0.392126
11
1.46
21
0.392126
0
LINE
8
BLACK
6
CONTINUOUS
10
1.46
20
0.392126
11
1.45699
21
0.392725
0
LINE
8
BLACK
6
CONTINUOUS
10
1.45699
20
0.392725
11
1.45443
21
0.394432
0
LINE
8
BLACK
6
CONTINUOUS
10
1.45443
20
0.394432
11
1.45273
21
0.396987
0
LINE
8
BLACK
6
CONTINUOUS
10
1.45273
20
0.396987
11
1.45213
21
0.4
0
LINE
8
BLACK
6
CONTINUOUS
10
1.45213
20
0.4
11
1.45213
21
0.46
0
LINE
8
BLACK
6
CONTINUOUS
10
1.45213
20
0.46
11
1.45273
21
0.463013
0
LINE
8
BLACK
6
CONTINUOUS
10
1.45273
20
0.463013
11
1.45443
21
0.465568
0
LINE
8
BLACK
6
CONTINUOUS
10
1.45443
20
0.465568
11
1.45699
21
0.467275
0
LINE
8
BLACK
6
CONTINUOUS
10
1.45699
20
0.467275
11
1.46
21
0.467874
0
LINE
8
BLACK
6
CONTINUOUS
10
1.46
20
0.467874
11
1.52
21
0.467874
0
LINE
8
BLACK
6
CONTINUOUS
10
1.52
20
0.467874
11
1.52301
21
0.467275
0
LINE
8
BLACK
6
CONTINUOUS
10
0.973013
20
0.507275
11
0.975568
21
0.505568
0
LINE
8
BLACK
6
CONTINUOUS
10
0.975568
20
0.505568
11
0.977275
21
0.503013
0
LINE
8
BLACK
6
CONTINUOUS
10
0.977275
20
0.503013
11
0.977874
21
0.5
0
LINE
8
BLACK
6
CONTINUOUS
10
0.977874
20
0.5
11
0.977874
21
0.44
0
LINE
8
BLACK
6
CONTINUOUS
10
0.977874
20
0.44
11
0.977275
21
0.436987
0
LINE
8
BLACK
6
CONTINUOUS
10
0.977275
20
0.436987
11
0.975568
21
0.434432
0
LINE
8
BLACK
6
CONTINUOUS
10
0.975568
20
0.434432
11
0.973013
21
0.432725
0
LINE
8
BLACK
6
CONTINUOUS
10
0.973013
20
0.432725
11
0.97
21
0.432126
0
LINE
8
BLACK
6
CONTINUOUS
10
0.97
20
0.432126
11
0.91
21
0.432126
0
LINE
8
BLACK
6
CONTINUOUS
10
0.91
20
0.432126
11
0.906987
21
0.432725
0
LINE
8
BLACK
6
CONTINUOUS
10
0.906987
20
0.432725
11
0.904432
21
0.434432
0
LINE
8
BLACK
6
CONTINUOUS
10
0.904432
20
0.434432
11
0.902725
21
0.436987
0
LINE
8
BLACK
6
CONTINUOUS
10
0.902725
20
0.436987
11
0.902126
21
0.44
0
LINE
8
BLACK
6
CONTINUOUS
10
0.902126
20
0.44
11
0.902126
21
0.5
0
LINE
8
BLACK
6
CONTINUOUS
10
0.902126
20
0.5
11
0.902725
21
0.503013
0
LINE
8
BLACK
6
CONTINUOUS
10
0.902725
20
0.503013
11
0.904432
21
0.505568
0
LINE
8
BLACK
6
CONTINUOUS
10
0.904432
20
0.505568
11
0.906987
21
0.507275
0
LINE
8
BLACK
6
CONTINUOUS
10
0.906987
20
0.507275
11
0.91
21
0.507874
0
LINE
8
BLACK
6
CONTINUOUS
10
0.91
20
0.507874
11
0.97
21
0.507874
0
LINE
8
BLACK
6
CONTINUOUS
10
0.97
20
0.507874
11
0.973013
21
0.507275
0
LINE
8
BLACK
6
CONTINUOUS
10
1.07301
20
0.507275
11
1.07557
21
0.505568
0
LINE
8
BLACK
6
CONTINUOUS
10
1.07557
20
0.505568
11
1.07727
21
0.503013
0
LINE
8
BLACK
6
CONTINUOUS
10
1.07727
20
0.503013
11
1.07787
21
0.5
0
LINE
8
BLACK
6
CONTINUOUS
10
1.07787
20
0.5
11
1.07787
21
0.44
0
LINE
8
BLACK
6
CONTINUOUS
10
1.07787
20
0.44
11
1.07727
21
0.436987
0
LINE
8
BLACK
6
CONTINUOUS
10
1.07727
20
0.436987
11
1.07557
21
0.434432
0
LINE
8
BLACK
6
CONTINUOUS
10
1.07557
20
0.434432
11
1.07301
21
0.432725
0
LINE
8
BLACK
6
CONTINUOUS
10
1.07301
20
0.432725
11
1.07
21
0.432126
0
LINE
8
BLACK
6
CONTINUOUS
10
1.07
20
0.432126
11
1.01
21
0.432126
0
LINE
8
BLACK
6
CONTINUOUS
10
1.01
20
0.432126
11
1.00699
21
0.432725
0
LINE
8
BLACK
6
CONTINUOUS
10
1.00699
20
0.432725
11
1.00443
21
0.434432
0
LINE
8
BLACK
6
CONTINUOUS
10
1.00443
20
0.434432
11
1.00273
21
0.436987
0
LINE
8
BLACK
6
CONTINUOUS
10
1.00273
20
0.436987
11
1.00213
21
0.44
0
LINE
8
BLACK
6
CONTINUOUS
10
1.00213
20
0.44
11
1.00213
21
0.5
0
LINE
8
BLACK
6
CONTINUOUS
10
1.00213
20
0.5
11
1.00273
21
0.503013
0
LINE
8
BLACK
6
CONTINUOUS
10
1.00273
20
0.503013
11
1.00443
21
0.505568
0
LINE
8
BLACK
6
CONTINUOUS
10
1.00443
20
0.505568
11
1.00699
21
0.507275
0
LINE
8
BLACK
6
CONTINUOUS
10
1.00699
20
0.507275
11
1.01
21
0.507874
0
LINE
8
BLACK
6
CONTINUOUS
10
1.01
20
0.507874
11
1.07
21
0.507874
0
LINE
8
BLACK
6
CONTINUOUS
10
1.07
20
0.507874
11
1.07301
21
0.507275
0
LINE
8
BLACK
6
CONTINUOUS
10
0.183013
20
0.567275
11
0.185568
21
0.565568
0
LINE
8
BLACK
6
CONTINUOUS
10
0.185568
20
0.565568
11
0.187275
21
0.563013
0
LINE
8
BLACK
6
CONTINUOUS
10
0.187275
20
0.563013
11
0.187874
21
0.56
0
LINE
8
BLACK
6
CONTINUOUS
10
0.187874
20
0.56
11
0.187874
21
0.5
0
LINE
8
BLACK
6
CONTINUOUS
10
0.187874
20
0.5
11
0.187275
21
0.496987
0
LINE
8
BLACK
6
CONTINUOUS
10
0.187275
20
0.496987
11
0.185568
21
0.494432
0
LINE
8
BLACK
6
CONTINUOUS
10
0.185568
20
0.494432
11
0.183013
21
0.492725
0
LINE
8
BLACK
6
CONTINUOUS
10
0.183013
20
0.492725
11
0.18
21
0.492126
0
LINE
8
BLACK
6
CONTINUOUS
10
0.18
20
0.492126
11
0.12
21
0.492126
0
LINE
8
BLACK
6
CONTINUOUS
10
0.12
20
0.492126
11
0.116987
21
0.492725
0
LINE
8
BLACK
6
CONTINUOUS
10
0.116987
20
0.492725
11
0.114432
21
0.494432
0
LINE
8
BLACK
6
CONTINUOUS
10
0.114432
20
0.494432
11
0.112725
21
0.496987
0
LINE
8
BLACK
6
CONTINUOUS
10
0.112725
20
0.496987
11
0.112126
21
0.5
0
LINE
8
BLACK
6
CONTINUOUS
10
0.112126
20
0.5
11
0.112126
21
0.56
0
LINE
8
BLACK
6
CONTINUOUS
10
0.112126
20
0.56
11
0.112725
21
0.563013
0
LINE
8
BLACK
6
CONTINUOUS
10
0.112725
20
0.563013
11
0.114432
21
0.565568
0
LINE
8
BLACK
6
CONTINUOUS
10
0.114432
20
0.565568
11
0.116987
21
0.567275
0
LINE
8
BLACK
6
CONTINUOUS
10
0.116987
20
0.567275
11
0.12
21
0.567874
0
LINE
8
BLACK
6
CONTINUOUS
10
0.12
20
0.567874
11
0.18
21
0.567874
0
LINE
8
BLACK
6
CONTINUOUS
10
0.18
20
0.567874
11
0.183013
21
0.567275
0
LINE
8
BLACK
6
CONTINUOUS
10
0.283013
20
0.567275
11
0.285568
21
0.565568
0
LINE
8
BLACK
6
CONTINUOUS
10
0.285568
20
0.565568
11
0.287275
21
0.563013
0
LINE
8
BLACK
6
CONTINUOUS
10
0.287275
20
0.563013
11
0.287874
21
0.56
0
LINE
8
BLACK
6
CONTINUOUS
10
0.287874
20
0.56
11
0.287874
21
0.5
0
LINE
8
BLACK
6
CONTINUOUS
10
0.287874
20
0.5
11
0.287275
21
0.496987
0
LINE
8
BLACK
6
CONTINUOUS
10
0.287275
20
0.496987
11
0.285568
21
0.494432
0
LINE
8
BLACK
6
CONTINUOUS
10
0.285568
20
0.494432
11
0.283013
21
0.492725
0
LINE
8
BLACK
6
CONTINUOUS
10
0.283013
20
0.492725
11
0.28
21
0.492126
0
LINE
8
BLACK
6
CONTINUOUS
10
0.28
20
0.492126
11
0.22
21
0.492126
0
LINE
8
BLACK
6
CONTINUOUS
10
0.22
20
0.492126
11
0.216987
21
0.492725
0
LINE
8
BLACK
6
CONTINUOUS
10
0.216987
20
0.492725
11
0.214432
21
0.494432
0
LINE
8
BLACK
6
CONTINUOUS
10
0.214432
20
0.494432
11
0.212725
21
0.496987
0
LINE
8
BLACK
6
CONTINUOUS
10
0.212725
20
0.496987
11
0.212126
21
0.5
0
LINE
8
BLACK
6
CONTINUOUS
10
0.212126
20
0.5
11
0.212126
21
0.56
0
LINE
8
BLACK
6
CONTINUOUS
10
0.212126
20
0.56
11
0.212725
21
0.563013
0
LINE
8
BLACK
6
CONTINUOUS
10
0.212725
20
0.563013
11
0.214432
21
0.565568
0
LINE
8
BLACK
6
CONTINUOUS
10
0.214432
20
0.565568
11
0.216987
21
0.567275
0
LINE
8
BLACK
6
CONTINUOUS
10
0.216987
20
0.567275
11
0.22
21
0.567874
0
LINE
8
BLACK
6
CONTINUOUS
10
0.22
20
0.567874
11
0.28
21
0.567874
0
LINE
8
BLACK
6
CONTINUOUS
10
0.28
20
0.567874
11
0.283013
21
0.567275
0
LINE
8
BLACK
6
CONTINUOUS
10
1.42301
20
0.567275
11
1.42557
21
0.565568
0
LINE
8
BLACK
6
CONTINUOUS
10
1.42557
20
0.565568
11
1.42727
21
0.563013
0
LINE
8
BLACK
6
CONTINUOUS
10
1.42727
20
0.563013
11
1.42787
21
0.56
0
LINE
8
BLACK
6
CONTINUOUS
10
1.42787
20
0.56
11
1.42787
21
0.5
0
LINE
8
BLACK
6
CONTINUOUS
10
1.42787
20
0.5
11
1.42727
21
0.496987
0
LINE
8
BLACK
6
CONTINUOUS
10
1.42727
20
0.496987
11
1.42557
21
0.494432
0
LINE
8
BLACK
6
CONTINUOUS
10
1.42557
20
0.494432
11
1.42301
21
0.492725
0
LINE
8
BLACK
6
CONTINUOUS
10
1.42301
20
0.492725
11
1.42
21
0.492126
0
LINE
8
BLACK
6
CONTINUOUS
10
1.42
20
0.492126
11
1.36
21
0.492126
0
LINE
8
BLACK
6
CONTINUOUS
10
1.36
20
0.492126
11
1.35699
21
0.492725
0
LINE
8
BLACK
6
CONTINUOUS
10
1.35699
20
0.492725
11
1.35443
21
0.494432
0
LINE
8
BLACK
6
CONTINUOUS
10
1.35443
20
0.494432
11
1.35273
21
0.496987
0
LINE
8
BLACK
6
CONTINUOUS
10
1.35273
20
0.496987
11
1.35213
21
0.5
0
LINE
8
BLACK
6
CONTINUOUS
10
1.35213
20
0.5
11
1.35213
21
0.56
0
LINE
8
BLACK
6
CONTINUOUS
10
1.35213
20
0.56
11
1.35273
21
0.563013
0
LINE
8
BLACK
6
CONTINUOUS
10
1.35273
20
0.563013
11
1.35443
21
0.565568
0
LINE
8
BLACK
6
CONTINUOUS
10
1.35443
20
0.565568
11
1.35699
21
0.567275
0
LINE
8
BLACK
6
CONTINUOUS
10
1.35699
20
0.567275
11
1.36
21
0.567874
0
LINE
8
BLACK
6
CONTINUOUS
10
1.36
20
0.567874
11
1.42
21
0.567874
0
LINE
8
BLACK
6
CONTINUOUS
10
1.42
20
0.567874
11
1.42301
21
0.567275
0
LINE
8
BLACK
6
CONTINUOUS
10
1.52301
20
0.567275
11
1.52557
21
0.565568
0
LINE
8
BLACK
6
CONTINUOUS
10
1.52557
20
0.565568
11
1.52727
21
0.563013
0
LINE
8
BLACK
6
CONTINUOUS
10
1.52727
20
0.563013
11
1.52787
21
0.56
0
LINE
8
BLACK
6
CONTINUOUS
10
1.52787
20
0.56
11
1.52787
21
0.5
0
LINE
8
BLACK
6
CONTINUOUS
10
1.52787
20
0.5
11
1.52727
21
0.496987
0
LINE
8
BLACK
6
CONTINUOUS
10
1.52727
20
0.496987
11
1.52557
21
0.494432
0
LINE
8
BLACK
6
CONTINUOUS
10
1.52557
20
0.494432
11
1.52301
21
0.492725
0
LINE
8
BLACK
6
CONTINUOUS
10
1.52301
20
0.492725
11
1.52
21
0.492126
0
LINE
8
BLACK
6
CONTINUOUS
10
1.52
20
0.492126
11
1.46
21
0.492126
0
LINE
8
BLACK
6
CONTINUOUS
10
1.46
20
0.492126
11
1.45699
21
0.492725
0
LINE
8
BLACK
6
CONTINUOUS
10
1.45699
20
0.492725
11
1.45443
21
0.494432
0
LINE
8
BLACK
6
CONTINUOUS
10
1.45443
20
0.494432
11
1.45273
21
0.496987
0
LINE
8
BLACK
6
CONTINUOUS
10
1.45273
20
0.496987
11
1.45213
21
0.5
0
LINE
8
BLACK
6
CONTINUOUS
10
1.45213
20
0.5
11
1.45213
21
0.56
0
LINE
8
BLACK
6
CONTINUOUS
10
1.45213
20
0.56
11
1.45273
21
0.563013
0
LINE
8
BLACK
6
CONTINUOUS
10
1.45273
20
0.563013
11
1.45443
21
0.565568
0
LINE
8
BLACK
6
CONTINUOUS
10
1.45443
20
0.565568
11
1.45699
21
0.567275
0
LINE
8
BLACK
6
CONTINUOUS
10
1.45699
20
0.567275
11
1.46
21
0.567874
0
LINE
8
BLACK
6
CONTINUOUS
10
1.46
20
0.567874
11
1.52
21
0.567874
0
LINE
8
BLACK
6
CONTINUOUS
10
1.52
20
0.567874
11
1.52301
21
0.567275
0
LINE
8
BLACK
6
CONTINUOUS
10
0.688513
20
0.564775
11
0.691068
21
0.563068
0
LINE
8
BLACK
6
CONTINUOUS
10
0.691068
20
0.563068
11
0.692775
21
0.560513
0
LINE
8
BLACK
6
CONTINUOUS
10
0.692775
20
0.560513
11
0.693374
21
0.5575
0
LINE
8
BLACK
6
CONTINUOUS
10
0.693374
20
0.5575
11
0.693374
21
0.5025
0
LINE
8
BLACK
6
CONTINUOUS
10
0.693374
20
0.5025
11
0.692775
21
0.499487
0
LINE
8
BLACK
6
CONTINUOUS
10
0.692775
20
0.499487
11
0.691068
21
0.496932
0
LINE
8
BLACK
6
CONTINUOUS
10
0.691068
20
0.496932
11
0.688513
21
0.495225
0
LINE
8
BLACK
6
CONTINUOUS
10
0.688513
20
0.495225
11
0.6855
21
0.494626
0
LINE
8
BLACK
6
CONTINUOUS
10
0.6855
20
0.494626
11
0.6505
21
0.494626
0
LINE
8
BLACK
6
CONTINUOUS
10
0.6505
20
0.494626
11
0.647487
21
0.495225
0
LINE
8
BLACK
6
CONTINUOUS
10
0.647487
20
0.495225
11
0.644932
21
0.496932
0
LINE
8
BLACK
6
CONTINUOUS
10
0.644932
20
0.496932
11
0.643225
21
0.499487
0
LINE
8
BLACK
6
CONTINUOUS
10
0.643225
20
0.499487
11
0.642626
21
0.5025
0
LINE
8
BLACK
6
CONTINUOUS
10
0.642626
20
0.5025
11
0.642626
21
0.5575
0
LINE
8
BLACK
6
CONTINUOUS
10
0.642626
20
0.5575
11
0.643225
21
0.560513
0
LINE
8
BLACK
6
CONTINUOUS
10
0.643225
20
0.560513
11
0.644932
21
0.563068
0
LINE
8
BLACK
6
CONTINUOUS
10
0.644932
20
0.563068
11
0.647487
21
0.564775
0
LINE
8
BLACK
6
CONTINUOUS
10
0.647487
20
0.564775
11
0.6505
21
0.565374
0
LINE
8
BLACK
6
CONTINUOUS
10
0.6505
20
0.565374
11
0.6855
21
0.565374
0
LINE
8
BLACK
6
CONTINUOUS
10
0.6855
20
0.565374
11
0.688513
21
0.564775
0
LINE
8
BLACK
6
CONTINUOUS
10
0.763513
20
0.564775
11
0.766068
21
0.563068
0
LINE
8
BLACK
6
CONTINUOUS
10
0.766068
20
0.563068
11
0.767775
21
0.560513
0
LINE
8
BLACK
6
CONTINUOUS
10
0.767775
20
0.560513
11
0.768374
21
0.5575
0
LINE
8
BLACK
6
CONTINUOUS
10
0.768374
20
0.5575
11
0.768374
21
0.5025
0
LINE
8
BLACK
6
CONTINUOUS
10
0.768374
20
0.5025
11
0.767775
21
0.499487
0
LINE
8
BLACK
6
CONTINUOUS
10
0.767775
20
0.499487
11
0.766068
21
0.496932
0
LINE
8
BLACK
6
CONTINUOUS
10
0.766068
20
0.496932
11
0.763513
21
0.495225
0
LINE
8
BLACK
6
CONTINUOUS
10
0.763513
20
0.495225
11
0.7605
21
0.494626
0
LINE
8
BLACK
6
CONTINUOUS
10
0.7605
20
0.494626
11
0.7255
21
0.494626
0
LINE
8
BLACK
6
CONTINUOUS
10
0.7255
20
0.494626
11
0.722487
21
0.495225
0
LINE
8
BLACK
6
CONTINUOUS
10
0.722487
20
0.495225
11
0.719932
21
0.496932
0
LINE
8
BLACK
6
CONTINUOUS
10
0.719932
20
0.496932
11
0.718225
21
0.499487
0
LINE
8
BLACK
6
CONTINUOUS
10
0.718225
20
0.499487
11
0.717626
21
0.5025
0
LINE
8
BLACK
6
CONTINUOUS
10
0.717626
20
0.5025
11
0.717626
21
0.5575
0
LINE
8
BLACK
6
CONTINUOUS
10
0.717626
20
0.5575
11
0.718225
21
0.560513
0
LINE
8
BLACK
6
CONTINUOUS
10
0.718225
20
0.560513
11
0.719932
21
0.563068
0
LINE
8
BLACK
6
CONTINUOUS
10
0.719932
20
0.563068
11
0.722487
21
0.564775
0
LINE
8
BLACK
6
CONTINUOUS
10
0.722487
20
0.564775
11
0.7255
21
0.565374
0
LINE
8
BLACK
6
CONTINUOUS
10
0.7255
20
0.565374
11
0.7605
21
0.565374
0
LINE
8
BLACK
6
CONTINUOUS
10
0.7605
20
0.565374
11
0.763513
21
0.564775
0
LINE
8
BLACK
6
CONTINUOUS
10
0.395013
20
0.566775
11
0.397568
21
0.565068
0
LINE
8
BLACK
6
CONTINUOUS
10
0.397568
20
0.565068
11
0.399275
21
0.562513
0
LINE
8
BLACK
6
CONTINUOUS
10
0.399275
20
0.562513
11
0.399874
21
0.5595
0
LINE
8
BLACK
6
CONTINUOUS
10
0.399874
20
0.5595
11
0.399874
21
0.5045
0
LINE
8
BLACK
6
CONTINUOUS
10
0.399874
20
0.5045
11
0.399275
21
0.501487
0
LINE
8
BLACK
6
CONTINUOUS
10
0.399275
20
0.501487
11
0.397568
21
0.498932
0
LINE
8
BLACK
6
CONTINUOUS
10
0.397568
20
0.498932
11
0.395013
21
0.497225
0
LINE
8
BLACK
6
CONTINUOUS
10
0.395013
20
0.497225
11
0.392
21
0.496626
0
LINE
8
BLACK
6
CONTINUOUS
10
0.392
20
0.496626
11
0.357
21
0.496626
0
LINE
8
BLACK
6
CONTINUOUS
10
0.357
20
0.496626
11
0.353987
21
0.497225
0
LINE
8
BLACK
6
CONTINUOUS
10
0.353987
20
0.497225
11
0.351432
21
0.498932
0
LINE
8
BLACK
6
CONTINUOUS
10
0.351432
20
0.498932
11
0.349725
21
0.501487
0
LINE
8
BLACK
6
CONTINUOUS
10
0.349725
20
0.501487
11
0.349126
21
0.5045
0
LINE
8
BLACK
6
CONTINUOUS
10
0.349126
20
0.5045
11
0.349126
21
0.5595
0
LINE
8
BLACK
6
CONTINUOUS
10
0.349126
20
0.5595
11
0.349725
21
0.562513
0
LINE
8
BLACK
6
CONTINUOUS
10
0.349725
20
0.562513
11
0.351432
21
0.565068
0
LINE
8
BLACK
6
CONTINUOUS
10
0.351432
20
0.565068
11
0.353987
21
0.566775
0
LINE
8
BLACK
6
CONTINUOUS
10
0.353987
20
0.566775
11
0.357
21
0.567374
0
LINE
8
BLACK
6
CONTINUOUS
10
0.357
20
0.567374
11
0.392
21
0.567374
0
LINE
8
BLACK
6
CONTINUOUS
10
0.392
20
0.567374
11
0.395013
21
0.566775
0
LINE
8
BLACK
6
CONTINUOUS
10
0.470013
20
0.566775
11
0.472568
21
0.565068
0
LINE
8
BLACK
6
CONTINUOUS
10
0.472568
20
0.565068
11
0.474275
21
0.562513
0
LINE
8
BLACK
6
CONTINUOUS
10
0.474275
20
0.562513
11
0.474874
21
0.5595
0
LINE
8
BLACK
6
CONTINUOUS
10
0.474874
20
0.5595
11
0.474874
21
0.5045
0
LINE
8
BLACK
6
CONTINUOUS
10
0.474874
20
0.5045
11
0.474275
21
0.501487
0
LINE
8
BLACK
6
CONTINUOUS
10
0.474275
20
0.501487
11
0.472568
21
0.498932
0
LINE
8
BLACK
6
CONTINUOUS
10
0.472568
20
0.498932
11
0.470013
21
0.497225
0
LINE
8
BLACK
6
CONTINUOUS
10
0.470013
20
0.497225
11
0.467
21
0.496626
0
LINE
8
BLACK
6
CONTINUOUS
10
0.467
20
0.496626
11
0.432
21
0.496626
0
LINE
8
BLACK
6
CONTINUOUS
10
0.432
20
0.496626
11
0.428987
21
0.497225
0
LINE
8
BLACK
6
CONTINUOUS
10
0.428987
20
0.497225
11
0.426432
21
0.498932
0
LINE
8
BLACK
6
CONTINUOUS
10
0.426432
20
0.498932
11
0.424725
21
0.501487
0
LINE
8
BLACK
6
CONTINUOUS
10
0.424725
20
0.501487
11
0.424126
21
0.5045
0
LINE
8
BLACK
6
CONTINUOUS
10
0.424126
20
0.5045
11
0.424126
21
0.5595
0
LINE
8
BLACK
6
CONTINUOUS
10
0.424126
20
0.5595
11
0.424725
21
0.562513
0
LINE
8
BLACK
6
CONTINUOUS
10
0.424725
20
0.562513
11
0.426432
21
0.565068
0
LINE
8
BLACK
6
CONTINUOUS
10
0.426432
20
0.565068
11
0.428987
21
0.566775
0
LINE
8
BLACK
6
CONTINUOUS
10
0.428987
20
0.566775
11
0.432
21
0.567374
0
LINE
8
BLACK
6
CONTINUOUS
10
0.432
20
0.567374
11
0.467
21
0.567374
0
LINE
8
BLACK
6
CONTINUOUS
10
0.467
20
0.567374
11
0.470013
21
0.566775
0
LINE
8
BLACK
6
CONTINUOUS
10
0.594513
20
0.567275
11
0.597068
21
0.565568
0
LINE
8
BLACK
6
CONTINUOUS
10
0.597068
20
0.565568
11
0.598775
21
0.563013
0
LINE
8
BLACK
6
CONTINUOUS
10
0.598775
20
0.563013
11
0.599374
21
0.56
0
LINE
8
BLACK
6
CONTINUOUS
10
0.599374
20
0.56
11
0.599374
21
0.525
0
LINE
8
BLACK
6
CONTINUOUS
10
0.599374
20
0.525
11
0.598775
21
0.521987
0
LINE
8
BLACK
6
CONTINUOUS
10
0.598775
20
0.521987
11
0.597068
21
0.519432
0
LINE
8
BLACK
6
CONTINUOUS
10
0.597068
20
0.519432
11
0.594513
21
0.517725
0
LINE
8
BLACK
6
CONTINUOUS
10
0.594513
20
0.517725
11
0.5915
21
0.517126
0
LINE
8
BLACK
6
CONTINUOUS
10
0.5915
20
0.517126
11
0.5365
21
0.517126
0
LINE
8
BLACK
6
CONTINUOUS
10
0.5365
20
0.517126
11
0.533487
21
0.517725
0
LINE
8
BLACK
6
CONTINUOUS
10
0.533487
20
0.517725
11
0.530932
21
0.519432
0
LINE
8
BLACK
6
CONTINUOUS
10
0.530932
20
0.519432
11
0.529225
21
0.521987
0
LINE
8
BLACK
6
CONTINUOUS
10
0.529225
20
0.521987
11
0.528626
21
0.525
0
LINE
8
BLACK
6
CONTINUOUS
10
0.528626
20
0.525
11
0.528626
21
0.56
0
LINE
8
BLACK
6
CONTINUOUS
10
0.528626
20
0.56
11
0.529225
21
0.563013
0
LINE
8
BLACK
6
CONTINUOUS
10
0.529225
20
0.563013
11
0.530932
21
0.565568
0
LINE
8
BLACK
6
CONTINUOUS
10
0.530932
20
0.565568
11
0.533487
21
0.567275
0
LINE
8
BLACK
6
CONTINUOUS
10
0.533487
20
0.567275
11
0.5365
21
0.567874
0
LINE
8
BLACK
6
CONTINUOUS
10
0.5365
20
0.567874
11
0.5915
21
0.567874
0
LINE
8
BLACK
6
CONTINUOUS
10
0.5915
20
0.567874
11
0.594513
21
0.567275
0
LINE
8
BLACK
6
CONTINUOUS
10
0.183013
20
0.667275
11
0.185568
21
0.665568
0
LINE
8
BLACK
6
CONTINUOUS
10
0.185568
20
0.665568
11
0.187275
21
0.663013
0
LINE
8
BLACK
6
CONTINUOUS
10
0.187275
20
0.663013
11
0.187874
21
0.66
0
LINE
8
BLACK
6
CONTINUOUS
10
0.187874
20
0.66
11
0.187874
21
0.6
0
LINE
8
BLACK
6
CONTINUOUS
10
0.187874
20
0.6
11
0.187275
21
0.596987
0
LINE
8
BLACK
6
CONTINUOUS
10
0.187275
20
0.596987
11
0.185568
21
0.594432
0
LINE
8
BLACK
6
CONTINUOUS
10
0.185568
20
0.594432
11
0.183013
21
0.592725
0
LINE
8
BLACK
6
CONTINUOUS
10
0.183013
20
0.592725
11
0.18
21
0.592126
0
LINE
8
BLACK
6
CONTINUOUS
10
0.18
20
0.592126
11
0.12
21
0.592126
0
LINE
8
BLACK
6
CONTINUOUS
10
0.12
20
0.592126
11
0.116987
21
0.592725
0
LINE
8
BLACK
6
CONTINUOUS
10
0.116987
20
0.592725
11
0.114432
21
0.594432
0
LINE
8
BLACK
6
CONTINUOUS
10
0.114432
20
0.594432
11
0.112725
21
0.596987
0
LINE
8
BLACK
6
CONTINUOUS
10
0.112725
20
0.596987
11
0.112126
21
0.6
0
LINE
8
BLACK
6
CONTINUOUS
10
0.112126
20
0.6
11
0.112126
21
0.66
0
LINE
8
BLACK
6
CONTINUOUS
10
0.112126
20
0.66
11
0.112725
21
0.663013
0
LINE
8
BLACK
6
CONTINUOUS
10
0.112725
20
0.663013
11
0.114432
21
0.665568
0
LINE
8
BLACK
6
CONTINUOUS
10
0.114432
20
0.665568
11
0.116987
21
0.667275
0
LINE
8
BLACK
6
CONTINUOUS
10
0.116987
20
0.667275
11
0.12
21
0.667874
0
LINE
8
BLACK
6
CONTINUOUS
10
0.12
20
0.667874
11
0.18
21
0.667874
0
LINE
8
BLACK
6
CONTINUOUS
10
0.18
20
0.667874
11
0.183013
21
0.667275
0
LINE
8
BLACK
6
CONTINUOUS
10
0.283013
20
0.667275
11
0.285568
21
0.665568
0
LINE
8
BLACK
6
CONTINUOUS
10
0.285568
20
0.665568
11
0.287275
21
0.663013
0
LINE
8
BLACK
6
CONTINUOUS
10
0.287275
20
0.663013
11
0.287874
21
0.66
0
LINE
8
BLACK
6
CONTINUOUS
10
0.287874
20
0.66
11
0.287874
21
0.6
0
LINE
8
BLACK
6
CONTINUOUS
10
0.287874
20
0.6
11
0.287275
21
0.596987
0
LINE
8
BLACK
6
CONTINUOUS
10
0.287275
20
0.596987
11
0.285568
21
0.594432
0
LINE
8
BLACK
6
CONTINUOUS
10
0.285568
20
0.594432
11
0.283013
21
0.592725
0
LINE
8
BLACK
6
CONTINUOUS
10
0.283013
20
0.592725
11
0.28
21
0.592126
0
LINE
8
BLACK
6
CONTINUOUS
10
0.28
20
0.592126
11
0.22
21
0.592126
0
LINE
8
BLACK
6
CONTINUOUS
10
0.22
20
0.592126
11
0.216987
21
0.592725
0
LINE
8
BLACK
6
CONTINUOUS
10
0.216987
20
0.592725
11
0.214432
21
0.594432
0
LINE
8
BLACK
6
CONTINUOUS
10
0.214432
20
0.594432
11
0.212725
21
0.596987
0
LINE
8
BLACK
6
CONTINUOUS
10
0.212725
20
0.596987
11
0.212126
21
0.6
0
LINE
8
BLACK
6
CONTINUOUS
10
0.212126
20
0.6
11
0.212126
21
0.66
0
LINE
8
BLACK
6
CONTINUOUS
10
0.212126
20
0.66
11
0.212725
21
0.663013
0
LINE
8
BLACK
6
CONTINUOUS
10
0.212725
20
0.663013
11
0.214432
21
0.665568
0
LINE
8
BLACK
6
CONTINUOUS
10
0.214432
20
0.665568
11
0.216987
21
0.667275
0
LINE
8
BLACK
6
CONTINUOUS
10
0.216987
20
0.667275
11
0.22
21
0.667874
0
LINE
8
BLACK
6
CONTINUOUS
10
0.22
20
0.667874
11
0.28
21
0.667874
0
LINE
8
BLACK
6
CONTINUOUS
10
0.28
20
0.667874
11
0.283013
21
0.667275
0
LINE
8
BLACK
6
CONTINUOUS
10
0.594513
20
0.642275
11
0.597068
21
0.640568
0
LINE
8
BLACK
6
CONTINUOUS
10
0.597068
20
0.640568
11
0.598775
21
0.638013
0
LINE
8
BLACK
6
CONTINUOUS
10
0.598775
20
0.638013
11
0.599374
21
0.635
0
LINE
8
BLACK
6
CONTINUOUS
10
0.599374
20
0.635
11
0.599374
21
0.6
0
LINE
8
BLACK
6
CONTINUOUS
10
0.599374
20
0.6
11
0.598775
21
0.596987
0
LINE
8
BLACK
6
CONTINUOUS
10
0.598775
20
0.596987
11
0.597068
21
0.594432
0
LINE
8
BLACK
6
CONTINUOUS
10
0.597068
20
0.594432
11
0.594513
21
0.592725
0
LINE
8
BLACK
6
CONTINUOUS
10
0.594513
20
0.592725
11
0.5915
21
0.592126
0
LINE
8
BLACK
6
CONTINUOUS
10
0.5915
20
0.592126
11
0.5365
21
0.592126
0
LINE
8
BLACK
6
CONTINUOUS
10
0.5365
20
0.592126
11
0.533487
21
0.592725
0
LINE
8
BLACK
6
CONTINUOUS
10
0.533487
20
0.592725
11
0.530932
21
0.594432
0
LINE
8
BLACK
6
CONTINUOUS
10
0.530932
20
0.594432
11
0.529225
21
0.596987
0
LINE
8
BLACK
6
CONTINUOUS
10
0.529225
20
0.596987
11
0.528626
21
0.6
0
LINE
8
BLACK
6
CONTINUOUS
10
0.528626
20
0.6
11
0.528626
21
0.635
0
LINE
8
BLACK
6
CONTINUOUS
10
0.528626
20
0.635
11
0.529225
21
0.638013
0
LINE
8
BLACK
6
CONTINUOUS
10
0.529225
20
0.638013
11
0.530932
21
0.640568
0
LINE
8
BLACK
6
CONTINUOUS
10
0.530932
20
0.640568
11
0.533487
21
0.642275
0
LINE
8
BLACK
6
CONTINUOUS
10
0.533487
20
0.642275
11
0.5365
21
0.642874
0
LINE
8
BLACK
6
CONTINUOUS
10
0.5365
20
0.642874
11
0.5915
21
0.642874
0
LINE
8
BLACK
6
CONTINUOUS
10
0.5915
20
0.642874
11
0.594513
21
0.642275
0
LINE
8
BLACK
6
CONTINUOUS
10
1.42301
20
0.667275
11
1.42557
21
0.665568
0
LINE
8
BLACK
6
CONTINUOUS
10
1.42557
20
0.665568
11
1.42727
21
0.663013
0
LINE
8
BLACK
6
CONTINUOUS
10
1.42727
20
0.663013
11
1.42787
21
0.66
0
LINE
8
BLACK
6
CONTINUOUS
10
1.42787
20
0.66
11
1.42787
21
0.6
0
LINE
8
BLACK
6
CONTINUOUS
10
1.42787
20
0.6
11
1.42727
21
0.596987
0
LINE
8
BLACK
6
CONTINUOUS
10
1.42727
20
0.596987
11
1.42557
21
0.594432
0
LINE
8
BLACK
6
CONTINUOUS
10
1.42557
20
0.594432
11
1.42301
21
0.592725
0
LINE
8
BLACK
6
CONTINUOUS
10
1.42301
20
0.592725
11
1.42
21
0.592126
0
LINE
8
BLACK
6
CONTINUOUS
10
1.42
20
0.592126
11
1.36
21
0.592126
0
LINE
8
BLACK
6
CONTINUOUS
10
1.36
20
0.592126
11
1.35699
21
0.592725
0
LINE
8
BLACK
6
CONTINUOUS
10
1.35699
20
0.592725
11
1.35443
21
0.594432
0
LINE
8
BLACK
6
CONTINUOUS
10
1.35443
20
0.594432
11
1.35273
21
0.596987
0
LINE
8
BLACK
6
CONTINUOUS
10
1.35273
20
0.596987
11
1.35213
21
0.6
0
LINE
8
BLACK
6
CONTINUOUS
10
1.35213
20
0.6
11
1.35213
21
0.66
0
LINE
8
BLACK
6
CONTINUOUS
10
1.35213
20
0.66
11
1.35273
21
0.663013
0
LINE
8
BLACK
6
CONTINUOUS
10
1.35273
20
0.663013
11
1.35443
21
0.665568
0
LINE
8
BLACK
6
CONTINUOUS
10
1.35443
20
0.665568
11
1.35699
21
0.667275
0
LINE
8
BLACK
6
CONTINUOUS
10
1.35699
20
0.667275
11
1.36
21
0.667874
0
LINE
8
BLACK
6
CONTINUOUS
10
1.36
20
0.667874
11
1.42
21
0.667874
0
LINE
8
BLACK
6
CONTINUOUS
10
1.42
20
0.667874
11
1.42301
21
0.667275
0
LINE
8
BLACK
6
CONTINUOUS
10
1.52301
20
0.667275
11
1.52557
21
0.665568
0
LINE
8
BLACK
6
CONTINUOUS
10
1.52557
20
0.665568
11
1.52727
21
0.663013
0
LINE
8
BLACK
6
CONTINUOUS
10
1.52727
20
0.663013
11
1.52787
21
0.66
0
LINE
8
BLACK
6
CONTINUOUS
10
1.52787
20
0.66
11
1.52787
21
0.6
0
LINE
8
BLACK
6
CONTINUOUS
10
1.52787
20
0.6
11
1.52727
21
0.596987
0
LINE
8
BLACK
6
CONTINUOUS
10
1.52727
20
0.596987
11
1.52557
21
0.594432
0
LINE
8
BLACK
6
CONTINUOUS
10
1.52557
20
0.594432
11
1.52301
21
0.592725
0
LINE
8
BLACK
6
CONTINUOUS
10
1.52301
20
0.592725
11
1.52
21
0.592126
0
LINE
8
BLACK
6
CONTINUOUS
10
1.52
20
0.592126
11
1.46
21
0.592126
0
LINE
8
BLACK
6
CONTINUOUS
10
1.46
20
0.592126
11
1.45699
21
0.592725
0
LINE
8
BLACK
6
CONTINUOUS
10
1.45699
20
0.592725
11
1.45443
21
0.594432
0
LINE
8
BLACK
6
CONTINUOUS
10
1.45443
20
0.594432
11
1.45273
21
0.596987
0
LINE
8
BLACK
6
CONTINUOUS
10
1.45273
20
0.596987
11
1.45213
21
0.6
0
LINE
8
BLACK
6
CONTINUOUS
10
1.45213
20
0.6
11
1.45213
21
0.66
0
LINE
8
BLACK
6
CONTINUOUS
10
1.45213
20
0.66
11
1.45273
21
0.663013
0
LINE
8
BLACK
6
CONTINUOUS
10
1.45273
20
0.663013
11
1.45443
21
0.665568
0
LINE
8
BLACK
6
CONTINUOUS
10
1.45443
20
0.665568
11
1.45699
21
0.667275
0
LINE
8
BLACK
6
CONTINUOUS
10
1.45699
20
0.667275
11
1.46
21
0.667874
0
LINE
8
BLACK
6
CONTINUOUS
10
1.46
20
0.667874
11
1.52
21
0.667874
0
LINE
8
BLACK
6
CONTINUOUS
10
1.52
20
0.667874
11
1.52301
21
0.667275
0
LINE
8
BLACK
6
CONTINUOUS
10
0.395013
20
0.662775
11
0.397568
21
0.661068
0
LINE
8
BLACK
6
CONTINUOUS
10
0.397568
20
0.661068
11
0.399275
21
0.658513
0
LINE
8
BLACK
6
CONTINUOUS
10
0.399275
20
0.658513
11
0.399874
21
0.6555
0
LINE
8
BLACK
6
CONTINUOUS
10
0.399874
20
0.6555
11
0.399874
21
0.6005
0
LINE
8
BLACK
6
CONTINUOUS
10
0.399874
20
0.6005
11
0.399275
21
0.597487
0
LINE
8
BLACK
6
CONTINUOUS
10
0.399275
20
0.597487
11
0.397568
21
0.594932
0
LINE
8
BLACK
6
CONTINUOUS
10
0.397568
20
0.594932
11
0.395013
21
0.593225
0
LINE
8
BLACK
6
CONTINUOUS
10
0.395013
20
0.593225
11
0.392
21
0.592626
0
LINE
8
BLACK
6
CONTINUOUS
10
0.392
20
0.592626
11
0.357
21
0.592626
0
LINE
8
BLACK
6
CONTINUOUS
10
0.357
20
0.592626
11
0.353987
21
0.593225
0
LINE
8
BLACK
6
CONTINUOUS
10
0.353987
20
0.593225
11
0.351432
21
0.594932
0
LINE
8
BLACK
6
CONTINUOUS
10
0.351432
20
0.594932
11
0.349725
21
0.597487
0
LINE
8
BLACK
6
CONTINUOUS
10
0.349725
20
0.597487
11
0.349126
21
0.6005
0
LINE
8
BLACK
6
CONTINUOUS
10
0.349126
20
0.6005
11
0.349126
21
0.6555
0
LINE
8
BLACK
6
CONTINUOUS
10
0.349126
20
0.6555
11
0.349725
21
0.658513
0
LINE
8
BLACK
6
CONTINUOUS
10
0.349725
20
0.658513
11
0.351432
21
0.661068
0
LINE
8
BLACK
6
CONTINUOUS
10
0.351432
20
0.661068
11
0.353987
21
0.662775
0
LINE
8
BLACK
6
CONTINUOUS
10
0.353987
20
0.662775
11
0.357
21
0.663374
0
LINE
8
BLACK
6
CONTINUOUS
10
0.357
20
0.663374
11
0.392
21
0.663374
0
LINE
8
BLACK
6
CONTINUOUS
10
0.392
20
0.663374
11
0.395013
21
0.662775
0
LINE
8
BLACK
6
CONTINUOUS
10
0.470013
20
0.662775
11
0.472568
21
0.661068
0
LINE
8
BLACK
6
CONTINUOUS
10
0.472568
20
0.661068
11
0.474275
21
0.658513
0
LINE
8
BLACK
6
CONTINUOUS
10
0.474275
20
0.658513
11
0.474874
21
0.6555
0
LINE
8
BLACK
6
CONTINUOUS
10
0.474874
20
0.6555
11
0.474874
21
0.6005
0
LINE
8
BLACK
6
CONTINUOUS
10
0.474874
20
0.6005
11
0.474275
21
0.597487
0
LINE
8
BLACK
6
CONTINUOUS
10
0.474275
20
0.597487
11
0.472568
21
0.594932
0
LINE
8
BLACK
6
CONTINUOUS
10
0.472568
20
0.594932
11
0.470013
21
0.593225
0
LINE
8
BLACK
6
CONTINUOUS
10
0.470013
20
0.593225
11
0.467
21
0.592626
0
LINE
8
BLACK
6
CONTINUOUS
10
0.467
20
0.592626
11
0.432
21
0.592626
0
LINE
8
BLACK
6
CONTINUOUS
10
0.432
20
0.592626
11
0.428987
21
0.593225
0
LINE
8
BLACK
6
CONTINUOUS
10
0.428987
20
0.593225
11
0.426432
21
0.594932
0
LINE
8
BLACK
6
CONTINUOUS
10
0.426432
20
0.594932
11
0.424725
21
0.597487
0
LINE
8
BLACK
6
CONTINUOUS
10
0.424725
20
0.597487
11
0.424126
21
0.6005
0
LINE
8
BLACK
6
CONTINUOUS
10
0.424126
20
0.6005
11
0.424126
21
0.6555
0
LINE
8
BLACK
6
CONTINUOUS
10
0.424126
20
0.6555
11
0.424725
21
0.658513
0
LINE
8
BLACK
6
CONTINUOUS
10
0.424725
20
0.658513
11
0.426432
21
0.661068
0
LINE
8
BLACK
6
CONTINUOUS
10
0.426432
20
0.661068
11
0.428987
21
0.662775
0
LINE
8
BLACK
6
CONTINUOUS
10
0.428987
20
0.662775
11
0.432
21
0.663374
0
LINE
8
BLACK
6
CONTINUOUS
10
0.432
20
0.663374
11
0.467
21
0.663374
0
LINE
8
BLACK
6
CONTINUOUS
10
0.467
20
0.663374
11
0.470013
21
0.662775
0
LINE
8
BLACK
6
CONTINUOUS
10
0.688513
20
0.664775
11
0.691068
21
0.663068
0
LINE
8
BLACK
6
CONTINUOUS
10
0.691068
20
0.663068
11
0.692775
21
0.660513
0
LINE
8
BLACK
6
CONTINUOUS
10
0.692775
20
0.660513
11
0.693374
21
0.6575
0
LINE
8
BLACK
6
CONTINUOUS
10
0.693374
20
0.6575
11
0.693374
21
0.6025
0
LINE
8
BLACK
6
CONTINUOUS
10
0.693374
20
0.6025
11
0.692775
21
0.599487
0
LINE
8
BLACK
6
CONTINUOUS
10
0.692775
20
0.599487
11
0.691068
21
0.596932
0
LINE
8
BLACK
6
CONTINUOUS
10
0.691068
20
0.596932
11
0.688513
21
0.595225
0
LINE
8
BLACK
6
CONTINUOUS
10
0.688513
20
0.595225
11
0.6855
21
0.594626
0
LINE
8
BLACK
6
CONTINUOUS
10
0.6855
20
0.594626
11
0.6505
21
0.594626
0
LINE
8
BLACK
6
CONTINUOUS
10
0.6505
20
0.594626
11
0.647487
21
0.595225
0
LINE
8
BLACK
6
CONTINUOUS
10
0.647487
20
0.595225
11
0.644932
21
0.596932
0
LINE
8
BLACK
6
CONTINUOUS
10
0.644932
20
0.596932
11
0.643225
21
0.599487
0
LINE
8
BLACK
6
CONTINUOUS
10
0.643225
20
0.599487
11
0.642626
21
0.6025
0
LINE
8
BLACK
6
CONTINUOUS
10
0.642626
20
0.6025
11
0.642626
21
0.6575
0
LINE
8
BLACK
6
CONTINUOUS
10
0.642626
20
0.6575
11
0.643225
21
0.660513
0
LINE
8
BLACK
6
CONTINUOUS
10
0.643225
20
0.660513
11
0.644932
21
0.663068
0
LINE
8
BLACK
6
CONTINUOUS
10
0.644932
20
0.663068
11
0.647487
21
0.664775
0
LINE
8
BLACK
6
CONTINUOUS
10
0.647487
20
0.664775
11
0.6505
21
0.665374
0
LINE
8
BLACK
6
CONTINUOUS
10
0.6505
20
0.665374
11
0.6855
21
0.665374
0
LINE
8
BLACK
6
CONTINUOUS
10
0.6855
20
0.665374
11
0.688513
21
0.664775
0
LINE
8
BLACK
6
CONTINUOUS
10
0.763513
20
0.664775
11
0.766068
21
0.663068
0
LINE
8
BLACK
6
CONTINUOUS
10
0.766068
20
0.663068
11
0.767775
21
0.660513
0
LINE
8
BLACK
6
CONTINUOUS
10
0.767775
20
0.660513
11
0.768374
21
0.6575
0
LINE
8
BLACK
6
CONTINUOUS
10
0.768374
20
0.6575
11
0.768374
21
0.6025
0
LINE
8
BLACK
6
CONTINUOUS
10
0.768374
20
0.6025
11
0.767775
21
0.599487
0
LINE
8
BLACK
6
CONTINUOUS
10
0.767775
20
0.599487
11
0.766068
21
0.596932
0
LINE
8
BLACK
6
CONTINUOUS
10
0.766068
20
0.596932
11
0.763513
21
0.595225
0
LINE
8
BLACK
6
CONTINUOUS
10
0.763513
20
0.595225
11
0.7605
21
0.594626
0
LINE
8
BLACK
6
CONTINUOUS
10
0.7605
20
0.594626
11
0.7255
21
0.594626
0
LINE
8
BLACK
6
CONTINUOUS
10
0.7255
20
0.594626
11
0.722487
21
0.595225
0
LINE
8
BLACK
6
CONTINUOUS
10
0.722487
20
0.595225
11
0.719932
21
0.596932
0
LINE
8
BLACK
6
CONTINUOUS
10
0.719932
20
0.596932
11
0.718225
21
0.599487
0
LINE
8
BLACK
6
CONTINUOUS
10
0.718225
20
0.599487
11
0.717626
21
0.6025
0
LINE
8
BLACK
6
CONTINUOUS
10
0.717626
20
0.6025
11
0.717626
21
0.6575
0
LINE
8
BLACK
6
CONTINUOUS
10
0.717626
20
0.6575
11
0.718225
21
0.660513
0
LINE
8
BLACK
6
CONTINUOUS
10
0.718225
20
0.660513
11
0.719932
21
0.663068
0
LINE
8
BLACK
6
CONTINUOUS
10
0.719932
20
0.663068
11
0.722487
21
0.664775
0
LINE
8
BLACK
6
CONTINUOUS
10
0.722487
20
0.664775
11
0.7255
21
0.665374
0
LINE
8
BLACK
6
CONTINUOUS
10
0.7255
20
0.665374
11
0.7605
21
0.665374
0
LINE
8
BLACK
6
CONTINUOUS
10
0.7605
20
0.665374
11
0.763513
21
0.664775
0
LINE
8
BLACK
6
CONTINUOUS
10
0.977186
20
0.646645
11
0.979741
21
0.644938
0
LINE
8
BLACK
6
CONTINUOUS
10
0.979741
20
0.644938
11
0.981448
21
0.642383
0
LINE
8
BLACK
6
CONTINUOUS
10
0.981448
20
0.642383
11
0.982047
21
0.63937
0
LINE
8
BLACK
6
CONTINUOUS
10
0.982047
20
0.63937
11
0.982047
21
0.609449
0
LINE
8
BLACK
6
CONTINUOUS
10
0.982047
20
0.609449
11
0.981448
21
0.606436
0
LINE
8
BLACK
6
CONTINUOUS
10
0.981448
20
0.606436
11
0.979741
21
0.603881
0
LINE
8
BLACK
6
CONTINUOUS
10
0.979741
20
0.603881
11
0.977186
21
0.602174
0
LINE
8
BLACK
6
CONTINUOUS
10
0.977186
20
0.602174
11
0.974173
21
0.601575
0
LINE
8
BLACK
6
CONTINUOUS
10
0.974173
20
0.601575
11
0.859213
21
0.601575
0
LINE
8
BLACK
6
CONTINUOUS
10
0.859213
20
0.601575
11
0.856199
21
0.602174
0
LINE
8
BLACK
6
CONTINUOUS
10
0.856199
20
0.602174
11
0.853645
21
0.603881
0
LINE
8
BLACK
6
CONTINUOUS
10
0.853645
20
0.603881
11
0.851938
21
0.606436
0
LINE
8
BLACK
6
CONTINUOUS
10
0.851938
20
0.606436
11
0.851339
21
0.609449
0
LINE
8
BLACK
6
CONTINUOUS
10
0.851339
20
0.609449
11
0.851339
21
0.63937
0
LINE
8
BLACK
6
CONTINUOUS
10
0.851339
20
0.63937
11
0.851938
21
0.642383
0
LINE
8
BLACK
6
CONTINUOUS
10
0.851938
20
0.642383
11
0.853645
21
0.644938
0
LINE
8
BLACK
6
CONTINUOUS
10
0.853645
20
0.644938
11
0.856199
21
0.646645
0
LINE
8
BLACK
6
CONTINUOUS
10
0.856199
20
0.646645
11
0.859213
21
0.647244
0
LINE
8
BLACK
6
CONTINUOUS
10
0.859213
20
0.647244
11
0.974173
21
0.647244
0
LINE
8
BLACK
6
CONTINUOUS
10
0.974173
20
0.647244
11
0.977186
21
0.646645
0
LINE
8
BLACK
6
CONTINUOUS
10
1.2638
20
0.646645
11
1.26636
21
0.644938
0
LINE
8
BLACK
6
CONTINUOUS
10
1.26636
20
0.644938
11
1.26806
21
0.642383
0
LINE
8
BLACK
6
CONTINUOUS
10
1.26806
20
0.642383
11
1.26866
21
0.63937
0
LINE
8
BLACK
6
CONTINUOUS
10
1.26866
20
0.63937
11
1.26866
21
0.609449
0
LINE
8
BLACK
6
CONTINUOUS
10
1.26866
20
0.609449
11
1.26806
21
0.606436
0
LINE
8
BLACK
6
CONTINUOUS
10
1.26806
20
0.606436
11
1.26636
21
0.603881
0
LINE
8
BLACK
6
CONTINUOUS
10
1.26636
20
0.603881
11
1.2638
21
0.602174
0
LINE
8
BLACK
6
CONTINUOUS
10
1.2638
20
0.602174
11
1.26079
21
0.601575
0
LINE
8
BLACK
6
CONTINUOUS
10
1.26079
20
0.601575
11
1.14583
21
0.601575
0
LINE
8
BLACK
6
CONTINUOUS
10
1.14583
20
0.601575
11
1.14281
21
0.602174
0
LINE
8
BLACK
6
CONTINUOUS
10
1.14281
20
0.602174
11
1.14026
21
0.603881
0
LINE
8
BLACK
6
CONTINUOUS
10
1.14026
20
0.603881
11
1.13855
21
0.606436
0
LINE
8
BLACK
6
CONTINUOUS
10
1.13855
20
0.606436
11
1.13795
21
0.609449
0
LINE
8
BLACK
6
CONTINUOUS
10
1.13795
20
0.609449
11
1.13795
21
0.63937
0
LINE
8
BLACK
6
CONTINUOUS
10
1.13795
20
0.63937
11
1.13855
21
0.642383
0
LINE
8
BLACK
6
CONTINUOUS
10
1.13855
20
0.642383
11
1.14026
21
0.644938
0
LINE
8
BLACK
6
CONTINUOUS
10
1.14026
20
0.644938
11
1.14281
21
0.646645
0
LINE
8
BLACK
6
CONTINUOUS
10
1.14281
20
0.646645
11
1.14583
21
0.647244
0
LINE
8
BLACK
6
CONTINUOUS
10
1.14583
20
0.647244
11
1.26079
21
0.647244
0
LINE
8
BLACK
6
CONTINUOUS
10
1.26079
20
0.647244
11
1.2638
21
0.646645
0
LINE
8
BLACK
6
CONTINUOUS
10
0.977186
20
0.696645
11
0.979741
21
0.694938
0
LINE
8
BLACK
6
CONTINUOUS
10
0.979741
20
0.694938
11
0.981448
21
0.692383
0
LINE
8
BLACK
6
CONTINUOUS
10
0.981448
20
0.692383
11
0.982047
21
0.68937
0
LINE
8
BLACK
6
CONTINUOUS
10
0.982047
20
0.68937
11
0.982047
21
0.659449
0
LINE
8
BLACK
6
CONTINUOUS
10
0.982047
20
0.659449
11
0.981448
21
0.656436
0
LINE
8
BLACK
6
CONTINUOUS
10
0.981448
20
0.656436
11
0.979741
21
0.653881
0
LINE
8
BLACK
6
CONTINUOUS
10
0.979741
20
0.653881
11
0.977186
21
0.652174
0
LINE
8
BLACK
6
CONTINUOUS
10
0.977186
20
0.652174
11
0.974173
21
0.651575
0
LINE
8
BLACK
6
CONTINUOUS
10
0.974173
20
0.651575
11
0.859213
21
0.651575
0
LINE
8
BLACK
6
CONTINUOUS
10
0.859213
20
0.651575
11
0.856199
21
0.652174
0
LINE
8
BLACK
6
CONTINUOUS
10
0.856199
20
0.652174
11
0.853645
21
0.653881
0
LINE
8
BLACK
6
CONTINUOUS
10
0.853645
20
0.653881
11
0.851938
21
0.656436
0
LINE
8
BLACK
6
CONTINUOUS
10
0.851938
20
0.656436
11
0.851339
21
0.659449
0
LINE
8
BLACK
6
CONTINUOUS
10
0.851339
20
0.659449
11
0.851339
21
0.68937
0
LINE
8
BLACK
6
CONTINUOUS
10
0.851339
20
0.68937
11
0.851938
21
0.692383
0
LINE
8
BLACK
6
CONTINUOUS
10
0.851938
20
0.692383
11
0.853645
21
0.694938
0
LINE
8
BLACK
6
CONTINUOUS
10
0.853645
20
0.694938
11
0.856199
21
0.696645
0
LINE
8
BLACK
6
CONTINUOUS
10
0.856199
20
0.696645
11
0.859213
21
0.697244
0
LINE
8
BLACK
6
CONTINUOUS
10
0.859213
20
0.697244
11
0.974173
21
0.697244
0
LINE
8
BLACK
6
CONTINUOUS
10
0.974173
20
0.697244
11
0.977186
21
0.696645
0
LINE
8
BLACK
6
CONTINUOUS
10
1.2638
20
0.696645
11
1.26636
21
0.694938
0
LINE
8
BLACK
6
CONTINUOUS
10
1.26636
20
0.694938
11
1.26806
21
0.692383
0
LINE
8
BLACK
6
CONTINUOUS
10
1.26806
20
0.692383
11
1.26866
21
0.68937
0
LINE
8
BLACK
6
CONTINUOUS
10
1.26866
20
0.68937
11
1.26866
21
0.659449
0
LINE
8
BLACK
6
CONTINUOUS
10
1.26866
20
0.659449
11
1.26806
21
0.656436
0
LINE
8
BLACK
6
CONTINUOUS
10
1.26806
20
0.656436
11
1.26636
21
0.653881
0
LINE
8
BLACK
6
CONTINUOUS
10
1.26636
20
0.653881
11
1.2638
21
0.652174
0
LINE
8
BLACK
6
CONTINUOUS
10
1.2638
20
0.652174
11
1.26079
21
0.651575
0
LINE
8
BLACK
6
CONTINUOUS
10
1.26079
20
0.651575
11
1.14583
21
0.651575
0
LINE
8
BLACK
6
CONTINUOUS
10
1.14583
20
0.651575
11
1.14281
21
0.652174
0
LINE
8
BLACK
6
CONTINUOUS
10
1.14281
20
0.652174
11
1.14026
21
0.653881
0
LINE
8
BLACK
6
CONTINUOUS
10
1.14026
20
0.653881
11
1.13855
21
0.656436
0
LINE
8
BLACK
6
CONTINUOUS
10
1.13855
20
0.656436
11
1.13795
21
0.659449
0
LINE
8
BLACK
6
CONTINUOUS
10
1.13795
20
0.659449
11
1.13795
21
0.68937
0
LINE
8
BLACK
6
CONTINUOUS
10
1.13795
20
0.68937
11
1.13855
21
0.692383
0
LINE
8
BLACK
6
CONTINUOUS
10
1.13855
20
0.692383
11
1.14026
21
0.694938
0
LINE
8
BLACK
6
CONTINUOUS
10
1.14026
20
0.694938
11
1.14281
21
0.696645
0
LINE
8
BLACK
6
CONTINUOUS
10
1.14281
20
0.696645
11
1.14583
21
0.697244
0
LINE
8
BLACK
6
CONTINUOUS
10
1.14583
20
0.697244
11
1.26079
21
0.697244
0
LINE
8
BLACK
6
CONTINUOUS
10
1.26079
20
0.697244
11
1.2638
21
0.696645
0
LINE
8
BLACK
6
CONTINUOUS
10
0.183013
20
0.767275
11
0.185568
21
0.765568
0
LINE
8
BLACK
6
CONTINUOUS
10
0.185568
20
0.765568
11
0.187275
21
0.763013
0
LINE
8
BLACK
6
CONTINUOUS
10
0.187275
20
0.763013
11
0.187874
21
0.76
0
LINE
8
BLACK
6
CONTINUOUS
10
0.187874
20
0.76
11
0.187874
21
0.7
0
LINE
8
BLACK
6
CONTINUOUS
10
0.187874
20
0.7
11
0.187275
21
0.696987
0
LINE
8
BLACK
6
CONTINUOUS
10
0.187275
20
0.696987
11
0.185568
21
0.694432
0
LINE
8
BLACK
6
CONTINUOUS
10
0.185568
20
0.694432
11
0.183013
21
0.692725
0
LINE
8
BLACK
6
CONTINUOUS
10
0.183013
20
0.692725
11
0.18
21
0.692126
0
LINE
8
BLACK
6
CONTINUOUS
10
0.18
20
0.692126
11
0.12
21
0.692126
0
LINE
8
BLACK
6
CONTINUOUS
10
0.12
20
0.692126
11
0.116987
21
0.692725
0
LINE
8
BLACK
6
CONTINUOUS
10
0.116987
20
0.692725
11
0.114432
21
0.694432
0
LINE
8
BLACK
6
CONTINUOUS
10
0.114432
20
0.694432
11
0.112725
21
0.696987
0
LINE
8
BLACK
6
CONTINUOUS
10
0.112725
20
0.696987
11
0.112126
21
0.7
0
LINE
8
BLACK
6
CONTINUOUS
10
0.112126
20
0.7
11
0.112126
21
0.76
0
LINE
8
BLACK
6
CONTINUOUS
10
0.112126
20
0.76
11
0.112725
21
0.763013
0
LINE
8
BLACK
6
CONTINUOUS
10
0.112725
20
0.763013
11
0.114432
21
0.765568
0
LINE
8
BLACK
6
CONTINUOUS
10
0.114432
20
0.765568
11
0.116987
21
0.767275
0
LINE
8
BLACK
6
CONTINUOUS
10
0.116987
20
0.767275
11
0.12
21
0.767874
0
LINE
8
BLACK
6
CONTINUOUS
10
0.12
20
0.767874
11
0.18
21
0.767874
0
LINE
8
BLACK
6
CONTINUOUS
10
0.18
20
0.767874
11
0.183013
21
0.767275
0
LINE
8
BLACK
6
CONTINUOUS
10
0.283013
20
0.767275
11
0.285568
21
0.765568
0
LINE
8
BLACK
6
CONTINUOUS
10
0.285568
20
0.765568
11
0.287275
21
0.763013
0
LINE
8
BLACK
6
CONTINUOUS
10
0.287275
20
0.763013
11
0.287874
21
0.76
0
LINE
8
BLACK
6
CONTINUOUS
10
0.287874
20
0.76
11
0.287874
21
0.7
0
LINE
8
BLACK
6
CONTINUOUS
10
0.287874
20
0.7
11
0.287275
21
0.696987
0
LINE
8
BLACK
6
CONTINUOUS
10
0.287275
20
0.696987
11
0.285568
21
0.694432
0
LINE
8
BLACK
6
CONTINUOUS
10
0.285568
20
0.694432
11
0.283013
21
0.692725
0
LINE
8
BLACK
6
CONTINUOUS
10
0.283013
20
0.692725
11
0.28
21
0.692126
0
LINE
8
BLACK
6
CONTINUOUS
10
0.28
20
0.692126
11
0.22
21
0.692126
0
LINE
8
BLACK
6
CONTINUOUS
10
0.22
20
0.692126
11
0.216987
21
0.692725
0
LINE
8
BLACK
6
CONTINUOUS
10
0.216987
20
0.692725
11
0.214432
21
0.694432
0
LINE
8
BLACK
6
CONTINUOUS
10
0.214432
20
0.694432
11
0.212725
21
0.696987
0
LINE
8
BLACK
6
CONTINUOUS
10
0.212725
20
0.696987
11
0.212126
21
0.7
0
LINE
8
BLACK
6
CONTINUOUS
10
0.212126
20
0.7
11
0.212126
21
0.76
0
LINE
8
BLACK
6
CONTINUOUS
10
0.212126
20
0.76
11
0.212725
21
0.763013
0
LINE
8
BLACK
6
CONTINUOUS
10
0.212725
20
0.763013
11
0.214432
21
0.765568
0
LINE
8
BLACK
6
CONTINUOUS
10
0.214432
20
0.765568
11
0.216987
21
0.767275
0
LINE
8
BLACK
6
CONTINUOUS
10
0.216987
20
0.767275
11
0.22
21
0.767874
0
LINE
8
BLACK
6
CONTINUOUS
10
0.22
20
0.767874
11
0.28
21
0.767874
0
LINE
8
BLACK
6
CONTINUOUS
10
0.28
20
0.767874
11
0.283013
21
0.767275
0
LINE
8
BLACK
6
CONTINUOUS
10
1.42301
20
0.767275
11
1.42557
21
0.765568
0
LINE
8
BLACK
6
CONTINUOUS
10
1.42557
20
0.765568
11
1.42727
21
0.763013
0
LINE
8
BLACK
6
CONTINUOUS
10
1.42727
20
0.763013
11
1.42787
21
0.76
0
LINE
8
BLACK
6
CONTINUOUS
10
1.42787
20
0.76
11
1.42787
21
0.7
0
LINE
8
BLACK
6
CONTINUOUS
10
1.42787
20
0.7
11
1.42727
21
0.696987
0
LINE
8
BLACK
6
CONTINUOUS
10
1.42727
20
0.696987
11
1.42557
21
0.694432
0
LINE
8
BLACK
6
CONTINUOUS
10
1.42557
20
0.694432
11
1.42301
21
0.692725
0
LINE
8
BLACK
6
CONTINUOUS
10
1.42301
20
0.692725
11
1.42
21
0.692126
0
LINE
8
BLACK
6
CONTINUOUS
10
1.42
20
0.692126
11
1.36
21
0.692126
0
LINE
8
BLACK
6
CONTINUOUS
10
1.36
20
0.692126
11
1.35699
21
0.692725
0
LINE
8
BLACK
6
CONTINUOUS
10
1.35699
20
0.692725
11
1.35443
21
0.694432
0
LINE
8
BLACK
6
CONTINUOUS
10
1.35443
20
0.694432
11
1.35273
21
0.696987
0
LINE
8
BLACK
6
CONTINUOUS
10
1.35273
20
0.696987
11
1.35213
21
0.7
0
LINE
8
BLACK
6
CONTINUOUS
10
1.35213
20
0.7
11
1.35213
21
0.76
0
LINE
8
BLACK
6
CONTINUOUS
10
1.35213
20
0.76
11
1.35273
21
0.763013
0
LINE
8
BLACK
6
CONTINUOUS
10
1.35273
20
0.763013
11
1.35443
21
0.765568
0
LINE
8
BLACK
6
CONTINUOUS
10
1.35443
20
0.765568
11
1.35699
21
0.767275
0
LINE
8
BLACK
6
CONTINUOUS
10
1.35699
20
0.767275
11
1.36
21
0.767874
0
LINE
8
BLACK
6
CONTINUOUS
10
1.36
20
0.767874
11
1.42
21
0.767874
0
LINE
8
BLACK
6
CONTINUOUS
10
1.42
20
0.767874
11
1.42301
21
0.767275
0
LINE
8
BLACK
6
CONTINUOUS
10
1.52301
20
0.767275
11
1.52557
21
0.765568
0
LINE
8
BLACK
6
CONTINUOUS
10
1.52557
20
0.765568
11
1.52727
21
0.763013
0
LINE
8
BLACK
6
CONTINUOUS
10
1.52727
20
0.763013
11
1.52787
21
0.76
0
LINE
8
BLACK
6
CONTINUOUS
10
1.52787
20
0.76
11
1.52787
21
0.7
0
LINE
8
BLACK
6
CONTINUOUS
10
1.52787
20
0.7
11
1.52727
21
0.696987
0
LINE
8
BLACK
6
CONTINUOUS
10
1.52727
20
0.696987
11
1.52557
21
0.694432
0
LINE
8
BLACK
6
CONTINUOUS
10
1.52557
20
0.694432
11
1.52301
21
0.692725
0
LINE
8
BLACK
6
CONTINUOUS
10
1.52301
20
0.692725
11
1.52
21
0.692126
0
LINE
8
BLACK
6
CONTINUOUS
10
1.52
20
0.692126
11
1.46
21
0.692126
0
LINE
8
BLACK
6
CONTINUOUS
10
1.46
20
0.692126
11
1.45699
21
0.692725
0
LINE
8
BLACK
6
CONTINUOUS
10
1.45699
20
0.692725
11
1.45443
21
0.694432
0
LINE
8
BLACK
6
CONTINUOUS
10
1.45443
20
0.694432
11
1.45273
21
0.696987
0
LINE
8
BLACK
6
CONTINUOUS
10
1.45273
20
0.696987
11
1.45213
21
0.7
0
LINE
8
BLACK
6
CONTINUOUS
10
1.45213
20
0.7
11
1.45213
21
0.76
0
LINE
8
BLACK
6
CONTINUOUS
10
1.45213
20
0.76
11
1.45273
21
0.763013
0
LINE
8
BLACK
6
CONTINUOUS
10
1.45273
20
0.763013
11
1.45443
21
0.765568
0
LINE
8
BLACK
6
CONTINUOUS
10
1.45443
20
0.765568
11
1.45699
21
0.767275
0
LINE
8
BLACK
6
CONTINUOUS
10
1.45699
20
0.767275
11
1.46
21
0.767874
0
LINE
8
BLACK
6
CONTINUOUS
10
1.46
20
0.767874
11
1.52
21
0.767874
0
LINE
8
BLACK
6
CONTINUOUS
10
1.52
20
0.767874
11
1.52301
21
0.767275
0
LINE
8
BLACK
6
CONTINUOUS
10
0.977186
20
0.746645
11
0.979741
21
0.744938
0
LINE
8
BLACK
6
CONTINUOUS
10
0.979741
20
0.744938
11
0.981448
21
0.742383
0
LINE
8
BLACK
6
CONTINUOUS
10
0.981448
20
0.742383
11
0.982047
21
0.73937
0
LINE
8
BLACK
6
CONTINUOUS
10
0.982047
20
0.73937
11
0.982047
21
0.709449
0
LINE
8
BLACK
6
CONTINUOUS
10
0.982047
20
0.709449
11
0.981448
21
0.706436
0
LINE
8
BLACK
6
CONTINUOUS
10
0.981448
20
0.706436
11
0.979741
21
0.703881
0
LINE
8
BLACK
6
CONTINUOUS
10
0.979741
20
0.703881
11
0.977186
21
0.702174
0
LINE
8
BLACK
6
CONTINUOUS
10
0.977186
20
0.702174
11
0.974173
21
0.701575
0
LINE
8
BLACK
6
CONTINUOUS
10
0.974173
20
0.701575
11
0.859213
21
0.701575
0
LINE
8
BLACK
6
CONTINUOUS
10
0.859213
20
0.701575
11
0.856199
21
0.702174
0
LINE
8
BLACK
6
CONTINUOUS
10
0.856199
20
0.702174
11
0.853645
21
0.703881
0
LINE
8
BLACK
6
CONTINUOUS
10
0.853645
20
0.703881
11
0.851938
21
0.706436
0
LINE
8
BLACK
6
CONTINUOUS
10
0.851938
20
0.706436
11
0.851339
21
0.709449
0
LINE
8
BLACK
6
CONTINUOUS
10
0.851339
20
0.709449
11
0.851339
21
0.73937
0
LINE
8
BLACK
6
CONTINUOUS
10
0.851339
20
0.73937
11
0.851938
21
0.742383
0
LINE
8
BLACK
6
CONTINUOUS
10
0.851938
20
0.742383
11
0.853645
21
0.744938
0
LINE
8
BLACK
6
CONTINUOUS
10
0.853645
20
0.744938
11
0.856199
21
0.746645
0
LINE
8
BLACK
6
CONTINUOUS
10
0.856199
20
0.746645
11
0.859213
21
0.747244
0
LINE
8
BLACK
6
CONTINUOUS
10
0.859213
20
0.747244
11
0.974173
21
0.747244
0
LINE
8
BLACK
6
CONTINUOUS
10
0.974173
20
0.747244
11
0.977186
21
0.746645
0
LINE
8
BLACK
6
CONTINUOUS
10
1.2638
20
0.746645
11
1.26636
21
0.744938
0
LINE
8
BLACK
6
CONTINUOUS
10
1.26636
20
0.744938
11
1.26806
21
0.742383
0
LINE
8
BLACK
6
CONTINUOUS
10
1.26806
20
0.742383
11
1.26866
21
0.73937
0
LINE
8
BLACK
6
CONTINUOUS
10
1.26866
20
0.73937
11
1.26866
21
0.709449
0
LINE
8
BLACK
6
CONTINUOUS
10
1.26866
20
0.709449
11
1.26806
21
0.706436
0
LINE
8
BLACK
6
CONTINUOUS
10
1.26806
20
0.706436
11
1.26636
21
0.703881
0
LINE
8
BLACK
6
CONTINUOUS
10
1.26636
20
0.703881
11
1.2638
21
0.702174
0
LINE
8
BLACK
6
CONTINUOUS
10
1.2638
20
0.702174
11
1.26079
21
0.701575
0
LINE
8
BLACK
6
CONTINUOUS
10
1.26079
20
0.701575
11
1.14583
21
0.701575
0
LINE
8
BLACK
6
CONTINUOUS
10
1.14583
20
0.701575
11
1.14281
21
0.702174
0
LINE
8
BLACK
6
CONTINUOUS
10
1.14281
20
0.702174
11
1.14026
21
0.703881
0
LINE
8
BLACK
6
CONTINUOUS
10
1.14026
20
0.703881
11
1.13855
21
0.706436
0
LINE
8
BLACK
6
CONTINUOUS
10
1.13855
20
0.706436
11
1.13795
21
0.709449
0
LINE
8
BLACK
6
CONTINUOUS
10
1.13795
20
0.709449
11
1.13795
21
0.73937
0
LINE
8
BLACK
6
CONTINUOUS
10
1.13795
20
0.73937
11
1.13855
21
0.742383
0
LINE
8
BLACK
6
CONTINUOUS
10
1.13855
20
0.742383
11
1.14026
21
0.744938
0
LINE
8
BLACK
6
CONTINUOUS
10
1.14026
20
0.744938
11
1.14281
21
0.746645
0
LINE
8
BLACK
6
CONTINUOUS
10
1.14281
20
0.746645
11
1.14583
21
0.747244
0
LINE
8
BLACK
6
CONTINUOUS
10
1.14583
20
0.747244
11
1.26079
21
0.747244
0
LINE
8
BLACK
6
CONTINUOUS
10
1.26079
20
0.747244
11
1.2638
21
0.746645
0
LINE
8
BLACK
6
CONTINUOUS
10
0.977186
20
0.797235
11
0.979741
21
0.795528
0
LINE
8
BLACK
6
CONTINUOUS
10
0.979741
20
0.795528
11
0.981448
21
0.792974
0
LINE
8
BLACK
6
CONTINUOUS
10
0.981448
20
0.792974
11
0.982047
21
0.789961
0
LINE
8
BLACK
6
CONTINUOUS
10
0.982047
20
0.789961
11
0.982047
21
0.760039
0
LINE
8
BLACK
6
CONTINUOUS
10
0.982047
20
0.760039
11
0.981448
21
0.757026
0
LINE
8
BLACK
6
CONTINUOUS
10
0.981448
20
0.757026
11
0.979741
21
0.754472
0
LINE
8
BLACK
6
CONTINUOUS
10
0.979741
20
0.754472
11
0.977186
21
0.752765
0
LINE
8
BLACK
6
CONTINUOUS
10
0.977186
20
0.752765
11
0.974173
21
0.752165
0
LINE
8
BLACK
6
CONTINUOUS
10
0.974173
20
0.752165
11
0.859213
21
0.752165
0
LINE
8
BLACK
6
CONTINUOUS
10
0.859213
20
0.752165
11
0.856199
21
0.752765
0
LINE
8
BLACK
6
CONTINUOUS
10
0.856199
20
0.752765
11
0.853645
21
0.754472
0
LINE
8
BLACK
6
CONTINUOUS
10
0.853645
20
0.754472
11
0.851938
21
0.757026
0
LINE
8
BLACK
6
CONTINUOUS
10
0.851938
20
0.757026
11
0.851339
21
0.760039
0
LINE
8
BLACK
6
CONTINUOUS
10
0.851339
20
0.760039
11
0.851339
21
0.789961
0
LINE
8
BLACK
6
CONTINUOUS
10
0.851339
20
0.789961
11
0.851938
21
0.792974
0
LINE
8
BLACK
6
CONTINUOUS
10
0.851938
20
0.792974
11
0.853645
21
0.795528
0
LINE
8
BLACK
6
CONTINUOUS
10
0.853645
20
0.795528
11
0.856199
21
0.797235
0
LINE
8
BLACK
6
CONTINUOUS
10
0.856199
20
0.797235
11
0.859213
21
0.797835
0
LINE
8
BLACK
6
CONTINUOUS
10
0.859213
20
0.797835
11
0.974173
21
0.797835
0
LINE
8
BLACK
6
CONTINUOUS
10
0.974173
20
0.797835
11
0.977186
21
0.797235
0
LINE
8
BLACK
6
CONTINUOUS
10
1.2638
20
0.797235
11
1.26636
21
0.795528
0
LINE
8
BLACK
6
CONTINUOUS
10
1.26636
20
0.795528
11
1.26806
21
0.792974
0
LINE
8
BLACK
6
CONTINUOUS
10
1.26806
20
0.792974
11
1.26866
21
0.789961
0
LINE
8
BLACK
6
CONTINUOUS
10
1.26866
20
0.789961
11
1.26866
21
0.760039
0
LINE
8
BLACK
6
CONTINUOUS
10
1.26866
20
0.760039
11
1.26806
21
0.757026
0
LINE
8
BLACK
6
CONTINUOUS
10
1.26806
20
0.757026
11
1.26636
21
0.754472
0
LINE
8
BLACK
6
CONTINUOUS
10
1.26636
20
0.754472
11
1.2638
21
0.752765
0
LINE
8
BLACK
6
CONTINUOUS
10
1.2638
20
0.752765
11
1.26079
21
0.752165
0
LINE
8
BLACK
6
CONTINUOUS
10
1.26079
20
0.752165
11
1.14583
21
0.752165
0
LINE
8
BLACK
6
CONTINUOUS
10
1.14583
20
0.752165
11
1.14281
21
0.752765
0
LINE
8
BLACK
6
CONTINUOUS
10
1.14281
20
0.752765
11
1.14026
21
0.754472
0
LINE
8
BLACK
6
CONTINUOUS
10
1.14026
20
0.754472
11
1.13855
21
0.757026
0
LINE
8
BLACK
6
CONTINUOUS
10
1.13855
20
0.757026
11
1.13795
21
0.760039
0
LINE
8
BLACK
6
CONTINUOUS
10
1.13795
20
0.760039
11
1.13795
21
0.789961
0
LINE
8
BLACK
6
CONTINUOUS
10
1.13795
20
0.789961
11
1.13855
21
0.792974
0
LINE
8
BLACK
6
CONTINUOUS
10
1.13855
20
0.792974
11
1.14026
21
0.795528
0
LINE
8
BLACK
6
CONTINUOUS
10
1.14026
20
0.795528
11
1.14281
21
0.797235
0
LINE
8
BLACK
6
CONTINUOUS
10
1.14281
20
0.797235
11
1.14583
21
0.797835
0
LINE
8
BLACK
6
CONTINUOUS
10
1.14583
20
0.797835
11
1.26079
21
0.797835
0
LINE
8
BLACK
6
CONTINUOUS
10
1.26079
20
0.797835
11
1.2638
21
0.797235
0
LINE
8
BLACK
6
CONTINUOUS
10
0.977186
20
0.847235
11
0.979741
21
0.845528
0
LINE
8
BLACK
6
CONTINUOUS
10
0.979741
20
0.845528
11
0.981448
21
0.842974
0
LINE
8
BLACK
6
CONTINUOUS
10
0.981448
20
0.842974
11
0.982047
21
0.839961
0
LINE
8
BLACK
6
CONTINUOUS
10
0.982047
20
0.839961
11
0.982047
21
0.810039
0
LINE
8
BLACK
6
CONTINUOUS
10
0.982047
20
0.810039
11
0.981448
21
0.807026
0
LINE
8
BLACK
6
CONTINUOUS
10
0.981448
20
0.807026
11
0.979741
21
0.804472
0
LINE
8
BLACK
6
CONTINUOUS
10
0.979741
20
0.804472
11
0.977186
21
0.802765
0
LINE
8
BLACK
6
CONTINUOUS
10
0.977186
20
0.802765
11
0.974173
21
0.802165
0
LINE
8
BLACK
6
CONTINUOUS
10
0.974173
20
0.802165
11
0.859213
21
0.802165
0
LINE
8
BLACK
6
CONTINUOUS
10
0.859213
20
0.802165
11
0.856199
21
0.802765
0
LINE
8
BLACK
6
CONTINUOUS
10
0.856199
20
0.802765
11
0.853645
21
0.804472
0
LINE
8
BLACK
6
CONTINUOUS
10
0.853645
20
0.804472
11
0.851938
21
0.807026
0
LINE
8
BLACK
6
CONTINUOUS
10
0.851938
20
0.807026
11
0.851339
21
0.810039
0
LINE
8
BLACK
6
CONTINUOUS
10
0.851339
20
0.810039
11
0.851339
21
0.839961
0
LINE
8
BLACK
6
CONTINUOUS
10
0.851339
20
0.839961
11
0.851938
21
0.842974
0
LINE
8
BLACK
6
CONTINUOUS
10
0.851938
20
0.842974
11
0.853645
21
0.845528
0
LINE
8
BLACK
6
CONTINUOUS
10
0.853645
20
0.845528
11
0.856199
21
0.847235
0
LINE
8
BLACK
6
CONTINUOUS
10
0.856199
20
0.847235
11
0.859213
21
0.847835
0
LINE
8
BLACK
6
CONTINUOUS
10
0.859213
20
0.847835
11
0.974173
21
0.847835
0
LINE
8
BLACK
6
CONTINUOUS
10
0.974173
20
0.847835
11
0.977186
21
0.847235
0
LINE
8
BLACK
6
CONTINUOUS
10
1.2638
20
0.847235
11
1.26636
21
0.845528
0
LINE
8
BLACK
6
CONTINUOUS
10
1.26636
20
0.845528
11
1.26806
21
0.842974
0
LINE
8
BLACK
6
CONTINUOUS
10
1.26806
20
0.842974
11
1.26866
21
0.839961
0
LINE
8
BLACK
6
CONTINUOUS
10
1.26866
20
0.839961
11
1.26866
21
0.810039
0
LINE
8
BLACK
6
CONTINUOUS
10
1.26866
20
0.810039
11
1.26806
21
0.807026
0
LINE
8
BLACK
6
CONTINUOUS
10
1.26806
20
0.807026
11
1.26636
21
0.804472
0
LINE
8
BLACK
6
CONTINUOUS
10
1.26636
20
0.804472
11
1.2638
21
0.802765
0
LINE
8
BLACK
6
CONTINUOUS
10
1.2638
20
0.802765
11
1.26079
21
0.802165
0
LINE
8
BLACK
6
CONTINUOUS
10
1.26079
20
0.802165
11
1.14583
21
0.802165
0
LINE
8
BLACK
6
CONTINUOUS
10
1.14583
20
0.802165
11
1.14281
21
0.802765
0
LINE
8
BLACK
6
CONTINUOUS
10
1.14281
20
0.802765
11
1.14026
21
0.804472
0
LINE
8
BLACK
6
CONTINUOUS
10
1.14026
20
0.804472
11
1.13855
21
0.807026
0
LINE
8
BLACK
6
CONTINUOUS
10
1.13855
20
0.807026
11
1.13795
21
0.810039
0
LINE
8
BLACK
6
CONTINUOUS
10
1.13795
20
0.810039
11
1.13795
21
0.839961
0
LINE
8
BLACK
6
CONTINUOUS
10
1.13795
20
0.839961
11
1.13855
21
0.842974
0
LINE
8
BLACK
6
CONTINUOUS
10
1.13855
20
0.842974
11
1.14026
21
0.845528
0
LINE
8
BLACK
6
CONTINUOUS
10
1.14026
20
0.845528
11
1.14281
21
0.847235
0
LINE
8
BLACK
6
CONTINUOUS
10
1.14281
20
0.847235
11
1.14583
21
0.847835
0
LINE
8
BLACK
6
CONTINUOUS
10
1.14583
20
0.847835
11
1.26079
21
0.847835
0
LINE
8
BLACK
6
CONTINUOUS
10
1.26079
20
0.847835
11
1.2638
21
0.847235
0
LINE
8
BLACK
6
CONTINUOUS
10
0.183013
20
0.907275
11
0.185568
21
0.905568
0
LINE
8
BLACK
6
CONTINUOUS
10
0.185568
20
0.905568
11
0.187275
21
0.903013
0
LINE
8
BLACK
6
CONTINUOUS
10
0.187275
20
0.903013
11
0.187874
21
0.9
0
LINE
8
BLACK
6
CONTINUOUS
10
0.187874
20
0.9
11
0.187874
21
0.84
0
LINE
8
BLACK
6
CONTINUOUS
10
0.187874
20
0.84
11
0.187275
21
0.836987
0
LINE
8
BLACK
6
CONTINUOUS
10
0.187275
20
0.836987
11
0.185568
21
0.834432
0
LINE
8
BLACK
6
CONTINUOUS
10
0.185568
20
0.834432
11
0.183013
21
0.832725
0
LINE
8
BLACK
6
CONTINUOUS
10
0.183013
20
0.832725
11
0.18
21
0.832126
0
LINE
8
BLACK
6
CONTINUOUS
10
0.18
20
0.832126
11
0.12
21
0.832126
0
LINE
8
BLACK
6
CONTINUOUS
10
0.12
20
0.832126
11
0.116987
21
0.832725
0
LINE
8
BLACK
6
CONTINUOUS
10
0.116987
20
0.832725
11
0.114432
21
0.834432
0
LINE
8
BLACK
6
CONTINUOUS
10
0.114432
20
0.834432
11
0.112725
21
0.836987
0
LINE
8
BLACK
6
CONTINUOUS
10
0.112725
20
0.836987
11
0.112126
21
0.84
0
LINE
8
BLACK
6
CONTINUOUS
10
0.112126
20
0.84
11
0.112126
21
0.9
0
LINE
8
BLACK
6
CONTINUOUS
10
0.112126
20
0.9
11
0.112725
21
0.903013
0
LINE
8
BLACK
6
CONTINUOUS
10
0.112725
20
0.903013
11
0.114432
21
0.905568
0
LINE
8
BLACK
6
CONTINUOUS
10
0.114432
20
0.905568
11
0.116987
21
0.907275
0
LINE
8
BLACK
6
CONTINUOUS
10
0.116987
20
0.907275
11
0.12
21
0.907874
0
LINE
8
BLACK
6
CONTINUOUS
10
0.12
20
0.907874
11
0.18
21
0.907874
0
LINE
8
BLACK
6
CONTINUOUS
10
0.18
20
0.907874
11
0.183013
21
0.907275
0
LINE
8
BLACK
6
CONTINUOUS
10
0.283013
20
0.907275
11
0.285568
21
0.905568
0
LINE
8
BLACK
6
CONTINUOUS
10
0.285568
20
0.905568
11
0.287275
21
0.903013
0
LINE
8
BLACK
6
CONTINUOUS
10
0.287275
20
0.903013
11
0.287874
21
0.9
0
LINE
8
BLACK
6
CONTINUOUS
10
0.287874
20
0.9
11
0.287874
21
0.84
0
LINE
8
BLACK
6
CONTINUOUS
10
0.287874
20
0.84
11
0.287275
21
0.836987
0
LINE
8
BLACK
6
CONTINUOUS
10
0.287275
20
0.836987
11
0.285568
21
0.834432
0
LINE
8
BLACK
6
CONTINUOUS
10
0.285568
20
0.834432
11
0.283013
21
0.832725
0
LINE
8
BLACK
6
CONTINUOUS
10
0.283013
20
0.832725
11
0.28
21
0.832126
0
LINE
8
BLACK
6
CONTINUOUS
10
0.28
20
0.832126
11
0.22
21
0.832126
0
LINE
8
BLACK
6
CONTINUOUS
10
0.22
20
0.832126
11
0.216987
21
0.832725
0
LINE
8
BLACK
6
CONTINUOUS
10
0.216987
20
0.832725
11
0.214432
21
0.834432
0
LINE
8
BLACK
6
CONTINUOUS
10
0.214432
20
0.834432
11
0.212725
21
0.836987
0
LINE
8
BLACK
6
CONTINUOUS
10
0.212725
20
0.836987
11
0.212126
21
0.84
0
LINE
8
BLACK
6
CONTINUOUS
10
0.212126
20
0.84
11
0.212126
21
0.9
0
LINE
8
BLACK
6
CONTINUOUS
10
0.212126
20
0.9
11
0.212725
21
0.903013
0
LINE
8
BLACK
6
CONTINUOUS
10
0.212725
20
0.903013
11
0.214432
21
0.905568
0
LINE
8
BLACK
6
CONTINUOUS
10
0.214432
20
0.905568
11
0.216987
21
0.907275
0
LINE
8
BLACK
6
CONTINUOUS
10
0.216987
20
0.907275
11
0.22
21
0.907874
0
LINE
8
BLACK
6
CONTINUOUS
10
0.22
20
0.907874
11
0.28
21
0.907874
0
LINE
8
BLACK
6
CONTINUOUS
10
0.28
20
0.907874
11
0.283013
21
0.907275
0
LINE
8
BLACK
6
CONTINUOUS
10
1.42301
20
0.907275
11
1.42557
21
0.905568
0
LINE
8
BLACK
6
CONTINUOUS
10
1.42557
20
0.905568
11
1.42727
21
0.903013
0
LINE
8
BLACK
6
CONTINUOUS
10
1.42727
20
0.903013
11
1.42787
21
0.9
0
LINE
8
BLACK
6
CONTINUOUS
10
1.42787
20
0.9
11
1.42787
21
0.84
0
LINE
8
BLACK
6
CONTINUOUS
10
1.42787
20
0.84
11
1.42727
21
0.836987
0
LINE
8
BLACK
6
CONTINUOUS
10
1.42727
20
0.836987
11
1.42557
21
0.834432
0
LINE
8
BLACK
6
CONTINUOUS
10
1.42557
20
0.834432
11
1.42301
21
0.832725
0
LINE
8
BLACK
6
CONTINUOUS
10
1.42301
20
0.832725
11
1.42
21
0.832126
0
LINE
8
BLACK
6
CONTINUOUS
10
1.42
20
0.832126
11
1.36
21
0.832126
0
LINE
8
BLACK
6
CONTINUOUS
10
1.36
20
0.832126
11
1.35699
21
0.832725
0
LINE
8
BLACK
6
CONTINUOUS
10
1.35699
20
0.832725
11
1.35443
21
0.834432
0
LINE
8
BLACK
6
CONTINUOUS
10
1.35443
20
0.834432
11
1.35273
21
0.836987
0
LINE
8
BLACK
6
CONTINUOUS
10
1.35273
20
0.836987
11
1.35213
21
0.84
0
LINE
8
BLACK
6
CONTINUOUS
10
1.35213
20
0.84
11
1.35213
21
0.9
0
LINE
8
BLACK
6
CONTINUOUS
10
1.35213
20
0.9
11
1.35273
21
0.903013
0
LINE
8
BLACK
6
CONTINUOUS
10
1.35273
20
0.903013
11
1.35443
21
0.905568
0
LINE
8
BLACK
6
CONTINUOUS
10
1.35443
20
0.905568
11
1.35699
21
0.907275
0
LINE
8
BLACK
6
CONTINUOUS
10
1.35699
20
0.907275
11
1.36
21
0.907874
0
LINE
8
BLACK
6
CONTINUOUS
10
1.36
20
0.907874
11
1.42
21
0.907874
0
LINE
8
BLACK
6
CONTINUOUS
10
1.42
20
0.907874
11
1.42301
21
0.907275
0
LINE
8
BLACK
6
CONTINUOUS
10
1.52301
20
0.907275
11
1.52557
21
0.905568
0
LINE
8
BLACK
6
CONTINUOUS
10
1.52557
20
0.905568
11
1.52727
21
0.903013
0
LINE
8
BLACK
6
CONTINUOUS
10
1.52727
20
0.903013
11
1.52787
21
0.9
0
LINE
8
BLACK
6
CONTINUOUS
10
1.52787
20
0.9
11
1.52787
21
0.84
0
LINE
8
BLACK
6
CONTINUOUS
10
1.52787
20
0.84
11
1.52727
21
0.836987
0
LINE
8
BLACK
6
CONTINUOUS
10
1.52727
20
0.836987
11
1.52557
21
0.834432
0
LINE
8
BLACK
6
CONTINUOUS
10
1.52557
20
0.834432
11
1.52301
21
0.832725
0
LINE
8
BLACK
6
CONTINUOUS
10
1.52301
20
0.832725
11
1.52
21
0.832126
0
LINE
8
BLACK
6
CONTINUOUS
10
1.52
20
0.832126
11
1.46
21
0.832126
0
LINE
8
BLACK
6
CONTINUOUS
10
1.46
20
0.832126
11
1.45699
21
0.832725
0
LINE
8
BLACK
6
CONTINUOUS
10
1.45699
20
0.832725
11
1.45443
21
0.834432
0
LINE
8
BLACK
6
CONTINUOUS
10
1.45443
20
0.834432
11
1.45273
21
0.836987
0
LINE
8
BLACK
6
CONTINUOUS
10
1.45273
20
0.836987
11
1.45213
21
0.84
0
LINE
8
BLACK
6
CONTINUOUS
10
1.45213
20
0.84
11
1.45213
21
0.9
0
LINE
8
BLACK
6
CONTINUOUS
10
1.45213
20
0.9
11
1.45273
21
0.903013
0
LINE
8
BLACK
6
CONTINUOUS
10
1.45273
20
0.903013
11
1.45443
21
0.905568
0
LINE
8
BLACK
6
CONTINUOUS
10
1.45443
20
0.905568
11
1.45699
21
0.907275
0
LINE
8
BLACK
6
CONTINUOUS
10
1.45699
20
0.907275
11
1.46
21
0.907874
0
LINE
8
BLACK
6
CONTINUOUS
10
1.46
20
0.907874
11
1.52
21
0.907874
0
LINE
8
BLACK
6
CONTINUOUS
10
1.52
20
0.907874
11
1.52301
21
0.907275
0
LINE
8
BLACK
6
CONTINUOUS
10
0.977186
20
0.897826
11
0.979741
21
0.896119
0
LINE
8
BLACK
6
CONTINUOUS
10
0.979741
20
0.896119
11
0.981448
21
0.893564
0
LINE
8
BLACK
6
CONTINUOUS
10
0.981448
20
0.893564
11
0.982047
21
0.890551
0
LINE
8
BLACK
6
CONTINUOUS
10
0.982047
20
0.890551
11
0.982047
21
0.86063
0
LINE
8
BLACK
6
CONTINUOUS
10
0.982047
20
0.86063
11
0.981448
21
0.857617
0
LINE
8
BLACK
6
CONTINUOUS
10
0.981448
20
0.857617
11
0.979741
21
0.855062
0
LINE
8
BLACK
6
CONTINUOUS
10
0.979741
20
0.855062
11
0.977186
21
0.853355
0
LINE
8
BLACK
6
CONTINUOUS
10
0.977186
20
0.853355
11
0.974173
21
0.852756
0
LINE
8
BLACK
6
CONTINUOUS
10
0.974173
20
0.852756
11
0.859213
21
0.852756
0
LINE
8
BLACK
6
CONTINUOUS
10
0.859213
20
0.852756
11
0.856199
21
0.853355
0
LINE
8
BLACK
6
CONTINUOUS
10
0.856199
20
0.853355
11
0.853645
21
0.855062
0
LINE
8
BLACK
6
CONTINUOUS
10
0.853645
20
0.855062
11
0.851938
21
0.857617
0
LINE
8
BLACK
6
CONTINUOUS
10
0.851938
20
0.857617
11
0.851339
21
0.86063
0
LINE
8
BLACK
6
CONTINUOUS
10
0.851339
20
0.86063
11
0.851339
21
0.890551
0
LINE
8
BLACK
6
CONTINUOUS
10
0.851339
20
0.890551
11
0.851938
21
0.893564
0
LINE
8
BLACK
6
CONTINUOUS
10
0.851938
20
0.893564
11
0.853645
21
0.896119
0
LINE
8
BLACK
6
CONTINUOUS
10
0.853645
20
0.896119
11
0.856199
21
0.897826
0
LINE
8
BLACK
6
CONTINUOUS
10
0.856199
20
0.897826
11
0.859213
21
0.898425
0
LINE
8
BLACK
6
CONTINUOUS
10
0.859213
20
0.898425
11
0.974173
21
0.898425
0
LINE
8
BLACK
6
CONTINUOUS
10
0.974173
20
0.898425
11
0.977186
21
0.897826
0
LINE
8
BLACK
6
CONTINUOUS
10
1.2638
20
0.897826
11
1.26636
21
0.896119
0
LINE
8
BLACK
6
CONTINUOUS
10
1.26636
20
0.896119
11
1.26806
21
0.893564
0
LINE
8
BLACK
6
CONTINUOUS
10
1.26806
20
0.893564
11
1.26866
21
0.890551
0
LINE
8
BLACK
6
CONTINUOUS
10
1.26866
20
0.890551
11
1.26866
21
0.86063
0
LINE
8
BLACK
6
CONTINUOUS
10
1.26866
20
0.86063
11
1.26806
21
0.857617
0
LINE
8
BLACK
6
CONTINUOUS
10
1.26806
20
0.857617
11
1.26636
21
0.855062
0
LINE
8
BLACK
6
CONTINUOUS
10
1.26636
20
0.855062
11
1.2638
21
0.853355
0
LINE
8
BLACK
6
CONTINUOUS
10
1.2638
20
0.853355
11
1.26079
21
0.852756
0
LINE
8
BLACK
6
CONTINUOUS
10
1.26079
20
0.852756
11
1.14583
21
0.852756
0
LINE
8
BLACK
6
CONTINUOUS
10
1.14583
20
0.852756
11
1.14281
21
0.853355
0
LINE
8
BLACK
6
CONTINUOUS
10
1.14281
20
0.853355
11
1.14026
21
0.855062
0
LINE
8
BLACK
6
CONTINUOUS
10
1.14026
20
0.855062
11
1.13855
21
0.857617
0
LINE
8
BLACK
6
CONTINUOUS
10
1.13855
20
0.857617
11
1.13795
21
0.86063
0
LINE
8
BLACK
6
CONTINUOUS
10
1.13795
20
0.86063
11
1.13795
21
0.890551
0
LINE
8
BLACK
6
CONTINUOUS
10
1.13795
20
0.890551
11
1.13855
21
0.893564
0
LINE
8
BLACK
6
CONTINUOUS
10
1.13855
20
0.893564
11
1.14026
21
0.896119
0
LINE
8
BLACK
6
CONTINUOUS
10
1.14026
20
0.896119
11
1.14281
21
0.897826
0
LINE
8
BLACK
6
CONTINUOUS
10
1.14281
20
0.897826
11
1.14583
21
0.898425
0
LINE
8
BLACK
6
CONTINUOUS
10
1.14583
20
0.898425
11
1.26079
21
0.898425
0
LINE
8
BLACK
6
CONTINUOUS
10
1.26079
20
0.898425
11
1.2638
21
0.897826
0
LINE
8
BLACK
6
CONTINUOUS
10
0.977186
20
0.947826
11
0.979741
21
0.946119
0
LINE
8
BLACK
6
CONTINUOUS
10
0.979741
20
0.946119
11
0.981448
21
0.943564
0
LINE
8
BLACK
6
CONTINUOUS
10
0.981448
20
0.943564
11
0.982047
21
0.940551
0
LINE
8
BLACK
6
CONTINUOUS
10
0.982047
20
0.940551
11
0.982047
21
0.91063
0
LINE
8
BLACK
6
CONTINUOUS
10
0.982047
20
0.91063
11
0.981448
21
0.907617
0
LINE
8
BLACK
6
CONTINUOUS
10
0.981448
20
0.907617
11
0.979741
21
0.905062
0
LINE
8
BLACK
6
CONTINUOUS
10
0.979741
20
0.905062
11
0.977186
21
0.903355
0
LINE
8
BLACK
6
CONTINUOUS
10
0.977186
20
0.903355
11
0.974173
21
0.902756
0
LINE
8
BLACK
6
CONTINUOUS
10
0.974173
20
0.902756
11
0.859213
21
0.902756
0
LINE
8
BLACK
6
CONTINUOUS
10
0.859213
20
0.902756
11
0.856199
21
0.903355
0
LINE
8
BLACK
6
CONTINUOUS
10
0.856199
20
0.903355
11
0.853645
21
0.905062
0
LINE
8
BLACK
6
CONTINUOUS
10
0.853645
20
0.905062
11
0.851938
21
0.907617
0
LINE
8
BLACK
6
CONTINUOUS
10
0.851938
20
0.907617
11
0.851339
21
0.91063
0
LINE
8
BLACK
6
CONTINUOUS
10
0.851339
20
0.91063
11
0.851339
21
0.940551
0
LINE
8
BLACK
6
CONTINUOUS
10
0.851339
20
0.940551
11
0.851938
21
0.943564
0
LINE
8
BLACK
6
CONTINUOUS
10
0.851938
20
0.943564
11
0.853645
21
0.946119
0
LINE
8
BLACK
6
CONTINUOUS
10
0.853645
20
0.946119
11
0.856199
21
0.947826
0
LINE
8
BLACK
6
CONTINUOUS
10
0.856199
20
0.947826
11
0.859213
21
0.948425
0
LINE
8
BLACK
6
CONTINUOUS
10
0.859213
20
0.948425
11
0.974173
21
0.948425
0
LINE
8
BLACK
6
CONTINUOUS
10
0.974173
20
0.948425
11
0.977186
21
0.947826
0
LINE
8
BLACK
6
CONTINUOUS
10
1.2638
20
0.947826
11
1.26636
21
0.946119
0
LINE
8
BLACK
6
CONTINUOUS
10
1.26636
20
0.946119
11
1.26806
21
0.943564
0
LINE
8
BLACK
6
CONTINUOUS
10
1.26806
20
0.943564
11
1.26866
21
0.940551
0
LINE
8
BLACK
6
CONTINUOUS
10
1.26866
20
0.940551
11
1.26866
21
0.91063
0
LINE
8
BLACK
6
CONTINUOUS
10
1.26866
20
0.91063
11
1.26806
21
0.907617
0
LINE
8
BLACK
6
CONTINUOUS
10
1.26806
20
0.907617
11
1.26636
21
0.905062
0
LINE
8
BLACK
6
CONTINUOUS
10
1.26636
20
0.905062
11
1.2638
21
0.903355
0
LINE
8
BLACK
6
CONTINUOUS
10
1.2638
20
0.903355
11
1.26079
21
0.902756
0
LINE
8
BLACK
6
CONTINUOUS
10
1.26079
20
0.902756
11
1.14583
21
0.902756
0
LINE
8
BLACK
6
CONTINUOUS
10
1.14583
20
0.902756
11
1.14281
21
0.903355
0
LINE
8
BLACK
6
CONTINUOUS
10
1.14281
20
0.903355
11
1.14026
21
0.905062
0
LINE
8
BLACK
6
CONTINUOUS
10
1.14026
20
0.905062
11
1.13855
21
0.907617
0
LINE
8
BLACK
6
CONTINUOUS
10
1.13855
20
0.907617
11
1.13795
21
0.91063
0
LINE
8
BLACK
6
CONTINUOUS
10
1.13795
20
0.91063
11
1.13795
21
0.940551
0
LINE
8
BLACK
6
CONTINUOUS
10
1.13795
20
0.940551
11
1.13855
21
0.943564
0
LINE
8
BLACK
6
CONTINUOUS
10
1.13855
20
0.943564
11
1.14026
21
0.946119
0
LINE
8
BLACK
6
CONTINUOUS
10
1.14026
20
0.946119
11
1.14281
21
0.947826
0
LINE
8
BLACK
6
CONTINUOUS
10
1.14281
20
0.947826
11
1.14583
21
0.948425
0
LINE
8
BLACK
6
CONTINUOUS
10
1.14583
20
0.948425
11
1.26079
21
0.948425
0
LINE
8
BLACK
6
CONTINUOUS
10
1.26079
20
0.948425
11
1.2638
21
0.947826
0
LINE
8
BLACK
6
CONTINUOUS
10
0.183013
20
1.00727
11
0.185568
21
1.00557
0
LINE
8
BLACK
6
CONTINUOUS
10
0.185568
20
1.00557
11
0.187275
21
1.00301
0
LINE
8
BLACK
6
CONTINUOUS
10
0.187275
20
1.00301
11
0.187874
21
1
0
LINE
8
BLACK
6
CONTINUOUS
10
0.187874
20
1
11
0.187874
21
0.94
0
LINE
8
BLACK
6
CONTINUOUS
10
0.187874
20
0.94
11
0.187275
21
0.936987
0
LINE
8
BLACK
6
CONTINUOUS
10
0.187275
20
0.936987
11
0.185568
21
0.934432
0
LINE
8
BLACK
6
CONTINUOUS
10
0.185568
20
0.934432
11
0.183013
21
0.932725
0
LINE
8
BLACK
6
CONTINUOUS
10
0.183013
20
0.932725
11
0.18
21
0.932126
0
LINE
8
BLACK
6
CONTINUOUS
10
0.18
20
0.932126
11
0.12
21
0.932126
0
LINE
8
BLACK
6
CONTINUOUS
10
0.12
20
0.932126
11
0.116987
21
0.932725
0
LINE
8
BLACK
6
CONTINUOUS
10
0.116987
20
0.932725
11
0.114432
21
0.934432
0
LINE
8
BLACK
6
CONTINUOUS
10
0.114432
20
0.934432
11
0.112725
21
0.936987
0
LINE
8
BLACK
6
CONTINUOUS
10
0.112725
20
0.936987
11
0.112126
21
0.94
0
LINE
8
BLACK
6
CONTINUOUS
10
0.112126
20
0.94
11
0.112126
21
1
0
LINE
8
BLACK
6
CONTINUOUS
10
0.112126
20
1
11
0.112725
21
1.00301
0
LINE
8
BLACK
6
CONTINUOUS
10
0.112725
20
1.00301
11
0.114432
21
1.00557
0
LINE
8
BLACK
6
CONTINUOUS
10
0.114432
20
1.00557
11
0.116987
21
1.00727
0
LINE
8
BLACK
6
CONTINUOUS
10
0.116987
20
1.00727
11
0.12
21
1.00787
0
LINE
8
BLACK
6
CONTINUOUS
10
0.12
20
1.00787
11
0.18
21
1.00787
0
LINE
8
BLACK
6
CONTINUOUS
10
0.18
20
1.00787
11
0.183013
21
1.00727
0
LINE
8
BLACK
6
CONTINUOUS
10
0.283013
20
1.00727
11
0.285568
21
1.00557
0
LINE
8
BLACK
6
CONTINUOUS
10
0.285568
20
1.00557
11
0.287275
21
1.00301
0
LINE
8
BLACK
6
CONTINUOUS
10
0.287275
20
1.00301
11
0.287874
21
1
0
LINE
8
BLACK
6
CONTINUOUS
10
0.287874
20
1
11
0.287874
21
0.94
0
LINE
8
BLACK
6
CONTINUOUS
10
0.287874
20
0.94
11
0.287275
21
0.936987
0
LINE
8
BLACK
6
CONTINUOUS
10
0.287275
20
0.936987
11
0.285568
21
0.934432
0
LINE
8
BLACK
6
CONTINUOUS
10
0.285568
20
0.934432
11
0.283013
21
0.932725
0
LINE
8
BLACK
6
CONTINUOUS
10
0.283013
20
0.932725
11
0.28
21
0.932126
0
LINE
8
BLACK
6
CONTINUOUS
10
0.28
20
0.932126
11
0.22
21
0.932126
0
LINE
8
BLACK
6
CONTINUOUS
10
0.22
20
0.932126
11
0.216987
21
0.932725
0
LINE
8
BLACK
6
CONTINUOUS
10
0.216987
20
0.932725
11
0.214432
21
0.934432
0
LINE
8
BLACK
6
CONTINUOUS
10
0.214432
20
0.934432
11
0.212725
21
0.936987
0
LINE
8
BLACK
6
CONTINUOUS
10
0.212725
20
0.936987
11
0.212126
21
0.94
0
LINE
8
BLACK
6
CONTINUOUS
10
0.212126
20
0.94
11
0.212126
21
1
0
LINE
8
BLACK
6
CONTINUOUS
10
0.212126
20
1
11
0.212725
21
1.00301
0
LINE
8
BLACK
6
CONTINUOUS
10
0.212725
20
1.00301
11
0.214432
21
1.00557
0
LINE
8
BLACK
6
CONTINUOUS
10
0.214432
20
1.00557
11
0.216987
21
1.00727
0
LINE
8
BLACK
6
CONTINUOUS
10
0.216987
20
1.00727
11
0.22
21
1.00787
0
LINE
8
BLACK
6
CONTINUOUS
10
0.22
20
1.00787
11
0.28
21
1.00787
0
LINE
8
BLACK
6
CONTINUOUS
10
0.28
20
1.00787
11
0.283013
21
1.00727
0
LINE
8
BLACK
6
CONTINUOUS
10
1.42301
20
1.00727
11
1.42557
21
1.00557
0
LINE
8
BLACK
6
CONTINUOUS
10
1.42557
20
1.00557
11
1.42727
21
1.00301
0
LINE
8
BLACK
6
CONTINUOUS
10
1.42727
20
1.00301
11
1.42787
21
1
0
LINE
8
BLACK
6
CONTINUOUS
10
1.42787
20
1
11
1.42787
21
0.94
0
LINE
8
BLACK
6
CONTINUOUS
10
1.42787
20
0.94
11
1.42727
21
0.936987
0
LINE
8
BLACK
6
CONTINUOUS
10
1.42727
20
0.936987
11
1.42557
21
0.934432
0
LINE
8
BLACK
6
CONTINUOUS
10
1.42557
20
0.934432
11
1.42301
21
0.932725
0
LINE
8
BLACK
6
CONTINUOUS
10
1.42301
20
0.932725
11
1.42
21
0.932126
0
LINE
8
BLACK
6
CONTINUOUS
10
1.42
20
0.932126
11
1.36
21
0.932126
0
LINE
8
BLACK
6
CONTINUOUS
10
1.36
20
0.932126
11
1.35699
21
0.932725
0
LINE
8
BLACK
6
CONTINUOUS
10
1.35699
20
0.932725
11
1.35443
21
0.934432
0
LINE
8
BLACK
6
CONTINUOUS
10
1.35443
20
0.934432
11
1.35273
21
0.936987
0
LINE
8
BLACK
6
CONTINUOUS
10
1.35273
20
0.936987
11
1.35213
21
0.94
0
LINE
8
BLACK
6
CONTINUOUS
10
1.35213
20
0.94
11
1.35213
21
1
0
LINE
8
BLACK
6
CONTINUOUS
10
1.35213
20
1
11
1.35273
21
1.00301
0
LINE
8
BLACK
6
CONTINUOUS
10
1.35273
20
1.00301
11
1.35443
21
1.00557
0
LINE
8
BLACK
6
CONTINUOUS
10
1.35443
20
1.00557
11
1.35699
21
1.00727
0
LINE
8
BLACK
6
CONTINUOUS
10
1.35699
20
1.00727
11
1.36
21
1.00787
0
LINE
8
BLACK
6
CONTINUOUS
10
1.36
20
1.00787
11
1.42
21
1.00787
0
LINE
8
BLACK
6
CONTINUOUS
10
1.42
20
1.00787
11
1.42301
21
1.00727
0
LINE
8
BLACK
6
CONTINUOUS
10
1.52301
20
1.00727
11
1.52557
21
1.00557
0
LINE
8
BLACK
6
CONTINUOUS
10
1.52557
20
1.00557
11
1.52727
21
1.00301
0
LINE
8
BLACK
6
CONTINUOUS
10
1.52727
20
1.00301
11
1.52787
21
1
0
LINE
8
BLACK
6
CONTINUOUS
10
1.52787
20
1
11
1.52787
21
0.94
0
LINE
8
BLACK
6
CONTINUOUS
10
1.52787
20
0.94
11
1.52727
21
0.936987
0
LINE
8
BLACK
6
CONTINUOUS
10
1.52727
20
0.936987
11
1.52557
21
0.934432
0
LINE
8
BLACK
6
CONTINUOUS
10
1.52557
20
0.934432
11
1.52301
21
0.932725
0
LINE
8
BLACK
6
CONTINUOUS
10
1.52301
20
0.932725
11
1.52
21
0.932126
0
LINE
8
BLACK
6
CONTINUOUS
10
1.52
20
0.932126
11
1.46
21
0.932126
0
LINE
8
BLACK
6
CONTINUOUS
10
1.46
20
0.932126
11
1.45699
21
0.932725
0
LINE
8
BLACK
6
CONTINUOUS
10
1.45699
20
0.932725
11
1.45443
21
0.934432
0
LINE
8
BLACK
6
CONTINUOUS
10
1.45443
20
0.934432
11
1.45273
21
0.936987
0
LINE
8
BLACK
6
CONTINUOUS
10
1.45273
20
0.936987
11
1.45213
21
0.94
0
LINE
8
BLACK
6
CONTINUOUS
10
1.45213
20
0.94
11
1.45213
21
1
0
LINE
8
BLACK
6
CONTINUOUS
10
1.45213
20
1
11
1.45273
21
1.00301
0
LINE
8
BLACK
6
CONTINUOUS
10
1.45273
20
1.00301
11
1.45443
21
1.00557
0
LINE
8
BLACK
6
CONTINUOUS
10
1.45443
20
1.00557
11
1.45699
21
1.00727
0
LINE
8
BLACK
6
CONTINUOUS
10
1.45699
20
1.00727
11
1.46
21
1.00787
0
LINE
8
BLACK
6
CONTINUOUS
10
1.46
20
1.00787
11
1.52
21
1.00787
0
LINE
8
BLACK
6
CONTINUOUS
10
1.52
20
1.00787
11
1.52301
21
1.00727
0
LINE
8
BLACK
6
CONTINUOUS
10
0.397013
20
1.00677
11
0.399568
21
1.00507
0
LINE
8
BLACK
6
CONTINUOUS
10
0.399568
20
1.00507
11
0.401275
21
1.00251
0
LINE
8
BLACK
6
CONTINUOUS
10
0.401275
20
1.00251
11
0.401874
21
0.9995
0
LINE
8
BLACK
6
CONTINUOUS
10
0.401874
20
0.9995
11
0.401874
21
0.9445
0
LINE
8
BLACK
6
CONTINUOUS
10
0.401874
20
0.9445
11
0.401275
21
0.941487
0
LINE
8
BLACK
6
CONTINUOUS
10
0.401275
20
0.941487
11
0.399568
21
0.938932
0
LINE
8
BLACK
6
CONTINUOUS
10
0.399568
20
0.938932
11
0.397013
21
0.937225
0
LINE
8
BLACK
6
CONTINUOUS
10
0.397013
20
0.937225
11
0.394
21
0.936626
0
LINE
8
BLACK
6
CONTINUOUS
10
0.394
20
0.936626
11
0.359
21
0.936626
0
LINE
8
BLACK
6
CONTINUOUS
10
0.359
20
0.936626
11
0.355987
21
0.937225
0
LINE
8
BLACK
6
CONTINUOUS
10
0.355987
20
0.937225
11
0.353432
21
0.938932
0
LINE
8
BLACK
6
CONTINUOUS
10
0.353432
20
0.938932
11
0.351725
21
0.941487
0
LINE
8
BLACK
6
CONTINUOUS
10
0.351725
20
0.941487
11
0.351126
21
0.9445
0
LINE
8
BLACK
6
CONTINUOUS
10
0.351126
20
0.9445
11
0.351126
21
0.9995
0
LINE
8
BLACK
6
CONTINUOUS
10
0.351126
20
0.9995
11
0.351725
21
1.00251
0
LINE
8
BLACK
6
CONTINUOUS
10
0.351725
20
1.00251
11
0.353432
21
1.00507
0
LINE
8
BLACK
6
CONTINUOUS
10
0.353432
20
1.00507
11
0.355987
21
1.00677
0
LINE
8
BLACK
6
CONTINUOUS
10
0.355987
20
1.00677
11
0.359
21
1.00737
0
LINE
8
BLACK
6
CONTINUOUS
10
0.359
20
1.00737
11
0.394
21
1.00737
0
LINE
8
BLACK
6
CONTINUOUS
10
0.394
20
1.00737
11
0.397013
21
1.00677
0
LINE
8
BLACK
6
CONTINUOUS
10
0.472013
20
1.00677
11
0.474568
21
1.00507
0
LINE
8
BLACK
6
CONTINUOUS
10
0.474568
20
1.00507
11
0.476275
21
1.00251
0
LINE
8
BLACK
6
CONTINUOUS
10
0.476275
20
1.00251
11
0.476874
21
0.9995
0
LINE
8
BLACK
6
CONTINUOUS
10
0.476874
20
0.9995
11
0.476874
21
0.9445
0
LINE
8
BLACK
6
CONTINUOUS
10
0.476874
20
0.9445
11
0.476275
21
0.941487
0
LINE
8
BLACK
6
CONTINUOUS
10
0.476275
20
0.941487
11
0.474568
21
0.938932
0
LINE
8
BLACK
6
CONTINUOUS
10
0.474568
20
0.938932
11
0.472013
21
0.937225
0
LINE
8
BLACK
6
CONTINUOUS
10
0.472013
20
0.937225
11
0.469
21
0.936626
0
LINE
8
BLACK
6
CONTINUOUS
10
0.469
20
0.936626
11
0.434
21
0.936626
0
LINE
8
BLACK
6
CONTINUOUS
10
0.434
20
0.936626
11
0.430987
21
0.937225
0
LINE
8
BLACK
6
CONTINUOUS
10
0.430987
20
0.937225
11
0.428432
21
0.938932
0
LINE
8
BLACK
6
CONTINUOUS
10
0.428432
20
0.938932
11
0.426725
21
0.941487
0
LINE
8
BLACK
6
CONTINUOUS
10
0.426725
20
0.941487
11
0.426126
21
0.9445
0
LINE
8
BLACK
6
CONTINUOUS
10
0.426126
20
0.9445
11
0.426126
21
0.9995
0
LINE
8
BLACK
6
CONTINUOUS
10
0.426126
20
0.9995
11
0.426725
21
1.00251
0
LINE
8
BLACK
6
CONTINUOUS
10
0.426725
20
1.00251
11
0.428432
21
1.00507
0
LINE
8
BLACK
6
CONTINUOUS
10
0.428432
20
1.00507
11
0.430987
21
1.00677
0
LINE
8
BLACK
6
CONTINUOUS
10
0.430987
20
1.00677
11
0.434
21
1.00737
0
LINE
8
BLACK
6
CONTINUOUS
10
0.434
20
1.00737
11
0.469
21
1.00737
0
LINE
8
BLACK
6
CONTINUOUS
10
0.469
20
1.00737
11
0.472013
21
1.00677
0
LINE
8
BLACK
6
CONTINUOUS
10
0.690513
20
1.00677
11
0.693068
21
1.00507
0
LINE
8
BLACK
6
CONTINUOUS
10
0.693068
20
1.00507
11
0.694775
21
1.00251
0
LINE
8
BLACK
6
CONTINUOUS
10
0.694775
20
1.00251
11
0.695374
21
0.9995
0
LINE
8
BLACK
6
CONTINUOUS
10
0.695374
20
0.9995
11
0.695374
21
0.9445
0
LINE
8
BLACK
6
CONTINUOUS
10
0.695374
20
0.9445
11
0.694775
21
0.941487
0
LINE
8
BLACK
6
CONTINUOUS
10
0.694775
20
0.941487
11
0.693068
21
0.938932
0
LINE
8
BLACK
6
CONTINUOUS
10
0.693068
20
0.938932
11
0.690513
21
0.937225
0
LINE
8
BLACK
6
CONTINUOUS
10
0.690513
20
0.937225
11
0.6875
21
0.936626
0
LINE
8
BLACK
6
CONTINUOUS
10
0.6875
20
0.936626
11
0.6525
21
0.936626
0
LINE
8
BLACK
6
CONTINUOUS
10
0.6525
20
0.936626
11
0.649487
21
0.937225
0
LINE
8
BLACK
6
CONTINUOUS
10
0.649487
20
0.937225
11
0.646932
21
0.938932
0
LINE
8
BLACK
6
CONTINUOUS
10
0.646932
20
0.938932
11
0.645225
21
0.941487
0
LINE
8
BLACK
6
CONTINUOUS
10
0.645225
20
0.941487
11
0.644626
21
0.9445
0
LINE
8
BLACK
6
CONTINUOUS
10
0.644626
20
0.9445
11
0.644626
21
0.9995
0
LINE
8
BLACK
6
CONTINUOUS
10
0.644626
20
0.9995
11
0.645225
21
1.00251
0
LINE
8
BLACK
6
CONTINUOUS
10
0.645225
20
1.00251
11
0.646932
21
1.00507
0
LINE
8
BLACK
6
CONTINUOUS
10
0.646932
20
1.00507
11
0.649487
21
1.00677
0
LINE
8
BLACK
6
CONTINUOUS
10
0.649487
20
1.00677
11
0.6525
21
1.00737
0
LINE
8
BLACK
6
CONTINUOUS
10
0.6525
20
1.00737
11
0.6875
21
1.00737
0
LINE
8
BLACK
6
CONTINUOUS
10
0.6875
20
1.00737
11
0.690513
21
1.00677
0
LINE
8
BLACK
6
CONTINUOUS
10
0.765513
20
1.00677
11
0.768068
21
1.00507
0
LINE
8
BLACK
6
CONTINUOUS
10
0.768068
20
1.00507
11
0.769775
21
1.00251
0
LINE
8
BLACK
6
CONTINUOUS
10
0.769775
20
1.00251
11
0.770374
21
0.9995
0
LINE
8
BLACK
6
CONTINUOUS
10
0.770374
20
0.9995
11
0.770374
21
0.9445
0
LINE
8
BLACK
6
CONTINUOUS
10
0.770374
20
0.9445
11
0.769775
21
0.941487
0
LINE
8
BLACK
6
CONTINUOUS
10
0.769775
20
0.941487
11
0.768068
21
0.938932
0
LINE
8
BLACK
6
CONTINUOUS
10
0.768068
20
0.938932
11
0.765513
21
0.937225
0
LINE
8
BLACK
6
CONTINUOUS
10
0.765513
20
0.937225
11
0.7625
21
0.936626
0
LINE
8
BLACK
6
CONTINUOUS
10
0.7625
20
0.936626
11
0.7275
21
0.936626
0
LINE
8
BLACK
6
CONTINUOUS
10
0.7275
20
0.936626
11
0.724487
21
0.937225
0
LINE
8
BLACK
6
CONTINUOUS
10
0.724487
20
0.937225
11
0.721932
21
0.938932
0
LINE
8
BLACK
6
CONTINUOUS
10
0.721932
20
0.938932
11
0.720225
21
0.941487
0
LINE
8
BLACK
6
CONTINUOUS
10
0.720225
20
0.941487
11
0.719626
21
0.9445
0
LINE
8
BLACK
6
CONTINUOUS
10
0.719626
20
0.9445
11
0.719626
21
0.9995
0
LINE
8
BLACK
6
CONTINUOUS
10
0.719626
20
0.9995
11
0.720225
21
1.00251
0
LINE
8
BLACK
6
CONTINUOUS
10
0.720225
20
1.00251
11
0.721932
21
1.00507
0
LINE
8
BLACK
6
CONTINUOUS
10
0.721932
20
1.00507
11
0.724487
21
1.00677
0
LINE
8
BLACK
6
CONTINUOUS
10
0.724487
20
1.00677
11
0.7275
21
1.00737
0
LINE
8
BLACK
6
CONTINUOUS
10
0.7275
20
1.00737
11
0.7625
21
1.00737
0
LINE
8
BLACK
6
CONTINUOUS
10
0.7625
20
1.00737
11
0.765513
21
1.00677
0
LINE
8
BLACK
6
CONTINUOUS
10
0.977186
20
0.997826
11
0.979741
21
0.996119
0
LINE
8
BLACK
6
CONTINUOUS
10
0.979741
20
0.996119
11
0.981448
21
0.993564
0
LINE
8
BLACK
6
CONTINUOUS
10
0.981448
20
0.993564
11
0.982047
21
0.990551
0
LINE
8
BLACK
6
CONTINUOUS
10
0.982047
20
0.990551
11
0.982047
21
0.96063
0
LINE
8
BLACK
6
CONTINUOUS
10
0.982047
20
0.96063
11
0.981448
21
0.957617
0
LINE
8
BLACK
6
CONTINUOUS
10
0.981448
20
0.957617
11
0.979741
21
0.955062
0
LINE
8
BLACK
6
CONTINUOUS
10
0.979741
20
0.955062
11
0.977186
21
0.953355
0
LINE
8
BLACK
6
CONTINUOUS
10
0.977186
20
0.953355
11
0.974173
21
0.952756
0
LINE
8
BLACK
6
CONTINUOUS
10
0.974173
20
0.952756
11
0.859213
21
0.952756
0
LINE
8
BLACK
6
CONTINUOUS
10
0.859213
20
0.952756
11
0.856199
21
0.953355
0
LINE
8
BLACK
6
CONTINUOUS
10
0.856199
20
0.953355
11
0.853645
21
0.955062
0
LINE
8
BLACK
6
CONTINUOUS
10
0.853645
20
0.955062
11
0.851938
21
0.957617
0
LINE
8
BLACK
6
CONTINUOUS
10
0.851938
20
0.957617
11
0.851339
21
0.96063
0
LINE
8
BLACK
6
CONTINUOUS
10
0.851339
20
0.96063
11
0.851339
21
0.990551
0
LINE
8
BLACK
6
CONTINUOUS
10
0.851339
20
0.990551
11
0.851938
21
0.993564
0
LINE
8
BLACK
6
CONTINUOUS
10
0.851938
20
0.993564
11
0.853645
21
0.996119
0
LINE
8
BLACK
6
CONTINUOUS
10
0.853645
20
0.996119
11
0.856199
21
0.997826
0
LINE
8
BLACK
6
CONTINUOUS
10
0.856199
20
0.997826
11
0.859213
21
0.998425
0
LINE
8
BLACK
6
CONTINUOUS
10
0.859213
20
0.998425
11
0.974173
21
0.998425
0
LINE
8
BLACK
6
CONTINUOUS
10
0.974173
20
0.998425
11
0.977186
21
0.997826
0
LINE
8
BLACK
6
CONTINUOUS
10
1.2638
20
0.997826
11
1.26636
21
0.996119
0
LINE
8
BLACK
6
CONTINUOUS
10
1.26636
20
0.996119
11
1.26806
21
0.993564
0
LINE
8
BLACK
6
CONTINUOUS
10
1.26806
20
0.993564
11
1.26866
21
0.990551
0
LINE
8
BLACK
6
CONTINUOUS
10
1.26866
20
0.990551
11
1.26866
21
0.96063
0
LINE
8
BLACK
6
CONTINUOUS
10
1.26866
20
0.96063
11
1.26806
21
0.957617
0
LINE
8
BLACK
6
CONTINUOUS
10
1.26806
20
0.957617
11
1.26636
21
0.955062
0
LINE
8
BLACK
6
CONTINUOUS
10
1.26636
20
0.955062
11
1.2638
21
0.953355
0
LINE
8
BLACK
6
CONTINUOUS
10
1.2638
20
0.953355
11
1.26079
21
0.952756
0
LINE
8
BLACK
6
CONTINUOUS
10
1.26079
20
0.952756
11
1.14583
21
0.952756
0
LINE
8
BLACK
6
CONTINUOUS
10
1.14583
20
0.952756
11
1.14281
21
0.953355
0
LINE
8
BLACK
6
CONTINUOUS
10
1.14281
20
0.953355
11
1.14026
21
0.955062
0
LINE
8
BLACK
6
CONTINUOUS
10
1.14026
20
0.955062
11
1.13855
21
0.957617
0
LINE
8
BLACK
6
CONTINUOUS
10
1.13855
20
0.957617
11
1.13795
21
0.96063
0
LINE
8
BLACK
6
CONTINUOUS
10
1.13795
20
0.96063
11
1.13795
21
0.990551
0
LINE
8
BLACK
6
CONTINUOUS
10
1.13795
20
0.990551
11
1.13855
21
0.993564
0
LINE
8
BLACK
6
CONTINUOUS
10
1.13855
20
0.993564
11
1.14026
21
0.996119
0
LINE
8
BLACK
6
CONTINUOUS
10
1.14026
20
0.996119
11
1.14281
21
0.997826
0
LINE
8
BLACK
6
CONTINUOUS
10
1.14281
20
0.997826
11
1.14583
21
0.998425
0
LINE
8
BLACK
6
CONTINUOUS
10
1.14583
20
0.998425
11
1.26079
21
0.998425
0
LINE
8
BLACK
6
CONTINUOUS
10
1.26079
20
0.998425
11
1.2638
21
0.997826
0
LINE
8
BLACK
6
CONTINUOUS
10
0.596513
20
1.00727
11
0.599068
21
1.00557
0
LINE
8
BLACK
6
CONTINUOUS
10
0.599068
20
1.00557
11
0.600775
21
1.00301
0
LINE
8
BLACK
6
CONTINUOUS
10
0.600775
20
1.00301
11
0.601374
21
1
0
LINE
8
BLACK
6
CONTINUOUS
10
0.601374
20
1
11
0.601374
21
0.965
0
LINE
8
BLACK
6
CONTINUOUS
10
0.601374
20
0.965
11
0.600775
21
0.961987
0
LINE
8
BLACK
6
CONTINUOUS
10
0.600775
20
0.961987
11
0.599068
21
0.959432
0
LINE
8
BLACK
6
CONTINUOUS
10
0.599068
20
0.959432
11
0.596513
21
0.957725
0
LINE
8
BLACK
6
CONTINUOUS
10
0.596513
20
0.957725
11
0.5935
21
0.957126
0
LINE
8
BLACK
6
CONTINUOUS
10
0.5935
20
0.957126
11
0.5385
21
0.957126
0
LINE
8
BLACK
6
CONTINUOUS
10
0.5385
20
0.957126
11
0.535487
21
0.957725
0
LINE
8
BLACK
6
CONTINUOUS
10
0.535487
20
0.957725
11
0.532932
21
0.959432
0
LINE
8
BLACK
6
CONTINUOUS
10
0.532932
20
0.959432
11
0.531225
21
0.961987
0
LINE
8
BLACK
6
CONTINUOUS
10
0.531225
20
0.961987
11
0.530626
21
0.965
0
LINE
8
BLACK
6
CONTINUOUS
10
0.530626
20
0.965
11
0.530626
21
1
0
LINE
8
BLACK
6
CONTINUOUS
10
0.530626
20
1
11
0.531225
21
1.00301
0
LINE
8
BLACK
6
CONTINUOUS
10
0.531225
20
1.00301
11
0.532932
21
1.00557
0
LINE
8
BLACK
6
CONTINUOUS
10
0.532932
20
1.00557
11
0.535487
21
1.00727
0
LINE
8
BLACK
6
CONTINUOUS
10
0.535487
20
1.00727
11
0.5385
21
1.00787
0
LINE
8
BLACK
6
CONTINUOUS
10
0.5385
20
1.00787
11
0.5935
21
1.00787
0
LINE
8
BLACK
6
CONTINUOUS
10
0.5935
20
1.00787
11
0.596513
21
1.00727
0
LINE
8
BLACK
6
CONTINUOUS
10
0.183013
20
1.10727
11
0.185568
21
1.10557
0
LINE
8
BLACK
6
CONTINUOUS
10
0.185568
20
1.10557
11
0.187275
21
1.10301
0
LINE
8
BLACK
6
CONTINUOUS
10
0.187275
20
1.10301
11
0.187874
21
1.1
0
LINE
8
BLACK
6
CONTINUOUS
10
0.187874
20
1.1
11
0.187874
21
1.04
0
LINE
8
BLACK
6
CONTINUOUS
10
0.187874
20
1.04
11
0.187275
21
1.03699
0
LINE
8
BLACK
6
CONTINUOUS
10
0.187275
20
1.03699
11
0.185568
21
1.03443
0
LINE
8
BLACK
6
CONTINUOUS
10
0.185568
20
1.03443
11
0.183013
21
1.03273
0
LINE
8
BLACK
6
CONTINUOUS
10
0.183013
20
1.03273
11
0.18
21
1.03213
0
LINE
8
BLACK
6
CONTINUOUS
10
0.18
20
1.03213
11
0.12
21
1.03213
0
LINE
8
BLACK
6
CONTINUOUS
10
0.12
20
1.03213
11
0.116987
21
1.03273
0
LINE
8
BLACK
6
CONTINUOUS
10
0.116987
20
1.03273
11
0.114432
21
1.03443
0
LINE
8
BLACK
6
CONTINUOUS
10
0.114432
20
1.03443
11
0.112725
21
1.03699
0
LINE
8
BLACK
6
CONTINUOUS
10
0.112725
20
1.03699
11
0.112126
21
1.04
0
LINE
8
BLACK
6
CONTINUOUS
10
0.112126
20
1.04
11
0.112126
21
1.1
0
LINE
8
BLACK
6
CONTINUOUS
10
0.112126
20
1.1
11
0.112725
21
1.10301
0
LINE
8
BLACK
6
CONTINUOUS
10
0.112725
20
1.10301
11
0.114432
21
1.10557
0
LINE
8
BLACK
6
CONTINUOUS
10
0.114432
20
1.10557
11
0.116987
21
1.10727
0
LINE
8
BLACK
6
CONTINUOUS
10
0.116987
20
1.10727
11
0.12
21
1.10787
0
LINE
8
BLACK
6
CONTINUOUS
10
0.12
20
1.10787
11
0.18
21
1.10787
0
LINE
8
BLACK
6
CONTINUOUS
10
0.18
20
1.10787
11
0.183013
21
1.10727
0
LINE
8
BLACK
6
CONTINUOUS
10
0.283013
20
1.10727
11
0.285568
21
1.10557
0
LINE
8
BLACK
6
CONTINUOUS
10
0.285568
20
1.10557
11
0.287275
21
1.10301
0
LINE
8
BLACK
6
CONTINUOUS
10
0.287275
20
1.10301
11
0.287874
21
1.1
0
LINE
8
BLACK
6
CONTINUOUS
10
0.287874
20
1.1
11
0.287874
21
1.04
0
LINE
8
BLACK
6
CONTINUOUS
10
0.287874
20
1.04
11
0.287275
21
1.03699
0
LINE
8
BLACK
6
CONTINUOUS
10
0.287275
20
1.03699
11
0.285568
21
1.03443
0
LINE
8
BLACK
6
CONTINUOUS
10
0.285568
20
1.03443
11
0.283013
21
1.03273
0
LINE
8
BLACK
6
CONTINUOUS
10
0.283013
20
1.03273
11
0.28
21
1.03213
0
LINE
8
BLACK
6
CONTINUOUS
10
0.28
20
1.03213
11
0.22
21
1.03213
0
LINE
8
BLACK
6
CONTINUOUS
10
0.22
20
1.03213
11
0.216987
21
1.03273
0
LINE
8
BLACK
6
CONTINUOUS
10
0.216987
20
1.03273
11
0.214432
21
1.03443
0
LINE
8
BLACK
6
CONTINUOUS
10
0.214432
20
1.03443
11
0.212725
21
1.03699
0
LINE
8
BLACK
6
CONTINUOUS
10
0.212725
20
1.03699
11
0.212126
21
1.04
0
LINE
8
BLACK
6
CONTINUOUS
10
0.212126
20
1.04
11
0.212126
21
1.1
0
LINE
8
BLACK
6
CONTINUOUS
10
0.212126
20
1.1
11
0.212725
21
1.10301
0
LINE
8
BLACK
6
CONTINUOUS
10
0.212725
20
1.10301
11
0.214432
21
1.10557
0
LINE
8
BLACK
6
CONTINUOUS
10
0.214432
20
1.10557
11
0.216987
21
1.10727
0
LINE
8
BLACK
6
CONTINUOUS
10
0.216987
20
1.10727
11
0.22
21
1.10787
0
LINE
8
BLACK
6
CONTINUOUS
10
0.22
20
1.10787
11
0.28
21
1.10787
0
LINE
8
BLACK
6
CONTINUOUS
10
0.28
20
1.10787
11
0.283013
21
1.10727
0
LINE
8
BLACK
6
CONTINUOUS
10
0.596513
20
1.08227
11
0.599068
21
1.08057
0
LINE
8
BLACK
6
CONTINUOUS
10
0.599068
20
1.08057
11
0.600775
21
1.07801
0
LINE
8
BLACK
6
CONTINUOUS
10
0.600775
20
1.07801
11
0.601374
21
1.075
0
LINE
8
BLACK
6
CONTINUOUS
10
0.601374
20
1.075
11
0.601374
21
1.04
0
LINE
8
BLACK
6
CONTINUOUS
10
0.601374
20
1.04
11
0.600775
21
1.03699
0
LINE
8
BLACK
6
CONTINUOUS
10
0.600775
20
1.03699
11
0.599068
21
1.03443
0
LINE
8
BLACK
6
CONTINUOUS
10
0.599068
20
1.03443
11
0.596513
21
1.03273
0
LINE
8
BLACK
6
CONTINUOUS
10
0.596513
20
1.03273
11
0.5935
21
1.03213
0
LINE
8
BLACK
6
CONTINUOUS
10
0.5935
20
1.03213
11
0.5385
21
1.03213
0
LINE
8
BLACK
6
CONTINUOUS
10
0.5385
20
1.03213
11
0.535487
21
1.03273
0
LINE
8
BLACK
6
CONTINUOUS
10
0.535487
20
1.03273
11
0.532932
21
1.03443
0
LINE
8
BLACK
6
CONTINUOUS
10
0.532932
20
1.03443
11
0.531225
21
1.03699
0
LINE
8
BLACK
6
CONTINUOUS
10
0.531225
20
1.03699
11
0.530626
21
1.04
0
LINE
8
BLACK
6
CONTINUOUS
10
0.530626
20
1.04
11
0.530626
21
1.075
0
LINE
8
BLACK
6
CONTINUOUS
10
0.530626
20
1.075
11
0.531225
21
1.07801
0
LINE
8
BLACK
6
CONTINUOUS
10
0.531225
20
1.07801
11
0.532932
21
1.08057
0
LINE
8
BLACK
6
CONTINUOUS
10
0.532932
20
1.08057
11
0.535487
21
1.08227
0
LINE
8
BLACK
6
CONTINUOUS
10
0.535487
20
1.08227
11
0.5385
21
1.08287
0
LINE
8
BLACK
6
CONTINUOUS
10
0.5385
20
1.08287
11
0.5935
21
1.08287
0
LINE
8
BLACK
6
CONTINUOUS
10
0.5935
20
1.08287
11
0.596513
21
1.08227
0
LINE
8
BLACK
6
CONTINUOUS
10
1.42301
20
1.10727
11
1.42557
21
1.10557
0
LINE
8
BLACK
6
CONTINUOUS
10
1.42557
20
1.10557
11
1.42727
21
1.10301
0
LINE
8
BLACK
6
CONTINUOUS
10
1.42727
20
1.10301
11
1.42787
21
1.1
0
LINE
8
BLACK
6
CONTINUOUS
10
1.42787
20
1.1
11
1.42787
21
1.04
0
LINE
8
BLACK
6
CONTINUOUS
10
1.42787
20
1.04
11
1.42727
21
1.03699
0
LINE
8
BLACK
6
CONTINUOUS
10
1.42727
20
1.03699
11
1.42557
21
1.03443
0
LINE
8
BLACK
6
CONTINUOUS
10
1.42557
20
1.03443
11
1.42301
21
1.03273
0
LINE
8
BLACK
6
CONTINUOUS
10
1.42301
20
1.03273
11
1.42
21
1.03213
0
LINE
8
BLACK
6
CONTINUOUS
10
1.42
20
1.03213
11
1.36
21
1.03213
0
LINE
8
BLACK
6
CONTINUOUS
10
1.36
20
1.03213
11
1.35699
21
1.03273
0
LINE
8
BLACK
6
CONTINUOUS
10
1.35699
20
1.03273
11
1.35443
21
1.03443
0
LINE
8
BLACK
6
CONTINUOUS
10
1.35443
20
1.03443
11
1.35273
21
1.03699
0
LINE
8
BLACK
6
CONTINUOUS
10
1.35273
20
1.03699
11
1.35213
21
1.04
0
LINE
8
BLACK
6
CONTINUOUS
10
1.35213
20
1.04
11
1.35213
21
1.1
0
LINE
8
BLACK
6
CONTINUOUS
10
1.35213
20
1.1
11
1.35273
21
1.10301
0
LINE
8
BLACK
6
CONTINUOUS
10
1.35273
20
1.10301
11
1.35443
21
1.10557
0
LINE
8
BLACK
6
CONTINUOUS
10
1.35443
20
1.10557
11
1.35699
21
1.10727
0
LINE
8
BLACK
6
CONTINUOUS
10
1.35699
20
1.10727
11
1.36
21
1.10787
0
LINE
8
BLACK
6
CONTINUOUS
10
1.36
20
1.10787
11
1.42
21
1.10787
0
LINE
8
BLACK
6
CONTINUOUS
10
1.42
20
1.10787
11
1.42301
21
1.10727
0
LINE
8
BLACK
6
CONTINUOUS
10
1.52301
20
1.10727
11
1.52557
21
1.10557
0
LINE
8
BLACK
6
CONTINUOUS
10
1.52557
20
1.10557
11
1.52727
21
1.10301
0
LINE
8
BLACK
6
CONTINUOUS
10
1.52727
20
1.10301
11
1.52787
21
1.1
0
LINE
8
BLACK
6
CONTINUOUS
10
1.52787
20
1.1
11
1.52787
21
1.04
0
LINE
8
BLACK
6
CONTINUOUS
10
1.52787
20
1.04
11
1.52727
21
1.03699
0
LINE
8
BLACK
6
CONTINUOUS
10
1.52727
20
1.03699
11
1.52557
21
1.03443
0
LINE
8
BLACK
6
CONTINUOUS
10
1.52557
20
1.03443
11
1.52301
21
1.03273
0
LINE
8
BLACK
6
CONTINUOUS
10
1.52301
20
1.03273
11
1.52
21
1.03213
0
LINE
8
BLACK
6
CONTINUOUS
10
1.52
20
1.03213
11
1.46
21
1.03213
0
LINE
8
BLACK
6
CONTINUOUS
10
1.46
20
1.03213
11
1.45699
21
1.03273
0
LINE
8
BLACK
6
CONTINUOUS
10
1.45699
20
1.03273
11
1.45443
21
1.03443
0
LINE
8
BLACK
6
CONTINUOUS
10
1.45443
20
1.03443
11
1.45273
21
1.03699
0
LINE
8
BLACK
6
CONTINUOUS
10
1.45273
20
1.03699
11
1.45213
21
1.04
0
LINE
8
BLACK
6
CONTINUOUS
10
1.45213
20
1.04
11
1.45213
21
1.1
0
LINE
8
BLACK
6
CONTINUOUS
10
1.45213
20
1.1
11
1.45273
21
1.10301
0
LINE
8
BLACK
6
CONTINUOUS
10
1.45273
20
1.10301
11
1.45443
21
1.10557
0
LINE
8
BLACK
6
CONTINUOUS
10
1.45443
20
1.10557
11
1.45699
21
1.10727
0
LINE
8
BLACK
6
CONTINUOUS
10
1.45699
20
1.10727
11
1.46
21
1.10787
0
LINE
8
BLACK
6
CONTINUOUS
10
1.46
20
1.10787
11
1.52
21
1.10787
0
LINE
8
BLACK
6
CONTINUOUS
10
1.52
20
1.10787
11
1.52301
21
1.10727
0
LINE
8
BLACK
6
CONTINUOUS
10
0.397013
20
1.10277
11
0.399568
21
1.10107
0
LINE
8
BLACK
6
CONTINUOUS
10
0.399568
20
1.10107
11
0.401275
21
1.09851
0
LINE
8
BLACK
6
CONTINUOUS
10
0.401275
20
1.09851
11
0.401874
21
1.0955
0
LINE
8
BLACK
6
CONTINUOUS
10
0.401874
20
1.0955
11
0.401874
21
1.0405
0
LINE
8
BLACK
6
CONTINUOUS
10
0.401874
20
1.0405
11
0.401275
21
1.03749
0
LINE
8
BLACK
6
CONTINUOUS
10
0.401275
20
1.03749
11
0.399568
21
1.03493
0
LINE
8
BLACK
6
CONTINUOUS
10
0.399568
20
1.03493
11
0.397013
21
1.03323
0
LINE
8
BLACK
6
CONTINUOUS
10
0.397013
20
1.03323
11
0.394
21
1.03263
0
LINE
8
BLACK
6
CONTINUOUS
10
0.394
20
1.03263
11
0.359
21
1.03263
0
LINE
8
BLACK
6
CONTINUOUS
10
0.359
20
1.03263
11
0.355987
21
1.03323
0
LINE
8
BLACK
6
CONTINUOUS
10
0.355987
20
1.03323
11
0.353432
21
1.03493
0
LINE
8
BLACK
6
CONTINUOUS
10
0.353432
20
1.03493
11
0.351725
21
1.03749
0
LINE
8
BLACK
6
CONTINUOUS
10
0.351725
20
1.03749
11
0.351126
21
1.0405
0
LINE
8
BLACK
6
CONTINUOUS
10
0.351126
20
1.0405
11
0.351126
21
1.0955
0
LINE
8
BLACK
6
CONTINUOUS
10
0.351126
20
1.0955
11
0.351725
21
1.09851
0
LINE
8
BLACK
6
CONTINUOUS
10
0.351725
20
1.09851
11
0.353432
21
1.10107
0
LINE
8
BLACK
6
CONTINUOUS
10
0.353432
20
1.10107
11
0.355987
21
1.10277
0
LINE
8
BLACK
6
CONTINUOUS
10
0.355987
20
1.10277
11
0.359
21
1.10337
0
LINE
8
BLACK
6
CONTINUOUS
10
0.359
20
1.10337
11
0.394
21
1.10337
0
LINE
8
BLACK
6
CONTINUOUS
10
0.394
20
1.10337
11
0.397013
21
1.10277
0
LINE
8
BLACK
6
CONTINUOUS
10
0.472013
20
1.10277
11
0.474568
21
1.10107
0
LINE
8
BLACK
6
CONTINUOUS
10
0.474568
20
1.10107
11
0.476275
21
1.09851
0
LINE
8
BLACK
6
CONTINUOUS
10
0.476275
20
1.09851
11
0.476874
21
1.0955
0
LINE
8
BLACK
6
CONTINUOUS
10
0.476874
20
1.0955
11
0.476874
21
1.0405
0
LINE
8
BLACK
6
CONTINUOUS
10
0.476874
20
1.0405
11
0.476275
21
1.03749
0
LINE
8
BLACK
6
CONTINUOUS
10
0.476275
20
1.03749
11
0.474568
21
1.03493
0
LINE
8
BLACK
6
CONTINUOUS
10
0.474568
20
1.03493
11
0.472013
21
1.03323
0
LINE
8
BLACK
6
CONTINUOUS
10
0.472013
20
1.03323
11
0.469
21
1.03263
0
LINE
8
BLACK
6
CONTINUOUS
10
0.469
20
1.03263
11
0.434
21
1.03263
0
LINE
8
BLACK
6
CONTINUOUS
10
0.434
20
1.03263
11
0.430987
21
1.03323
0
LINE
8
BLACK
6
CONTINUOUS
10
0.430987
20
1.03323
11
0.428432
21
1.03493
0
LINE
8
BLACK
6
CONTINUOUS
10
0.428432
20
1.03493
11
0.426725
21
1.03749
0
LINE
8
BLACK
6
CONTINUOUS
10
0.426725
20
1.03749
11
0.426126
21
1.0405
0
LINE
8
BLACK
6
CONTINUOUS
10
0.426126
20
1.0405
11
0.426126
21
1.0955
0
LINE
8
BLACK
6
CONTINUOUS
10
0.426126
20
1.0955
11
0.426725
21
1.09851
0
LINE
8
BLACK
6
CONTINUOUS
10
0.426725
20
1.09851
11
0.428432
21
1.10107
0
LINE
8
BLACK
6
CONTINUOUS
10
0.428432
20
1.10107
11
0.430987
21
1.10277
0
LINE
8
BLACK
6
CONTINUOUS
10
0.430987
20
1.10277
11
0.434
21
1.10337
0
LINE
8
BLACK
6
CONTINUOUS
10
0.434
20
1.10337
11
0.469
21
1.10337
0
LINE
8
BLACK
6
CONTINUOUS
10
0.469
20
1.10337
11
0.472013
21
1.10277
0
LINE
8
BLACK
6
CONTINUOUS
10
0.690513
20
1.10277
11
0.693068
21
1.10107
0
LINE
8
BLACK
6
CONTINUOUS
10
0.693068
20
1.10107
11
0.694775
21
1.09851
0
LINE
8
BLACK
6
CONTINUOUS
10
0.694775
20
1.09851
11
0.695374
21
1.0955
0
LINE
8
BLACK
6
CONTINUOUS
10
0.695374
20
1.0955
11
0.695374
21
1.0405
0
LINE
8
BLACK
6
CONTINUOUS
10
0.695374
20
1.0405
11
0.694775
21
1.03749
0
LINE
8
BLACK
6
CONTINUOUS
10
0.694775
20
1.03749
11
0.693068
21
1.03493
0
LINE
8
BLACK
6
CONTINUOUS
10
0.693068
20
1.03493
11
0.690513
21
1.03323
0
LINE
8
BLACK
6
CONTINUOUS
10
0.690513
20
1.03323
11
0.6875
21
1.03263
0
LINE
8
BLACK
6
CONTINUOUS
10
0.6875
20
1.03263
11
0.6525
21
1.03263
0
LINE
8
BLACK
6
CONTINUOUS
10
0.6525
20
1.03263
11
0.649487
21
1.03323
0
LINE
8
BLACK
6
CONTINUOUS
10
0.649487
20
1.03323
11
0.646932
21
1.03493
0
LINE
8
BLACK
6
CONTINUOUS
10
0.646932
20
1.03493
11
0.645225
21
1.03749
0
LINE
8
BLACK
6
CONTINUOUS
10
0.645225
20
1.03749
11
0.644626
21
1.0405
0
LINE
8
BLACK
6
CONTINUOUS
10
0.644626
20
1.0405
11
0.644626
21
1.0955
0
LINE
8
BLACK
6
CONTINUOUS
10
0.644626
20
1.0955
11
0.645225
21
1.09851
0
LINE
8
BLACK
6
CONTINUOUS
10
0.645225
20
1.09851
11
0.646932
21
1.10107
0
LINE
8
BLACK
6
CONTINUOUS
10
0.646932
20
1.10107
11
0.649487
21
1.10277
0
LINE
8
BLACK
6
CONTINUOUS
10
0.649487
20
1.10277
11
0.6525
21
1.10337
0
LINE
8
BLACK
6
CONTINUOUS
10
0.6525
20
1.10337
11
0.6875
21
1.10337
0
LINE
8
BLACK
6
CONTINUOUS
10
0.6875
20
1.10337
11
0.690513
21
1.10277
0
LINE
8
BLACK
6
CONTINUOUS
10
0.765513
20
1.10277
11
0.768068
21
1.10107
0
LINE
8
BLACK
6
CONTINUOUS
10
0.768068
20
1.10107
11
0.769775
21
1.09851
0
LINE
8
BLACK
6
CONTINUOUS
10
0.769775
20
1.09851
11
0.770374
21
1.0955
0
LINE
8
BLACK
6
CONTINUOUS
10
0.770374
20
1.0955
11
0.770374
21
1.0405
0
LINE
8
BLACK
6
CONTINUOUS
10
0.770374
20
1.0405
11
0.769775
21
1.03749
0
LINE
8
BLACK
6
CONTINUOUS
10
0.769775
20
1.03749
11
0.768068
21
1.03493
0
LINE
8
BLACK
6
CONTINUOUS
10
0.768068
20
1.03493
11
0.765513
21
1.03323
0
LINE
8
BLACK
6
CONTINUOUS
10
0.765513
20
1.03323
11
0.7625
21
1.03263
0
LINE
8
BLACK
6
CONTINUOUS
10
0.7625
20
1.03263
11
0.7275
21
1.03263
0
LINE
8
BLACK
6
CONTINUOUS
10
0.7275
20
1.03263
11
0.724487
21
1.03323
0
LINE
8
BLACK
6
CONTINUOUS
10
0.724487
20
1.03323
11
0.721932
21
1.03493
0
LINE
8
BLACK
6
CONTINUOUS
10
0.721932
20
1.03493
11
0.720225
21
1.03749
0
LINE
8
BLACK
6
CONTINUOUS
10
0.720225
20
1.03749
11
0.719626
21
1.0405
0
LINE
8
BLACK
6
CONTINUOUS
10
0.719626
20
1.0405
11
0.719626
21
1.0955
0
LINE
8
BLACK
6
CONTINUOUS
10
0.719626
20
1.0955
11
0.720225
21
1.09851
0
LINE
8
BLACK
6
CONTINUOUS
10
0.720225
20
1.09851
11
0.721932
21
1.10107
0
LINE
8
BLACK
6
CONTINUOUS
10
0.721932
20
1.10107
11
0.724487
21
1.10277
0
LINE
8
BLACK
6
CONTINUOUS
10
0.724487
20
1.10277
11
0.7275
21
1.10337
0
LINE
8
BLACK
6
CONTINUOUS
10
0.7275
20
1.10337
11
0.7625
21
1.10337
0
LINE
8
BLACK
6
CONTINUOUS
10
0.7625
20
1.10337
11
0.765513
21
1.10277
0
LINE
8
BLACK
6
CONTINUOUS
10
0.973013
20
1.18727
11
0.975568
21
1.18557
0
LINE
8
BLACK
6
CONTINUOUS
10
0.975568
20
1.18557
11
0.977275
21
1.18301
0
LINE
8
BLACK
6
CONTINUOUS
10
0.977275
20
1.18301
11
0.977874
21
1.18
0
LINE
8
BLACK
6
CONTINUOUS
10
0.977874
20
1.18
11
0.977874
21
1.12
0
LINE
8
BLACK
6
CONTINUOUS
10
0.977874
20
1.12
11
0.977275
21
1.11699
0
LINE
8
BLACK
6
CONTINUOUS
10
0.977275
20
1.11699
11
0.975568
21
1.11443
0
LINE
8
BLACK
6
CONTINUOUS
10
0.975568
20
1.11443
11
0.973013
21
1.11273
0
LINE
8
BLACK
6
CONTINUOUS
10
0.973013
20
1.11273
11
0.97
21
1.11213
0
LINE
8
BLACK
6
CONTINUOUS
10
0.97
20
1.11213
11
0.91
21
1.11213
0
LINE
8
BLACK
6
CONTINUOUS
10
0.91
20
1.11213
11
0.906987
21
1.11273
0
LINE
8
BLACK
6
CONTINUOUS
10
0.906987
20
1.11273
11
0.904432
21
1.11443
0
LINE
8
BLACK
6
CONTINUOUS
10
0.904432
20
1.11443
11
0.902725
21
1.11699
0
LINE
8
BLACK
6
CONTINUOUS
10
0.902725
20
1.11699
11
0.902126
21
1.12
0
LINE
8
BLACK
6
CONTINUOUS
10
0.902126
20
1.12
11
0.902126
21
1.18
0
LINE
8
BLACK
6
CONTINUOUS
10
0.902126
20
1.18
11
0.902725
21
1.18301
0
LINE
8
BLACK
6
CONTINUOUS
10
0.902725
20
1.18301
11
0.904432
21
1.18557
0
LINE
8
BLACK
6
CONTINUOUS
10
0.904432
20
1.18557
11
0.906987
21
1.18727
0
LINE
8
BLACK
6
CONTINUOUS
10
0.906987
20
1.18727
11
0.91
21
1.18787
0
LINE
8
BLACK
6
CONTINUOUS
10
0.91
20
1.18787
11
0.97
21
1.18787
0
LINE
8
BLACK
6
CONTINUOUS
10
0.97
20
1.18787
11
0.973013
21
1.18727
0
LINE
8
BLACK
6
CONTINUOUS
10
1.07301
20
1.18727
11
1.07557
21
1.18557
0
LINE
8
BLACK
6
CONTINUOUS
10
1.07557
20
1.18557
11
1.07727
21
1.18301
0
LINE
8
BLACK
6
CONTINUOUS
10
1.07727
20
1.18301
11
1.07787
21
1.18
0
LINE
8
BLACK
6
CONTINUOUS
10
1.07787
20
1.18
11
1.07787
21
1.12
0
LINE
8
BLACK
6
CONTINUOUS
10
1.07787
20
1.12
11
1.07727
21
1.11699
0
LINE
8
BLACK
6
CONTINUOUS
10
1.07727
20
1.11699
11
1.07557
21
1.11443
0
LINE
8
BLACK
6
CONTINUOUS
10
1.07557
20
1.11443
11
1.07301
21
1.11273
0
LINE
8
BLACK
6
CONTINUOUS
10
1.07301
20
1.11273
11
1.07
21
1.11213
0
LINE
8
BLACK
6
CONTINUOUS
10
1.07
20
1.11213
11
1.01
21
1.11213
0
LINE
8
BLACK
6
CONTINUOUS
10
1.01
20
1.11213
11
1.00699
21
1.11273
0
LINE
8
BLACK
6
CONTINUOUS
10
1.00699
20
1.11273
11
1.00443
21
1.11443
0
LINE
8
BLACK
6
CONTINUOUS
10
1.00443
20
1.11443
11
1.00273
21
1.11699
0
LINE
8
BLACK
6
CONTINUOUS
10
1.00273
20
1.11699
11
1.00213
21
1.12
0
LINE
8
BLACK
6
CONTINUOUS
10
1.00213
20
1.12
11
1.00213
21
1.18
0
LINE
8
BLACK
6
CONTINUOUS
10
1.00213
20
1.18
11
1.00273
21
1.18301
0
LINE
8
BLACK
6
CONTINUOUS
10
1.00273
20
1.18301
11
1.00443
21
1.18557
0
LINE
8
BLACK
6
CONTINUOUS
10
1.00443
20
1.18557
11
1.00699
21
1.18727
0
LINE
8
BLACK
6
CONTINUOUS
10
1.00699
20
1.18727
11
1.01
21
1.18787
0
LINE
8
BLACK
6
CONTINUOUS
10
1.01
20
1.18787
11
1.07
21
1.18787
0
LINE
8
BLACK
6
CONTINUOUS
10
1.07
20
1.18787
11
1.07301
21
1.18727
0
LINE
8
BLACK
6
CONTINUOUS
10
0.183013
20
1.20727
11
0.185568
21
1.20557
0
LINE
8
BLACK
6
CONTINUOUS
10
0.185568
20
1.20557
11
0.187275
21
1.20301
0
LINE
8
BLACK
6
CONTINUOUS
10
0.187275
20
1.20301
11
0.187874
21
1.2
0
LINE
8
BLACK
6
CONTINUOUS
10
0.187874
20
1.2
11
0.187874
21
1.14
0
LINE
8
BLACK
6
CONTINUOUS
10
0.187874
20
1.14
11
0.187275
21
1.13699
0
LINE
8
BLACK
6
CONTINUOUS
10
0.187275
20
1.13699
11
0.185568
21
1.13443
0
LINE
8
BLACK
6
CONTINUOUS
10
0.185568
20
1.13443
11
0.183013
21
1.13273
0
LINE
8
BLACK
6
CONTINUOUS
10
0.183013
20
1.13273
11
0.18
21
1.13213
0
LINE
8
BLACK
6
CONTINUOUS
10
0.18
20
1.13213
11
0.12
21
1.13213
0
LINE
8
BLACK
6
CONTINUOUS
10
0.12
20
1.13213
11
0.116987
21
1.13273
0
LINE
8
BLACK
6
CONTINUOUS
10
0.116987
20
1.13273
11
0.114432
21
1.13443
0
LINE
8
BLACK
6
CONTINUOUS
10
0.114432
20
1.13443
11
0.112725
21
1.13699
0
LINE
8
BLACK
6
CONTINUOUS
10
0.112725
20
1.13699
11
0.112126
21
1.14
0
LINE
8
BLACK
6
CONTINUOUS
10
0.112126
20
1.14
11
0.112126
21
1.2
0
LINE
8
BLACK
6
CONTINUOUS
10
0.112126
20
1.2
11
0.112725
21
1.20301
0
LINE
8
BLACK
6
CONTINUOUS
10
0.112725
20
1.20301
11
0.114432
21
1.20557
0
LINE
8
BLACK
6
CONTINUOUS
10
0.114432
20
1.20557
11
0.116987
21
1.20727
0
LINE
8
BLACK
6
CONTINUOUS
10
0.116987
20
1.20727
11
0.12
21
1.20787
0
LINE
8
BLACK
6
CONTINUOUS
10
0.12
20
1.20787
11
0.18
21
1.20787
0
LINE
8
BLACK
6
CONTINUOUS
10
0.18
20
1.20787
11
0.183013
21
1.20727
0
LINE
8
BLACK
6
CONTINUOUS
10
0.283013
20
1.20727
11
0.285568
21
1.20557
0
LINE
8
BLACK
6
CONTINUOUS
10
0.285568
20
1.20557
11
0.287275
21
1.20301
0
LINE
8
BLACK
6
CONTINUOUS
10
0.287275
20
1.20301
11
0.287874
21
1.2
0
LINE
8
BLACK
6
CONTINUOUS
10
0.287874
20
1.2
11
0.287874
21
1.14
0
LINE
8
BLACK
6
CONTINUOUS
10
0.287874
20
1.14
11
0.287275
21
1.13699
0
LINE
8
BLACK
6
CONTINUOUS
10
0.287275
20
1.13699
11
0.285568
21
1.13443
0
LINE
8
BLACK
6
CONTINUOUS
10
0.285568
20
1.13443
11
0.283013
21
1.13273
0
LINE
8
BLACK
6
CONTINUOUS
10
0.283013
20
1.13273
11
0.28
21
1.13213
0
LINE
8
BLACK
6
CONTINUOUS
10
0.28
20
1.13213
11
0.22
21
1.13213
0
LINE
8
BLACK
6
CONTINUOUS
10
0.22
20
1.13213
11
0.216987
21
1.13273
0
LINE
8
BLACK
6
CONTINUOUS
10
0.216987
20
1.13273
11
0.214432
21
1.13443
0
LINE
8
BLACK
6
CONTINUOUS
10
0.214432
20
1.13443
11
0.212725
21
1.13699
0
LINE
8
BLACK
6
CONTINUOUS
10
0.212725
20
1.13699
11
0.212126
21
1.14
0
LINE
8
BLACK
6
CONTINUOUS
10
0.212126
20
1.14
11
0.212126
21
1.2
0
LINE
8
BLACK
6
CONTINUOUS
10
0.212126
20
1.2
11
0.212725
21
1.20301
0
LINE
8
BLACK
6
CONTINUOUS
10
0.212725
20
1.20301
11
0.214432
21
1.20557
0
LINE
8
BLACK
6
CONTINUOUS
10
0.214432
20
1.20557
11
0.216987
21
1.20727
0
LINE
8
BLACK
6
CONTINUOUS
10
0.216987
20
1.20727
11
0.22
21
1.20787
0
LINE
8
BLACK
6
CONTINUOUS
10
0.22
20
1.20787
11
0.28
21
1.20787
0
LINE
8
BLACK
6
CONTINUOUS
10
0.28
20
1.20787
11
0.283013
21
1.20727
0
LINE
8
BLACK
6
CONTINUOUS
10
1.42301
20
1.20727
11
1.42557
21
1.20557
0
LINE
8
BLACK
6
CONTINUOUS
10
1.42557
20
1.20557
11
1.42727
21
1.20301
0
LINE
8
BLACK
6
CONTINUOUS
10
1.42727
20
1.20301
11
1.42787
21
1.2
0
LINE
8
BLACK
6
CONTINUOUS
10
1.42787
20
1.2
11
1.42787
21
1.14
0
LINE
8
BLACK
6
CONTINUOUS
10
1.42787
20
1.14
11
1.42727
21
1.13699
0
LINE
8
BLACK
6
CONTINUOUS
10
1.42727
20
1.13699
11
1.42557
21
1.13443
0
LINE
8
BLACK
6
CONTINUOUS
10
1.42557
20
1.13443
11
1.42301
21
1.13273
0
LINE
8
BLACK
6
CONTINUOUS
10
1.42301
20
1.13273
11
1.42
21
1.13213
0
LINE
8
BLACK
6
CONTINUOUS
10
1.42
20
1.13213
11
1.36
21
1.13213
0
LINE
8
BLACK
6
CONTINUOUS
10
1.36
20
1.13213
11
1.35699
21
1.13273
0
LINE
8
BLACK
6
CONTINUOUS
10
1.35699
20
1.13273
11
1.35443
21
1.13443
0
LINE
8
BLACK
6
CONTINUOUS
10
1.35443
20
1.13443
11
1.35273
21
1.13699
0
LINE
8
BLACK
6
CONTINUOUS
10
1.35273
20
1.13699
11
1.35213
21
1.14
0
LINE
8
BLACK
6
CONTINUOUS
10
1.35213
20
1.14
11
1.35213
21
1.2
0
LINE
8
BLACK
6
CONTINUOUS
10
1.35213
20
1.2
11
1.35273
21
1.20301
0
LINE
8
BLACK
6
CONTINUOUS
10
1.35273
20
1.20301
11
1.35443
21
1.20557
0
LINE
8
BLACK
6
CONTINUOUS
10
1.35443
20
1.20557
11
1.35699
21
1.20727
0
LINE
8
BLACK
6
CONTINUOUS
10
1.35699
20
1.20727
11
1.36
21
1.20787
0
LINE
8
BLACK
6
CONTINUOUS
10
1.36
20
1.20787
11
1.42
21
1.20787
0
LINE
8
BLACK
6
CONTINUOUS
10
1.42
20
1.20787
11
1.42301
21
1.20727
0
LINE
8
BLACK
6
CONTINUOUS
10
1.52301
20
1.20727
11
1.52557
21
1.20557
0
LINE
8
BLACK
6
CONTINUOUS
10
1.52557
20
1.20557
11
1.52727
21
1.20301
0
LINE
8
BLACK
6
CONTINUOUS
10
1.52727
20
1.20301
11
1.52787
21
1.2
0
LINE
8
BLACK
6
CONTINUOUS
10
1.52787
20
1.2
11
1.52787
21
1.14
0
LINE
8
BLACK
6
CONTINUOUS
10
1.52787
20
1.14
11
1.52727
21
1.13699
0
LINE
8
BLACK
6
CONTINUOUS
10
1.52727
20
1.13699
11
1.52557
21
1.13443
0
LINE
8
BLACK
6
CONTINUOUS
10
1.52557
20
1.13443
11
1.52301
21
1.13273
0
LINE
8
BLACK
6
CONTINUOUS
10
1.52301
20
1.13273
11
1.52
21
1.13213
0
LINE
8
BLACK
6
CONTINUOUS
10
1.52
20
1.13213
11
1.46
21
1.13213
0
LINE
8
BLACK
6
CONTINUOUS
10
1.46
20
1.13213
11
1.45699
21
1.13273
0
LINE
8
BLACK
6
CONTINUOUS
10
1.45699
20
1.13273
11
1.45443
21
1.13443
0
LINE
8
BLACK
6
CONTINUOUS
10
1.45443
20
1.13443
11
1.45273
21
1.13699
0
LINE
8
BLACK
6
CONTINUOUS
10
1.45273
20
1.13699
11
1.45213
21
1.14
0
LINE
8
BLACK
6
CONTINUOUS
10
1.45213
20
1.14
11
1.45213
21
1.2
0
LINE
8
BLACK
6
CONTINUOUS
10
1.45213
20
1.2
11
1.45273
21
1.20301
0
LINE
8
BLACK
6
CONTINUOUS
10
1.45273
20
1.20301
11
1.45443
21
1.20557
0
LINE
8
BLACK
6
CONTINUOUS
10
1.45443
20
1.20557
11
1.45699
21
1.20727
0
LINE
8
BLACK
6
CONTINUOUS
10
1.45699
20
1.20727
11
1.46
21
1.20787
0
LINE
8
BLACK
6
CONTINUOUS
10
1.46
20
1.20787
11
1.52
21
1.20787
0
LINE
8
BLACK
6
CONTINUOUS
10
1.52
20
1.20787
11
1.52301
21
1.20727
0
LINE
8
BLACK
6
CONTINUOUS
10
0.973013
20
1.28727
11
0.975568
21
1.28557
0
LINE
8
BLACK
6
CONTINUOUS
10
0.975568
20
1.28557
11
0.977275
21
1.28301
0
LINE
8
BLACK
6
CONTINUOUS
10
0.977275
20
1.28301
11
0.977874
21
1.28
0
LINE
8
BLACK
6
CONTINUOUS
10
0.977874
20
1.28
11
0.977874
21
1.22
0
LINE
8
BLACK
6
CONTINUOUS
10
0.977874
20
1.22
11
0.977275
21
1.21699
0
LINE
8
BLACK
6
CONTINUOUS
10
0.977275
20
1.21699
11
0.975568
21
1.21443
0
LINE
8
BLACK
6
CONTINUOUS
10
0.975568
20
1.21443
11
0.973013
21
1.21273
0
LINE
8
BLACK
6
CONTINUOUS
10
0.973013
20
1.21273
11
0.97
21
1.21213
0
LINE
8
BLACK
6
CONTINUOUS
10
0.97
20
1.21213
11
0.91
21
1.21213
0
LINE
8
BLACK
6
CONTINUOUS
10
0.91
20
1.21213
11
0.906987
21
1.21273
0
LINE
8
BLACK
6
CONTINUOUS
10
0.906987
20
1.21273
11
0.904432
21
1.21443
0
LINE
8
BLACK
6
CONTINUOUS
10
0.904432
20
1.21443
11
0.902725
21
1.21699
0
LINE
8
BLACK
6
CONTINUOUS
10
0.902725
20
1.21699
11
0.902126
21
1.22
0
LINE
8
BLACK
6
CONTINUOUS
10
0.902126
20
1.22
11
0.902126
21
1.28
0
LINE
8
BLACK
6
CONTINUOUS
10
0.902126
20
1.28
11
0.902725
21
1.28301
0
LINE
8
BLACK
6
CONTINUOUS
10
0.902725
20
1.28301
11
0.904432
21
1.28557
0
LINE
8
BLACK
6
CONTINUOUS
10
0.904432
20
1.28557
11
0.906987
21
1.28727
0
LINE
8
BLACK
6
CONTINUOUS
10
0.906987
20
1.28727
11
0.91
21
1.28787
0
LINE
8
BLACK
6
CONTINUOUS
10
0.91
20
1.28787
11
0.97
21
1.28787
0
LINE
8
BLACK
6
CONTINUOUS
10
0.97
20
1.28787
11
0.973013
21
1.28727
0
LINE
8
BLACK
6
CONTINUOUS
10
1.07301
20
1.28727
11
1.07557
21
1.28557
0
LINE
8
BLACK
6
CONTINUOUS
10
1.07557
20
1.28557
11
1.07727
21
1.28301
0
LINE
8
BLACK
6
CONTINUOUS
10
1.07727
20
1.28301
11
1.07787
21
1.28
0
LINE
8
BLACK
6
CONTINUOUS
10
1.07787
20
1.28
11
1.07787
21
1.22
0
LINE
8
BLACK
6
CONTINUOUS
10
1.07787
20
1.22
11
1.07727
21
1.21699
0
LINE
8
BLACK
6
CONTINUOUS
10
1.07727
20
1.21699
11
1.07557
21
1.21443
0
LINE
8
BLACK
6
CONTINUOUS
10
1.07557
20
1.21443
11
1.07301
21
1.21273
0
LINE
8
BLACK
6
CONTINUOUS
10
1.07301
20
1.21273
11
1.07
21
1.21213
0
LINE
8
BLACK
6
CONTINUOUS
10
1.07
20
1.21213
11
1.01
21
1.21213
0
LINE
8
BLACK
6
CONTINUOUS
10
1.01
20
1.21213
11
1.00699
21
1.21273
0
LINE
8
BLACK
6
CONTINUOUS
10
1.00699
20
1.21273
11
1.00443
21
1.21443
0
LINE
8
BLACK
6
CONTINUOUS
10
1.00443
20
1.21443
11
1.00273
21
1.21699
0
LINE
8
BLACK
6
CONTINUOUS
10
1.00273
20
1.21699
11
1.00213
21
1.22
0
LINE
8
BLACK
6
CONTINUOUS
10
1.00213
20
1.22
11
1.00213
21
1.28
0
LINE
8
BLACK
6
CONTINUOUS
10
1.00213
20
1.28
11
1.00273
21
1.28301
0
LINE
8
BLACK
6
CONTINUOUS
10
1.00273
20
1.28301
11
1.00443
21
1.28557
0
LINE
8
BLACK
6
CONTINUOUS
10
1.00443
20
1.28557
11
1.00699
21
1.28727
0
LINE
8
BLACK
6
CONTINUOUS
10
1.00699
20
1.28727
11
1.01
21
1.28787
0
LINE
8
BLACK
6
CONTINUOUS
10
1.01
20
1.28787
11
1.07
21
1.28787
0
LINE
8
BLACK
6
CONTINUOUS
10
1.07
20
1.28787
11
1.07301
21
1.28727
0
LINE
8
BLACK
6
CONTINUOUS
10
0.214106
20
1.52519
11
0.228034
21
1.52283
0
LINE
8
BLACK
6
CONTINUOUS
10
0.228034
20
1.52283
11
0.24161
21
1.51891
0
LINE
8
BLACK
6
CONTINUOUS
10
0.24161
20
1.51891
11
0.254663
21
1.51351
0
LINE
8
BLACK
6
CONTINUOUS
10
0.254663
20
1.51351
11
0.267028
21
1.50667
0
LINE
8
BLACK
6
CONTINUOUS
10
0.267028
20
1.50667
11
0.27855
21
1.4985
0
LINE
8
BLACK
6
CONTINUOUS
10
0.27855
20
1.4985
11
0.289084
21
1.48908
0
LINE
8
BLACK
6
CONTINUOUS
10
0.289084
20
1.48908
11
0.298498
21
1.47855
0
LINE
8
BLACK
6
CONTINUOUS
10
0.298498
20
1.47855
11
0.306674
21
1.46703
0
LINE
8
BLACK
6
CONTINUOUS
10
0.306674
20
1.46703
11
0.313508
21
1.45466
0
LINE
8
BLACK
6
CONTINUOUS
10
0.313508
20
1.45466
11
0.318914
21
1.44161
0
LINE
8
BLACK
6
CONTINUOUS
10
0.318914
20
1.44161
11
0.322826
21
1.42803
0
LINE
8
BLACK
6
CONTINUOUS
10
0.322826
20
1.42803
11
0.325192
21
1.41411
0
LINE
8
BLACK
6
CONTINUOUS
10
0.325192
20
1.41411
11
0.325984
21
1.4
0
LINE
8
BLACK
6
CONTINUOUS
10
0.325984
20
1.4
11
0.325192
21
1.38589
0
LINE
8
BLACK
6
CONTINUOUS
10
0.325192
20
1.38589
11
0.322826
21
1.37197
0
LINE
8
BLACK
6
CONTINUOUS
10
0.322826
20
1.37197
11
0.318914
21
1.35839
0
LINE
8
BLACK
6
CONTINUOUS
10
0.318914
20
1.35839
11
0.313508
21
1.34534
0
LINE
8
BLACK
6
CONTINUOUS
10
0.313508
20
1.34534
11
0.306674
21
1.33297
0
LINE
8
BLACK
6
CONTINUOUS
10
0.306674
20
1.33297
11
0.298498
21
1.32145
0
LINE
8
BLACK
6
CONTINUOUS
10
0.298498
20
1.32145
11
0.289084
21
1.31092
0
LINE
8
BLACK
6
CONTINUOUS
10
0.289084
20
1.31092
11
0.27855
21
1.3015
0
LINE
8
BLACK
6
CONTINUOUS
10
0.27855
20
1.3015
11
0.267028
21
1.29333
0
LINE
8
BLACK
6
CONTINUOUS
10
0.267028
20
1.29333
11
0.254663
21
1.28649
0
LINE
8
BLACK
6
CONTINUOUS
10
0.254663
20
1.28649
11
0.24161
21
1.28109
0
LINE
8
BLACK
6
CONTINUOUS
10
0.24161
20
1.28109
11
0.228034
21
1.27717
0
LINE
8
BLACK
6
CONTINUOUS
10
0.228034
20
1.27717
11
0.214106
21
1.27481
0
LINE
8
BLACK
6
CONTINUOUS
10
0.214106
20
1.27481
11
0.2
21
1.27402
0
LINE
8
BLACK
6
CONTINUOUS
10
0.2
20
1.27402
11
0.185894
21
1.27481
0
LINE
8
BLACK
6
CONTINUOUS
10
0.185894
20
1.27481
11
0.171966
21
1.27717
0
LINE
8
BLACK
6
CONTINUOUS
10
0.171966
20
1.27717
11
0.15839
21
1.28109
0
LINE
8
BLACK
6
CONTINUOUS
10
0.15839
20
1.28109
11
0.145337
21
1.28649
0
LINE
8
BLACK
6
CONTINUOUS
10
0.145337
20
1.28649
11
0.132972
21
1.29333
0
LINE
8
BLACK
6
CONTINUOUS
10
0.132972
20
1.29333
11
0.12145
21
1.3015
0
LINE
8
BLACK
6
CONTINUOUS
10
0.12145
20
1.3015
11
0.110916
21
1.31092
0
LINE
8
BLACK
6
CONTINUOUS
10
0.110916
20
1.31092
11
0.101502
21
1.32145
0
LINE
8
BLACK
6
CONTINUOUS
10
0.101502
20
1.32145
11
0.0933261
21
1.33297
0
LINE
8
BLACK
6
CONTINUOUS
10
0.0933261
20
1.33297
11
0.0864921
21
1.34534
0
LINE
8
BLACK
6
CONTINUOUS
10
0.0864921
20
1.34534
11
0.0810856
21
1.35839
0
LINE
8
BLACK
6
CONTINUOUS
10
0.0810856
20
1.35839
11
0.0771744
21
1.37197
0
LINE
8
BLACK
6
CONTINUOUS
10
0.0771744
20
1.37197
11
0.0748079
21
1.38589
0
LINE
8
BLACK
6
CONTINUOUS
10
0.0748079
20
1.38589
11
0.0740157
21
1.4
0
LINE
8
BLACK
6
CONTINUOUS
10
0.0740157
20
1.4
11
0.0748079
21
1.41411
0
LINE
8
BLACK
6
CONTINUOUS
10
0.0748079
20
1.41411
11
0.0771744
21
1.42803
0
LINE
8
BLACK
6
CONTINUOUS
10
0.0771744
20
1.42803
11
0.0810856
21
1.44161
0
LINE
8
BLACK
6
CONTINUOUS
10
0.0810856
20
1.44161
11
0.0864921
21
1.45466
0
LINE
8
BLACK
6
CONTINUOUS
10
0.0864921
20
1.45466
11
0.0933261
21
1.46703
0
LINE
8
BLACK
6
CONTINUOUS
10
0.0933261
20
1.46703
11
0.101502
21
1.47855
0
LINE
8
BLACK
6
CONTINUOUS
10
0.101502
20
1.47855
11
0.110916
21
1.48908
0
LINE
8
BLACK
6
CONTINUOUS
10
0.110916
20
1.48908
11
0.12145
21
1.4985
0
LINE
8
BLACK
6
CONTINUOUS
10
0.12145
20
1.4985
11
0.132972
21
1.50667
0
LINE
8
BLACK
6
CONTINUOUS
10
0.132972
20
1.50667
11
0.145337
21
1.51351
0
LINE
8
BLACK
6
CONTINUOUS
10
0.145337
20
1.51351
11
0.15839
21
1.51891
0
LINE
8
BLACK
6
CONTINUOUS
10
0.15839
20
1.51891
11
0.171966
21
1.52283
0
LINE
8
BLACK
6
CONTINUOUS
10
0.171966
20
1.52283
11
0.185894
21
1.52519
0
LINE
8
BLACK
6
CONTINUOUS
10
0.185894
20
1.52519
11
0.2
21
1.52598
0
LINE
8
BLACK
6
CONTINUOUS
10
0.2
20
1.52598
11
0.214106
21
1.52519
0
LINE
8
BLACK
6
CONTINUOUS
10
1.41411
20
1.52519
11
1.42803
21
1.52283
0
LINE
8
BLACK
6
CONTINUOUS
10
1.42803
20
1.52283
11
1.44161
21
1.51891
0
LINE
8
BLACK
6
CONTINUOUS
10
1.44161
20
1.51891
11
1.45466
21
1.51351
0
LINE
8
BLACK
6
CONTINUOUS
10
1.45466
20
1.51351
11
1.46703
21
1.50667
0
LINE
8
BLACK
6
CONTINUOUS
10
1.46703
20
1.50667
11
1.47855
21
1.4985
0
LINE
8
BLACK
6
CONTINUOUS
10
1.47855
20
1.4985
11
1.48908
21
1.48908
0
LINE
8
BLACK
6
CONTINUOUS
10
1.48908
20
1.48908
11
1.4985
21
1.47855
0
LINE
8
BLACK
6
CONTINUOUS
10
1.4985
20
1.47855
11
1.50667
21
1.46703
0
LINE
8
BLACK
6
CONTINUOUS
10
1.50667
20
1.46703
11
1.51351
21
1.45466
0
LINE
8
BLACK
6
CONTINUOUS
10
1.51351
20
1.45466
11
1.51891
21
1.44161
0
LINE
8
BLACK
6
CONTINUOUS
10
1.51891
20
1.44161
11
1.52283
21
1.42803
0
LINE
8
BLACK
6
CONTINUOUS
10
1.52283
20
1.42803
11
1.52519
21
1.41411
0
LINE
8
BLACK
6
CONTINUOUS
10
1.52519
20
1.41411
11
1.52598
21
1.4
0
LINE
8
BLACK
6
CONTINUOUS
10
1.52598
20
1.4
11
1.52519
21
1.38589
0
LINE
8
BLACK
6
CONTINUOUS
10
1.52519
20
1.38589
11
1.52283
21
1.37197
0
LINE
8
BLACK
6
CONTINUOUS
10
1.52283
20
1.37197
11
1.51891
21
1.35839
0
LINE
8
BLACK
6
CONTINUOUS
10
1.51891
20
1.35839
11
1.51351
21
1.34534
0
LINE
8
BLACK
6
CONTINUOUS
10
1.51351
20
1.34534
11
1.50667
21
1.33297
0
LINE
8
BLACK
6
CONTINUOUS
10
1.50667
20
1.33297
11
1.4985
21
1.32145
0
LINE
8
BLACK
6
CONTINUOUS
10
1.4985
20
1.32145
11
1.48908
21
1.31092
0
LINE
8
BLACK
6
CONTINUOUS
10
1.48908
20
1.31092
11
1.47855
21
1.3015
0
LINE
8
BLACK
6
CONTINUOUS
10
1.47855
20
1.3015
11
1.46703
21
1.29333
0
LINE
8
BLACK
6
CONTINUOUS
10
1.46703
20
1.29333
11
1.45466
21
1.28649
0
LINE
8
BLACK
6
CONTINUOUS
10
1.45466
20
1.28649
11
1.44161
21
1.28109
0
LINE
8
BLACK
6
CONTINUOUS
10
1.44161
20
1.28109
11
1.42803
21
1.27717
0
LINE
8
BLACK
6
CONTINUOUS
10
1.42803
20
1.27717
11
1.41411
21
1.27481
0
LINE
8
BLACK
6
CONTINUOUS
10
1.41411
20
1.27481
11
1.4
21
1.27402
0
LINE
8
BLACK
6
CONTINUOUS
10
1.4
20
1.27402
11
1.38589
21
1.27481
0
LINE
8
BLACK
6
CONTINUOUS
10
1.38589
20
1.27481
11
1.37197
21
1.27717
0
LINE
8
BLACK
6
CONTINUOUS
10
1.37197
20
1.27717
11
1.35839
21
1.28109
0
LINE
8
BLACK
6
CONTINUOUS
10
1.35839
20
1.28109
11
1.34534
21
1.28649
0
LINE
8
BLACK
6
CONTINUOUS
10
1.34534
20
1.28649
11
1.33297
21
1.29333
0
LINE
8
BLACK
6
CONTINUOUS
10
1.33297
20
1.29333
11
1.32145
21
1.3015
0
LINE
8
BLACK
6
CONTINUOUS
10
1.32145
20
1.3015
11
1.31092
21
1.31092
0
LINE
8
BLACK
6
CONTINUOUS
10
1.31092
20
1.31092
11
1.3015
21
1.32145
0
LINE
8
BLACK
6
CONTINUOUS
10
1.3015
20
1.32145
11
1.29333
21
1.33297
0
LINE
8
BLACK
6
CONTINUOUS
10
1.29333
20
1.33297
11
1.28649
21
1.34534
0
LINE
8
BLACK
6
CONTINUOUS
10
1.28649
20
1.34534
11
1.28109
21
1.35839
0
LINE
8
BLACK
6
CONTINUOUS
10
1.28109
20
1.35839
11
1.27717
21
1.37197
0
LINE
8
BLACK
6
CONTINUOUS
10
1.27717
20
1.37197
11
1.27481
21
1.38589
0
LINE
8
BLACK
6
CONTINUOUS
10
1.27481
20
1.38589
11
1.27402
21
1.4
0
LINE
8
BLACK
6
CONTINUOUS
10
1.27402
20
1.4
11
1.27481
21
1.41411
0
LINE
8
BLACK
6
CONTINUOUS
10
1.27481
20
1.41411
11
1.27717
21
1.42803
0
LINE
8
BLACK
6
CONTINUOUS
10
1.27717
20
1.42803
11
1.28109
21
1.44161
0
LINE
8
BLACK
6
CONTINUOUS
10
1.28109
20
1.44161
11
1.28649
21
1.45466
0
LINE
8
BLACK
6
CONTINUOUS
10
1.28649
20
1.45466
11
1.29333
21
1.46703
0
LINE
8
BLACK
6
CONTINUOUS
10
1.29333
20
1.46703
11
1.3015
21
1.47855
0
LINE
8
BLACK
6
CONTINUOUS
10
1.3015
20
1.47855
11
1.31092
21
1.48908
0
LINE
8
BLACK
6
CONTINUOUS
10
1.31092
20
1.48908
11
1.32145
21
1.4985
0
LINE
8
BLACK
6
CONTINUOUS
10
1.32145
20
1.4985
11
1.33297
21
1.50667
0
LINE
8
BLACK
6
CONTINUOUS
10
1.33297
20
1.50667
11
1.34534
21
1.51351
0
LINE
8
BLACK
6
CONTINUOUS
10
1.34534
20
1.51351
11
1.35839
21
1.51891
0
LINE
8
BLACK
6
CONTINUOUS
10
1.35839
20
1.51891
11
1.37197
21
1.52283
0
LINE
8
BLACK
6
CONTINUOUS
10
1.37197
20
1.52283
11
1.38589
21
1.52519
0
LINE
8
BLACK
6
CONTINUOUS
10
1.38589
20
1.52519
11
1.4
21
1.52598
0
LINE
8
BLACK
6
CONTINUOUS
10
1.4
20
1.52598
11
1.41411
21
1.52519
0
LINE
8
BLACK
6
CONTINUOUS
10
0.883013
20
1.39477
11
0.885568
21
1.39307
0
LINE
8
BLACK
6
CONTINUOUS
10
0.885568
20
1.39307
11
0.887275
21
1.39051
0
LINE
8
BLACK
6
CONTINUOUS
10
0.887275
20
1.39051
11
0.887874
21
1.3875
0
LINE
8
BLACK
6
CONTINUOUS
10
0.887874
20
1.3875
11
0.887874
21
1.3325
0
LINE
8
BLACK
6
CONTINUOUS
10
0.887874
20
1.3325
11
0.887275
21
1.32949
0
LINE
8
BLACK
6
CONTINUOUS
10
0.887275
20
1.32949
11
0.885568
21
1.32693
0
LINE
8
BLACK
6
CONTINUOUS
10
0.885568
20
1.32693
11
0.883013
21
1.32523
0
LINE
8
BLACK
6
CONTINUOUS
10
0.883013
20
1.32523
11
0.88
21
1.32463
0
LINE
8
BLACK
6
CONTINUOUS
10
0.88
20
1.32463
11
0.845
21
1.32463
0
LINE
8
BLACK
6
CONTINUOUS
10
0.845
20
1.32463
11
0.841987
21
1.32523
0
LINE
8
BLACK
6
CONTINUOUS
10
0.841987
20
1.32523
11
0.839432
21
1.32693
0
LINE
8
BLACK
6
CONTINUOUS
10
0.839432
20
1.32693
11
0.837725
21
1.32949
0
LINE
8
BLACK
6
CONTINUOUS
10
0.837725
20
1.32949
11
0.837126
21
1.3325
0
LINE
8
BLACK
6
CONTINUOUS
10
0.837126
20
1.3325
11
0.837126
21
1.3875
0
LINE
8
BLACK
6
CONTINUOUS
10
0.837126
20
1.3875
11
0.837725
21
1.39051
0
LINE
8
BLACK
6
CONTINUOUS
10
0.837725
20
1.39051
11
0.839432
21
1.39307
0
LINE
8
BLACK
6
CONTINUOUS
10
0.839432
20
1.39307
11
0.841987
21
1.39477
0
LINE
8
BLACK
6
CONTINUOUS
10
0.841987
20
1.39477
11
0.845
21
1.39537
0
LINE
8
BLACK
6
CONTINUOUS
10
0.845
20
1.39537
11
0.88
21
1.39537
0
LINE
8
BLACK
6
CONTINUOUS
10
0.88
20
1.39537
11
0.883013
21
1.39477
0
LINE
8
BLACK
6
CONTINUOUS
10
0.958013
20
1.39477
11
0.960568
21
1.39307
0
LINE
8
BLACK
6
CONTINUOUS
10
0.960568
20
1.39307
11
0.962275
21
1.39051
0
LINE
8
BLACK
6
CONTINUOUS
10
0.962275
20
1.39051
11
0.962874
21
1.3875
0
LINE
8
BLACK
6
CONTINUOUS
10
0.962874
20
1.3875
11
0.962874
21
1.3325
0
LINE
8
BLACK
6
CONTINUOUS
10
0.962874
20
1.3325
11
0.962275
21
1.32949
0
LINE
8
BLACK
6
CONTINUOUS
10
0.962275
20
1.32949
11
0.960568
21
1.32693
0
LINE
8
BLACK
6
CONTINUOUS
10
0.960568
20
1.32693
11
0.958013
21
1.32523
0
LINE
8
BLACK
6
CONTINUOUS
10
0.958013
20
1.32523
11
0.955
21
1.32463
0
LINE
8
BLACK
6
CONTINUOUS
10
0.955
20
1.32463
11
0.92
21
1.32463
0
LINE
8
BLACK
6
CONTINUOUS
10
0.92
20
1.32463
11
0.916987
21
1.32523
0
LINE
8
BLACK
6
CONTINUOUS
10
0.916987
20
1.32523
11
0.914432
21
1.32693
0
LINE
8
BLACK
6
CONTINUOUS
10
0.914432
20
1.32693
11
0.912725
21
1.32949
0
LINE
8
BLACK
6
CONTINUOUS
10
0.912725
20
1.32949
11
0.912126
21
1.3325
0
LINE
8
BLACK
6
CONTINUOUS
10
0.912126
20
1.3325
11
0.912126
21
1.3875
0
LINE
8
BLACK
6
CONTINUOUS
10
0.912126
20
1.3875
11
0.912725
21
1.39051
0
LINE
8
BLACK
6
CONTINUOUS
10
0.912725
20
1.39051
11
0.914432
21
1.39307
0
LINE
8
BLACK
6
CONTINUOUS
10
0.914432
20
1.39307
11
0.916987
21
1.39477
0
LINE
8
BLACK
6
CONTINUOUS
10
0.916987
20
1.39477
11
0.92
21
1.39537
0
LINE
8
BLACK
6
CONTINUOUS
10
0.92
20
1.39537
11
0.955
21
1.39537
0
LINE
8
BLACK
6
CONTINUOUS
10
0.955
20
1.39537
11
0.958013
21
1.39477
0
LINE
8
BLACK
6
CONTINUOUS
10
1.06301
20
1.39477
11
1.06557
21
1.39307
0
LINE
8
BLACK
6
CONTINUOUS
10
1.06557
20
1.39307
11
1.06727
21
1.39051
0
LINE
8
BLACK
6
CONTINUOUS
10
1.06727
20
1.39051
11
1.06787
21
1.3875
0
LINE
8
BLACK
6
CONTINUOUS
10
1.06787
20
1.3875
11
1.06787
21
1.3325
0
LINE
8
BLACK
6
CONTINUOUS
10
1.06787
20
1.3325
11
1.06727
21
1.32949
0
LINE
8
BLACK
6
CONTINUOUS
10
1.06727
20
1.32949
11
1.06557
21
1.32693
0
LINE
8
BLACK
6
CONTINUOUS
10
1.06557
20
1.32693
11
1.06301
21
1.32523
0
LINE
8
BLACK
6
CONTINUOUS
10
1.06301
20
1.32523
11
1.06
21
1.32463
0
LINE
8
BLACK
6
CONTINUOUS
10
1.06
20
1.32463
11
1.025
21
1.32463
0
LINE
8
BLACK
6
CONTINUOUS
10
1.025
20
1.32463
11
1.02199
21
1.32523
0
LINE
8
BLACK
6
CONTINUOUS
10
1.02199
20
1.32523
11
1.01943
21
1.32693
0
LINE
8
BLACK
6
CONTINUOUS
10
1.01943
20
1.32693
11
1.01773
21
1.32949
0
LINE
8
BLACK
6
CONTINUOUS
10
1.01773
20
1.32949
11
1.01713
21
1.3325
0
LINE
8
BLACK
6
CONTINUOUS
10
1.01713
20
1.3325
11
1.01713
21
1.3875
0
LINE
8
BLACK
6
CONTINUOUS
10
1.01713
20
1.3875
11
1.01773
21
1.39051
0
LINE
8
BLACK
6
CONTINUOUS
10
1.01773
20
1.39051
11
1.01943
21
1.39307
0
LINE
8
BLACK
6
CONTINUOUS
10
1.01943
20
1.39307
11
1.02199
21
1.39477
0
LINE
8
BLACK
6
CONTINUOUS
10
1.02199
20
1.39477
11
1.025
21
1.39537
0
LINE
8
BLACK
6
CONTINUOUS
10
1.025
20
1.39537
11
1.06
21
1.39537
0
LINE
8
BLACK
6
CONTINUOUS
10
1.06
20
1.39537
11
1.06301
21
1.39477
0
LINE
8
BLACK
6
CONTINUOUS
10
1.13801
20
1.39477
11
1.14057
21
1.39307
0
LINE
8
BLACK
6
CONTINUOUS
10
1.14057
20
1.39307
11
1.14227
21
1.39051
0
LINE
8
BLACK
6
CONTINUOUS
10
1.14227
20
1.39051
11
1.14287
21
1.3875
0
LINE
8
BLACK
6
CONTINUOUS
10
1.14287
20
1.3875
11
1.14287
21
1.3325
0
LINE
8
BLACK
6
CONTINUOUS
10
1.14287
20
1.3325
11
1.14227
21
1.32949
0
LINE
8
BLACK
6
CONTINUOUS
10
1.14227
20
1.32949
11
1.14057
21
1.32693
0
LINE
8
BLACK
6
CONTINUOUS
10
1.14057
20
1.32693
11
1.13801
21
1.32523
0
LINE
8
BLACK
6
CONTINUOUS
10
1.13801
20
1.32523
11
1.135
21
1.32463
0
LINE
8
BLACK
6
CONTINUOUS
10
1.135
20
1.32463
11
1.1
21
1.32463
0
LINE
8
BLACK
6
CONTINUOUS
10
1.1
20
1.32463
11
1.09699
21
1.32523
0
LINE
8
BLACK
6
CONTINUOUS
10
1.09699
20
1.32523
11
1.09443
21
1.32693
0
LINE
8
BLACK
6
CONTINUOUS
10
1.09443
20
1.32693
11
1.09273
21
1.32949
0
LINE
8
BLACK
6
CONTINUOUS
10
1.09273
20
1.32949
11
1.09213
21
1.3325
0
LINE
8
BLACK
6
CONTINUOUS
10
1.09213
20
1.3325
11
1.09213
21
1.3875
0
LINE
8
BLACK
6
CONTINUOUS
10
1.09213
20
1.3875
11
1.09273
21
1.39051
0
LINE
8
BLACK
6
CONTINUOUS
10
1.09273
20
1.39051
11
1.09443
21
1.39307
0
LINE
8
BLACK
6
CONTINUOUS
10
1.09443
20
1.39307
11
1.09699
21
1.39477
0
LINE
8
BLACK
6
CONTINUOUS
10
1.09699
20
1.39477
11
1.1
21
1.39537
0
LINE
8
BLACK
6
CONTINUOUS
10
1.1
20
1.39537
11
1.135
21
1.39537
0
LINE
8
BLACK
6
CONTINUOUS
10
1.135
20
1.39537
11
1.13801
21
1.39477
0
LINE
8
BLACK
6
CONTINUOUS
10
0.970513
20
1.46727
11
0.973068
21
1.46557
0
LINE
8
BLACK
6
CONTINUOUS
10
0.973068
20
1.46557
11
0.974775
21
1.46301
0
LINE
8
BLACK
6
CONTINUOUS
10
0.974775
20
1.46301
11
0.975374
21
1.46
0
LINE
8
BLACK
6
CONTINUOUS
10
0.975374
20
1.46
11
0.975374
21
1.425
0
LINE
8
BLACK
6
CONTINUOUS
10
0.975374
20
1.425
11
0.974775
21
1.42199
0
LINE
8
BLACK
6
CONTINUOUS
10
0.974775
20
1.42199
11
0.973068
21
1.41943
0
LINE
8
BLACK
6
CONTINUOUS
10
0.973068
20
1.41943
11
0.970513
21
1.41773
0
LINE
8
BLACK
6
CONTINUOUS
10
0.970513
20
1.41773
11
0.9675
21
1.41713
0
LINE
8
BLACK
6
CONTINUOUS
10
0.9675
20
1.41713
11
0.9125
21
1.41713
0
LINE
8
BLACK
6
CONTINUOUS
10
0.9125
20
1.41713
11
0.909487
21
1.41773
0
LINE
8
BLACK
6
CONTINUOUS
10
0.909487
20
1.41773
11
0.906932
21
1.41943
0
LINE
8
BLACK
6
CONTINUOUS
10
0.906932
20
1.41943
11
0.905225
21
1.42199
0
LINE
8
BLACK
6
CONTINUOUS
10
0.905225
20
1.42199
11
0.904626
21
1.425
0
LINE
8
BLACK
6
CONTINUOUS
10
0.904626
20
1.425
11
0.904626
21
1.46
0
LINE
8
BLACK
6
CONTINUOUS
10
0.904626
20
1.46
11
0.905225
21
1.46301
0
LINE
8
BLACK
6
CONTINUOUS
10
0.905225
20
1.46301
11
0.906932
21
1.46557
0
LINE
8
BLACK
6
CONTINUOUS
10
0.906932
20
1.46557
11
0.909487
21
1.46727
0
LINE
8
BLACK
6
CONTINUOUS
10
0.909487
20
1.46727
11
0.9125
21
1.46787
0
LINE
8
BLACK
6
CONTINUOUS
10
0.9125
20
1.46787
11
0.9675
21
1.46787
0
LINE
8
BLACK
6
CONTINUOUS
10
0.9675
20
1.46787
11
0.970513
21
1.46727
0
LINE
8
BLACK
6
CONTINUOUS
10
1.07051
20
1.46727
11
1.07307
21
1.46557
0
LINE
8
BLACK
6
CONTINUOUS
10
1.07307
20
1.46557
11
1.07477
21
1.46301
0
LINE
8
BLACK
6
CONTINUOUS
10
1.07477
20
1.46301
11
1.07537
21
1.46
0
LINE
8
BLACK
6
CONTINUOUS
10
1.07537
20
1.46
11
1.07537
21
1.425
0
LINE
8
BLACK
6
CONTINUOUS
10
1.07537
20
1.425
11
1.07477
21
1.42199
0
LINE
8
BLACK
6
CONTINUOUS
10
1.07477
20
1.42199
11
1.07307
21
1.41943
0
LINE
8
BLACK
6
CONTINUOUS
10
1.07307
20
1.41943
11
1.07051
21
1.41773
0
LINE
8
BLACK
6
CONTINUOUS
10
1.07051
20
1.41773
11
1.0675
21
1.41713
0
LINE
8
BLACK
6
CONTINUOUS
10
1.0675
20
1.41713
11
1.0125
21
1.41713
0
LINE
8
BLACK
6
CONTINUOUS
10
1.0125
20
1.41713
11
1.00949
21
1.41773
0
LINE
8
BLACK
6
CONTINUOUS
10
1.00949
20
1.41773
11
1.00693
21
1.41943
0
LINE
8
BLACK
6
CONTINUOUS
10
1.00693
20
1.41943
11
1.00523
21
1.42199
0
LINE
8
BLACK
6
CONTINUOUS
10
1.00523
20
1.42199
11
1.00463
21
1.425
0
LINE
8
BLACK
6
CONTINUOUS
10
1.00463
20
1.425
11
1.00463
21
1.46
0
LINE
8
BLACK
6
CONTINUOUS
10
1.00463
20
1.46
11
1.00523
21
1.46301
0
LINE
8
BLACK
6
CONTINUOUS
10
1.00523
20
1.46301
11
1.00693
21
1.46557
0
LINE
8
BLACK
6
CONTINUOUS
10
1.00693
20
1.46557
11
1.00949
21
1.46727
0
LINE
8
BLACK
6
CONTINUOUS
10
1.00949
20
1.46727
11
1.0125
21
1.46787
0
LINE
8
BLACK
6
CONTINUOUS
10
1.0125
20
1.46787
11
1.0675
21
1.46787
0
LINE
8
BLACK
6
CONTINUOUS
10
1.0675
20
1.46787
11
1.07051
21
1.46727
0
LINE
8
BLACK
6
CONTINUOUS
10
0.970513
20
1.54227
11
0.973068
21
1.54057
0
LINE
8
BLACK
6
CONTINUOUS
10
0.973068
20
1.54057
11
0.974775
21
1.53801
0
LINE
8
BLACK
6
CONTINUOUS
10
0.974775
20
1.53801
11
0.975374
21
1.535
0
LINE
8
BLACK
6
CONTINUOUS
10
0.975374
20
1.535
11
0.975374
21
1.5
0
LINE
8
BLACK
6
CONTINUOUS
10
0.975374
20
1.5
11
0.974775
21
1.49699
0
LINE
8
BLACK
6
CONTINUOUS
10
0.974775
20
1.49699
11
0.973068
21
1.49443
0
LINE
8
BLACK
6
CONTINUOUS
10
0.973068
20
1.49443
11
0.970513
21
1.49273
0
LINE
8
BLACK
6
CONTINUOUS
10
0.970513
20
1.49273
11
0.9675
21
1.49213
0
LINE
8
BLACK
6
CONTINUOUS
10
0.9675
20
1.49213
11
0.9125
21
1.49213
0
LINE
8
BLACK
6
CONTINUOUS
10
0.9125
20
1.49213
11
0.909487
21
1.49273
0
LINE
8
BLACK
6
CONTINUOUS
10
0.909487
20
1.49273
11
0.906932
21
1.49443
0
LINE
8
BLACK
6
CONTINUOUS
10
0.906932
20
1.49443
11
0.905225
21
1.49699
0
LINE
8
BLACK
6
CONTINUOUS
10
0.905225
20
1.49699
11
0.904626
21
1.5
0
LINE
8
BLACK
6
CONTINUOUS
10
0.904626
20
1.5
11
0.904626
21
1.535
0
LINE
8
BLACK
6
CONTINUOUS
10
0.904626
20
1.535
11
0.905225
21
1.53801
0
LINE
8
BLACK
6
CONTINUOUS
10
0.905225
20
1.53801
11
0.906932
21
1.54057
0
LINE
8
BLACK
6
CONTINUOUS
10
0.906932
20
1.54057
11
0.909487
21
1.54227
0
LINE
8
BLACK
6
CONTINUOUS
10
0.909487
20
1.54227
11
0.9125
21
1.54287
0
LINE
8
BLACK
6
CONTINUOUS
10
0.9125
20
1.54287
11
0.9675
21
1.54287
0
LINE
8
BLACK
6
CONTINUOUS
10
0.9675
20
1.54287
11
0.970513
21
1.54227
0
LINE
8
BLACK
6
CONTINUOUS
10
1.07051
20
1.54227
11
1.07307
21
1.54057
0
LINE
8
BLACK
6
CONTINUOUS
10
1.07307
20
1.54057
11
1.07477
21
1.53801
0
LINE
8
BLACK
6
CONTINUOUS
10
1.07477
20
1.53801
11
1.07537
21
1.535
0
LINE
8
BLACK
6
CONTINUOUS
10
1.07537
20
1.535
11
1.07537
21
1.5
0
LINE
8
BLACK
6
CONTINUOUS
10
1.07537
20
1.5
11
1.07477
21
1.49699
0
LINE
8
BLACK
6
CONTINUOUS
10
1.07477
20
1.49699
11
1.07307
21
1.49443
0
LINE
8
BLACK
6
CONTINUOUS
10
1.07307
20
1.49443
11
1.07051
21
1.49273
0
LINE
8
BLACK
6
CONTINUOUS
10
1.07051
20
1.49273
11
1.0675
21
1.49213
0
LINE
8
BLACK
6
CONTINUOUS
10
1.0675
20
1.49213
11
1.0125
21
1.49213
0
LINE
8
BLACK
6
CONTINUOUS
10
1.0125
20
1.49213
11
1.00949
21
1.49273
0
LINE
8
BLACK
6
CONTINUOUS
10
1.00949
20
1.49273
11
1.00693
21
1.49443
0
LINE
8
BLACK
6
CONTINUOUS
10
1.00693
20
1.49443
11
1.00523
21
1.49699
0
LINE
8
BLACK
6
CONTINUOUS
10
1.00523
20
1.49699
11
1.00463
21
1.5
0
LINE
8
BLACK
6
CONTINUOUS
10
1.00463
20
1.5
11
1.00463
21
1.535
0
LINE
8
BLACK
6
CONTINUOUS
10
1.00463
20
1.535
11
1.00523
21
1.53801
0
LINE
8
BLACK
6
CONTINUOUS
10
1.00523
20
1.53801
11
1.00693
21
1.54057
0
LINE
8
BLACK
6
CONTINUOUS
10
1.00693
20
1.54057
11
1.00949
21
1.54227
0
LINE
8
BLACK
6
CONTINUOUS
10
1.00949
20
1.54227
11
1.0125
21
1.54287
0
LINE
8
BLACK
6
CONTINUOUS
10
1.0125
20
1.54287
11
1.0675
21
1.54287
0
LINE
8
BLACK
6
CONTINUOUS
10
1.0675
20
1.54287
11
1.07051
21
1.54227
  0
ENDSEC
  0
EOF
