<?xml version='1.0' encoding='ASCII' standalone='yes'?>
<svg xmlns:svg="http://www.w3.org/2000/svg" xmlns="http://www.w3.org/2000/svg" xmlns:xlink="http://www.w3.org/1999/xlink" version="1.1" width="297.0022mm" height="210.0072mm" viewBox="0.0000 0.0000 297.0022 210.0072">
<title>SVG Image created as SYMTRANS01-B_Fab.svg date 2023/09/17 09:10:04 </title>
  <desc>Image generated by PCBNEW </desc>
<g style="fill:#000084; fill-opacity:1.0000;stroke:#000084; stroke-opacity:1.0000; stroke-linecap:round; stroke-linejoin:round;" transform="translate(0 0) scale(1 1)">
</g>
<g style="fill:#000084; fill-opacity:0.0;  stroke:#000084; stroke-width:0.0000; stroke-opacity:1;  stroke-linecap:round; stroke-linejoin:round;">
</g>
<g style="fill:#000084; fill-opacity:0.0;  stroke:#000084; stroke-width:0.7820; stroke-opacity:1;  stroke-linecap:round; stroke-linejoin:round;">
<g transform="rotate(-90.000000 185.5360 105.0036)">
<text x="185.5360" y="107.6102" transform="scale(-1 1) translate(-371.072012 0)" textLength="36.3065" font-size="6.9510" lengthAdjust="spacingAndGlyphs" text-anchor="middle" opacity="0.01" style="font-family:monospace">H1102NL</text>
</g>
<g class="stroked-text"><desc>H1102NL</desc>
<path d="M187.9071 88.7432 L182.6938 88.7432 "/>
<path d="M185.1763 88.7432 L185.1763 91.7222 "/>
<path d="M187.9071 91.7222 L182.6938 91.7222 "/>
<path d="M187.9071 96.9355 L187.9071 93.9565 "/>
<path d="M187.9071 95.4460 L182.6938 95.4460 "/>
<path d="M182.6938 95.4460 L183.4386 94.9495 "/>
<path d="M183.4386 94.9495 L183.9351 94.4530 "/>
<path d="M183.9351 94.4530 L184.1833 93.9565 "/>
<path d="M187.9071 101.9005 L187.9071 98.9215 "/>
<path d="M187.9071 100.4110 L182.6938 100.4110 "/>
<path d="M182.6938 100.4110 L183.4386 99.9145 "/>
<path d="M183.4386 99.9145 L183.9351 99.4180 "/>
<path d="M183.9351 99.4180 L184.1833 98.9215 "/>
<path d="M182.6938 105.1277 L182.6938 105.6242 "/>
<path d="M182.6938 105.6242 L182.9421 106.1207 "/>
<path d="M182.9421 106.1207 L183.1903 106.3690 "/>
<path d="M183.1903 106.3690 L183.6868 106.6172 "/>
<path d="M183.6868 106.6172 L184.6798 106.8655 "/>
<path d="M184.6798 106.8655 L185.9211 106.8655 "/>
<path d="M185.9211 106.8655 L186.9141 106.6172 "/>
<path d="M186.9141 106.6172 L187.4106 106.3690 "/>
<path d="M187.4106 106.3690 L187.6588 106.1207 "/>
<path d="M187.6588 106.1207 L187.9071 105.6242 "/>
<path d="M187.9071 105.6242 L187.9071 105.1277 "/>
<path d="M187.9071 105.1277 L187.6588 104.6312 "/>
<path d="M187.6588 104.6312 L187.4106 104.3830 "/>
<path d="M187.4106 104.3830 L186.9141 104.1347 "/>
<path d="M186.9141 104.1347 L185.9211 103.8865 "/>
<path d="M185.9211 103.8865 L184.6798 103.8865 "/>
<path d="M184.6798 103.8865 L183.6868 104.1347 "/>
<path d="M183.6868 104.1347 L183.1903 104.3830 "/>
<path d="M183.1903 104.3830 L182.9421 104.6312 "/>
<path d="M182.9421 104.6312 L182.6938 105.1277 "/>
<path d="M183.1903 108.8515 L182.9421 109.0997 "/>
<path d="M182.9421 109.0997 L182.6938 109.5962 "/>
<path d="M182.6938 109.5962 L182.6938 110.8375 "/>
<path d="M182.6938 110.8375 L182.9421 111.3340 "/>
<path d="M182.9421 111.3340 L183.1903 111.5822 "/>
<path d="M183.1903 111.5822 L183.6868 111.8305 "/>
<path d="M183.6868 111.8305 L184.1833 111.8305 "/>
<path d="M184.1833 111.8305 L184.9281 111.5822 "/>
<path d="M184.9281 111.5822 L187.9071 108.6032 "/>
<path d="M187.9071 108.6032 L187.9071 111.8305 "/>
<path d="M187.9071 114.0647 L182.6938 114.0647 "/>
<path d="M182.6938 114.0647 L187.9071 117.0437 "/>
<path d="M187.9071 117.0437 L182.6938 117.0437 "/>
<path d="M187.9071 122.0087 L187.9071 119.5262 "/>
<path d="M187.9071 119.5262 L182.6938 119.5262 "/>
</g><g>
</g>
<g>
</g>
<g>
</g>
<g>
</g>
<g>
</g>
<g>
</g>
<g>
</g>
<g>
</g>
<g>
</g>
<g>
</g>
<g>
</g>
<g>
</g>
<g>
</g>
<g>
</g>
<g>
</g>
<g>
</g>
<g>
</g>
<g>
</g>
<g>
</g>
<g>
</g>
<g>
</g>
<g>
</g>
<g>
</g>
<g>
</g>
<g>
</g>
<g>
</g>
<g>
</g>
<g>
</g>
<g>
</g>
<g>
</g>
<g>
</g>
<g>
</g>
<g>
</g>
<g>
</g>
</g> 
<svg:g><svg:g><svg:title>SVG Image created as SYMTRANS01-Edge_Cuts.svg date 2023/09/17 09:10:04 </svg:title>
  <svg:desc>Image generated by PCBNEW </svg:desc>
<svg:g style="fill:#C2C200; fill-opacity:1.0000;stroke:#C2C200; stroke-opacity:1.0000; stroke-linecap:round; stroke-linejoin:round;" transform="translate(0 0) scale(1 1)">
</svg:g>
<svg:g style="fill:#C2C200; fill-opacity:0.0;  stroke:#C2C200; stroke-width:0.0000; stroke-opacity:1;  stroke-linecap:round; stroke-linejoin:round;">
</svg:g>
<svg:g style="fill:#C2C200; fill-opacity:0.0;  stroke:#C2C200; stroke-width:0.7820; stroke-opacity:1;  stroke-linecap:round; stroke-linejoin:round;">
<svg:path d="M43.8921 0.3946 L43.8921 209.6126 "/>
<svg:path d="M43.8921 209.6126 L253.1101 209.6126 "/>
<svg:path d="M43.8921 0.3946 L253.1101 0.3946 "/>
<svg:path d="M253.1101 0.3946 L253.1101 209.6126 "/>
<svg:g>
</svg:g>
<svg:g>
</svg:g>
<svg:g>
</svg:g>
<svg:g>
</svg:g>
<svg:g>
</svg:g>
<svg:g>
</svg:g>
<svg:g>
</svg:g>
<svg:g>
</svg:g>
<svg:g>
</svg:g>
<svg:g>
</svg:g>
<svg:g>
</svg:g>
<svg:g>
</svg:g>
<svg:g>
</svg:g>
<svg:g>
</svg:g>
<svg:g>
</svg:g>
<svg:g>
</svg:g>
<svg:g>
</svg:g>
<svg:g>
</svg:g>
<svg:g>
</svg:g>
<svg:g>
</svg:g>
<svg:g>
</svg:g>
<svg:g>
</svg:g>
<svg:g>
</svg:g>
<svg:g>
</svg:g>
<svg:g>
</svg:g>
<svg:g>
</svg:g>
<svg:g>
</svg:g>
<svg:g>
</svg:g>
<svg:g>
</svg:g>
<svg:g>
</svg:g>
<svg:g>
</svg:g>
<svg:g>
</svg:g>
<svg:g>
</svg:g>
<svg:g>
</svg:g>
</svg:g> 
</svg:g></svg:g></svg>
