%TF.GenerationSoftware,KiCad,Pcbnew,7.0.7-7.0.7~ubuntu23.04.1*%
%TF.CreationDate,2023-09-17T09:09:24+00:00*%
%TF.ProjectId,SYMTRANS01,53594d54-5241-44e5-9330-312e6b696361,REV*%
%TF.SameCoordinates,Original*%
%TF.FileFunction,Legend,Top*%
%TF.FilePolarity,Positive*%
%FSLAX46Y46*%
G04 Gerber Fmt 4.6, Leading zero omitted, Abs format (unit mm)*
G04 Created by KiCad (PCBNEW 7.0.7-7.0.7~ubuntu23.04.1) date 2023-09-17 09:09:24*
%MOMM*%
%LPD*%
G01*
G04 APERTURE LIST*
%ADD10C,0.300000*%
%ADD11C,0.050000*%
%ADD12C,0.150000*%
%ADD13R,1.524000X1.524000*%
G04 APERTURE END LIST*
D10*
X25089414Y14547257D02*
X25160842Y14761543D01*
X25160842Y14761543D02*
X25232271Y14832972D01*
X25232271Y14832972D02*
X25375128Y14904400D01*
X25375128Y14904400D02*
X25589414Y14904400D01*
X25589414Y14904400D02*
X25732271Y14832972D01*
X25732271Y14832972D02*
X25803700Y14761543D01*
X25803700Y14761543D02*
X25875128Y14618686D01*
X25875128Y14618686D02*
X25875128Y14047257D01*
X25875128Y14047257D02*
X24375128Y14047257D01*
X24375128Y14047257D02*
X24375128Y14547257D01*
X24375128Y14547257D02*
X24446557Y14690115D01*
X24446557Y14690115D02*
X24517985Y14761543D01*
X24517985Y14761543D02*
X24660842Y14832972D01*
X24660842Y14832972D02*
X24803700Y14832972D01*
X24803700Y14832972D02*
X24946557Y14761543D01*
X24946557Y14761543D02*
X25017985Y14690115D01*
X25017985Y14690115D02*
X25089414Y14547257D01*
X25089414Y14547257D02*
X25089414Y14047257D01*
X25875128Y15547257D02*
X24375128Y15547257D01*
X25446557Y16190115D02*
X25446557Y16904401D01*
X25875128Y16047258D02*
X24375128Y16547258D01*
X24375128Y16547258D02*
X25875128Y17047258D01*
X25803700Y17475829D02*
X25875128Y17690115D01*
X25875128Y17690115D02*
X25875128Y18047257D01*
X25875128Y18047257D02*
X25803700Y18190115D01*
X25803700Y18190115D02*
X25732271Y18261543D01*
X25732271Y18261543D02*
X25589414Y18332972D01*
X25589414Y18332972D02*
X25446557Y18332972D01*
X25446557Y18332972D02*
X25303700Y18261543D01*
X25303700Y18261543D02*
X25232271Y18190115D01*
X25232271Y18190115D02*
X25160842Y18047257D01*
X25160842Y18047257D02*
X25089414Y17761543D01*
X25089414Y17761543D02*
X25017985Y17618686D01*
X25017985Y17618686D02*
X24946557Y17547257D01*
X24946557Y17547257D02*
X24803700Y17475829D01*
X24803700Y17475829D02*
X24660842Y17475829D01*
X24660842Y17475829D02*
X24517985Y17547257D01*
X24517985Y17547257D02*
X24446557Y17618686D01*
X24446557Y17618686D02*
X24375128Y17761543D01*
X24375128Y17761543D02*
X24375128Y18118686D01*
X24375128Y18118686D02*
X24446557Y18332972D01*
X23222971Y6017728D02*
X23151543Y5946300D01*
X23151543Y5946300D02*
X22937257Y5874871D01*
X22937257Y5874871D02*
X22794400Y5874871D01*
X22794400Y5874871D02*
X22580114Y5946300D01*
X22580114Y5946300D02*
X22437257Y6089157D01*
X22437257Y6089157D02*
X22365828Y6232014D01*
X22365828Y6232014D02*
X22294400Y6517728D01*
X22294400Y6517728D02*
X22294400Y6732014D01*
X22294400Y6732014D02*
X22365828Y7017728D01*
X22365828Y7017728D02*
X22437257Y7160585D01*
X22437257Y7160585D02*
X22580114Y7303442D01*
X22580114Y7303442D02*
X22794400Y7374871D01*
X22794400Y7374871D02*
X22937257Y7374871D01*
X22937257Y7374871D02*
X23151543Y7303442D01*
X23151543Y7303442D02*
X23222971Y7232014D01*
X24651543Y7303442D02*
X24508686Y7374871D01*
X24508686Y7374871D02*
X24294400Y7374871D01*
X24294400Y7374871D02*
X24080114Y7303442D01*
X24080114Y7303442D02*
X23937257Y7160585D01*
X23937257Y7160585D02*
X23865828Y7017728D01*
X23865828Y7017728D02*
X23794400Y6732014D01*
X23794400Y6732014D02*
X23794400Y6517728D01*
X23794400Y6517728D02*
X23865828Y6232014D01*
X23865828Y6232014D02*
X23937257Y6089157D01*
X23937257Y6089157D02*
X24080114Y5946300D01*
X24080114Y5946300D02*
X24294400Y5874871D01*
X24294400Y5874871D02*
X24437257Y5874871D01*
X24437257Y5874871D02*
X24651543Y5946300D01*
X24651543Y5946300D02*
X24722971Y6017728D01*
X24722971Y6017728D02*
X24722971Y6517728D01*
X24722971Y6517728D02*
X24437257Y6517728D01*
X25365828Y5874871D02*
X25365828Y7374871D01*
X25365828Y7374871D02*
X26222971Y5874871D01*
X26222971Y5874871D02*
X26222971Y7374871D01*
X26937257Y5874871D02*
X26937257Y7374871D01*
X26937257Y7374871D02*
X27294400Y7374871D01*
X27294400Y7374871D02*
X27508686Y7303442D01*
X27508686Y7303442D02*
X27651543Y7160585D01*
X27651543Y7160585D02*
X27722972Y7017728D01*
X27722972Y7017728D02*
X27794400Y6732014D01*
X27794400Y6732014D02*
X27794400Y6517728D01*
X27794400Y6517728D02*
X27722972Y6232014D01*
X27722972Y6232014D02*
X27651543Y6089157D01*
X27651543Y6089157D02*
X27508686Y5946300D01*
X27508686Y5946300D02*
X27294400Y5874871D01*
X27294400Y5874871D02*
X26937257Y5874871D01*
X9468225Y30468242D02*
X9325368Y30539671D01*
X9325368Y30539671D02*
X9111082Y30539671D01*
X9111082Y30539671D02*
X8896796Y30468242D01*
X8896796Y30468242D02*
X8753939Y30325385D01*
X8753939Y30325385D02*
X8682510Y30182528D01*
X8682510Y30182528D02*
X8611082Y29896814D01*
X8611082Y29896814D02*
X8611082Y29682528D01*
X8611082Y29682528D02*
X8682510Y29396814D01*
X8682510Y29396814D02*
X8753939Y29253957D01*
X8753939Y29253957D02*
X8896796Y29111100D01*
X8896796Y29111100D02*
X9111082Y29039671D01*
X9111082Y29039671D02*
X9253939Y29039671D01*
X9253939Y29039671D02*
X9468225Y29111100D01*
X9468225Y29111100D02*
X9539653Y29182528D01*
X9539653Y29182528D02*
X9539653Y29682528D01*
X9539653Y29682528D02*
X9253939Y29682528D01*
X10182510Y29039671D02*
X10182510Y30539671D01*
X10182510Y30539671D02*
X11039653Y29039671D01*
X11039653Y29039671D02*
X11039653Y30539671D01*
X11753939Y29039671D02*
X11753939Y30539671D01*
X11753939Y30539671D02*
X12111082Y30539671D01*
X12111082Y30539671D02*
X12325368Y30468242D01*
X12325368Y30468242D02*
X12468225Y30325385D01*
X12468225Y30325385D02*
X12539654Y30182528D01*
X12539654Y30182528D02*
X12611082Y29896814D01*
X12611082Y29896814D02*
X12611082Y29682528D01*
X12611082Y29682528D02*
X12539654Y29396814D01*
X12539654Y29396814D02*
X12468225Y29253957D01*
X12468225Y29253957D02*
X12325368Y29111100D01*
X12325368Y29111100D02*
X12111082Y29039671D01*
X12111082Y29039671D02*
X11753939Y29039671D01*
X32973489Y27030900D02*
X31830632Y27030900D01*
X32973489Y24744900D02*
X31830632Y24744900D01*
X32402060Y25316328D02*
X32402060Y24173471D01*
X10026629Y3717271D02*
X10026629Y2645842D01*
X10026629Y2645842D02*
X9955200Y2431557D01*
X9955200Y2431557D02*
X9812343Y2288700D01*
X9812343Y2288700D02*
X9598057Y2217271D01*
X9598057Y2217271D02*
X9455200Y2217271D01*
X10669486Y2645842D02*
X11383772Y2645842D01*
X10526629Y2217271D02*
X11026629Y3717271D01*
X11026629Y3717271D02*
X11526629Y2217271D01*
X12883771Y2360128D02*
X12812343Y2288700D01*
X12812343Y2288700D02*
X12598057Y2217271D01*
X12598057Y2217271D02*
X12455200Y2217271D01*
X12455200Y2217271D02*
X12240914Y2288700D01*
X12240914Y2288700D02*
X12098057Y2431557D01*
X12098057Y2431557D02*
X12026628Y2574414D01*
X12026628Y2574414D02*
X11955200Y2860128D01*
X11955200Y2860128D02*
X11955200Y3074414D01*
X11955200Y3074414D02*
X12026628Y3360128D01*
X12026628Y3360128D02*
X12098057Y3502985D01*
X12098057Y3502985D02*
X12240914Y3645842D01*
X12240914Y3645842D02*
X12455200Y3717271D01*
X12455200Y3717271D02*
X12598057Y3717271D01*
X12598057Y3717271D02*
X12812343Y3645842D01*
X12812343Y3645842D02*
X12883771Y3574414D01*
X13526628Y2217271D02*
X13526628Y3717271D01*
X13526628Y3002985D02*
X14383771Y3002985D01*
X14383771Y2217271D02*
X14383771Y3717271D01*
X15383772Y3717271D02*
X15669486Y3717271D01*
X15669486Y3717271D02*
X15812343Y3645842D01*
X15812343Y3645842D02*
X15955200Y3502985D01*
X15955200Y3502985D02*
X16026629Y3217271D01*
X16026629Y3217271D02*
X16026629Y2717271D01*
X16026629Y2717271D02*
X15955200Y2431557D01*
X15955200Y2431557D02*
X15812343Y2288700D01*
X15812343Y2288700D02*
X15669486Y2217271D01*
X15669486Y2217271D02*
X15383772Y2217271D01*
X15383772Y2217271D02*
X15240915Y2288700D01*
X15240915Y2288700D02*
X15098057Y2431557D01*
X15098057Y2431557D02*
X15026629Y2717271D01*
X15026629Y2717271D02*
X15026629Y3217271D01*
X15026629Y3217271D02*
X15098057Y3502985D01*
X15098057Y3502985D02*
X15240915Y3645842D01*
X15240915Y3645842D02*
X15383772Y3717271D01*
X17740915Y3574414D02*
X17812343Y3645842D01*
X17812343Y3645842D02*
X17955201Y3717271D01*
X17955201Y3717271D02*
X18312343Y3717271D01*
X18312343Y3717271D02*
X18455201Y3645842D01*
X18455201Y3645842D02*
X18526629Y3574414D01*
X18526629Y3574414D02*
X18598058Y3431557D01*
X18598058Y3431557D02*
X18598058Y3288700D01*
X18598058Y3288700D02*
X18526629Y3074414D01*
X18526629Y3074414D02*
X17669486Y2217271D01*
X17669486Y2217271D02*
X18598058Y2217271D01*
X19526629Y3717271D02*
X19669486Y3717271D01*
X19669486Y3717271D02*
X19812343Y3645842D01*
X19812343Y3645842D02*
X19883772Y3574414D01*
X19883772Y3574414D02*
X19955200Y3431557D01*
X19955200Y3431557D02*
X20026629Y3145842D01*
X20026629Y3145842D02*
X20026629Y2788700D01*
X20026629Y2788700D02*
X19955200Y2502985D01*
X19955200Y2502985D02*
X19883772Y2360128D01*
X19883772Y2360128D02*
X19812343Y2288700D01*
X19812343Y2288700D02*
X19669486Y2217271D01*
X19669486Y2217271D02*
X19526629Y2217271D01*
X19526629Y2217271D02*
X19383772Y2288700D01*
X19383772Y2288700D02*
X19312343Y2360128D01*
X19312343Y2360128D02*
X19240914Y2502985D01*
X19240914Y2502985D02*
X19169486Y2788700D01*
X19169486Y2788700D02*
X19169486Y3145842D01*
X19169486Y3145842D02*
X19240914Y3431557D01*
X19240914Y3431557D02*
X19312343Y3574414D01*
X19312343Y3574414D02*
X19383772Y3645842D01*
X19383772Y3645842D02*
X19526629Y3717271D01*
X21455200Y2217271D02*
X20598057Y2217271D01*
X21026628Y2217271D02*
X21026628Y3717271D01*
X21026628Y3717271D02*
X20883771Y3502985D01*
X20883771Y3502985D02*
X20740914Y3360128D01*
X20740914Y3360128D02*
X20598057Y3288700D01*
X21955199Y3717271D02*
X22955199Y3717271D01*
X22955199Y3717271D02*
X22312342Y2217271D01*
X8682510Y13355100D02*
X9825368Y13355100D01*
X9253939Y12783671D02*
X9253939Y13926528D01*
X23273771Y34059328D02*
X23202343Y33987900D01*
X23202343Y33987900D02*
X22988057Y33916471D01*
X22988057Y33916471D02*
X22845200Y33916471D01*
X22845200Y33916471D02*
X22630914Y33987900D01*
X22630914Y33987900D02*
X22488057Y34130757D01*
X22488057Y34130757D02*
X22416628Y34273614D01*
X22416628Y34273614D02*
X22345200Y34559328D01*
X22345200Y34559328D02*
X22345200Y34773614D01*
X22345200Y34773614D02*
X22416628Y35059328D01*
X22416628Y35059328D02*
X22488057Y35202185D01*
X22488057Y35202185D02*
X22630914Y35345042D01*
X22630914Y35345042D02*
X22845200Y35416471D01*
X22845200Y35416471D02*
X22988057Y35416471D01*
X22988057Y35416471D02*
X23202343Y35345042D01*
X23202343Y35345042D02*
X23273771Y35273614D01*
X24702343Y35345042D02*
X24559486Y35416471D01*
X24559486Y35416471D02*
X24345200Y35416471D01*
X24345200Y35416471D02*
X24130914Y35345042D01*
X24130914Y35345042D02*
X23988057Y35202185D01*
X23988057Y35202185D02*
X23916628Y35059328D01*
X23916628Y35059328D02*
X23845200Y34773614D01*
X23845200Y34773614D02*
X23845200Y34559328D01*
X23845200Y34559328D02*
X23916628Y34273614D01*
X23916628Y34273614D02*
X23988057Y34130757D01*
X23988057Y34130757D02*
X24130914Y33987900D01*
X24130914Y33987900D02*
X24345200Y33916471D01*
X24345200Y33916471D02*
X24488057Y33916471D01*
X24488057Y33916471D02*
X24702343Y33987900D01*
X24702343Y33987900D02*
X24773771Y34059328D01*
X24773771Y34059328D02*
X24773771Y34559328D01*
X24773771Y34559328D02*
X24488057Y34559328D01*
X25416628Y33916471D02*
X25416628Y35416471D01*
X25416628Y35416471D02*
X26273771Y33916471D01*
X26273771Y33916471D02*
X26273771Y35416471D01*
X26988057Y33916471D02*
X26988057Y35416471D01*
X26988057Y35416471D02*
X27345200Y35416471D01*
X27345200Y35416471D02*
X27559486Y35345042D01*
X27559486Y35345042D02*
X27702343Y35202185D01*
X27702343Y35202185D02*
X27773772Y35059328D01*
X27773772Y35059328D02*
X27845200Y34773614D01*
X27845200Y34773614D02*
X27845200Y34559328D01*
X27845200Y34559328D02*
X27773772Y34273614D01*
X27773772Y34273614D02*
X27702343Y34130757D01*
X27702343Y34130757D02*
X27559486Y33987900D01*
X27559486Y33987900D02*
X27345200Y33916471D01*
X27345200Y33916471D02*
X26988057Y33916471D01*
X16934328Y17014571D02*
X15434328Y17014571D01*
X15434328Y17014571D02*
X16505757Y17514571D01*
X16505757Y17514571D02*
X15434328Y18014571D01*
X15434328Y18014571D02*
X16934328Y18014571D01*
X16934328Y19443143D02*
X16934328Y18728857D01*
X16934328Y18728857D02*
X15434328Y18728857D01*
X16505757Y19871715D02*
X16505757Y20586001D01*
X16934328Y19728858D02*
X15434328Y20228858D01*
X15434328Y20228858D02*
X16934328Y20728858D01*
X16148614Y21728857D02*
X16220042Y21943143D01*
X16220042Y21943143D02*
X16291471Y22014572D01*
X16291471Y22014572D02*
X16434328Y22086000D01*
X16434328Y22086000D02*
X16648614Y22086000D01*
X16648614Y22086000D02*
X16791471Y22014572D01*
X16791471Y22014572D02*
X16862900Y21943143D01*
X16862900Y21943143D02*
X16934328Y21800286D01*
X16934328Y21800286D02*
X16934328Y21228857D01*
X16934328Y21228857D02*
X15434328Y21228857D01*
X15434328Y21228857D02*
X15434328Y21728857D01*
X15434328Y21728857D02*
X15505757Y21871715D01*
X15505757Y21871715D02*
X15577185Y21943143D01*
X15577185Y21943143D02*
X15720042Y22014572D01*
X15720042Y22014572D02*
X15862900Y22014572D01*
X15862900Y22014572D02*
X16005757Y21943143D01*
X16005757Y21943143D02*
X16077185Y21871715D01*
X16077185Y21871715D02*
X16148614Y21728857D01*
X16148614Y21728857D02*
X16148614Y21228857D01*
X16791471Y22728857D02*
X16862900Y22800286D01*
X16862900Y22800286D02*
X16934328Y22728857D01*
X16934328Y22728857D02*
X16862900Y22657429D01*
X16862900Y22657429D02*
X16791471Y22728857D01*
X16791471Y22728857D02*
X16934328Y22728857D01*
X16791471Y24300286D02*
X16862900Y24228858D01*
X16862900Y24228858D02*
X16934328Y24014572D01*
X16934328Y24014572D02*
X16934328Y23871715D01*
X16934328Y23871715D02*
X16862900Y23657429D01*
X16862900Y23657429D02*
X16720042Y23514572D01*
X16720042Y23514572D02*
X16577185Y23443143D01*
X16577185Y23443143D02*
X16291471Y23371715D01*
X16291471Y23371715D02*
X16077185Y23371715D01*
X16077185Y23371715D02*
X15791471Y23443143D01*
X15791471Y23443143D02*
X15648614Y23514572D01*
X15648614Y23514572D02*
X15505757Y23657429D01*
X15505757Y23657429D02*
X15434328Y23871715D01*
X15434328Y23871715D02*
X15434328Y24014572D01*
X15434328Y24014572D02*
X15505757Y24228858D01*
X15505757Y24228858D02*
X15577185Y24300286D01*
X15434328Y24800286D02*
X15434328Y25800286D01*
X15434328Y25800286D02*
X16934328Y24800286D01*
X16934328Y24800286D02*
X16934328Y25800286D01*
X32973489Y15854900D02*
X31830632Y15854900D01*
X8682510Y24531100D02*
X9825368Y24531100D01*
X9253939Y23959671D02*
X9253939Y25102528D01*
X8682510Y15895100D02*
X9825368Y15895100D01*
X8682510Y27071100D02*
X9825368Y27071100D01*
X9468225Y19292242D02*
X9325368Y19363671D01*
X9325368Y19363671D02*
X9111082Y19363671D01*
X9111082Y19363671D02*
X8896796Y19292242D01*
X8896796Y19292242D02*
X8753939Y19149385D01*
X8753939Y19149385D02*
X8682510Y19006528D01*
X8682510Y19006528D02*
X8611082Y18720814D01*
X8611082Y18720814D02*
X8611082Y18506528D01*
X8611082Y18506528D02*
X8682510Y18220814D01*
X8682510Y18220814D02*
X8753939Y18077957D01*
X8753939Y18077957D02*
X8896796Y17935100D01*
X8896796Y17935100D02*
X9111082Y17863671D01*
X9111082Y17863671D02*
X9253939Y17863671D01*
X9253939Y17863671D02*
X9468225Y17935100D01*
X9468225Y17935100D02*
X9539653Y18006528D01*
X9539653Y18006528D02*
X9539653Y18506528D01*
X9539653Y18506528D02*
X9253939Y18506528D01*
X10182510Y17863671D02*
X10182510Y19363671D01*
X10182510Y19363671D02*
X11039653Y17863671D01*
X11039653Y17863671D02*
X11039653Y19363671D01*
X11753939Y17863671D02*
X11753939Y19363671D01*
X11753939Y19363671D02*
X12111082Y19363671D01*
X12111082Y19363671D02*
X12325368Y19292242D01*
X12325368Y19292242D02*
X12468225Y19149385D01*
X12468225Y19149385D02*
X12539654Y19006528D01*
X12539654Y19006528D02*
X12611082Y18720814D01*
X12611082Y18720814D02*
X12611082Y18506528D01*
X12611082Y18506528D02*
X12539654Y18220814D01*
X12539654Y18220814D02*
X12468225Y18077957D01*
X12468225Y18077957D02*
X12325368Y17935100D01*
X12325368Y17935100D02*
X12111082Y17863671D01*
X12111082Y17863671D02*
X11753939Y17863671D01*
X9468225Y22848242D02*
X9325368Y22919671D01*
X9325368Y22919671D02*
X9111082Y22919671D01*
X9111082Y22919671D02*
X8896796Y22848242D01*
X8896796Y22848242D02*
X8753939Y22705385D01*
X8753939Y22705385D02*
X8682510Y22562528D01*
X8682510Y22562528D02*
X8611082Y22276814D01*
X8611082Y22276814D02*
X8611082Y22062528D01*
X8611082Y22062528D02*
X8682510Y21776814D01*
X8682510Y21776814D02*
X8753939Y21633957D01*
X8753939Y21633957D02*
X8896796Y21491100D01*
X8896796Y21491100D02*
X9111082Y21419671D01*
X9111082Y21419671D02*
X9253939Y21419671D01*
X9253939Y21419671D02*
X9468225Y21491100D01*
X9468225Y21491100D02*
X9539653Y21562528D01*
X9539653Y21562528D02*
X9539653Y22062528D01*
X9539653Y22062528D02*
X9253939Y22062528D01*
X10182510Y21419671D02*
X10182510Y22919671D01*
X10182510Y22919671D02*
X11039653Y21419671D01*
X11039653Y21419671D02*
X11039653Y22919671D01*
X11753939Y21419671D02*
X11753939Y22919671D01*
X11753939Y22919671D02*
X12111082Y22919671D01*
X12111082Y22919671D02*
X12325368Y22848242D01*
X12325368Y22848242D02*
X12468225Y22705385D01*
X12468225Y22705385D02*
X12539654Y22562528D01*
X12539654Y22562528D02*
X12611082Y22276814D01*
X12611082Y22276814D02*
X12611082Y22062528D01*
X12611082Y22062528D02*
X12539654Y21776814D01*
X12539654Y21776814D02*
X12468225Y21633957D01*
X12468225Y21633957D02*
X12325368Y21491100D01*
X12325368Y21491100D02*
X12111082Y21419671D01*
X12111082Y21419671D02*
X11753939Y21419671D01*
X29658328Y12017714D02*
X29658328Y12303428D01*
X29658328Y12303428D02*
X29729757Y12446285D01*
X29729757Y12446285D02*
X29872614Y12589142D01*
X29872614Y12589142D02*
X30158328Y12660571D01*
X30158328Y12660571D02*
X30658328Y12660571D01*
X30658328Y12660571D02*
X30944042Y12589142D01*
X30944042Y12589142D02*
X31086900Y12446285D01*
X31086900Y12446285D02*
X31158328Y12303428D01*
X31158328Y12303428D02*
X31158328Y12017714D01*
X31158328Y12017714D02*
X31086900Y11874857D01*
X31086900Y11874857D02*
X30944042Y11731999D01*
X30944042Y11731999D02*
X30658328Y11660571D01*
X30658328Y11660571D02*
X30158328Y11660571D01*
X30158328Y11660571D02*
X29872614Y11731999D01*
X29872614Y11731999D02*
X29729757Y11874857D01*
X29729757Y11874857D02*
X29658328Y12017714D01*
X29658328Y13303428D02*
X30872614Y13303428D01*
X30872614Y13303428D02*
X31015471Y13374857D01*
X31015471Y13374857D02*
X31086900Y13446286D01*
X31086900Y13446286D02*
X31158328Y13589143D01*
X31158328Y13589143D02*
X31158328Y13874857D01*
X31158328Y13874857D02*
X31086900Y14017714D01*
X31086900Y14017714D02*
X31015471Y14089143D01*
X31015471Y14089143D02*
X30872614Y14160571D01*
X30872614Y14160571D02*
X29658328Y14160571D01*
X29658328Y14660572D02*
X29658328Y15517715D01*
X31158328Y15089143D02*
X29658328Y15089143D01*
X30729757Y17089143D02*
X30729757Y17803429D01*
X31158328Y16946286D02*
X29658328Y17446286D01*
X29658328Y17446286D02*
X31158328Y17946286D01*
X2202328Y12731999D02*
X702328Y12731999D01*
X2202328Y13446285D02*
X702328Y13446285D01*
X702328Y13446285D02*
X2202328Y14303428D01*
X2202328Y14303428D02*
X702328Y14303428D01*
X1773757Y16089143D02*
X1773757Y16803429D01*
X2202328Y15946286D02*
X702328Y16446286D01*
X702328Y16446286D02*
X2202328Y16946286D01*
X32973489Y13314900D02*
X31830632Y13314900D01*
X32402060Y13886328D02*
X32402060Y12743471D01*
X19402900Y13363715D02*
X19474328Y13578001D01*
X19474328Y13578001D02*
X19474328Y13935143D01*
X19474328Y13935143D02*
X19402900Y14078001D01*
X19402900Y14078001D02*
X19331471Y14149429D01*
X19331471Y14149429D02*
X19188614Y14220858D01*
X19188614Y14220858D02*
X19045757Y14220858D01*
X19045757Y14220858D02*
X18902900Y14149429D01*
X18902900Y14149429D02*
X18831471Y14078001D01*
X18831471Y14078001D02*
X18760042Y13935143D01*
X18760042Y13935143D02*
X18688614Y13649429D01*
X18688614Y13649429D02*
X18617185Y13506572D01*
X18617185Y13506572D02*
X18545757Y13435143D01*
X18545757Y13435143D02*
X18402900Y13363715D01*
X18402900Y13363715D02*
X18260042Y13363715D01*
X18260042Y13363715D02*
X18117185Y13435143D01*
X18117185Y13435143D02*
X18045757Y13506572D01*
X18045757Y13506572D02*
X17974328Y13649429D01*
X17974328Y13649429D02*
X17974328Y14006572D01*
X17974328Y14006572D02*
X18045757Y14220858D01*
X18760042Y15149429D02*
X19474328Y15149429D01*
X17974328Y14649429D02*
X18760042Y15149429D01*
X18760042Y15149429D02*
X17974328Y15649429D01*
X19474328Y16149428D02*
X17974328Y16149428D01*
X17974328Y16149428D02*
X19045757Y16649428D01*
X19045757Y16649428D02*
X17974328Y17149428D01*
X17974328Y17149428D02*
X19474328Y17149428D01*
X17974328Y17649429D02*
X17974328Y18506572D01*
X19474328Y18078000D02*
X17974328Y18078000D01*
X19474328Y19863714D02*
X18760042Y19363714D01*
X19474328Y19006571D02*
X17974328Y19006571D01*
X17974328Y19006571D02*
X17974328Y19578000D01*
X17974328Y19578000D02*
X18045757Y19720857D01*
X18045757Y19720857D02*
X18117185Y19792286D01*
X18117185Y19792286D02*
X18260042Y19863714D01*
X18260042Y19863714D02*
X18474328Y19863714D01*
X18474328Y19863714D02*
X18617185Y19792286D01*
X18617185Y19792286D02*
X18688614Y19720857D01*
X18688614Y19720857D02*
X18760042Y19578000D01*
X18760042Y19578000D02*
X18760042Y19006571D01*
X19045757Y20435143D02*
X19045757Y21149429D01*
X19474328Y20292286D02*
X17974328Y20792286D01*
X17974328Y20792286D02*
X19474328Y21292286D01*
X19474328Y21792285D02*
X17974328Y21792285D01*
X17974328Y21792285D02*
X19474328Y22649428D01*
X19474328Y22649428D02*
X17974328Y22649428D01*
X19402900Y23292286D02*
X19474328Y23506572D01*
X19474328Y23506572D02*
X19474328Y23863714D01*
X19474328Y23863714D02*
X19402900Y24006572D01*
X19402900Y24006572D02*
X19331471Y24078000D01*
X19331471Y24078000D02*
X19188614Y24149429D01*
X19188614Y24149429D02*
X19045757Y24149429D01*
X19045757Y24149429D02*
X18902900Y24078000D01*
X18902900Y24078000D02*
X18831471Y24006572D01*
X18831471Y24006572D02*
X18760042Y23863714D01*
X18760042Y23863714D02*
X18688614Y23578000D01*
X18688614Y23578000D02*
X18617185Y23435143D01*
X18617185Y23435143D02*
X18545757Y23363714D01*
X18545757Y23363714D02*
X18402900Y23292286D01*
X18402900Y23292286D02*
X18260042Y23292286D01*
X18260042Y23292286D02*
X18117185Y23363714D01*
X18117185Y23363714D02*
X18045757Y23435143D01*
X18045757Y23435143D02*
X17974328Y23578000D01*
X17974328Y23578000D02*
X17974328Y23935143D01*
X17974328Y23935143D02*
X18045757Y24149429D01*
X17974328Y25078000D02*
X17974328Y25220857D01*
X17974328Y25220857D02*
X18045757Y25363714D01*
X18045757Y25363714D02*
X18117185Y25435143D01*
X18117185Y25435143D02*
X18260042Y25506571D01*
X18260042Y25506571D02*
X18545757Y25578000D01*
X18545757Y25578000D02*
X18902900Y25578000D01*
X18902900Y25578000D02*
X19188614Y25506571D01*
X19188614Y25506571D02*
X19331471Y25435143D01*
X19331471Y25435143D02*
X19402900Y25363714D01*
X19402900Y25363714D02*
X19474328Y25220857D01*
X19474328Y25220857D02*
X19474328Y25078000D01*
X19474328Y25078000D02*
X19402900Y24935143D01*
X19402900Y24935143D02*
X19331471Y24863714D01*
X19331471Y24863714D02*
X19188614Y24792285D01*
X19188614Y24792285D02*
X18902900Y24720857D01*
X18902900Y24720857D02*
X18545757Y24720857D01*
X18545757Y24720857D02*
X18260042Y24792285D01*
X18260042Y24792285D02*
X18117185Y24863714D01*
X18117185Y24863714D02*
X18045757Y24935143D01*
X18045757Y24935143D02*
X17974328Y25078000D01*
X19474328Y27006571D02*
X19474328Y26149428D01*
X19474328Y26577999D02*
X17974328Y26577999D01*
X17974328Y26577999D02*
X18188614Y26435142D01*
X18188614Y26435142D02*
X18331471Y26292285D01*
X18331471Y26292285D02*
X18402900Y26149428D01*
X19045757Y27577999D02*
X19045757Y28292285D01*
X19474328Y27435142D02*
X17974328Y27935142D01*
X17974328Y27935142D02*
X19474328Y28435142D01*
X9468225Y11672242D02*
X9325368Y11743671D01*
X9325368Y11743671D02*
X9111082Y11743671D01*
X9111082Y11743671D02*
X8896796Y11672242D01*
X8896796Y11672242D02*
X8753939Y11529385D01*
X8753939Y11529385D02*
X8682510Y11386528D01*
X8682510Y11386528D02*
X8611082Y11100814D01*
X8611082Y11100814D02*
X8611082Y10886528D01*
X8611082Y10886528D02*
X8682510Y10600814D01*
X8682510Y10600814D02*
X8753939Y10457957D01*
X8753939Y10457957D02*
X8896796Y10315100D01*
X8896796Y10315100D02*
X9111082Y10243671D01*
X9111082Y10243671D02*
X9253939Y10243671D01*
X9253939Y10243671D02*
X9468225Y10315100D01*
X9468225Y10315100D02*
X9539653Y10386528D01*
X9539653Y10386528D02*
X9539653Y10886528D01*
X9539653Y10886528D02*
X9253939Y10886528D01*
X10182510Y10243671D02*
X10182510Y11743671D01*
X10182510Y11743671D02*
X11039653Y10243671D01*
X11039653Y10243671D02*
X11039653Y11743671D01*
X11753939Y10243671D02*
X11753939Y11743671D01*
X11753939Y11743671D02*
X12111082Y11743671D01*
X12111082Y11743671D02*
X12325368Y11672242D01*
X12325368Y11672242D02*
X12468225Y11529385D01*
X12468225Y11529385D02*
X12539654Y11386528D01*
X12539654Y11386528D02*
X12611082Y11100814D01*
X12611082Y11100814D02*
X12611082Y10886528D01*
X12611082Y10886528D02*
X12539654Y10600814D01*
X12539654Y10600814D02*
X12468225Y10457957D01*
X12468225Y10457957D02*
X12325368Y10315100D01*
X12325368Y10315100D02*
X12111082Y10243671D01*
X12111082Y10243671D02*
X11753939Y10243671D01*
X2202328Y23800856D02*
X702328Y23800856D01*
X2202328Y24515142D02*
X702328Y24515142D01*
X702328Y24515142D02*
X2202328Y25372285D01*
X2202328Y25372285D02*
X702328Y25372285D01*
X1416614Y27729428D02*
X1488042Y27943714D01*
X1488042Y27943714D02*
X1559471Y28015143D01*
X1559471Y28015143D02*
X1702328Y28086571D01*
X1702328Y28086571D02*
X1916614Y28086571D01*
X1916614Y28086571D02*
X2059471Y28015143D01*
X2059471Y28015143D02*
X2130900Y27943714D01*
X2130900Y27943714D02*
X2202328Y27800857D01*
X2202328Y27800857D02*
X2202328Y27229428D01*
X2202328Y27229428D02*
X702328Y27229428D01*
X702328Y27229428D02*
X702328Y27729428D01*
X702328Y27729428D02*
X773757Y27872286D01*
X773757Y27872286D02*
X845185Y27943714D01*
X845185Y27943714D02*
X988042Y28015143D01*
X988042Y28015143D02*
X1130900Y28015143D01*
X1130900Y28015143D02*
X1273757Y27943714D01*
X1273757Y27943714D02*
X1345185Y27872286D01*
X1345185Y27872286D02*
X1416614Y27729428D01*
X1416614Y27729428D02*
X1416614Y27229428D01*
X29658328Y23086571D02*
X29658328Y23372285D01*
X29658328Y23372285D02*
X29729757Y23515142D01*
X29729757Y23515142D02*
X29872614Y23657999D01*
X29872614Y23657999D02*
X30158328Y23729428D01*
X30158328Y23729428D02*
X30658328Y23729428D01*
X30658328Y23729428D02*
X30944042Y23657999D01*
X30944042Y23657999D02*
X31086900Y23515142D01*
X31086900Y23515142D02*
X31158328Y23372285D01*
X31158328Y23372285D02*
X31158328Y23086571D01*
X31158328Y23086571D02*
X31086900Y22943714D01*
X31086900Y22943714D02*
X30944042Y22800856D01*
X30944042Y22800856D02*
X30658328Y22729428D01*
X30658328Y22729428D02*
X30158328Y22729428D01*
X30158328Y22729428D02*
X29872614Y22800856D01*
X29872614Y22800856D02*
X29729757Y22943714D01*
X29729757Y22943714D02*
X29658328Y23086571D01*
X29658328Y24372285D02*
X30872614Y24372285D01*
X30872614Y24372285D02*
X31015471Y24443714D01*
X31015471Y24443714D02*
X31086900Y24515143D01*
X31086900Y24515143D02*
X31158328Y24658000D01*
X31158328Y24658000D02*
X31158328Y24943714D01*
X31158328Y24943714D02*
X31086900Y25086571D01*
X31086900Y25086571D02*
X31015471Y25158000D01*
X31015471Y25158000D02*
X30872614Y25229428D01*
X30872614Y25229428D02*
X29658328Y25229428D01*
X29658328Y25729429D02*
X29658328Y26586572D01*
X31158328Y26158000D02*
X29658328Y26158000D01*
X30372614Y28729428D02*
X30444042Y28943714D01*
X30444042Y28943714D02*
X30515471Y29015143D01*
X30515471Y29015143D02*
X30658328Y29086571D01*
X30658328Y29086571D02*
X30872614Y29086571D01*
X30872614Y29086571D02*
X31015471Y29015143D01*
X31015471Y29015143D02*
X31086900Y28943714D01*
X31086900Y28943714D02*
X31158328Y28800857D01*
X31158328Y28800857D02*
X31158328Y28229428D01*
X31158328Y28229428D02*
X29658328Y28229428D01*
X29658328Y28229428D02*
X29658328Y28729428D01*
X29658328Y28729428D02*
X29729757Y28872286D01*
X29729757Y28872286D02*
X29801185Y28943714D01*
X29801185Y28943714D02*
X29944042Y29015143D01*
X29944042Y29015143D02*
X30086900Y29015143D01*
X30086900Y29015143D02*
X30229757Y28943714D01*
X30229757Y28943714D02*
X30301185Y28872286D01*
X30301185Y28872286D02*
X30372614Y28729428D01*
X30372614Y28729428D02*
X30372614Y28229428D01*
X25140214Y23183257D02*
X25211642Y23397543D01*
X25211642Y23397543D02*
X25283071Y23468972D01*
X25283071Y23468972D02*
X25425928Y23540400D01*
X25425928Y23540400D02*
X25640214Y23540400D01*
X25640214Y23540400D02*
X25783071Y23468972D01*
X25783071Y23468972D02*
X25854500Y23397543D01*
X25854500Y23397543D02*
X25925928Y23254686D01*
X25925928Y23254686D02*
X25925928Y22683257D01*
X25925928Y22683257D02*
X24425928Y22683257D01*
X24425928Y22683257D02*
X24425928Y23183257D01*
X24425928Y23183257D02*
X24497357Y23326115D01*
X24497357Y23326115D02*
X24568785Y23397543D01*
X24568785Y23397543D02*
X24711642Y23468972D01*
X24711642Y23468972D02*
X24854500Y23468972D01*
X24854500Y23468972D02*
X24997357Y23397543D01*
X24997357Y23397543D02*
X25068785Y23326115D01*
X25068785Y23326115D02*
X25140214Y23183257D01*
X25140214Y23183257D02*
X25140214Y22683257D01*
X25925928Y24183257D02*
X24425928Y24183257D01*
X25497357Y24826115D02*
X25497357Y25540401D01*
X25925928Y24683258D02*
X24425928Y25183258D01*
X24425928Y25183258D02*
X25925928Y25683258D01*
X25854500Y26111829D02*
X25925928Y26326115D01*
X25925928Y26326115D02*
X25925928Y26683257D01*
X25925928Y26683257D02*
X25854500Y26826115D01*
X25854500Y26826115D02*
X25783071Y26897543D01*
X25783071Y26897543D02*
X25640214Y26968972D01*
X25640214Y26968972D02*
X25497357Y26968972D01*
X25497357Y26968972D02*
X25354500Y26897543D01*
X25354500Y26897543D02*
X25283071Y26826115D01*
X25283071Y26826115D02*
X25211642Y26683257D01*
X25211642Y26683257D02*
X25140214Y26397543D01*
X25140214Y26397543D02*
X25068785Y26254686D01*
X25068785Y26254686D02*
X24997357Y26183257D01*
X24997357Y26183257D02*
X24854500Y26111829D01*
X24854500Y26111829D02*
X24711642Y26111829D01*
X24711642Y26111829D02*
X24568785Y26183257D01*
X24568785Y26183257D02*
X24497357Y26254686D01*
X24497357Y26254686D02*
X24425928Y26397543D01*
X24425928Y26397543D02*
X24425928Y26754686D01*
X24425928Y26754686D02*
X24497357Y26968972D01*
D11*
X2301857Y18313290D02*
X2016143Y18313290D01*
X2159000Y18313290D02*
X2159000Y18813290D01*
X2159000Y18813290D02*
X2111381Y18741861D01*
X2111381Y18741861D02*
X2063762Y18694242D01*
X2063762Y18694242D02*
X2016143Y18670433D01*
X2301857Y29489290D02*
X2016143Y29489290D01*
X2159000Y29489290D02*
X2159000Y29989290D01*
X2159000Y29989290D02*
X2111381Y29917861D01*
X2111381Y29917861D02*
X2063762Y29870242D01*
X2063762Y29870242D02*
X2016143Y29846433D01*
X33797857Y18313290D02*
X33512143Y18313290D01*
X33655000Y18313290D02*
X33655000Y18813290D01*
X33655000Y18813290D02*
X33607381Y18741861D01*
X33607381Y18741861D02*
X33559762Y18694242D01*
X33559762Y18694242D02*
X33512143Y18670433D01*
X33797857Y29489290D02*
X33512143Y29489290D01*
X33655000Y29489290D02*
X33655000Y29989290D01*
X33655000Y29989290D02*
X33607381Y29917861D01*
X33607381Y29917861D02*
X33559762Y29870242D01*
X33559762Y29870242D02*
X33512143Y29846433D01*
D12*
%TO.C,J1*%
X2540000Y19812000D02*
X7620000Y19812000D01*
X2540000Y9652000D02*
X2540000Y19812000D01*
X7620000Y19812000D02*
X7620000Y9652000D01*
X7620000Y9652000D02*
X2540000Y9652000D01*
%TO.C,J2*%
X2540000Y30988000D02*
X7620000Y30988000D01*
X2540000Y20828000D02*
X2540000Y30988000D01*
X7620000Y30988000D02*
X7620000Y20828000D01*
X7620000Y20828000D02*
X2540000Y20828000D01*
%TO.C,J3*%
X25146000Y13208000D02*
X25146000Y8128000D01*
X22606000Y13208000D02*
X25146000Y13208000D01*
X25146000Y8128000D02*
X22606000Y8128000D01*
X22606000Y8128000D02*
X22606000Y13208000D01*
%TO.C,J4*%
X22606000Y27940000D02*
X22606000Y33020000D01*
X25146000Y27940000D02*
X22606000Y27940000D01*
X22606000Y33020000D02*
X25146000Y33020000D01*
X25146000Y33020000D02*
X25146000Y27940000D01*
%TO.C,J5*%
X27686000Y13208000D02*
X27686000Y8128000D01*
X25146000Y13208000D02*
X27686000Y13208000D01*
X27686000Y8128000D02*
X25146000Y8128000D01*
X25146000Y8128000D02*
X25146000Y13208000D01*
%TO.C,J6*%
X25146000Y27940000D02*
X25146000Y33020000D01*
X27686000Y27940000D02*
X25146000Y27940000D01*
X25146000Y33020000D02*
X27686000Y33020000D01*
X27686000Y33020000D02*
X27686000Y27940000D01*
%TO.C,J7*%
X34036000Y19812000D02*
X39116000Y19812000D01*
X34036000Y9652000D02*
X34036000Y19812000D01*
X39116000Y19812000D02*
X39116000Y9652000D01*
X39116000Y9652000D02*
X34036000Y9652000D01*
%TO.C,J8*%
X34036000Y30988000D02*
X39116000Y30988000D01*
X34036000Y20828000D02*
X34036000Y30988000D01*
X39116000Y30988000D02*
X39116000Y20828000D01*
X39116000Y20828000D02*
X34036000Y20828000D01*
%TD*%
D13*
%TO.C,J1*%
X3810000Y18542000D03*
X6350000Y18542000D03*
X3810000Y16002000D03*
X6350000Y16002000D03*
X3810000Y13462000D03*
X6350000Y13462000D03*
X3810000Y10922000D03*
X6350000Y10922000D03*
%TD*%
%TO.C,J2*%
X3810000Y29718000D03*
X6350000Y29718000D03*
X3810000Y27178000D03*
X6350000Y27178000D03*
X3810000Y24638000D03*
X6350000Y24638000D03*
X3810000Y22098000D03*
X6350000Y22098000D03*
%TD*%
%TO.C,J3*%
X23876000Y11938000D03*
X23876000Y9398000D03*
%TD*%
%TO.C,J4*%
X23876000Y29210000D03*
X23876000Y31750000D03*
%TD*%
%TO.C,J5*%
X26416000Y11938000D03*
X26416000Y9398000D03*
%TD*%
%TO.C,J6*%
X26416000Y29210000D03*
X26416000Y31750000D03*
%TD*%
%TO.C,J7*%
X35306000Y18542000D03*
X37846000Y18542000D03*
X35306000Y16002000D03*
X37846000Y16002000D03*
X35306000Y13462000D03*
X37846000Y13462000D03*
X35306000Y10922000D03*
X37846000Y10922000D03*
%TD*%
%TO.C,J8*%
X35306000Y29718000D03*
X37846000Y29718000D03*
X35306000Y27178000D03*
X37846000Y27178000D03*
X35306000Y24638000D03*
X37846000Y24638000D03*
X35306000Y22098000D03*
X37846000Y22098000D03*
%TD*%
M02*
