%TF.GenerationSoftware,KiCad,Pcbnew,7.0.7-7.0.7~ubuntu23.04.1*%
%TF.CreationDate,2023-09-17T09:09:24+00:00*%
%TF.ProjectId,SYMTRANS01,53594d54-5241-44e5-9330-312e6b696361,REV*%
%TF.SameCoordinates,Original*%
%TF.FileFunction,Copper,L2,Bot*%
%TF.FilePolarity,Positive*%
%FSLAX46Y46*%
G04 Gerber Fmt 4.6, Leading zero omitted, Abs format (unit mm)*
G04 Created by KiCad (PCBNEW 7.0.7-7.0.7~ubuntu23.04.1) date 2023-09-17 09:09:24*
%MOMM*%
%LPD*%
G01*
G04 APERTURE LIST*
%ADD10C,0.300000*%
%TA.AperFunction,NonConductor*%
%ADD11C,0.300000*%
%TD*%
%TA.AperFunction,ComponentPad*%
%ADD12R,1.524000X1.524000*%
%TD*%
%TA.AperFunction,ComponentPad*%
%ADD13C,6.000000*%
%TD*%
%TA.AperFunction,SMDPad,CuDef*%
%ADD14R,1.397000X0.889000*%
%TD*%
%TA.AperFunction,SMDPad,CuDef*%
%ADD15R,0.889000X1.397000*%
%TD*%
%TA.AperFunction,SMDPad,CuDef*%
%ADD16R,2.920000X0.760000*%
%TD*%
%TA.AperFunction,Conductor*%
%ADD17C,0.500000*%
%TD*%
G04 APERTURE END LIST*
D10*
D11*
X19053428Y6941671D02*
X19053428Y8441671D01*
X19053428Y8441671D02*
X18553428Y7370242D01*
X18553428Y7370242D02*
X18053428Y8441671D01*
X18053428Y8441671D02*
X18053428Y6941671D01*
X16624856Y6941671D02*
X17339142Y6941671D01*
X17339142Y6941671D02*
X17339142Y8441671D01*
X16196284Y7370242D02*
X15481999Y7370242D01*
X16339141Y6941671D02*
X15839141Y8441671D01*
X15839141Y8441671D02*
X15339141Y6941671D01*
X14339142Y7727385D02*
X14124856Y7655957D01*
X14124856Y7655957D02*
X14053427Y7584528D01*
X14053427Y7584528D02*
X13981999Y7441671D01*
X13981999Y7441671D02*
X13981999Y7227385D01*
X13981999Y7227385D02*
X14053427Y7084528D01*
X14053427Y7084528D02*
X14124856Y7013100D01*
X14124856Y7013100D02*
X14267713Y6941671D01*
X14267713Y6941671D02*
X14839142Y6941671D01*
X14839142Y6941671D02*
X14839142Y8441671D01*
X14839142Y8441671D02*
X14339142Y8441671D01*
X14339142Y8441671D02*
X14196285Y8370242D01*
X14196285Y8370242D02*
X14124856Y8298814D01*
X14124856Y8298814D02*
X14053427Y8155957D01*
X14053427Y8155957D02*
X14053427Y8013100D01*
X14053427Y8013100D02*
X14124856Y7870242D01*
X14124856Y7870242D02*
X14196285Y7798814D01*
X14196285Y7798814D02*
X14339142Y7727385D01*
X14339142Y7727385D02*
X14839142Y7727385D01*
X13339142Y7084528D02*
X13267713Y7013100D01*
X13267713Y7013100D02*
X13339142Y6941671D01*
X13339142Y6941671D02*
X13410570Y7013100D01*
X13410570Y7013100D02*
X13339142Y7084528D01*
X13339142Y7084528D02*
X13339142Y6941671D01*
X11767713Y7084528D02*
X11839141Y7013100D01*
X11839141Y7013100D02*
X12053427Y6941671D01*
X12053427Y6941671D02*
X12196284Y6941671D01*
X12196284Y6941671D02*
X12410570Y7013100D01*
X12410570Y7013100D02*
X12553427Y7155957D01*
X12553427Y7155957D02*
X12624856Y7298814D01*
X12624856Y7298814D02*
X12696284Y7584528D01*
X12696284Y7584528D02*
X12696284Y7798814D01*
X12696284Y7798814D02*
X12624856Y8084528D01*
X12624856Y8084528D02*
X12553427Y8227385D01*
X12553427Y8227385D02*
X12410570Y8370242D01*
X12410570Y8370242D02*
X12196284Y8441671D01*
X12196284Y8441671D02*
X12053427Y8441671D01*
X12053427Y8441671D02*
X11839141Y8370242D01*
X11839141Y8370242D02*
X11767713Y8298814D01*
X11267713Y8441671D02*
X10267713Y8441671D01*
X10267713Y8441671D02*
X11267713Y6941671D01*
X11267713Y6941671D02*
X10267713Y6941671D01*
D10*
D11*
X17303427Y5250814D02*
X17231999Y5322242D01*
X17231999Y5322242D02*
X17089142Y5393671D01*
X17089142Y5393671D02*
X16731999Y5393671D01*
X16731999Y5393671D02*
X16589142Y5322242D01*
X16589142Y5322242D02*
X16517713Y5250814D01*
X16517713Y5250814D02*
X16446284Y5107957D01*
X16446284Y5107957D02*
X16446284Y4965100D01*
X16446284Y4965100D02*
X16517713Y4750814D01*
X16517713Y4750814D02*
X17374856Y3893671D01*
X17374856Y3893671D02*
X16446284Y3893671D01*
X15517713Y5393671D02*
X15374856Y5393671D01*
X15374856Y5393671D02*
X15231999Y5322242D01*
X15231999Y5322242D02*
X15160571Y5250814D01*
X15160571Y5250814D02*
X15089142Y5107957D01*
X15089142Y5107957D02*
X15017713Y4822242D01*
X15017713Y4822242D02*
X15017713Y4465100D01*
X15017713Y4465100D02*
X15089142Y4179385D01*
X15089142Y4179385D02*
X15160571Y4036528D01*
X15160571Y4036528D02*
X15231999Y3965100D01*
X15231999Y3965100D02*
X15374856Y3893671D01*
X15374856Y3893671D02*
X15517713Y3893671D01*
X15517713Y3893671D02*
X15660571Y3965100D01*
X15660571Y3965100D02*
X15731999Y4036528D01*
X15731999Y4036528D02*
X15803428Y4179385D01*
X15803428Y4179385D02*
X15874856Y4465100D01*
X15874856Y4465100D02*
X15874856Y4822242D01*
X15874856Y4822242D02*
X15803428Y5107957D01*
X15803428Y5107957D02*
X15731999Y5250814D01*
X15731999Y5250814D02*
X15660571Y5322242D01*
X15660571Y5322242D02*
X15517713Y5393671D01*
X13589142Y3893671D02*
X14446285Y3893671D01*
X14017714Y3893671D02*
X14017714Y5393671D01*
X14017714Y5393671D02*
X14160571Y5179385D01*
X14160571Y5179385D02*
X14303428Y5036528D01*
X14303428Y5036528D02*
X14446285Y4965100D01*
X13089143Y5393671D02*
X12089143Y5393671D01*
X12089143Y5393671D02*
X12732000Y3893671D01*
D12*
%TO.P,J1,1*%
%TO.N,GND*%
X3810000Y18542000D03*
%TO.P,J1,2*%
X6350000Y18542000D03*
%TO.P,J1,3*%
%TO.N,/AIN-*%
X3810000Y16002000D03*
%TO.P,J1,4*%
X6350000Y16002000D03*
%TO.P,J1,5*%
%TO.N,/AIN+*%
X3810000Y13462000D03*
%TO.P,J1,6*%
X6350000Y13462000D03*
%TO.P,J1,7*%
%TO.N,GND*%
X3810000Y10922000D03*
%TO.P,J1,8*%
X6350000Y10922000D03*
%TD*%
%TO.P,J2,1*%
%TO.N,GND*%
X3810000Y29718000D03*
%TO.P,J2,2*%
X6350000Y29718000D03*
%TO.P,J2,3*%
%TO.N,/BIN-*%
X3810000Y27178000D03*
%TO.P,J2,4*%
X6350000Y27178000D03*
%TO.P,J2,5*%
%TO.N,/BIN+*%
X3810000Y24638000D03*
%TO.P,J2,6*%
X6350000Y24638000D03*
%TO.P,J2,7*%
%TO.N,GND*%
X3810000Y22098000D03*
%TO.P,J2,8*%
X6350000Y22098000D03*
%TD*%
%TO.P,J3,1*%
%TO.N,Net-(J3-Pad1)*%
X23876000Y11938000D03*
%TO.P,J3,2*%
%TO.N,Net-(J3-Pad2)*%
X23876000Y9398000D03*
%TD*%
%TO.P,J4,1*%
%TO.N,Net-(J4-Pad1)*%
X23876000Y29210000D03*
%TO.P,J4,2*%
%TO.N,Net-(J4-Pad2)*%
X23876000Y31750000D03*
%TD*%
%TO.P,J5,1*%
%TO.N,Net-(J5-Pad1)*%
X26416000Y11938000D03*
%TO.P,J5,2*%
%TO.N,Net-(J5-Pad2)*%
X26416000Y9398000D03*
%TD*%
%TO.P,J6,1*%
%TO.N,Net-(J6-Pad1)*%
X26416000Y29210000D03*
%TO.P,J6,2*%
%TO.N,Net-(J6-Pad2)*%
X26416000Y31750000D03*
%TD*%
%TO.P,J7,1*%
%TO.N,GNDA*%
X35306000Y18542000D03*
%TO.P,J7,2*%
X37846000Y18542000D03*
%TO.P,J7,3*%
%TO.N,/AOUT-*%
X35306000Y16002000D03*
%TO.P,J7,4*%
X37846000Y16002000D03*
%TO.P,J7,5*%
%TO.N,/AOUT+*%
X35306000Y13462000D03*
%TO.P,J7,6*%
X37846000Y13462000D03*
%TO.P,J7,7*%
%TO.N,GNDA*%
X35306000Y10922000D03*
%TO.P,J7,8*%
X37846000Y10922000D03*
%TD*%
%TO.P,J8,1*%
%TO.N,GNDA*%
X35306000Y29718000D03*
%TO.P,J8,2*%
X37846000Y29718000D03*
%TO.P,J8,3*%
%TO.N,/BOUT-*%
X35306000Y27178000D03*
%TO.P,J8,4*%
X37846000Y27178000D03*
%TO.P,J8,5*%
%TO.N,/BOUT+*%
X35306000Y24638000D03*
%TO.P,J8,6*%
X37846000Y24638000D03*
%TO.P,J8,7*%
%TO.N,GNDA*%
X35306000Y22098000D03*
%TO.P,J8,8*%
X37846000Y22098000D03*
%TD*%
D13*
%TO.P,M1,1*%
%TO.N,GND*%
X5080000Y35560000D03*
%TD*%
%TO.P,M2,1*%
%TO.N,GND*%
X35560000Y35560000D03*
%TD*%
%TO.P,M3,1*%
%TO.N,GND*%
X35560000Y5080000D03*
%TD*%
%TO.P,M4,1*%
%TO.N,GND*%
X5080000Y5080000D03*
%TD*%
D14*
%TO.P,C1,1*%
%TO.N,Net-(C1-Pad1)*%
X23876000Y4000500D03*
%TO.P,C1,2*%
%TO.N,GND*%
X23876000Y2095500D03*
%TD*%
%TO.P,C2,1*%
%TO.N,Net-(C2-Pad1)*%
X23876000Y36639500D03*
%TO.P,C2,2*%
%TO.N,GND*%
X23876000Y38544500D03*
%TD*%
%TO.P,C3,1*%
%TO.N,Net-(C3-Pad1)*%
X26416000Y4000500D03*
%TO.P,C3,2*%
%TO.N,GNDA*%
X26416000Y2095500D03*
%TD*%
%TO.P,C4,1*%
%TO.N,Net-(C4-Pad1)*%
X26416000Y36639500D03*
%TO.P,C4,2*%
%TO.N,GNDA*%
X26416000Y38544500D03*
%TD*%
D15*
%TO.P,R1,1*%
%TO.N,Net-(J3-Pad2)*%
X21907500Y6096000D03*
%TO.P,R1,2*%
%TO.N,Net-(C1-Pad1)*%
X23812500Y6096000D03*
%TD*%
%TO.P,R2,1*%
%TO.N,Net-(J4-Pad2)*%
X21907500Y34544000D03*
%TO.P,R2,2*%
%TO.N,Net-(C2-Pad1)*%
X23812500Y34544000D03*
%TD*%
%TO.P,R3,1*%
%TO.N,Net-(J5-Pad2)*%
X28384500Y6096000D03*
%TO.P,R3,2*%
%TO.N,Net-(C3-Pad1)*%
X26479500Y6096000D03*
%TD*%
%TO.P,R4,1*%
%TO.N,Net-(J6-Pad2)*%
X28384500Y34544000D03*
%TO.P,R4,2*%
%TO.N,Net-(C4-Pad1)*%
X26479500Y34544000D03*
%TD*%
%TO.P,R5,1*%
%TO.N,/B2+*%
X11468100Y24688800D03*
%TO.P,R5,2*%
%TO.N,/BIN+*%
X9563100Y24688800D03*
%TD*%
%TO.P,R6,1*%
%TO.N,/B2-*%
X11468100Y27127200D03*
%TO.P,R6,2*%
%TO.N,/BIN-*%
X9563100Y27127200D03*
%TD*%
%TO.P,R7,1*%
%TO.N,/A2+*%
X11417300Y13512800D03*
%TO.P,R7,2*%
%TO.N,/AIN+*%
X9512300Y13512800D03*
%TD*%
%TO.P,R8,1*%
%TO.N,/A2-*%
X11417300Y15951200D03*
%TO.P,R8,2*%
%TO.N,/AIN-*%
X9512300Y15951200D03*
%TD*%
D14*
%TO.P,R9,1*%
%TO.N,/B2+*%
X14376400Y24955500D03*
%TO.P,R9,2*%
%TO.N,/B2-*%
X14376400Y26860500D03*
%TD*%
%TO.P,R10,1*%
%TO.N,/A2+*%
X14325600Y13779500D03*
%TO.P,R10,2*%
%TO.N,/A2-*%
X14325600Y15684500D03*
%TD*%
D15*
%TO.P,R11,1*%
%TO.N,/B3+*%
X18923000Y24688800D03*
%TO.P,R11,2*%
%TO.N,/B2+*%
X17018000Y24688800D03*
%TD*%
%TO.P,R12,1*%
%TO.N,/B3-*%
X18923000Y27127200D03*
%TO.P,R12,2*%
%TO.N,/B2-*%
X17018000Y27127200D03*
%TD*%
%TO.P,R13,1*%
%TO.N,/A3+*%
X18872200Y13462000D03*
%TO.P,R13,2*%
%TO.N,/A2+*%
X16967200Y13462000D03*
%TD*%
%TO.P,R14,1*%
%TO.N,/A3-*%
X18872200Y16002000D03*
%TO.P,R14,2*%
%TO.N,/A2-*%
X16967200Y16002000D03*
%TD*%
D16*
%TO.P,TR1,1*%
%TO.N,/A3+*%
X23284000Y15860000D03*
%TO.P,TR1,2*%
%TO.N,Net-(J3-Pad1)*%
X23284000Y17130000D03*
%TO.P,TR1,3*%
%TO.N,/A3-*%
X23284000Y18400000D03*
%TO.P,TR1,4*%
%TO.N,N/C*%
X23284000Y19685000D03*
%TO.P,TR1,5*%
X23284000Y20955000D03*
%TO.P,TR1,6*%
%TO.N,/B3+*%
X23284000Y22240000D03*
%TO.P,TR1,7*%
%TO.N,Net-(J4-Pad1)*%
X23284000Y23510000D03*
%TO.P,TR1,8*%
%TO.N,/B3-*%
X23284000Y24780000D03*
%TO.P,TR1,9*%
%TO.N,/BOUT-*%
X30564000Y24780000D03*
%TO.P,TR1,10*%
%TO.N,Net-(J6-Pad1)*%
X30564000Y23510000D03*
%TO.P,TR1,11*%
%TO.N,/BOUT+*%
X30564000Y22240000D03*
%TO.P,TR1,12*%
%TO.N,N/C*%
X30564000Y20955000D03*
%TO.P,TR1,13*%
X30564000Y19685000D03*
%TO.P,TR1,14*%
%TO.N,/AOUT-*%
X30564000Y18400000D03*
%TO.P,TR1,15*%
%TO.N,Net-(J5-Pad1)*%
X30564000Y17130000D03*
%TO.P,TR1,16*%
%TO.N,/AOUT+*%
X30564000Y15860000D03*
%TD*%
D17*
%TO.N,Net-(C1-Pad1)*%
X23812500Y6096000D02*
X23812500Y4064000D01*
X23812500Y4064000D02*
X23876000Y4000500D01*
%TO.N,Net-(C2-Pad1)*%
X23812500Y34544000D02*
X23812500Y36576000D01*
X23812500Y36576000D02*
X23876000Y36639500D01*
%TO.N,Net-(C3-Pad1)*%
X26416000Y6032500D02*
X26479500Y6096000D01*
X26416000Y4000500D02*
X26416000Y6032500D01*
%TO.N,Net-(C4-Pad1)*%
X26479500Y36576000D02*
X26416000Y36639500D01*
X26479500Y34544000D02*
X26479500Y36576000D01*
%TO.N,Net-(J3-Pad1)*%
X25908000Y16764000D02*
X25542000Y17130000D01*
X23876000Y11938000D02*
X23876000Y13200000D01*
X25542000Y17130000D02*
X23284000Y17130000D01*
X25908000Y15232000D02*
X25908000Y16764000D01*
X23876000Y13200000D02*
X25908000Y15232000D01*
%TO.N,Net-(J3-Pad2)*%
X21907500Y6096000D02*
X21907500Y7429500D01*
X21907500Y7429500D02*
X23876000Y9398000D01*
%TO.N,Net-(J4-Pad1)*%
X26111200Y24377200D02*
X26111200Y25712800D01*
X23876000Y27948000D02*
X23876000Y29210000D01*
X23284000Y23510000D02*
X25244000Y23510000D01*
X25244000Y23510000D02*
X26111200Y24377200D01*
X26111200Y25712800D02*
X23876000Y27948000D01*
%TO.N,Net-(J4-Pad2)*%
X23876000Y32321500D02*
X21907500Y34290000D01*
X23876000Y31750000D02*
X23876000Y32321500D01*
X21907500Y34290000D02*
X21907500Y34544000D01*
%TO.N,Net-(J5-Pad1)*%
X27432000Y14224000D02*
X27432000Y15958000D01*
X28604000Y17130000D02*
X30564000Y17130000D01*
X26416000Y13208000D02*
X27432000Y14224000D01*
X26416000Y11938000D02*
X26416000Y13208000D01*
X27432000Y15958000D02*
X28604000Y17130000D01*
%TO.N,Net-(J5-Pad2)*%
X28384500Y7429500D02*
X26416000Y9398000D01*
X28384500Y6096000D02*
X28384500Y7429500D01*
%TO.N,Net-(J6-Pad1)*%
X27533600Y26314400D02*
X26416000Y27432000D01*
X30564000Y23510000D02*
X29183998Y23510000D01*
X26416000Y27432000D02*
X26416000Y29210000D01*
X29183998Y23510000D02*
X27533600Y25160398D01*
X27533600Y25160398D02*
X27533600Y26314400D01*
%TO.N,Net-(J6-Pad2)*%
X26416000Y32575500D02*
X28384500Y34544000D01*
X26416000Y31750000D02*
X26416000Y32575500D01*
%TO.N,/AIN-*%
X3810000Y16002000D02*
X6350000Y16002000D01*
X7645350Y15132000D02*
X8464550Y15951200D01*
X7220001Y15131999D02*
X7645350Y15132000D01*
X8464550Y15951200D02*
X9512300Y15951200D01*
X6350000Y16002000D02*
X7220001Y15131999D01*
%TO.N,/AIN+*%
X6350000Y13462000D02*
X7220001Y14332001D01*
X7220001Y14332001D02*
X7645350Y14332000D01*
X3810000Y13462000D02*
X6350000Y13462000D01*
X7645350Y14332000D02*
X8464550Y13512800D01*
X8464550Y13512800D02*
X9512300Y13512800D01*
%TO.N,/BIN-*%
X7696150Y26308000D02*
X8515350Y27127200D01*
X6350000Y27178000D02*
X7220001Y26307999D01*
X7220001Y26307999D02*
X7696150Y26308000D01*
X8515350Y27127200D02*
X9563100Y27127200D01*
X3810000Y27178000D02*
X6350000Y27178000D01*
%TO.N,/BIN+*%
X7696150Y25508000D02*
X8515350Y24688800D01*
X3810000Y24638000D02*
X6350000Y24638000D01*
X8515350Y24688800D02*
X9563100Y24688800D01*
X7220001Y25508001D02*
X7696150Y25508000D01*
X6350000Y24638000D02*
X7220001Y25508001D01*
%TO.N,/AOUT-*%
X31003999Y17960001D02*
X32384001Y17960001D01*
X30564000Y18400000D02*
X31003999Y17960001D01*
X32474001Y17425369D02*
X33897370Y16002000D01*
X32384001Y17960001D02*
X32474001Y17870001D01*
X33897370Y16002000D02*
X35306000Y16002000D01*
X32474001Y17870001D02*
X32474001Y17425369D01*
X35306000Y16002000D02*
X37846000Y16002000D01*
%TO.N,/AOUT+*%
X33331685Y15436315D02*
X35306000Y13462000D01*
X32468001Y16299999D02*
X33331685Y15436315D01*
X35306000Y13462000D02*
X37846000Y13462000D01*
X30564000Y15860000D02*
X31003999Y16299999D01*
X31003999Y16299999D02*
X32468001Y16299999D01*
%TO.N,/BOUT-*%
X33331685Y25203685D02*
X35306000Y27178000D01*
X31003999Y24340001D02*
X32468001Y24340001D01*
X32468001Y24340001D02*
X33331685Y25203685D01*
X30564000Y24780000D02*
X31003999Y24340001D01*
X37846000Y27178000D02*
X35306000Y27178000D01*
%TO.N,/BOUT+*%
X33897370Y24638000D02*
X35306000Y24638000D01*
X31003999Y22679999D02*
X32384001Y22679999D01*
X30564000Y22240000D02*
X31003999Y22679999D01*
X32474001Y23214631D02*
X33897370Y24638000D01*
X32384001Y22679999D02*
X32474001Y22769999D01*
X35306000Y24638000D02*
X37846000Y24638000D01*
X32474001Y22769999D02*
X32474001Y23214631D01*
%TO.N,/B2+*%
X13328650Y24955500D02*
X14376400Y24955500D01*
X16764000Y24688800D02*
X17018000Y24688800D01*
X15182900Y25508000D02*
X15944800Y25508000D01*
X14376400Y24955500D02*
X14630400Y24955500D01*
X15944800Y25508000D02*
X16764000Y24688800D01*
X14630400Y24955500D02*
X15182900Y25508000D01*
X12776150Y25508000D02*
X13328650Y24955500D01*
X14376400Y25069800D02*
X14122400Y25069800D01*
X11468100Y24688800D02*
X12287301Y25508001D01*
X12287301Y25508001D02*
X12776150Y25508000D01*
%TO.N,/B2-*%
X16764000Y27127200D02*
X17018000Y27127200D01*
X14376400Y26974800D02*
X14122400Y26974800D01*
X15944800Y26308000D02*
X16764000Y27127200D01*
X13328650Y26860500D02*
X14376400Y26860500D01*
X12776150Y26308000D02*
X13328650Y26860500D01*
X14630400Y26860500D02*
X15182900Y26308000D01*
X15182900Y26308000D02*
X15944800Y26308000D01*
X12287301Y26307999D02*
X12776150Y26308000D01*
X11468100Y27127200D02*
X12287301Y26307999D01*
X14376400Y26860500D02*
X14630400Y26860500D01*
%TO.N,/A2+*%
X11417300Y13512800D02*
X12236501Y14332001D01*
X14579600Y13779500D02*
X15132100Y14332000D01*
X15843200Y14332000D02*
X16713200Y13462000D01*
X12725350Y14332000D02*
X13277850Y13779500D01*
X16713200Y13462000D02*
X16967200Y13462000D01*
X14071600Y13779500D02*
X14325600Y13779500D01*
X15132100Y14332000D02*
X15843200Y14332000D01*
X12236501Y14332001D02*
X12725350Y14332000D01*
X14325600Y13779500D02*
X14579600Y13779500D01*
X13277850Y13779500D02*
X14325600Y13779500D01*
%TO.N,/A2-*%
X16713200Y16002000D02*
X16967200Y16002000D01*
X15132100Y15132000D02*
X15843200Y15132000D01*
X12236502Y15132000D02*
X12725350Y15132000D01*
X15843200Y15132000D02*
X16713200Y16002000D01*
X14579600Y15684500D02*
X15132100Y15132000D01*
X14325600Y15684500D02*
X14579600Y15684500D01*
X11417300Y15951200D02*
X12236502Y15132000D01*
X12725350Y15132000D02*
X13277850Y15684500D01*
X13277850Y15684500D02*
X14325600Y15684500D01*
X14071600Y15684500D02*
X14325600Y15684500D01*
%TO.N,/B3+*%
X18923000Y25508000D02*
X18923000Y24688800D01*
X21373999Y23780317D02*
X19646316Y25508000D01*
X21463999Y22679999D02*
X21373999Y22769999D01*
X23284000Y22240000D02*
X22844001Y22679999D01*
X22844001Y22679999D02*
X21463999Y22679999D01*
X19646316Y25508000D02*
X18923000Y25508000D01*
X21373999Y22769999D02*
X21373999Y23780317D01*
%TO.N,/B3-*%
X19977684Y26308000D02*
X18923000Y26308000D01*
X23284000Y24780000D02*
X22844001Y24340001D01*
X21945683Y24340001D02*
X19977684Y26308000D01*
X22844001Y24340001D02*
X21945683Y24340001D01*
X18923000Y26308000D02*
X18923000Y27127200D01*
%TO.N,/A3+*%
X22844001Y16299999D02*
X21463999Y16299999D01*
X18872200Y14332000D02*
X18872200Y13462000D01*
X21450841Y16313157D02*
X19469684Y14332000D01*
X19469684Y14332000D02*
X18872200Y14332000D01*
X21463999Y16299999D02*
X21450841Y16313157D01*
X23284000Y15860000D02*
X22844001Y16299999D01*
%TO.N,/A3-*%
X18872200Y15132000D02*
X18872200Y16002000D01*
X23284000Y18400000D02*
X22844001Y17960001D01*
X19138316Y15132000D02*
X18872200Y15132000D01*
X21373999Y17367683D02*
X19138316Y15132000D01*
X21463999Y17960001D02*
X21373999Y17870001D01*
X21373999Y17870001D02*
X21373999Y17367683D01*
X22844001Y17960001D02*
X21463999Y17960001D01*
%TD*%
%TA.AperFunction,Conductor*%
%TO.N,GND*%
G36*
X24828621Y40290498D02*
G01*
X24875114Y40236842D01*
X24886500Y40184500D01*
X24886500Y37691823D01*
X24866498Y37623702D01*
X24812842Y37577209D01*
X24742568Y37567105D01*
X24716466Y37573768D01*
X24683701Y37585989D01*
X24683696Y37585990D01*
X24623149Y37592499D01*
X24623145Y37592499D01*
X24623138Y37592500D01*
X23128862Y37592500D01*
X23128855Y37592499D01*
X23128850Y37592499D01*
X23068303Y37585990D01*
X23068295Y37585988D01*
X22990375Y37556924D01*
X22931296Y37534889D01*
X22931294Y37534888D01*
X22931292Y37534887D01*
X22814238Y37447261D01*
X22726612Y37330207D01*
X22726610Y37330202D01*
X22675511Y37193204D01*
X22675509Y37193196D01*
X22669000Y37132649D01*
X22669000Y36146350D01*
X22675509Y36085803D01*
X22675511Y36085795D01*
X22726610Y35948797D01*
X22726613Y35948792D01*
X22800036Y35850710D01*
X22824847Y35784189D01*
X22809755Y35714815D01*
X22759553Y35664613D01*
X22690179Y35649522D01*
X22623660Y35674332D01*
X22598204Y35693389D01*
X22462217Y35744110D01*
X22461204Y35744488D01*
X22461203Y35744488D01*
X22461201Y35744489D01*
X22461199Y35744489D01*
X22461196Y35744490D01*
X22400649Y35750999D01*
X22400645Y35750999D01*
X22400638Y35751000D01*
X21414362Y35751000D01*
X21414355Y35750999D01*
X21414350Y35750999D01*
X21353803Y35744490D01*
X21353795Y35744488D01*
X21275875Y35715424D01*
X21216796Y35693389D01*
X21216794Y35693388D01*
X21216792Y35693387D01*
X21099738Y35605761D01*
X21012112Y35488707D01*
X21012110Y35488702D01*
X20961011Y35351704D01*
X20961009Y35351696D01*
X20954500Y35291149D01*
X20954500Y33796850D01*
X20961009Y33736303D01*
X20961011Y33736295D01*
X21012110Y33599297D01*
X21012112Y33599292D01*
X21099738Y33482238D01*
X21216792Y33394612D01*
X21216797Y33394610D01*
X21353795Y33343511D01*
X21353803Y33343509D01*
X21414350Y33337000D01*
X21414362Y33337000D01*
X21735629Y33337000D01*
X21803750Y33316998D01*
X21824724Y33300095D01*
X22568595Y32556224D01*
X22602621Y32493912D01*
X22605500Y32467129D01*
X22605500Y30939350D01*
X22612009Y30878803D01*
X22612011Y30878795D01*
X22663110Y30741797D01*
X22663112Y30741792D01*
X22750739Y30624738D01*
X22809343Y30580867D01*
X22851889Y30524031D01*
X22856953Y30453216D01*
X22822928Y30390904D01*
X22809343Y30379133D01*
X22750739Y30335261D01*
X22663112Y30218207D01*
X22663110Y30218202D01*
X22612011Y30081204D01*
X22612009Y30081196D01*
X22605500Y30020649D01*
X22605500Y28399350D01*
X22612009Y28338803D01*
X22612011Y28338795D01*
X22663110Y28201797D01*
X22663112Y28201792D01*
X22750738Y28084738D01*
X22867792Y27997112D01*
X22867797Y27997110D01*
X23004795Y27946011D01*
X23004802Y27946010D01*
X23012801Y27945150D01*
X23078393Y27917979D01*
X23118883Y27859660D01*
X23124850Y27830857D01*
X23128112Y27793574D01*
X23129596Y27786389D01*
X23129533Y27786376D01*
X23131168Y27779003D01*
X23131231Y27779018D01*
X23132922Y27771881D01*
X23138744Y27755887D01*
X23154645Y27712198D01*
X23159473Y27698935D01*
X23183886Y27625261D01*
X23186987Y27618612D01*
X23186926Y27618583D01*
X23190214Y27611792D01*
X23190273Y27611822D01*
X23193562Y27605272D01*
X23236232Y27540394D01*
X23276968Y27474351D01*
X23281525Y27468588D01*
X23281473Y27468547D01*
X23286233Y27462704D01*
X23286283Y27462746D01*
X23290996Y27457128D01*
X23336493Y27414204D01*
X23347482Y27403836D01*
X24867725Y25883593D01*
X24901749Y25821283D01*
X24896685Y25750468D01*
X24854138Y25693632D01*
X24787618Y25668821D01*
X24778629Y25668500D01*
X21775362Y25668500D01*
X21758100Y25666644D01*
X21688233Y25679249D01*
X21655539Y25702824D01*
X20559585Y26798778D01*
X20547625Y26812617D01*
X20533153Y26832058D01*
X20492699Y26866001D01*
X20488663Y26869700D01*
X20482785Y26875580D01*
X20456787Y26896136D01*
X20456786Y26896136D01*
X20397321Y26946035D01*
X20391192Y26950066D01*
X20391229Y26950122D01*
X20384871Y26954173D01*
X20384835Y26954115D01*
X20378594Y26957963D01*
X20378590Y26957967D01*
X20346146Y26973095D01*
X20308225Y26990779D01*
X20285173Y27002355D01*
X20238872Y27025609D01*
X20238868Y27025610D01*
X20231975Y27028119D01*
X20231998Y27028184D01*
X20224881Y27030658D01*
X20224860Y27030594D01*
X20217892Y27032903D01*
X20141834Y27048607D01*
X20118382Y27054165D01*
X20066340Y27066500D01*
X20066333Y27066500D01*
X20059052Y27067352D01*
X20059059Y27067419D01*
X20051561Y27068185D01*
X20051556Y27068119D01*
X20044249Y27068757D01*
X20044242Y27068759D01*
X20005662Y27067636D01*
X19936990Y27085649D01*
X19888956Y27137929D01*
X19876000Y27193578D01*
X19876000Y27874338D01*
X19875920Y27875086D01*
X19869490Y27934896D01*
X19869488Y27934904D01*
X19849442Y27988649D01*
X19818389Y28071904D01*
X19730761Y28188961D01*
X19713621Y28201792D01*
X19613707Y28276587D01*
X19613706Y28276587D01*
X19613704Y28276589D01*
X19476701Y28327689D01*
X19476699Y28327689D01*
X19476696Y28327690D01*
X19416149Y28334199D01*
X19416145Y28334199D01*
X19416138Y28334200D01*
X18429862Y28334200D01*
X18429855Y28334199D01*
X18429850Y28334199D01*
X18369303Y28327690D01*
X18369295Y28327688D01*
X18291375Y28298624D01*
X18232296Y28276589D01*
X18232294Y28276588D01*
X18232292Y28276587D01*
X18115238Y28188961D01*
X18071368Y28130357D01*
X18014532Y28087810D01*
X17943716Y28082746D01*
X17881404Y28116771D01*
X17869632Y28130357D01*
X17825761Y28188961D01*
X17708707Y28276587D01*
X17708706Y28276587D01*
X17708704Y28276589D01*
X17571701Y28327689D01*
X17571699Y28327689D01*
X17571696Y28327690D01*
X17511149Y28334199D01*
X17511145Y28334199D01*
X17511138Y28334200D01*
X16524862Y28334200D01*
X16524855Y28334199D01*
X16524850Y28334199D01*
X16464303Y28327690D01*
X16464295Y28327688D01*
X16386375Y28298624D01*
X16327296Y28276589D01*
X16327294Y28276588D01*
X16327292Y28276587D01*
X16210238Y28188961D01*
X16122612Y28071907D01*
X16122610Y28071902D01*
X16071511Y27934904D01*
X16071509Y27934896D01*
X16065000Y27874349D01*
X16065000Y27553071D01*
X16044998Y27484950D01*
X16028095Y27463976D01*
X15798495Y27234376D01*
X15736183Y27200350D01*
X15665368Y27205415D01*
X15608532Y27247962D01*
X15583721Y27314482D01*
X15583400Y27323471D01*
X15583400Y27353632D01*
X15583399Y27353649D01*
X15576890Y27414196D01*
X15576888Y27414204D01*
X15563437Y27450266D01*
X15525789Y27551204D01*
X15524733Y27552614D01*
X15438161Y27668261D01*
X15321107Y27755887D01*
X15321106Y27755887D01*
X15321104Y27755889D01*
X15184101Y27806989D01*
X15184099Y27806989D01*
X15184096Y27806990D01*
X15123549Y27813499D01*
X15123545Y27813499D01*
X15123538Y27813500D01*
X13629262Y27813500D01*
X13629255Y27813499D01*
X13629250Y27813499D01*
X13568703Y27806990D01*
X13568695Y27806988D01*
X13493707Y27779018D01*
X13431696Y27755889D01*
X13431694Y27755888D01*
X13431692Y27755887D01*
X13314639Y27668261D01*
X13310280Y27662438D01*
X13253444Y27619891D01*
X13220396Y27612426D01*
X13174224Y27608387D01*
X13174221Y27608386D01*
X13167038Y27606903D01*
X13167024Y27606969D01*
X13159662Y27605337D01*
X13159678Y27605272D01*
X13152540Y27603580D01*
X13152537Y27603579D01*
X13079584Y27577026D01*
X13005912Y27552614D01*
X13005905Y27552609D01*
X12999261Y27549512D01*
X12999231Y27549574D01*
X12992445Y27546288D01*
X12992476Y27546228D01*
X12985921Y27542936D01*
X12985918Y27542935D01*
X12921044Y27500266D01*
X12854999Y27459530D01*
X12854996Y27459527D01*
X12849242Y27454978D01*
X12849199Y27455031D01*
X12843350Y27450266D01*
X12843394Y27450215D01*
X12837772Y27445498D01*
X12808241Y27414196D01*
X12784486Y27389017D01*
X12636193Y27240724D01*
X12573884Y27206701D01*
X12503068Y27211765D01*
X12446232Y27254312D01*
X12421421Y27320832D01*
X12421100Y27329821D01*
X12421100Y27874332D01*
X12421099Y27874349D01*
X12414590Y27934896D01*
X12414588Y27934904D01*
X12394542Y27988649D01*
X12363489Y28071904D01*
X12275861Y28188961D01*
X12258721Y28201792D01*
X12158807Y28276587D01*
X12158806Y28276587D01*
X12158804Y28276589D01*
X12021801Y28327689D01*
X12021799Y28327689D01*
X12021796Y28327690D01*
X11961249Y28334199D01*
X11961245Y28334199D01*
X11961238Y28334200D01*
X10974962Y28334200D01*
X10974955Y28334199D01*
X10974950Y28334199D01*
X10914403Y28327690D01*
X10914395Y28327688D01*
X10836475Y28298624D01*
X10777396Y28276589D01*
X10777394Y28276588D01*
X10777392Y28276587D01*
X10660338Y28188961D01*
X10616468Y28130357D01*
X10559632Y28087810D01*
X10488816Y28082746D01*
X10426504Y28116771D01*
X10414732Y28130357D01*
X10370861Y28188961D01*
X10253807Y28276587D01*
X10253806Y28276587D01*
X10253804Y28276589D01*
X10116801Y28327689D01*
X10116799Y28327689D01*
X10116796Y28327690D01*
X10056249Y28334199D01*
X10056245Y28334199D01*
X10056238Y28334200D01*
X9069962Y28334200D01*
X9069955Y28334199D01*
X9069950Y28334199D01*
X9009403Y28327690D01*
X9009395Y28327688D01*
X8931475Y28298624D01*
X8872396Y28276589D01*
X8872394Y28276588D01*
X8872392Y28276587D01*
X8755338Y28188961D01*
X8667712Y28071907D01*
X8667710Y28071902D01*
X8629980Y27970746D01*
X8587433Y27913910D01*
X8522906Y27889258D01*
X8504714Y27887667D01*
X8484964Y27885940D01*
X8479472Y27885700D01*
X8471169Y27885700D01*
X8454712Y27883776D01*
X8438254Y27881852D01*
X8360924Y27875087D01*
X8360921Y27875086D01*
X8353738Y27873603D01*
X8353724Y27873669D01*
X8346362Y27872037D01*
X8346378Y27871972D01*
X8339240Y27870280D01*
X8339237Y27870279D01*
X8266284Y27843726D01*
X8192612Y27819314D01*
X8192605Y27819309D01*
X8185961Y27816212D01*
X8185931Y27816274D01*
X8179145Y27812988D01*
X8179176Y27812928D01*
X8172621Y27809636D01*
X8172618Y27809635D01*
X8107744Y27766966D01*
X8041699Y27726230D01*
X8041696Y27726227D01*
X8035942Y27721678D01*
X8035899Y27721731D01*
X8030050Y27716966D01*
X8030094Y27716915D01*
X8024472Y27712198D01*
X7971187Y27655718D01*
X7835594Y27520126D01*
X7773282Y27486100D01*
X7702467Y27491165D01*
X7645631Y27533712D01*
X7620820Y27600232D01*
X7620499Y27609221D01*
X7620499Y27625262D01*
X7620500Y27988638D01*
X7613989Y28049201D01*
X7562889Y28186204D01*
X7495227Y28276589D01*
X7475261Y28303261D01*
X7358207Y28390887D01*
X7358206Y28390887D01*
X7358204Y28390889D01*
X7221201Y28441989D01*
X7221199Y28441989D01*
X7221196Y28441990D01*
X7160649Y28448499D01*
X7160645Y28448499D01*
X7160638Y28448500D01*
X5539362Y28448500D01*
X5539355Y28448499D01*
X5539350Y28448499D01*
X5478803Y28441990D01*
X5478795Y28441988D01*
X5400875Y28412924D01*
X5341796Y28390889D01*
X5341794Y28390888D01*
X5341792Y28390887D01*
X5224738Y28303261D01*
X5180868Y28244657D01*
X5124032Y28202110D01*
X5053216Y28197046D01*
X4990904Y28231071D01*
X4979132Y28244657D01*
X4935261Y28303261D01*
X4818207Y28390887D01*
X4818206Y28390887D01*
X4818204Y28390889D01*
X4681201Y28441989D01*
X4681199Y28441989D01*
X4681196Y28441990D01*
X4620649Y28448499D01*
X4620645Y28448499D01*
X4620638Y28448500D01*
X2999362Y28448500D01*
X2999355Y28448499D01*
X2999350Y28448499D01*
X2938803Y28441990D01*
X2938795Y28441988D01*
X2860875Y28412924D01*
X2801796Y28390889D01*
X2801794Y28390888D01*
X2801792Y28390887D01*
X2684738Y28303261D01*
X2597112Y28186207D01*
X2597110Y28186202D01*
X2546011Y28049204D01*
X2546009Y28049196D01*
X2539500Y27988649D01*
X2539500Y26367350D01*
X2546009Y26306803D01*
X2546011Y26306795D01*
X2597110Y26169797D01*
X2597112Y26169792D01*
X2684738Y26052738D01*
X2743343Y26008868D01*
X2785890Y25952032D01*
X2790954Y25881216D01*
X2756929Y25818904D01*
X2743343Y25807132D01*
X2684738Y25763261D01*
X2597112Y25646207D01*
X2597110Y25646202D01*
X2546011Y25509204D01*
X2546009Y25509196D01*
X2539500Y25448649D01*
X2539500Y23827350D01*
X2546009Y23766803D01*
X2546011Y23766795D01*
X2597110Y23629797D01*
X2597112Y23629792D01*
X2684738Y23512738D01*
X2801792Y23425112D01*
X2801797Y23425110D01*
X2938795Y23374011D01*
X2938803Y23374009D01*
X2999350Y23367500D01*
X2999362Y23367500D01*
X4620649Y23367500D01*
X4681196Y23374009D01*
X4681204Y23374011D01*
X4818202Y23425110D01*
X4818207Y23425112D01*
X4935261Y23512739D01*
X4979133Y23571343D01*
X5035969Y23613889D01*
X5106784Y23618953D01*
X5169096Y23584928D01*
X5180867Y23571343D01*
X5224738Y23512739D01*
X5341792Y23425112D01*
X5341797Y23425110D01*
X5478795Y23374011D01*
X5478803Y23374009D01*
X5539350Y23367500D01*
X5539362Y23367500D01*
X7160649Y23367500D01*
X7221196Y23374009D01*
X7221204Y23374011D01*
X7358202Y23425110D01*
X7358207Y23425112D01*
X7475261Y23512738D01*
X7562887Y23629792D01*
X7562889Y23629797D01*
X7613988Y23766795D01*
X7613990Y23766803D01*
X7620499Y23827350D01*
X7620499Y23827352D01*
X7620500Y23827362D01*
X7620499Y24206779D01*
X7640501Y24274898D01*
X7694156Y24321391D01*
X7764430Y24331496D01*
X7829011Y24302003D01*
X7835594Y24295873D01*
X7933442Y24198025D01*
X7945412Y24184176D01*
X7959880Y24164743D01*
X7959883Y24164739D01*
X8000319Y24130808D01*
X8004365Y24127102D01*
X8010246Y24121221D01*
X8010252Y24121216D01*
X8036244Y24100665D01*
X8095714Y24050764D01*
X8101841Y24046735D01*
X8101805Y24046681D01*
X8108170Y24042627D01*
X8108204Y24042682D01*
X8114445Y24038832D01*
X8184802Y24006024D01*
X8254158Y23971192D01*
X8261054Y23968683D01*
X8261031Y23968621D01*
X8268160Y23966143D01*
X8268181Y23966204D01*
X8275140Y23963897D01*
X8351199Y23948192D01*
X8378753Y23941662D01*
X8426694Y23930300D01*
X8426695Y23930300D01*
X8433984Y23929448D01*
X8433976Y23929380D01*
X8441472Y23928614D01*
X8441478Y23928681D01*
X8448791Y23928041D01*
X8448792Y23928041D01*
X8452654Y23928153D01*
X8507301Y23929743D01*
X8575974Y23911730D01*
X8624007Y23859448D01*
X8629019Y23847830D01*
X8667711Y23744095D01*
X8667712Y23744092D01*
X8755338Y23627038D01*
X8872392Y23539412D01*
X8872397Y23539410D01*
X9009395Y23488311D01*
X9009403Y23488309D01*
X9069950Y23481800D01*
X9069962Y23481800D01*
X10056249Y23481800D01*
X10116796Y23488309D01*
X10116804Y23488311D01*
X10253802Y23539410D01*
X10253807Y23539412D01*
X10370861Y23627039D01*
X10414733Y23685643D01*
X10471569Y23728189D01*
X10542384Y23733253D01*
X10604696Y23699228D01*
X10616467Y23685643D01*
X10660338Y23627039D01*
X10777392Y23539412D01*
X10777397Y23539410D01*
X10914395Y23488311D01*
X10914403Y23488309D01*
X10974950Y23481800D01*
X10974962Y23481800D01*
X11961249Y23481800D01*
X12021796Y23488309D01*
X12021804Y23488311D01*
X12158802Y23539410D01*
X12158807Y23539412D01*
X12275861Y23627038D01*
X12363487Y23744092D01*
X12363489Y23744097D01*
X12414588Y23881095D01*
X12414590Y23881103D01*
X12421099Y23941650D01*
X12421100Y23941667D01*
X12421100Y24486177D01*
X12441102Y24554298D01*
X12494758Y24600791D01*
X12565032Y24610895D01*
X12629612Y24581401D01*
X12636196Y24575272D01*
X12746745Y24464722D01*
X12758713Y24450873D01*
X12773175Y24431448D01*
X12773183Y24431439D01*
X12813619Y24397508D01*
X12817665Y24393802D01*
X12823545Y24387922D01*
X12823553Y24387916D01*
X12835395Y24378552D01*
X12849542Y24367367D01*
X12871745Y24348735D01*
X12909008Y24317468D01*
X12915137Y24313438D01*
X12915101Y24313384D01*
X12921470Y24309327D01*
X12921504Y24309382D01*
X12927745Y24305532D01*
X12998102Y24272724D01*
X13067458Y24237892D01*
X13074354Y24235383D01*
X13074331Y24235321D01*
X13081460Y24232843D01*
X13081481Y24232904D01*
X13088440Y24230597D01*
X13164500Y24214892D01*
X13203563Y24205634D01*
X13241467Y24196651D01*
X13303139Y24161478D01*
X13313274Y24149561D01*
X13314637Y24147739D01*
X13431692Y24060112D01*
X13431697Y24060110D01*
X13568695Y24009011D01*
X13568703Y24009009D01*
X13629250Y24002500D01*
X13629262Y24002500D01*
X15123549Y24002500D01*
X15184096Y24009009D01*
X15184104Y24009011D01*
X15321102Y24060110D01*
X15321107Y24060112D01*
X15438161Y24147738D01*
X15525787Y24264792D01*
X15525789Y24264797D01*
X15539667Y24302003D01*
X15558323Y24352023D01*
X15576888Y24401795D01*
X15576890Y24401803D01*
X15583399Y24462350D01*
X15583400Y24462367D01*
X15583400Y24492528D01*
X15603402Y24560649D01*
X15657058Y24607142D01*
X15727332Y24617246D01*
X15791912Y24587752D01*
X15798495Y24581623D01*
X16028095Y24352023D01*
X16062121Y24289711D01*
X16065000Y24262928D01*
X16065000Y23941650D01*
X16071509Y23881103D01*
X16071511Y23881095D01*
X16122610Y23744097D01*
X16122612Y23744092D01*
X16210238Y23627038D01*
X16327292Y23539412D01*
X16327297Y23539410D01*
X16464295Y23488311D01*
X16464303Y23488309D01*
X16524850Y23481800D01*
X16524862Y23481800D01*
X17511149Y23481800D01*
X17571696Y23488309D01*
X17571704Y23488311D01*
X17708702Y23539410D01*
X17708707Y23539412D01*
X17825761Y23627039D01*
X17869633Y23685643D01*
X17926469Y23728189D01*
X17997284Y23733253D01*
X18059596Y23699228D01*
X18071367Y23685643D01*
X18115238Y23627039D01*
X18232292Y23539412D01*
X18232297Y23539410D01*
X18369295Y23488311D01*
X18369303Y23488309D01*
X18429850Y23481800D01*
X18429862Y23481800D01*
X19416149Y23481800D01*
X19476696Y23488309D01*
X19476704Y23488311D01*
X19613702Y23539410D01*
X19613707Y23539412D01*
X19730761Y23627038D01*
X19818387Y23744092D01*
X19818389Y23744097D01*
X19869488Y23881095D01*
X19869490Y23881104D01*
X19873473Y23918157D01*
X19900640Y23983750D01*
X19958958Y24024242D01*
X20029909Y24026778D01*
X20087846Y23993787D01*
X20578594Y23503040D01*
X20612619Y23440727D01*
X20615499Y23413944D01*
X20615499Y22834434D01*
X20614168Y22816171D01*
X20610658Y22792215D01*
X20610658Y22792208D01*
X20615259Y22739613D01*
X20615499Y22734120D01*
X20615499Y22725816D01*
X20619346Y22692903D01*
X20626111Y22615573D01*
X20627595Y22608388D01*
X20627532Y22608375D01*
X20629167Y22601002D01*
X20629230Y22601017D01*
X20630921Y22593880D01*
X20657472Y22520934D01*
X20681885Y22447260D01*
X20684986Y22440611D01*
X20684925Y22440582D01*
X20688213Y22433791D01*
X20688272Y22433821D01*
X20691562Y22427268D01*
X20734231Y22362393D01*
X20774967Y22296350D01*
X20779524Y22290587D01*
X20779472Y22290546D01*
X20784232Y22284703D01*
X20784282Y22284745D01*
X20788995Y22279127D01*
X20845481Y22225835D01*
X20882091Y22189224D01*
X20894061Y22175375D01*
X20908529Y22155942D01*
X20948970Y22122006D01*
X20953016Y22118299D01*
X20958896Y22112420D01*
X20958906Y22112411D01*
X20984895Y22091862D01*
X21044363Y22041964D01*
X21050490Y22037934D01*
X21050454Y22037879D01*
X21056819Y22033824D01*
X21056854Y22033881D01*
X21063096Y22030030D01*
X21100358Y22012654D01*
X21133446Y21997225D01*
X21202811Y21962390D01*
X21202813Y21962389D01*
X21209706Y21959881D01*
X21209683Y21959819D01*
X21216806Y21957343D01*
X21216827Y21957405D01*
X21229129Y21953329D01*
X21287502Y21912917D01*
X21314760Y21847361D01*
X21315500Y21833723D01*
X21315500Y21811350D01*
X21322009Y21750803D01*
X21322010Y21750802D01*
X21362766Y21641533D01*
X21367831Y21570717D01*
X21362766Y21553467D01*
X21322010Y21444197D01*
X21322009Y21444196D01*
X21315500Y21383649D01*
X21315500Y20526350D01*
X21322009Y20465803D01*
X21322010Y20465799D01*
X21359968Y20364032D01*
X21365032Y20293217D01*
X21359968Y20275968D01*
X21322010Y20174200D01*
X21322009Y20174196D01*
X21315500Y20113649D01*
X21315500Y19256350D01*
X21322009Y19195803D01*
X21322010Y19195802D01*
X21362766Y19086533D01*
X21367831Y19015717D01*
X21362766Y18998467D01*
X21322010Y18889197D01*
X21322009Y18889196D01*
X21315500Y18828649D01*
X21315500Y18801356D01*
X21295498Y18733235D01*
X21241842Y18686742D01*
X21232611Y18682961D01*
X21214943Y18676531D01*
X21141260Y18652115D01*
X21141257Y18652113D01*
X21134614Y18649015D01*
X21134585Y18649077D01*
X21127799Y18645792D01*
X21127830Y18645732D01*
X21121267Y18642436D01*
X21056399Y18599772D01*
X20990349Y18559032D01*
X20984590Y18554478D01*
X20984547Y18554531D01*
X20978699Y18549767D01*
X20978743Y18549716D01*
X20973121Y18544999D01*
X20922293Y18491123D01*
X20919835Y18488518D01*
X20883220Y18451903D01*
X20869375Y18439938D01*
X20849941Y18425470D01*
X20849939Y18425468D01*
X20816002Y18385025D01*
X20812288Y18380971D01*
X20806424Y18375108D01*
X20785863Y18349105D01*
X20735964Y18289637D01*
X20731932Y18283507D01*
X20731877Y18283542D01*
X20727828Y18277188D01*
X20727885Y18277154D01*
X20724032Y18270907D01*
X20691219Y18200541D01*
X20656390Y18131189D01*
X20656389Y18131187D01*
X20656388Y18131184D01*
X20653879Y18124290D01*
X20653816Y18124312D01*
X20651340Y18117190D01*
X20651403Y18117170D01*
X20649096Y18110210D01*
X20633391Y18034151D01*
X20615498Y17958653D01*
X20614647Y17951368D01*
X20614579Y17951375D01*
X20613813Y17943878D01*
X20613880Y17943873D01*
X20613240Y17936560D01*
X20615499Y17858921D01*
X20615499Y17734054D01*
X20595497Y17665933D01*
X20578594Y17644959D01*
X19918680Y16985045D01*
X19856368Y16951019D01*
X19785553Y16956084D01*
X19728717Y16998631D01*
X19679961Y17063761D01*
X19562907Y17151387D01*
X19562906Y17151387D01*
X19562904Y17151389D01*
X19425901Y17202489D01*
X19425899Y17202489D01*
X19425896Y17202490D01*
X19365349Y17208999D01*
X19365345Y17208999D01*
X19365338Y17209000D01*
X18379062Y17209000D01*
X18379055Y17208999D01*
X18379050Y17208999D01*
X18318503Y17202490D01*
X18318495Y17202488D01*
X18240575Y17173424D01*
X18181496Y17151389D01*
X18181494Y17151388D01*
X18181492Y17151387D01*
X18064438Y17063761D01*
X18020568Y17005157D01*
X17963732Y16962610D01*
X17892916Y16957546D01*
X17830604Y16991571D01*
X17818832Y17005157D01*
X17774961Y17063761D01*
X17657907Y17151387D01*
X17657906Y17151387D01*
X17657904Y17151389D01*
X17520901Y17202489D01*
X17520899Y17202489D01*
X17520896Y17202490D01*
X17460349Y17208999D01*
X17460345Y17208999D01*
X17460338Y17209000D01*
X16474062Y17209000D01*
X16474055Y17208999D01*
X16474050Y17208999D01*
X16413503Y17202490D01*
X16413495Y17202488D01*
X16335575Y17173424D01*
X16276496Y17151389D01*
X16276494Y17151388D01*
X16276492Y17151387D01*
X16159438Y17063761D01*
X16071812Y16946707D01*
X16071810Y16946702D01*
X16020711Y16809704D01*
X16020709Y16809696D01*
X16014200Y16749149D01*
X16014200Y16427871D01*
X15994198Y16359750D01*
X15977295Y16338776D01*
X15746347Y16107828D01*
X15684035Y16073802D01*
X15613220Y16078867D01*
X15556384Y16121414D01*
X15531974Y16183457D01*
X15526090Y16238195D01*
X15526088Y16238204D01*
X15512637Y16274266D01*
X15474989Y16375204D01*
X15473933Y16376614D01*
X15387361Y16492261D01*
X15270307Y16579887D01*
X15270306Y16579887D01*
X15270304Y16579889D01*
X15133301Y16630989D01*
X15133299Y16630989D01*
X15133296Y16630990D01*
X15072749Y16637499D01*
X15072745Y16637499D01*
X15072738Y16637500D01*
X13578462Y16637500D01*
X13578455Y16637499D01*
X13578450Y16637499D01*
X13517903Y16630990D01*
X13517895Y16630988D01*
X13439975Y16601924D01*
X13380896Y16579889D01*
X13380894Y16579888D01*
X13380892Y16579887D01*
X13263839Y16492261D01*
X13259480Y16486438D01*
X13202644Y16443891D01*
X13169596Y16436426D01*
X13123424Y16432387D01*
X13123421Y16432386D01*
X13116238Y16430903D01*
X13116224Y16430969D01*
X13108862Y16429337D01*
X13108878Y16429272D01*
X13101740Y16427580D01*
X13101737Y16427579D01*
X13028784Y16401026D01*
X12955112Y16376614D01*
X12955105Y16376609D01*
X12948461Y16373512D01*
X12948431Y16373574D01*
X12941645Y16370288D01*
X12941676Y16370228D01*
X12935121Y16366936D01*
X12935118Y16366935D01*
X12870244Y16324266D01*
X12804199Y16283530D01*
X12804196Y16283527D01*
X12798442Y16278978D01*
X12798399Y16279031D01*
X12792550Y16274266D01*
X12792594Y16274215D01*
X12786972Y16269498D01*
X12757440Y16238195D01*
X12733686Y16213017D01*
X12585393Y16064724D01*
X12523084Y16030701D01*
X12452268Y16035765D01*
X12395432Y16078312D01*
X12370621Y16144832D01*
X12370300Y16153821D01*
X12370300Y16698332D01*
X12370299Y16698349D01*
X12363790Y16758896D01*
X12363788Y16758904D01*
X12343742Y16812649D01*
X12312689Y16895904D01*
X12274660Y16946704D01*
X12225061Y17012961D01*
X12108007Y17100587D01*
X12108006Y17100587D01*
X12108004Y17100589D01*
X11971811Y17151387D01*
X11971004Y17151688D01*
X11971003Y17151688D01*
X11971001Y17151689D01*
X11970999Y17151689D01*
X11970996Y17151690D01*
X11910449Y17158199D01*
X11910445Y17158199D01*
X11910438Y17158200D01*
X10924162Y17158200D01*
X10924155Y17158199D01*
X10924150Y17158199D01*
X10863603Y17151690D01*
X10863595Y17151688D01*
X10785675Y17122624D01*
X10726596Y17100589D01*
X10726594Y17100588D01*
X10726592Y17100587D01*
X10609538Y17012961D01*
X10565668Y16954357D01*
X10508832Y16911810D01*
X10438016Y16906746D01*
X10375704Y16940771D01*
X10363932Y16954357D01*
X10320061Y17012961D01*
X10203007Y17100587D01*
X10203006Y17100587D01*
X10203004Y17100589D01*
X10066811Y17151387D01*
X10066004Y17151688D01*
X10066003Y17151688D01*
X10066001Y17151689D01*
X10065999Y17151689D01*
X10065996Y17151690D01*
X10005449Y17158199D01*
X10005445Y17158199D01*
X10005438Y17158200D01*
X9019162Y17158200D01*
X9019155Y17158199D01*
X9019150Y17158199D01*
X8958603Y17151690D01*
X8958595Y17151688D01*
X8880675Y17122624D01*
X8821596Y17100589D01*
X8821594Y17100588D01*
X8821592Y17100587D01*
X8704538Y17012961D01*
X8616912Y16895907D01*
X8616910Y16895902D01*
X8579180Y16794746D01*
X8536633Y16737910D01*
X8472106Y16713258D01*
X8453914Y16711667D01*
X8434164Y16709940D01*
X8428672Y16709700D01*
X8420369Y16709700D01*
X8403912Y16707776D01*
X8387454Y16705852D01*
X8310124Y16699087D01*
X8310121Y16699086D01*
X8302938Y16697603D01*
X8302924Y16697669D01*
X8295562Y16696037D01*
X8295578Y16695972D01*
X8288440Y16694280D01*
X8288437Y16694279D01*
X8215484Y16667726D01*
X8141812Y16643314D01*
X8141805Y16643309D01*
X8135161Y16640212D01*
X8135131Y16640274D01*
X8128345Y16636988D01*
X8128376Y16636928D01*
X8121821Y16633636D01*
X8121818Y16633635D01*
X8056944Y16590966D01*
X7990899Y16550230D01*
X7990896Y16550227D01*
X7985142Y16545678D01*
X7985099Y16545731D01*
X7979250Y16540966D01*
X7979294Y16540915D01*
X7973672Y16536198D01*
X7920387Y16479718D01*
X7835594Y16394926D01*
X7773282Y16360900D01*
X7702467Y16365965D01*
X7645631Y16408512D01*
X7620820Y16475032D01*
X7620499Y16484021D01*
X7620499Y16492261D01*
X7620500Y16812638D01*
X7613989Y16873201D01*
X7562889Y17010204D01*
X7495227Y17100589D01*
X7475261Y17127261D01*
X7358207Y17214887D01*
X7358206Y17214887D01*
X7358204Y17214889D01*
X7221201Y17265989D01*
X7221199Y17265989D01*
X7221196Y17265990D01*
X7160649Y17272499D01*
X7160645Y17272499D01*
X7160638Y17272500D01*
X5539362Y17272500D01*
X5539355Y17272499D01*
X5539350Y17272499D01*
X5478803Y17265990D01*
X5478795Y17265988D01*
X5400875Y17236924D01*
X5341796Y17214889D01*
X5341794Y17214888D01*
X5341792Y17214887D01*
X5224738Y17127261D01*
X5180868Y17068657D01*
X5124032Y17026110D01*
X5053216Y17021046D01*
X4990904Y17055071D01*
X4979132Y17068657D01*
X4935261Y17127261D01*
X4818207Y17214887D01*
X4818206Y17214887D01*
X4818204Y17214889D01*
X4681201Y17265989D01*
X4681199Y17265989D01*
X4681196Y17265990D01*
X4620649Y17272499D01*
X4620645Y17272499D01*
X4620638Y17272500D01*
X2999362Y17272500D01*
X2999355Y17272499D01*
X2999350Y17272499D01*
X2938803Y17265990D01*
X2938795Y17265988D01*
X2860875Y17236924D01*
X2801796Y17214889D01*
X2801794Y17214888D01*
X2801792Y17214887D01*
X2684738Y17127261D01*
X2597112Y17010207D01*
X2597110Y17010202D01*
X2546011Y16873204D01*
X2546009Y16873196D01*
X2539500Y16812649D01*
X2539500Y15191350D01*
X2546009Y15130803D01*
X2546011Y15130795D01*
X2597110Y14993797D01*
X2597112Y14993792D01*
X2684739Y14876738D01*
X2743343Y14832867D01*
X2785889Y14776031D01*
X2790953Y14705216D01*
X2756928Y14642904D01*
X2743343Y14631133D01*
X2684739Y14587261D01*
X2597112Y14470207D01*
X2597110Y14470202D01*
X2546011Y14333204D01*
X2546009Y14333196D01*
X2539500Y14272649D01*
X2539500Y12651350D01*
X2546009Y12590803D01*
X2546011Y12590795D01*
X2597110Y12453797D01*
X2597112Y12453792D01*
X2684738Y12336738D01*
X2801792Y12249112D01*
X2801797Y12249110D01*
X2938795Y12198011D01*
X2938803Y12198009D01*
X2999350Y12191500D01*
X2999362Y12191500D01*
X4620649Y12191500D01*
X4681196Y12198009D01*
X4681204Y12198011D01*
X4818202Y12249110D01*
X4818207Y12249112D01*
X4935261Y12336738D01*
X4979131Y12395342D01*
X5035967Y12437889D01*
X5106782Y12442954D01*
X5169094Y12408928D01*
X5180866Y12395344D01*
X5224739Y12336738D01*
X5341792Y12249112D01*
X5341797Y12249110D01*
X5478795Y12198011D01*
X5478803Y12198009D01*
X5539350Y12191500D01*
X5539362Y12191500D01*
X7160649Y12191500D01*
X7221196Y12198009D01*
X7221204Y12198011D01*
X7358202Y12249110D01*
X7358207Y12249112D01*
X7475261Y12336738D01*
X7562887Y12453792D01*
X7562889Y12453797D01*
X7613988Y12590795D01*
X7613990Y12590803D01*
X7620499Y12651350D01*
X7620499Y12651352D01*
X7620500Y12651362D01*
X7620499Y12979979D01*
X7640501Y13048098D01*
X7694156Y13094591D01*
X7764430Y13104696D01*
X7829011Y13075203D01*
X7835594Y13069073D01*
X7882642Y13022025D01*
X7894612Y13008176D01*
X7909080Y12988743D01*
X7909083Y12988739D01*
X7949519Y12954808D01*
X7953565Y12951102D01*
X7959446Y12945221D01*
X7959452Y12945216D01*
X7985444Y12924665D01*
X8044914Y12874764D01*
X8051041Y12870735D01*
X8051005Y12870681D01*
X8057370Y12866627D01*
X8057404Y12866682D01*
X8063645Y12862832D01*
X8134002Y12830024D01*
X8203358Y12795192D01*
X8210254Y12792683D01*
X8210231Y12792621D01*
X8217360Y12790143D01*
X8217381Y12790204D01*
X8224340Y12787897D01*
X8300399Y12772192D01*
X8327953Y12765662D01*
X8375894Y12754300D01*
X8375895Y12754300D01*
X8383184Y12753448D01*
X8383176Y12753380D01*
X8390672Y12752614D01*
X8390678Y12752681D01*
X8397991Y12752041D01*
X8397992Y12752041D01*
X8401854Y12752153D01*
X8456501Y12753743D01*
X8525174Y12735730D01*
X8573207Y12683448D01*
X8578219Y12671830D01*
X8616911Y12568095D01*
X8616912Y12568092D01*
X8704538Y12451038D01*
X8821592Y12363412D01*
X8821597Y12363410D01*
X8958595Y12312311D01*
X8958603Y12312309D01*
X9019150Y12305800D01*
X9019162Y12305800D01*
X10005449Y12305800D01*
X10065996Y12312309D01*
X10066004Y12312311D01*
X10203002Y12363410D01*
X10203007Y12363412D01*
X10320061Y12451039D01*
X10363933Y12509643D01*
X10420769Y12552189D01*
X10491584Y12557253D01*
X10553896Y12523228D01*
X10565667Y12509643D01*
X10609538Y12451039D01*
X10726592Y12363412D01*
X10726597Y12363410D01*
X10863595Y12312311D01*
X10863603Y12312309D01*
X10924150Y12305800D01*
X10924162Y12305800D01*
X11910449Y12305800D01*
X11970996Y12312309D01*
X11971004Y12312311D01*
X12108002Y12363410D01*
X12108007Y12363412D01*
X12225061Y12451038D01*
X12312687Y12568092D01*
X12312689Y12568097D01*
X12363788Y12705095D01*
X12363790Y12705103D01*
X12370299Y12765650D01*
X12370300Y12765667D01*
X12370300Y13310177D01*
X12390302Y13378298D01*
X12443958Y13424791D01*
X12514232Y13434895D01*
X12578812Y13405401D01*
X12585396Y13399272D01*
X12695945Y13288722D01*
X12707913Y13274873D01*
X12722375Y13255448D01*
X12722383Y13255439D01*
X12762819Y13221508D01*
X12766865Y13217802D01*
X12772745Y13211922D01*
X12772753Y13211916D01*
X12777074Y13208500D01*
X12798742Y13191367D01*
X12820945Y13172735D01*
X12858208Y13141468D01*
X12864337Y13137438D01*
X12864301Y13137384D01*
X12870670Y13133327D01*
X12870704Y13133382D01*
X12876945Y13129532D01*
X12947302Y13096724D01*
X13016658Y13061892D01*
X13023554Y13059383D01*
X13023531Y13059321D01*
X13030660Y13056843D01*
X13030681Y13056904D01*
X13037640Y13054597D01*
X13113700Y13038892D01*
X13190667Y13020651D01*
X13252339Y12985478D01*
X13262474Y12973561D01*
X13263837Y12971739D01*
X13380892Y12884112D01*
X13380897Y12884110D01*
X13517895Y12833011D01*
X13517903Y12833009D01*
X13578450Y12826500D01*
X13578462Y12826500D01*
X15072749Y12826500D01*
X15133296Y12833009D01*
X15133304Y12833011D01*
X15270302Y12884110D01*
X15270307Y12884112D01*
X15387361Y12971738D01*
X15474987Y13088792D01*
X15474989Y13088797D01*
X15526088Y13225795D01*
X15526090Y13225803D01*
X15531974Y13280541D01*
X15559142Y13346133D01*
X15617459Y13386625D01*
X15688410Y13389161D01*
X15746347Y13356170D01*
X15977295Y13125223D01*
X16011320Y13062910D01*
X16014200Y13036127D01*
X16014200Y12714850D01*
X16020709Y12654303D01*
X16020711Y12654295D01*
X16071810Y12517297D01*
X16071812Y12517292D01*
X16159438Y12400238D01*
X16276492Y12312612D01*
X16276497Y12312610D01*
X16413495Y12261511D01*
X16413503Y12261509D01*
X16474050Y12255000D01*
X16474062Y12255000D01*
X17460349Y12255000D01*
X17520896Y12261509D01*
X17520904Y12261511D01*
X17657902Y12312610D01*
X17657907Y12312612D01*
X17774961Y12400239D01*
X17818833Y12458843D01*
X17875669Y12501389D01*
X17946484Y12506453D01*
X18008796Y12472428D01*
X18020567Y12458843D01*
X18064438Y12400239D01*
X18181492Y12312612D01*
X18181497Y12312610D01*
X18318495Y12261511D01*
X18318503Y12261509D01*
X18379050Y12255000D01*
X18379062Y12255000D01*
X19365349Y12255000D01*
X19425896Y12261509D01*
X19425904Y12261511D01*
X19562902Y12312610D01*
X19562907Y12312612D01*
X19679961Y12400238D01*
X19767587Y12517292D01*
X19767589Y12517297D01*
X19769802Y12523228D01*
X19795003Y12590795D01*
X19818688Y12654295D01*
X19818690Y12654303D01*
X19825199Y12714850D01*
X19825200Y12714867D01*
X19825200Y13589780D01*
X19845202Y13657901D01*
X19885053Y13697021D01*
X19943335Y13732970D01*
X19949092Y13737522D01*
X19949134Y13737468D01*
X19954976Y13742228D01*
X19954934Y13742279D01*
X19960552Y13746993D01*
X20013847Y13803482D01*
X21307112Y15096747D01*
X21369424Y15130772D01*
X21440239Y15125708D01*
X21471716Y15108521D01*
X21577797Y15029110D01*
X21714795Y14978011D01*
X21714803Y14978009D01*
X21775350Y14971500D01*
X21775362Y14971500D01*
X24270629Y14971500D01*
X24338750Y14951498D01*
X24385243Y14897842D01*
X24395347Y14827568D01*
X24365853Y14762988D01*
X24359724Y14756405D01*
X23385227Y13781908D01*
X23371376Y13769937D01*
X23351942Y13755469D01*
X23351940Y13755467D01*
X23318003Y13715024D01*
X23314289Y13710970D01*
X23308425Y13705107D01*
X23287864Y13679104D01*
X23237965Y13619636D01*
X23233933Y13613506D01*
X23233878Y13613541D01*
X23229829Y13607187D01*
X23229886Y13607153D01*
X23226033Y13600906D01*
X23193220Y13530540D01*
X23158391Y13461188D01*
X23158390Y13461186D01*
X23158389Y13461183D01*
X23155880Y13454289D01*
X23155817Y13454311D01*
X23153341Y13447189D01*
X23153404Y13447169D01*
X23151097Y13440209D01*
X23135392Y13364150D01*
X23119917Y13298853D01*
X23084744Y13237181D01*
X23021813Y13204315D01*
X23010785Y13202632D01*
X23004799Y13201989D01*
X23004796Y13201988D01*
X23004795Y13201988D01*
X22926875Y13172924D01*
X22867796Y13150889D01*
X22867794Y13150888D01*
X22867792Y13150887D01*
X22750738Y13063261D01*
X22663112Y12946207D01*
X22663110Y12946202D01*
X22612011Y12809204D01*
X22612009Y12809196D01*
X22605500Y12748649D01*
X22605500Y11127350D01*
X22612009Y11066803D01*
X22612011Y11066795D01*
X22663110Y10929797D01*
X22663112Y10929792D01*
X22750738Y10812738D01*
X22809343Y10768868D01*
X22851890Y10712032D01*
X22856954Y10641216D01*
X22822929Y10578904D01*
X22809343Y10567132D01*
X22750738Y10523261D01*
X22663112Y10406207D01*
X22663110Y10406202D01*
X22612011Y10269204D01*
X22612009Y10269196D01*
X22605500Y10208649D01*
X22605500Y9252370D01*
X22585498Y9184249D01*
X22568595Y9163275D01*
X21416727Y8011408D01*
X21402876Y7999437D01*
X21383442Y7984969D01*
X21383440Y7984967D01*
X21349503Y7944524D01*
X21345789Y7940470D01*
X21339925Y7934607D01*
X21319364Y7908604D01*
X21269465Y7849136D01*
X21265433Y7843006D01*
X21265378Y7843041D01*
X21261329Y7836687D01*
X21261386Y7836653D01*
X21257533Y7830406D01*
X21224720Y7760040D01*
X21189891Y7690688D01*
X21189890Y7690686D01*
X21189889Y7690683D01*
X21187380Y7683789D01*
X21187317Y7683811D01*
X21184841Y7676689D01*
X21184904Y7676669D01*
X21182597Y7669709D01*
X21166892Y7593650D01*
X21148999Y7518152D01*
X21148148Y7510867D01*
X21148080Y7510874D01*
X21147314Y7503377D01*
X21147381Y7503372D01*
X21146741Y7496059D01*
X21149000Y7418420D01*
X21149000Y7257708D01*
X21128998Y7189587D01*
X21105690Y7164554D01*
X21106111Y7164134D01*
X21099740Y7157763D01*
X21012112Y7040707D01*
X21012110Y7040702D01*
X20961011Y6903704D01*
X20961009Y6903696D01*
X20954500Y6843149D01*
X20954500Y5348850D01*
X20961009Y5288303D01*
X20961011Y5288295D01*
X21012110Y5151297D01*
X21012112Y5151292D01*
X21099738Y5034238D01*
X21216792Y4946612D01*
X21216797Y4946610D01*
X21353795Y4895511D01*
X21353803Y4895509D01*
X21414350Y4889000D01*
X21414362Y4889000D01*
X22400649Y4889000D01*
X22461196Y4895509D01*
X22461204Y4895511D01*
X22598202Y4946610D01*
X22598203Y4946610D01*
X22623658Y4965666D01*
X22690179Y4990477D01*
X22759553Y4975386D01*
X22809755Y4925184D01*
X22824847Y4855810D01*
X22800037Y4789290D01*
X22800036Y4789289D01*
X22726612Y4691207D01*
X22726610Y4691202D01*
X22675511Y4554204D01*
X22675509Y4554196D01*
X22669000Y4493649D01*
X22669000Y3507350D01*
X22675509Y3446803D01*
X22675511Y3446795D01*
X22726610Y3309797D01*
X22726612Y3309792D01*
X22814238Y3192738D01*
X22931292Y3105112D01*
X22931297Y3105110D01*
X23068295Y3054011D01*
X23068303Y3054009D01*
X23128850Y3047500D01*
X23128862Y3047500D01*
X24623149Y3047500D01*
X24683696Y3054009D01*
X24683703Y3054011D01*
X24716469Y3066232D01*
X24787285Y3071296D01*
X24849597Y3037270D01*
X24883621Y2974958D01*
X24886500Y2948176D01*
X24886500Y455500D01*
X24866498Y387379D01*
X24812842Y340886D01*
X24760500Y329500D01*
X455500Y329500D01*
X387379Y349502D01*
X340886Y403158D01*
X329500Y455500D01*
X329500Y9105462D01*
X9603922Y9105462D01*
X9603922Y6277880D01*
X11341579Y6277880D01*
X11409700Y6257878D01*
X11456193Y6204222D01*
X11466297Y6133948D01*
X11436803Y6069368D01*
X11430674Y6062785D01*
X11425352Y6057463D01*
X11425352Y6057462D01*
X11425352Y3229880D01*
X18038647Y3229880D01*
X18038647Y6057463D01*
X18033325Y6062785D01*
X17999299Y6125097D01*
X18004364Y6195912D01*
X18046911Y6252748D01*
X18113431Y6277559D01*
X18122420Y6277880D01*
X19716632Y6277880D01*
X19716632Y9105462D01*
X9603922Y9105462D01*
X329500Y9105462D01*
X329500Y40184500D01*
X349502Y40252621D01*
X403158Y40299114D01*
X455500Y40310500D01*
X24760500Y40310500D01*
X24828621Y40290498D01*
G37*
%TD.AperFunction*%
%TA.AperFunction,Conductor*%
G36*
X35899102Y8554545D02*
G01*
X35905258Y8553939D01*
X36238032Y8504577D01*
X36244099Y8503371D01*
X36570437Y8421627D01*
X36576357Y8419832D01*
X36893110Y8306496D01*
X36898826Y8304128D01*
X37202937Y8160294D01*
X37208393Y8157378D01*
X37496958Y7984419D01*
X37502095Y7980986D01*
X37554095Y7942421D01*
X37772305Y7780585D01*
X37777087Y7776661D01*
X38026358Y7550732D01*
X38030732Y7546358D01*
X38256661Y7297087D01*
X38260585Y7292305D01*
X38358205Y7160680D01*
X38449640Y7037394D01*
X38460982Y7022102D01*
X38464419Y7016958D01*
X38637378Y6728393D01*
X38640294Y6722937D01*
X38784128Y6418826D01*
X38786496Y6413110D01*
X38899832Y6096357D01*
X38901627Y6090437D01*
X38983371Y5764099D01*
X38984577Y5758032D01*
X39033939Y5425258D01*
X39034545Y5419102D01*
X39051054Y5083093D01*
X39051054Y5076907D01*
X39034545Y4740896D01*
X39033939Y4734740D01*
X38984577Y4401966D01*
X38983371Y4395899D01*
X38901627Y4069561D01*
X38899832Y4063641D01*
X38786496Y3746888D01*
X38784128Y3741172D01*
X38640294Y3437061D01*
X38637379Y3431607D01*
X38464415Y3143033D01*
X38464413Y3143030D01*
X38460986Y3137902D01*
X38260588Y2867695D01*
X38256672Y2862924D01*
X38030733Y2613640D01*
X38026358Y2609266D01*
X37777080Y2383331D01*
X37772298Y2379407D01*
X37502098Y2179012D01*
X37496967Y2175584D01*
X37208389Y2002617D01*
X37202942Y1999706D01*
X36898829Y1855871D01*
X36893114Y1853504D01*
X36770345Y1809576D01*
X36576345Y1740161D01*
X36570443Y1738372D01*
X36244082Y1656623D01*
X36238040Y1655422D01*
X35905258Y1606057D01*
X35899112Y1605453D01*
X35563076Y1588944D01*
X35556928Y1588944D01*
X35220893Y1605453D01*
X35214748Y1606058D01*
X34881961Y1655421D01*
X34875924Y1656621D01*
X34549552Y1738372D01*
X34543660Y1740158D01*
X34226873Y1853507D01*
X34221187Y1855862D01*
X34041248Y1940967D01*
X33917056Y1999707D01*
X33911600Y2002623D01*
X33623011Y2175595D01*
X33617918Y2178998D01*
X33347695Y2379409D01*
X33342930Y2383319D01*
X33258950Y2459435D01*
X33093640Y2609266D01*
X33089266Y2613640D01*
X32939435Y2778950D01*
X32863319Y2862930D01*
X32859409Y2867695D01*
X32658998Y3137918D01*
X32655595Y3143011D01*
X32482625Y3431595D01*
X32479711Y3437049D01*
X32421024Y3561130D01*
X32335861Y3741191D01*
X32333506Y3746878D01*
X32220161Y4063653D01*
X32218373Y4069552D01*
X32136628Y4395896D01*
X32135421Y4401963D01*
X32121822Y4493638D01*
X32086058Y4734740D01*
X32085453Y4740887D01*
X32068946Y5076907D01*
X32068946Y5083093D01*
X32085453Y5419100D01*
X32086059Y5425256D01*
X32086060Y5425258D01*
X32135421Y5758032D01*
X32136622Y5764075D01*
X32218371Y6090440D01*
X32220161Y6096344D01*
X32333505Y6413119D01*
X32335869Y6418824D01*
X32337077Y6421377D01*
X32392560Y6538686D01*
X32479707Y6722942D01*
X32482623Y6728398D01*
X32572968Y6879130D01*
X32655589Y7016975D01*
X32659004Y7022087D01*
X32859411Y7292305D01*
X32863325Y7297073D01*
X33089265Y7546358D01*
X33093640Y7550733D01*
X33342912Y7776661D01*
X33347694Y7780585D01*
X33520305Y7908603D01*
X33617898Y7980983D01*
X33623036Y7984415D01*
X33911605Y8157378D01*
X33917061Y8160294D01*
X34221172Y8304128D01*
X34226888Y8306496D01*
X34543641Y8419832D01*
X34549561Y8421627D01*
X34773708Y8477773D01*
X34875903Y8503371D01*
X34881966Y8504577D01*
X35214740Y8553939D01*
X35220896Y8554545D01*
X35556903Y8571054D01*
X35563089Y8571054D01*
X35899102Y8554545D01*
G37*
%TD.AperFunction*%
%TA.AperFunction,Conductor*%
G36*
X35899102Y39034545D02*
G01*
X35905258Y39033939D01*
X36238032Y38984577D01*
X36244099Y38983371D01*
X36570437Y38901627D01*
X36576357Y38899832D01*
X36893110Y38786496D01*
X36898826Y38784128D01*
X37202937Y38640294D01*
X37208393Y38637378D01*
X37496958Y38464419D01*
X37502095Y38460986D01*
X37589739Y38395985D01*
X37772305Y38260585D01*
X37777087Y38256661D01*
X38026358Y38030732D01*
X38030732Y38026358D01*
X38256661Y37777087D01*
X38260585Y37772305D01*
X38460982Y37502102D01*
X38464419Y37496958D01*
X38637378Y37208393D01*
X38640294Y37202937D01*
X38784128Y36898826D01*
X38786496Y36893110D01*
X38899832Y36576357D01*
X38901627Y36570437D01*
X38983371Y36244099D01*
X38984577Y36238032D01*
X39033939Y35905258D01*
X39034545Y35899102D01*
X39051054Y35563093D01*
X39051054Y35556907D01*
X39034545Y35220896D01*
X39033939Y35214740D01*
X38984577Y34881966D01*
X38983371Y34875899D01*
X38901627Y34549561D01*
X38899832Y34543641D01*
X38786496Y34226888D01*
X38784128Y34221172D01*
X38640294Y33917061D01*
X38637379Y33911607D01*
X38464415Y33623033D01*
X38464413Y33623030D01*
X38460986Y33617902D01*
X38260588Y33347695D01*
X38256672Y33342924D01*
X38030733Y33093640D01*
X38026358Y33089265D01*
X37777073Y32863325D01*
X37772304Y32859411D01*
X37502087Y32659004D01*
X37496975Y32655589D01*
X37208389Y32482617D01*
X37202942Y32479706D01*
X36898829Y32335871D01*
X36893114Y32333504D01*
X36770345Y32289576D01*
X36576345Y32220161D01*
X36570443Y32218372D01*
X36244082Y32136623D01*
X36238040Y32135422D01*
X35905258Y32086057D01*
X35899112Y32085453D01*
X35563076Y32068944D01*
X35556928Y32068944D01*
X35220893Y32085453D01*
X35214748Y32086058D01*
X34881961Y32135421D01*
X34875924Y32136621D01*
X34596202Y32206687D01*
X34549554Y32218372D01*
X34543655Y32220160D01*
X34226878Y32333506D01*
X34221191Y32335861D01*
X33943651Y32467129D01*
X33917049Y32479711D01*
X33911593Y32482627D01*
X33892765Y32493912D01*
X33623011Y32655595D01*
X33617918Y32658998D01*
X33347695Y32859409D01*
X33342930Y32863319D01*
X33258950Y32939435D01*
X33093640Y33089266D01*
X33089266Y33093640D01*
X32939435Y33258950D01*
X32863319Y33342930D01*
X32859409Y33347695D01*
X32658998Y33617918D01*
X32655595Y33623011D01*
X32482625Y33911595D01*
X32479711Y33917049D01*
X32421024Y34041130D01*
X32335861Y34221191D01*
X32333506Y34226878D01*
X32220161Y34543653D01*
X32218373Y34549552D01*
X32136628Y34875896D01*
X32135421Y34881963D01*
X32086059Y35214731D01*
X32085453Y35220887D01*
X32081773Y35295788D01*
X32070723Y35520727D01*
X32068946Y35556907D01*
X32068946Y35563093D01*
X32085453Y35899102D01*
X32086059Y35905258D01*
X32092517Y35948795D01*
X32135422Y36238039D01*
X32136623Y36244080D01*
X32218372Y36570442D01*
X32220162Y36576346D01*
X32333503Y36893112D01*
X32335869Y36898823D01*
X32479705Y37202937D01*
X32482621Y37208393D01*
X32555633Y37330207D01*
X32655589Y37496974D01*
X32659004Y37502086D01*
X32859413Y37772306D01*
X32863327Y37777075D01*
X33089265Y38026358D01*
X33093640Y38030733D01*
X33342912Y38256661D01*
X33347694Y38260585D01*
X33429931Y38321577D01*
X33617898Y38460983D01*
X33623036Y38464415D01*
X33911605Y38637378D01*
X33917061Y38640294D01*
X34221172Y38784128D01*
X34226888Y38786496D01*
X34543641Y38899832D01*
X34549561Y38901627D01*
X34773708Y38957773D01*
X34875903Y38983371D01*
X34881966Y38984577D01*
X35214740Y39033939D01*
X35220896Y39034545D01*
X35556903Y39051054D01*
X35563089Y39051054D01*
X35899102Y39034545D01*
G37*
%TD.AperFunction*%
%TD*%
%TA.AperFunction,Conductor*%
%TO.N,GNDA*%
G36*
X40252621Y40290498D02*
G01*
X40299114Y40236842D01*
X40310500Y40184500D01*
X40310500Y13648489D01*
X40155271Y454018D01*
X40134469Y386137D01*
X40080270Y340279D01*
X40029280Y329500D01*
X25526000Y329500D01*
X25457879Y349502D01*
X25411386Y403158D01*
X25400000Y455500D01*
X25400000Y2950228D01*
X25420002Y3018349D01*
X25473658Y3064842D01*
X25543932Y3074946D01*
X25570029Y3068284D01*
X25608299Y3054011D01*
X25608302Y3054010D01*
X25608303Y3054009D01*
X25668850Y3047500D01*
X25668862Y3047500D01*
X27163149Y3047500D01*
X27223696Y3054009D01*
X27223704Y3054011D01*
X27360702Y3105110D01*
X27360707Y3105112D01*
X27477761Y3192738D01*
X27565387Y3309792D01*
X27565389Y3309797D01*
X27616488Y3446795D01*
X27616490Y3446803D01*
X27622999Y3507350D01*
X27623000Y3507367D01*
X27623000Y4493632D01*
X27622999Y4493649D01*
X27616490Y4554196D01*
X27616488Y4554204D01*
X27609460Y4573045D01*
X27565389Y4691204D01*
X27491961Y4789290D01*
X27467152Y4855808D01*
X27482243Y4925183D01*
X27532445Y4975385D01*
X27601819Y4990477D01*
X27668339Y4965667D01*
X27693793Y4946612D01*
X27693797Y4946610D01*
X27830795Y4895511D01*
X27830803Y4895509D01*
X27891350Y4889000D01*
X27891362Y4889000D01*
X28877649Y4889000D01*
X28938196Y4895509D01*
X28938204Y4895511D01*
X29075202Y4946610D01*
X29075207Y4946612D01*
X29192261Y5034238D01*
X29226515Y5079996D01*
X31554675Y5079996D01*
X31573962Y4687412D01*
X31573963Y4687398D01*
X31593721Y4554204D01*
X31631636Y4298600D01*
X31679389Y4107958D01*
X31727144Y3917310D01*
X31859561Y3547230D01*
X32027621Y3191899D01*
X32229696Y2854756D01*
X32463834Y2539057D01*
X32727808Y2247808D01*
X33019057Y1983834D01*
X33334756Y1749696D01*
X33671899Y1547621D01*
X33671902Y1547619D01*
X33671903Y1547619D01*
X33908786Y1435581D01*
X34027230Y1379561D01*
X34397310Y1247144D01*
X34585078Y1200111D01*
X34778600Y1151636D01*
X34778604Y1151635D01*
X34778606Y1151635D01*
X35167398Y1093963D01*
X35167406Y1093962D01*
X35167409Y1093962D01*
X35335662Y1085696D01*
X35559996Y1074675D01*
X35560000Y1074675D01*
X35560004Y1074675D01*
X35756295Y1084318D01*
X35952591Y1093962D01*
X35952594Y1093962D01*
X35952601Y1093963D01*
X36312816Y1147396D01*
X36341400Y1151636D01*
X36626995Y1223174D01*
X36722689Y1247144D01*
X37092769Y1379561D01*
X37092772Y1379562D01*
X37448097Y1547619D01*
X37561649Y1615680D01*
X37785243Y1749696D01*
X38100942Y1983834D01*
X38100951Y1983842D01*
X38392192Y2247808D01*
X38656158Y2539049D01*
X38656159Y2539050D01*
X38656165Y2539057D01*
X38890303Y2854756D01*
X39006129Y3048000D01*
X39092381Y3191903D01*
X39260438Y3547228D01*
X39392857Y3917316D01*
X39488364Y4298600D01*
X39546038Y4687409D01*
X39565325Y5080000D01*
X39546038Y5472591D01*
X39488364Y5861400D01*
X39392857Y6242684D01*
X39260438Y6612772D01*
X39092381Y6968097D01*
X38890306Y7305239D01*
X38775613Y7459885D01*
X38656165Y7620942D01*
X38656163Y7620943D01*
X38656158Y7620951D01*
X38392192Y7912192D01*
X38100951Y8176158D01*
X38088879Y8185111D01*
X37785243Y8410303D01*
X37785239Y8410306D01*
X37448097Y8612381D01*
X37092772Y8780438D01*
X36722684Y8912857D01*
X36341400Y9008364D01*
X35952591Y9066038D01*
X35615384Y9082604D01*
X35560004Y9085325D01*
X35559996Y9085325D01*
X35502590Y9082504D01*
X35167409Y9066038D01*
X34778600Y9008364D01*
X34397316Y8912857D01*
X34027228Y8780438D01*
X33671903Y8612381D01*
X33334761Y8410306D01*
X33334756Y8410303D01*
X33019057Y8176165D01*
X33019050Y8176159D01*
X33019049Y8176158D01*
X32727808Y7912192D01*
X32463842Y7620951D01*
X32463834Y7620942D01*
X32229696Y7305243D01*
X32097229Y7084235D01*
X32027619Y6968097D01*
X31970717Y6847788D01*
X31859561Y6612769D01*
X31727144Y6242689D01*
X31727143Y6242684D01*
X31631636Y5861400D01*
X31631635Y5861393D01*
X31573963Y5472601D01*
X31573962Y5472587D01*
X31554675Y5080003D01*
X31554675Y5079996D01*
X29226515Y5079996D01*
X29279887Y5151292D01*
X29279889Y5151297D01*
X29330988Y5288295D01*
X29330990Y5288303D01*
X29337499Y5348850D01*
X29337500Y5348867D01*
X29337500Y6843132D01*
X29337499Y6843149D01*
X29330990Y6903696D01*
X29330988Y6903704D01*
X29306969Y6968100D01*
X29279889Y7040704D01*
X29192261Y7157761D01*
X29192259Y7157761D01*
X29192259Y7157763D01*
X29185889Y7164134D01*
X29187114Y7165359D01*
X29150947Y7213668D01*
X29143000Y7257708D01*
X29143000Y7365059D01*
X29144330Y7383319D01*
X29146610Y7398884D01*
X29147841Y7407289D01*
X29145013Y7439612D01*
X29143240Y7459885D01*
X29143000Y7465378D01*
X29143000Y7473675D01*
X29143000Y7473680D01*
X29139152Y7506594D01*
X29132387Y7583927D01*
X29132385Y7583930D01*
X29130902Y7591119D01*
X29130970Y7591133D01*
X29129341Y7598481D01*
X29129273Y7598465D01*
X29127579Y7605604D01*
X29127579Y7605613D01*
X29101030Y7678555D01*
X29076614Y7752239D01*
X29076611Y7752242D01*
X29073511Y7758892D01*
X29073574Y7758921D01*
X29070293Y7765698D01*
X29070232Y7765667D01*
X29066934Y7772233D01*
X29024267Y7837105D01*
X28983531Y7903148D01*
X28983529Y7903152D01*
X28983523Y7903157D01*
X28978976Y7908910D01*
X28979030Y7908953D01*
X28974275Y7914790D01*
X28974223Y7914746D01*
X28969506Y7920365D01*
X28969501Y7920374D01*
X28913017Y7973663D01*
X28359881Y8526799D01*
X27723405Y9163276D01*
X27689379Y9225588D01*
X27686500Y9252371D01*
X27686500Y10208632D01*
X27686499Y10208649D01*
X27679990Y10269196D01*
X27679988Y10269204D01*
X27672960Y10288045D01*
X27628889Y10406204D01*
X27541261Y10523261D01*
X27482657Y10567132D01*
X27440110Y10623968D01*
X27435046Y10694784D01*
X27469071Y10757096D01*
X27482657Y10768868D01*
X27541261Y10812738D01*
X27628887Y10929792D01*
X27628889Y10929797D01*
X27679988Y11066795D01*
X27679990Y11066803D01*
X27686499Y11127350D01*
X27686500Y11127367D01*
X27686500Y12748632D01*
X27686499Y12748649D01*
X27679990Y12809196D01*
X27679988Y12809204D01*
X27672960Y12828045D01*
X27628889Y12946204D01*
X27541261Y13063261D01*
X27541259Y13063261D01*
X27541259Y13063263D01*
X27534889Y13069634D01*
X27536700Y13071445D01*
X27502278Y13117427D01*
X27497212Y13188243D01*
X27531234Y13250553D01*
X27922773Y13642092D01*
X27936627Y13654065D01*
X27956057Y13668530D01*
X27956058Y13668531D01*
X27989998Y13708979D01*
X27993702Y13713021D01*
X27999580Y13718899D01*
X28020132Y13744892D01*
X28020133Y13744893D01*
X28070033Y13804360D01*
X28074065Y13810491D01*
X28074120Y13810454D01*
X28078169Y13816811D01*
X28078113Y13816847D01*
X28081966Y13823094D01*
X28081967Y13823095D01*
X28114775Y13893452D01*
X28149609Y13962812D01*
X28149609Y13962813D01*
X28149611Y13962817D01*
X28152121Y13969713D01*
X28152185Y13969689D01*
X28154659Y13976805D01*
X28154595Y13976827D01*
X28156903Y13983791D01*
X28172607Y14059849D01*
X28190499Y14135341D01*
X28190500Y14135344D01*
X28190500Y14135349D01*
X28191352Y14142633D01*
X28191418Y14142625D01*
X28192185Y14150126D01*
X28192119Y14150132D01*
X28192757Y14157433D01*
X28192759Y14157442D01*
X28190500Y14235079D01*
X28190500Y15591628D01*
X28210502Y15659749D01*
X28227404Y15680723D01*
X28300299Y15753618D01*
X28380406Y15833725D01*
X28442716Y15867749D01*
X28513532Y15862685D01*
X28570368Y15820138D01*
X28595179Y15753618D01*
X28595500Y15744629D01*
X28595500Y15431350D01*
X28602009Y15370803D01*
X28602011Y15370795D01*
X28653110Y15233797D01*
X28653112Y15233792D01*
X28740738Y15116738D01*
X28857792Y15029112D01*
X28857797Y15029110D01*
X28994795Y14978011D01*
X28994803Y14978009D01*
X29055350Y14971500D01*
X29055362Y14971500D01*
X32072649Y14971500D01*
X32133196Y14978009D01*
X32133204Y14978011D01*
X32270202Y15029110D01*
X32270207Y15029112D01*
X32387263Y15116740D01*
X32393634Y15123111D01*
X32396315Y15120429D01*
X32438793Y15152265D01*
X32509605Y15157370D01*
X32571937Y15123380D01*
X32571987Y15123330D01*
X32732655Y14962664D01*
X33998595Y13696722D01*
X34032621Y13634410D01*
X34035500Y13607627D01*
X34035500Y12651350D01*
X34042009Y12590803D01*
X34042011Y12590795D01*
X34093110Y12453797D01*
X34093112Y12453792D01*
X34180738Y12336738D01*
X34297792Y12249112D01*
X34297797Y12249110D01*
X34434795Y12198011D01*
X34434803Y12198009D01*
X34495350Y12191500D01*
X34495362Y12191500D01*
X36116649Y12191500D01*
X36177196Y12198009D01*
X36177204Y12198011D01*
X36314202Y12249110D01*
X36314207Y12249112D01*
X36431261Y12336739D01*
X36475133Y12395343D01*
X36531969Y12437889D01*
X36602784Y12442953D01*
X36665096Y12408928D01*
X36676867Y12395343D01*
X36720738Y12336739D01*
X36837792Y12249112D01*
X36837797Y12249110D01*
X36974795Y12198011D01*
X36974803Y12198009D01*
X37035350Y12191500D01*
X37035362Y12191500D01*
X38656649Y12191500D01*
X38717196Y12198009D01*
X38717204Y12198011D01*
X38854202Y12249110D01*
X38854207Y12249112D01*
X38971261Y12336738D01*
X39058887Y12453792D01*
X39058889Y12453797D01*
X39109988Y12590795D01*
X39109990Y12590803D01*
X39116499Y12651350D01*
X39116500Y12651367D01*
X39116500Y14272632D01*
X39116499Y14272649D01*
X39109990Y14333196D01*
X39109988Y14333204D01*
X39102960Y14352045D01*
X39058889Y14470204D01*
X39035629Y14501275D01*
X38971261Y14587261D01*
X38912657Y14631132D01*
X38870110Y14687968D01*
X38865046Y14758784D01*
X38899071Y14821096D01*
X38912657Y14832868D01*
X38971261Y14876738D01*
X39058887Y14993792D01*
X39058889Y14993797D01*
X39072061Y15029110D01*
X39086510Y15067850D01*
X39109988Y15130795D01*
X39109990Y15130803D01*
X39116499Y15191350D01*
X39116500Y15191367D01*
X39116500Y16812632D01*
X39116499Y16812649D01*
X39109990Y16873196D01*
X39109988Y16873204D01*
X39090438Y16925619D01*
X39058889Y17010204D01*
X39001595Y17086739D01*
X38971261Y17127261D01*
X38854207Y17214887D01*
X38854206Y17214887D01*
X38854204Y17214889D01*
X38717201Y17265989D01*
X38717199Y17265989D01*
X38717196Y17265990D01*
X38656649Y17272499D01*
X38656645Y17272499D01*
X38656638Y17272500D01*
X37035362Y17272500D01*
X37035355Y17272499D01*
X37035350Y17272499D01*
X36974803Y17265990D01*
X36974795Y17265988D01*
X36919979Y17245542D01*
X36837796Y17214889D01*
X36837794Y17214888D01*
X36837792Y17214887D01*
X36720738Y17127261D01*
X36676868Y17068657D01*
X36620032Y17026110D01*
X36549216Y17021046D01*
X36486904Y17055071D01*
X36475132Y17068657D01*
X36431261Y17127261D01*
X36314207Y17214887D01*
X36314206Y17214887D01*
X36314204Y17214889D01*
X36177201Y17265989D01*
X36177199Y17265989D01*
X36177196Y17265990D01*
X36116649Y17272499D01*
X36116645Y17272499D01*
X36116638Y17272500D01*
X34495362Y17272500D01*
X34495355Y17272499D01*
X34495350Y17272499D01*
X34434803Y17265990D01*
X34434795Y17265988D01*
X34379979Y17245542D01*
X34297796Y17214889D01*
X34297794Y17214888D01*
X34297792Y17214887D01*
X34180738Y17127261D01*
X34124056Y17051542D01*
X34067220Y17008995D01*
X33996405Y17003931D01*
X33934095Y17037954D01*
X33269403Y17702646D01*
X33235379Y17764956D01*
X33232500Y17791732D01*
X33232500Y17805571D01*
X33233831Y17823822D01*
X33237341Y17847784D01*
X33237342Y17847790D01*
X33234117Y17884652D01*
X33232741Y17900386D01*
X33232501Y17905879D01*
X33232501Y17914176D01*
X33232501Y17914181D01*
X33228653Y17947095D01*
X33221888Y18024428D01*
X33221886Y18024431D01*
X33220403Y18031620D01*
X33220471Y18031634D01*
X33218842Y18038982D01*
X33218774Y18038966D01*
X33217080Y18046105D01*
X33217080Y18046114D01*
X33190531Y18119056D01*
X33166115Y18192740D01*
X33166112Y18192743D01*
X33163012Y18199393D01*
X33163074Y18199422D01*
X33159789Y18206207D01*
X33159728Y18206177D01*
X33156435Y18212735D01*
X33113773Y18277600D01*
X33094818Y18308329D01*
X33073031Y18343652D01*
X33073028Y18343655D01*
X33068474Y18349416D01*
X33068528Y18349458D01*
X33063776Y18355291D01*
X33063724Y18355247D01*
X33059007Y18360866D01*
X33059002Y18360875D01*
X33002518Y18414164D01*
X32965897Y18450784D01*
X32953938Y18464624D01*
X32939470Y18484059D01*
X32899016Y18518002D01*
X32894980Y18521701D01*
X32889102Y18527581D01*
X32863104Y18548137D01*
X32803638Y18598036D01*
X32797509Y18602067D01*
X32797546Y18602123D01*
X32791188Y18606174D01*
X32791152Y18606116D01*
X32784911Y18609964D01*
X32784907Y18609968D01*
X32752463Y18625096D01*
X32714542Y18642780D01*
X32691490Y18654356D01*
X32645189Y18677610D01*
X32645185Y18677611D01*
X32638292Y18680120D01*
X32638315Y18680185D01*
X32631202Y18682657D01*
X32631181Y18682593D01*
X32618868Y18686673D01*
X32560496Y18727087D01*
X32533240Y18792643D01*
X32532500Y18806278D01*
X32532500Y18828632D01*
X32532499Y18828649D01*
X32525990Y18889196D01*
X32525989Y18889201D01*
X32525988Y18889201D01*
X32485233Y18998468D01*
X32480168Y19069282D01*
X32485234Y19086533D01*
X32525989Y19195799D01*
X32525990Y19195803D01*
X32532499Y19256350D01*
X32532500Y19256367D01*
X32532500Y20113632D01*
X32532499Y20113649D01*
X32525990Y20174196D01*
X32525989Y20174197D01*
X32525989Y20174201D01*
X32488031Y20275966D01*
X32482966Y20346781D01*
X32488031Y20364032D01*
X32525989Y20465799D01*
X32525989Y20465802D01*
X32525990Y20465803D01*
X32532499Y20526350D01*
X32532500Y20526367D01*
X32532500Y21383632D01*
X32532499Y21383649D01*
X32525990Y21444196D01*
X32525989Y21444201D01*
X32525988Y21444201D01*
X32485233Y21553468D01*
X32480168Y21624282D01*
X32485234Y21641533D01*
X32525989Y21750799D01*
X32525990Y21750803D01*
X32532499Y21811350D01*
X32532500Y21811367D01*
X32532500Y21838643D01*
X32552502Y21906764D01*
X32606158Y21953257D01*
X32615405Y21957044D01*
X32615785Y21957182D01*
X32633066Y21963472D01*
X32669576Y21975570D01*
X32706737Y21987884D01*
X32713389Y21990986D01*
X32713417Y21990925D01*
X32720203Y21994210D01*
X32720174Y21994269D01*
X32726725Y21997559D01*
X32791606Y22040232D01*
X32857649Y22080966D01*
X32863409Y22085521D01*
X32863451Y22085467D01*
X32869293Y22090227D01*
X32869251Y22090278D01*
X32874869Y22094992D01*
X32928163Y22151480D01*
X32928164Y22151481D01*
X32964780Y22188097D01*
X32978619Y22200057D01*
X32998059Y22214530D01*
X33031999Y22254978D01*
X33035703Y22259020D01*
X33041581Y22264898D01*
X33062137Y22290895D01*
X33112033Y22350359D01*
X33112036Y22350365D01*
X33116068Y22356494D01*
X33116124Y22356456D01*
X33120172Y22362810D01*
X33120115Y22362846D01*
X33123965Y22369088D01*
X33123966Y22369090D01*
X33123968Y22369093D01*
X33156774Y22439446D01*
X33191610Y22508811D01*
X33191610Y22508813D01*
X33194122Y22515712D01*
X33194185Y22515688D01*
X33196659Y22522805D01*
X33196595Y22522827D01*
X33198903Y22529791D01*
X33214600Y22605817D01*
X33232501Y22681342D01*
X33233353Y22688631D01*
X33233419Y22688623D01*
X33234185Y22696123D01*
X33234119Y22696129D01*
X33234757Y22703433D01*
X33234759Y22703441D01*
X33232501Y22781044D01*
X33232501Y22848260D01*
X33252503Y22916381D01*
X33269406Y22937355D01*
X33934094Y23602043D01*
X33996406Y23636069D01*
X34067221Y23631004D01*
X34124057Y23588457D01*
X34180738Y23512738D01*
X34297792Y23425112D01*
X34297797Y23425110D01*
X34434795Y23374011D01*
X34434803Y23374009D01*
X34495350Y23367500D01*
X34495362Y23367500D01*
X36116649Y23367500D01*
X36177196Y23374009D01*
X36177204Y23374011D01*
X36314202Y23425110D01*
X36314207Y23425112D01*
X36431261Y23512739D01*
X36475133Y23571343D01*
X36531969Y23613889D01*
X36602784Y23618953D01*
X36665096Y23584928D01*
X36676867Y23571343D01*
X36720738Y23512739D01*
X36837792Y23425112D01*
X36837797Y23425110D01*
X36974795Y23374011D01*
X36974803Y23374009D01*
X37035350Y23367500D01*
X37035362Y23367500D01*
X38656649Y23367500D01*
X38717196Y23374009D01*
X38717204Y23374011D01*
X38854202Y23425110D01*
X38854207Y23425112D01*
X38971261Y23512738D01*
X39058887Y23629792D01*
X39058889Y23629797D01*
X39059340Y23631004D01*
X39109989Y23766799D01*
X39109990Y23766803D01*
X39116499Y23827350D01*
X39116500Y23827367D01*
X39116500Y25448632D01*
X39116499Y25448649D01*
X39109990Y25509196D01*
X39109988Y25509204D01*
X39102960Y25528045D01*
X39058889Y25646204D01*
X39047072Y25661989D01*
X38971261Y25763261D01*
X38912657Y25807132D01*
X38870110Y25863968D01*
X38865046Y25934784D01*
X38899071Y25997096D01*
X38912657Y26008868D01*
X38971261Y26052738D01*
X39058887Y26169792D01*
X39058889Y26169797D01*
X39109988Y26306795D01*
X39109990Y26306803D01*
X39116499Y26367350D01*
X39116500Y26367367D01*
X39116500Y27988632D01*
X39116499Y27988649D01*
X39109990Y28049196D01*
X39109988Y28049204D01*
X39096734Y28084739D01*
X39058889Y28186204D01*
X38971261Y28303261D01*
X38854204Y28390889D01*
X38717201Y28441989D01*
X38717199Y28441989D01*
X38717196Y28441990D01*
X38656649Y28448499D01*
X38656645Y28448499D01*
X38656638Y28448500D01*
X37035362Y28448500D01*
X37035355Y28448499D01*
X37035350Y28448499D01*
X36974803Y28441990D01*
X36974795Y28441988D01*
X36896875Y28412924D01*
X36837796Y28390889D01*
X36837794Y28390888D01*
X36837792Y28390887D01*
X36720738Y28303261D01*
X36676868Y28244657D01*
X36620032Y28202110D01*
X36549216Y28197046D01*
X36486904Y28231071D01*
X36475132Y28244657D01*
X36431261Y28303261D01*
X36314207Y28390887D01*
X36314206Y28390887D01*
X36314204Y28390889D01*
X36177201Y28441989D01*
X36177199Y28441989D01*
X36177196Y28441990D01*
X36116649Y28448499D01*
X36116645Y28448499D01*
X36116638Y28448500D01*
X34495362Y28448500D01*
X34495355Y28448499D01*
X34495350Y28448499D01*
X34434803Y28441990D01*
X34434795Y28441988D01*
X34356875Y28412924D01*
X34297796Y28390889D01*
X34297794Y28390888D01*
X34297792Y28390887D01*
X34180738Y28303261D01*
X34093112Y28186207D01*
X34093110Y28186202D01*
X34042011Y28049204D01*
X34042009Y28049196D01*
X34035500Y27988649D01*
X34035500Y27032371D01*
X34015498Y26964250D01*
X33998595Y26943276D01*
X32571988Y25516669D01*
X32509676Y25482643D01*
X32438861Y25487708D01*
X32396307Y25519562D01*
X32393634Y25516889D01*
X32387264Y25523258D01*
X32387262Y25523259D01*
X32387261Y25523261D01*
X32270204Y25610889D01*
X32133201Y25661989D01*
X32133199Y25661989D01*
X32133196Y25661990D01*
X32072649Y25668499D01*
X32072645Y25668499D01*
X32072638Y25668500D01*
X29055362Y25668500D01*
X29055355Y25668499D01*
X29055350Y25668499D01*
X28994803Y25661990D01*
X28994795Y25661988D01*
X28916875Y25632924D01*
X28857796Y25610889D01*
X28857794Y25610888D01*
X28857792Y25610887D01*
X28740738Y25523261D01*
X28653112Y25406207D01*
X28653110Y25406202D01*
X28642129Y25376761D01*
X28599582Y25319925D01*
X28533062Y25295115D01*
X28463688Y25310207D01*
X28434985Y25331693D01*
X28329002Y25437676D01*
X28294979Y25499986D01*
X28292100Y25526769D01*
X28292100Y26249959D01*
X28293430Y26268219D01*
X28294416Y26274955D01*
X28296941Y26292189D01*
X28294113Y26324512D01*
X28292340Y26344785D01*
X28292100Y26350278D01*
X28292100Y26358575D01*
X28292100Y26358580D01*
X28288252Y26391494D01*
X28281487Y26468827D01*
X28281485Y26468830D01*
X28280002Y26476019D01*
X28280070Y26476033D01*
X28278441Y26483381D01*
X28278373Y26483365D01*
X28276680Y26490502D01*
X28276679Y26490513D01*
X28250128Y26563461D01*
X28225714Y26637138D01*
X28225710Y26637143D01*
X28222610Y26643793D01*
X28222672Y26643822D01*
X28219389Y26650603D01*
X28219329Y26650573D01*
X28216035Y26657131D01*
X28216035Y26657132D01*
X28173366Y26722005D01*
X28132630Y26788051D01*
X28132620Y26788060D01*
X28128077Y26793808D01*
X28128131Y26793850D01*
X28123375Y26799689D01*
X28123323Y26799646D01*
X28118606Y26805265D01*
X28118601Y26805274D01*
X28062117Y26858563D01*
X27211403Y27709276D01*
X27177380Y27771587D01*
X27174500Y27798370D01*
X27174500Y27820714D01*
X27194502Y27888835D01*
X27248158Y27935328D01*
X27279584Y27943949D01*
X27279526Y27944197D01*
X27286457Y27945835D01*
X27287029Y27945992D01*
X27287197Y27946010D01*
X27287204Y27946011D01*
X27424202Y27997110D01*
X27424207Y27997112D01*
X27541261Y28084738D01*
X27628887Y28201792D01*
X27628889Y28201797D01*
X27679988Y28338795D01*
X27679990Y28338803D01*
X27686499Y28399350D01*
X27686500Y28399367D01*
X27686500Y30020632D01*
X27686499Y30020649D01*
X27679990Y30081196D01*
X27679988Y30081204D01*
X27672960Y30100045D01*
X27628889Y30218204D01*
X27541261Y30335261D01*
X27482657Y30379132D01*
X27440110Y30435968D01*
X27435046Y30506784D01*
X27469071Y30569096D01*
X27482657Y30580868D01*
X27541261Y30624738D01*
X27628887Y30741792D01*
X27628889Y30741797D01*
X27679988Y30878795D01*
X27679990Y30878803D01*
X27686499Y30939350D01*
X27686500Y30939367D01*
X27686500Y32560632D01*
X27686499Y32560649D01*
X27679990Y32621196D01*
X27679989Y32621198D01*
X27679989Y32621201D01*
X27668731Y32651382D01*
X27663664Y32722194D01*
X27697685Y32784504D01*
X28213276Y33300095D01*
X28275588Y33334121D01*
X28302371Y33337000D01*
X28877649Y33337000D01*
X28938196Y33343509D01*
X28938204Y33343511D01*
X29075202Y33394610D01*
X29075207Y33394612D01*
X29192261Y33482238D01*
X29279887Y33599292D01*
X29279889Y33599297D01*
X29330988Y33736295D01*
X29330990Y33736303D01*
X29337499Y33796850D01*
X29337500Y33796867D01*
X29337500Y35291132D01*
X29337499Y35291149D01*
X29330990Y35351696D01*
X29330988Y35351704D01*
X29323960Y35370545D01*
X29279889Y35488704D01*
X29226520Y35559996D01*
X31554675Y35559996D01*
X31573962Y35167412D01*
X31573963Y35167398D01*
X31631635Y34778606D01*
X31631636Y34778600D01*
X31679389Y34587958D01*
X31727144Y34397310D01*
X31859561Y34027230D01*
X32027621Y33671899D01*
X32229696Y33334756D01*
X32463834Y33019057D01*
X32727808Y32727808D01*
X33019057Y32463834D01*
X33334756Y32229696D01*
X33671899Y32027621D01*
X34027230Y31859561D01*
X34397310Y31727144D01*
X34587958Y31679389D01*
X34778600Y31631636D01*
X34778604Y31631635D01*
X34778606Y31631635D01*
X35167398Y31573963D01*
X35167406Y31573962D01*
X35167409Y31573962D01*
X35335662Y31565696D01*
X35559996Y31554675D01*
X35560000Y31554675D01*
X35560004Y31554675D01*
X35756295Y31564318D01*
X35952591Y31573962D01*
X35952594Y31573962D01*
X35952601Y31573963D01*
X36341393Y31631635D01*
X36341400Y31631636D01*
X36626995Y31703174D01*
X36722689Y31727144D01*
X37092769Y31859561D01*
X37092772Y31859562D01*
X37448097Y32027619D01*
X37561649Y32095680D01*
X37785243Y32229696D01*
X38100942Y32463834D01*
X38207742Y32560632D01*
X38392192Y32727808D01*
X38656158Y33019049D01*
X38656159Y33019050D01*
X38656165Y33019057D01*
X38890303Y33334756D01*
X38926179Y33394612D01*
X39092381Y33671903D01*
X39260438Y34027228D01*
X39392857Y34397316D01*
X39488364Y34778600D01*
X39546038Y35167409D01*
X39565325Y35560000D01*
X39546038Y35952591D01*
X39488364Y36341400D01*
X39392857Y36722684D01*
X39260438Y37092772D01*
X39092381Y37448097D01*
X38890306Y37785239D01*
X38656158Y38100951D01*
X38392192Y38392192D01*
X38100951Y38656158D01*
X37785239Y38890306D01*
X37448097Y39092381D01*
X37092772Y39260438D01*
X36722684Y39392857D01*
X36341400Y39488364D01*
X35952591Y39546038D01*
X35615384Y39562604D01*
X35560004Y39565325D01*
X35559996Y39565325D01*
X35502590Y39562504D01*
X35167409Y39546038D01*
X34778600Y39488364D01*
X34397316Y39392857D01*
X34027228Y39260438D01*
X33671903Y39092381D01*
X33580570Y39037638D01*
X33334756Y38890303D01*
X33019057Y38656165D01*
X33019050Y38656159D01*
X33019049Y38656158D01*
X32727808Y38392192D01*
X32463842Y38100951D01*
X32463834Y38100942D01*
X32229696Y37785243D01*
X32229694Y37785239D01*
X32027619Y37448097D01*
X31859562Y37092772D01*
X31859561Y37092769D01*
X31727144Y36722689D01*
X31727143Y36722684D01*
X31631636Y36341400D01*
X31573962Y35952591D01*
X31568957Y35850710D01*
X31554675Y35560003D01*
X31554675Y35559996D01*
X29226520Y35559996D01*
X29192261Y35605761D01*
X29113644Y35664613D01*
X29075207Y35693387D01*
X29075206Y35693387D01*
X29075204Y35693389D01*
X28957045Y35737460D01*
X28938204Y35744488D01*
X28938203Y35744488D01*
X28938201Y35744489D01*
X28938199Y35744489D01*
X28938196Y35744490D01*
X28877649Y35750999D01*
X28877645Y35750999D01*
X28877638Y35751000D01*
X27891362Y35751000D01*
X27891355Y35750999D01*
X27891350Y35750999D01*
X27830803Y35744490D01*
X27830795Y35744488D01*
X27752875Y35715424D01*
X27693796Y35693389D01*
X27693793Y35693387D01*
X27693791Y35693386D01*
X27668341Y35674334D01*
X27601821Y35649522D01*
X27532447Y35664613D01*
X27482244Y35714814D01*
X27467152Y35784188D01*
X27491962Y35850709D01*
X27491963Y35850710D01*
X27565387Y35948792D01*
X27565389Y35948797D01*
X27616488Y36085795D01*
X27616490Y36085803D01*
X27622999Y36146350D01*
X27623000Y36146367D01*
X27623000Y37132632D01*
X27622999Y37132649D01*
X27616490Y37193196D01*
X27616488Y37193204D01*
X27609460Y37212045D01*
X27565389Y37330204D01*
X27477761Y37447261D01*
X27360704Y37534889D01*
X27223701Y37585989D01*
X27223699Y37585989D01*
X27223696Y37585990D01*
X27163149Y37592499D01*
X27163145Y37592499D01*
X27163138Y37592500D01*
X25668862Y37592500D01*
X25668855Y37592499D01*
X25668850Y37592499D01*
X25608303Y37585990D01*
X25608299Y37585989D01*
X25570031Y37571715D01*
X25499217Y37566650D01*
X25436905Y37600674D01*
X25402879Y37662986D01*
X25400000Y37689761D01*
X25400000Y40184500D01*
X25420002Y40252621D01*
X25473658Y40299114D01*
X25526000Y40310500D01*
X40184500Y40310500D01*
X40252621Y40290498D01*
G37*
%TD.AperFunction*%
%TD*%
M02*
